<svg width="100" height="101" viewBox="0 0 100 101" fill="none" xmlns="http://www.w3.org/2000/svg">
<path d="M92.8699 67.1662C83.2755 89.5924 57.949 99.2249 38.105 97.5825C32.6869 97.1341 21.7853 96.2317 13.2732 88.1823C-3.07346 72.7238 -0.555732 40.4113 15.0925 21.3876C17.1082 18.9377 31.057 2.52386 52.7937 2.74339C68.7079 2.90441 79.8783 11.8939 81.2367 13.0141C82.9524 14.429 86.7368 17.7909 90.1476 23.1245C98.1617 35.6567 98.866 53.152 92.8703 67.1658L92.8699 67.1662Z" fill="url(#paint0_linear_987_4598)"/>
<path d="M3.22499 15.8114C3.09964 15.6241 3.31294 15.3966 3.50651 15.5115C6.59939 17.3457 17.5117 24.7376 21.4118 39.6978C24.9801 53.3855 25.2412 63.5731 25.1854 67.3668C25.1743 68.1169 24.3599 68.5784 23.7113 68.201C19.8671 65.9655 9.43084 59.1429 7.85808 50.1593C5.97853 39.4239 9.20749 24.7438 3.22499 15.8114Z" fill="#BDD0FB"/>
<g style="mix-blend-mode:soft-light">
<path d="M10.2046 25.8135C10.2046 25.8135 18.9746 34.635 24.2926 67.0802C24.2926 67.0802 17.2207 34.7562 10.2046 25.8135Z" fill="white"/>
</g>
<path d="M16.392 3.60821C13.5491 10.6531 -1.32006 52.3246 35.2775 73.3016C35.2775 73.3016 52.1288 48.3875 17.4962 3.45447C17.1933 3.06145 16.5776 3.14802 16.3916 3.60821H16.392Z" fill="#91B3FA"/>
<g style="mix-blend-mode:soft-light">
<path d="M18.1703 10.6536C18.0958 13.2025 18.1274 15.7583 18.2098 18.3093C18.2943 20.8609 18.4404 23.4105 18.6499 25.9545C19.0706 31.0419 19.732 36.112 20.7237 41.1174C21.7202 46.1192 23.0402 51.066 24.8834 55.8176C25.3402 57.0066 25.8419 58.1774 26.3731 59.3339C26.9025 60.4912 27.4766 61.628 28.0926 62.7402C29.316 64.9695 30.7323 67.0921 32.3431 69.053L32.3445 69.0548C32.4283 69.1569 32.4138 69.3075 32.3116 69.3917C32.2095 69.4755 32.0588 69.4609 31.9747 69.3588L31.974 69.3577C30.3496 67.3625 28.9279 65.2094 27.7034 62.9542C27.0867 61.8288 26.5133 60.6802 25.9849 59.5119C25.4551 58.3443 24.9551 57.1635 24.5011 55.9651C22.6687 51.1761 21.3664 46.2041 20.3895 41.1828C19.4176 36.1577 18.778 31.0741 18.3794 25.976C18.181 23.4264 18.0463 20.8723 17.9733 18.3165C17.9023 15.7604 17.8818 13.2039 17.9684 10.6449C17.9701 10.5888 18.0172 10.5452 18.073 10.5469C18.1291 10.5487 18.1727 10.5957 18.171 10.6515V10.6532L18.1703 10.6536Z" fill="white"/>
</g>
<path d="M23.7224 12.0234C23.3661 26.0511 22.2099 74.4375 22.7618 91.5844C22.8204 93.401 24.3128 94.8591 26.1747 94.9183C35.383 95.2123 69.1409 95.9575 84.2026 95.3411C87.3398 95.2127 89.8346 92.7334 89.8997 89.6706C90.2128 74.9469 90.9032 33.5344 89.2619 14.5633C89.0652 12.2904 87.2366 10.4801 84.9104 10.2533C74.882 9.27437 40.9791 6.88199 27.9666 7.70577C25.62 7.85432 23.7809 9.72972 23.7227 12.0238L23.7224 12.0234Z" fill="url(#paint1_linear_987_4598)"/>
<path d="M26.3677 18.208V30.0958C26.3677 32.3756 28.0447 34.2236 30.1133 34.2236H81.6528C83.7214 34.2236 85.3984 32.3756 85.3984 30.0958V18.208C85.3984 15.9281 83.7214 14.0801 81.6528 14.0801H30.1133C28.0447 14.0801 26.3677 15.9281 26.3677 18.208Z" fill="#91B3FA"/>
<path d="M82.7691 18.1397C82.3134 17.6206 81.6891 17.3221 81.0336 17.3107L32.8072 16.4662C31.518 16.4437 30.43 17.5181 30.3099 18.933L29.3078 30.7238C29.2257 31.6892 30.6669 32.5023 32.5045 32.5269L79.9179 33.1598C81.7524 33.1844 83.2691 32.4133 83.2843 31.4482L83.463 20.0785C83.4744 19.3561 83.2248 18.6587 82.7691 18.1397Z" fill="#BDD0FB"/>
<path opacity="0.59" d="M38.7465 46.277C38.7465 48.3744 37.1637 50.0746 35.2111 50.0746H30.907C28.9544 50.0746 27.3716 48.3744 27.3716 46.277C27.3716 44.1797 28.9544 42.4795 30.907 42.4795H35.2111C37.1637 42.4795 38.7465 44.1797 38.7465 46.277Z" fill="url(#paint2_linear_987_4598)"/>
<path opacity="0.59" d="M54.7329 46.277C54.7329 48.3744 53.1501 50.0746 51.1975 50.0746H46.8933C44.9407 50.0746 43.3579 48.3744 43.3579 46.277C43.3579 44.1797 44.9407 42.4795 46.8933 42.4795H51.1975C53.1501 42.4795 54.7329 44.1797 54.7329 46.277Z" fill="url(#paint3_linear_987_4598)"/>
<path opacity="0.59" d="M70.1047 46.277C70.1047 48.3744 68.5219 50.0746 66.5693 50.0746H62.2652C60.3125 50.0746 58.7297 48.3744 58.7297 46.277C58.7297 44.1797 60.3125 42.4795 62.2652 42.4795H66.5693C68.5219 42.4795 70.1047 44.1797 70.1047 46.277Z" fill="url(#paint4_linear_987_4598)"/>
<path opacity="0.59" d="M85.6872 46.8348C85.6872 48.9661 84.0788 50.6939 82.0943 50.6939H77.9342C75.9501 50.6939 74.3413 48.9661 74.3413 46.8348C74.3413 44.7035 75.9497 42.9756 77.9342 42.9756H82.0943C84.0784 42.9756 85.6872 44.7035 85.6872 46.8348Z" fill="url(#paint5_linear_987_4598)"/>
<path opacity="0.59" d="M38.7465 58.1647C38.7465 60.2621 37.1637 61.9623 35.2111 61.9623H30.907C28.9544 61.9623 27.3716 60.2621 27.3716 58.1647C27.3716 56.0674 28.9544 54.3672 30.907 54.3672H35.2111C37.1637 54.3672 38.7465 56.0674 38.7465 58.1647Z" fill="url(#paint6_linear_987_4598)"/>
<path opacity="0.59" d="M54.7329 58.1647C54.7329 60.2621 53.1501 61.9623 51.1975 61.9623H46.8933C44.9407 61.9623 43.3579 60.2621 43.3579 58.1647C43.3579 56.0674 44.9407 54.3672 46.8933 54.3672H51.1975C53.1501 54.3672 54.7329 56.0674 54.7329 58.1647Z" fill="url(#paint7_linear_987_4598)"/>
<path opacity="0.59" d="M70.1047 58.1647C70.1047 60.2621 68.5219 61.9623 66.5693 61.9623H62.2652C60.3125 61.9623 58.7297 60.2621 58.7297 58.1647C58.7297 56.0674 60.3125 54.3672 62.2652 54.3672H66.5693C68.5219 54.3672 70.1047 56.0674 70.1047 58.1647Z" fill="url(#paint8_linear_987_4598)"/>
<path opacity="0.59" d="M86.0915 58.1647C86.0915 60.2621 84.5087 61.9623 82.5561 61.9623H78.252C76.2994 61.9623 74.7166 60.2621 74.7166 58.1647C74.7166 56.0674 76.2994 54.3672 78.252 54.3672H82.5561C84.5087 54.3672 86.0915 56.0674 86.0915 58.1647Z" fill="url(#paint9_linear_987_4598)"/>
<g opacity="0.59">
<path opacity="0.63" d="M38.7465 68.6931C38.7465 70.7904 37.1637 72.4906 35.2111 72.4906H30.907C28.9544 72.4906 27.3716 70.7904 27.3716 68.6931C27.3716 66.5957 28.9544 64.8955 30.907 64.8955H35.2111C37.1637 64.8955 38.7465 66.5957 38.7465 68.6931Z" fill="url(#paint10_linear_987_4598)"/>
<path opacity="0.63" d="M54.7326 68.6931C54.7326 70.7904 53.1498 72.4906 51.1972 72.4906H46.8931C44.9405 72.4906 43.3577 70.7904 43.3577 68.6931C43.3577 66.5957 44.9405 64.8955 46.8931 64.8955H51.1972C53.1498 64.8955 54.7326 66.5957 54.7326 68.6931Z" fill="url(#paint11_linear_987_4598)"/>
<path opacity="0.63" d="M70.1045 68.6931C70.1045 70.7904 68.5217 72.4906 66.569 72.4906H62.2649C60.3123 72.4906 58.7295 70.7904 58.7295 68.6931C58.7295 66.5957 60.3123 64.8955 62.2649 64.8955H66.569C68.5217 64.8955 70.1045 66.5957 70.1045 68.6931Z" fill="url(#paint12_linear_987_4598)"/>
</g>
<g opacity="0.59">
<path opacity="0.63" d="M38.7465 80.2507C38.7465 82.348 37.1637 84.0482 35.2111 84.0482H30.907C28.9544 84.0482 27.3716 82.348 27.3716 80.2507C27.3716 78.1533 28.9544 76.4531 30.907 76.4531H35.2111C37.1637 76.4531 38.7465 78.1533 38.7465 80.2507Z" fill="url(#paint13_linear_987_4598)"/>
<path opacity="0.63" d="M54.7326 80.2507C54.7326 82.348 53.1498 84.0482 51.1972 84.0482H46.8931C44.9405 84.0482 43.3577 82.348 43.3577 80.2507C43.3577 78.1533 44.9405 76.4531 46.8931 76.4531H51.1972C53.1498 76.4531 54.7326 78.1533 54.7326 80.2507Z" fill="url(#paint14_linear_987_4598)"/>
<path opacity="0.63" d="M70.1045 80.2507C70.1045 82.348 68.5217 84.0482 66.569 84.0482H62.2649C60.3123 84.0482 58.7295 82.348 58.7295 80.2507C58.7295 78.1533 60.3123 76.4531 62.2649 76.4531H66.569C68.5217 76.4531 70.1045 78.1533 70.1045 80.2507Z" fill="url(#paint15_linear_987_4598)"/>
</g>
<path opacity="0.59" d="M84.5543 79.9404C84.5543 82.5953 82.5508 84.7473 80.0791 84.7473H79.8062C77.3346 84.7473 75.3311 82.5953 75.3311 79.9404V70.7317C75.3311 68.0769 77.3346 65.9248 79.8062 65.9248H80.0791C82.5508 65.9248 84.5543 68.0769 84.5543 70.7317V79.9404Z" fill="url(#paint16_linear_987_4598)"/>
<g opacity="0.7">
<path d="M81.6081 19.8597C81.6081 20.3157 81.2386 20.6852 80.7826 20.6852H78.4713C78.0152 20.6852 77.6458 20.3157 77.6458 19.8597C77.6458 19.4036 78.0152 19.0342 78.4713 19.0342H80.7826C81.2386 19.0342 81.6081 19.4036 81.6081 19.8597Z" fill="white"/>
<path d="M81.6081 31.0872C81.6081 31.5433 81.2386 31.9127 80.7826 31.9127H78.4713C78.0152 31.9127 77.6458 31.5433 77.6458 31.0872C77.6458 30.6312 78.0152 30.2617 78.4713 30.2617H80.7826C81.2386 30.2617 81.6081 30.6312 81.6081 31.0872Z" fill="white"/>
<path d="M77.9757 24.4826C77.9757 24.9386 77.6063 25.3081 77.1502 25.3081C76.6942 25.3081 76.3247 24.9386 76.3247 24.4826V22.1712C76.3247 21.7152 76.6942 21.3457 77.1502 21.3457C77.6063 21.3457 77.9757 21.7152 77.9757 22.1712V24.4826Z" fill="white"/>
<path d="M77.9757 29.1056C77.9757 29.5616 77.6063 29.9311 77.1502 29.9311C76.6942 29.9311 76.3247 29.5616 76.3247 29.1056V26.7943C76.3247 26.3382 76.6942 25.9688 77.1502 25.9688C77.6063 25.9688 77.9757 26.3382 77.9757 26.7943V29.1056Z" fill="white"/>
<path d="M83.5895 24.4826C83.5895 24.9386 83.22 25.3081 82.764 25.3081C82.3079 25.3081 81.9385 24.9386 81.9385 24.4826V22.1712C81.9385 21.7152 82.3079 21.3457 82.764 21.3457C83.22 21.3457 83.5895 21.7152 83.5895 22.1712V24.4826Z" fill="white"/>
<path d="M83.5895 29.1056C83.5895 29.5616 83.22 29.9311 82.764 29.9311C82.3079 29.9311 81.9385 29.5616 81.9385 29.1056V26.7943C81.9385 26.3382 82.3079 25.9688 82.764 25.9688C83.22 25.9688 83.5895 26.3382 83.5895 26.7943V29.1056Z" fill="white"/>
</g>
<path d="M4.84527 56.439L2.8562 74.0059L40.5323 78.2719L42.5214 60.705L4.84527 56.439Z" fill="#7D97F4"/>
<path opacity="0.5" d="M40.022 64.1753L38.8834 74.2269C38.0746 74.1351 37.3107 74.7979 37.2092 75.694C37.2061 75.7224 37.1995 75.7906 37.2009 75.7906L6.79012 72.3463C6.79012 72.3463 6.80051 72.2784 6.80397 72.25C6.90543 71.3542 6.33235 70.547 5.50996 70.4539C5.49784 70.4525 5.48364 70.4452 5.48364 70.4452L6.59655 60.6202C7.98336 60.7774 8.2171 59.8715 8.31855 58.9757C8.32167 58.9474 8.31024 58.9404 8.30886 58.9404L38.7197 62.3848C38.7197 62.3848 38.7165 62.39 38.7134 62.4184C38.612 63.3142 39.2134 64.0839 40.0223 64.1757L40.022 64.1753Z" fill="white"/>
<path d="M26.6465 71.2443C28.8185 69.0723 28.8185 65.5508 26.6465 63.3787C24.4745 61.2067 20.9529 61.2067 18.7809 63.3787C16.6089 65.5508 16.6089 69.0723 18.7809 71.2443C20.9529 73.4163 24.4745 73.4163 26.6465 71.2443Z" fill="url(#paint17_linear_987_4598)"/>
<path d="M21.7324 70.9769L21.7985 70.3924C21.1922 70.2989 20.606 70.087 20.1991 69.8512C20.054 69.767 19.9955 69.5866 20.0575 69.4308L20.2677 68.9034C20.3449 68.7099 20.5738 68.6313 20.7556 68.7327C21.16 68.9588 21.6683 69.159 22.2334 69.223C22.8204 69.2895 23.2802 69.1403 23.3266 68.7324C23.3682 68.3643 23.0548 68.1074 22.2643 67.7961C21.1368 67.3459 20.3587 66.7441 20.4747 65.7198C20.5797 64.7949 21.3359 64.1654 22.5305 64.1093L22.5967 63.5248C22.6178 63.3368 22.7878 63.2018 22.9758 63.2229L23.3193 63.2617C23.5074 63.2828 23.6424 63.4528 23.6213 63.6408L23.5617 64.1654C24.123 64.252 24.5223 64.3947 24.835 64.546C24.9953 64.6235 25.0659 64.8136 25.0005 64.9788L24.8069 65.4667C24.7321 65.6547 24.5129 65.7378 24.3325 65.6454C24.0455 65.4979 23.6351 65.332 23.0842 65.2697C22.3882 65.1907 22.1566 65.4567 22.1271 65.7153C22.0911 66.0336 22.4841 66.2995 23.3574 66.6807C24.6064 67.215 25.0826 67.813 24.9731 68.7774C24.8731 69.6625 24.1265 70.3837 22.8311 70.4384L22.757 71.0925C22.7359 71.2806 22.5659 71.4156 22.3778 71.3945L22.0343 71.3557C21.8463 71.3342 21.7113 71.1646 21.7324 70.9766V70.9769Z" fill="white"/>
<path d="M5.25816 60.9627C5.25574 60.954 5.25504 60.9447 5.25608 60.935L5.62902 57.6412C5.63144 57.6212 5.64148 57.6032 5.65706 57.5907C5.67265 57.5782 5.69273 57.5723 5.71281 57.5748L15.0164 58.6285C15.0579 58.633 15.0877 58.6707 15.0832 58.7123C15.0784 58.7538 15.041 58.7836 14.9994 58.7787L5.77099 57.7333L5.40671 60.9519C5.40186 60.9935 5.36447 61.0233 5.32291 61.0184C5.29106 61.0149 5.26578 60.9917 5.25816 60.9623V60.9627Z" fill="#BDD0FB"/>
<path d="M30.2848 76.1462C30.2823 76.1376 30.2817 76.1282 30.2827 76.1185C30.2875 76.077 30.3249 76.0472 30.3665 76.052L39.4793 77.0843L39.8699 73.6344C39.8747 73.5928 39.9121 73.5631 39.9537 73.5679C39.9952 73.5724 40.0253 73.6098 40.0205 73.6517L39.6212 77.1767C39.6188 77.1968 39.6088 77.2148 39.5932 77.2273C39.5776 77.2398 39.5575 77.2456 39.5374 77.2432L30.3495 76.2027C30.3177 76.1992 30.2924 76.176 30.2848 76.1466V76.1462Z" fill="white"/>
<path d="M9.82724 52.4371L3.76709 69.1689L39.4176 82.0813L45.4778 65.3495L9.82724 52.4371Z" fill="#91B3FA"/>
<path d="M42.2281 68.1667L38.7841 77.678C38.0185 77.4007 37.1124 77.9076 36.8056 78.7553C36.7959 78.7823 36.8038 78.7774 36.7657 78.8872L7.98898 68.4672C8.02984 68.3585 8.0288 68.3658 8.0385 68.3388C8.34529 67.4911 7.97825 66.552 7.19983 66.2702C7.18841 66.266 7.17871 66.2348 7.17871 66.2348L10.5451 56.9375C11.8575 57.4126 12.3059 56.5711 12.6127 55.7235C12.6224 55.6965 12.6235 55.6726 12.6221 55.6719L41.3988 66.0918C41.3988 66.0918 41.3839 66.1109 41.3742 66.1379C41.0674 66.9855 41.4629 67.889 42.2281 68.1663V68.1667Z" fill="#BDD0FB"/>
<path d="M28.6064 71.1291C30.7784 68.9571 30.7784 65.4355 28.6064 63.2635C26.4344 61.0915 22.9129 61.0915 20.7409 63.2635C18.5689 65.4355 18.5689 68.9571 20.7409 71.1291C22.9129 73.3011 26.4344 73.3011 28.6064 71.1291Z" fill="url(#paint18_linear_987_4598)"/>
<path d="M22.8677 70.5329L23.0678 69.9799C22.4996 69.7479 21.9788 69.4055 21.6381 69.0817C21.5165 68.9661 21.5013 68.777 21.5982 68.6399L21.9251 68.1755C22.0449 68.0052 22.2859 67.982 22.4393 68.1229C22.7801 68.4366 23.2278 68.7496 23.7628 68.9432C24.3178 69.1444 24.8002 69.1059 24.9401 68.7202C25.0661 68.3722 24.8213 68.0491 24.1246 67.5626C23.1326 66.8628 22.5159 66.0965 22.867 65.1273C23.1838 64.2519 24.0658 63.8156 25.241 64.039L25.4411 63.486C25.5055 63.308 25.7019 63.2159 25.8799 63.2803L26.2047 63.398C26.3826 63.4624 26.4748 63.6588 26.4103 63.8368L26.2306 64.3333C26.7563 64.5477 27.1115 64.7797 27.3806 64.9995C27.5184 65.1121 27.543 65.3136 27.4408 65.459L27.1392 65.8888C27.0229 66.0543 26.7902 66.084 26.6365 65.9521C26.3917 65.7423 26.0308 65.485 25.5097 65.2963C24.8511 65.0577 24.564 65.2624 24.4754 65.5072C24.3663 65.8084 24.6866 66.1585 25.4477 66.7319C26.5381 67.5418 26.8622 68.234 26.5319 69.1468C26.2286 69.9844 25.3348 70.5121 24.0623 70.2646L23.8383 70.8834C23.7739 71.0613 23.5772 71.1534 23.3995 71.089L23.0747 70.9713C22.8967 70.9069 22.8046 70.7102 22.869 70.5326L22.8677 70.5329Z" fill="white"/>
<path d="M9.24512 57.0759C9.24512 57.0669 9.2465 57.0576 9.24962 57.0486L10.4179 53.8224C10.4321 53.7829 10.4754 53.7628 10.5149 53.777L19.209 56.9253C19.2485 56.9395 19.2689 56.9828 19.2544 57.0223C19.2402 57.0617 19.1969 57.0818 19.1574 57.0676L10.5343 53.9453L9.39194 57.1002C9.37774 57.1396 9.33445 57.1597 9.29498 57.1455C9.26485 57.1344 9.24581 57.1064 9.24512 57.0759Z" fill="#BDD0FB"/>
<path d="M29.9861 77.513C29.9861 77.5039 29.9875 77.4946 29.9906 77.4856C30.0048 77.4461 30.0481 77.426 30.0875 77.4402L38.7107 80.5625L39.853 77.4073C39.8672 77.3679 39.9105 77.3478 39.95 77.362C39.9895 77.3762 40.0099 77.4195 39.9954 77.4589L38.827 80.6851C38.8201 80.7042 38.8063 80.7194 38.7879 80.7281C38.7699 80.7364 38.7491 80.7374 38.7301 80.7305L30.0359 77.5822C30.0058 77.5711 29.9868 77.5431 29.9861 77.5126V77.513Z" fill="white"/>
<path d="M17.3543 49.0316L6.53345 63.1592L36.6351 86.2153L47.456 72.0877L17.3543 49.0316Z" fill="#7D97F4"/>
<path d="M43.494 73.8212L37.3422 81.8515C36.6957 81.3563 35.6773 81.5544 35.1292 82.2702C35.1119 82.293 35.1192 82.2785 35.0496 82.372L10.7542 63.76C10.8263 63.6685 10.8176 63.682 10.8349 63.6592C11.3831 62.9435 11.3204 61.9462 10.6632 61.4427C10.6535 61.4355 10.6576 61.4112 10.6576 61.4112L16.6709 53.5616C17.779 54.4103 18.4587 53.7309 19.0069 53.0156C19.0242 52.9927 19.0308 52.9581 19.0297 52.957L43.3254 71.569C43.3254 71.569 43.3071 71.595 43.2897 71.6179C42.7416 72.3336 42.8479 73.3264 43.494 73.8215V73.8212Z" fill="#BDD0FB"/>
<path d="M27.4897 73.136C30.551 72.8832 32.8278 70.1967 32.575 67.1354C32.3222 64.0741 29.6357 61.7974 26.5744 62.0502C23.5131 62.3029 21.2364 64.9895 21.4892 68.0507C21.7419 71.112 24.4285 73.3888 27.4897 73.136Z" fill="#7D97F4"/>
<path d="M24.3059 70.2293L24.6636 69.7626C24.192 69.3702 23.7986 68.8865 23.5711 68.4751C23.4901 68.3283 23.5327 68.1434 23.6663 68.0416L24.1182 67.6978C24.2841 67.5717 24.5206 67.6219 24.6241 67.8027C24.8544 68.2047 25.1868 68.6379 25.6387 68.9838C26.1075 69.3429 26.5788 69.452 26.8284 69.1261C27.0535 68.8321 26.9174 68.4505 26.3998 67.7767C25.665 66.8103 25.308 65.8937 25.9347 65.0755C26.5009 64.3365 27.4732 64.1862 28.5262 64.7534L28.8839 64.2867C28.9989 64.1364 29.2142 64.108 29.3642 64.2229L29.6384 64.4331C29.7887 64.5481 29.8171 64.7631 29.7021 64.9134L29.3811 65.3327C29.8178 65.6956 30.0865 66.0239 30.2766 66.3148C30.3739 66.4636 30.3369 66.6631 30.1956 66.7711L29.7783 67.0897C29.6173 67.2126 29.3867 67.1704 29.2797 66.9986C29.1097 66.7247 28.843 66.3708 28.4029 66.0336C27.8468 65.6077 27.5113 65.7161 27.353 65.9228C27.1584 66.1769 27.3582 66.6073 27.9105 67.3837C28.7059 68.4848 28.8063 69.2425 28.216 70.0133C27.6744 70.7203 26.6629 70.9544 25.5244 70.3343L25.1241 70.8568C25.0091 71.0071 24.7938 71.0354 24.6438 70.9205L24.3696 70.7103C24.2193 70.5953 24.1909 70.38 24.3059 70.23V70.2293Z" fill="white"/>
<path d="M15.3054 53.2395C15.3051 53.2228 15.3103 53.2062 15.321 53.192L17.4076 50.4683C17.4198 50.4523 17.4378 50.4419 17.4578 50.4392C17.4776 50.4364 17.498 50.4419 17.5139 50.4541L24.9466 56.1478C24.9795 56.1734 24.9858 56.2205 24.9605 56.2537C24.9352 56.287 24.8878 56.2932 24.8545 56.2679L17.4817 50.6199L15.4412 53.2838C15.4159 53.317 15.3685 53.3233 15.3352 53.298C15.3162 53.2834 15.3061 53.2616 15.3054 53.2395Z" fill="#BDD0FB"/>
<path d="M29.0109 79.0498C29.0106 79.0332 29.0158 79.0166 29.0265 79.0024C29.0518 78.9691 29.0992 78.9629 29.1325 78.9882L36.4128 84.5655L38.4534 81.9017C38.4787 81.8684 38.5261 81.8622 38.5593 81.8875C38.5922 81.9128 38.5985 81.9602 38.5732 81.9934L36.4866 84.7172C36.4744 84.7331 36.4564 84.7435 36.4364 84.7463C36.4166 84.7491 36.3962 84.7435 36.3803 84.7314L29.04 79.1083C29.021 79.0938 29.0109 79.072 29.0103 79.0498H29.0109Z" fill="#BDD0FB"/>
<path d="M18.9543 62.0513C18.4252 62.7421 17.4362 62.873 16.7454 62.3439C16.0546 61.8148 15.9237 60.8259 16.4528 60.1351C16.9819 59.4443 17.9709 59.3134 18.6617 59.8425C19.3525 60.3716 19.4834 61.3605 18.9543 62.0513Z" fill="#7D97F4"/>
<path d="M37.7709 76.4664C37.2418 77.1572 36.2529 77.2881 35.5621 76.759C34.8713 76.2299 34.7404 75.2409 35.2695 74.5501C35.7986 73.8593 36.7875 73.7284 37.4783 74.2575C38.1691 74.7866 38.3 75.7756 37.7709 76.4664Z" fill="#7D97F4"/>
<path d="M2.4527 75.3975H22.9103C23.0173 75.3975 23.1042 75.4844 23.1042 75.5914V78.7867C23.1042 78.8937 23.0173 78.9807 22.9103 78.9807H2.4527C2.3457 78.9807 2.25879 78.8937 2.25879 78.7867V75.5914C2.25879 75.4844 2.3457 75.3975 2.4527 75.3975Z" fill="url(#paint19_linear_987_4598)"/>
<path d="M2.4527 71.5977H22.9103C23.0173 71.5977 23.1042 71.6846 23.1042 71.7916V74.9869C23.1042 75.0939 23.0173 75.1809 22.9103 75.1809H2.4527C2.3457 75.1809 2.25879 75.0939 2.25879 74.9869V71.7916C2.25879 71.6846 2.3457 71.5977 2.4527 71.5977Z" fill="url(#paint20_linear_987_4598)"/>
<path d="M22.9103 79.2607H2.4527C2.34561 79.2607 2.25879 79.3476 2.25879 79.4546V82.65C2.25879 82.7571 2.34561 82.8439 2.4527 82.8439H22.9103C23.0174 82.8439 23.1042 82.7571 23.1042 82.65V79.4546C23.1042 79.3476 23.0174 79.2607 22.9103 79.2607Z" fill="url(#paint21_linear_987_4598)"/>
<path d="M22.9103 83.124H2.4527C2.34561 83.124 2.25879 83.2108 2.25879 83.3179V86.5133C2.25879 86.6204 2.34561 86.7072 2.4527 86.7072H22.9103C23.0174 86.7072 23.1042 86.6204 23.1042 86.5133V83.3179C23.1042 83.2108 23.0174 83.124 22.9103 83.124Z" fill="url(#paint22_linear_987_4598)"/>
<path d="M22.9103 86.9873H2.4527C2.34561 86.9873 2.25879 87.0741 2.25879 87.1812V90.3766C2.25879 90.4837 2.34561 90.5705 2.4527 90.5705H22.9103C23.0174 90.5705 23.1042 90.4837 23.1042 90.3766V87.1812C23.1042 87.0741 23.0174 86.9873 22.9103 86.9873Z" fill="url(#paint23_linear_987_4598)"/>
<path d="M22.9103 90.7344H2.4527C2.34561 90.7344 2.25879 90.8212 2.25879 90.9283V94.1237C2.25879 94.2308 2.34561 94.3176 2.4527 94.3176H22.9103C23.0174 94.3176 23.1042 94.2308 23.1042 94.1237V90.9283C23.1042 90.8212 23.0174 90.7344 22.9103 90.7344Z" fill="url(#paint24_linear_987_4598)"/>
<path d="M22.9103 94.4814H2.4527C2.34561 94.4814 2.25879 94.5683 2.25879 94.6754V97.8707C2.25879 97.9778 2.34561 98.0646 2.4527 98.0646H22.9103C23.0174 98.0646 23.1042 97.9778 23.1042 97.8707V94.6754C23.1042 94.5683 23.0174 94.4814 22.9103 94.4814Z" fill="url(#paint25_linear_987_4598)"/>
<path d="M44.6125 82.6133H24.1548C24.0478 82.6133 23.9609 82.7001 23.9609 82.8072V86.0026C23.9609 86.1097 24.0478 86.1965 24.1548 86.1965H44.6125C44.7196 86.1965 44.8064 86.1097 44.8064 86.0026V82.8072C44.8064 82.7001 44.7196 82.6133 44.6125 82.6133Z" fill="url(#paint26_linear_987_4598)"/>
<path d="M44.6125 86.4766H24.1548C24.0478 86.4766 23.9609 86.5634 23.9609 86.6705V89.8659C23.9609 89.973 24.0478 90.0598 24.1548 90.0598H44.6125C44.7196 90.0598 44.8064 89.973 44.8064 89.8659V86.6705C44.8064 86.5634 44.7196 86.4766 44.6125 86.4766Z" fill="url(#paint27_linear_987_4598)"/>
<path d="M24.1548 90.2236H44.6125C44.7195 90.2236 44.8064 90.3105 44.8064 90.4175V93.6129C44.8064 93.7199 44.7195 93.8068 44.6125 93.8068H24.1548C24.0479 93.8068 23.9609 93.7199 23.9609 93.6129V90.4175C23.9609 90.3105 24.0479 90.2236 24.1548 90.2236Z" fill="url(#paint28_linear_987_4598)"/>
<path d="M44.6125 93.9717H24.1548C24.0478 93.9717 23.9609 94.0585 23.9609 94.1656V97.361C23.9609 97.4681 24.0478 97.5549 24.1548 97.5549H44.6125C44.7196 97.5549 44.8064 97.4681 44.8064 97.361V94.1656C44.8064 94.0585 44.7196 93.9717 44.6125 93.9717Z" fill="url(#paint29_linear_987_4598)"/>
<path d="M60.6908 56.7143C60.6908 56.7143 60.215 55.4615 59.6589 55.5765C59.1031 55.6911 58.4951 56.1184 58.4951 56.1184L57.6021 57.3262C57.6021 57.3262 60.1087 58.3137 60.9903 57.7479C60.9903 57.7479 63.5506 58.1905 66.7841 57.6596C66.3159 56.6714 66.0372 55.6821 65.8734 54.9141C64.2359 55.841 62.472 56.5336 60.6908 56.7147V56.7143Z" fill="url(#paint30_linear_987_4598)"/>
<path d="M74.254 47.6279C74.254 47.6279 70.588 52.2451 65.8735 54.9138C66.0373 55.6818 66.3164 56.6711 66.7842 57.6594C69.2299 57.258 72.0603 56.3003 74.4596 54.1724L74.2536 47.6283L74.254 47.6279Z" fill="url(#paint31_linear_987_4598)"/>
<path d="M78.8252 68.0929C78.1084 64.6877 77.3913 62.716 74.991 56.2612C74.2354 54.23 73.5494 52.1749 73.8812 50.0332L74.2534 47.628C74.2534 47.628 78.9183 46.0493 84.0895 47.5615C84.0895 47.5615 91.1448 50.6263 86.3528 65.7628C84.1927 68.1795 81.665 68.8682 78.8252 68.0929Z" fill="url(#paint32_linear_987_4598)"/>
<path d="M75.0479 44.5583L76.2574 47.4646C76.3339 47.6481 76.4991 47.779 76.6951 47.8126C77.3924 47.932 79.0795 48.119 80.1872 47.3905C80.3191 47.3035 80.3527 47.1242 80.2623 46.9947L78.0275 43.7861L75.0479 44.5583Z" fill="url(#paint33_linear_987_4598)"/>
<path d="M76.2991 40.1117C76.2482 40.1595 74.155 44.2704 74.155 44.2704L76.5277 45.4159L79.0904 41.8147C79.0904 41.8147 77.1496 39.3115 76.2991 40.1121V40.1117Z" fill="url(#paint34_linear_987_4598)"/>
<path d="M78.0119 42.2464L76.8287 44.2191C76.8107 44.2489 76.7892 44.2763 76.764 44.2998C76.623 44.4311 76.141 44.8123 75.7684 44.2932C75.4509 43.8507 75.1528 43.4483 74.8335 43.2825C74.6472 43.1855 74.4176 43.2631 74.3231 43.4504C74.1281 43.8369 73.7504 44.6246 73.5132 45.3715C73.4536 45.5589 73.5502 45.7597 73.7324 45.8335C74.213 46.0281 75.1624 46.3802 76.0049 46.4962C76.1434 46.5153 76.2802 46.4571 76.3626 46.3442C76.7252 45.8476 77.747 44.4598 78.0957 44.1125C78.4198 43.7898 79.0175 43.9113 79.2869 43.9889C79.389 44.0183 79.4981 44.0041 79.5892 43.9494C79.8624 43.7846 80.3395 43.3746 79.9032 42.6807C79.7948 42.5082 79.8499 42.2783 80.0203 42.1661C80.3253 41.9653 80.6567 41.5885 80.3413 40.9784C80.022 40.3607 79.4513 40.3053 79.0632 40.3527C78.8914 40.3738 78.7169 40.2834 78.6508 40.1235C78.6213 40.0521 78.5635 39.9915 78.4555 39.9697C78.2519 39.9285 78.1182 39.7422 78.158 39.5383C78.2266 39.1885 78.175 38.7346 77.6168 38.4278C76.5932 37.8651 75.6964 38.782 75.4686 39.5563C75.2404 40.3305 76.3851 40.8776 77.105 40.9687C77.6338 41.0359 77.924 41.6131 78.0406 41.9147C78.0829 42.0241 78.0725 42.1464 78.0122 42.2471L78.0119 42.2464Z" fill="url(#paint35_linear_987_4598)"/>
<path d="M77.5979 44.7035C77.5979 44.7035 78.1069 43.5054 78.6897 43.5542C79.2725 43.603 79.7309 44.1837 79.0089 44.8361C78.1107 45.6477 77.5979 44.7035 77.5979 44.7035Z" fill="url(#paint36_linear_987_4598)"/>
<path d="M78.3661 98.1055C79.4929 98.2028 81.4482 98.361 82.9898 98.4289C83.9164 98.4697 84.4501 98.379 84.7572 98.2561C84.7565 98.2907 84.7558 98.3233 84.7544 98.3537C84.7472 98.5158 84.6152 98.6456 84.4514 98.655C81.5386 98.8177 79.2217 98.7111 78.3973 98.6612C78.2265 98.6508 78.1251 98.4656 78.2123 98.3202C78.256 98.2474 78.309 98.1761 78.3661 98.1058V98.1055Z" fill="url(#paint37_linear_987_4598)"/>
<path d="M82.99 98.4285C81.4484 98.3606 79.493 98.2024 78.3662 98.1051C79.4739 96.746 82.99 95.8301 82.99 95.8301H83.9831C84.6659 96.8145 84.7649 97.7519 84.7573 98.2557C84.4502 98.3786 83.9166 98.4693 82.99 98.4285Z" fill="url(#paint38_linear_987_4598)"/>
<path d="M84.1499 94.209L84.0571 96.048C84.0471 96.2471 83.8978 96.4144 83.6984 96.4431C83.5 96.4715 83.2344 96.475 82.9525 96.3815C82.779 96.3237 82.6506 96.1775 82.6184 95.9995L82.2974 94.2093H84.1499V94.209Z" fill="url(#paint39_linear_987_4598)"/>
<path d="M97.0494 98.4138C97.538 98.3456 97.7593 98.0918 97.8518 97.8203C97.8524 97.8227 97.8531 97.8252 97.8535 97.8276C97.9255 98.1139 97.7586 98.4104 97.4255 98.5516C97.0228 98.722 96.5827 98.7511 96.2406 98.7372C95.8739 98.722 95.5373 98.5703 95.3524 98.3276L95.3496 98.3238C95.7177 98.5059 96.2343 98.5274 97.0494 98.4138Z" fill="url(#paint40_linear_987_4598)"/>
<path d="M94.7452 94.1965H95.5641C96.8114 94.1709 97.595 96.8022 97.8512 97.8209C97.7584 98.0924 97.5375 98.3462 97.0489 98.4144C96.2341 98.528 95.7172 98.5065 95.3491 98.3244C94.6752 97.4376 94.3411 96.1387 94.1804 95.3807C93.9976 94.5185 94.7452 94.1965 94.7452 94.1965Z" fill="url(#paint41_linear_987_4598)"/>
<path d="M95.4587 92.4902L95.9134 94.2988C95.9691 94.5204 95.8632 94.75 95.6578 94.8553C95.4033 94.9858 95.0453 95.1229 94.716 95.0834C94.5612 95.0647 94.4327 94.9557 94.3815 94.8099L93.7139 92.9071L95.4584 92.4906L95.4587 92.4902Z" fill="url(#paint42_linear_987_4598)"/>
<path d="M96.0011 93.0119C95.4353 93.5137 93.5952 93.5802 93.5952 93.5802C86.9662 77.6701 84.2026 73.2901 84.2026 73.2901C85.1597 79.2955 84.409 94.7097 84.409 94.7097C83.3151 95.1924 81.9048 94.7097 81.9048 94.7097C81.8158 84.8784 80.4317 74.3144 78.6467 67.5549C83.1271 67.4541 85.5621 66.4776 86.3398 65.8623C90.0743 71.8832 96.0014 93.0123 96.0014 93.0123L96.0011 93.0119Z" fill="url(#paint43_linear_987_4598)"/>
<path d="M77.5183 72.0013L78.3428 77.1288C78.4865 78.0229 79.3148 78.6431 80.2178 78.5329L92.5568 77.0277C93.1603 76.954 93.6181 76.4501 93.6302 75.8449C93.6566 74.52 93.6046 72.1619 93.0485 70.0137L77.5183 72.0009V72.0013Z" fill="url(#paint44_linear_987_4598)"/>
<path d="M80.5024 78.2045C80.4823 78.2045 80.4653 78.1896 80.4629 78.1696C80.4601 78.1477 80.4757 78.1277 80.4979 78.1252L80.8147 78.0868C80.8358 78.0833 80.8562 78.0996 80.859 78.1218C80.8618 78.1436 80.8462 78.1633 80.824 78.1661L80.5072 78.2045C80.5072 78.2045 80.5041 78.2045 80.5024 78.2045ZM79.7672 78.1412C79.7631 78.1412 79.7589 78.1405 79.7548 78.1391C79.6516 78.1055 79.5515 78.0612 79.4563 78.0075C79.4372 77.9968 79.4303 77.9722 79.441 77.9531C79.4518 77.9341 79.4764 77.9272 79.4954 77.9379C79.5858 77.9888 79.6813 78.0311 79.7793 78.0633C79.8005 78.0702 79.8119 78.0927 79.805 78.1135C79.7994 78.1304 79.7838 78.1412 79.7672 78.1412ZM81.5578 78.0757C81.5377 78.0757 81.5207 78.0608 81.5183 78.0408C81.5155 78.0189 81.5311 77.9989 81.5529 77.9964L81.8698 77.9576C81.8926 77.9552 81.9113 77.9705 81.9141 77.9923C81.9169 78.0141 81.9013 78.0342 81.8795 78.0366L81.5626 78.0754C81.5626 78.0754 81.5592 78.0754 81.5578 78.0754V78.0757ZM82.6136 77.9473C82.5935 77.9473 82.5765 77.9324 82.5741 77.9123C82.5713 77.8905 82.5869 77.8704 82.6087 77.868L82.9256 77.8292C82.9484 77.8261 82.9671 77.842 82.9699 77.8638C82.9726 77.8856 82.9571 77.9057 82.9353 77.9081L82.6184 77.9469C82.6184 77.9469 82.6153 77.9469 82.6136 77.9469V77.9473ZM83.669 77.8184C83.6489 77.8184 83.6319 77.8036 83.6295 77.7835C83.6268 77.7617 83.6423 77.7416 83.6642 77.7391L83.981 77.7007C84.0038 77.6973 84.0225 77.7135 84.0253 77.7353C84.0281 77.7572 84.0125 77.7772 83.9907 77.7797L83.6738 77.8181C83.6738 77.8181 83.6707 77.8181 83.669 77.8181V77.8184ZM84.7248 77.6896C84.7047 77.6896 84.6877 77.6747 84.6853 77.6547C84.6825 77.6328 84.6981 77.6128 84.7199 77.6103L85.0368 77.5716C85.0593 77.5691 85.0783 77.5844 85.0811 77.6062C85.0839 77.628 85.0683 77.6481 85.0465 77.6505L84.7296 77.6893C84.7296 77.6893 84.7265 77.6893 84.7248 77.6893V77.6896ZM85.7802 77.5608C85.7601 77.5608 85.7432 77.5459 85.7407 77.5258C85.738 77.504 85.7535 77.4839 85.7754 77.4815L86.0922 77.4427C86.1147 77.44 86.1337 77.4556 86.1365 77.4774C86.1393 77.4992 86.1237 77.5193 86.1019 77.5217L85.7851 77.5605C85.7851 77.5605 85.7819 77.5605 85.7802 77.5605V77.5608ZM78.9338 77.513C78.9209 77.513 78.9085 77.5068 78.9005 77.4954C78.8396 77.4047 78.7873 77.308 78.7457 77.208C78.7374 77.1875 78.7471 77.1643 78.7672 77.1557C78.7873 77.1474 78.8108 77.1571 78.8195 77.1771C78.859 77.2724 78.9085 77.3645 78.9666 77.4507C78.9788 77.4691 78.9743 77.4936 78.9559 77.5061C78.949 77.5106 78.9414 77.513 78.9334 77.513H78.9338ZM86.836 77.432C86.8159 77.432 86.7989 77.4171 86.7965 77.397C86.7937 77.3752 86.8093 77.3551 86.8311 77.3527L87.148 77.3139C87.1705 77.3105 87.1899 77.3267 87.1923 77.3486C87.1951 77.3704 87.1795 77.3905 87.1577 77.3929L86.8408 77.4317C86.8408 77.4317 86.8377 77.4317 86.836 77.4317V77.432ZM87.8914 77.3032C87.8713 77.3032 87.8544 77.2883 87.8519 77.2682C87.8492 77.2464 87.8647 77.2263 87.8866 77.2239L88.2034 77.1851C88.2259 77.1827 88.2453 77.1979 88.2477 77.2197C88.2505 77.2416 88.2349 77.2616 88.2131 77.2641L87.8963 77.3028C87.8963 77.3028 87.8931 77.3028 87.8914 77.3028V77.3032ZM88.9472 77.1744C88.9271 77.1744 88.9101 77.1595 88.9077 77.1394C88.9049 77.1176 88.9205 77.0975 88.9423 77.0951L89.2592 77.0566C89.2803 77.0535 89.3007 77.0695 89.3035 77.0916C89.3063 77.1134 89.2907 77.1332 89.2685 77.1359L88.952 77.1744C88.952 77.1744 88.9489 77.1744 88.9472 77.1744ZM90.0026 77.0459C89.9825 77.0459 89.9656 77.031 89.9631 77.0109C89.9604 76.9891 89.976 76.969 89.9978 76.9666L90.3146 76.9278C90.3371 76.9244 90.3562 76.9406 90.3589 76.9625C90.3617 76.9843 90.3461 77.0044 90.3243 77.0068L90.0075 77.0456C90.0075 77.0456 90.0043 77.0456 90.0026 77.0456V77.0459ZM91.0584 76.9171C91.0383 76.9171 91.0213 76.9022 91.0189 76.8821C91.0161 76.8603 91.0317 76.8402 91.0535 76.8378L91.3704 76.799C91.3929 76.7966 91.4119 76.8118 91.4147 76.8337C91.4175 76.8555 91.4019 76.8756 91.3801 76.878L91.0632 76.9168C91.0632 76.9168 91.0601 76.9168 91.0584 76.9168V76.9171ZM92.1138 76.7883C92.0937 76.7883 92.0768 76.7734 92.0743 76.753C92.0716 76.7312 92.0872 76.7114 92.1093 76.7087L92.2035 76.6972C92.2755 76.6886 92.3465 76.673 92.4144 76.6508C92.4355 76.6446 92.4577 76.6557 92.4646 76.6764C92.4712 76.6976 92.4597 76.7197 92.439 76.7267C92.3659 76.7502 92.2901 76.7668 92.2132 76.7762L92.119 76.7876C92.119 76.7876 92.1159 76.7876 92.1142 76.7876L92.1138 76.7883ZM78.6221 76.5078C78.6027 76.5078 78.5858 76.494 78.5826 76.4742L78.5321 76.1591C78.5286 76.1373 78.5432 76.1169 78.565 76.1134C78.5875 76.1099 78.6072 76.1248 78.6107 76.1463L78.6612 76.4614C78.6647 76.4832 78.6502 76.5037 78.6283 76.5071C78.6263 76.5071 78.6242 76.5078 78.6221 76.5078ZM93.0169 76.2962C93.0089 76.2962 93.0006 76.2938 92.9937 76.289C92.9757 76.2762 92.9715 76.2512 92.9843 76.2332C93.0443 76.1494 93.0917 76.0577 93.1263 75.9607C93.1336 75.9399 93.1564 75.9292 93.1772 75.9365C93.198 75.9437 93.2087 75.9666 93.2015 75.9874C93.1648 76.0913 93.1135 76.1892 93.0494 76.2793C93.0415 76.29 93.0294 76.2959 93.0169 76.2959V76.2962ZM78.4535 75.4579C78.4341 75.4579 78.4175 75.4441 78.414 75.4243L78.3634 75.1092C78.36 75.0874 78.3745 75.067 78.3963 75.0635C78.4185 75.0594 78.4386 75.075 78.4421 75.0964L78.4926 75.4115C78.4961 75.4333 78.4815 75.4538 78.4597 75.4572C78.4576 75.4572 78.4556 75.4579 78.4535 75.4579ZM93.2347 75.2775C93.2125 75.2775 93.1949 75.2595 93.1949 75.2373V75.0933C93.1949 75.0365 93.1949 74.978 93.1949 74.9188C93.1949 74.8966 93.2084 74.8793 93.2347 74.8786C93.2565 74.8786 93.2745 74.8963 93.2745 74.9184C93.2745 74.978 93.2752 75.0362 93.2752 75.0933V75.2377C93.2749 75.2595 93.2569 75.2775 93.235 75.2775H93.2347ZM78.2845 74.4077C78.2651 74.4077 78.2485 74.3938 78.245 74.3741L78.1945 74.059C78.191 74.0372 78.2056 74.0167 78.2274 74.0133C78.2502 74.0098 78.2696 74.0244 78.2731 74.0462L78.3236 74.3613C78.3271 74.3831 78.3125 74.4035 78.2907 74.407C78.2887 74.407 78.2866 74.4077 78.2845 74.4077ZM93.2188 74.2138C93.1973 74.2138 93.1796 74.1968 93.1789 74.1753C93.1755 74.0715 93.171 73.9652 93.1658 73.8571C93.1648 73.835 93.1817 73.8163 93.2035 73.8156C93.2285 73.8135 93.2444 73.8315 93.2451 73.8533C93.2503 73.962 93.2544 74.0683 93.2582 74.1729C93.2589 74.1951 93.2416 74.2134 93.2198 74.2141H93.2184L93.2188 74.2138ZM78.1159 73.3578C78.0965 73.3578 78.0799 73.3439 78.0764 73.3242L78.0258 73.0091C78.0224 72.9873 78.0369 72.9669 78.0587 72.9634C78.0809 72.9596 78.101 72.9748 78.1044 72.9963L78.155 73.3114C78.1585 73.3332 78.1439 73.3536 78.1221 73.3571C78.12 73.3571 78.1179 73.3578 78.1159 73.3578ZM93.1592 73.1518C93.1384 73.1518 93.1211 73.1358 93.1194 73.1151C93.1111 73.0105 93.1024 72.9045 93.0924 72.7979C93.0903 72.7757 93.1066 72.7563 93.1284 72.7546C93.1523 72.7515 93.1699 72.7688 93.1717 72.7906C93.1817 72.8979 93.1907 73.0043 93.199 73.1092C93.2008 73.131 93.1841 73.1504 93.1623 73.1521C93.1613 73.1521 93.1603 73.1521 93.1592 73.1521V73.1518ZM77.9472 72.3079C77.9278 72.3079 77.9112 72.2941 77.9078 72.2743L77.8572 71.9592C77.8537 71.9374 77.8683 71.917 77.8901 71.9135C77.913 71.9104 77.9323 71.9249 77.9358 71.9464L77.9864 72.2615C77.9898 72.2833 77.9753 72.3038 77.9535 72.3072C77.9514 72.3072 77.9493 72.3079 77.9472 72.3079ZM93.0508 72.0939C93.0311 72.0939 93.0138 72.079 93.0114 72.0589C92.9979 71.954 92.9837 71.8488 92.9684 71.7431C92.9653 71.7213 92.9805 71.7012 93.0024 71.6981C93.0245 71.6936 93.0443 71.7102 93.0474 71.7321C93.0626 71.838 93.0771 71.9436 93.0907 72.0489C93.0934 72.0707 93.0778 72.0908 93.056 72.0936C93.0543 72.0936 93.0526 72.0936 93.0508 72.0936V72.0939ZM78.549 71.9094C78.5293 71.9094 78.512 71.8945 78.5096 71.8744C78.5068 71.8526 78.5224 71.8325 78.5442 71.8297L78.8607 71.7892C78.8849 71.7864 78.9026 71.802 78.9054 71.8238C78.9081 71.8456 78.8925 71.8657 78.8707 71.8685L78.5542 71.909C78.5525 71.909 78.5508 71.909 78.549 71.909V71.9094ZM79.6038 71.7747C79.5841 71.7747 79.5667 71.7598 79.5643 71.7397C79.5615 71.7179 79.5771 71.6978 79.5989 71.695L79.9154 71.6545C79.9393 71.6521 79.9573 71.6673 79.9601 71.6891C79.9629 71.7109 79.9473 71.731 79.9255 71.7338L79.609 71.7743C79.6072 71.7743 79.6055 71.7743 79.6038 71.7743V71.7747ZM80.6589 71.6396C80.6391 71.6396 80.6218 71.6247 80.6194 71.6046C80.6166 71.5828 80.6322 71.5627 80.654 71.56L80.9705 71.5195C80.9958 71.516 81.0124 71.5323 81.0152 71.5541C81.018 71.5759 81.0024 71.596 80.9806 71.5987L80.6641 71.6393C80.6623 71.6393 80.6606 71.6393 80.6589 71.6393V71.6396ZM81.7136 71.5046C81.6939 71.5046 81.6766 71.4897 81.6741 71.4696C81.6714 71.4478 81.6869 71.4277 81.7088 71.4249L82.0253 71.3844C82.0502 71.3813 82.0672 71.3972 82.0699 71.419C82.0727 71.4408 82.0571 71.4609 82.0353 71.4637L81.7188 71.5042C81.7171 71.5042 81.7153 71.5042 81.7136 71.5042V71.5046ZM82.7683 71.3695C82.7486 71.3695 82.7313 71.3546 82.7289 71.3345C82.7261 71.3127 82.7417 71.2926 82.7635 71.2899L83.08 71.2494C83.1049 71.2462 83.1219 71.2622 83.1247 71.284C83.1274 71.3058 83.1118 71.3259 83.09 71.3287L82.7735 71.3692C82.7718 71.3692 82.7701 71.3692 82.7683 71.3692V71.3695ZM83.8231 71.2345C83.8033 71.2345 83.786 71.2196 83.7836 71.1995C83.7808 71.1777 83.7964 71.1576 83.8182 71.1548L84.1347 71.1143C84.1593 71.1115 84.1766 71.1271 84.1794 71.1489C84.1822 71.1708 84.1666 71.1908 84.1448 71.1936L83.8283 71.2341C83.8266 71.2341 83.8248 71.2341 83.8231 71.2341V71.2345ZM84.8782 71.0994C84.8584 71.0994 84.8411 71.0845 84.8387 71.0645C84.8359 71.0426 84.8515 71.0226 84.8733 71.0198L85.1898 70.9793C85.2144 70.9768 85.2317 70.9921 85.2345 71.0139C85.2372 71.0357 85.2217 71.0558 85.1999 71.0586L84.8834 71.0991C84.8834 71.0991 84.8799 71.0991 84.8782 71.0991V71.0994ZM92.8857 71.0433C92.867 71.0433 92.85 71.0298 92.8465 71.0108C92.8268 70.9066 92.806 70.8027 92.7845 70.6988C92.78 70.6773 92.7939 70.6562 92.8154 70.6517C92.8372 70.6475 92.858 70.661 92.8625 70.6825C92.8846 70.7871 92.9051 70.8913 92.9251 70.9962C92.9293 71.0181 92.9151 71.0388 92.8933 71.043C92.8908 71.0433 92.8884 71.0437 92.886 71.0437L92.8857 71.0433ZM85.9329 70.9647C85.9132 70.9647 85.8959 70.9498 85.8934 70.9298C85.8907 70.9079 85.9062 70.8879 85.9281 70.8851L86.2445 70.8446C86.2688 70.8425 86.2864 70.8574 86.2892 70.8792C86.292 70.901 86.2764 70.9211 86.2546 70.9239L85.9381 70.9644C85.9364 70.9644 85.9346 70.9644 85.9329 70.9644V70.9647ZM86.9876 70.8297C86.9679 70.8297 86.9506 70.8148 86.9482 70.7947C86.9454 70.7729 86.961 70.7528 86.9828 70.75L87.2993 70.7095C87.3235 70.7061 87.3412 70.7223 87.344 70.7442C87.3467 70.766 87.3311 70.7861 87.3093 70.7888L86.9928 70.8293C86.9911 70.8293 86.9894 70.8293 86.9876 70.8293V70.8297ZM88.0424 70.6946C88.0226 70.6946 88.0053 70.6797 88.0029 70.6597C88.0001 70.6378 88.0157 70.6178 88.0375 70.615L88.354 70.5745C88.3779 70.5714 88.3959 70.5873 88.3987 70.6091C88.4015 70.6309 88.3859 70.651 88.3641 70.6538L88.0476 70.6943C88.0458 70.6943 88.0441 70.6943 88.0424 70.6943V70.6946ZM89.0971 70.5596C89.0774 70.5596 89.0601 70.5447 89.0576 70.5246C89.0549 70.5028 89.0705 70.4827 89.0923 70.4799L89.4088 70.4394C89.434 70.4367 89.4507 70.4522 89.4534 70.4741C89.4562 70.4959 89.4406 70.516 89.4188 70.5187L89.1023 70.5592C89.1006 70.5592 89.0989 70.5592 89.0971 70.5592V70.5596ZM90.1522 70.4249C90.1325 70.4249 90.1152 70.41 90.1127 70.3899C90.11 70.3681 90.1255 70.348 90.1474 70.3452L90.4638 70.3047C90.4888 70.302 90.5057 70.3175 90.5085 70.3394C90.5113 70.3612 90.4957 70.3813 90.4739 70.384L90.1574 70.4245C90.1557 70.4245 90.1539 70.4245 90.1522 70.4245V70.4249ZM91.2069 70.2898C91.1872 70.2898 91.1699 70.275 91.1675 70.2549C91.1647 70.2331 91.1803 70.213 91.2021 70.2102L91.5186 70.1697C91.5435 70.1673 91.5605 70.1825 91.5633 70.2043C91.566 70.2261 91.5504 70.2462 91.5286 70.249L91.2121 70.2895C91.2104 70.2895 91.2087 70.2895 91.2069 70.2895V70.2898ZM92.2617 70.1548C92.2419 70.1548 92.2246 70.1399 92.2222 70.1198C92.2194 70.098 92.235 70.0779 92.2568 70.0752L92.5733 70.0346C92.5979 70.0312 92.6152 70.0475 92.618 70.0693C92.6208 70.0911 92.6052 70.1112 92.5834 70.1139L92.2669 70.1545C92.2651 70.1545 92.2634 70.1545 92.2617 70.1545V70.1548Z" fill="white"/>
<path d="M80.6535 67.8018L80.6396 67.4002C80.6694 67.3001 80.7477 67.2218 80.8485 67.1924C81.2248 67.0819 82.1636 66.8527 82.6664 67.1367L82.7938 67.5892L80.6535 67.8018Z" fill="url(#paint45_linear_987_4598)"/>
<path d="M81.8048 67.2657C81.7193 67.2986 81.6306 67.31 81.5389 67.2993C81.4281 67.2864 81.3401 67.2002 81.3259 67.0901L81.167 65.8467L81.7996 65.7656L81.9586 67.008C81.9728 67.1185 81.909 67.2252 81.8045 67.2653L81.8048 67.2657Z" fill="url(#paint46_linear_987_4598)"/>
<path d="M86.7819 67.0167L86.7681 66.615C86.7978 66.5149 86.8761 66.4367 86.9769 66.4072C87.3533 66.2968 88.292 66.0676 88.7948 66.3515L88.9222 66.8041L86.7819 67.0167Z" fill="url(#paint47_linear_987_4598)"/>
<path d="M87.9334 66.4815C87.8478 66.5144 87.7592 66.5258 87.6674 66.5151C87.5566 66.5023 87.4687 66.4161 87.4545 66.306L87.2786 64.9316L87.9112 64.8506L88.0871 66.2242C88.1013 66.3347 88.0376 66.4413 87.933 66.4815H87.9334Z" fill="url(#paint48_linear_987_4598)"/>
<path d="M81.1413 66.16L87.9174 65.0641C88.0719 65.0392 88.1892 64.9103 88.1965 64.7549C88.2066 64.5371 88.1986 64.214 88.1072 63.8895C88.0033 63.5208 87.6442 63.2829 87.2612 63.3227C85.988 63.455 82.7563 63.8695 81.0651 64.802C80.8864 64.9006 80.767 65.0793 80.7444 65.2815C80.723 65.4744 80.7247 65.7279 80.8165 65.9748C80.8653 66.1057 81.0021 66.1829 81.1409 66.1604L81.1413 66.16Z" fill="url(#paint49_linear_987_4598)"/>
<path opacity="0.57" d="M80.9743 65.8977C80.9261 65.8977 80.8822 65.8644 80.8707 65.8153C80.868 65.8042 80.8077 65.5379 80.8448 65.2695C80.8749 65.05 81.021 64.8578 81.2257 64.7681C81.5941 64.6068 82.3015 64.3225 82.8992 64.2287C82.9577 64.2203 83.0114 64.2591 83.0207 64.3173C83.0297 64.3755 82.9903 64.4295 82.9321 64.4388C82.358 64.5285 81.6699 64.8059 81.3109 64.9628C81.1734 65.023 81.0754 65.1518 81.0553 65.2983C81.0235 65.5286 81.0775 65.7647 81.0778 65.7671C81.091 65.8243 81.0553 65.8814 80.9982 65.8949C80.9902 65.8966 80.9819 65.8977 80.9739 65.8977H80.9743Z" fill="white"/>
<path d="M77.476 68.0508C79.671 67.7413 89.1688 66.4244 91.9739 66.4043C92.2156 66.4026 92.4317 66.5518 92.5131 66.7779C92.7707 67.4951 93.3185 69.1675 93.4972 70.8719C93.5214 71.1039 93.377 71.3206 93.154 71.393L87.0005 73.3931L84.7604 73.6798L77.8704 73.204C77.6276 73.1874 77.4271 73.0091 77.3842 72.7705C77.2311 71.9211 76.906 69.9238 76.9721 68.6028C76.9863 68.322 77.1965 68.0903 77.476 68.0508Z" fill="url(#paint50_linear_987_4598)"/>
<path d="M84.7444 73.1694C84.7444 73.1694 84.7427 73.1694 84.7416 73.1694L84.4234 73.1472C84.4012 73.1455 84.385 73.1268 84.3863 73.1046C84.3881 73.0825 84.4085 73.0693 84.4289 73.0676L84.7472 73.0897C84.7693 73.0915 84.7856 73.1102 84.7842 73.1323C84.7828 73.1534 84.7652 73.1694 84.7444 73.1694ZM85.2666 73.1025C85.2468 73.1025 85.2295 73.0877 85.2271 73.0676C85.2243 73.0458 85.2399 73.0257 85.2617 73.0229L85.5782 72.9824C85.6028 72.9793 85.6201 72.9952 85.6229 73.017C85.6256 73.0388 85.6101 73.0589 85.5882 73.0617L85.2718 73.1022C85.27 73.1022 85.2683 73.1022 85.2666 73.1022V73.1025ZM83.6834 73.0963C83.6834 73.0963 83.6817 73.0963 83.6807 73.0963L83.3624 73.0742C83.3403 73.0724 83.324 73.0537 83.3254 73.0316C83.3271 73.0094 83.3472 72.9962 83.368 72.9945L83.6862 73.0167C83.7083 73.0184 83.7246 73.0371 83.7232 73.0593C83.7219 73.0804 83.7042 73.0963 83.6834 73.0963ZM82.6228 73.0229C82.6228 73.0229 82.6211 73.0229 82.62 73.0229L82.3018 73.0007C82.2796 72.999 82.2634 72.9803 82.2647 72.9582C82.2665 72.936 82.2862 72.9225 82.3073 72.9211L82.6256 72.9433C82.6477 72.945 82.664 72.9637 82.6626 72.9859C82.6612 73.007 82.6436 73.0229 82.6228 73.0229ZM86.3217 72.9675C86.3019 72.9675 86.2846 72.9526 86.2822 72.9325C86.2794 72.9107 86.295 72.8906 86.3168 72.8879L86.6333 72.8473C86.6575 72.8446 86.6752 72.8602 86.678 72.882C86.6807 72.9038 86.6651 72.9239 86.6433 72.9266L86.3268 72.9672C86.3251 72.9672 86.3234 72.9672 86.3217 72.9672V72.9675ZM81.5618 72.9498C81.5618 72.9498 81.5601 72.9498 81.5591 72.9498L81.2408 72.9277C81.2187 72.926 81.2024 72.9072 81.2038 72.8851C81.2055 72.8629 81.2246 72.8491 81.2464 72.848L81.5646 72.8702C81.5868 72.8719 81.603 72.8906 81.6016 72.9128C81.6003 72.9339 81.5826 72.9498 81.5618 72.9498ZM80.5009 72.8764C80.5009 72.8764 80.4991 72.8764 80.4981 72.8764L80.1799 72.8546C80.1577 72.8532 80.1414 72.8342 80.1428 72.812C80.1445 72.7899 80.1632 72.776 80.1854 72.775L80.5036 72.7968C80.5258 72.7982 80.5421 72.8172 80.5407 72.8394C80.5393 72.8605 80.5216 72.8764 80.5009 72.8764ZM79.4399 72.803C79.4399 72.803 79.4382 72.803 79.4371 72.803L79.1189 72.7809C79.0967 72.7791 79.0805 72.7604 79.0818 72.7383C79.0832 72.7165 79.1019 72.7019 79.1244 72.7012L79.4426 72.7234C79.4648 72.7251 79.4811 72.7438 79.4797 72.766C79.4783 72.7871 79.4607 72.803 79.4399 72.803ZM87.356 72.7414C87.3393 72.7414 87.3234 72.7307 87.3179 72.7137C87.3109 72.6926 87.3227 72.6704 87.3435 72.6635L87.6468 72.5648C87.6676 72.5586 87.6901 72.5696 87.697 72.5904C87.704 72.6115 87.6922 72.6337 87.6714 72.6406L87.3681 72.7393C87.3639 72.7407 87.3598 72.7414 87.3556 72.7414H87.356ZM78.3793 72.73C78.3793 72.73 78.3775 72.73 78.3765 72.73L78.0583 72.7078C78.0361 72.7061 78.0198 72.6874 78.0212 72.6652C78.0229 72.6434 78.0437 72.6289 78.0638 72.6282L78.382 72.6503C78.4042 72.6521 78.4205 72.6707 78.4191 72.6929C78.4177 72.714 78.4 72.73 78.3793 72.73ZM88.3671 72.4128C88.3504 72.4128 88.3345 72.402 88.3293 72.3851C88.3224 72.364 88.3338 72.3418 88.3549 72.3349L88.6583 72.2362C88.6794 72.2293 88.7016 72.2407 88.7085 72.2618C88.7154 72.2829 88.704 72.3051 88.6829 72.312L88.3795 72.4107C88.3754 72.4121 88.3712 72.4128 88.3671 72.4128ZM77.819 72.1022C77.7996 72.1022 77.783 72.0883 77.7795 72.0686C77.7636 71.9685 77.7466 71.8629 77.73 71.7528C77.7269 71.731 77.7418 71.7105 77.7636 71.7074C77.7861 71.7057 77.8058 71.7192 77.809 71.741C77.8256 71.8508 77.8422 71.9564 77.8581 72.0561C77.8616 72.0779 77.847 72.0984 77.8252 72.1018C77.8231 72.1018 77.8211 72.1025 77.819 72.1025V72.1022ZM89.3785 72.0842C89.3619 72.0842 89.346 72.0734 89.3408 72.0565C89.3339 72.0353 89.3453 72.0132 89.3664 72.0063L89.6697 71.9076C89.6909 71.9006 89.7134 71.9121 89.7199 71.9332C89.7269 71.9543 89.7154 71.9765 89.6943 71.9834L89.391 72.0821C89.3868 72.0835 89.3827 72.0842 89.3785 72.0842ZM90.39 71.7556C90.3734 71.7556 90.3574 71.7448 90.3522 71.7279C90.3453 71.7067 90.3567 71.6846 90.3779 71.6776L90.6812 71.579C90.7023 71.572 90.7248 71.5835 90.7314 71.6046C90.7383 71.6257 90.7269 71.6479 90.7058 71.6548L90.4024 71.7535C90.3983 71.7549 90.3941 71.7556 90.39 71.7556ZM91.4014 71.4266C91.3848 71.4266 91.3689 71.4159 91.3637 71.3989C91.3568 71.3778 91.3682 71.3556 91.3893 71.3487L91.6926 71.25C91.7138 71.2431 91.7363 71.2545 91.7428 71.2756C91.7498 71.2967 91.7383 71.3189 91.7172 71.3258L91.4139 71.4245C91.4097 71.4259 91.4056 71.4266 91.4014 71.4266ZM92.4125 71.098C92.3959 71.098 92.38 71.0873 92.3748 71.0703C92.3679 71.0492 92.3793 71.027 92.4004 71.0201L92.7037 70.9214C92.7249 70.9145 92.7474 70.9259 92.754 70.947C92.7609 70.9681 92.7495 70.9903 92.7283 70.9972L92.425 71.0959C92.4208 71.0973 92.4167 71.098 92.4125 71.098ZM77.6659 71.0492C77.6462 71.0492 77.6289 71.0343 77.6265 71.0142C77.613 70.9096 77.6001 70.8037 77.588 70.6967C77.5853 70.6748 77.6012 70.6551 77.623 70.6527C77.6448 70.6496 77.6646 70.6658 77.667 70.6877C77.6791 70.794 77.6923 70.8999 77.7054 71.0038C77.7082 71.0256 77.6926 71.0457 77.6708 71.0485C77.6691 71.0485 77.6673 71.0485 77.6656 71.0485L77.6659 71.0492ZM92.8831 70.4273C92.8637 70.4273 92.8468 70.4131 92.8436 70.3933C92.8281 70.2877 92.8111 70.1831 92.7927 70.0793C92.7889 70.0575 92.8035 70.037 92.8253 70.0332C92.8464 70.0304 92.8675 70.0439 92.8713 70.0658C92.8893 70.1703 92.9067 70.2759 92.9222 70.3819C92.9254 70.4037 92.9105 70.4238 92.8887 70.4273C92.8866 70.4273 92.8848 70.4276 92.8828 70.4276L92.8831 70.4273ZM77.5544 69.991C77.5337 69.991 77.5164 69.975 77.5146 69.9543C77.506 69.8469 77.4987 69.7403 77.4925 69.635C77.4911 69.6132 77.508 69.5941 77.5299 69.5931C77.5496 69.5886 77.5707 69.6087 77.5718 69.6305C77.578 69.7354 77.5853 69.8414 77.5939 69.948C77.5957 69.9702 77.5794 69.9892 77.5572 69.991C77.5562 69.991 77.5551 69.991 77.5541 69.991H77.5544ZM92.6871 69.3822C92.6688 69.3822 92.6522 69.3694 92.6483 69.3511C92.6248 69.2458 92.6009 69.1426 92.5763 69.0408C92.5711 69.0193 92.5843 68.9979 92.6058 68.9927C92.6269 68.9868 92.6487 69.001 92.6539 69.0221C92.6785 69.1243 92.7024 69.2281 92.7259 69.3334C92.7308 69.3549 92.7172 69.3763 92.6958 69.3812C92.6927 69.3819 92.6899 69.3822 92.6871 69.3822ZM77.5115 68.9283H77.5112C77.489 68.9283 77.4713 68.9099 77.4717 68.8878C77.4727 68.7984 77.4751 68.7118 77.4796 68.628C77.4817 68.5896 77.5091 68.5591 77.5468 68.5536C77.5686 68.5494 77.5922 68.5647 77.5957 68.5868C77.5988 68.6087 77.5873 68.6284 77.5655 68.6315C77.5551 68.7146 77.5527 68.8005 77.5517 68.8884C77.5517 68.9103 77.5337 68.9279 77.5118 68.9279L77.5115 68.9283ZM78.2972 68.529C78.2775 68.529 78.2605 68.5145 78.2577 68.4944C78.2546 68.4726 78.2698 68.4525 78.2916 68.4494L78.6078 68.4057C78.6289 68.4019 78.6497 68.4179 78.6528 68.4397C78.6559 68.4615 78.6407 68.4816 78.6189 68.4847L78.3027 68.5283C78.301 68.5283 78.2993 68.5287 78.2972 68.5287V68.529ZM79.3512 68.3839C79.3315 68.3839 79.3145 68.3694 79.3118 68.3493C79.3086 68.3275 79.3239 68.3074 79.3457 68.3043L79.6622 68.261C79.6847 68.2579 79.7041 68.2735 79.7072 68.2953C79.7103 68.3171 79.6947 68.3372 79.6729 68.3403L79.3568 68.3832C79.355 68.3832 79.353 68.3836 79.3512 68.3836V68.3839ZM92.4271 68.351C92.4098 68.351 92.3935 68.3396 92.3886 68.3219C92.3589 68.216 92.3291 68.1138 92.3 68.0158C92.2938 67.9947 92.3055 67.9726 92.327 67.9663C92.3485 67.9601 92.3703 67.9722 92.3765 67.9933C92.406 68.0917 92.4357 68.1945 92.4655 68.3005C92.4714 68.3216 92.4593 68.3438 92.4382 68.3496C92.4347 68.3507 92.4309 68.3514 92.4274 68.3514L92.4271 68.351ZM80.4053 68.2409C80.3855 68.2409 80.3686 68.2264 80.3658 68.2063C80.363 68.1845 80.3783 68.1644 80.4001 68.1613L80.7166 68.119C80.7391 68.1166 80.7585 68.1315 80.7616 68.1533C80.7644 68.1751 80.7491 68.1952 80.7273 68.1983L80.4108 68.2406C80.4091 68.2406 80.4074 68.2406 80.4056 68.2406L80.4053 68.2409ZM81.4597 68.1003C81.4399 68.1003 81.423 68.0858 81.4202 68.0657C81.4174 68.0439 81.4327 68.0238 81.4545 68.021L81.771 67.9795C81.7935 67.9771 81.8129 67.992 81.8156 68.0138C81.8184 68.0356 81.8032 68.0557 81.7814 68.0584L81.4649 68.1C81.4649 68.1 81.4614 68.1 81.4597 68.1V68.1003ZM82.5148 67.9622C82.495 67.9622 82.4777 67.9476 82.4753 67.9272C82.4725 67.9054 82.4877 67.8853 82.5099 67.8825L82.8264 67.8417C82.8482 67.8386 82.8683 67.8545 82.8711 67.8763C82.8738 67.8981 82.8586 67.9182 82.8364 67.921L82.52 67.9618C82.52 67.9618 82.5165 67.9618 82.5148 67.9618V67.9622ZM83.5695 67.8271C83.5498 67.8271 83.5324 67.8122 83.53 67.7922C83.5272 67.7703 83.5428 67.7506 83.5646 67.7475L83.8798 67.7077C83.9036 67.7042 83.9223 67.7205 83.9251 67.7423C83.9279 67.7641 83.9133 67.7838 83.8912 67.7866L83.5747 67.8264C83.5747 67.8264 83.5712 67.8264 83.5698 67.8264L83.5695 67.8271ZM84.6249 67.6952C84.6052 67.6952 84.5879 67.6803 84.5854 67.6602C84.5827 67.6384 84.5983 67.6187 84.6201 67.6159L84.9369 67.5771C84.9577 67.5737 84.9788 67.5899 84.9812 67.6121C84.984 67.6339 84.9684 67.6536 84.9463 67.6564L84.6298 67.6952C84.6298 67.6952 84.6267 67.6952 84.6249 67.6952ZM85.6804 67.5671C85.6603 67.5671 85.6433 67.5522 85.6409 67.5318C85.6381 67.5099 85.654 67.4902 85.6759 67.4874L85.9927 67.4497C86.0155 67.4459 86.0342 67.4629 86.037 67.4847C86.0398 67.5065 86.0239 67.5262 86.002 67.529L85.6852 67.5667C85.6852 67.5667 85.6821 67.5667 85.6804 67.5667V67.5671ZM86.7368 67.4435C86.7167 67.4435 86.6994 67.4282 86.6973 67.4081C86.6946 67.3863 86.7105 67.3666 86.7323 67.3642L87.0495 67.3282C87.072 67.3257 87.0911 67.3413 87.0935 67.3631C87.0959 67.3853 87.0803 67.4047 87.0585 67.4071L86.7413 67.4431C86.7413 67.4431 86.7382 67.4431 86.7368 67.4431V67.4435ZM92.113 67.3344C92.0964 67.3344 92.0808 67.324 92.0753 67.307C92.0365 67.1921 92.0012 67.091 91.9707 67.0061C91.9631 66.9853 91.9742 66.9625 91.9949 66.9552C92.0157 66.9476 92.0386 66.9587 92.0458 66.9795C92.0763 67.0646 92.112 67.1661 92.1508 67.2818C92.1577 67.3025 92.1466 67.325 92.1258 67.3323C92.1217 67.3337 92.1172 67.3344 92.113 67.3344ZM87.7936 67.3257C87.7736 67.3257 87.7562 67.3105 87.7538 67.2901C87.7514 67.2682 87.7673 67.2485 87.7891 67.2461L88.1067 67.2122C88.1295 67.2104 88.1482 67.2257 88.1506 67.2475C88.1531 67.2693 88.1371 67.289 88.1153 67.2914L87.7981 67.3254C87.7981 67.3254 87.795 67.3254 87.794 67.3254L87.7936 67.3257ZM88.8515 67.2156C88.8311 67.2156 88.8138 67.2 88.8117 67.1796C88.8096 67.1578 88.8255 67.1381 88.8473 67.136C88.9554 67.1252 89.0613 67.1149 89.1649 67.1048C89.1891 67.1041 89.2064 67.1187 89.2085 67.1405C89.2106 67.1626 89.1946 67.182 89.1728 67.1841C89.0693 67.1941 88.9633 67.2045 88.8553 67.2153C88.8539 67.2153 88.8525 67.2153 88.8515 67.2153V67.2156ZM89.9104 67.1162C89.89 67.1162 89.8726 67.1007 89.8706 67.0799C89.8685 67.0577 89.8848 67.0387 89.9066 67.0366C90.0157 67.0272 90.122 67.0182 90.2248 67.0096C90.2494 67.0096 90.266 67.0245 90.2677 67.0459C90.2695 67.0681 90.2532 67.0871 90.2314 67.0889C90.1285 67.0972 90.0226 67.1062 89.9139 67.1155C89.9125 67.1155 89.9114 67.1155 89.9104 67.1155V67.1162ZM90.9707 67.0345C90.9499 67.0345 90.9322 67.0182 90.9308 66.9971C90.9295 66.9753 90.9461 66.9563 90.9679 66.9549C91.0797 66.9476 91.186 66.9414 91.2868 66.9362C91.3097 66.9317 91.3277 66.9521 91.3287 66.9739C91.3301 66.9961 91.3131 67.0148 91.291 67.0158C91.1902 67.0214 91.0842 67.0276 90.9727 67.0345C90.972 67.0345 90.971 67.0345 90.9703 67.0345H90.9707Z" fill="white"/>
<path d="M86.9097 74.3606L84.9474 74.6116C84.6901 74.6445 84.4491 74.4807 84.3861 74.2307L83.9176 72.3712C83.8431 72.0752 84.045 71.7802 84.3494 71.7414L86.7068 71.4398C87.0049 71.4017 87.2716 71.6261 87.283 71.9252L87.3564 73.8353C87.3664 74.0991 87.1725 74.327 86.9094 74.3609L86.9097 74.3606Z" fill="url(#paint51_linear_987_4598)"/>
<path d="M86.6243 74.0437L85.1305 74.2348C84.9349 74.2597 84.7513 74.1354 84.7032 73.945L84.3466 72.5298C84.2898 72.3043 84.4435 72.08 84.6752 72.0502L86.4695 71.8206C86.6963 71.7915 86.8993 71.9626 86.9083 72.1901L86.964 73.6437C86.9716 73.8446 86.8241 74.018 86.624 74.0437H86.6243Z" fill="url(#paint52_linear_987_4598)"/>
<path d="M85.4567 58.9952C85.9197 60.908 85.9318 62.7792 85.8615 63.4603C85.8348 63.7173 85.6284 63.9178 85.3708 63.9358C85.0782 63.9562 84.68 63.9832 84.324 64.0036C83.9328 64.0261 83.4985 63.7789 83.2084 63.5722C83.0602 63.4666 82.8683 63.6311 82.9511 63.7931C83.0937 64.0722 83.3413 64.2921 83.5875 64.4787C83.7354 64.5913 84.2271 64.7907 84.1928 65.0123C84.1821 65.0823 84.1398 65.1429 84.0948 65.1972C83.8216 65.5251 83.4082 65.7004 83.0003 65.8254C82.949 65.8409 82.895 65.8579 82.859 65.8974C82.8489 66.1612 83.6606 66.4545 83.8701 66.5238C84.1838 66.628 84.5169 66.672 84.8462 66.6374C85.6631 66.5515 86.4172 65.9878 86.857 65.308C88.0329 63.4912 88.641 61.2968 88.8629 59.6188C87.7691 58.5253 86.1177 58.8027 85.457 58.9948L85.4567 58.9952Z" fill="url(#paint53_linear_987_4598)"/>
<path d="M88.8629 59.7919C89.7352 53.2021 84.6568 48.1348 84.6568 48.1348L81.6353 51.6574C83.9293 54.5169 85.0197 57.1367 85.518 59.1946C86.1787 59.0021 87.7691 58.6984 88.8629 59.7919Z" fill="url(#paint54_linear_987_4598)"/>
<path d="M85.4455 59.1624C85.361 59.1624 85.2845 59.1049 85.2637 59.0194C84.6498 56.4826 83.3554 53.9711 81.417 51.5552C81.3523 51.4745 81.3651 51.3568 81.4458 51.292C81.5261 51.2276 81.6442 51.2404 81.7089 51.3207C83.682 53.7799 85.0002 56.3406 85.6273 58.9314C85.6515 59.0318 85.5899 59.1329 85.4895 59.1572C85.4746 59.161 85.4597 59.1624 85.4452 59.1624H85.4455Z" fill="url(#paint55_linear_987_4598)"/>
<path d="M44.5234 98.2296C44.5238 98.1974 44.5217 98.1649 44.5134 98.1323C44.0276 96.2057 41.6154 95.0059 41.6154 95.0059L40.6597 95.0807C40.1102 96.7788 40.1808 97.82 40.2691 98.284C40.2716 98.2972 40.2757 98.3093 40.2788 98.3221C41.0673 98.3927 42.6899 98.4384 44.5231 98.23L44.5234 98.2296Z" fill="url(#paint56_linear_987_4598)"/>
<path d="M40.2795 98.3216C40.3221 98.4764 40.4364 98.5972 40.5829 98.628C41.7044 98.8639 43.487 98.6741 44.2353 98.5761C44.4005 98.5546 44.521 98.4019 44.5238 98.2295C42.6906 98.4383 41.068 98.3922 40.2795 98.3216Z" fill="url(#paint57_linear_987_4598)"/>
<path d="M40.2762 93.6572L40.681 95.606C40.7108 95.7487 40.8202 95.8557 40.9532 95.8682C41.1159 95.8834 41.3472 95.8924 41.5803 95.8581C41.7891 95.8273 41.9345 95.6154 41.8975 95.3875L41.6159 93.6572H40.2759H40.2762Z" fill="url(#paint58_linear_987_4598)"/>
<path d="M48.6628 98.2974C47.6073 98.2679 47.0613 98.1436 46.7791 98.0283C46.7784 98.1332 46.779 98.2402 46.7825 98.3507C46.7863 98.4688 46.8736 98.5633 46.9813 98.5626L52.7768 98.5252C52.9617 98.5242 53.0697 98.3095 52.9897 98.1398C52.2297 98.2025 50.2944 98.3431 48.6628 98.2974Z" fill="url(#paint59_linear_987_4598)"/>
<path d="M52.9897 98.1396C52.9828 98.1247 52.9769 98.1098 52.9669 98.0959C52.4551 97.3809 51.1514 95.9567 48.5755 95.3389L47.3397 95.2998C47.3397 95.2998 46.7894 96.2562 46.7791 98.0277C47.0613 98.143 47.6073 98.2673 48.6628 98.2968C50.2944 98.3425 52.23 98.2019 52.9897 98.1392V98.1396Z" fill="url(#paint60_linear_987_4598)"/>
<path d="M47.0549 93.4849C47.0743 93.576 47.3316 94.9624 47.4313 95.5002C47.4549 95.628 47.5546 95.7218 47.673 95.7284C47.8846 95.7402 48.226 95.7415 48.5193 95.6619C48.6775 95.619 48.7839 95.4576 48.7728 95.2782L48.6346 93.085L47.0553 93.4849H47.0549Z" fill="url(#paint61_linear_987_4598)"/>
<path d="M46.1191 67.8832C46.1191 67.8832 47.8189 79.5642 49.0458 93.4645C49.0686 93.7236 48.8622 93.9486 48.6081 94.0023C48.2334 94.0812 47.6825 94.1751 47.2265 94.1623C46.983 94.1553 46.7794 93.9749 46.7386 93.735C46.3206 91.2841 43.3385 78.1307 42.5556 75.2359C42.5556 75.2359 41.6567 87.5329 41.9441 93.9126C41.9514 94.0712 41.835 94.209 41.6775 94.227C41.4382 94.2547 41.0552 94.2758 40.5684 94.2239C40.3835 94.2042 40.2342 94.0646 40.2079 93.8804C39.9101 91.8063 38.1968 79.4597 38.2698 70.5657C38.274 70.0643 38.8582 65.9434 38.8582 65.9434L46.1194 67.8835L46.1191 67.8832Z" fill="url(#paint62_linear_987_4598)"/>
<path d="M38.6023 68.556C38.4274 68.4941 38.3055 68.3355 38.2865 68.1509C38.0603 65.9576 36.9658 52.3593 43.8759 46.7653C43.8759 46.7653 44.2721 45.7285 47.5294 48.2771C50.7868 50.8256 49.0426 53.4971 48.2628 57.1818C47.3192 61.6403 45.6634 65.2848 46.3961 68.0287C46.4466 68.2181 46.3469 68.4168 46.1631 68.4847C43.6329 69.4172 41.1124 69.448 38.6019 68.556H38.6023Z" fill="url(#paint63_linear_987_4598)"/>
<path d="M46.572 42.6908C46.57 42.8843 43.8105 46.8034 43.8105 46.8034C43.8105 46.8034 44.3057 47.7789 46.6704 48.5708L48.7113 44.3743L46.572 42.6904V42.6908Z" fill="url(#paint64_linear_987_4598)"/>
<path d="M48.7438 40.4453C48.7438 40.4453 49.7255 42.7006 49.7916 43.8845C49.8574 45.0684 50.1126 45.8364 48.7438 46.0746C47.375 46.3129 46.2219 45.6311 45.5973 44.452C45.5973 44.452 44.6187 42.6351 44.8382 41.891C45.0578 41.1469 48.7438 40.4453 48.7438 40.4453Z" fill="url(#paint65_linear_987_4598)"/>
<path d="M46.0652 43.6043L46.1431 43.57C46.2421 43.5264 46.2847 43.4083 46.2349 43.312C46.042 42.9391 45.6656 42.0845 46.1517 41.885C46.7782 41.6281 49.2595 41.1222 49.7949 40.2416C50.3094 39.3954 49.8534 38.3032 49.1685 37.9923C49.1227 37.9715 49.0684 37.9881 49.0452 38.0324L48.988 38.1405C48.9489 38.2146 48.8398 38.2032 48.8163 38.1228C48.7941 38.0456 48.6913 38.0307 48.6487 38.0989C48.4842 38.3624 48.04 38.7894 46.8516 39.0086C45.1628 39.3202 44.0464 40.0034 44.0187 41.1703C44.017 41.2444 43.938 41.2856 43.8747 41.2472C43.75 41.1714 43.5506 41.1357 43.2839 41.3597C42.8203 41.7496 43.01 42.7611 44.0267 43.5932C44.0748 43.6327 44.0745 43.7082 44.0222 43.7421C43.838 43.8619 43.563 44.1476 44.275 44.5281C45.0111 44.9218 45.561 44.8893 45.7729 44.8546C45.8256 44.846 45.8595 44.7951 45.8481 44.7428L45.622 43.7172C45.6091 43.659 45.6535 43.6043 45.7127 43.6043H46.0648H46.0652Z" fill="url(#paint66_linear_987_4598)"/>
<path d="M46.1083 43.8211C46.1083 43.8211 45.7337 42.3803 45.0879 42.7844C44.4421 43.1885 45.4231 44.3987 45.9425 44.4524L46.1083 43.8211Z" fill="url(#paint67_linear_987_4598)"/>
<path d="M48.5774 49.4603L48.7675 54.5695C49.3077 54.7555 49.8222 54.9002 50.3122 55.0082C50.6187 54.0217 51.2932 52.8108 51.8458 51.9105C49.816 51.193 48.5774 49.46 48.5774 49.46V49.4603Z" fill="url(#paint68_linear_987_4598)"/>
<path d="M58.7113 49.373C55.9266 52.3794 53.6731 52.5563 51.8452 51.9105C51.2925 52.8108 50.618 54.0217 50.3115 55.0082C57.7477 56.6475 59.4988 49.8114 59.4988 49.8114L58.7113 49.3734V49.373Z" fill="url(#paint69_linear_987_4598)"/>
<path d="M59.2769 49.0537C59.2769 49.0537 59.5975 48.7092 60.1914 48.8176C60.7852 48.926 61.3133 49.132 61.6834 48.8176C62.0532 48.5032 62.1834 48.9253 62.1834 48.9253L61.0757 49.7674L59.2772 49.0541L59.2769 49.0537Z" fill="url(#paint70_linear_987_4598)"/>
<path d="M58.6141 49.6427C58.6141 49.6427 58.834 48.7237 59.4961 48.8498C60.1585 48.9758 61.662 49.7933 62.0495 49.6427C62.4369 49.4921 62.9324 49.1316 63.1866 49.2591L62.7389 49.8159C62.7389 49.8159 63.8899 49.1517 64.0883 49.56L62.1727 50.6379C62.1727 50.6379 59.3704 50.3574 58.6138 49.6431L58.6141 49.6427Z" fill="url(#paint71_linear_987_4598)"/>
<path d="M45.4863 56.1474C45.4863 56.1474 50.7212 60.5319 56.3744 58.6188C56.7252 58.5 57.1085 58.526 57.4358 58.6988L59.0608 59.5572C59.743 59.9173 60.5878 59.6808 60.9836 59.0187C61.2094 58.6409 61.4019 58.2095 61.4404 57.7964L58.2602 56.509L58.4946 56.1191C58.4946 56.1191 56.942 55.9875 56.5358 57.1004C56.5358 57.1004 53.5787 58.3303 48.5913 52.8447C48.5913 52.8447 46.3281 54.7689 45.4863 56.1474Z" fill="url(#paint72_linear_987_4598)"/>
<path d="M45.2046 56.1021C45.1873 56.1021 45.17 56.0972 45.1544 56.0869C42.95 54.5975 41.9133 52.1937 41.9029 52.1695C41.8835 52.1238 41.905 52.0712 41.9503 52.0521C41.996 52.0327 42.0483 52.0538 42.0677 52.0996C42.0778 52.1231 43.0955 54.4795 45.2544 55.9383C45.2957 55.966 45.3064 56.0218 45.2783 56.0626C45.261 56.0882 45.233 56.1021 45.2039 56.1021H45.2046Z" fill="url(#paint73_linear_987_4598)"/>
<path d="M48.4878 52.7703C48.4584 52.7703 48.4297 52.7558 48.4124 52.7291C48.4058 52.7187 47.7323 51.6706 46.4497 49.3738C46.0553 48.6674 45.5369 48.2203 44.9091 48.0444C43.8693 47.7539 42.8672 48.3114 42.8571 48.3169C42.8139 48.3408 42.7595 48.3263 42.7349 48.2833C42.7103 48.2404 42.7256 48.1857 42.7685 48.1611C42.8118 48.1365 43.8426 47.56 44.9555 47.8713C45.6318 48.06 46.1872 48.5358 46.6059 49.2858C47.8853 51.5767 48.5561 52.6214 48.5626 52.6315C48.5893 52.673 48.5775 52.7284 48.536 52.7551C48.5207 52.7648 48.5041 52.7693 48.4875 52.7693L48.4878 52.7703Z" fill="url(#paint74_linear_987_4598)"/>
<defs>
<linearGradient id="paint0_linear_987_4598" x1="102.601" y1="110.115" x2="32.7748" y2="34.7477" gradientUnits="userSpaceOnUse">
<stop stop-color="#DAE3FE"/>
<stop offset="1" stop-color="#E9EFFD"/>
</linearGradient>
<linearGradient id="paint1_linear_987_4598" x1="154.247" y1="-86.3834" x2="110.127" y2="-24.1517" gradientUnits="userSpaceOnUse">
<stop stop-color="#4F52FF"/>
<stop offset="1" stop-color="#4042E2"/>
</linearGradient>
<linearGradient id="paint2_linear_987_4598" x1="33.0591" y1="2.03691" x2="33.0591" y2="25.6058" gradientUnits="userSpaceOnUse">
<stop stop-color="#09005D"/>
<stop offset="1" stop-color="#1A0F91"/>
</linearGradient>
<linearGradient id="paint3_linear_987_4598" x1="49.0454" y1="2.74157" x2="49.0454" y2="2.74157" gradientUnits="userSpaceOnUse">
<stop stop-color="#09005D"/>
<stop offset="1" stop-color="#1A0F91"/>
</linearGradient>
<linearGradient id="paint4_linear_987_4598" x1="64.4172" y1="2.74157" x2="64.4172" y2="2.74157" gradientUnits="userSpaceOnUse">
<stop stop-color="#09005D"/>
<stop offset="1" stop-color="#1A0F91"/>
</linearGradient>
<linearGradient id="paint5_linear_987_4598" x1="80.0146" y1="2.03716" x2="80.0146" y2="25.606" gradientUnits="userSpaceOnUse">
<stop stop-color="#09005D"/>
<stop offset="1" stop-color="#1A0F91"/>
</linearGradient>
<linearGradient id="paint6_linear_987_4598" x1="2.13059" y1="2.03682" x2="2.16522" y2="25.6057" gradientUnits="userSpaceOnUse">
<stop stop-color="#09005D"/>
<stop offset="1" stop-color="#1A0F91"/>
</linearGradient>
<linearGradient id="paint7_linear_987_4598" x1="49.0454" y1="2.03682" x2="49.0454" y2="25.6057" gradientUnits="userSpaceOnUse">
<stop stop-color="#09005D"/>
<stop offset="1" stop-color="#1A0F91"/>
</linearGradient>
<linearGradient id="paint8_linear_987_4598" x1="64.4172" y1="2.03682" x2="64.4172" y2="25.6057" gradientUnits="userSpaceOnUse">
<stop stop-color="#09005D"/>
<stop offset="1" stop-color="#1A0F91"/>
</linearGradient>
<linearGradient id="paint9_linear_987_4598" x1="80.404" y1="2.03682" x2="80.404" y2="25.6057" gradientUnits="userSpaceOnUse">
<stop stop-color="#09005D"/>
<stop offset="1" stop-color="#1A0F91"/>
</linearGradient>
<linearGradient id="paint10_linear_987_4598" x1="55.5534" y1="35.3355" x2="91.2535" y2="-17.605" gradientUnits="userSpaceOnUse">
<stop stop-color="#09005D"/>
<stop offset="1" stop-color="#1A0F91"/>
</linearGradient>
<linearGradient id="paint11_linear_987_4598" x1="66.5425" y1="42.746" x2="102.242" y2="-10.1945" gradientUnits="userSpaceOnUse">
<stop stop-color="#09005D"/>
<stop offset="1" stop-color="#1A0F91"/>
</linearGradient>
<linearGradient id="paint12_linear_987_4598" x1="77.1088" y1="49.8715" x2="112.809" y2="-3.06897" gradientUnits="userSpaceOnUse">
<stop stop-color="#09005D"/>
<stop offset="1" stop-color="#1A0F91"/>
</linearGradient>
<linearGradient id="paint13_linear_987_4598" x1="60.9109" y1="38.9479" x2="96.611" y2="-13.9926" gradientUnits="userSpaceOnUse">
<stop stop-color="#09005D"/>
<stop offset="1" stop-color="#1A0F91"/>
</linearGradient>
<linearGradient id="paint14_linear_987_4598" x1="71.9" y1="46.3585" x2="107.6" y2="-6.58206" gradientUnits="userSpaceOnUse">
<stop stop-color="#09005D"/>
<stop offset="1" stop-color="#1A0F91"/>
</linearGradient>
<linearGradient id="paint15_linear_987_4598" x1="82.4666" y1="53.4843" x2="118.166" y2="0.543488" gradientUnits="userSpaceOnUse">
<stop stop-color="#09005D"/>
<stop offset="1" stop-color="#1A0F91"/>
</linearGradient>
<linearGradient id="paint16_linear_987_4598" x1="106.533" y1="49.8534" x2="92.6009" y2="63.2052" gradientUnits="userSpaceOnUse">
<stop stop-color="#09005D"/>
<stop offset="1" stop-color="#1A0F91"/>
</linearGradient>
<linearGradient id="paint17_linear_987_4598" x1="23.4648" y1="63.4148" x2="14.1599" y2="111.716" gradientUnits="userSpaceOnUse">
<stop stop-color="#50E7B7"/>
<stop offset="1" stop-color="#323992"/>
</linearGradient>
<linearGradient id="paint18_linear_987_4598" x1="26.27" y1="63.6088" x2="5.98542" y2="108.422" gradientUnits="userSpaceOnUse">
<stop stop-color="#50E7B7"/>
<stop offset="1" stop-color="#323992"/>
</linearGradient>
<linearGradient id="paint19_linear_987_4598" x1="20.7912" y1="22.5127" x2="15.2886" y2="59.611" gradientUnits="userSpaceOnUse">
<stop stop-color="#FF928E"/>
<stop offset="1" stop-color="#FE7062"/>
</linearGradient>
<linearGradient id="paint20_linear_987_4598" x1="20.2292" y1="22.5025" x2="14.7266" y2="59.6008" gradientUnits="userSpaceOnUse">
<stop stop-color="#FF928E"/>
<stop offset="1" stop-color="#FE7062"/>
</linearGradient>
<linearGradient id="paint21_linear_987_4598" x1="21.3628" y1="22.5231" x2="15.8603" y2="59.6214" gradientUnits="userSpaceOnUse">
<stop stop-color="#FF928E"/>
<stop offset="1" stop-color="#FE7062"/>
</linearGradient>
<linearGradient id="paint22_linear_987_4598" x1="21.9342" y1="22.5332" x2="16.4316" y2="59.6313" gradientUnits="userSpaceOnUse">
<stop stop-color="#FF928E"/>
<stop offset="1" stop-color="#FE7062"/>
</linearGradient>
<linearGradient id="paint23_linear_987_4598" x1="22.5059" y1="22.5437" x2="17.0033" y2="59.6417" gradientUnits="userSpaceOnUse">
<stop stop-color="#FF928E"/>
<stop offset="1" stop-color="#FE7062"/>
</linearGradient>
<linearGradient id="paint24_linear_987_4598" x1="23.0603" y1="22.5535" x2="17.5577" y2="59.6515" gradientUnits="userSpaceOnUse">
<stop stop-color="#FF928E"/>
<stop offset="1" stop-color="#FE7062"/>
</linearGradient>
<linearGradient id="paint25_linear_987_4598" x1="23.6143" y1="22.5633" x2="18.1117" y2="59.6616" gradientUnits="userSpaceOnUse">
<stop stop-color="#FF928E"/>
<stop offset="1" stop-color="#FE7062"/>
</linearGradient>
<linearGradient id="paint26_linear_987_4598" x1="43.0847" y1="25.7419" x2="37.5822" y2="62.8402" gradientUnits="userSpaceOnUse">
<stop stop-color="#FF928E"/>
<stop offset="1" stop-color="#FE7062"/>
</linearGradient>
<linearGradient id="paint27_linear_987_4598" x1="43.6564" y1="25.7523" x2="38.1538" y2="62.8506" gradientUnits="userSpaceOnUse">
<stop stop-color="#FF928E"/>
<stop offset="1" stop-color="#FE7062"/>
</linearGradient>
<linearGradient id="paint28_linear_987_4598" x1="44.2105" y1="25.762" x2="38.7079" y2="62.8604" gradientUnits="userSpaceOnUse">
<stop stop-color="#FF928E"/>
<stop offset="1" stop-color="#FE7062"/>
</linearGradient>
<linearGradient id="paint29_linear_987_4598" x1="44.7648" y1="25.7728" x2="39.2623" y2="62.8711" gradientUnits="userSpaceOnUse">
<stop stop-color="#FF928E"/>
<stop offset="1" stop-color="#FE7062"/>
</linearGradient>
<linearGradient id="paint30_linear_987_4598" x1="57.6021" y1="56.4179" x2="66.7844" y2="56.4179" gradientUnits="userSpaceOnUse">
<stop stop-color="#FEBBBA"/>
<stop offset="1" stop-color="#FF928E"/>
</linearGradient>
<linearGradient id="paint31_linear_987_4598" x1="76.824" y1="0.585797" x2="73.515" y2="27.404" gradientUnits="userSpaceOnUse">
<stop stop-color="#FF928E"/>
<stop offset="1" stop-color="#FE7062"/>
</linearGradient>
<linearGradient id="paint32_linear_987_4598" x1="87.3663" y1="1.88644" x2="84.0577" y2="28.705" gradientUnits="userSpaceOnUse">
<stop stop-color="#FF928E"/>
<stop offset="1" stop-color="#FE7062"/>
</linearGradient>
<linearGradient id="paint33_linear_987_4598" x1="78.1473" y1="47.2343" x2="76.6746" y2="42.8173" gradientUnits="userSpaceOnUse">
<stop stop-color="#FEBBBA"/>
<stop offset="1" stop-color="#FF928E"/>
</linearGradient>
<linearGradient id="paint34_linear_987_4598" x1="74.708" y1="41.8133" x2="80.0004" y2="44.1142" gradientUnits="userSpaceOnUse">
<stop stop-color="#FEBBBA"/>
<stop offset="1" stop-color="#FF928E"/>
</linearGradient>
<linearGradient id="paint35_linear_987_4598" x1="78.5238" y1="44.9863" x2="74.1906" y2="40.3831" gradientUnits="userSpaceOnUse">
<stop stop-color="#09005D"/>
<stop offset="1" stop-color="#1A0F91"/>
</linearGradient>
<linearGradient id="paint36_linear_987_4598" x1="74.3786" y1="42.5725" x2="79.6707" y2="44.8735" gradientUnits="userSpaceOnUse">
<stop stop-color="#FEBBBA"/>
<stop offset="1" stop-color="#FF928E"/>
</linearGradient>
<linearGradient id="paint37_linear_987_4598" x1="84.7572" y1="98.4237" x2="78.1805" y2="98.4237" gradientUnits="userSpaceOnUse">
<stop stop-color="#4F52FF"/>
<stop offset="1" stop-color="#4042E2"/>
</linearGradient>
<linearGradient id="paint38_linear_987_4598" x1="81.6191" y1="97.907" x2="83.9387" y2="86.8392" gradientUnits="userSpaceOnUse">
<stop stop-color="#09005D"/>
<stop offset="1" stop-color="#1A0F91"/>
</linearGradient>
<linearGradient id="paint39_linear_987_4598" x1="84.1499" y1="95.3347" x2="82.2974" y2="95.3347" gradientUnits="userSpaceOnUse">
<stop stop-color="#FEBBBA"/>
<stop offset="1" stop-color="#FF928E"/>
</linearGradient>
<linearGradient id="paint40_linear_987_4598" x1="97.8701" y1="98.2805" x2="95.3496" y2="98.2805" gradientUnits="userSpaceOnUse">
<stop stop-color="#4F52FF"/>
<stop offset="1" stop-color="#4042E2"/>
</linearGradient>
<linearGradient id="paint41_linear_987_4598" x1="95.0966" y1="100.731" x2="97.4163" y2="89.6631" gradientUnits="userSpaceOnUse">
<stop stop-color="#09005D"/>
<stop offset="1" stop-color="#1A0F91"/>
</linearGradient>
<linearGradient id="paint42_linear_987_4598" x1="95.9283" y1="93.7901" x2="93.7142" y2="93.7901" gradientUnits="userSpaceOnUse">
<stop stop-color="#FEBBBA"/>
<stop offset="1" stop-color="#FF928E"/>
</linearGradient>
<linearGradient id="paint43_linear_987_4598" x1="80.1738" y1="96.8413" x2="93.411" y2="66.1868" gradientUnits="userSpaceOnUse">
<stop stop-color="#09005D"/>
<stop offset="1" stop-color="#1A0F91"/>
</linearGradient>
<linearGradient id="paint44_linear_987_4598" x1="84.4572" y1="63.2437" x2="85.7346" y2="74.235" gradientUnits="userSpaceOnUse">
<stop stop-color="#E1473D"/>
<stop offset="1" stop-color="#E9605A"/>
</linearGradient>
<linearGradient id="paint45_linear_987_4598" x1="81.701" y1="67.6173" x2="82.5427" y2="61.1154" gradientUnits="userSpaceOnUse">
<stop stop-color="#E1473D"/>
<stop offset="1" stop-color="#E9605A"/>
</linearGradient>
<linearGradient id="paint46_linear_987_4598" x1="81.4177" y1="67.5794" x2="82.2595" y2="61.0778" gradientUnits="userSpaceOnUse">
<stop stop-color="#E1473D"/>
<stop offset="1" stop-color="#E9605A"/>
</linearGradient>
<linearGradient id="paint47_linear_987_4598" x1="87.6285" y1="68.3838" x2="88.4703" y2="61.8819" gradientUnits="userSpaceOnUse">
<stop stop-color="#E1473D"/>
<stop offset="1" stop-color="#E9605A"/>
</linearGradient>
<linearGradient id="paint48_linear_987_4598" x1="87.3284" y1="68.3451" x2="88.1702" y2="61.8432" gradientUnits="userSpaceOnUse">
<stop stop-color="#E1473D"/>
<stop offset="1" stop-color="#E9605A"/>
</linearGradient>
<linearGradient id="paint49_linear_987_4598" x1="84.8176" y1="64.0596" x2="88.8423" y2="52.9911" gradientUnits="userSpaceOnUse">
<stop stop-color="#E1473D"/>
<stop offset="1" stop-color="#E9605A"/>
</linearGradient>
<linearGradient id="paint50_linear_987_4598" x1="85.5589" y1="75.4468" x2="84.1655" y2="52.6906" gradientUnits="userSpaceOnUse">
<stop stop-color="#FF928E"/>
<stop offset="1" stop-color="#FE7062"/>
</linearGradient>
<linearGradient id="paint51_linear_987_4598" x1="85.6254" y1="67.472" x2="85.6385" y2="74.5808" gradientUnits="userSpaceOnUse">
<stop stop-color="#FF928E"/>
<stop offset="1" stop-color="#FE7062"/>
</linearGradient>
<linearGradient id="paint52_linear_987_4598" x1="85.4518" y1="73.4955" x2="88.3931" y2="66.8388" gradientUnits="userSpaceOnUse">
<stop stop-color="#E1473D"/>
<stop offset="1" stop-color="#E9605A"/>
</linearGradient>
<linearGradient id="paint53_linear_987_4598" x1="87.2227" y1="60.0645" x2="82.209" y2="69.706" gradientUnits="userSpaceOnUse">
<stop stop-color="#FEBBBA"/>
<stop offset="1" stop-color="#FF928E"/>
</linearGradient>
<linearGradient id="paint54_linear_987_4598" x1="91.8239" y1="2.43651" x2="88.5149" y2="29.2551" gradientUnits="userSpaceOnUse">
<stop stop-color="#FF928E"/>
<stop offset="1" stop-color="#FE7062"/>
</linearGradient>
<linearGradient id="paint55_linear_987_4598" x1="90.0422" y1="2.21655" x2="86.7336" y2="29.0352" gradientUnits="userSpaceOnUse">
<stop stop-color="#FF928E"/>
<stop offset="1" stop-color="#FE7062"/>
</linearGradient>
<linearGradient id="paint56_linear_987_4598" x1="40.2089" y1="96.6936" x2="44.5234" y2="96.6936" gradientUnits="userSpaceOnUse">
<stop stop-color="#09005D"/>
<stop offset="1" stop-color="#1A0F91"/>
</linearGradient>
<linearGradient id="paint57_linear_987_4598" x1="51.0108" y1="91.6033" x2="35.314" y2="103.928" gradientUnits="userSpaceOnUse">
<stop stop-color="#4F52FF"/>
<stop offset="1" stop-color="#4042E2"/>
</linearGradient>
<linearGradient id="paint58_linear_987_4598" x1="41.4092" y1="91.7815" x2="40.5851" y2="98.9742" gradientUnits="userSpaceOnUse">
<stop stop-color="#FEBBBA"/>
<stop offset="1" stop-color="#FF928E"/>
</linearGradient>
<linearGradient id="paint59_linear_987_4598" x1="53.7986" y1="95.1498" x2="38.1023" y2="107.475" gradientUnits="userSpaceOnUse">
<stop stop-color="#4F52FF"/>
<stop offset="1" stop-color="#4042E2"/>
</linearGradient>
<linearGradient id="paint60_linear_987_4598" x1="46.7791" y1="96.803" x2="52.9897" y2="96.803" gradientUnits="userSpaceOnUse">
<stop stop-color="#09005D"/>
<stop offset="1" stop-color="#1A0F91"/>
</linearGradient>
<linearGradient id="paint61_linear_987_4598" x1="48.0152" y1="92.5424" x2="47.6456" y2="99.7728" gradientUnits="userSpaceOnUse">
<stop stop-color="#FEBBBA"/>
<stop offset="1" stop-color="#FF928E"/>
</linearGradient>
<linearGradient id="paint62_linear_987_4598" x1="35.5994" y1="107.691" x2="47.7272" y2="67.1331" gradientUnits="userSpaceOnUse">
<stop stop-color="#09005D"/>
<stop offset="1" stop-color="#1A0F91"/>
</linearGradient>
<linearGradient id="paint63_linear_987_4598" x1="42.7378" y1="-30.7856" x2="43.0476" y2="-3.76548" gradientUnits="userSpaceOnUse">
<stop stop-color="#FF928E"/>
<stop offset="1" stop-color="#FE7062"/>
</linearGradient>
<linearGradient id="paint64_linear_987_4598" x1="44.697" y1="49.8589" x2="46.6112" y2="44.6316" gradientUnits="userSpaceOnUse">
<stop stop-color="#FEBBBA"/>
<stop offset="1" stop-color="#FF928E"/>
</linearGradient>
<linearGradient id="paint65_linear_987_4598" x1="52.8208" y1="42.8633" x2="43.8098" y2="43.7505" gradientUnits="userSpaceOnUse">
<stop stop-color="#FEBBBA"/>
<stop offset="1" stop-color="#FF928E"/>
</linearGradient>
<linearGradient id="paint66_linear_987_4598" x1="43.0298" y1="36.9296" x2="47.7622" y2="42.4723" gradientUnits="userSpaceOnUse">
<stop stop-color="#09005D"/>
<stop offset="1" stop-color="#1A0F91"/>
</linearGradient>
<linearGradient id="paint67_linear_987_4598" x1="52.8225" y1="42.8737" x2="43.8115" y2="43.7609" gradientUnits="userSpaceOnUse">
<stop stop-color="#FEBBBA"/>
<stop offset="1" stop-color="#FF928E"/>
</linearGradient>
<linearGradient id="paint68_linear_987_4598" x1="56.6988" y1="-1.89635" x2="53.3902" y2="24.9222" gradientUnits="userSpaceOnUse">
<stop stop-color="#FF928E"/>
<stop offset="1" stop-color="#FE7062"/>
</linearGradient>
<linearGradient id="paint69_linear_987_4598" x1="62.3877" y1="48.9437" x2="50.3465" y2="54.9334" gradientUnits="userSpaceOnUse">
<stop stop-color="#FEBBBA"/>
<stop offset="1" stop-color="#FF928E"/>
</linearGradient>
<linearGradient id="paint70_linear_987_4598" x1="62.2122" y1="47.4415" x2="58.0933" y2="51.7432" gradientUnits="userSpaceOnUse">
<stop stop-color="#FEBBBA"/>
<stop offset="1" stop-color="#FF928E"/>
</linearGradient>
<linearGradient id="paint71_linear_987_4598" x1="62.4452" y1="48.873" x2="50.4044" y2="54.8628" gradientUnits="userSpaceOnUse">
<stop stop-color="#FEBBBA"/>
<stop offset="1" stop-color="#FF928E"/>
</linearGradient>
<linearGradient id="paint72_linear_987_4598" x1="67.4769" y1="59.036" x2="32.5331" y2="52.7173" gradientUnits="userSpaceOnUse">
<stop stop-color="#FEBBBA"/>
<stop offset="1" stop-color="#FF928E"/>
</linearGradient>
<linearGradient id="paint73_linear_987_4598" x1="50.5936" y1="-2.64984" x2="47.2846" y2="24.1688" gradientUnits="userSpaceOnUse">
<stop stop-color="#FF928E"/>
<stop offset="1" stop-color="#FE7062"/>
</linearGradient>
<linearGradient id="paint74_linear_987_4598" x1="33.5785" y1="38.156" x2="59.1536" y2="62.4022" gradientUnits="userSpaceOnUse">
<stop stop-color="#E1473D"/>
<stop offset="1" stop-color="#E9605A"/>
</linearGradient>
</defs>
</svg>
