<svg width="41" height="41" viewBox="0 0 41 41" fill="none" xmlns="http://www.w3.org/2000/svg">
<rect x="0.380859" y="0.543945" width="40" height="40" rx="20" fill="white"/>
<path d="M10.3809 28.5439H12.3809M12.3809 28.5439H23.3809M12.3809 28.5439V22.9121C12.3809 22.3867 12.3809 22.1239 12.4439 21.8789C12.4997 21.6617 12.5916 21.4558 12.7158 21.2691C12.8559 21.0586 13.052 20.8824 13.4424 20.5316L15.744 18.4639C16.4987 17.7859 16.8763 17.4466 17.3034 17.3179C17.6798 17.2044 18.0816 17.2044 18.458 17.3179C18.8854 17.4467 19.2635 17.7861 20.0195 18.4653L22.3195 20.5316C22.7104 20.8828 22.9054 21.0585 23.0455 21.2691C23.1698 21.4558 23.2615 21.6617 23.3174 21.8789C23.3804 22.1239 23.3809 22.3867 23.3809 22.9121V28.5439M23.3809 28.5439H28.3809M28.3809 28.5439H30.3809M28.3809 28.5439V15.7409C28.3809 14.6229 28.3809 14.0631 28.1631 13.6357C27.9713 13.2594 27.6646 12.9537 27.2883 12.7619C26.8604 12.5439 26.3012 12.5439 25.1811 12.5439H18.5811C17.4609 12.5439 16.9005 12.5439 16.4727 12.7619C16.0963 12.9537 15.7906 13.2594 15.5988 13.6357C15.3809 14.0636 15.3809 14.624 15.3809 15.7441V18.5441" stroke="#0C6DFF" stroke-width="2" stroke-linecap="round" stroke-linejoin="round"/>
</svg>
