<svg width="180" height="181" viewBox="0 0 180 181" fill="none" xmlns="http://www.w3.org/2000/svg">
<g clip-path="url(#clip0_3460_83632)">
<path d="M150.386 6.17978C150.05 5.96764 149.594 5.64428 149.398 5.91566C146.22 10.303 138.988 22.9065 144.843 40.5941C152.188 62.7858 148.861 72.293 143.688 78.8289C145.077 78.6113 147.68 78.0631 150.372 76.4391C171.232 63.8538 157.576 10.7273 150.386 6.17978Z" fill="#91B3FA"/>
<g style="mix-blend-mode:soft-light">
<path d="M148.841 14.0116C148.854 16.6709 148.921 19.3254 149.088 21.969C149.241 24.6133 149.476 27.2478 149.796 29.8667C150.126 32.4837 150.507 35.0917 151.002 37.6743C151.485 40.2593 152.083 42.8153 152.693 45.3785C153.287 47.9448 153.901 50.5256 154.242 53.1904C154.585 55.8491 154.603 58.607 154.103 61.3141C153.978 61.9892 153.84 62.6649 153.662 63.3285C153.497 63.9946 153.302 64.6558 153.095 65.3134C152.675 66.6279 152.165 67.9219 151.561 69.1785C150.346 71.6892 148.749 74.0384 146.895 76.1442C146.7 76.366 146.366 76.401 146.148 76.2227C145.935 76.0481 145.913 75.732 146.098 75.5108L146.099 75.5089C146.535 74.9849 146.966 74.4573 147.371 73.9139C147.578 73.645 147.773 73.3688 147.973 73.0956C148.162 72.8158 148.363 72.5426 148.544 72.2585C149.285 71.1313 149.948 69.9594 150.52 68.75C151.676 66.3384 152.475 63.7661 152.958 61.1805C153.184 59.8853 153.312 58.5816 153.338 57.2779C153.363 55.9742 153.285 54.6718 153.129 53.3771C152.819 50.7861 152.233 48.2253 151.658 45.6542C151.086 43.0812 150.53 40.4914 150.085 37.8774C149.859 36.5713 149.658 35.2603 149.481 33.9446C149.389 33.2876 149.309 32.6282 149.229 31.9694C149.155 31.3094 149.085 30.6488 149.021 29.9876C148.767 27.3415 148.598 24.6852 148.515 22.0228C148.446 19.3593 148.449 16.6908 148.558 14.0218C148.561 13.9457 148.627 13.8828 148.706 13.8816C148.782 13.8804 148.842 13.9384 148.842 14.0116H148.841Z" fill="white"/>
</g>
<path d="M143.252 87.5449C142.87 88.5065 141.521 88.5458 141.078 87.6108C136.193 77.3167 117.525 36.0605 116.794 5.25321C116.742 3.05321 119.156 1.67518 121.011 2.85799C132.74 10.332 163.804 35.8992 143.252 87.5449Z" fill="#BDD0FB"/>
<g style="mix-blend-mode:soft-light">
<path d="M124.917 17.2396C125.739 18.4961 126.471 19.8052 127.179 21.127C127.881 22.4519 128.553 23.793 129.187 25.1523C130.462 27.8679 131.609 30.6421 132.667 33.4501C133.723 36.2587 134.68 39.1048 135.555 41.9757C136.43 44.8472 137.199 47.7501 137.909 50.6669L138.424 52.8591L138.901 55.0597L139.138 56.1609L139.355 57.2658L139.785 59.4766C140.311 62.4327 140.811 65.3961 141.194 68.3752C141.993 74.3297 142.514 80.3217 142.777 86.3264C142.792 86.663 142.531 86.9483 142.194 86.9628C141.857 86.9773 141.572 86.7162 141.558 86.3796C141.558 86.3771 141.558 86.3717 141.558 86.3693C141.393 80.396 140.969 74.4282 140.27 68.4918C139.937 65.5212 139.487 62.5651 139.012 59.6132L138.618 57.406L138.421 56.3023L138.203 55.2023L137.763 53.0029L137.285 50.812C136.624 47.8958 135.905 44.9911 135.08 42.1159C134.254 39.2408 133.346 36.3887 132.338 33.571C131.329 30.7545 130.229 27.9682 129.001 25.2388C128.39 23.8722 127.741 22.5232 127.061 21.1893C126.376 19.859 125.665 18.5384 124.867 17.274V17.2728C124.857 17.2583 124.861 17.239 124.876 17.2299C124.89 17.2208 124.909 17.2251 124.919 17.239L124.917 17.2396Z" fill="white"/>
</g>
<path d="M105.447 44.0797C105.422 42.8255 104.314 41.7938 102.957 41.7938H51.6483C50.2727 41.7938 48.9219 42.8793 48.9219 44.1504V157.75C48.9219 158.361 49.3032 158.948 49.7717 159.379C50.2401 159.811 50.9345 160.053 51.5963 160.051L105.242 159.915C105.909 159.914 106.563 159.665 107.03 159.224C107.497 158.783 107.76 158.174 107.747 157.557L105.447 44.079V44.0797Z" fill="#91B3FA"/>
<g opacity="0.5">
<path d="M67.6619 55.18L53.0451 55.1619L52.9297 48.2404H67.5603L67.6619 55.18Z" fill="white"/>
<path d="M84.0457 55.177L69.4441 55.1589L69.3438 48.2404H83.9599L84.0457 55.177Z" fill="white"/>
<path d="M100.411 55.1734L85.8242 55.1553L85.7402 48.2404H100.342L100.411 55.1734Z" fill="white"/>
<path d="M67.8449 67.6057L53.2541 67.6142L53.1387 60.7374L67.7439 60.7319L67.8449 67.6057Z" fill="white"/>
<path d="M84.1994 67.5955L69.6232 67.604L69.5234 60.7308L84.1142 60.7247L84.1994 67.5955Z" fill="white"/>
<path d="M100.538 67.5859L85.9766 67.5944L85.8926 60.7242L100.469 60.7188L100.538 67.5859Z" fill="white"/>
<path d="M68.0271 79.9456L53.4611 79.9601L53.3457 73.1068L67.9256 73.0959L68.0271 79.9456Z" fill="white"/>
<path d="M84.3537 79.9283L69.8022 79.9428L69.7031 73.0931L84.2679 73.0817L84.3537 79.9283Z" fill="white"/>
<path d="M100.663 79.9126L86.1264 79.9265L86.043 73.0805L100.593 73.0696L100.663 79.9126Z" fill="white"/>
<path d="M68.2082 92.2434L53.6676 92.2628L53.5527 85.4337L68.1072 85.4167L68.2082 92.2434Z" fill="white"/>
<path d="M84.5061 92.2187L69.98 92.2386L69.8809 85.4126L84.4208 85.3962L84.5061 92.2187Z" fill="white"/>
<path d="M100.788 92.197L86.2762 92.2163L86.1934 85.3939L100.718 85.3776L100.788 92.197Z" fill="white"/>
<path d="M68.3892 104.495L53.874 104.52L53.7598 97.7145L68.2889 97.6921L68.3892 104.495Z" fill="white"/>
<path d="M84.6598 104.467L70.1591 104.492L70.0605 97.6897L84.5751 97.6674L84.6598 104.467Z" fill="white"/>
<path d="M100.913 104.439L86.4272 104.464L86.3438 97.665L100.844 97.6432L100.913 104.439Z" fill="white"/>
<path d="M68.5689 116.707L54.0785 116.737L53.9648 109.955L68.4686 109.928L68.5689 116.707Z" fill="white"/>
<path d="M84.8108 116.673L70.3348 116.703L70.2363 109.925L84.7261 109.897L84.8108 116.673Z" fill="white"/>
<path d="M101.036 116.639L86.575 116.669L86.4922 109.894L100.967 109.866L101.036 116.639Z" fill="white"/>
<path d="M68.7486 128.877L54.2835 128.912L54.1699 122.153L68.6489 122.121L68.7486 128.877Z" fill="white"/>
<path d="M84.9625 128.837L70.512 128.872L70.4141 122.116L84.8785 122.084L84.9625 128.837Z" fill="white"/>
<path d="M101.159 128.796L86.7234 128.832L86.6406 122.08L101.091 122.047L101.159 128.796Z" fill="white"/>
<path d="M68.9283 141.004L54.488 141.046L54.375 134.31L68.8292 134.272L68.9283 141.004Z" fill="white"/>
<path d="M85.1149 140.958L70.6891 141L70.5918 134.267L85.0308 134.229L85.1149 140.958Z" fill="white"/>
<path d="M101.284 140.913L86.8726 140.954L86.791 134.224L101.216 134.186L101.284 140.913Z" fill="white"/>
<path d="M69.106 153.091L54.6905 153.137L54.5781 146.425L69.0069 146.381L69.106 153.091Z" fill="white"/>
<path d="M85.2639 153.039L70.8629 153.085L70.7656 146.376L85.1805 146.333L85.2639 153.039Z" fill="white"/>
<path d="M101.406 152.987L87.0191 153.033L86.9375 146.327L101.338 146.284L101.406 152.987Z" fill="white"/>
</g>
<path d="M91.9177 164.894C132.723 164.894 165.802 131.815 165.802 91.0097C165.802 50.2045 132.723 17.1252 91.9177 17.1252C51.1124 17.1252 18.0332 50.2045 18.0332 91.0097C18.0332 131.815 51.1124 164.894 91.9177 164.894Z" fill="white"/>
<path d="M91.9179 162.437C131.366 162.437 163.346 130.458 163.346 91.0098C163.346 51.5614 131.366 19.5822 91.9179 19.5822C52.4695 19.5822 20.4902 51.5614 20.4902 91.0098C20.4902 130.458 52.4695 162.437 91.9179 162.437Z" fill="url(#paint0_linear_3460_83632)"/>
<path opacity="0.93" d="M90.361 153.021C123.749 153.021 150.816 125.955 150.816 92.5664C150.816 59.1781 123.749 32.1116 90.361 32.1116C56.9728 32.1116 29.9062 59.1781 29.9063 92.5664C29.9063 125.955 56.9728 153.021 90.361 153.021Z" fill="white"/>
<path opacity="0.7" d="M150.817 62.0932C150.931 62.0932 151.047 62.0672 151.157 62.0122C151.529 61.8242 151.678 61.3703 151.49 60.9986C140.07 38.3742 117.244 24.319 91.9178 24.319C87.8792 24.319 83.8315 24.6828 79.8872 25.402C79.4775 25.4764 79.2055 25.8692 79.2798 26.2796C79.3542 26.69 79.7458 26.9644 80.1574 26.8858C84.0122 26.1835 87.9686 25.8275 91.9172 25.8275C116.67 25.8275 138.98 39.5649 150.142 61.6774C150.275 61.9403 150.541 62.0926 150.816 62.0926L150.817 62.0932Z" fill="white"/>
<path d="M55.7886 146.34L47.4395 139.609L127.318 38.1022L134.665 43.6505L55.7886 146.34Z" fill="url(#paint1_linear_3460_83632)"/>
<path d="M47.4062 108.302C47.4062 108.302 55.3208 117.941 58.2328 115.618C61.1442 113.296 53.2834 100.634 53.2834 100.634L47.4062 108.302Z" fill="#91B3FA"/>
<path d="M47.7286 170.889C47.7292 170.842 47.7262 170.795 47.7141 170.746C46.9991 167.912 43.4519 166.147 43.4519 166.147L42.0461 166.257C41.238 168.755 41.342 170.287 41.4713 170.969C41.4749 170.989 41.481 171.007 41.4858 171.025C42.6456 171.128 45.0324 171.196 47.7286 170.889Z" fill="url(#paint2_linear_3460_83632)"/>
<path d="M41.4805 164.164L42.0758 167.03C42.1193 167.24 42.2807 167.397 42.4765 167.415C42.7159 167.438 43.0561 167.451 43.3988 167.401C43.7059 167.356 43.9198 167.044 43.8654 166.709L43.4514 164.164H41.4805Z" fill="url(#paint3_linear_3460_83632)"/>
<path d="M60.1817 170.764C60.1715 170.743 60.1624 170.72 60.1479 170.7C59.3948 169.649 57.4777 167.554 53.6887 166.645L51.8713 166.587C51.8713 166.587 51.062 167.994 51.0469 170.6C51.4621 170.77 52.2653 170.952 53.8174 170.996C56.2175 171.063 59.0642 170.856 60.1823 170.764L60.1817 170.764Z" fill="url(#paint4_linear_3460_83632)"/>
<path d="M51.5352 163.833C51.5551 163.968 51.8047 166.028 51.9008 166.826C51.9238 167.016 52.061 167.163 52.2344 167.183C52.5439 167.22 53.0449 167.254 53.4831 167.164C53.7194 167.116 53.8905 166.888 53.8905 166.624V163.392L51.5352 163.832V163.833Z" fill="url(#paint5_linear_3460_83632)"/>
<path d="M50.0771 126.252C50.0771 126.252 54.4613 142.914 54.3822 163.88C54.381 164.262 54.1126 164.592 53.7385 164.671C53.1873 164.787 52.3768 164.925 51.7059 164.907C51.3475 164.896 51.0483 164.631 50.9885 164.278C50.3738 160.673 46.8459 140.364 44.8357 137.067C44.8357 137.067 43.5133 155.155 43.9358 164.539C43.946 164.772 43.7756 164.975 43.5435 165.001C43.1918 165.042 42.6285 165.073 41.9116 164.997C41.6397 164.968 41.4203 164.762 41.3816 164.491C40.944 161.44 38.4237 143.28 38.5307 130.197C38.5367 129.459 40.4816 126.252 40.4816 126.252H50.0771V126.252Z" fill="url(#paint6_linear_3460_83632)"/>
<path d="M53.096 100.716C47.0623 99.8431 40.4351 100.644 37.2179 101.049C36.1766 101.18 35.224 101.694 34.5374 102.488C31.8158 105.638 25.8426 114.262 32.8729 122.952C33.7729 122.452 35.0512 121.652 35.9191 120.724C35.1412 118.532 35.0778 115.73 36.7078 112.294C36.7634 112.567 36.8323 112.836 36.9163 113.102C39.1629 120.219 39.2825 126.142 39.2777 127.507C39.2771 127.693 39.3883 127.859 39.5606 127.928C42.5173 129.113 48.2089 128.408 50.1194 128.123C50.4699 128.072 50.7057 127.745 50.6567 127.394C49.9846 122.525 52.2668 115.405 54.0812 110.731C54.7986 108.884 53.4714 101.234 53.0954 100.716H53.096Z" fill="#7D97F4"/>
<path d="M43.4802 93.6378L42.6474 100.524C42.6093 100.836 42.8015 101.132 43.1037 101.22C44.0079 101.484 45.9431 101.885 47.7122 101.157C48.0477 101.018 48.2332 100.655 48.1565 100.301L47.1036 95.454L43.4808 93.6378H43.4802Z" fill="url(#paint7_linear_3460_83632)"/>
<path d="M36.4091 111.762C35.2172 108.5 35.65 104.562 35.6542 104.523L35.9824 104.56C35.9782 104.599 35.5551 108.462 36.7198 111.648L36.4091 111.762Z" fill="#91B3FA"/>
<path d="M44.6739 136.643C44.6001 136.643 44.533 136.593 44.5143 136.519C44.1505 135.116 41.4283 133.575 41.4011 133.56C41.3213 133.515 41.2929 133.414 41.3376 133.335C41.3823 133.255 41.4826 133.227 41.5624 133.272C41.6797 133.338 44.4351 134.898 44.834 136.436C44.857 136.524 44.8038 136.615 44.7156 136.637C44.7017 136.641 44.6878 136.643 44.6739 136.643Z" fill="url(#paint8_linear_3460_83632)"/>
<path d="M35.9192 120.724C35.0507 121.651 33.7724 122.452 32.873 122.952C34.2166 124.613 36.0346 126.275 38.4408 127.903L38.7321 128.556C38.9817 129.116 39.5263 129.487 40.1385 129.517C43.502 129.677 44.4327 128.964 41.3364 126.804C41.3364 126.804 37.3764 124.834 35.9192 120.725V120.724Z" fill="url(#paint9_linear_3460_83632)"/>
<path d="M60.6483 106.128C60.6483 106.128 56.4042 110.54 55.4239 112.141C54.4436 113.741 55.5351 116.656 57.7623 115.979C59.9901 115.302 62.583 107.647 62.583 107.647L60.6489 106.128L60.6483 106.128Z" fill="url(#paint10_linear_3460_83632)"/>
<path d="M53.5449 99.8624C53.5449 99.8624 57.2747 109.699 58.4526 111.745C59.8204 114.12 63.8154 112.607 63.6166 110.619C63.4177 108.631 58.7506 100.415 58.7506 100.415L53.5449 99.8624Z" fill="url(#paint11_linear_3460_83632)"/>
<path d="M58.5852 92.6968L81.7662 84.6595L81.5226 106.41L57.9512 101.151L58.5852 92.6968Z" fill="url(#paint12_linear_3460_83632)"/>
<path d="M81.7871 106.776C83.0449 106.776 84.0645 101.771 84.0645 95.5979C84.0645 89.4246 83.0449 84.4202 81.7871 84.4202C80.5294 84.4202 79.5098 89.4246 79.5098 95.5979C79.5098 101.771 80.5294 106.776 81.7871 106.776Z" fill="#91B3FA"/>
<path d="M81.9607 106.011C81.7546 105.802 81.3067 104.994 80.9217 102.906C80.55 100.888 80.3457 98.2699 80.3457 95.5344C80.3457 92.7989 80.5506 90.1818 80.9217 88.1631C81.3061 86.0749 81.7546 85.2669 81.9607 85.0577C82.1667 85.2669 82.6152 86.0749 82.9996 88.1631C83.3713 90.1812 83.5756 92.7989 83.5756 95.5344C83.5756 98.2699 83.3707 100.887 82.9996 102.906C82.6152 104.994 82.1667 105.802 81.9607 106.011Z" fill="url(#paint13_linear_3460_83632)"/>
<mask id="mask0_3460_83632" style="mask-type:luminance" maskUnits="userSpaceOnUse" x="80" y="85" width="7" height="22">
<path d="M81.9606 106.011C81.7546 105.802 81.3067 104.994 80.9217 102.906C80.55 100.888 80.3457 98.2699 80.3457 95.5344C80.3457 92.7989 80.5506 90.1818 80.9217 88.1631C81.3061 86.0749 81.7546 85.2669 81.9606 85.0577C82.1667 85.2669 82.6152 86.0749 82.9996 88.1631C83.3713 90.1812 86.3032 92.7989 86.3032 95.5344C86.3032 98.2699 83.3713 100.887 82.9996 102.906C82.6152 104.994 82.1667 105.802 81.9606 106.011Z" fill="white"/>
</mask>
<g mask="url(#mask0_3460_83632)">
<path d="M84.8803 95.4516C84.8803 97.3506 83.857 98.8906 81.8323 98.8906C79.8076 98.8906 78.166 97.3512 78.166 95.4516C78.166 93.552 79.8076 92.0126 81.8323 92.0126C83.857 92.0126 84.8803 93.552 84.8803 95.4516Z" fill="url(#paint14_linear_3460_83632)"/>
</g>
<path d="M54.8457 92.2296C55.936 92.1026 57.4996 92.0573 59.1907 92.4447C58.6334 95.3543 58.7174 98.3872 59.3617 101.528H54.593C53.8327 101.528 53.1842 100.975 53.0657 100.225C52.8282 98.719 52.5375 96.189 52.8475 94.157C53.0029 93.1374 53.8212 92.3486 54.8457 92.2296Z" fill="url(#paint15_linear_3460_83632)"/>
<path d="M57.7072 94.5136H53.9919C53.8475 94.5136 53.7145 94.4344 53.6456 94.3074C53.5767 94.1805 53.5821 94.0264 53.6613 93.9049C53.7067 93.8348 53.8003 93.8149 53.8698 93.8602C53.94 93.9055 53.9599 93.9986 53.9146 94.0687C53.888 94.1104 53.9031 94.1485 53.9109 94.163C53.9188 94.1775 53.9424 94.2114 53.9919 94.2114H57.7072C57.7579 94.2114 57.7996 94.1696 57.7996 94.1189V93.8548C57.7996 93.804 57.7579 93.7623 57.7072 93.7623H53.9641C53.8807 93.7623 53.813 93.6946 53.813 93.6112C53.813 93.5278 53.8807 93.4601 53.9641 93.4601H57.7072C57.9247 93.4601 58.1012 93.6372 58.1012 93.8542V94.1183C58.1012 94.3359 57.9241 94.5123 57.7072 94.5123V94.5136Z" fill="#91B3FA"/>
<path d="M57.3771 96.1587H53.6619C53.5175 96.1587 53.3845 96.0801 53.3156 95.9532C53.2467 95.8263 53.2521 95.6722 53.3307 95.5507C53.376 95.4806 53.4697 95.4606 53.5392 95.5059C53.6093 95.5513 53.6293 95.645 53.5839 95.7145C53.5567 95.7562 53.5725 95.7942 53.5803 95.8087C53.5882 95.8233 53.6117 95.8571 53.6613 95.8571H57.3765C57.4273 95.8571 57.469 95.8154 57.469 95.7646V95.5005C57.469 95.4497 57.4273 95.408 57.3765 95.408H53.6335C53.5501 95.408 53.4824 95.3403 53.4824 95.2569C53.4824 95.1735 53.5501 95.1058 53.6335 95.1058H57.3765C57.5941 95.1058 57.7706 95.2829 57.7706 95.4999V95.764C57.7706 95.9816 57.5935 96.1581 57.3765 96.1581L57.3771 96.1587Z" fill="#91B3FA"/>
<path d="M61.9538 92.1637C61.8897 92.1637 61.8305 92.1226 61.8099 92.0585C61.7845 91.9788 61.8286 91.8941 61.9078 91.8688L79.465 86.2817C79.5447 86.2563 79.6294 86.3005 79.6547 86.3796C79.6801 86.4594 79.636 86.544 79.5568 86.5694L61.9997 92.1565C61.9846 92.1613 61.9689 92.1637 61.9538 92.1637Z" fill="#91B3FA"/>
<path d="M59.5786 93.1343C59.5187 93.1343 59.4625 93.0987 59.4389 93.0407C59.4075 92.9633 59.4444 92.8757 59.5217 92.8436L60.4253 92.4743C60.5027 92.4429 60.5909 92.4798 60.6224 92.5571C60.6538 92.6345 60.6169 92.7221 60.5396 92.7542L59.636 93.1235C59.6172 93.1313 59.5979 93.1349 59.5792 93.1349L59.5786 93.1343Z" fill="#91B3FA"/>
<path d="M57.7072 98.0862H53.992C53.8475 98.0862 53.7146 98.007 53.6457 97.8807C53.5768 97.7538 53.5822 97.5996 53.6608 97.4782C53.7061 97.4081 53.7998 97.3881 53.8693 97.4334C53.9394 97.4788 53.9594 97.5725 53.914 97.642C53.8868 97.6837 53.9025 97.7217 53.9104 97.7362C53.9183 97.7507 53.9418 97.7846 53.9914 97.7846H57.7066C57.7574 97.7846 57.7991 97.7429 57.7991 97.6921V97.428C57.7991 97.3772 57.7574 97.3355 57.7066 97.3355H53.9636C53.8802 97.3355 53.8125 97.2678 53.8125 97.1844C53.8125 97.101 53.8802 97.0333 53.9636 97.0333H57.7066C57.9242 97.0333 58.1007 97.2104 58.1007 97.4274V97.6915C58.1007 97.9091 57.9236 98.0856 57.7066 98.0856L57.7072 98.0862Z" fill="#91B3FA"/>
<path d="M58.0549 100.225H54.3397C54.1952 100.225 54.0622 100.146 53.9933 100.019C53.9244 99.8921 53.9299 99.7379 54.0084 99.6165C54.0538 99.5464 54.1475 99.5264 54.217 99.5717C54.2871 99.6171 54.307 99.7108 54.2617 99.7803C54.2345 99.822 54.2502 99.86 54.2581 99.8745C54.2659 99.8891 54.2895 99.9229 54.339 99.9229H58.0543C58.105 99.9229 58.1467 99.8812 58.1467 99.8304V99.5663C58.1467 99.5155 58.105 99.4738 58.0543 99.4738H54.3112C54.2278 99.4738 54.1601 99.4061 54.1601 99.3227C54.1601 99.2393 54.2278 99.1716 54.3112 99.1716H58.0543C58.2719 99.1716 58.4483 99.3487 58.4483 99.5657V99.8298C58.4483 100.047 58.2713 100.224 58.0543 100.224L58.0549 100.225Z" fill="#91B3FA"/>
<path d="M61.3733 111.855C61.198 111.855 61.0209 111.836 60.8445 111.798C60.072 111.629 59.4429 111.119 59.1183 110.4L56.1501 103.805C56.1157 103.729 56.1501 103.64 56.2257 103.606C56.3018 103.572 56.3913 103.606 56.4251 103.681L59.3933 110.276C59.678 110.907 60.2298 111.355 60.9079 111.503C61.574 111.648 62.2485 111.475 62.758 111.03C62.7858 111.006 62.8136 110.981 62.8414 110.955C62.903 110.899 62.9979 110.903 63.0547 110.965C63.1109 111.026 63.1067 111.122 63.0451 111.178C63.0155 111.205 62.9858 111.232 62.9562 111.257C62.5096 111.648 61.9517 111.855 61.3727 111.855H61.3733Z" fill="#91B3FA"/>
<path d="M55.8496 102.919C55.7922 102.919 55.7372 102.886 55.7118 102.83L55.3806 102.095C55.3461 102.018 55.3806 101.929 55.4561 101.895C55.5317 101.861 55.6217 101.895 55.6556 101.971L55.9868 102.706C56.0212 102.782 55.9868 102.872 55.9112 102.906C55.8913 102.915 55.8701 102.919 55.8496 102.919Z" fill="#91B3FA"/>
<path d="M84.3367 95.4081C84.2582 95.4081 84.1923 95.3476 84.1863 95.2679C84.1216 94.3546 83.8067 93.6747 83.2506 93.2468C82.2872 92.5058 80.9008 92.759 80.8862 92.762C80.804 92.7777 80.7255 92.7239 80.7098 92.6424C80.694 92.5608 80.7478 92.4816 80.8294 92.4659C80.8917 92.4538 82.3598 92.1824 83.4326 93.0062C84.0611 93.4885 84.4159 94.2422 84.4872 95.2461C84.4933 95.3295 84.4304 95.4014 84.3476 95.4075C84.344 95.4075 84.3404 95.4075 84.3367 95.4075V95.4081Z" fill="#91B3FA"/>
<path d="M59.0411 103.592C59.0411 103.592 60.2505 102.566 61.1952 103.592C62.1405 104.618 62.3272 106.41 62.135 106.498C61.9428 106.585 56.0995 105.134 59.0411 103.592Z" fill="url(#paint16_linear_3460_83632)"/>
<path d="M47.5842 88.6594C47.5842 88.6594 49.3013 91.8289 49.5467 93.549C49.7921 95.2691 50.2611 96.3582 48.2926 96.8786C46.3241 97.399 44.555 96.5486 43.4949 94.9053C43.4949 94.9053 41.8376 92.3759 42.0643 91.2613C42.2915 90.1474 47.5848 88.6594 47.5848 88.6594H47.5842Z" fill="url(#paint17_linear_3460_83632)"/>
<path d="M44.0709 93.6083L44.1803 93.5484C44.3199 93.4723 44.3664 93.2946 44.2818 93.1598C43.953 92.6394 43.296 91.4391 43.9808 91.0873C44.8632 90.6334 48.4225 89.5824 49.0934 88.2297C49.7383 86.9297 48.9351 85.3921 47.8955 85.0246C47.826 84.9998 47.7492 85.0307 47.7202 85.0989L47.6507 85.2639C47.603 85.377 47.4422 85.374 47.3981 85.2597C47.3558 85.1497 47.2041 85.1406 47.1503 85.2458C46.943 85.6514 46.3482 86.3307 44.6408 86.8003C42.2148 87.4676 40.6705 88.6057 40.7769 90.3131C40.7835 90.4213 40.6735 90.4914 40.5762 90.443C40.3846 90.3475 40.0891 90.3209 39.7277 90.6818C39.0997 91.3091 39.504 92.7621 41.093 93.8494C41.1685 93.9008 41.1776 94.0114 41.1051 94.0676C40.8512 94.2658 40.4862 94.7173 41.5729 95.1833C42.6977 95.6656 43.4961 95.549 43.8007 95.4716C43.8762 95.4523 43.9198 95.3737 43.8962 95.2988L43.4375 93.8301C43.4115 93.7467 43.4689 93.6608 43.5559 93.6536L44.0697 93.6095L44.0709 93.6083Z" fill="url(#paint18_linear_3460_83632)"/>
<path d="M44.1606 93.9189C44.1606 93.9189 43.4324 91.8627 42.5403 92.5336C41.6482 93.2045 43.2329 94.8484 43.9975 94.8617L44.1606 93.9189Z" fill="url(#paint19_linear_3460_83632)"/>
<path d="M151.461 170.342C151.461 170.302 151.459 170.262 151.449 170.222C150.851 167.85 148.405 166.636 148.405 166.636L147.229 166.728C146.553 168.817 146.117 169.838 146.225 170.408C146.228 170.424 146.233 170.44 146.238 170.455C147.208 170.541 149.205 170.598 151.46 170.341L151.461 170.342Z" fill="url(#paint20_linear_3460_83632)"/>
<path d="M146.238 170.455C146.291 170.645 146.431 170.794 146.611 170.832C147.991 171.122 150.185 170.889 151.106 170.769C151.309 170.742 151.458 170.554 151.461 170.342C149.205 170.599 147.208 170.542 146.238 170.455V170.455Z" fill="url(#paint21_linear_3460_83632)"/>
<path d="M149.375 164.806L148.86 167.284C148.822 167.466 148.683 167.602 148.514 167.618C148.307 167.637 148.012 167.649 147.716 167.605C147.45 167.566 147.265 167.296 147.312 167.006L147.67 164.805H149.374L149.375 164.806Z" fill="url(#paint22_linear_3460_83632)"/>
<path d="M136.246 170.434C137.502 170.399 138.152 170.251 138.488 170.114C138.488 170.239 138.488 170.366 138.483 170.498C138.479 170.639 138.375 170.751 138.246 170.75L131.35 170.705C131.13 170.704 131.001 170.448 131.096 170.246C132.001 170.321 134.304 170.488 136.245 170.434L136.246 170.434Z" fill="url(#paint23_linear_3460_83632)"/>
<path d="M131.096 170.247C131.104 170.229 131.111 170.211 131.123 170.195C131.732 169.344 133.283 167.649 136.349 166.914L137.819 166.868C137.819 166.868 138.474 168.006 138.486 170.114C138.15 170.251 137.5 170.399 136.245 170.434C134.303 170.489 132 170.321 131.096 170.247Z" fill="url(#paint24_linear_3460_83632)"/>
<path d="M138.093 164.639C138.077 164.749 137.875 166.415 137.797 167.061C137.778 167.214 137.667 167.333 137.527 167.349C137.277 167.379 136.871 167.406 136.517 167.334C136.326 167.294 136.188 167.111 136.188 166.897V164.282L138.093 164.639V164.639Z" fill="url(#paint25_linear_3460_83632)"/>
<path d="M148.392 132.253C148.392 132.253 150.745 153.17 149.438 166.243C149.438 166.243 147.869 166.243 147.085 165.982C147.085 165.982 144.639 145.53 143.848 139.678C143.819 139.458 143.504 139.447 143.46 139.666C142.484 144.59 138.65 163.897 138.195 165.721C138.195 165.721 136.887 166.243 135.842 165.721C135.842 165.721 137.934 137.744 139.502 132.777L148.391 132.254L148.392 132.253Z" fill="url(#paint26_linear_3460_83632)"/>
<path d="M153.098 107.938C153.098 107.938 143.162 106.369 135.318 108.461L135.841 116.566C135.841 116.566 137.933 127.809 139.501 132.776C139.501 132.776 145.515 133.822 148.391 132.253C148.391 132.253 150.744 118.135 152.051 116.043C152.051 116.043 153.358 110.552 153.097 107.938H153.098Z" fill="#7D97F4"/>
<path d="M146.196 100.793L147.186 107.487C147.186 107.487 144.421 108.757 142.484 107.433L142.901 102.709L146.197 100.793H146.196Z" fill="url(#paint27_linear_3460_83632)"/>
<path d="M141.935 96.4349C141.904 96.4912 141.307 99.8667 140.94 101.956C140.789 102.819 141.423 103.621 142.298 103.673L143.099 103.72C144.572 103.807 145.868 102.759 146.091 101.302L146.67 97.5168C146.67 97.5168 142.692 95.0618 141.935 96.4349Z" fill="url(#paint28_linear_3460_83632)"/>
<path d="M147.534 97.5265C147.841 97.1445 148.108 96.5268 147.454 95.8771C146.792 95.2195 146.041 95.3833 145.564 95.6039C145.353 95.7012 145.094 95.6583 144.943 95.4806C144.877 95.402 144.777 95.3482 144.631 95.3646C144.354 95.3954 144.106 95.2129 144.073 94.936C144.017 94.4616 143.764 93.9025 142.925 93.7405C141.386 93.4432 140.618 94.9832 140.645 96.0663C140.672 97.1487 142.36 97.3766 143.317 97.1971C144.02 97.0647 144.628 97.683 144.901 98.0203C145 98.143 145.037 98.3031 145.001 98.4566L144.758 99.5029C144.926 99.828 145.092 100.16 145.328 100.437C145.499 100.637 145.685 100.747 145.884 100.794C146.171 100.26 146.973 100.169 147.346 100.157C147.489 100.153 147.622 100.09 147.716 99.9821C147.998 99.6594 148.438 98.9396 147.595 98.2324C147.385 98.0565 147.361 97.7404 147.532 97.5271L147.534 97.5265Z" fill="url(#paint29_linear_3460_83632)"/>
<path d="M145.607 101.913C145.607 101.913 145.641 100.024 146.405 99.8473C147.17 99.6702 147.994 100.223 147.34 101.353C146.527 102.76 145.607 101.914 145.607 101.914V101.913Z" fill="url(#paint30_linear_3460_83632)"/>
<path d="M148.626 116.966C148.626 116.966 171.075 110.855 159.928 95.1392L159.174 96.2071C159.174 96.2071 162.533 106.851 151.407 107.863C151.407 107.863 148.526 115.295 148.626 116.966Z" fill="#7D97F4"/>
<path d="M140.527 117.724C140.527 117.724 118.077 111.613 129.224 95.8976L129.978 96.9655C129.978 96.9655 126.62 107.61 137.746 108.621C137.746 108.621 140.627 116.053 140.527 117.724Z" fill="#7D97F4"/>
<path d="M169.922 73.5791L167.961 94.7687C167.809 96.412 167.081 97.4558 166.349 97.0781C163.544 95.6311 130.125 88.13 121.64 97.9109C120.912 98.7498 119.212 96.0597 119.019 94.2833L117.021 74.0209C116.879 72.7076 117.157 71.3737 117.68 70.6955C128.474 56.7116 161.954 59.9342 169.325 70.4471C169.795 71.1174 170.034 72.3607 169.921 73.5797L169.922 73.5791Z" fill="url(#paint31_linear_3460_83632)"/>
<path d="M131.288 78.0522C131.563 84.8553 137.199 90.4061 143.81 90.5336C150.344 90.6599 155.5 85.4307 155.392 78.7757C155.284 72.03 149.82 66.2731 143.119 65.9987C136.338 65.7207 131.009 71.1548 131.288 78.0522H131.288ZM150.514 85.8375L137.65 69.6541C139.22 68.6279 141.121 68.0688 143.181 68.1492C148.726 68.3662 153.265 73.121 153.367 78.7146C153.418 81.5517 152.32 84.0708 150.514 85.8375H150.514ZM133.395 78.1151C133.284 75.2091 134.379 72.612 136.231 70.7946L149.134 86.9489C147.608 87.9541 145.761 88.5198 143.752 88.4775C138.268 88.3614 133.61 83.7475 133.395 78.1151Z" fill="url(#paint32_linear_3460_83632)"/>
<path d="M160.005 95.2201C160.005 95.2201 160.258 92.1861 158.741 91.9328C157.223 91.6802 156.718 93.1972 156.465 93.9558C156.212 94.7143 158.741 96.2313 159.246 96.2313C159.752 96.2313 160.005 95.2201 160.005 95.2201Z" fill="url(#paint33_linear_3460_83632)"/>
<path d="M129.149 95.9787C129.149 95.9787 128.896 92.9446 130.413 92.6914C131.93 92.4387 132.436 93.9558 132.689 94.7143C132.941 95.4728 130.413 96.9899 129.907 96.9899C129.401 96.9899 129.149 95.9787 129.149 95.9787Z" fill="url(#paint34_linear_3460_83632)"/>
<path d="M22.6457 81.6448C22.6457 81.6448 32.0375 93.6692 21.3221 105.899L17.2938 105.524C17.2938 105.524 25.0488 93.0721 21.5947 83.1467L15.888 83.5631L12.7324 81.5063L22.6457 81.6448Z" fill="url(#paint35_linear_3460_83632)"/>
<path d="M47.7848 54.6113L8.77459 52.3085C8.00942 52.2632 7.36513 52.7914 7.34277 53.4816L6.46156 80.4861C6.43859 81.1805 7.05387 81.768 7.82448 81.7868C14.8875 81.9566 46.2442 82.7145 47.6246 82.8372C48.9893 82.9581 49.0915 61.2342 49.0963 55.8732C49.0963 55.2102 48.5185 54.6542 47.7848 54.6113Z" fill="url(#paint36_linear_3460_83632)"/>
<path d="M46.8956 81.855C41.7371 81.658 13.4465 80.975 7.82739 80.8403H7.81893C7.66239 80.8324 7.53909 80.6958 7.54513 80.5369L8.42635 53.5324C8.42937 53.4472 8.46624 53.3716 8.52909 53.3196C8.56777 53.287 8.63365 53.2507 8.72734 53.255L47.7375 55.5571C47.891 55.5662 48.0113 55.6949 48.0113 55.8503C48.0004 69.1125 47.613 79.2773 47.0255 81.7456L46.9983 81.8593L46.8956 81.855ZM8.68563 53.5433L7.8292 80.5429H7.83404C13.4187 80.6771 41.3769 81.3522 46.8007 81.5541C47.3682 78.9213 47.7405 68.8919 47.7557 55.8654C47.7538 55.8629 47.7436 55.8539 47.7242 55.8533L8.71525 53.5511C8.71525 53.5511 8.71162 53.5511 8.71041 53.5511C8.6947 53.5511 8.68684 53.5548 8.68684 53.5433H8.68563Z" fill="url(#paint37_linear_3460_83632)"/>
<path d="M16.5257 67.3205C16.7898 73.8649 22.2118 79.2054 28.5719 79.3281C34.8582 79.4496 39.8179 74.4192 39.7152 68.0162C39.6106 61.5268 34.3548 55.9887 27.9083 55.724C21.3844 55.4562 16.2579 60.6842 16.5257 67.3199V67.3205ZM35.0214 74.8102L22.6458 59.2415C24.1568 58.2546 25.9857 57.7167 27.9669 57.794C33.3019 58.0025 37.6687 62.5772 37.7666 67.9582C37.8161 70.6876 36.7597 73.1106 35.022 74.8102H35.0214ZM18.5522 67.381C18.4452 64.585 19.4993 62.0864 21.281 60.3385L33.6942 75.8794C32.2261 76.8464 30.4485 77.391 28.5157 77.3499C23.2399 77.2387 18.7589 72.7994 18.5516 67.381H18.5522Z" fill="url(#paint38_linear_3460_83632)"/>
<path d="M17.5019 140.517C17.5019 140.517 9.89254 157.101 5.9005 163.971C5.9005 163.971 5.10753 168.293 5.9005 169.652L6.57622 169.953L3.42247 169.859C3.42247 169.859 3.14203 164.045 3.36083 163.72C3.57962 163.395 4.0172 163.417 4.0172 163.417C4.0172 163.417 5.36924 152.703 9.28573 150.416L13.0813 137.344L17.5019 140.517Z" fill="url(#paint39_linear_3460_83632)"/>
<path d="M7.92261 170.767C7.92745 170.843 5.4597 170.808 4.11975 170.784C3.62475 170.774 3.20288 170.427 3.09771 169.943L2.08535 164.625C1.98925 164.12 2.31018 163.629 2.81183 163.514L3.37694 163.385C3.37694 163.385 4.18321 164.491 3.92936 165.532C3.67552 166.573 3.45008 169.27 4.09074 169.583C4.732 169.898 6.57602 169.953 6.57602 169.953C6.57602 169.953 7.88091 170.082 7.92322 170.767H7.92261Z" fill="url(#paint40_linear_3460_83632)"/>
<path d="M24.7145 170.863C24.9641 171.005 24.8614 171.387 24.5737 171.384C22.3308 171.361 17.3046 171.29 16.858 171.105C16.2814 170.865 17.0683 168.793 17.8963 168.092L22.468 169.584L24.7145 170.864V170.863Z" fill="url(#paint41_linear_3460_83632)"/>
<path d="M26.1332 139.459C26.1332 139.459 21.2158 163.247 19.8251 167.887L23.1161 169.953C23.1161 169.953 21.4673 169.672 20.244 169.583C19.0207 169.494 17.8965 168.091 17.8965 168.091L18.2906 167.462C18.2906 167.462 19.5235 143.804 19.2237 141.117L26.1338 139.459H26.1332Z" fill="url(#paint42_linear_3460_83632)"/>
<path d="M38.3398 83.9728C38.3398 83.9728 39.0179 96.3472 27.752 102.67L30.4645 108.856C30.4645 108.856 40.6643 102.687 40.2871 85.8603C40.2763 85.3774 40.4503 84.9084 40.7658 84.5427L42.9338 82.0278C43.76 81.0699 44.0683 79.7698 43.7612 78.5429L43.4759 77.4024C43.3804 77.0204 42.9453 76.8367 42.605 77.0343L42.3784 77.1661C41.6567 77.5855 41.085 78.2208 40.7441 78.9823L39.6797 81.3618C39.282 82.2509 38.3652 82.79 37.3951 82.7066L36.7369 82.6498L38.3398 83.9728Z" fill="url(#paint43_linear_3460_83632)"/>
<path d="M28.1433 101.743C26.2588 102.266 19.8733 103.946 15.8867 103.877L18.3345 117.689L18.1399 119.941L26.1198 119.905C26.1198 119.905 28.3663 114.688 30.1384 112.088C30.6503 111.336 30.2696 110.441 29.9794 109.579L30.3783 109.313C30.7839 109.043 30.9598 108.536 30.8087 108.073L28.8655 102.127C28.7646 101.827 28.4491 101.658 28.1445 101.743L28.1433 101.743Z" fill="url(#paint44_linear_3460_83632)"/>
<path d="M26.7594 118.727L26.6023 120.092C26.6023 120.092 28.8573 126.845 25.4745 142.619C25.4745 142.619 18.1486 144.695 12.127 139.728C12.127 139.728 13.8253 124.84 14.2895 124.147C16.6001 120.693 18.1395 119.942 18.1395 119.942L18.209 118.451C18.209 118.451 24.6495 119.615 26.7588 118.727H26.7594Z" fill="url(#paint45_linear_3460_83632)"/>
<path d="M23.6358 102.856C23.6636 102.819 21.9701 97.7416 21.9701 97.7416L19.5434 97.9616L18.5957 103.721C18.5957 103.721 22.3986 104.489 23.6358 102.855V102.856Z" fill="url(#paint46_linear_3460_83632)"/>
<path d="M20.1243 89.7345C20.2863 89.8355 25.3094 91.911 24.23 97.1263C24.1659 97.4345 23.9604 97.6956 23.6733 97.8238C22.936 98.1526 21.3494 98.7153 19.451 98.5225C16.8195 98.2553 15.0951 93.6631 15.1683 92.3268C15.2414 90.9905 18.5202 88.7355 20.1237 89.7345H20.1243Z" fill="url(#paint47_linear_3460_83632)"/>
<path d="M18.5952 87.7074C18.7275 87.725 21.4981 88.6896 20.1237 90.6974C18.7499 92.7052 18.2343 93.8874 18.8841 94.7686C19.4764 95.5719 20.7879 95.1143 20.6731 96.7855C20.6501 97.1197 20.7946 97.4449 21.0726 97.6329C22.3086 98.4693 25.3239 101.045 22.3364 104.718C22.0934 105.016 22.0433 105.428 22.2306 105.764C23.1058 107.334 24.9438 111.932 18.2893 114.482C11.7135 117.003 9.33944 112.704 8.67581 110.986C8.53257 110.614 8.1663 110.387 7.76861 110.406C7.04635 110.439 6.0219 110.32 6.06904 109.354C6.09745 108.768 6.46372 108.242 6.89586 107.821C7.32377 107.404 7.23916 106.673 6.71998 106.378C6.32773 106.155 5.9802 105.807 5.83333 105.263C5.43503 103.787 6.23042 99.3711 10.4624 98.6229C10.8154 98.5606 11.1853 98.2294 11.2366 97.8746C11.2372 97.8692 11.2385 97.8643 11.2391 97.8589C11.2959 97.5156 11.1798 97.1651 10.8994 96.959C10.2237 96.4633 9.35696 95.4649 10.0611 93.8644C10.6854 92.4447 11.8827 91.966 12.7724 91.8131C13.2946 91.7237 13.6379 91.2299 13.5279 90.7113C13.2281 89.2988 13.4892 87.0372 18.5946 87.7062L18.5952 87.7074Z" fill="url(#paint48_linear_3460_83632)"/>
</g>
<defs>
<linearGradient id="paint0_linear_3460_83632" x1="26.238" y1="103.021" x2="174.148" y2="75.9719" gradientUnits="userSpaceOnUse">
<stop stop-color="#E1473D"/>
<stop offset="1" stop-color="#E9605A"/>
</linearGradient>
<linearGradient id="paint1_linear_3460_83632" x1="53.6726" y1="145.742" x2="139.133" y2="22.027" gradientUnits="userSpaceOnUse">
<stop stop-color="#E1473D"/>
<stop offset="1" stop-color="#E9605A"/>
</linearGradient>
<linearGradient id="paint2_linear_3460_83632" x1="41.3824" y1="168.63" x2="47.7286" y2="168.63" gradientUnits="userSpaceOnUse">
<stop stop-color="#09005D"/>
<stop offset="1" stop-color="#1A0F91"/>
</linearGradient>
<linearGradient id="paint3_linear_3460_83632" x1="43.1474" y1="161.405" x2="41.935" y2="171.985" gradientUnits="userSpaceOnUse">
<stop stop-color="#A22B25"/>
<stop offset="1" stop-color="#C0423C"/>
</linearGradient>
<linearGradient id="paint4_linear_3460_83632" x1="51.0463" y1="168.799" x2="60.1817" y2="168.799" gradientUnits="userSpaceOnUse">
<stop stop-color="#09005D"/>
<stop offset="1" stop-color="#1A0F91"/>
</linearGradient>
<linearGradient id="paint5_linear_3460_83632" x1="53.0238" y1="162.536" x2="51.8114" y2="173.116" gradientUnits="userSpaceOnUse">
<stop stop-color="#A22B25"/>
<stop offset="1" stop-color="#C0423C"/>
</linearGradient>
<linearGradient id="paint6_linear_3460_83632" x1="67.4269" y1="114.157" x2="28.6548" y2="174.321" gradientUnits="userSpaceOnUse">
<stop stop-color="#09005D"/>
<stop offset="1" stop-color="#1A0F91"/>
</linearGradient>
<linearGradient id="paint7_linear_3460_83632" x1="47.6989" y1="86.6734" x2="44.3077" y2="105.529" gradientUnits="userSpaceOnUse">
<stop stop-color="#A22B25"/>
<stop offset="1" stop-color="#C0423C"/>
</linearGradient>
<linearGradient id="paint8_linear_3460_83632" x1="45.682" y1="130.311" x2="42.4309" y2="136.097" gradientUnits="userSpaceOnUse">
<stop stop-color="#09005D"/>
<stop offset="1" stop-color="#1A0F91"/>
</linearGradient>
<linearGradient id="paint9_linear_3460_83632" x1="32.8724" y1="125.131" x2="43.2246" y2="125.131" gradientUnits="userSpaceOnUse">
<stop stop-color="#A22B25"/>
<stop offset="1" stop-color="#C0423C"/>
</linearGradient>
<linearGradient id="paint10_linear_3460_83632" x1="57.1034" y1="108.549" x2="60.8124" y2="113.974" gradientUnits="userSpaceOnUse">
<stop stop-color="#A22B25"/>
<stop offset="1" stop-color="#C0423C"/>
</linearGradient>
<linearGradient id="paint11_linear_3460_83632" x1="52.7743" y1="113.362" x2="60.9246" y2="102.43" gradientUnits="userSpaceOnUse">
<stop stop-color="#09005D"/>
<stop offset="1" stop-color="#1A0F91"/>
</linearGradient>
<linearGradient id="paint12_linear_3460_83632" x1="80.3773" y1="81.7131" x2="51.0864" y2="132.332" gradientUnits="userSpaceOnUse">
<stop stop-color="#4F52FF"/>
<stop offset="1" stop-color="#4042E2"/>
</linearGradient>
<linearGradient id="paint13_linear_3460_83632" x1="99.1999" y1="80.5441" x2="94.52" y2="84.6135" gradientUnits="userSpaceOnUse">
<stop stop-color="#4F52FF"/>
<stop offset="1" stop-color="#4042E2"/>
</linearGradient>
<linearGradient id="paint14_linear_3460_83632" x1="86.8337" y1="95.1645" x2="70.6661" y2="96.0923" gradientUnits="userSpaceOnUse">
<stop stop-color="#09005D"/>
<stop offset="1" stop-color="#1A0F91"/>
</linearGradient>
<linearGradient id="paint15_linear_3460_83632" x1="56.2068" y1="100.909" x2="55.6102" y2="85.9015" gradientUnits="userSpaceOnUse">
<stop stop-color="#09005D"/>
<stop offset="1" stop-color="#1A0F91"/>
</linearGradient>
<linearGradient id="paint16_linear_3460_83632" x1="58.2149" y1="104.819" x2="62.2027" y2="104.819" gradientUnits="userSpaceOnUse">
<stop stop-color="#A22B25"/>
<stop offset="1" stop-color="#C0423C"/>
</linearGradient>
<linearGradient id="paint17_linear_3460_83632" x1="46.2985" y1="98.5396" x2="45.2938" y2="85.2826" gradientUnits="userSpaceOnUse">
<stop stop-color="#A22B25"/>
<stop offset="1" stop-color="#C0423C"/>
</linearGradient>
<linearGradient id="paint18_linear_3460_83632" x1="41.9363" y1="87.067" x2="50.414" y2="96.2363" gradientUnits="userSpaceOnUse">
<stop stop-color="#09005D"/>
<stop offset="1" stop-color="#1A0F91"/>
</linearGradient>
<linearGradient id="paint19_linear_3460_83632" x1="43.612" y1="98.743" x2="42.6074" y2="85.4866" gradientUnits="userSpaceOnUse">
<stop stop-color="#A22B25"/>
<stop offset="1" stop-color="#C0423C"/>
</linearGradient>
<linearGradient id="paint20_linear_3460_83632" x1="146.209" y1="168.582" x2="151.461" y2="168.582" gradientUnits="userSpaceOnUse">
<stop stop-color="#09005D"/>
<stop offset="1" stop-color="#1A0F91"/>
</linearGradient>
<linearGradient id="paint21_linear_3460_83632" x1="159.443" y1="162.188" x2="140.128" y2="177.354" gradientUnits="userSpaceOnUse">
<stop stop-color="#4F52FF"/>
<stop offset="1" stop-color="#4042E2"/>
</linearGradient>
<linearGradient id="paint22_linear_3460_83632" x1="147.933" y1="162.419" x2="148.982" y2="171.569" gradientUnits="userSpaceOnUse">
<stop stop-color="#FEBBBA"/>
<stop offset="1" stop-color="#FF928E"/>
</linearGradient>
<linearGradient id="paint23_linear_3460_83632" x1="130.135" y1="166.689" x2="148.813" y2="181.355" gradientUnits="userSpaceOnUse">
<stop stop-color="#4F52FF"/>
<stop offset="1" stop-color="#4042E2"/>
</linearGradient>
<linearGradient id="paint24_linear_3460_83632" x1="138.487" y1="168.656" x2="131.096" y2="168.656" gradientUnits="userSpaceOnUse">
<stop stop-color="#09005D"/>
<stop offset="1" stop-color="#1A0F91"/>
</linearGradient>
<linearGradient id="paint25_linear_3460_83632" x1="136.889" y1="163.59" x2="137.87" y2="172.15" gradientUnits="userSpaceOnUse">
<stop stop-color="#FEBBBA"/>
<stop offset="1" stop-color="#FF928E"/>
</linearGradient>
<linearGradient id="paint26_linear_3460_83632" x1="142.943" y1="163.316" x2="141.767" y2="126.452" gradientUnits="userSpaceOnUse">
<stop stop-color="#09005D"/>
<stop offset="1" stop-color="#1A0F91"/>
</linearGradient>
<linearGradient id="paint27_linear_3460_83632" x1="147.186" y1="104.414" x2="142.484" y2="104.414" gradientUnits="userSpaceOnUse">
<stop stop-color="#FEBBBA"/>
<stop offset="1" stop-color="#FF928E"/>
</linearGradient>
<linearGradient id="paint28_linear_3460_83632" x1="-247.08" y1="-258.599" x2="-253.325" y2="-264.332" gradientUnits="userSpaceOnUse">
<stop stop-color="#FEBBBA"/>
<stop offset="1" stop-color="#FF928E"/>
</linearGradient>
<linearGradient id="paint29_linear_3460_83632" x1="148.216" y1="99.1695" x2="140.787" y2="95.0736" gradientUnits="userSpaceOnUse">
<stop stop-color="#09005D"/>
<stop offset="1" stop-color="#1A0F91"/>
</linearGradient>
<linearGradient id="paint30_linear_3460_83632" x1="-246.252" y1="-259.503" x2="-252.496" y2="-265.236" gradientUnits="userSpaceOnUse">
<stop stop-color="#FEBBBA"/>
<stop offset="1" stop-color="#FF928E"/>
</linearGradient>
<linearGradient id="paint31_linear_3460_83632" x1="116.985" y1="79.7095" x2="169.95" y2="79.7095" gradientUnits="userSpaceOnUse">
<stop stop-color="#4F52FF"/>
<stop offset="1" stop-color="#4042E2"/>
</linearGradient>
<linearGradient id="paint32_linear_3460_83632" x1="126.863" y1="37.3032" x2="134.391" y2="56.0232" gradientUnits="userSpaceOnUse">
<stop stop-color="#FF928E"/>
<stop offset="1" stop-color="#FE7062"/>
</linearGradient>
<linearGradient id="paint33_linear_3460_83632" x1="157.165" y1="90.4484" x2="159.82" y2="99.1723" gradientUnits="userSpaceOnUse">
<stop stop-color="#FEBBBA"/>
<stop offset="1" stop-color="#FF928E"/>
</linearGradient>
<linearGradient id="paint34_linear_3460_83632" x1="131.988" y1="91.207" x2="129.334" y2="99.9308" gradientUnits="userSpaceOnUse">
<stop stop-color="#FEBBBA"/>
<stop offset="1" stop-color="#FF928E"/>
</linearGradient>
<linearGradient id="paint35_linear_3460_83632" x1="21.2115" y1="66.9102" x2="17.2442" y2="117.879" gradientUnits="userSpaceOnUse">
<stop stop-color="#FEBBBA"/>
<stop offset="1" stop-color="#FF928E"/>
</linearGradient>
<linearGradient id="paint36_linear_3460_83632" x1="6.46096" y1="67.5719" x2="49.0963" y2="67.5719" gradientUnits="userSpaceOnUse">
<stop stop-color="#4F52FF"/>
<stop offset="1" stop-color="#4042E2"/>
</linearGradient>
<linearGradient id="paint37_linear_3460_83632" x1="7.54453" y1="67.5562" x2="48.0107" y2="67.5562" gradientUnits="userSpaceOnUse">
<stop stop-color="#DAE3FE"/>
<stop offset="1" stop-color="#E9EFFD"/>
</linearGradient>
<linearGradient id="paint38_linear_3460_83632" x1="12.2683" y1="28.1187" x2="19.5114" y2="46.1279" gradientUnits="userSpaceOnUse">
<stop stop-color="#FF928E"/>
<stop offset="1" stop-color="#FE7062"/>
</linearGradient>
<linearGradient id="paint39_linear_3460_83632" x1="17.5025" y1="153.648" x2="3.27802" y2="153.648" gradientUnits="userSpaceOnUse">
<stop stop-color="#FEBBBA"/>
<stop offset="1" stop-color="#FF928E"/>
</linearGradient>
<linearGradient id="paint40_linear_3460_83632" x1="-2.04994" y1="121.837" x2="4.99433" y2="167.626" gradientUnits="userSpaceOnUse">
<stop stop-color="#4F52FF"/>
<stop offset="1" stop-color="#4042E2"/>
</linearGradient>
<linearGradient id="paint41_linear_3460_83632" x1="12.8557" y1="119.545" x2="19.9005" y2="165.333" gradientUnits="userSpaceOnUse">
<stop stop-color="#4F52FF"/>
<stop offset="1" stop-color="#4042E2"/>
</linearGradient>
<linearGradient id="paint42_linear_3460_83632" x1="26.1338" y1="154.705" x2="17.8965" y2="154.705" gradientUnits="userSpaceOnUse">
<stop stop-color="#FEBBBA"/>
<stop offset="1" stop-color="#FF928E"/>
</linearGradient>
<linearGradient id="paint43_linear_3460_83632" x1="23.9594" y1="115.351" x2="41.4585" y2="83.609" gradientUnits="userSpaceOnUse">
<stop stop-color="#FEBBBA"/>
<stop offset="1" stop-color="#FF928E"/>
</linearGradient>
<linearGradient id="paint44_linear_3460_83632" x1="15.8867" y1="110.832" x2="30.8619" y2="110.832" gradientUnits="userSpaceOnUse">
<stop stop-color="#FF928E"/>
<stop offset="1" stop-color="#FE7062"/>
</linearGradient>
<linearGradient id="paint45_linear_3460_83632" x1="33.4066" y1="117.493" x2="6.98957" y2="147.286" gradientUnits="userSpaceOnUse">
<stop stop-color="#09005D"/>
<stop offset="1" stop-color="#1A0F91"/>
</linearGradient>
<linearGradient id="paint46_linear_3460_83632" x1="23.6364" y1="100.822" x2="18.5957" y2="100.822" gradientUnits="userSpaceOnUse">
<stop stop-color="#FEBBBA"/>
<stop offset="1" stop-color="#FF928E"/>
</linearGradient>
<linearGradient id="paint47_linear_3460_83632" x1="35.6325" y1="84.1837" x2="61.2699" y2="67.7024" gradientUnits="userSpaceOnUse">
<stop stop-color="#FEBBBA"/>
<stop offset="1" stop-color="#FF928E"/>
</linearGradient>
<linearGradient id="paint48_linear_3460_83632" x1="9.59389" y1="92.0966" x2="22.5086" y2="117.926" gradientUnits="userSpaceOnUse">
<stop stop-color="#09005D"/>
<stop offset="1" stop-color="#1A0F91"/>
</linearGradient>
<clipPath id="clip0_3460_83632">
<rect width="175.865" height="176" fill="white" transform="translate(2.06836 2.42407)"/>
</clipPath>
</defs>
</svg>
