<svg width="60" height="60" viewBox="0 0 60 60" fill="none" xmlns="http://www.w3.org/2000/svg">
<rect width="60" height="60" rx="30" fill="#F4F4F4"/>
<g clip-path="url(#clip0_1776_101945)">
<path d="M26 24.1424L26 22.4709C26 21.3061 26 20.7237 26.3494 20.3619C26.6988 20 27.2612 20 28.386 20L31.614 20C32.7388 20 33.3012 20 33.6506 20.3619C34 20.7237 34 21.3061 34 22.4709V24.1424" stroke="black" stroke-width="2"/>
<path d="M29.999 39C28.6432 39 27.7012 38.999 26.9717 38.9248C26.3494 38.8615 25.9607 38.7506 25.665 38.5889L25.5439 38.5166C25.3486 38.3898 25.1684 38.2412 25.0078 38.0732L24.8545 37.8994C24.62 37.6127 24.4419 37.2239 24.292 36.5254C24.1766 35.9877 24.0887 35.3263 23.9893 34.4609L23.8848 33.5234L22.8809 24.4307L37.1172 24.4307L36.1133 33.5234C35.9644 34.8714 35.8599 35.8083 35.7061 36.5254C35.5749 37.1364 35.4225 37.5101 35.2295 37.7861L35.1445 37.8994C34.9971 38.0796 34.829 38.2417 34.6445 38.3828L34.4541 38.5166C34.1434 38.7181 33.7379 38.8525 33.0273 38.9248C32.4801 38.9805 31.8128 38.9952 30.9414 38.999L29.999 39Z" stroke="black" stroke-width="2"/>
<path d="M21 24.1219H39" stroke="black" stroke-width="2" stroke-linecap="round"/>
</g>
<defs>
<clipPath id="clip0_1776_101945">
<rect width="24" height="24" fill="white" transform="translate(18 18)"/>
</clipPath>
</defs>
</svg>
