<svg width="19" height="21" viewBox="0 0 19 21" fill="none" xmlns="http://www.w3.org/2000/svg">
<path d="M3.36768 9.98188V5.18188C3.36768 4.06178 3.36768 3.50131 3.58566 3.07349C3.77741 2.69716 4.08315 2.39142 4.45947 2.19968C4.8873 1.98169 5.44777 1.98169 6.56787 1.98169H11.0424C11.165 1.98169 11.2722 1.98169 11.3677 1.98256M17.3667 7.98169C17.3677 8.0773 17.3677 8.18465 17.3677 8.30737V16.7853C17.3677 17.9032 17.3677 18.4622 17.1499 18.8896C16.9582 19.2659 16.6516 19.5722 16.2753 19.7639C15.8479 19.9817 15.2887 19.9817 14.1707 19.9817L10.3677 19.9817M17.3667 7.98169C17.364 7.6962 17.3534 7.51545 17.312 7.34302C17.263 7.13895 17.1819 6.94383 17.0722 6.76489C16.9485 6.56305 16.7766 6.39058 16.4307 6.04467L13.3052 2.91919C12.9595 2.57351 12.7862 2.40026 12.5845 2.27661C12.4055 2.16695 12.2106 2.08594 12.0065 2.03695C11.834 1.99554 11.6533 1.98516 11.3677 1.98256M17.3667 7.98169H17.3679M17.3667 7.98169H14.5646C13.4467 7.98169 12.8869 7.98169 12.4595 7.76392C12.0831 7.57217 11.7774 7.2656 11.5857 6.88928C11.3677 6.46146 11.3677 5.90179 11.3677 4.78169V1.98256M6.36768 12.9817L8.36768 14.9817M1.36768 19.9817V17.4817L8.86768 9.98169L11.3677 12.4817L3.86768 19.9817H1.36768Z" stroke="white" stroke-width="2" stroke-linecap="round" stroke-linejoin="round"/>
</svg>
