<svg width="101" height="100" viewBox="0 0 101 100" fill="none" xmlns="http://www.w3.org/2000/svg">
<g clip-path="url(#clip0_3559_34184)">
<path d="M87.3724 84.4025C85.4011 86.4552 83.536 87.7788 82.0621 88.8246C64.7396 101.118 44.2423 97.5347 39.886 96.6593C33.4533 95.3669 21.0187 92.8691 12.0289 82.4127C-1.57251 66.593 0.545557 41.6693 11.0954 25.2167C13.0251 22.2072 23.2184 5.50408 43.9366 2.82553C56.4751 1.20453 71.0907 4.47395 81.6752 13.2448C103.893 31.6553 102.311 68.8479 87.3724 84.4025Z" fill="url(#paint0_linear_3559_34184)"/>
<path d="M90.8532 72.8274C90.1461 70.6589 88.901 68.7312 87.2693 67.1688C85.2059 65.1932 82.5239 63.8019 79.5294 63.2478C79.5294 63.2478 75.6429 62.5743 71.3787 61.4734C69.9855 61.1136 68.4947 61.4151 67.3773 62.2756C64.398 64.57 58.804 67.5574 50.0164 67.3558C42.0561 67.1733 37.4811 64.7852 35.0009 62.7294C33.8469 61.7728 32.257 61.4325 30.78 61.8388C27.5695 62.7214 24.899 63.2478 24.899 63.2478C19.5369 64.2404 12.7192 67.9165 11.1176 72.8274C9.58312 77.5325 8.01716 85.2805 7.84997 91.7646C7.78939 94.1222 9.79427 96.0683 12.3035 96.0683H89.6674C92.1766 96.0683 94.1814 94.1222 94.1209 91.7646C93.9537 85.2805 92.3877 77.5325 90.8532 72.8274Z" fill="url(#paint1_linear_3559_34184)"/>
<path d="M50.0166 67.7572C60.852 68.0223 68.4489 63.6641 70.658 61.3481C66.265 59.9839 60.5277 57.6426 60.4591 55.7013L59.7977 37.0015H42.3464L41.6849 55.7013C41.6115 57.7734 34.9236 60.4797 30.7803 61.8731C32.5518 64.1422 39.7468 67.5064 50.0166 67.7572Z" fill="url(#paint2_linear_3559_34184)"/>
<path d="M35.7664 20.4181C35.7664 20.4181 38.2777 47.6862 45.6118 50.617C45.6118 50.617 51.5631 53.1862 56.5344 50.2794C56.5344 50.2794 64.7343 42.7992 64.1448 20.6259C64.1448 20.6259 64.8236 7.77828 50.6808 6.71484C34.1094 5.46925 35.7667 20.4185 35.7667 20.4185L35.7664 20.4181Z" fill="url(#paint3_linear_3559_34184)"/>
<path d="M62.6943 30.0053C62.6943 30.0053 63.9373 26.2678 66.0083 26.2678C68.0793 26.2678 65.594 36.234 62.6943 36.234V30.0049V30.0053Z" fill="url(#paint4_linear_3559_34184)"/>
<path d="M38.49 29.1528C38.49 29.1528 36.7811 25.9878 34.7284 26.2678C32.6761 26.5478 35.6163 36.6086 38.49 36.2169V29.1528Z" fill="url(#paint5_linear_3559_34184)"/>
<path d="M38.0267 27.3215C37.2309 27.6754 36.3029 27.2806 36.0059 26.4604C35.4832 25.0177 34.6805 22.8249 34.0301 21.1491C32.9716 18.4206 27.3758 14.9339 33.2738 8.11233C39.1718 1.29071 42.5121 8.69453 46.4377 6.73593C50.3633 4.77733 55.0515 0.229698 59.1347 3.10983C63.2178 5.98996 60.4957 8.71847 61.8567 9.47658C63.2178 10.2347 65.3352 6.2932 66.8475 11.5989C68.0174 15.7039 66.1116 23.2614 65.1891 26.4715C64.9651 27.2511 64.08 27.623 63.368 27.2369C62.9924 27.0332 62.7446 26.6547 62.7083 26.2279C62.6061 25.0184 62.3659 22.3385 62.008 19.33C61.521 15.2361 57.7933 20.9079 50.5243 21.7108C43.2552 22.5133 43.8603 18.5722 40.3819 18.5722C38.9146 18.5722 38.8699 23.7031 38.9191 25.9146C38.9326 26.5211 38.5798 27.0755 38.0267 27.3219V27.3215Z" fill="url(#paint6_linear_3559_34184)"/>
<path d="M35.8809 23.5119C35.8809 23.5119 35.8996 23.4998 35.9235 23.4783C35.9419 23.4616 35.9734 23.4231 35.9945 23.3662C36.0377 23.2496 36.0308 23.0418 35.9422 22.7937C35.8609 22.5304 35.7563 22.2257 35.5995 21.885C35.449 21.5419 35.2499 21.1672 35.0163 20.7671C34.7857 20.3653 34.5202 19.9372 34.2381 19.482C33.9571 19.0261 33.6615 18.5407 33.3901 18.014C33.1194 17.4904 32.8729 16.912 32.7231 16.3073C32.568 15.6859 32.4939 15.0509 32.505 14.408C32.5219 13.7672 32.6203 13.1294 32.793 12.5223C32.9633 11.914 33.2243 11.3433 33.5358 10.8291C33.8435 10.318 34.2233 9.86175 34.6161 9.48113C35.0097 9.09705 35.431 8.78929 35.8373 8.54017C36.2454 8.29244 36.6439 8.10994 37.0038 7.97185C37.0949 7.93993 37.1831 7.90905 37.268 7.87921C37.3534 7.85076 37.4376 7.8289 37.5172 7.80496C37.6761 7.755 37.8266 7.72551 37.9606 7.69324C38.2306 7.63668 38.4445 7.60303 38.5916 7.59193C38.738 7.57701 38.8159 7.56937 38.8159 7.56937C38.8478 7.56625 38.8761 7.5895 38.8793 7.62107C38.8824 7.65091 38.8623 7.67762 38.8336 7.68352L38.8301 7.68422C38.8301 7.68422 38.7546 7.69983 38.6131 7.72898C38.5425 7.74355 38.4552 7.75951 38.3545 7.78831C38.2538 7.81606 38.1361 7.83827 38.0084 7.8806C37.8806 7.92189 37.7377 7.96109 37.5878 8.02146C37.5123 8.05061 37.4331 8.07767 37.3531 8.11133C37.2735 8.14637 37.1911 8.18245 37.106 8.21993C36.7678 8.37363 36.397 8.57071 36.0187 8.82433C35.6386 9.07553 35.2562 9.38988 34.8906 9.75905C34.5244 10.131 34.1904 10.5588 33.8961 11.047C33.6075 11.5324 33.3683 12.0705 33.2028 12.6413C33.0374 13.2124 32.9415 13.8136 32.9228 14.4181C32.9093 15.02 32.9695 15.6331 33.1042 16.2028C33.1377 16.3447 33.1848 16.5026 33.2225 16.6362C33.2714 16.7757 33.316 16.9158 33.3676 17.0532C33.4237 17.1889 33.4728 17.3263 33.5317 17.4595C33.5922 17.5917 33.648 17.7249 33.7117 17.854C33.9605 18.3724 34.2388 18.8592 34.5064 19.3213C34.7743 19.7831 35.0322 20.221 35.252 20.6367C35.4704 21.053 35.6566 21.4444 35.7951 21.8028C35.9398 22.1584 36.0357 22.486 36.1032 22.7465C36.1821 23.0158 36.1831 23.2586 36.1156 23.4144C36.081 23.4925 36.0374 23.5418 35.9979 23.573C35.9637 23.5994 35.9495 23.606 35.9488 23.6073C35.9225 23.6257 35.8865 23.6195 35.8681 23.5931C35.8498 23.5671 35.856 23.5307 35.8823 23.5123L35.8809 23.5119Z" fill="#91B3FA"/>
<path d="M36.6226 23.8026C36.6192 23.8026 36.6154 23.8026 36.6116 23.8016C36.5801 23.7957 36.5596 23.7651 36.5655 23.7339C36.8795 22.0855 36.064 20.5041 35.2754 18.9743C34.5112 17.4917 33.7206 15.9585 33.9172 14.3319C34.1931 12.0493 36.308 10.4838 37.875 9.50501C37.902 9.48836 37.9377 9.49634 37.9546 9.5234C37.9716 9.55046 37.9633 9.5862 37.9363 9.6032C36.3893 10.5695 34.3021 12.1121 34.0321 14.3455C33.84 15.937 34.6219 17.4539 35.3783 18.9209C36.1758 20.468 37.0006 22.0675 36.6791 23.7554C36.6739 23.7832 36.6496 23.8026 36.6223 23.8026H36.6226Z" fill="#91B3FA"/>
<path d="M47.2357 17.9212C47.2357 17.9212 47.243 17.9417 47.2572 17.9816C47.2727 18.0201 47.2897 18.0836 47.3233 18.1543C47.3852 18.2956 47.5001 18.5027 47.6974 18.722C47.7937 18.834 47.9183 18.9416 48.0585 19.0505C48.2042 19.1526 48.3655 19.2594 48.5545 19.3423C48.9259 19.5169 49.3891 19.6327 49.8889 19.6296C50.3991 19.6296 50.9436 19.5158 51.4922 19.3073C52.0409 19.0995 52.593 18.8042 53.1437 18.4645C53.4241 18.2938 53.701 18.1176 53.9814 17.9365C54.2614 17.7522 54.5435 17.5638 54.8263 17.3702C55.3926 16.984 55.9658 16.585 56.5522 16.2009C57.1389 15.8179 57.7381 15.448 58.356 15.1292C58.9738 14.8121 59.6076 14.5404 60.2473 14.353C60.4055 14.3017 60.5682 14.2691 60.726 14.2267C60.8852 14.1841 61.041 14.1528 61.2034 14.1254C61.5225 14.0737 61.8427 14.0449 62.1566 14.065C62.4699 14.0831 62.7776 14.148 63.0542 14.2673C63.0888 14.2816 63.1234 14.2965 63.1567 14.3138L63.2065 14.3391L63.2314 14.3516L63.2439 14.3579L63.2501 14.361L63.2629 14.3686C63.3218 14.4054 63.3799 14.4422 63.4374 14.4783C63.4948 14.5126 63.554 14.5671 63.6108 14.6105C63.6703 14.6549 63.7198 14.7045 63.7679 14.7545C63.8701 14.8495 63.9497 14.9592 64.0317 15.0622C64.1034 15.1722 64.1767 15.2777 64.2314 15.3894C64.2937 15.4973 64.3377 15.6094 64.3858 15.7159C64.426 15.8252 64.4661 15.931 64.4969 16.0354C64.6229 16.4532 64.6807 16.8258 64.7195 17.1318C64.759 17.4379 64.7711 17.6794 64.7815 17.8435C64.7894 18.0076 64.7936 18.0954 64.7936 18.0954C64.7953 18.1273 64.7704 18.1543 64.7385 18.1561C64.7081 18.1575 64.6818 18.1349 64.6783 18.1047V18.1037C64.6783 18.1037 64.6686 18.0173 64.6503 17.8549C64.6295 17.6932 64.6018 17.4556 64.5506 17.1572C64.4987 16.8595 64.4242 16.4983 64.2854 16.1066C64.2134 15.9123 64.1297 15.7079 64.0141 15.5105C63.9608 15.4085 63.8908 15.3152 63.8233 15.217C63.7468 15.1268 63.6728 15.03 63.5796 14.9491C63.5357 14.9057 63.4907 14.8631 63.4415 14.8294C63.391 14.794 63.3515 14.7541 63.291 14.7201C63.2325 14.6858 63.1733 14.6507 63.1134 14.6157L63.0327 14.5782C63.0037 14.5636 62.9732 14.5518 62.9424 14.54C62.6984 14.4432 62.4252 14.3929 62.1411 14.3846C61.8565 14.3738 61.5599 14.4019 61.2598 14.4561C61.1123 14.4831 60.9566 14.5164 60.8063 14.5595C60.6551 14.6025 60.4993 14.6358 60.3477 14.6878C59.7336 14.8731 59.1209 15.1375 58.5197 15.4505C57.9174 15.7617 57.3238 16.1177 56.7408 16.4945C56.1576 16.8706 55.583 17.2647 55.0122 17.6481C54.727 17.8403 54.4417 18.028 54.1579 18.2119C53.8716 18.3941 53.5875 18.5742 53.305 18.7359C52.7366 19.0707 52.1631 19.3628 51.586 19.5679C51.0111 19.7736 50.4268 19.8833 49.8903 19.8722C49.3434 19.861 48.8591 19.7171 48.469 19.5189C48.2714 19.4235 48.1024 19.3045 47.9515 19.1904C47.8054 19.0693 47.677 18.9499 47.578 18.8268C47.3755 18.5835 47.2655 18.3591 47.2035 18.1984C47.171 18.1196 47.1585 18.06 47.1443 18.0194C47.1318 17.9788 47.1256 17.958 47.1256 17.958C47.1163 17.9274 47.1332 17.8948 47.1637 17.8854C47.1931 17.8764 47.2246 17.8924 47.235 17.9212H47.2357Z" fill="#91B3FA"/>
<path d="M45.9248 42.2891C49.0124 46.3516 52.0436 45.8208 55.9578 42.2891C52.7999 42.9476 49.0827 43.1568 45.9248 42.2891Z" fill="white"/>
<path d="M53.1113 27.2312C53.1113 27.5622 53.4339 27.7978 53.7472 27.6934C55.2661 27.1872 59.199 26.1654 62.171 27.9255C62.171 27.9255 60.5098 24.0961 53.4222 26.7771C53.2346 26.8482 53.1113 27.03 53.1113 27.2312Z" fill="url(#paint7_linear_3559_34184)"/>
<path d="M48.0108 27.2312C48.0108 27.5622 47.6882 27.7978 47.375 27.6934C45.8561 27.1872 41.9232 26.1654 38.9512 27.9255C38.9512 27.9255 40.6123 24.0961 47.7 26.7771C47.8876 26.8482 48.0108 27.03 48.0108 27.2312Z" fill="url(#paint8_linear_3559_34184)"/>
</g>
<defs>
<linearGradient id="paint0_linear_3559_34184" x1="110.506" y1="126.398" x2="25.1273" y2="20.613" gradientUnits="userSpaceOnUse">
<stop stop-color="#DAE3FE"/>
<stop offset="1" stop-color="#E9EFFD"/>
</linearGradient>
<linearGradient id="paint1_linear_3559_34184" x1="54.0611" y1="55.8113" x2="49.4396" y2="108.985" gradientUnits="userSpaceOnUse">
<stop stop-color="#4F52FF"/>
<stop offset="1" stop-color="#4042E2"/>
</linearGradient>
<linearGradient id="paint2_linear_3559_34184" x1="51.1904" y1="72.1341" x2="49.9707" y2="45.019" gradientUnits="userSpaceOnUse">
<stop stop-color="#FEBBBA"/>
<stop offset="1" stop-color="#FF928E"/>
</linearGradient>
<linearGradient id="paint3_linear_3559_34184" x1="49.7458" y1="50.0216" x2="50.0943" y2="0.483417" gradientUnits="userSpaceOnUse">
<stop stop-color="#FEBBBA"/>
<stop offset="1" stop-color="#FF928E"/>
</linearGradient>
<linearGradient id="paint4_linear_3559_34184" x1="64.5853" y1="50.126" x2="64.9338" y2="0.587794" gradientUnits="userSpaceOnUse">
<stop stop-color="#FEBBBA"/>
<stop offset="1" stop-color="#FF928E"/>
</linearGradient>
<linearGradient id="paint5_linear_3559_34184" x1="36.141" y1="49.9257" x2="36.4895" y2="0.387903" gradientUnits="userSpaceOnUse">
<stop stop-color="#FEBBBA"/>
<stop offset="1" stop-color="#FF928E"/>
</linearGradient>
<linearGradient id="paint6_linear_3559_34184" x1="65.9759" y1="40.7625" x2="41.7985" y2="4.27251" gradientUnits="userSpaceOnUse">
<stop stop-color="#09005D"/>
<stop offset="1" stop-color="#1A0F91"/>
</linearGradient>
<linearGradient id="paint7_linear_3559_34184" x1="57.5603" y1="28.3679" x2="57.8858" y2="25.1572" gradientUnits="userSpaceOnUse">
<stop stop-color="#09005D"/>
<stop offset="1" stop-color="#1A0F91"/>
</linearGradient>
<linearGradient id="paint8_linear_3559_34184" x1="43.5618" y1="28.3679" x2="43.2363" y2="25.1572" gradientUnits="userSpaceOnUse">
<stop stop-color="#09005D"/>
<stop offset="1" stop-color="#1A0F91"/>
</linearGradient>
<clipPath id="clip0_3559_34184">
<rect width="96" height="95.6418" fill="white" transform="translate(2.5 2.1792)"/>
</clipPath>
</defs>
</svg>
