<svg width="101" height="101" viewBox="0 0 101 101" fill="none" xmlns="http://www.w3.org/2000/svg">
<path d="M76.0222 33.6726L84.1559 31.779C84.1559 31.779 89.5942 31.2902 90.3295 36.1237C91.0649 40.9572 90.8518 69.5942 90.6217 75.5001C90.5458 77.4466 90.5551 79.2452 90.7209 80.8137C91.0659 84.0805 88.517 86.934 85.2325 86.9911L70.0902 87.2533L76.0225 33.6726H76.0222Z" fill="url(#paint0_linear_3787_267183)"/>
<path d="M71.6948 89.5806C71.6948 89.5806 73.3197 66.7973 84.8766 52.9091C85.0273 52.728 85.2881 52.7733 85.3678 52.9961C86.6271 56.5143 93.7052 79.1389 71.6945 89.5806H71.6948Z" fill="#BDD0FB"/>
<path d="M84.3777 59.5208C84.2802 60.8501 84.088 62.1616 83.8648 63.471C83.6343 64.7784 83.3635 66.0788 83.0446 67.3683C82.4085 69.9475 81.6129 72.4908 80.6342 74.9659C80.1409 76.2016 79.6176 77.4264 79.032 78.622C78.7482 79.2239 78.4314 79.8102 78.1278 80.4025C77.8051 80.9849 77.4903 81.5716 77.1411 82.1391C75.7885 84.4317 74.204 86.5924 72.3953 88.5369C72.3414 88.5947 72.2508 88.5982 72.1927 88.5442C72.138 88.4934 72.1321 88.4102 72.1763 88.352L72.1777 88.3503C73.7873 86.2641 75.2374 84.071 76.4949 81.769C76.8191 81.1991 77.1074 80.6096 77.4162 80.0317C77.7031 79.4419 78.0028 78.8591 78.2699 78.2602C78.4039 77.9612 78.5494 77.6673 78.6793 77.3662L79.0752 76.4658C79.205 76.1646 79.3269 75.8604 79.4529 75.5578C79.5807 75.2559 79.6998 74.9503 79.8174 74.6442C80.0619 74.0356 80.2888 73.4201 80.5183 72.8052C80.7369 72.1866 80.9556 71.5679 81.16 70.944C81.5816 69.7003 81.9562 68.441 82.3176 67.1776C82.6717 65.912 83.001 64.6381 83.2966 63.3561C83.5981 62.0759 83.8655 60.7832 84.0929 59.4901L84.0936 59.486C84.1071 59.408 84.1817 59.3558 84.2596 59.3697C84.3328 59.3826 84.3829 59.4491 84.3777 59.5215V59.5208Z" fill="url(#paint1_linear_3787_267183)"/>
<path d="M73.1272 87.0865C73.1272 87.0865 85.0409 67.0467 98.0027 66.733C98.2328 66.7274 98.4072 66.9388 98.3599 67.1637C97.808 69.7833 93.949 83.4956 73.1272 87.0865Z" fill="#91B3FA"/>
<path d="M95.2585 69.9123C94.473 70.7367 93.6643 71.5302 92.8443 72.3157C92.4304 72.7035 92.0161 73.091 91.5976 73.4743C91.1756 73.8531 90.7582 74.2379 90.332 74.6121C88.6312 76.1141 86.8772 77.5565 85.0772 78.9387C84.1842 79.6389 83.2588 80.2966 82.3459 80.9703L80.9491 81.9434C80.7158 82.1049 80.4843 82.2689 80.2486 82.4266L79.5355 82.8918C77.652 84.1594 75.6838 85.2958 73.7017 86.3995C73.6324 86.4381 73.5454 86.4131 73.5068 86.3441C73.4688 86.2759 73.4925 86.1902 73.5593 86.1509L73.5632 86.1488L75.0258 85.2909L75.7569 84.862C75.9985 84.7154 76.2356 84.5615 76.4752 84.4118L77.912 83.5122C78.3855 83.2041 78.8535 82.8865 79.3242 82.5742L80.0296 82.1042L80.7238 81.6182L82.1116 80.6444C83.0189 79.9703 83.938 79.3123 84.8255 78.6118C85.7248 77.927 86.6042 77.2167 87.4844 76.5075L88.7879 75.423L90.0754 74.3193C90.5044 73.951 90.9239 73.5725 91.3486 73.1993C91.7696 72.8219 92.1863 72.4403 92.6031 72.0584C93.4327 71.2917 94.2575 70.515 95.0496 69.7138L95.0517 69.7118C95.1074 69.6554 95.1979 69.655 95.2543 69.7107C95.31 69.7657 95.3111 69.8548 95.2575 69.9113L95.2585 69.9123Z" fill="#BDD0FB"/>
<path d="M59.4866 34.0657C59.4866 34.0657 74.2967 34.8794 84.1556 31.779C84.1556 31.779 77.6014 31.3299 77.6014 46.4617C77.6014 58.0307 79.3172 80.1129 77.819 84.3048C76.3209 88.4966 70.7193 94.1313 62.6893 89.2887C54.6593 84.4461 59.4862 34.0657 59.4862 34.0657H59.4866Z" fill="#7D97F4"/>
<path d="M55.5492 11.3796C55.5492 11.3796 71.8898 13.1608 73.9948 10.3912C73.9948 10.3912 72.3201 5.40654 67.3473 5.73799C62.3745 6.06944 55.5488 11.3796 55.5488 11.3796H55.5492Z" fill="url(#paint2_linear_3787_267183)"/>
<path d="M2.40364 16.9878C3.82867 33.0015 6.82147 66.8731 8.12359 83.3728C8.41396 87.0511 11.3622 89.9566 15.0443 90.1929C28.161 91.0348 57.6799 92.6684 69.008 91.1487C66.4132 89.8695 64.7789 87.2179 64.8026 84.325L65.4042 10.2864C65.4254 7.67029 68.0311 5.79022 70.4811 6.70832C72.0245 7.28662 73.1933 8.51876 73.9947 10.3915C72.9252 7.27478 71.2432 4.99467 67.3473 5.73834C67.3473 5.73834 29.2455 6.11923 10.756 7.26573C5.73242 7.57698 1.9573 11.9739 2.40364 16.9878Z" fill="#91B3FA"/>
<path opacity="0.53" d="M11.8292 9.38464L63.0267 7.4137C60.9151 23.0465 61.8064 54.882 62.612 86.2563C62.6597 88.1162 63.7505 89.7901 65.4329 90.5853C65.4329 90.5853 31.2845 90.9788 16.6115 89.9381C13.1567 89.693 10.3384 87.079 9.82517 83.6538C7.81106 70.2116 2.9918 35.486 3.99486 17.1013C4.22464 12.8913 7.61608 9.54688 11.8292 9.38464Z" fill="url(#paint3_linear_3787_267183)"/>
<path d="M11.1516 33.633L11.749 39.3675C11.8587 40.4186 12.7242 41.2295 13.7802 41.2699L17.1191 41.398C18.3234 41.4443 19.3247 40.4806 19.3247 39.2753V33.0888C19.3247 31.8469 18.2642 30.87 17.0265 30.9716L13.0901 31.2951C11.9029 31.3926 11.028 32.4475 11.1512 33.6323L11.1516 33.633Z" fill="url(#paint4_linear_3787_267183)"/>
<path d="M22.8926 31.8653C28.4496 31.6926 49.7822 30.9991 55.1689 30.8236C55.8486 30.8017 56.4101 31.3462 56.4101 32.0262C56.4101 32.6734 55.8983 33.2044 55.2515 33.2284L22.996 34.4261C22.3746 34.449 21.838 33.995 21.7583 33.3784L21.7381 33.2225C21.6466 32.5174 22.182 31.8873 22.8926 31.8653Z" fill="url(#paint5_linear_3787_267183)"/>
<path d="M22.5435 39.4253C22.6378 39.5834 22.8098 39.6787 22.994 39.6749L45.1423 39.1938C45.4205 39.1878 45.643 38.9605 45.643 38.682V37.2218C45.643 36.9318 45.402 36.6995 45.112 36.7103L23.5813 37.5153C22.6225 37.5511 22.0519 38.6008 22.5435 39.4249V39.4253Z" fill="url(#paint6_linear_3787_267183)"/>
<path d="M11.1516 49.549L11.749 55.2836C11.8587 56.3347 12.7242 57.1455 13.7802 57.1859L17.1191 57.314C18.3234 57.3604 19.3247 56.3966 19.3247 55.1913V49.0048C19.3247 47.7629 18.2642 46.786 17.0265 46.8876L13.0901 47.2111C11.9029 47.3086 11.028 48.3635 11.1512 49.5483L11.1516 49.549Z" fill="url(#paint7_linear_3787_267183)"/>
<path d="M22.8926 47.7814C28.4496 47.6087 49.7822 46.9151 55.1689 46.7397C55.8486 46.7174 56.4101 47.2623 56.4101 47.9422C56.4101 48.5895 55.8983 49.1204 55.2515 49.1444L22.996 50.3418C22.3746 50.3647 21.838 49.9107 21.7583 49.2941L21.7381 49.1382C21.6466 48.4331 22.182 47.803 22.8926 47.781V47.7814Z" fill="url(#paint8_linear_3787_267183)"/>
<path opacity="0.78" d="M22.5435 55.3417C22.6378 55.4998 22.8098 55.5951 22.994 55.5913L45.1423 55.1102C45.4205 55.1042 45.643 54.8769 45.643 54.5987V53.1385C45.643 52.8485 45.402 52.6163 45.112 52.6271L23.5813 53.432C22.6225 53.4679 22.0519 54.5176 22.5435 55.3417Z" fill="white"/>
<path d="M11.1516 65.4653L11.749 71.1998C11.8587 72.2509 12.7242 73.0618 13.7802 73.1022L17.1191 73.2303C18.3234 73.2766 19.3247 72.3129 19.3247 71.1076V64.9211C19.3247 63.6792 18.2642 62.7022 17.0265 62.8039L13.0901 63.1273C11.9029 63.2248 11.028 64.2798 11.1512 65.4646L11.1516 65.4653Z" fill="url(#paint9_linear_3787_267183)"/>
<path d="M22.8926 63.6976C28.4496 63.5249 49.7822 62.8314 55.1689 62.6559C55.8486 62.634 56.4101 63.1785 56.4101 63.8585C56.4101 64.5057 55.8983 65.0366 55.2515 65.0607L22.996 66.258C22.3746 66.281 21.838 65.827 21.7583 65.2104L21.7381 65.0544C21.6466 64.3494 22.182 63.7192 22.8926 63.6973V63.6976Z" fill="url(#paint10_linear_3787_267183)"/>
<path d="M22.5435 71.2577C22.6378 71.4158 22.8098 71.5112 22.994 71.5073L45.1423 71.0262C45.4205 71.0203 45.643 70.7929 45.643 70.5147V69.0545C45.643 68.7645 45.402 68.5323 45.112 68.5431L23.5813 69.348C22.6225 69.3839 22.0519 70.4336 22.5435 71.2577Z" fill="url(#paint11_linear_3787_267183)"/>
<g style="mix-blend-mode:soft-light">
<path d="M75.6778 67.144C75.5424 67.144 75.4313 67.0353 75.4289 66.8995C75.4289 66.8919 75.4135 66.1068 75.338 63.4155C75.3342 63.278 75.4424 63.1631 75.58 63.1592C75.7144 63.1523 75.8324 63.2637 75.8362 63.4012C75.9118 66.0956 75.9271 66.8821 75.9274 66.8898C75.9299 67.0273 75.8205 67.1412 75.683 67.1436H75.6781L75.6778 67.144Z" fill="white"/>
</g>
<g style="mix-blend-mode:soft-light">
<path d="M75.4967 60.5753C75.3623 60.5753 75.252 60.4688 75.2478 60.3337C75.1942 58.5821 75.1106 56.6456 75.0222 54.5953C74.9028 51.8253 74.7792 48.9606 74.7141 46.2014C74.5421 38.9189 75.7432 36.1236 76.7815 35.0606C77.3455 34.483 77.8183 34.4663 77.8705 34.4663C78.008 34.4663 78.1198 34.5781 78.1198 34.7156C78.1198 34.8531 78.0108 34.9621 77.8757 34.9649C77.819 34.9691 74.9553 35.2834 75.213 46.19C75.2781 48.9446 75.4013 51.8065 75.5208 54.574C75.6092 56.6258 75.6928 58.564 75.7464 60.3187C75.7505 60.4562 75.6426 60.5711 75.5047 60.5753C75.5023 60.5753 75.4995 60.5753 75.4971 60.5753H75.4967Z" fill="white"/>
</g>
<path d="M39.377 87.4339C39.1243 87.4339 38.8715 87.3144 38.6041 87.069C37.6226 86.1672 37.3692 84.7812 37.3002 83.4631C36.8473 83.97 36.3839 84.4637 35.9257 84.9518L35.6722 84.714C36.2102 84.1406 36.7557 83.5595 37.2818 82.9593C37.2383 81.1537 37.3215 79.329 37.5293 77.5342C37.6568 76.4337 37.8406 75.2694 38.3176 74.2072C38.4697 73.8684 38.7218 73.3831 39.1559 73.0795C39.6089 72.7627 40.2025 72.7282 40.6001 72.9952C41.0468 73.2954 41.1673 73.8643 41.2188 74.266C41.5224 76.6273 40.6012 78.7918 39.775 80.1914C39.1615 81.2307 38.4189 82.1815 37.6324 83.0857C37.6731 84.4351 37.8601 85.9134 38.8391 86.8127C39.0452 87.0021 39.2249 87.092 39.393 87.0857C39.6691 87.0756 39.8923 86.8079 40.0744 86.5474C40.902 85.3619 41.5457 84.0765 41.9959 82.7135C42.0485 82.3034 42.163 81.9009 42.3374 81.5256L42.664 81.6398C42.5693 82.029 42.46 82.4127 42.3364 82.7904C42.2904 83.1765 42.3044 83.5696 42.381 83.9515C42.4217 84.1545 42.593 84.8244 43.0874 84.9184C43.4564 84.988 43.8408 84.7091 44.2656 84.0637L46.0064 81.4173L45.7863 82.3646C45.7087 82.6992 45.5785 83.4979 46.0454 83.6897C46.311 83.799 46.592 83.641 46.9172 83.4575C47.2406 83.2754 47.5745 83.0867 47.9543 83.1375L48.1336 83.1616L48.103 83.3395C48.0852 83.4415 47.9446 84.3373 48.4094 84.44C48.6221 84.4874 48.8 84.3397 49.0681 84.0919C49.2787 83.8969 49.4967 83.6956 49.7836 83.626L49.8654 83.9641C49.6666 84.0121 49.4908 84.1747 49.3045 84.3471C49.0399 84.5918 48.7408 84.8689 48.3345 84.7795C47.8053 84.6625 47.6755 84.0664 47.7326 83.4847C47.524 83.5149 47.3109 83.6351 47.0881 83.7607C46.7351 83.9595 46.3347 84.1848 45.9134 84.0114C45.5656 83.8683 45.3772 83.523 45.363 83.0286L44.5563 84.2548C44.2308 84.7499 43.7183 85.3933 43.0223 85.2603C42.5446 85.1694 42.1773 84.7057 42.0398 84.0201C42.0206 83.9247 42.005 83.8283 41.9931 83.7319C41.5663 84.792 41.02 85.8006 40.3592 86.7469C40.1416 87.0585 39.8366 87.4182 39.4056 87.4339C39.3958 87.4339 39.3861 87.4346 39.3763 87.4346L39.377 87.4339ZM39.9825 73.1613C39.7541 73.1613 39.5233 73.247 39.3558 73.3643C38.9923 73.6185 38.7705 74.0484 38.6351 74.3496C38.1776 75.3687 37.9994 76.5019 37.8751 77.5743C37.6836 79.2249 37.599 80.9017 37.6223 82.5648C38.3033 81.7616 38.9415 80.9205 39.4763 80.0145C40.2749 78.6616 41.1659 76.5737 40.8748 74.3103C40.8062 73.7786 40.6576 73.4524 40.4069 73.2839C40.2781 73.1972 40.1308 73.1613 39.9828 73.1613H39.9825Z" fill="url(#paint12_linear_3787_267183)"/>
<path opacity="0.78" d="M54.6363 24.6999L13.8506 25.9101C12.3855 25.9536 11.1551 24.8165 11.0834 23.3525L10.9337 20.3015C10.8599 18.7937 12.0409 17.5197 13.5501 17.48L54.5385 16.3962C56.0711 16.3558 57.3276 17.6019 57.2998 19.1345L57.2469 22.0591C57.2207 23.4949 56.0718 24.6574 54.6363 24.6999Z" fill="white"/>
<path d="M41.7891 56.8338C41.7891 56.8338 40.4288 55.9415 40.2404 56.1473C40.1732 56.2204 40.0169 56.4693 39.871 56.7409C39.768 56.9324 39.8 57.1684 39.9511 57.3247L40.3017 57.6872C40.636 58.0326 41.2014 58.0078 41.4963 57.6283C41.6449 57.4368 41.7636 57.1789 41.7891 56.8338Z" fill="url(#paint13_linear_3787_267183)"/>
<path d="M43.1763 55.1385C43.1763 55.1385 42.7094 53.9095 42.1642 54.0223C41.619 54.1348 41.0222 54.5536 41.0222 54.5536L40.1462 55.7384C40.1462 55.7384 42.6053 56.707 43.4701 56.152C43.4701 56.152 45.9818 56.5862 49.1539 56.0657C48.6947 55.0964 48.421 54.1257 48.2605 53.3723C46.6541 54.2817 44.9237 54.961 43.1763 55.1385Z" fill="url(#paint14_linear_3787_267183)"/>
<path d="M56.4813 46.2249C56.4813 46.2249 52.8851 50.7544 48.2601 53.3723C48.421 54.1257 48.6946 55.096 49.1535 56.0656C51.5527 55.6719 54.3293 54.7325 56.6832 52.645L56.4809 46.2252L56.4813 46.2249Z" fill="url(#paint15_linear_3787_267183)"/>
<path d="M60.9663 66.3009C60.263 62.9603 59.5597 61.0262 57.2047 54.6942C56.4635 52.7017 55.7908 50.6855 56.116 48.5843L56.4812 46.2248C56.4812 46.2248 61.0578 44.6762 66.1305 46.1597C66.1305 46.1597 73.0517 49.1664 68.3508 64.0152C66.2319 66.3858 63.7519 67.0616 60.9663 66.3009Z" fill="url(#paint16_linear_3787_267183)"/>
<path d="M57.2604 43.2133L58.4469 46.064C58.5217 46.244 58.684 46.3725 58.8762 46.4052C59.5603 46.5225 61.2151 46.7057 62.3017 45.9912C62.4313 45.906 62.4643 45.7301 62.3756 45.603L60.1832 42.4553L57.26 43.2129L57.2604 43.2133Z" fill="url(#paint17_linear_3787_267183)"/>
<path d="M58.4878 38.8515C58.438 38.8985 56.3845 42.9309 56.3845 42.9309L58.712 44.0544L61.2261 40.5216C61.2261 40.5216 59.322 38.0661 58.4878 38.8515Z" fill="url(#paint18_linear_3787_267183)"/>
<path d="M60.1683 40.9457L59.0075 42.8808C58.9898 42.91 58.9689 42.9368 58.9438 42.9601C58.8056 43.0886 58.3328 43.4629 57.9672 42.9535C57.6556 42.5194 57.3635 42.1249 57.0502 41.962C56.8674 41.8669 56.6421 41.9428 56.5492 42.127C56.358 42.5061 55.9876 43.2787 55.7547 44.0116C55.6962 44.1951 55.7912 44.3925 55.9698 44.4649C56.4412 44.6557 57.3726 45.0011 58.1991 45.1153C58.3349 45.1341 58.4693 45.0766 58.55 44.9659C58.9055 44.4788 59.9079 43.1172 60.2501 42.7767C60.568 42.4602 61.1543 42.5796 61.4189 42.6555C61.5192 42.6844 61.6261 42.6705 61.7155 42.6165C61.9836 42.455 62.4515 42.0528 62.0237 41.3718C61.9171 41.2026 61.9714 40.977 62.1385 40.867C62.438 40.6699 62.7628 40.3005 62.4533 39.7017C62.1399 39.0955 61.5804 39.0412 61.1992 39.0879C61.0307 39.1084 60.8594 39.02 60.7946 38.863C60.7657 38.793 60.709 38.7335 60.6032 38.7122C60.4033 38.6718 60.2724 38.4891 60.3114 38.2889C60.3786 37.9459 60.3281 37.5003 59.7805 37.1995C58.7764 36.6473 57.8965 37.5469 57.673 38.3063C57.4492 39.0656 58.5723 39.6025 59.2784 39.692C59.7972 39.7578 60.0816 40.3239 60.1962 40.6198C60.2376 40.727 60.2275 40.8471 60.1683 40.946V40.9457Z" fill="url(#paint19_linear_3787_267183)"/>
<path d="M59.7613 43.3553C59.7613 43.3553 60.2609 42.18 60.8323 42.228C61.404 42.276 61.8538 42.8453 61.1453 43.4856C60.2641 44.2818 59.761 43.3553 59.761 43.3553H59.7613Z" fill="url(#paint20_linear_3787_267183)"/>
<path d="M60.5154 95.7417C61.6209 95.8371 63.5392 95.9924 65.0513 96.0589C65.9604 96.0989 66.4836 96.0098 66.7851 95.8893C66.7848 95.9234 66.7838 95.9555 66.7824 95.9851C66.775 96.1442 66.6459 96.2716 66.485 96.2807C63.6273 96.4401 61.3549 96.336 60.5457 96.2866C60.3783 96.2765 60.2787 96.0947 60.3643 95.952C60.4072 95.8806 60.459 95.8106 60.5154 95.7417Z" fill="url(#paint21_linear_3787_267183)"/>
<path d="M65.0512 96.0594C63.5388 95.9929 61.6204 95.8376 60.5154 95.7422C61.602 94.4091 65.0512 93.5105 65.0512 93.5105H66.0254C66.6953 94.4763 66.7924 95.3958 66.7851 95.8898C66.4836 96.0106 65.9603 96.0994 65.0512 96.0594Z" fill="url(#paint22_linear_3787_267183)"/>
<path d="M66.1897 91.9197L66.0985 93.7235C66.0887 93.9188 65.9425 94.0832 65.7469 94.111C65.5522 94.1389 65.2915 94.1423 65.015 94.0504C64.8451 93.9937 64.7187 93.8506 64.6874 93.6758L64.3723 91.9197H66.1897Z" fill="url(#paint23_linear_3787_267183)"/>
<path d="M78.8425 96.0457C79.3219 95.9789 79.5388 95.73 79.6297 95.4636C79.6304 95.4661 79.6311 95.4685 79.6314 95.4709C79.7018 95.7519 79.5385 96.0426 79.2116 96.1812C78.8164 96.3483 78.3847 96.3768 78.049 96.3633C77.6894 96.3483 77.359 96.1996 77.1776 95.9611L77.1748 95.9577C77.5358 96.1363 78.0428 96.1575 78.8422 96.0457H78.8425Z" fill="url(#paint24_linear_3787_267183)"/>
<path d="M76.5825 91.9081H77.3857C78.6095 91.8831 79.3779 94.4643 79.6293 95.4636C79.5384 95.7299 79.3215 95.9788 78.8421 96.0457C78.0427 96.1571 77.5358 96.1362 77.1747 95.9576C76.5136 95.0876 76.186 93.8136 76.0282 93.07C75.8489 92.2243 76.5822 91.9085 76.5822 91.9085L76.5825 91.9081Z" fill="url(#paint25_linear_3787_267183)"/>
<path d="M77.2827 90.2335L77.7287 92.0077C77.7834 92.2253 77.6793 92.4502 77.478 92.5536C77.2284 92.6818 76.8771 92.8162 76.5544 92.7772C76.4026 92.7587 76.2762 92.6518 76.2261 92.5087L75.5712 90.6419L77.2827 90.2332V90.2335Z" fill="url(#paint26_linear_3787_267183)"/>
<path d="M77.8155 90.7467C77.2606 91.239 75.4553 91.3041 75.4553 91.3041C68.9524 75.6964 66.2412 71.3997 66.2412 71.3997C67.1802 77.291 66.4435 92.4123 66.4435 92.4123C65.3705 92.8858 63.9869 92.4123 63.9869 92.4123C63.8999 82.7679 62.542 72.4045 60.7908 65.7734C65.186 65.6745 67.5747 64.7164 68.3379 64.113C72.0016 70.0196 77.8159 90.7471 77.8159 90.7471L77.8155 90.7467Z" fill="url(#paint27_linear_3787_267183)"/>
<path d="M59.6832 70.135L60.492 75.1652C60.633 76.0423 61.4456 76.6509 62.3313 76.5426L74.4359 75.066C75.0281 74.9939 75.4772 74.4992 75.4891 73.9056C75.5148 72.6059 75.464 70.2927 74.9184 68.1853L59.6832 70.1347V70.135Z" fill="url(#paint28_linear_3787_267183)"/>
<path d="M62.7396 76.2056C62.7198 76.2056 62.7027 76.1907 62.7003 76.1708C62.6975 76.1489 62.7132 76.129 62.7351 76.1266L63.0512 76.088C63.0742 76.0855 63.093 76.1008 63.0955 76.1228C63.0982 76.1447 63.0826 76.1646 63.061 76.167L62.7449 76.2056C62.7449 76.2056 62.7417 76.2056 62.74 76.2056H62.7396ZM62.0019 76.1917C61.9987 76.1917 61.9956 76.1914 61.9921 76.1903C61.887 76.1642 61.7836 76.1273 61.6854 76.0806C61.6656 76.0712 61.6572 76.0472 61.6666 76.0277C61.6763 76.0079 61.7004 75.9995 61.7195 76.0089C61.8128 76.0535 61.911 76.0883 62.0113 76.1134C62.0325 76.1186 62.0457 76.1402 62.0402 76.1618C62.0356 76.1799 62.0196 76.1921 62.0015 76.1921L62.0019 76.1917ZM63.7935 76.0768C63.7737 76.0768 63.7566 76.0618 63.7542 76.0416C63.7514 76.0201 63.7671 75.9999 63.7886 75.9974L64.1048 75.9588C64.126 75.9557 64.1462 75.9717 64.149 75.9936C64.1518 76.0152 64.1361 76.0354 64.1142 76.0378L63.798 76.0765C63.798 76.0765 63.7949 76.0765 63.7932 76.0765L63.7935 76.0768ZM64.8474 75.9483C64.8276 75.9483 64.8105 75.9334 64.8081 75.9135C64.8053 75.8916 64.8209 75.8717 64.8425 75.8693L65.1587 75.8307C65.1816 75.8272 65.2004 75.8435 65.2029 75.8655C65.2057 75.8874 65.19 75.9073 65.1684 75.9097L64.8523 75.9483C64.8523 75.9483 64.8491 75.9483 64.8474 75.9483ZM65.9016 75.8199C65.8818 75.8199 65.8647 75.8049 65.8623 75.7851C65.8595 75.7631 65.8752 75.7433 65.8968 75.7408L66.2129 75.7022C66.2359 75.6998 66.2547 75.7151 66.2571 75.7367C66.2599 75.7586 66.2442 75.7784 66.2226 75.7809L65.9065 75.8195C65.9065 75.8195 65.9034 75.8195 65.9016 75.8195V75.8199ZM66.9555 75.6914C66.9357 75.6914 66.9186 75.6764 66.9162 75.6566C66.9134 75.6346 66.9291 75.6148 66.951 75.6124L67.2671 75.5737C67.2901 75.5706 67.3089 75.5866 67.3113 75.6085C67.3141 75.6305 67.2985 75.6503 67.2769 75.6528L66.9607 75.6914C66.9607 75.6914 66.9576 75.6914 66.9559 75.6914H66.9555ZM61.1294 75.6225C61.1175 75.6225 61.1057 75.6172 61.098 75.6068C61.0315 75.5208 60.9738 75.4275 60.9261 75.3297C60.9163 75.3098 60.9247 75.2861 60.9445 75.2764C60.9644 75.267 60.988 75.275 60.9978 75.2948C61.043 75.3878 61.0981 75.4766 61.1611 75.5581C61.1746 75.5755 61.1715 75.6005 61.1541 75.6138C61.1468 75.6193 61.1381 75.6221 61.1297 75.6221L61.1294 75.6225ZM68.0094 75.5626C67.9896 75.5626 67.9725 75.5476 67.9701 75.5278C67.9673 75.5058 67.9829 75.486 68.0045 75.4835L68.3207 75.4449C68.3436 75.4414 68.3624 75.4578 68.3649 75.4794C68.3677 75.5013 68.352 75.5211 68.3304 75.5236L68.0143 75.5622C68.0143 75.5622 68.0111 75.5622 68.0094 75.5622V75.5626ZM69.0633 75.4341C69.0434 75.4341 69.0264 75.4191 69.0239 75.3993C69.0212 75.3774 69.0368 75.3575 69.0584 75.3551L69.3745 75.3164C69.3958 75.314 69.416 75.3293 69.4188 75.3509C69.4215 75.3728 69.4059 75.3927 69.3839 75.3951L69.0678 75.4338C69.0678 75.4338 69.0647 75.4338 69.0629 75.4338L69.0633 75.4341ZM70.1172 75.3056C70.0973 75.3056 70.0803 75.2907 70.0778 75.2708C70.075 75.2489 70.0907 75.229 70.1127 75.2266L70.4288 75.188C70.4518 75.1852 70.4706 75.2008 70.473 75.2224C70.4758 75.2444 70.4601 75.2642 70.4385 75.2666L70.1224 75.3053C70.1224 75.3053 70.1193 75.3053 70.1175 75.3053L70.1172 75.3056ZM71.1714 75.1768C71.1516 75.1768 71.1345 75.1618 71.1321 75.142C71.1293 75.1201 71.145 75.1002 71.1665 75.0978L71.4827 75.0591C71.5056 75.0557 71.5244 75.072 71.5269 75.094C71.5297 75.1159 71.514 75.1357 71.4924 75.1382L71.1763 75.1768C71.1763 75.1768 71.1731 75.1768 71.1714 75.1768ZM72.2253 75.0483C72.2054 75.0483 72.1884 75.0334 72.186 75.0135C72.1832 74.9916 72.1988 74.9717 72.2208 74.9693L72.5369 74.9307C72.5599 74.9282 72.5787 74.9435 72.5811 74.9655C72.5839 74.9874 72.5682 75.0073 72.5466 75.0097L72.2305 75.0483C72.2305 75.0483 72.2274 75.0483 72.2256 75.0483H72.2253ZM73.2792 74.9199C73.2593 74.9199 73.2423 74.9049 73.2398 74.8851C73.2371 74.8631 73.2527 74.8433 73.2747 74.8408L73.5908 74.8022C73.6138 74.7994 73.6326 74.8151 73.635 74.8367C73.6378 74.8586 73.6221 74.8784 73.6005 74.8809L73.2844 74.9195C73.2844 74.9195 73.2813 74.9195 73.2795 74.9195L73.2792 74.9199ZM74.3285 74.7667C74.3122 74.7667 74.2965 74.7562 74.2909 74.7399C74.284 74.719 74.2948 74.6964 74.3157 74.6894C74.4124 74.656 74.5044 74.6093 74.5886 74.5505C74.6064 74.5379 74.6314 74.5421 74.644 74.5602C74.6565 74.5783 74.6523 74.603 74.6342 74.6156C74.5437 74.6786 74.4452 74.7287 74.3414 74.7646C74.3372 74.766 74.3327 74.7667 74.3285 74.7667ZM60.7788 74.6354C60.7596 74.6354 60.7426 74.6215 60.7394 74.602L60.689 74.2876C60.6855 74.266 60.7001 74.2455 60.722 74.242C60.744 74.2385 60.7642 74.2531 60.7676 74.2751L60.8181 74.5895C60.8216 74.6111 60.807 74.6316 60.7851 74.6351C60.783 74.6351 60.7809 74.6358 60.7788 74.6358V74.6354ZM75.0437 74.0345C75.0398 74.0345 75.0357 74.0338 75.0318 74.0324C75.0109 74.0258 74.9991 74.0035 75.0061 73.9826C75.0367 73.8851 75.0538 73.7835 75.0562 73.6804C75.0569 73.6588 75.0746 73.6414 75.0959 73.6414H75.0969C75.1189 73.6421 75.1363 73.6602 75.1359 73.6822C75.1331 73.7925 75.115 73.9018 75.082 74.0063C75.0767 74.0234 75.0611 74.0342 75.044 74.0342L75.0437 74.0345ZM60.6103 73.5871C60.5911 73.5871 60.5741 73.5732 60.5709 73.5537L60.5204 73.2393C60.517 73.2177 60.5316 73.1972 60.5535 73.1937C60.5762 73.1899 60.5957 73.2052 60.5991 73.2268L60.6496 73.5411C60.6531 73.5627 60.6385 73.5833 60.6165 73.5868C60.6145 73.5868 60.6124 73.5875 60.6103 73.5875V73.5871ZM75.1001 72.9782C75.0781 72.9782 75.0604 72.9604 75.0604 72.9388C75.0593 72.8361 75.0579 72.7299 75.0555 72.6206C75.0552 72.5987 75.0726 72.5806 75.0945 72.5799C75.1182 72.576 75.1345 72.5969 75.1352 72.6189C75.1373 72.7285 75.1391 72.8351 75.1401 72.9381C75.1401 72.9601 75.1227 72.9782 75.1008 72.9782H75.1001ZM60.4418 72.5388C60.4226 72.5388 60.4056 72.5249 60.4024 72.5054L60.3519 72.191C60.3485 72.1694 60.3631 72.1489 60.385 72.1454C60.4069 72.1422 60.4271 72.1565 60.4306 72.1784L60.4811 72.4928C60.4846 72.5144 60.47 72.535 60.448 72.5384C60.4459 72.5384 60.4439 72.5391 60.4418 72.5391V72.5388ZM75.0691 71.9166C75.0482 71.9166 75.0304 71.9003 75.0294 71.8787C75.0242 71.7746 75.0179 71.6687 75.0113 71.5612C75.0099 71.5392 75.0266 71.5201 75.0485 71.5187C75.075 71.5204 75.0896 71.534 75.091 71.5559C75.098 71.6639 75.1039 71.7701 75.1091 71.8745C75.1102 71.8964 75.0934 71.9152 75.0715 71.9163C75.0708 71.9163 75.0701 71.9163 75.0694 71.9163L75.0691 71.9166ZM60.2733 71.4905C60.2541 71.4905 60.237 71.4766 60.2339 71.4571L60.1834 71.1427C60.1799 71.1211 60.1946 71.1005 60.2165 71.0971C60.2391 71.0936 60.2586 71.1085 60.2621 71.1301L60.3126 71.4445C60.3161 71.4661 60.3015 71.4866 60.2795 71.4901C60.2774 71.4901 60.2753 71.4908 60.2733 71.4908V71.4905ZM74.9914 70.8575C74.9712 70.8575 74.9538 70.8422 74.9517 70.8217C74.9417 70.7172 74.9305 70.6117 74.9187 70.5055C74.9162 70.4836 74.9319 70.4641 74.9538 70.4617C74.9754 70.4589 74.9953 70.4749 74.9977 70.4968C75.0099 70.6034 75.0207 70.7092 75.0311 70.8143C75.0332 70.8363 75.0172 70.8558 74.9953 70.8579C74.9939 70.8579 74.9928 70.8579 74.9914 70.8579V70.8575ZM60.1047 70.4422C60.0856 70.4422 60.0685 70.4282 60.0654 70.4087L60.0083 70.0536L60.3001 70.0164C60.3227 70.0129 60.3418 70.0292 60.3446 70.0508C60.3474 70.0728 60.3321 70.0926 60.3102 70.0954L60.1002 70.1222L60.1441 70.3962C60.1476 70.4178 60.1329 70.4383 60.111 70.4418C60.1089 70.4418 60.1068 70.4425 60.1047 70.4425V70.4422ZM61.0423 70.001C61.0225 70.001 61.0054 69.9864 61.003 69.9662C61.0002 69.9443 61.0155 69.9245 61.0375 69.9217L61.3536 69.8813C61.379 69.8781 61.3954 69.8942 61.3982 69.9157C61.4009 69.9377 61.3856 69.9575 61.3637 69.9603L61.0476 70.0007C61.0458 70.0007 61.0441 70.0007 61.0423 70.0007V70.001ZM62.0955 69.8663C62.0757 69.8663 62.0586 69.8517 62.0562 69.8315C62.0534 69.8096 62.0687 69.7897 62.0907 69.7869L62.4068 69.7465C62.4319 69.7434 62.4486 69.7591 62.4514 69.781C62.4541 69.8029 62.4388 69.8228 62.4169 69.8256L62.1008 69.866C62.099 69.866 62.0973 69.866 62.0955 69.866V69.8663ZM74.8616 69.8036C74.8421 69.8036 74.8254 69.7894 74.8222 69.7699C74.8066 69.6654 74.7895 69.5606 74.7718 69.4558C74.7683 69.4342 74.7829 69.4137 74.8045 69.4099C74.8271 69.4064 74.847 69.421 74.8504 69.4426C74.8682 69.5477 74.8853 69.6529 74.9009 69.758C74.9041 69.7796 74.8894 69.8002 74.8675 69.8033C74.8654 69.8033 74.8633 69.8036 74.8616 69.8036ZM63.1487 69.7316C63.1289 69.7316 63.1118 69.7169 63.1094 69.6968C63.1066 69.6748 63.1219 69.655 63.1438 69.6522L63.46 69.6118C63.485 69.609 63.5018 69.6247 63.5045 69.6463C63.5073 69.6682 63.492 69.688 63.4701 69.6908L63.1539 69.7312C63.1522 69.7312 63.1505 69.7312 63.1487 69.7312V69.7316ZM64.2019 69.5968C64.1821 69.5968 64.165 69.5822 64.1626 69.562C64.1598 69.5401 64.1751 69.5202 64.197 69.5174L64.5132 69.4771C64.5379 69.4746 64.5549 69.4899 64.5577 69.5115C64.5605 69.5335 64.5452 69.5533 64.5233 69.5561L64.2071 69.5965C64.2054 69.5965 64.2037 69.5965 64.2019 69.5965V69.5968ZM65.2551 69.4621C65.2353 69.4621 65.2182 69.4475 65.2158 69.4273C65.213 69.4053 65.2283 69.3855 65.2502 69.3827L65.5664 69.3423C65.5911 69.3402 65.6081 69.3552 65.6109 69.3768C65.6137 69.3987 65.5984 69.4186 65.5765 69.4214L65.2603 69.4617C65.2586 69.4617 65.2568 69.4617 65.2551 69.4617V69.4621ZM66.3083 69.3274C66.2884 69.3274 66.2714 69.3127 66.2689 69.2925C66.2662 69.2706 66.2815 69.2508 66.3034 69.248L66.6195 69.2076C66.6439 69.2041 66.6613 69.2205 66.6641 69.2421C66.6669 69.264 66.6516 69.2838 66.6296 69.2866L66.3135 69.327C66.3118 69.327 66.31 69.327 66.3083 69.327V69.3274ZM67.3615 69.1926C67.3416 69.1926 67.3246 69.178 67.3221 69.1578C67.3193 69.1359 67.3347 69.116 67.3566 69.1132L67.6727 69.0728C67.6954 69.0697 67.7145 69.0854 67.7173 69.1073C67.7201 69.1292 67.7048 69.1491 67.6828 69.1519L67.3667 69.1923C67.3667 69.1923 67.3632 69.1923 67.3615 69.1923V69.1926ZM68.4147 69.0579C68.3948 69.0579 68.3778 69.0433 68.3753 69.0231C68.3725 69.0011 68.3879 68.9813 68.4098 68.9785L68.7259 68.9381C68.7499 68.9353 68.7677 68.951 68.7705 68.9726C68.7733 68.9945 68.758 69.0144 68.736 69.0171L68.4199 69.0575C68.4181 69.0575 68.4164 69.0575 68.4147 69.0575V69.0579ZM69.4679 68.9231C69.448 68.9231 69.431 68.9085 69.4285 68.8883C69.4257 68.8664 69.441 68.8465 69.463 68.8438L69.7791 68.8034C69.8045 68.8009 69.8209 68.8163 69.8237 68.8378C69.8265 68.8598 69.8111 68.8796 69.7892 68.8824L69.4731 68.9228C69.4713 68.9228 69.4696 68.9228 69.4679 68.9228V68.9231ZM70.521 68.788C70.5012 68.788 70.4841 68.7734 70.4817 68.7532C70.4789 68.7313 70.4942 68.7115 70.5162 68.7087L70.8323 68.6683C70.8574 68.6658 70.8741 68.6812 70.8769 68.7028C70.8797 68.7247 70.8643 68.7445 70.8424 68.7473L70.5263 68.7877C70.5245 68.7877 70.5228 68.7877 70.521 68.7877V68.788ZM74.6694 68.7595C74.6509 68.7595 74.6346 68.747 74.6304 68.7282C74.6078 68.6248 74.5837 68.5214 74.559 68.4187C74.5538 68.3974 74.567 68.3758 74.5883 68.3706C74.6102 68.365 74.6314 68.3786 74.6363 68.3998C74.6614 68.5033 74.6854 68.607 74.7084 68.7111C74.7129 68.7323 74.6993 68.7539 74.6781 68.7585C74.6753 68.7592 74.6725 68.7595 74.6697 68.7595H74.6694ZM71.5742 68.6537C71.5544 68.6537 71.5373 68.639 71.5349 68.6188C71.5321 68.5969 71.5474 68.5771 71.5694 68.5743L71.8855 68.5339C71.9106 68.5304 71.9273 68.5468 71.9301 68.5684C71.9328 68.5903 71.9175 68.6101 71.8956 68.6129L71.5795 68.6533C71.5777 68.6533 71.576 68.6533 71.5742 68.6533V68.6537ZM72.6274 68.5186C72.6076 68.5186 72.5905 68.5039 72.5881 68.4838C72.5853 68.4618 72.6006 68.442 72.6225 68.4392L72.9387 68.3988C72.9634 68.3957 72.9805 68.4117 72.9832 68.4333C72.986 68.4552 72.9707 68.4751 72.9488 68.4778L72.6326 68.5182C72.6309 68.5182 72.6292 68.5182 72.6274 68.5182V68.5186ZM73.6806 68.3838C73.6608 68.3838 73.6437 68.3692 73.6413 68.349C73.6385 68.3271 73.6538 68.3072 73.6757 68.3045L73.9919 68.2641C74.0166 68.2609 74.0336 68.277 74.0364 68.2985C74.0392 68.3205 74.0239 68.3403 74.002 68.3431L73.6858 68.3835C73.6841 68.3835 73.6824 68.3835 73.6806 68.3835V68.3838Z" fill="white"/>
<path d="M62.7588 66.0149L62.7452 65.6208C62.7745 65.5226 62.8514 65.4456 62.95 65.4167C63.319 65.3085 64.2402 65.0835 64.7332 65.3621L64.8582 65.806L62.7585 66.0145L62.7588 66.0149Z" fill="url(#paint29_linear_3787_267183)"/>
<path d="M63.888 65.4895C63.8041 65.5219 63.717 65.5327 63.6272 65.5226C63.5186 65.5101 63.4322 65.4255 63.4183 65.3175L63.2623 64.0979L63.8831 64.0186L64.0391 65.2375C64.053 65.3461 63.9907 65.4505 63.888 65.4899V65.4895Z" fill="url(#paint30_linear_3787_267183)"/>
<path d="M68.7713 65.2453L68.7577 64.8512C68.7869 64.753 68.8639 64.6761 68.9624 64.6472C69.3315 64.5389 70.2527 64.314 70.7457 64.5925L70.8707 65.0364L68.7709 65.245L68.7713 65.2453Z" fill="url(#paint31_linear_3787_267183)"/>
<path d="M69.9003 64.7199C69.8164 64.7523 69.7294 64.7631 69.6395 64.753C69.5309 64.7405 69.4446 64.6559 69.4306 64.5479L69.2583 63.1995L69.8791 63.1201L70.0514 64.4675C70.0653 64.5761 70.003 64.6806 69.9003 64.7199Z" fill="url(#paint32_linear_3787_267183)"/>
<path d="M63.2373 64.4046L69.8847 63.3295C70.0362 63.3051 70.1514 63.1787 70.1584 63.0259C70.1681 62.8121 70.1604 62.4953 70.071 62.1771C69.969 61.8153 69.617 61.5817 69.2413 61.6207C67.9921 61.7506 64.8217 62.1569 63.1631 63.0718C62.9876 63.1686 62.8706 63.3441 62.8487 63.5425C62.8275 63.7316 62.8292 63.9805 62.9194 64.2225C62.9674 64.351 63.1015 64.4265 63.2376 64.4046H63.2373Z" fill="url(#paint33_linear_3787_267183)"/>
<path d="M63.0736 64.1491C63.0252 64.1491 62.9816 64.116 62.9702 64.0669C62.9677 64.0558 62.9082 63.7947 62.9444 63.5311C62.9743 63.3149 63.1178 63.1258 63.3194 63.0377C63.6808 62.8793 64.3746 62.6005 64.9616 62.5085C65.0201 62.5009 65.0737 62.5392 65.0831 62.597C65.0922 62.6548 65.0525 62.7091 64.9947 62.7185C64.4105 62.8101 63.6881 63.1084 63.4047 63.2324C63.2703 63.2912 63.1749 63.4169 63.155 63.5603C63.1244 63.7842 63.1766 64.0171 63.1773 64.0196C63.1905 64.0767 63.1547 64.1338 63.0976 64.1466C63.0896 64.1487 63.0816 64.1494 63.0736 64.1494V64.1491Z" fill="url(#paint34_linear_3787_267183)"/>
<path d="M59.6421 66.2592C61.7951 65.9556 71.1126 64.6636 73.8645 64.6441C74.1016 64.6423 74.3136 64.7885 74.3934 65.0107C74.6461 65.7143 75.1837 67.3548 75.3588 69.0267C75.3825 69.2544 75.2408 69.4668 75.0222 69.5382L68.9857 71.5001L66.7881 71.7814L60.0289 71.3145C59.7908 71.2981 59.5941 71.1233 59.5519 70.889C59.4019 70.0559 59.083 68.0964 59.1477 66.8006C59.1617 66.5252 59.3678 66.2978 59.6418 66.2592H59.6421Z" fill="url(#paint35_linear_3787_267183)"/>
<path d="M66.7773 71.2808L66.4518 71.2593C66.4298 71.2575 66.4131 71.2387 66.4149 71.2168C66.4166 71.1949 66.4371 71.1799 66.4573 71.1799L66.7752 71.2018L66.9455 71.1792C66.9709 71.1771 66.9872 71.1921 66.99 71.2137C66.9928 71.2356 66.9775 71.2554 66.9556 71.2582L66.7776 71.2808H66.7773ZM65.713 71.2081C65.713 71.2081 65.7112 71.2081 65.7102 71.2081L65.3923 71.1861C65.3704 71.1844 65.3537 71.1656 65.3554 71.1437C65.3571 71.1217 65.3773 71.1064 65.3979 71.1068L65.7158 71.1287C65.7377 71.1304 65.7544 71.1492 65.7527 71.1712C65.7513 71.1921 65.7339 71.2084 65.713 71.2084V71.2081ZM67.6877 71.1642C67.6679 71.1642 67.6508 71.1496 67.6484 71.1294C67.6456 71.1075 67.6609 71.0876 67.6829 71.0848L67.999 71.0444C68.0241 71.0413 68.0408 71.0573 68.0436 71.0789C68.0463 71.1008 68.031 71.1207 68.0091 71.1235L67.693 71.1639C67.6912 71.1639 67.6895 71.1639 67.6877 71.1639V71.1642ZM64.6539 71.135C64.6539 71.135 64.6521 71.135 64.6511 71.135L64.3332 71.113C64.3113 71.1113 64.2946 71.0925 64.2963 71.0706C64.298 71.0486 64.3179 71.033 64.3388 71.0337L64.6566 71.0556C64.6786 71.0573 64.6953 71.0761 64.6936 71.0981C64.6922 71.119 64.6747 71.1353 64.6539 71.1353V71.135ZM63.5948 71.0619C63.5948 71.0619 63.593 71.0619 63.592 71.0619L63.2741 71.0399C63.2522 71.0382 63.2355 71.0194 63.2372 70.9974C63.2389 70.9755 63.2581 70.9598 63.2797 70.9605L63.5975 70.9825C63.6195 70.9842 63.6362 71.003 63.6344 71.0249C63.633 71.0458 63.6156 71.0622 63.5948 71.0622V71.0619ZM68.7409 71.0295C68.7211 71.0295 68.704 71.0149 68.7016 70.9947C68.6988 70.9727 68.7141 70.9529 68.7361 70.9501L68.8628 70.9337L69.0372 70.8763C69.0581 70.87 69.0807 70.8812 69.0873 70.9017C69.0943 70.9226 69.0825 70.9452 69.0619 70.9518L68.8802 71.0107L68.7465 71.0284C68.7448 71.0284 68.743 71.0284 68.7413 71.0284L68.7409 71.0295ZM62.5353 70.9887C62.5353 70.9887 62.5336 70.9887 62.5325 70.9887L62.2146 70.9668C62.1927 70.9651 62.176 70.9463 62.1777 70.9243C62.1795 70.9024 62.1986 70.8892 62.2202 70.8874L62.5381 70.9094C62.56 70.9111 62.5767 70.9299 62.575 70.9518C62.5736 70.9727 62.5562 70.9891 62.5353 70.9891V70.9887ZM61.4762 70.9156C61.4762 70.9156 61.4744 70.9156 61.4734 70.9156L61.1555 70.8937C61.1336 70.8919 61.1169 70.8731 61.1186 70.8512C61.1204 70.8293 61.1392 70.8157 61.1611 70.8143L61.479 70.8362C61.5009 70.838 61.5176 70.8568 61.5159 70.8787C61.5145 70.8996 61.4971 70.916 61.4762 70.916V70.9156ZM60.4167 70.8425C60.4167 70.8425 60.415 70.8425 60.4139 70.8425L60.0961 70.8206C60.0741 70.8188 60.0574 70.8 60.0592 70.7781C60.0609 70.7562 60.0818 70.7426 60.1016 70.7412L60.4195 70.7631C60.4415 70.7649 60.4582 70.7837 60.4564 70.8056C60.455 70.8265 60.4376 70.8429 60.4167 70.8429V70.8425ZM69.7558 70.7245C69.7391 70.7245 69.7234 70.7137 69.7179 70.697C69.7109 70.6761 69.7227 70.6535 69.7433 70.6468L70.0462 70.5483C70.0671 70.542 70.0897 70.5532 70.0963 70.5737C70.1033 70.5946 70.0914 70.6173 70.0709 70.6239L69.768 70.7224C69.7638 70.7238 69.7597 70.7245 69.7558 70.7245ZM70.7655 70.3962C70.7488 70.3962 70.7331 70.3854 70.7275 70.3687C70.7206 70.3478 70.7324 70.3251 70.753 70.3185L71.0559 70.22C71.0764 70.2137 71.0994 70.2249 71.106 70.2454C71.113 70.2663 71.1011 70.2889 71.0806 70.2956L70.7777 70.3941C70.7735 70.3955 70.7693 70.3962 70.7655 70.3962ZM59.9579 70.1061C59.9384 70.1061 59.9216 70.0922 59.9185 70.0724C59.9025 69.9718 59.8865 69.8663 59.8701 69.7566C59.867 69.735 59.882 69.7145 59.9039 69.7113C59.9248 69.7079 59.946 69.7232 59.9492 69.7451C59.9652 69.8541 59.9815 69.9596 59.9972 70.0598C60.0007 70.0814 59.9857 70.102 59.9641 70.1055C59.962 70.1055 59.9599 70.1061 59.9579 70.1061ZM71.7755 70.0682C71.7588 70.0682 71.7431 70.0574 71.7376 70.0407C71.7306 70.0198 71.7424 69.9972 71.763 69.9906L72.0659 69.892C72.0871 69.8858 72.1094 69.8969 72.116 69.9174C72.123 69.9383 72.1111 69.961 72.0906 69.9676L71.7877 70.0661C71.7835 70.0675 71.7793 70.0682 71.7755 70.0682ZM72.7852 69.7399C72.7685 69.7399 72.7528 69.7291 72.7472 69.7124C72.7403 69.6915 72.7521 69.6689 72.7726 69.6622L73.0755 69.5637C73.0964 69.5574 73.1191 69.5686 73.1257 69.5891C73.1326 69.61 73.1208 69.6326 73.1003 69.6393L72.7974 69.7378C72.7932 69.7392 72.789 69.7399 72.7852 69.7399ZM73.7952 69.4116C73.7785 69.4116 73.7628 69.4008 73.7572 69.3841C73.7503 69.3632 73.7621 69.3405 73.7827 69.3339L74.0856 69.2354C74.1064 69.2291 74.1291 69.2403 74.1357 69.2608C74.1427 69.2817 74.1308 69.3043 74.1103 69.3109L73.8074 69.4095C73.8032 69.4109 73.799 69.4116 73.7952 69.4116ZM74.8049 69.0836C74.7882 69.0836 74.7725 69.0728 74.7669 69.0561C74.762 69.0411 74.7669 69.0258 74.777 69.0154C74.7669 68.9245 74.7558 68.834 74.7436 68.7434C74.7408 68.7215 74.7561 68.7017 74.7777 68.6985C74.8 68.6951 74.8195 68.7111 74.8226 68.7327C74.8362 68.8329 74.8484 68.9339 74.8595 69.0345L74.863 69.0669L74.8174 69.0815C74.8132 69.0829 74.8094 69.0836 74.8052 69.0836H74.8049ZM59.8099 69.054C59.79 69.054 59.773 69.039 59.7705 69.0192C59.7577 68.9144 59.7455 68.8086 59.734 68.702C59.7315 68.6801 59.7476 68.6606 59.7692 68.6581C59.7925 68.6568 59.8106 68.6717 59.813 68.6933C59.8245 68.7995 59.8367 68.905 59.8496 69.0094C59.8524 69.0314 59.8367 69.0512 59.8151 69.0537C59.8134 69.0537 59.812 69.0537 59.8102 69.0537L59.8099 69.054ZM74.6628 68.0443C74.644 68.0443 74.6273 68.0311 74.6238 68.012C74.6036 67.9072 74.5827 67.8031 74.5611 67.7004C74.5566 67.6788 74.5702 67.6575 74.5918 67.653C74.6144 67.6488 74.6346 67.6624 74.6391 67.6836C74.6611 67.787 74.682 67.8915 74.7022 67.9966C74.7063 68.0182 74.6921 68.0391 74.6705 68.0433C74.668 68.044 74.6652 68.044 74.6632 68.044L74.6628 68.0443ZM59.7065 67.997C59.6856 67.997 59.6682 67.981 59.6668 67.9597C59.6595 67.8521 59.6532 67.7456 59.6483 67.6405C59.6473 67.6185 59.6644 67.5997 59.6863 67.599C59.7103 67.5949 59.727 67.6151 59.7277 67.637C59.7326 67.7411 59.7389 67.8473 59.7462 67.9542C59.7476 67.9761 59.7312 67.9949 59.7093 67.9966C59.7082 67.9966 59.7075 67.9966 59.7065 67.9966V67.997ZM74.4306 67.0079C74.4128 67.0079 74.3965 66.996 74.3919 66.9779C74.3651 66.8728 74.3376 66.7701 74.3105 66.6705C74.3046 66.6493 74.3171 66.6273 74.3383 66.6217C74.3603 66.6155 74.3815 66.6287 74.3871 66.6496C74.4146 66.7499 74.4417 66.8529 74.4689 66.9581C74.4745 66.9793 74.4616 67.0012 74.4403 67.0065C74.4369 67.0072 74.4337 67.0079 74.4302 67.0079H74.4306ZM59.6814 66.9354C59.6814 66.9354 59.6804 66.9354 59.6797 66.9354C59.6577 66.9347 59.6407 66.9159 59.6414 66.894L59.6442 66.8261C59.6459 66.7885 59.6741 66.7575 59.7107 66.7523L59.907 66.7248C59.929 66.7199 59.9492 66.7366 59.9519 66.7586C59.9551 66.7805 59.9398 66.8004 59.9182 66.8035L59.7221 66.831L59.7208 66.8971C59.7201 66.9184 59.7023 66.9354 59.6811 66.9354H59.6814ZM60.6497 66.7011C60.6302 66.7011 60.6131 66.6865 60.6103 66.6667C60.6072 66.6451 60.6225 66.6249 60.6444 66.6217L60.9602 66.5782C60.9839 66.5744 61.002 66.5904 61.0051 66.6123C61.0083 66.6343 60.9929 66.6541 60.971 66.6573L60.6552 66.7008C60.6535 66.7008 60.6517 66.7011 60.6497 66.7011ZM61.7018 66.5566C61.682 66.5566 61.6652 66.542 61.6625 66.5222C61.6593 66.5002 61.6746 66.4804 61.6966 66.4773L62.0124 66.4341C62.035 66.4313 62.0541 66.4466 62.0573 66.4682C62.0601 66.4898 62.0451 66.51 62.0231 66.5131L61.7074 66.5559C61.7053 66.5559 61.7035 66.5563 61.7018 66.5563V66.5566ZM62.7546 66.4146C62.7348 66.4146 62.7177 66.4 62.7153 66.3801C62.7125 66.3582 62.7278 66.3383 62.7494 66.3352L63.0655 66.2931C63.0864 66.2903 63.1073 66.3056 63.1101 66.3276C63.1129 66.3491 63.0976 66.3693 63.0756 66.3721L62.7599 66.4142C62.7581 66.4142 62.7564 66.4142 62.7546 66.4142V66.4146ZM63.8075 66.2746C63.7876 66.2746 63.7706 66.26 63.7681 66.2398C63.7654 66.2179 63.7807 66.198 63.8026 66.1953L64.1187 66.1538C64.1407 66.1503 64.1605 66.1664 64.1633 66.1883C64.1661 66.2102 64.1508 66.2301 64.1288 66.2329L63.8127 66.2743C63.811 66.2743 63.8092 66.2743 63.8075 66.2743V66.2746ZM64.8607 66.1378C64.8408 66.1378 64.8238 66.1232 64.8213 66.103C64.8185 66.0811 64.8339 66.0612 64.8558 66.0584L65.1719 66.0177C65.1949 66.0146 65.2137 66.0306 65.2165 66.0522C65.2193 66.0737 65.204 66.0939 65.182 66.0967L64.8662 66.1375C64.8662 66.1375 64.8628 66.1375 64.861 66.1375L64.8607 66.1378ZM65.9212 66.0027L65.9111 65.9237L66.2251 65.8843C66.2477 65.8816 66.2669 65.8972 66.2697 65.9188C66.2725 65.9407 66.2568 65.9606 66.2352 65.9634L65.9212 66.0027ZM74.1402 65.986C74.1232 65.986 74.1075 65.9749 74.1023 65.9582C74.0685 65.8499 74.0358 65.7489 74.0051 65.6553C73.9982 65.6344 74.0097 65.6117 74.0306 65.6051C74.0514 65.5982 74.0741 65.6096 74.0807 65.6305C74.1117 65.7245 74.1444 65.8262 74.1785 65.9345C74.1851 65.9554 74.1733 65.978 74.1524 65.9843C74.1486 65.9857 74.1444 65.986 74.1406 65.986H74.1402ZM66.9681 65.8729C66.9482 65.8729 66.9312 65.8579 66.9287 65.838C66.926 65.8161 66.9416 65.7963 66.9632 65.7938L67.2797 65.7552C67.3009 65.7527 67.3211 65.7681 67.3239 65.79C67.3267 65.8116 67.311 65.8318 67.2891 65.8342L66.973 65.8729C66.973 65.8729 66.9698 65.8729 66.9681 65.8729ZM68.022 65.7461C68.0021 65.7461 67.9847 65.7312 67.9826 65.711C67.9802 65.689 67.9955 65.6692 68.0174 65.6667L68.3339 65.6298C68.3573 65.6271 68.3757 65.6431 68.3781 65.6647C68.3806 65.6866 68.3653 65.7064 68.3433 65.7089L68.0269 65.7458C68.0269 65.7458 68.0237 65.7458 68.0223 65.7458L68.022 65.7461ZM69.0769 65.6246C69.0567 65.6246 69.0397 65.6096 69.0372 65.5891C69.0348 65.5672 69.0504 65.5477 69.0724 65.5452L69.3889 65.5101C69.4108 65.5083 69.4306 65.5233 69.4327 65.5452C69.4352 65.5672 69.4195 65.5867 69.3976 65.5891L69.0811 65.6243C69.0811 65.6243 69.0783 65.6243 69.0766 65.6243L69.0769 65.6246ZM70.1325 65.5094C70.1123 65.5094 70.0949 65.4941 70.0928 65.4739C70.0904 65.4519 70.1064 65.4324 70.1284 65.43L70.4452 65.3969C70.4668 65.3948 70.4866 65.4105 70.489 65.4324C70.4915 65.4544 70.4755 65.4739 70.4535 65.4763L70.1371 65.5094C70.1371 65.5094 70.1343 65.5094 70.1329 65.5094H70.1325ZM71.1892 65.4028C71.1687 65.4028 71.1516 65.3872 71.1495 65.3666C71.1474 65.3447 71.1634 65.3252 71.1854 65.3231C71.2936 65.3127 71.3995 65.3029 71.5025 65.2935C71.5255 65.2907 71.544 65.3078 71.5457 65.3294C71.5478 65.3513 71.5314 65.3708 71.5099 65.3725C71.4065 65.3819 71.301 65.392 71.1927 65.4021C71.1913 65.4021 71.1902 65.4021 71.1889 65.4021L71.1892 65.4028ZM72.2469 65.3088C72.2264 65.3088 72.209 65.2928 72.2072 65.2723C72.2055 65.2503 72.2218 65.2312 72.2438 65.2295C72.3535 65.2207 72.4593 65.2124 72.5617 65.2051C72.5871 65.2068 72.6027 65.2201 72.6045 65.242C72.6062 65.2639 72.5895 65.2831 72.5676 65.2848C72.4652 65.2921 72.3597 65.3005 72.2501 65.3092C72.249 65.3092 72.248 65.3092 72.2469 65.3092V65.3088ZM73.3064 65.2385C73.2851 65.2385 73.2677 65.2218 73.2667 65.2006C73.2656 65.1786 73.2827 65.1598 73.3046 65.1588C73.4185 65.1532 73.525 65.149 73.6235 65.1462H73.6249C73.6465 65.1462 73.6643 65.1633 73.6646 65.1849C73.6653 65.2068 73.6479 65.2253 73.626 65.226C73.5275 65.2288 73.4216 65.2329 73.3085 65.2385C73.3078 65.2385 73.3071 65.2385 73.3064 65.2385Z" fill="white"/>
<path d="M68.8966 72.4493L66.9713 72.6958C66.7189 72.7282 66.4825 72.5677 66.4208 72.3222L65.9613 70.4982C65.8882 70.2075 66.0863 69.9185 66.385 69.8802L68.6978 69.5843C68.9903 69.5467 69.2517 69.767 69.2632 70.0605L69.3353 71.9344C69.3454 72.193 69.155 72.4169 68.897 72.45L68.8966 72.4493Z" fill="url(#paint36_linear_3787_267183)"/>
<path d="M68.6164 72.1386L67.1509 72.3263C66.9588 72.351 66.7788 72.2288 66.7318 72.0419L66.3822 70.6534C66.3265 70.4323 66.4776 70.2123 66.7046 70.183L68.4649 69.9578C68.6874 69.9292 68.8865 70.097 68.8952 70.3202L68.9499 71.7463C68.9576 71.9433 68.8127 72.1136 68.6164 72.1386Z" fill="url(#paint37_linear_3787_267183)"/>
<path d="M67.4712 57.3759C67.9252 59.2521 67.9374 61.088 67.8681 61.7561C67.842 62.0082 67.6394 62.2049 67.387 62.2227C67.0997 62.2428 66.7091 62.269 66.3599 62.2892C65.9762 62.3114 65.5501 62.0688 65.2653 61.8661C65.1197 61.7627 64.9317 61.9239 65.0129 62.0827C65.1528 62.3563 65.3958 62.5722 65.6371 62.7553C65.7823 62.8657 66.2645 63.0614 66.2311 63.2786C66.2203 63.3472 66.1792 63.4067 66.1346 63.46C65.8666 63.7817 65.4609 63.9534 65.0609 64.0763C65.0108 64.0916 64.9575 64.1079 64.9223 64.1469C64.9122 64.4056 65.7085 64.6932 65.9142 64.7614C66.222 64.8638 66.5486 64.907 66.872 64.8729C67.6732 64.7886 68.413 64.2354 68.8447 63.5686C69.9982 61.7861 70.5946 59.6337 70.8125 57.9876C69.7395 56.9149 68.1195 57.1868 67.4712 57.3755V57.3759Z" fill="url(#paint38_linear_3787_267183)"/>
<path d="M70.8126 58.1574C71.6684 51.6927 66.6865 46.7217 66.6865 46.7217L63.7223 50.1772C65.9728 52.9823 67.0424 55.5525 67.5312 57.5714C68.1791 57.3827 69.7396 57.0847 70.8126 58.1574Z" fill="url(#paint39_linear_3787_267183)"/>
<path d="M67.4605 57.5398C67.3777 57.5398 67.3025 57.4834 67.2823 57.3995C66.6799 54.9108 65.4102 52.4472 63.5089 50.0769C63.4455 49.9979 63.4581 49.8823 63.5371 49.819C63.6161 49.7556 63.7317 49.7681 63.7951 49.8472C65.7305 52.2599 67.0239 54.7716 67.6391 57.3131C67.6628 57.4117 67.6022 57.5109 67.504 57.5346C67.4894 57.538 67.4751 57.5398 67.4605 57.5398Z" fill="url(#paint40_linear_3787_267183)"/>
<path d="M27.3163 95.8642C27.3167 95.8325 27.3146 95.8009 27.3066 95.7685C26.83 93.8787 24.4638 92.7012 24.4638 92.7012L23.5262 92.7746C22.9873 94.4406 23.0566 95.4621 23.1429 95.9171C23.1454 95.93 23.1492 95.9419 23.1527 95.9544C23.9259 96.0237 25.5181 96.0686 27.3163 95.8639V95.8642Z" fill="url(#paint41_linear_3787_267183)"/>
<path d="M23.1527 95.9545C23.1945 96.1067 23.3066 96.2247 23.4504 96.255C24.5506 96.4865 26.2994 96.3003 27.0333 96.2042C27.1952 96.1829 27.3136 96.0332 27.3164 95.864C25.5181 96.0687 23.9263 96.0235 23.1527 95.9545Z" fill="url(#paint42_linear_3787_267183)"/>
<path d="M23.1492 91.3782L23.5464 93.2899C23.5757 93.4299 23.6832 93.535 23.8135 93.5472C23.9729 93.5622 24.2003 93.5709 24.4287 93.5375C24.6334 93.5075 24.7761 93.2993 24.7399 93.0758L24.4638 91.3785H23.1492V91.3782Z" fill="url(#paint43_linear_3787_267183)"/>
<path d="M31.377 95.9305C30.3415 95.9016 29.8057 95.7794 29.5289 95.6663C29.5282 95.7693 29.5289 95.8741 29.5321 95.9824C29.5355 96.0983 29.6215 96.1909 29.727 96.1902L35.4125 96.1537C35.5939 96.1526 35.7001 95.942 35.6214 95.7756C34.876 95.8372 32.9775 95.9751 31.3766 95.9302L31.377 95.9305Z" fill="url(#paint44_linear_3787_267183)"/>
<path d="M35.6218 95.7759C35.6148 95.7613 35.6089 95.7466 35.5991 95.7331C35.0971 95.0315 33.8183 93.6343 31.2913 93.0285L30.079 92.9902C30.079 92.9902 29.5394 93.9285 29.5289 95.6665C29.8057 95.7797 30.3415 95.9016 31.377 95.9308C32.9778 95.9757 34.8763 95.8378 35.6218 95.7762V95.7759Z" fill="url(#paint45_linear_3787_267183)"/>
<path d="M29.8002 91.2095C29.8193 91.299 30.0714 92.6589 30.1692 93.1864C30.1926 93.3117 30.29 93.4036 30.4063 93.4102C30.6138 93.4217 30.9488 93.4231 31.2367 93.3451C31.392 93.303 31.4964 93.1446 31.4853 92.9688L31.3495 90.8171L29.8002 91.2095Z" fill="url(#paint46_linear_3787_267183)"/>
<path d="M28.8817 66.0945C28.8817 66.0945 30.5494 77.5535 31.7526 91.19C31.7749 91.4438 31.5726 91.6648 31.3233 91.7174C30.9557 91.7947 30.4153 91.8866 29.9679 91.8741C29.7291 91.8675 29.5296 91.6903 29.4892 91.4549C29.0791 89.0505 26.1538 76.1473 25.3858 73.3073C25.3858 73.3073 24.5039 85.3708 24.7859 91.6293C24.7929 91.785 24.679 91.92 24.5241 91.9378C24.2894 91.965 23.9138 91.9855 23.4357 91.9347C23.2543 91.9155 23.1081 91.7783 23.082 91.5976C22.7899 89.563 21.109 77.4508 21.1807 68.7259C21.1849 68.2339 21.7579 64.1914 21.7579 64.1914L28.8813 66.0948L28.8817 66.0945Z" fill="url(#paint47_linear_3787_267183)"/>
<path d="M21.5077 66.7549C21.3364 66.694 21.2166 66.5387 21.1982 66.3577C20.9764 64.206 19.9027 50.8662 26.6814 45.3785C26.6814 45.3785 27.0703 44.3615 30.2653 46.8616C33.4608 49.3618 31.7499 51.9824 30.985 55.597C30.0592 59.971 28.4351 63.5463 29.1537 66.2379C29.2031 66.4235 29.1056 66.6188 28.9253 66.6853C26.4432 67.6002 23.9706 67.6305 21.5077 66.7553V66.7549Z" fill="url(#paint48_linear_3787_267183)"/>
<path d="M29.3253 41.3813C29.3232 41.5711 26.6162 45.4158 26.6162 45.4158C26.6162 45.4158 27.1019 46.3726 29.4217 47.1497L31.424 43.033L29.3253 41.3813Z" fill="url(#paint49_linear_3787_267183)"/>
<path d="M31.4564 39.1782C31.4564 39.1782 32.4194 41.3908 32.4842 42.5519C32.549 43.713 32.7989 44.4668 31.4564 44.7004C30.1136 44.9344 28.9824 44.2652 28.3696 43.1086C28.3696 43.1086 27.4094 41.326 27.6249 40.5963C27.8404 39.8662 31.4564 39.1782 31.4564 39.1782Z" fill="url(#paint50_linear_3787_267183)"/>
<path d="M28.8288 42.2772L28.9054 42.2434C29.0025 42.2006 29.0443 42.0847 28.9955 41.9903C28.8061 41.6244 28.4371 40.786 28.9141 40.5907C29.5286 40.3387 31.9629 39.8422 32.4879 38.9784C32.9928 38.1484 32.5454 37.0767 31.8734 36.7717C31.8285 36.7512 31.7753 36.7676 31.7523 36.8111L31.6962 36.9169C31.6579 36.9893 31.5507 36.9785 31.5281 36.8995C31.5061 36.824 31.4055 36.8093 31.3637 36.8758C31.2022 37.1342 30.7663 37.5534 29.601 37.7682C27.9444 38.0739 26.8495 38.7444 26.822 39.8888C26.8202 39.9616 26.7429 40.002 26.6806 39.964C26.5584 39.8895 26.3627 39.8544 26.1009 40.0744C25.6459 40.457 25.8321 41.4493 26.8293 42.2654C26.8766 42.304 26.8763 42.3782 26.8251 42.4116C26.6444 42.5293 26.3749 42.8092 27.073 43.1828C27.7954 43.5689 28.3347 43.5372 28.5426 43.5031C28.5941 43.4947 28.6275 43.4446 28.6164 43.3934L28.3946 42.3872C28.3821 42.3301 28.4252 42.2765 28.4837 42.2765H28.8291L28.8288 42.2772Z" fill="url(#paint51_linear_3787_267183)"/>
<path d="M28.8703 42.4896C28.8703 42.4896 28.503 41.0765 27.8693 41.4727C27.2357 41.8689 28.198 43.0561 28.7077 43.109L28.8706 42.4896H28.8703Z" fill="url(#paint52_linear_3787_267183)"/>
<path d="M31.2931 48.0215L31.4797 53.0336C32.0099 53.2161 32.5144 53.3578 32.9949 53.4639C33.2954 52.4961 33.9576 51.3085 34.4993 50.4252C32.5078 49.7212 31.2927 48.0215 31.2927 48.0215H31.2931Z" fill="url(#paint53_linear_3787_267183)"/>
<path d="M41.2352 47.9365C38.5035 50.8858 36.2927 51.0595 34.4996 50.4255C33.9576 51.3088 33.2957 52.4964 32.9952 53.4643C40.2899 55.0724 42.0078 48.3665 42.0078 48.3665L41.2352 47.9365Z" fill="url(#paint54_linear_3787_267183)"/>
<path d="M41.7891 47.6232C41.7891 47.6232 42.1038 47.2851 42.6859 47.3913C43.2684 47.4975 43.7868 47.6998 44.1496 47.3913C44.5124 47.0829 44.6402 47.4968 44.6402 47.4968L43.5535 48.3227L41.7891 47.6229V47.6232Z" fill="url(#paint55_linear_3787_267183)"/>
<path d="M41.1394 48.2008C41.1394 48.2008 41.3549 47.2994 42.0046 47.423C42.6542 47.5466 44.1294 48.3488 44.5096 48.2008C44.8898 48.0532 45.3758 47.6995 45.6251 47.8244L45.1857 48.3707C45.1857 48.3707 46.3152 47.7193 46.5094 48.1197L44.6304 49.1771C44.6304 49.1771 41.8813 48.9017 41.139 48.2012L41.1394 48.2008Z" fill="url(#paint56_linear_3787_267183)"/>
<path d="M28.261 54.5815C28.261 54.5815 33.3967 58.8827 38.9422 57.0058C39.2862 56.8895 39.6622 56.9146 39.9832 57.0841L41.5775 57.9263C42.2466 58.2797 43.0753 58.0478 43.4638 57.3982C43.6852 57.0277 43.8743 56.6044 43.9119 56.1991L40.7924 54.9363L41.0225 54.5537C41.0225 54.5537 39.4993 54.4245 39.1007 55.5164C39.1007 55.5164 36.1994 56.7231 31.3071 51.3416C31.3071 51.3416 29.0868 53.2293 28.2613 54.5815H28.261Z" fill="url(#paint57_linear_3787_267183)"/>
<path d="M27.9845 54.5372C27.9675 54.5372 27.9504 54.5323 27.9354 54.5222C25.773 53.0614 24.7557 50.7033 24.7459 50.6792C24.7271 50.6343 24.748 50.5828 24.7926 50.564C24.8375 50.5448 24.8887 50.5657 24.9078 50.6106C24.9176 50.634 25.9161 52.9454 28.034 54.3767C28.0743 54.4039 28.0848 54.4585 28.0576 54.4989C28.0406 54.524 28.0131 54.5376 27.9849 54.5376L27.9845 54.5372Z" fill="url(#paint58_linear_3787_267183)"/>
<path d="M31.2053 51.2688C31.1764 51.2688 31.1482 51.2545 31.1312 51.2284C31.1245 51.2183 30.4641 50.1898 29.2058 47.9368C28.819 47.244 28.3104 46.8053 27.6945 46.633C26.6743 46.3478 25.6915 46.8948 25.6817 46.9004C25.6393 46.9237 25.586 46.9098 25.562 46.8673C25.5379 46.8252 25.5526 46.7715 25.595 46.7475C25.6375 46.7235 26.6486 46.1577 27.7404 46.4634C28.404 46.6487 28.9485 47.1155 29.3597 47.8512C30.6148 50.0986 31.2729 51.1232 31.2795 51.1333C31.3056 51.1741 31.2941 51.2284 31.2534 51.2548C31.2387 51.2646 31.222 51.2688 31.2057 51.2688H31.2053Z" fill="url(#paint59_linear_3787_267183)"/>
<defs>
<linearGradient id="paint0_linear_3787_267183" x1="70.0899" y1="59.5094" x2="90.8382" y2="59.5094" gradientUnits="userSpaceOnUse">
<stop stop-color="#4F52FF"/>
<stop offset="1" stop-color="#4042E2"/>
</linearGradient>
<linearGradient id="paint1_linear_3787_267183" x1="72.1467" y1="73.9747" x2="84.378" y2="73.9747" gradientUnits="userSpaceOnUse">
<stop stop-color="#DAE3FE"/>
<stop offset="1" stop-color="#E9EFFD"/>
</linearGradient>
<linearGradient id="paint2_linear_3787_267183" x1="72.9569" y1="27.8626" x2="43.3764" y2="-33.6248" gradientUnits="userSpaceOnUse">
<stop stop-color="#4042E2"/>
<stop offset="1" stop-color="#4F52FF"/>
</linearGradient>
<linearGradient id="paint3_linear_3787_267183" x1="57.7942" y1="23.1144" x2="-21.0421" y2="124" gradientUnits="userSpaceOnUse">
<stop stop-color="white"/>
<stop offset="1" stop-color="white"/>
</linearGradient>
<linearGradient id="paint4_linear_3787_267183" x1="11.1397" y1="36.1822" x2="19.3247" y2="36.1822" gradientUnits="userSpaceOnUse">
<stop stop-color="#DAE3FE"/>
<stop offset="1" stop-color="#E9EFFD"/>
</linearGradient>
<linearGradient id="paint5_linear_3787_267183" x1="21.7277" y1="32.625" x2="56.4101" y2="32.625" gradientUnits="userSpaceOnUse">
<stop stop-color="#DAE3FE"/>
<stop offset="1" stop-color="#E9EFFD"/>
</linearGradient>
<linearGradient id="paint6_linear_3787_267183" x1="22.3635" y1="38.1928" x2="45.6433" y2="38.1928" gradientUnits="userSpaceOnUse">
<stop stop-color="#DAE3FE"/>
<stop offset="1" stop-color="#E9EFFD"/>
</linearGradient>
<linearGradient id="paint7_linear_3787_267183" x1="11.1397" y1="52.0986" x2="19.3247" y2="52.0986" gradientUnits="userSpaceOnUse">
<stop stop-color="#DAE3FE"/>
<stop offset="1" stop-color="#E9EFFD"/>
</linearGradient>
<linearGradient id="paint8_linear_3787_267183" x1="21.7277" y1="48.5411" x2="56.4101" y2="48.5411" gradientUnits="userSpaceOnUse">
<stop stop-color="#DAE3FE"/>
<stop offset="1" stop-color="#E9EFFD"/>
</linearGradient>
<linearGradient id="paint9_linear_3787_267183" x1="11.1397" y1="68.0145" x2="19.3247" y2="68.0145" gradientUnits="userSpaceOnUse">
<stop stop-color="#DAE3FE"/>
<stop offset="1" stop-color="#E9EFFD"/>
</linearGradient>
<linearGradient id="paint10_linear_3787_267183" x1="21.7277" y1="64.4573" x2="56.4101" y2="64.4573" gradientUnits="userSpaceOnUse">
<stop stop-color="#DAE3FE"/>
<stop offset="1" stop-color="#E9EFFD"/>
</linearGradient>
<linearGradient id="paint11_linear_3787_267183" x1="22.3635" y1="70.0249" x2="45.6433" y2="70.0249" gradientUnits="userSpaceOnUse">
<stop stop-color="#DAE3FE"/>
<stop offset="1" stop-color="#E9EFFD"/>
</linearGradient>
<linearGradient id="paint12_linear_3787_267183" x1="49.7519" y1="64.5833" x2="38.8551" y2="92.4825" gradientUnits="userSpaceOnUse">
<stop stop-color="#09005D"/>
<stop offset="1" stop-color="#1A0F91"/>
</linearGradient>
<linearGradient id="paint13_linear_3787_267183" x1="41.7517" y1="56.802" x2="39.8104" y2="57.1828" gradientUnits="userSpaceOnUse">
<stop stop-color="#FEBBBA"/>
<stop offset="1" stop-color="#FF928E"/>
</linearGradient>
<linearGradient id="paint14_linear_3787_267183" x1="40.1462" y1="54.8482" x2="49.1539" y2="54.8482" gradientUnits="userSpaceOnUse">
<stop stop-color="#FEBBBA"/>
<stop offset="1" stop-color="#FF928E"/>
</linearGradient>
<linearGradient id="paint15_linear_3787_267183" x1="66.8722" y1="24.6138" x2="61.3851" y2="35.4336" gradientUnits="userSpaceOnUse">
<stop stop-color="#09005D"/>
<stop offset="1" stop-color="#1A0F91"/>
</linearGradient>
<linearGradient id="paint16_linear_3787_267183" x1="75.6336" y1="29.0573" x2="70.1466" y2="39.8768" gradientUnits="userSpaceOnUse">
<stop stop-color="#09005D"/>
<stop offset="1" stop-color="#1A0F91"/>
</linearGradient>
<linearGradient id="paint17_linear_3787_267183" x1="60.3005" y1="45.8384" x2="58.8563" y2="41.5052" gradientUnits="userSpaceOnUse">
<stop stop-color="#FEBBBA"/>
<stop offset="1" stop-color="#FF928E"/>
</linearGradient>
<linearGradient id="paint18_linear_3787_267183" x1="56.927" y1="40.5206" x2="62.1184" y2="42.7781" gradientUnits="userSpaceOnUse">
<stop stop-color="#FEBBBA"/>
<stop offset="1" stop-color="#FF928E"/>
</linearGradient>
<linearGradient id="paint19_linear_3787_267183" x1="60.6692" y1="43.6334" x2="56.4184" y2="39.1179" gradientUnits="userSpaceOnUse">
<stop stop-color="#09005D"/>
<stop offset="1" stop-color="#1A0F91"/>
</linearGradient>
<linearGradient id="paint20_linear_3787_267183" x1="56.6035" y1="41.2646" x2="61.7949" y2="43.5221" gradientUnits="userSpaceOnUse">
<stop stop-color="#FEBBBA"/>
<stop offset="1" stop-color="#FF928E"/>
</linearGradient>
<linearGradient id="paint21_linear_3787_267183" x1="66.7855" y1="96.054" x2="60.3334" y2="96.054" gradientUnits="userSpaceOnUse">
<stop stop-color="#4042E2"/>
<stop offset="1" stop-color="#4F52FF"/>
</linearGradient>
<linearGradient id="paint22_linear_3787_267183" x1="82.3583" y1="90.0174" x2="58.9964" y2="96.6763" gradientUnits="userSpaceOnUse">
<stop stop-color="#09005D"/>
<stop offset="1" stop-color="#1A0F91"/>
</linearGradient>
<linearGradient id="paint23_linear_3787_267183" x1="66.1897" y1="93.024" x2="64.3723" y2="93.024" gradientUnits="userSpaceOnUse">
<stop stop-color="#FEBBBA"/>
<stop offset="1" stop-color="#FF928E"/>
</linearGradient>
<linearGradient id="paint24_linear_3787_267183" x1="79.6478" y1="95.9148" x2="77.1755" y2="95.9148" gradientUnits="userSpaceOnUse">
<stop stop-color="#4042E2"/>
<stop offset="1" stop-color="#4F52FF"/>
</linearGradient>
<linearGradient id="paint25_linear_3787_267183" x1="69.3341" y1="88.664" x2="83.8932" y2="98.1444" gradientUnits="userSpaceOnUse">
<stop stop-color="#09005D"/>
<stop offset="1" stop-color="#1A0F91"/>
</linearGradient>
<linearGradient id="paint26_linear_3787_267183" x1="77.7437" y1="91.5088" x2="75.5715" y2="91.5088" gradientUnits="userSpaceOnUse">
<stop stop-color="#FEBBBA"/>
<stop offset="1" stop-color="#FF928E"/>
</linearGradient>
<linearGradient id="paint27_linear_3787_267183" x1="78.0502" y1="94.6983" x2="44.908" y2="48.8775" gradientUnits="userSpaceOnUse">
<stop stop-color="#09005D"/>
<stop offset="1" stop-color="#1A0F91"/>
</linearGradient>
<linearGradient id="paint28_linear_3787_267183" x1="70.0806" y1="88.7333" x2="67.516" y2="70.2995" gradientUnits="userSpaceOnUse">
<stop stop-color="#FF928E"/>
<stop offset="1" stop-color="#FE7062"/>
</linearGradient>
<linearGradient id="paint29_linear_3787_267183" x1="63.9801" y1="66.8868" x2="63.6153" y2="64.7436" gradientUnits="userSpaceOnUse">
<stop stop-color="#E1473D"/>
<stop offset="1" stop-color="#E9605A"/>
</linearGradient>
<linearGradient id="paint30_linear_3787_267183" x1="63.4535" y1="63.6664" x2="64.6886" y2="69.7842" gradientUnits="userSpaceOnUse">
<stop stop-color="#E1473D"/>
<stop offset="1" stop-color="#E9605A"/>
</linearGradient>
<linearGradient id="paint31_linear_3787_267183" x1="69.9508" y1="65.8709" x2="69.5857" y2="63.7273" gradientUnits="userSpaceOnUse">
<stop stop-color="#E1473D"/>
<stop offset="1" stop-color="#E9605A"/>
</linearGradient>
<linearGradient id="paint32_linear_3787_267183" x1="69.3845" y1="62.4694" x2="70.6195" y2="68.5869" gradientUnits="userSpaceOnUse">
<stop stop-color="#E1473D"/>
<stop offset="1" stop-color="#E9605A"/>
</linearGradient>
<linearGradient id="paint33_linear_3787_267183" x1="66.5337" y1="59.7789" x2="66.4974" y2="64.2526" gradientUnits="userSpaceOnUse">
<stop stop-color="#E1473D"/>
<stop offset="1" stop-color="#E9605A"/>
</linearGradient>
<linearGradient id="paint34_linear_3787_267183" x1="63.9481" y1="62.8905" x2="61.9002" y2="51.2594" gradientUnits="userSpaceOnUse">
<stop stop-color="#FEBBBA"/>
<stop offset="1" stop-color="#FF928E"/>
</linearGradient>
<linearGradient id="paint35_linear_3787_267183" x1="67.153" y1="63.1804" x2="67.583" y2="83.9829" gradientUnits="userSpaceOnUse">
<stop stop-color="#FF928E"/>
<stop offset="1" stop-color="#FE7062"/>
</linearGradient>
<linearGradient id="paint36_linear_3787_267183" x1="67.6366" y1="65.6925" x2="67.6496" y2="72.6661" gradientUnits="userSpaceOnUse">
<stop stop-color="#E1473D"/>
<stop offset="1" stop-color="#E9605A"/>
</linearGradient>
<linearGradient id="paint37_linear_3787_267183" x1="66.4702" y1="71.3148" x2="68.9887" y2="70.9921" gradientUnits="userSpaceOnUse">
<stop stop-color="#FF928E"/>
<stop offset="1" stop-color="#FE7062"/>
</linearGradient>
<linearGradient id="paint38_linear_3787_267183" x1="69.2037" y1="58.4249" x2="64.2855" y2="67.8834" gradientUnits="userSpaceOnUse">
<stop stop-color="#FEBBBA"/>
<stop offset="1" stop-color="#FF928E"/>
</linearGradient>
<linearGradient id="paint39_linear_3787_267183" x1="79.1083" y1="30.8194" x2="73.6212" y2="41.6389" gradientUnits="userSpaceOnUse">
<stop stop-color="#09005D"/>
<stop offset="1" stop-color="#1A0F91"/>
</linearGradient>
<linearGradient id="paint40_linear_3787_267183" x1="80.8661" y1="36.3434" x2="49.7133" y2="71.5777" gradientUnits="userSpaceOnUse">
<stop stop-color="#4042E2"/>
<stop offset="1" stop-color="#4F52FF"/>
</linearGradient>
<linearGradient id="paint41_linear_3787_267183" x1="23.0837" y1="94.357" x2="27.3163" y2="94.357" gradientUnits="userSpaceOnUse">
<stop stop-color="#09005D"/>
<stop offset="1" stop-color="#1A0F91"/>
</linearGradient>
<linearGradient id="paint42_linear_3787_267183" x1="33.6797" y1="89.3638" x2="18.2816" y2="101.455" gradientUnits="userSpaceOnUse">
<stop stop-color="#4042E2"/>
<stop offset="1" stop-color="#4F52FF"/>
</linearGradient>
<linearGradient id="paint43_linear_3787_267183" x1="24.2608" y1="89.5385" x2="23.4521" y2="96.5943" gradientUnits="userSpaceOnUse">
<stop stop-color="#A22B25"/>
<stop offset="1" stop-color="#C0423C"/>
</linearGradient>
<linearGradient id="paint44_linear_3787_267183" x1="36.4152" y1="92.8427" x2="21.017" y2="104.933" gradientUnits="userSpaceOnUse">
<stop stop-color="#4042E2"/>
<stop offset="1" stop-color="#4F52FF"/>
</linearGradient>
<linearGradient id="paint45_linear_3787_267183" x1="29.5289" y1="94.4647" x2="35.6218" y2="94.4647" gradientUnits="userSpaceOnUse">
<stop stop-color="#09005D"/>
<stop offset="1" stop-color="#1A0F91"/>
</linearGradient>
<linearGradient id="paint46_linear_3787_267183" x1="30.7422" y1="90.2861" x2="30.3793" y2="97.3788" gradientUnits="userSpaceOnUse">
<stop stop-color="#A22B25"/>
<stop offset="1" stop-color="#C0423C"/>
</linearGradient>
<linearGradient id="paint47_linear_3787_267183" x1="24.0377" y1="97.6073" x2="30.0233" y2="53.8026" gradientUnits="userSpaceOnUse">
<stop stop-color="#4F52FF"/>
<stop offset="1" stop-color="#4042E2"/>
</linearGradient>
<linearGradient id="paint48_linear_3787_267183" x1="109.642" y1="-53.2755" x2="87.7659" y2="-24.1191" gradientUnits="userSpaceOnUse">
<stop stop-color="#FF928E"/>
<stop offset="1" stop-color="#FE7062"/>
</linearGradient>
<linearGradient id="paint49_linear_3787_267183" x1="26.713" y1="49.4152" x2="31.0664" y2="39.6203" gradientUnits="userSpaceOnUse">
<stop stop-color="#A22B25"/>
<stop offset="1" stop-color="#C0423C"/>
</linearGradient>
<linearGradient id="paint50_linear_3787_267183" x1="25.272" y1="34.0804" x2="31.4547" y2="43.509" gradientUnits="userSpaceOnUse">
<stop stop-color="#A22B25"/>
<stop offset="1" stop-color="#C0423C"/>
</linearGradient>
<linearGradient id="paint51_linear_3787_267183" x1="25.8509" y1="35.7293" x2="30.4933" y2="41.1669" gradientUnits="userSpaceOnUse">
<stop stop-color="#09005D"/>
<stop offset="1" stop-color="#1A0F91"/>
</linearGradient>
<linearGradient id="paint52_linear_3787_267183" x1="23.6555" y1="35.1406" x2="29.8382" y2="44.5692" gradientUnits="userSpaceOnUse">
<stop stop-color="#A22B25"/>
<stop offset="1" stop-color="#C0423C"/>
</linearGradient>
<linearGradient id="paint53_linear_3787_267183" x1="60.2723" y1="22.19" x2="34.6915" y2="48.1569" gradientUnits="userSpaceOnUse">
<stop stop-color="#FF928E"/>
<stop offset="1" stop-color="#FE7062"/>
</linearGradient>
<linearGradient id="paint54_linear_3787_267183" x1="44.8414" y1="47.5152" x2="33.0294" y2="53.3912" gradientUnits="userSpaceOnUse">
<stop stop-color="#A22B25"/>
<stop offset="1" stop-color="#C0423C"/>
</linearGradient>
<linearGradient id="paint55_linear_3787_267183" x1="44.6684" y1="46.0415" x2="40.6279" y2="50.2616" gradientUnits="userSpaceOnUse">
<stop stop-color="#A22B25"/>
<stop offset="1" stop-color="#C0423C"/>
</linearGradient>
<linearGradient id="paint56_linear_3787_267183" x1="44.8974" y1="47.4456" x2="33.0854" y2="53.3216" gradientUnits="userSpaceOnUse">
<stop stop-color="#A22B25"/>
<stop offset="1" stop-color="#C0423C"/>
</linearGradient>
<linearGradient id="paint57_linear_3787_267183" x1="49.8338" y1="57.4156" x2="15.5538" y2="51.2166" gradientUnits="userSpaceOnUse">
<stop stop-color="#A22B25"/>
<stop offset="1" stop-color="#C0423C"/>
</linearGradient>
<linearGradient id="paint58_linear_3787_267183" x1="37.6638" y1="31.2953" x2="6.71359" y2="89.7186" gradientUnits="userSpaceOnUse">
<stop stop-color="#E1473D"/>
<stop offset="1" stop-color="#E9605A"/>
</linearGradient>
<linearGradient id="paint59_linear_3787_267183" x1="37.7716" y1="31.3529" x2="6.82144" y2="89.7761" gradientUnits="userSpaceOnUse">
<stop stop-color="#E1473D"/>
<stop offset="1" stop-color="#E9605A"/>
</linearGradient>
</defs>
</svg>
