<svg width="101" height="100" viewBox="0 0 101 100" fill="none" xmlns="http://www.w3.org/2000/svg">
<circle opacity="0.3" cx="50.5" cy="50" r="50" fill="#FE7C71"/>
<mask id="mask0_3559_34151" style="mask-type:alpha" maskUnits="userSpaceOnUse" x="0" y="0" width="101" height="100">
<circle cx="50.5" cy="50" r="50" fill="#D9D9D9"/>
</mask>
<g mask="url(#mask0_3559_34151)">
<g clip-path="url(#clip0_3559_34151)">
<path d="M22.6749 31.5059C22.6749 31.5059 23.518 29.9839 23.428 28.7581C23.3379 27.5323 24.1012 25.7345 23.2888 25.8673C22.4744 26.0001 22.3066 25.8918 22.0856 27.3628C21.8646 28.8337 19.8777 34.2558 22.6749 31.508V31.5059Z" fill="url(#paint0_linear_3559_34151)"/>
<path d="M47.5782 86.1538C47.5782 86.1538 39.209 117.908 39.3604 157.867C39.3625 158.596 39.8761 159.223 40.5902 159.374C41.642 159.595 43.189 159.859 44.47 159.822C45.1534 159.803 45.7243 159.297 45.8389 158.623C47.0114 151.752 53.7457 113.048 57.5824 106.763C57.5824 106.763 60.1075 141.235 59.2992 159.119C59.2788 159.564 59.6062 159.948 60.0482 160.002C60.7194 160.079 61.7957 160.138 63.1626 159.993C63.6824 159.938 64.0998 159.546 64.1755 159.031C65.0104 153.217 69.8232 118.605 69.6186 93.674C69.6063 92.2685 65.8944 86.1538 65.8944 86.1538H47.5782Z" fill="url(#paint1_linear_3559_34151)"/>
<path d="M73.6657 58.5368C75.9411 52.322 75.1144 44.8161 75.1063 44.7405L74.4801 44.812C74.4883 44.8855 75.2966 52.2464 73.0723 58.3202L73.6657 58.5368Z" fill="url(#paint2_linear_3559_34151)"/>
<path d="M15.3549 61.1374C13.4765 50.9368 16.1714 34.123 16.1714 34.123L19.8424 37.921C19.8424 37.921 20.4624 51.6457 23.0755 57.3252C21.3546 57.5295 18.0212 58.2956 15.3549 61.1374Z" fill="url(#paint3_linear_3559_34151)"/>
<path d="M23.0761 57.3273C23.5693 58.3998 24.134 59.1864 24.7786 59.5378C27.138 60.831 31.7155 53.4497 35.1286 47.0531C37.5821 42.4543 39.436 38.3663 39.436 38.3663C41.8895 35.5981 47.9669 35.2181 53.6228 35.5715C59.5079 35.9352 64.9264 37.0936 65.3192 37.1794C65.3356 37.1834 65.3438 37.1834 65.3438 37.1834C68.0531 37.541 70.4042 37.8372 72.1047 38.0538C74.0916 38.305 75.9087 39.2836 77.2203 40.7975C82.4158 46.7998 93.8176 63.2356 80.3961 79.7981C78.6814 78.846 76.2381 77.3199 74.5807 75.5527C76.0642 71.3748 76.187 66.0345 73.0766 59.4847C72.9702 60.0056 72.8372 60.5205 72.6797 61.0251C68.3886 74.5885 68.1595 85.878 68.1717 88.4767C68.1717 88.8342 67.9589 89.1508 67.6295 89.2796C61.9879 91.5371 51.1202 90.1928 47.4758 89.6514C46.8046 89.5533 46.3565 88.9302 46.4465 88.2601C47.5351 80.3926 44.566 69.4401 41.5273 60.8596C23.6941 78.5028 17.3241 71.8427 15.3535 61.1395C18.0198 58.2997 21.3552 57.5336 23.0741 57.3273H23.0761Z" fill="url(#paint4_linear_3559_34151)"/>
<path d="M64.6114 86.9363C66.1605 86.0681 72.1662 82.3437 74.5808 75.5508C76.2383 77.318 78.6795 78.8441 80.3963 79.7941C77.8324 82.9586 74.3619 86.1294 69.768 89.2306C69.6043 92.7609 66.8869 94.0663 66.2648 95.2104C65.6427 96.3545 66.5267 96.093 66.1339 97.5292C65.741 98.9675 61.6177 95.2431 60.6376 94.3932C59.6554 93.5433 60.2447 91.1919 60.2447 91.1919C60.2447 91.1919 60.1792 90.7016 59.9173 89.7209C59.6554 88.7423 64.591 86.9404 64.6114 86.9343V86.9363Z" fill="url(#paint5_linear_3559_34151)"/>
<path d="M62.3678 26.9869L63.4564 38.0823C63.4564 38.0823 57.2051 39.9619 52.6562 36.7585L55.8525 26.6743L62.3678 26.9869Z" fill="url(#paint6_linear_3559_34151)"/>
<path d="M41.3981 60.4858C41.3981 60.4858 41.4144 60.4858 41.4226 60.4858C41.5311 60.4715 41.6068 60.3755 41.5925 60.2672C41.5822 60.1814 40.5243 51.6152 41.0973 49.1472C41.1218 49.041 41.0563 48.9368 40.9499 48.9123C40.8456 48.8857 40.7392 48.9531 40.7146 49.0594C40.1253 51.5947 41.1566 59.9628 41.2016 60.3183C41.2139 60.4184 41.2978 60.4899 41.396 60.4899L41.3981 60.4858Z" fill="url(#paint7_linear_3559_34151)"/>
<path d="M16.5258 22.4128C16.5361 22.1819 16.6466 21.9694 16.8287 21.8285C17.0108 21.6896 17.2482 21.6364 17.4733 21.6875L23.0862 22.9623C23.3031 23.0114 23.4504 23.2177 23.4259 23.4384L21.795 38.0007C21.7888 38.0641 21.7561 38.1213 21.707 38.1601C21.6579 38.1989 21.5944 38.2173 21.531 38.2091L16.6322 37.6167C16.2312 37.5676 15.9345 37.2203 15.9508 36.8179L16.5299 22.4107L16.5258 22.4128Z" fill="url(#paint8_linear_3559_34151)"/>
<path d="M18.1053 23.2523C18.1135 23.1215 18.1769 23.001 18.2833 22.9233C18.3898 22.8457 18.5228 22.8191 18.6496 22.8518L22.3411 23.7732C22.5539 23.8263 22.6951 24.0286 22.6705 24.2472L21.2689 36.6481C21.2607 36.7135 21.2279 36.7727 21.1747 36.8115C21.1215 36.8504 21.056 36.8667 20.9906 36.8545L17.5856 36.2497C17.4669 36.2293 17.383 36.1231 17.3912 36.0025L18.1033 23.2502L18.1053 23.2523Z" fill="url(#paint9_linear_3559_34151)"/>
<path d="M14.5777 26.1127C15.4842 25.7797 17.2583 22.7132 17.598 23.7224C17.9377 24.7317 17.4547 26.1127 17.598 26.5418C17.7412 26.9708 18.7234 29.3529 18.2814 30.45C17.9622 31.2406 17.4363 33.6759 17.1683 34.9691C17.0803 35.3981 16.6997 35.7066 16.2618 35.7066C15.8218 35.7066 15.4433 35.4001 15.3532 34.9691C15.3164 34.7975 13.6692 26.4457 14.5756 26.1127H14.5777Z" fill="url(#paint10_linear_3559_34151)"/>
<path d="M50.6548 16.3143C50.6548 16.3143 48.9851 23.9694 49.515 27.7081C50.045 31.4467 49.7238 34.0045 54.156 33.9004C58.5861 33.7962 61.7701 30.9503 62.9918 26.8786C62.9918 26.8786 64.9255 20.5944 63.7755 18.4064C62.6255 16.2183 50.6548 16.3143 50.6548 16.3143Z" fill="url(#paint11_linear_3559_34151)"/>
<path d="M61.0007 24.521L60.7347 24.4618C60.397 24.3862 60.1904 24.045 60.2865 23.712C60.6589 22.427 61.3056 19.5239 59.6604 19.2031C57.5404 18.7884 49.4618 18.7496 47.2395 16.3307C45.1032 14.0058 45.8501 10.31 47.8023 8.91467C47.9332 8.82069 48.1112 8.83908 48.2136 8.9637L48.4591 9.26606C48.6269 9.4724 48.9625 9.37025 48.985 9.10466C49.0075 8.84929 49.3185 8.73897 49.4945 8.92488C50.1739 9.64605 51.8293 10.7043 55.6824 10.6512C61.1603 10.5756 65.0789 12.018 65.8913 15.6463C65.9424 15.8772 66.2146 15.9568 66.3885 15.7975C66.7323 15.4829 67.3339 15.2479 68.3079 15.7832C70.0022 16.7127 70.037 19.9917 67.3727 23.2217C67.2459 23.3749 67.295 23.6099 67.4791 23.6834C68.1299 23.9429 69.1673 24.664 67.1763 26.2964C65.1178 27.9839 63.3764 28.2229 62.6929 28.2454C62.5231 28.2515 62.3839 28.1126 62.388 27.943L62.4576 24.5987C62.4617 24.4087 62.2898 24.2657 62.1036 24.3024L61.0027 24.521H61.0007Z" fill="url(#paint12_linear_3559_34151)"/>
<path d="M61.003 25.224C61.003 25.224 61.2793 20.4904 63.5506 21.3525C65.822 22.2126 63.5056 26.603 61.9136 27.0933L61.001 25.224H61.003Z" fill="url(#paint13_linear_3559_34151)"/>
</g>
</g>
<defs>
<linearGradient id="paint0_linear_3559_34151" x1="20.8087" y1="26.756" x2="26.7997" y2="35.221" gradientUnits="userSpaceOnUse">
<stop stop-color="#FF928E"/>
<stop offset="1" stop-color="#FEB3B1"/>
</linearGradient>
<linearGradient id="paint1_linear_3559_34151" x1="89.4489" y1="69.2359" x2="74.3414" y2="93.3649" gradientUnits="userSpaceOnUse">
<stop stop-color="#09005D"/>
<stop offset="1" stop-color="#1A0F91"/>
</linearGradient>
<linearGradient id="paint2_linear_3559_34151" x1="73.7844" y1="50.657" x2="65.6941" y2="27.3895" gradientUnits="userSpaceOnUse">
<stop stop-color="#53D8FF"/>
<stop offset="1" stop-color="#3840F7"/>
</linearGradient>
<linearGradient id="paint3_linear_3559_34151" x1="29.8405" y1="16.4819" x2="23.7192" y2="34.0577" gradientUnits="userSpaceOnUse">
<stop stop-color="#FF928E"/>
<stop offset="1" stop-color="#FEB3B1"/>
</linearGradient>
<linearGradient id="paint4_linear_3559_34151" x1="50.4347" y1="57.4621" x2="62.5679" y2="133.124" gradientUnits="userSpaceOnUse">
<stop stop-color="#FE7062"/>
<stop offset="1" stop-color="#FF928E"/>
</linearGradient>
<linearGradient id="paint5_linear_3559_34151" x1="80.3963" y1="86.7034" x2="59.9071" y2="86.7034" gradientUnits="userSpaceOnUse">
<stop stop-color="#FF928E"/>
<stop offset="1" stop-color="#FEB3B1"/>
</linearGradient>
<linearGradient id="paint6_linear_3559_34151" x1="55.0545" y1="90.9241" x2="53.1514" y2="124.973" gradientUnits="userSpaceOnUse">
<stop stop-color="#FF928E"/>
<stop offset="1" stop-color="#FEB3B1"/>
</linearGradient>
<linearGradient id="paint7_linear_3559_34151" x1="42.9778" y1="61.1253" x2="36.0615" y2="36.6853" gradientUnits="userSpaceOnUse">
<stop stop-color="#E1473D"/>
<stop offset="1" stop-color="#E9605A"/>
</linearGradient>
<linearGradient id="paint8_linear_3559_34151" x1="13.9291" y1="22.0614" x2="34.9096" y2="51.7123" gradientUnits="userSpaceOnUse">
<stop stop-color="#09005D"/>
<stop offset="1" stop-color="#1A0F91"/>
</linearGradient>
<linearGradient id="paint9_linear_3559_34151" x1="19.7055" y1="15.9792" x2="21.325" y2="85.7636" gradientUnits="userSpaceOnUse">
<stop stop-color="#FE7062"/>
<stop offset="1" stop-color="#FF928E"/>
</linearGradient>
<linearGradient id="paint10_linear_3559_34151" x1="34.7396" y1="-0.0558537" x2="28.2067" y2="10.577" gradientUnits="userSpaceOnUse">
<stop stop-color="#FF928E"/>
<stop offset="1" stop-color="#FEB3B1"/>
</linearGradient>
<linearGradient id="paint11_linear_3559_34151" x1="-246.446" y1="-553.632" x2="-236.382" y2="-534.374" gradientUnits="userSpaceOnUse">
<stop stop-color="#FF928E"/>
<stop offset="1" stop-color="#FEB3B1"/>
</linearGradient>
<linearGradient id="paint12_linear_3559_34151" x1="61.5099" y1="9.56193" x2="49.3692" y2="33.8489" gradientUnits="userSpaceOnUse">
<stop stop-color="#09005D"/>
<stop offset="1" stop-color="#1A0F91"/>
</linearGradient>
<linearGradient id="paint13_linear_3559_34151" x1="-241.385" y1="-556.277" x2="-231.321" y2="-537.02" gradientUnits="userSpaceOnUse">
<stop stop-color="#FF928E"/>
<stop offset="1" stop-color="#FEB3B1"/>
</linearGradient>
<clipPath id="clip0_3559_34151">
<rect width="72.3887" height="163.339" fill="white" transform="translate(14.3057 8.83301)"/>
</clipPath>
</defs>
</svg>
