<svg width="32" height="33" viewBox="0 0 32 33" fill="none" xmlns="http://www.w3.org/2000/svg">
<g clip-path="url(#clip0_961_34)">
<path d="M16 32.8877C24.8366 32.8877 32 25.7243 32 16.8877C32 8.05114 24.8366 0.887695 16 0.887695C7.16344 0.887695 0 8.05114 0 16.8877C0 25.7243 7.16344 32.8877 16 32.8877Z" fill="white"/>
<path d="M17.7733 27.0797V18.1632H20.7477L21.3117 14.4771H17.7733V12.0801C17.7733 11.073 18.2702 10.086 19.8547 10.086H21.4662V6.94374C21.4662 6.94374 20.0025 6.69531 18.6126 6.69531C15.6986 6.69531 13.7918 8.46115 13.7918 11.6571V14.4704H10.5488V18.1565H13.7918V27.073H17.78L17.7733 27.0797Z" fill="black"/>
</g>
<defs>
<clipPath id="clip0_961_34">
<rect width="32" height="32" fill="white" transform="translate(0 0.887695)"/>
</clipPath>
</defs>
</svg>
