<svg width="25" height="24" viewBox="0 0 25 24" fill="none" xmlns="http://www.w3.org/2000/svg">
<path d="M3.97852 12H8.97852M3.97852 12C3.97852 16.9706 8.00795 21 12.9785 21M3.97852 12C3.97852 7.02944 8.00795 3 12.9785 3M8.97852 12H16.9785M8.97852 12C8.97852 16.9706 10.7694 21 12.9785 21M8.97852 12C8.97852 7.02944 10.7694 3 12.9785 3M16.9785 12H21.9785M16.9785 12C16.9785 7.02944 15.1877 3 12.9785 3M16.9785 12C16.9785 16.9706 15.1877 21 12.9785 21M21.9785 12C21.9785 7.02944 17.9491 3 12.9785 3M21.9785 12C21.9785 16.9706 17.9491 21 12.9785 21" stroke="black" stroke-width="2" stroke-linecap="round" stroke-linejoin="round"/>
</svg>
