<svg width="101" height="101" viewBox="0 0 101 101" fill="none" xmlns="http://www.w3.org/2000/svg">
<path d="M93.87 67.7232C84.209 90.195 58.7063 99.8472 38.7247 98.2017C33.269 97.7522 22.2916 96.8481 13.7207 88.7824C-2.73933 73.2923 -0.204439 40.9139 15.5527 21.8513C17.5822 19.3967 31.6279 2.94923 53.5153 3.16918C69.5403 3.33038 80.7878 12.3384 82.1556 13.4607C83.8835 14.8785 87.694 18.2474 91.1285 23.5918C99.198 36.1494 99.9074 53.6802 93.87 67.7232Z" fill="url(#paint0_linear_987_6436)"/>
<path d="M2.83181 74.6202C12.0731 104.91 85.0143 107.357 98.1758 78.4564C99.0778 76.4758 97.4845 74.2989 95.1013 74.2548L4.60712 72.5843C3.40764 72.5621 2.51486 73.5816 2.83181 74.6206V74.6202Z" fill="#BDD0FB"/>
<path d="M65.8357 74.2329C65.8357 74.2329 69.0827 30.8877 86.6043 4.85874C87.7822 3.10904 90.5152 3.30133 91.4189 5.20369C97.4624 17.9246 111.566 57.1505 65.8357 74.2329Z" fill="#BDD0FB"/>
<path opacity="0.5" d="M69.7183 70.8829C69.6288 70.9987 69.7962 71.135 69.9014 71.0319C73.7689 67.2282 88.1654 49.2353 89.244 17.5539C89.2474 17.4521 89.0896 17.4374 89.077 17.5385C88.1473 24.9851 83.8631 52.5731 69.7183 70.8829Z" fill="white"/>
<path d="M16.7209 30.3785C17.5085 28.7374 18.072 27.0195 18.2035 25.1489C18.5348 20.4357 15.7946 16.0954 13.7819 12.0373C11.9318 8.30769 10.5568 2.75019 16.7991 3.24474C21.7722 3.63887 27.6187 8.59458 28.2857 13.7627C29.075 19.8793 26.0974 27.5923 29.6276 33.1481C34.5662 40.9204 38.1288 39.1393 38.1288 52.2557C38.1288 57.86 35.0246 60.9516 31.4688 62.6542C25.8567 65.3417 19.1646 64.2556 14.6932 59.9284C10.7429 56.1055 8.39384 50.6095 9.18826 45.092C9.99053 39.5194 14.3615 35.2933 16.7205 30.3782L16.7209 30.3785Z" fill="#BDD0FB"/>
<path d="M20.8934 72.5492C20.9713 72.5492 21.0424 72.4966 21.0622 72.4174C24.1558 60.0684 25.8399 48.8741 26.0674 39.1458C26.2494 31.3557 25.5035 24.4808 23.8501 18.7126C21.026 8.86028 16.5966 5.69594 16.4094 5.56615C16.3305 5.51151 16.2222 5.53098 16.1672 5.60987C16.1123 5.68877 16.1317 5.79703 16.2106 5.85202C16.2557 5.88344 20.7435 9.10004 23.5284 18.8547C26.1022 27.8706 27.7054 44.4669 20.724 72.333C20.7008 72.4262 20.7575 72.5208 20.8504 72.5441C20.8648 72.5475 20.8788 72.5492 20.8928 72.5492H20.8934Z" fill="#7D97F4"/>
<path d="M11.7654 16.5509C12.0059 16.4856 12.2699 16.4651 12.5513 16.4976C14.107 16.6765 14.746 18.317 15.203 19.5998C15.5944 20.6982 16.0558 22.0315 15.8246 23.2218C15.5746 24.5083 14.2085 25.5579 13.217 24.2515C12.0899 22.7665 10.399 20.4867 10.3887 18.5191C10.3836 17.541 10.9328 16.777 11.7658 16.5509H11.7654Z" fill="#BDD0FB"/>
<path d="M3.06119 60.239C2.37744 55.7334 4.01477 50.5605 4.83207 45.7957C5.26411 43.2765 5.46391 40.7765 5.05953 38.2385C4.6572 35.7152 3.47172 32.986 4.56464 30.472C6.76756 25.407 12.0044 27.712 15.0041 31.5249C18.485 35.9495 19.4366 43.1802 20.7586 48.7476C21.5558 52.1039 22.7563 55.547 23.1767 58.9671C23.8731 64.6332 22.592 68.5667 19.8816 71.2235C17.2818 73.7718 13.3227 74.3001 10.1423 72.5289C7.26928 70.9288 4.16436 67.5076 3.06085 60.239H3.06119Z" fill="#91B3FA"/>
<path d="M15.041 81.1437C15.0314 81.1437 15.0218 81.143 15.0119 81.1413C14.9177 81.1256 14.8545 81.0365 14.8702 80.9422C14.8815 80.8743 16.0161 74.0264 16.0451 64.571C16.0721 55.8498 15.1373 43.0637 10.532 31.6761C10.4961 31.5876 10.5388 31.4869 10.6273 31.451C10.7157 31.4155 10.8165 31.4579 10.8523 31.5463C15.4798 42.9882 16.418 55.8245 16.3907 64.5785C16.361 74.0606 15.2223 80.9309 15.2111 80.9993C15.197 81.0836 15.1236 81.1434 15.041 81.1434V81.1437Z" fill="#7D97F4"/>
<path d="M74.0347 50.1009H92.395V84.8114C92.395 85.197 92.0819 85.5102 91.6963 85.5102H74.0347V50.1006V50.1009Z" fill="#7D97F4"/>
<g opacity="0.89">
<path opacity="0.67" d="M88.4766 59.7188H78.0614C78.0403 59.7188 78.0232 59.7359 78.0232 59.757V75.855C78.0232 75.8762 78.0403 75.8933 78.0614 75.8933H88.4766C88.4978 75.8933 88.5149 75.8762 88.5149 75.855V59.757C88.5149 59.7359 88.4978 59.7188 88.4766 59.7188Z" fill="white"/>
<path d="M87.7284 60.5928H83.6972C83.6855 60.5928 83.676 60.6023 83.676 60.6139V74.9978C83.676 75.0095 83.6855 75.019 83.6972 75.019H87.7284C87.7401 75.019 87.7495 75.0095 87.7495 74.9978V60.6139C87.7495 60.6023 87.7401 60.5928 87.7284 60.5928Z" fill="#7D97F4"/>
<path d="M82.8404 60.5928H78.8093C78.7976 60.5928 78.7881 60.6023 78.7881 60.6139V74.9978C78.7881 75.0095 78.7976 75.019 78.8093 75.019H82.8404C82.8521 75.019 82.8616 75.0095 82.8616 74.9978V60.6139C82.8616 60.6023 82.8521 60.5928 82.8404 60.5928Z" fill="#7D97F4"/>
</g>
<path d="M95.8517 52.8978H73.1627L72.2368 36.5658L90.9937 36.21L96.7456 51.4982C97.0485 52.1512 96.5717 52.8978 95.8517 52.8978Z" fill="url(#paint1_linear_987_6436)"/>
<path d="M91.0704 36.9603L73.041 36.7588L73.1541 34.9336L90.0055 35.062C90.6562 35.1023 91.1528 35.6307 91.1152 36.2417L91.0708 36.9603H91.0704Z" fill="url(#paint2_linear_987_6436)"/>
<path d="M27.9338 85.3883H10.3354C9.915 85.3883 9.57346 85.0468 9.57346 84.6264L9.57346 49.9791H27.9338L27.9338 85.3887V85.3883Z" fill="#7D97F4"/>
<g opacity="0.89">
<path opacity="0.67" d="M13.4919 75.7705H23.9071C23.9282 75.7705 23.9453 75.7534 23.9453 75.7323L23.9453 59.6342C23.9453 59.6131 23.9282 59.596 23.9071 59.596H13.4919C13.4707 59.596 13.4536 59.6131 13.4536 59.6342L13.4536 75.7323C13.4536 75.7534 13.4707 75.7705 13.4919 75.7705Z" fill="white"/>
<path d="M14.2401 74.8975H18.2713C18.283 74.8975 18.2925 74.888 18.2925 74.8763V60.4924C18.2925 60.4807 18.283 60.4713 18.2713 60.4713H14.2401C14.2284 60.4713 14.219 60.4807 14.219 60.4924L14.219 74.8763C14.219 74.888 14.2284 74.8975 14.2401 74.8975Z" fill="#7D97F4"/>
<path d="M19.1281 74.8975H23.1592C23.1709 74.8975 23.1804 74.888 23.1804 74.8763V60.4924C23.1804 60.4807 23.1709 60.4713 23.1592 60.4713H19.1281C19.1164 60.4713 19.1069 60.4807 19.1069 60.4924V74.8763C19.1069 74.888 19.1164 74.8975 19.1281 74.8975Z" fill="#7D97F4"/>
</g>
<path d="M6.11684 52.7748H28.8059L29.7318 36.4428L10.9749 36.0869L5.22304 51.3752C4.92009 52.0282 5.39688 52.7748 6.11684 52.7748Z" fill="url(#paint3_linear_987_6436)"/>
<path d="M10.8978 36.8372L28.9272 36.6357L28.8142 34.8105L11.9627 34.939C11.3121 34.9793 10.8155 35.5076 10.8531 36.1186L10.8975 36.8372H10.8978Z" fill="url(#paint4_linear_987_6436)"/>
<path d="M25.3965 47.835V84.0707C25.3965 85.6613 26.6858 86.9506 28.2763 86.9506H75.4922C76.0007 86.9506 76.4133 86.5383 76.4133 86.0294V47.835H25.3965Z" fill="#91B3FA"/>
<path d="M45.4512 64.0957H55.6194C55.6864 64.0957 55.741 64.1504 55.741 64.2173V84.4066H45.3296V64.2173C45.3296 64.1504 45.3842 64.0957 45.4512 64.0957Z" fill="#7D97F4"/>
<path d="M45.8442 64.8613H55.2273C55.2942 64.8613 55.3489 64.916 55.3489 64.9829V83.6404H45.7227V64.9829C45.7227 64.916 45.7773 64.8613 45.8442 64.8613Z" fill="url(#paint5_linear_987_6436)"/>
<path d="M55.0064 62.7285H46.0653C45.6592 62.7285 45.3303 62.3993 45.3303 61.9935V61.3514C45.3303 60.9652 45.6292 60.6448 46.0144 60.6182L54.9555 59.9969C55.3804 59.9675 55.7418 60.3043 55.7418 60.7302V61.9935C55.7418 62.3996 55.4125 62.7285 55.0068 62.7285H55.0064Z" fill="#BDD0FB"/>
<path d="M55.6708 85.6645H45.5224C45.0616 85.6645 44.688 85.2909 44.688 84.8302V84.1013C44.688 83.6628 45.022 82.4503 45.4592 82.4199L55.6131 82.564C56.0957 82.5306 56.5052 82.9128 56.5052 83.3964V84.8302C56.5052 85.2909 56.1315 85.6645 55.6708 85.6645Z" fill="#BDD0FB"/>
<path d="M55.6984 87.2519H45.55C45.0892 87.2519 44.7156 86.8783 44.7156 86.4176V85.6887C44.7156 85.2502 44.8115 84.4373 45.2487 84.4069L55.6407 84.1515C56.1233 84.118 56.5328 84.5002 56.5328 84.9838V86.4176C56.5328 86.8783 56.1591 87.2519 55.6984 87.2519Z" fill="#7D97F4"/>
<path d="M73.7027 58.7695H59.0631C59.0038 58.7695 58.9558 58.8175 58.9558 58.8768V82.4347C58.9558 82.4939 59.0038 82.5419 59.0631 82.5419H73.7027C73.7619 82.5419 73.81 82.4939 73.81 82.4347V58.8768C73.81 58.8175 73.7619 58.7695 73.7027 58.7695Z" fill="white"/>
<path d="M72.8563 59.7676H59.8789C59.8236 59.7676 59.7788 59.8124 59.7788 59.8677V81.5645C59.7788 81.6198 59.8236 81.6646 59.8789 81.6646H72.8563C72.9115 81.6646 72.9564 81.6198 72.9564 81.5645V59.8677C72.9564 59.8124 72.9115 59.7676 72.8563 59.7676Z" fill="#7D97F4"/>
<path d="M66.474 59.4658H65.7185V82.5418H66.474V59.4658Z" fill="white"/>
<path d="M42.6805 58.7695H28.0408C27.9816 58.7695 27.9336 58.8175 27.9336 58.8768V82.4347C27.9336 82.4939 27.9816 82.5419 28.0408 82.5419H42.6805C42.7397 82.5419 42.7877 82.4939 42.7877 82.4347V58.8768C42.7877 58.8175 42.7397 58.7695 42.6805 58.7695Z" fill="white"/>
<path d="M41.8333 59.7666H28.8559C28.8007 59.7666 28.7559 59.8114 28.7559 59.8667V81.5635C28.7559 81.6188 28.8007 81.6636 28.8559 81.6636H41.8333C41.8886 81.6636 41.9334 81.6188 41.9334 81.5635V59.8667C41.9334 59.8114 41.8886 59.7666 41.8333 59.7666Z" fill="#7D97F4"/>
<path d="M35.4518 59.4658H34.6963V82.5418H35.4518V59.4658Z" fill="white"/>
<path d="M77.0093 25.9568L76.5759 25.6293V25.1734H75.9728L50.9046 6.22656L25.5591 25.1734V47.8354H76.5759V28.2936L77.0093 25.9568Z" fill="#91B3FA"/>
<path d="M66.3152 8.43066H62.0955V15.3014H66.3152V8.43066Z" fill="#7D97F4"/>
<path d="M61.0935 7.43359H67.3891C67.5639 7.43359 67.706 7.57567 67.706 7.75054V9.54361H60.8855V7.64193C60.8855 7.52717 60.9787 7.43359 61.0938 7.43359H61.0935Z" fill="url(#paint6_linear_987_6436)"/>
<path d="M23.8535 28.7818L50.9259 8.02003L76.6235 27.9528C77.5576 28.6772 78.9275 28.1701 79.1645 27.0119L79.5248 25.2489L50.9259 3.46289L23.2432 24.6071C22.7476 24.9856 22.5676 25.6499 22.8047 26.2267L23.8535 28.7818Z" fill="url(#paint7_linear_987_6436)"/>
<g opacity="0.89">
<path d="M45.498 44.4775H55.9132C55.9343 44.4775 55.9514 44.4604 55.9514 44.4393V28.3413C55.9514 28.3201 55.9343 28.303 55.9132 28.303H45.498C45.4768 28.303 45.4597 28.3201 45.4597 28.3413V44.4393C45.4597 44.4604 45.4768 44.4775 45.498 44.4775Z" fill="white"/>
<path d="M50.2774 29.1768H46.2463C46.2346 29.1768 46.2251 29.1862 46.2251 29.1979V43.5818C46.2251 43.5935 46.2346 43.603 46.2463 43.603H50.2774C50.2891 43.603 50.2986 43.5935 50.2986 43.5818V29.1979C50.2986 29.1862 50.2891 29.1768 50.2774 29.1768Z" fill="#7D97F4"/>
<path d="M55.1654 29.1768H51.1342C51.1225 29.1768 51.113 29.1862 51.113 29.1979V43.5818C51.113 43.5935 51.1225 43.603 51.1342 43.603H55.1654C55.1771 43.603 55.1866 43.5935 55.1866 43.5818V29.1979C55.1866 29.1862 55.1771 29.1768 55.1654 29.1768Z" fill="#7D97F4"/>
</g>
<g opacity="0.89">
<path d="M30.7734 44.5918H41.1886C41.2097 44.5918 41.2268 44.5747 41.2268 44.5535V28.4555C41.2268 28.4344 41.2097 28.4173 41.1886 28.4173H30.7734C30.7522 28.4173 30.7351 28.4344 30.7351 28.4555V44.5535C30.7351 44.5747 30.7522 44.5918 30.7734 44.5918Z" fill="white"/>
<path d="M35.5528 29.291H31.5217C31.51 29.291 31.5005 29.3005 31.5005 29.3122V43.696C31.5005 43.7077 31.51 43.7172 31.5217 43.7172H35.5528C35.5645 43.7172 35.574 43.7077 35.574 43.696V29.3122C35.574 29.3005 35.5645 29.291 35.5528 29.291Z" fill="#7D97F4"/>
<path d="M40.4415 29.291H36.4103C36.3986 29.291 36.3892 29.3005 36.3892 29.3122V43.696C36.3892 43.7077 36.3986 43.7172 36.4103 43.7172H40.4415C40.4532 43.7172 40.4627 43.7077 40.4627 43.696V29.3122C40.4627 29.3005 40.4532 29.291 40.4415 29.291Z" fill="#7D97F4"/>
</g>
<g opacity="0.89">
<path d="M59.5829 44.7383H69.9981C70.0193 44.7383 70.0364 44.7212 70.0364 44.7V28.602C70.0364 28.5809 70.0193 28.5637 69.9981 28.5637H59.5829C59.5618 28.5637 59.5447 28.5809 59.5447 28.602V44.7C59.5447 44.7212 59.5618 44.7383 59.5829 44.7383Z" fill="white"/>
<path d="M64.3624 29.4375H60.3312C60.3195 29.4375 60.3101 29.447 60.3101 29.4587V43.8425C60.3101 43.8542 60.3195 43.8637 60.3312 43.8637H64.3624C64.3741 43.8637 64.3836 43.8542 64.3836 43.8425V29.4587C64.3836 29.447 64.3741 29.4375 64.3624 29.4375Z" fill="#7D97F4"/>
<path d="M69.2503 29.4375H65.2192C65.2075 29.4375 65.198 29.447 65.198 29.4587V43.8425C65.198 43.8542 65.2075 43.8637 65.2192 43.8637H69.2503C69.262 43.8637 69.2715 43.8542 69.2715 43.8425V29.4587C69.2715 29.447 69.262 29.4375 69.2503 29.4375Z" fill="#7D97F4"/>
</g>
<path d="M77.5942 47.3701H24.215C24.0658 47.3701 23.9448 47.4911 23.9448 47.6403V50.0218C23.9448 50.171 24.0658 50.292 24.215 50.292H77.5942C77.7434 50.292 77.8644 50.171 77.8644 50.0218V47.6403C77.8644 47.4911 77.7434 47.3701 77.5942 47.3701Z" fill="#7D97F4"/>
<path d="M77.0623 98.0572C77.062 98.0281 77.0637 97.9984 77.0712 97.9687C77.5121 96.22 79.7017 95.1309 79.7017 95.1309L80.5692 95.1988C81.0678 96.7402 81.004 97.6856 80.9237 98.1063C80.9213 98.1183 80.9179 98.1292 80.9148 98.1408C80.1993 98.2047 78.7263 98.2467 77.0623 98.0572Z" fill="url(#paint8_linear_987_6436)"/>
<path d="M80.9148 98.1413C80.8762 98.282 80.7724 98.3913 80.6395 98.4193C79.6214 98.6334 78.0035 98.461 77.3242 98.3722C77.1743 98.3527 77.0646 98.214 77.0623 98.0576C78.7262 98.2472 80.1993 98.2052 80.9148 98.1413Z" fill="#7D97F4"/>
<path d="M80.9179 93.9072L80.5504 95.6761C80.5234 95.8055 80.424 95.9028 80.3031 95.9141C80.1556 95.9281 79.9452 95.936 79.7338 95.9049C79.5442 95.8769 79.4124 95.6846 79.4459 95.4776L79.7013 93.9072H80.9176H80.9179Z" fill="url(#paint9_linear_987_6436)"/>
<path d="M73.3049 98.1192C74.2629 98.0922 74.7585 97.9795 75.0146 97.875C75.0153 97.9703 75.0146 98.0673 75.0116 98.1677C75.0081 98.2749 74.9289 98.3607 74.8309 98.36L69.5702 98.3262C69.4021 98.3251 69.3041 98.1305 69.3769 97.9764C70.0668 98.0335 71.8233 98.1609 73.3045 98.1195L73.3049 98.1192Z" fill="#7D97F4"/>
<path d="M69.3774 97.976C69.3839 97.9627 69.3891 97.949 69.3983 97.9364C69.8628 97.2871 71.0462 95.9944 73.3844 95.434L74.506 95.3984C74.506 95.3984 75.0053 96.2666 75.0149 97.8746C74.7587 97.9794 74.2631 98.0921 73.3051 98.1188C71.8239 98.1601 70.0673 98.0327 69.3774 97.9757V97.976Z" fill="url(#paint10_linear_987_6436)"/>
<path d="M74.7644 93.7498C74.7466 93.8324 74.5133 95.091 74.4228 95.579C74.4013 95.6948 74.3111 95.7802 74.2036 95.786C74.0116 95.7969 73.7018 95.798 73.4354 95.7256C73.2916 95.6866 73.1953 95.5401 73.2056 95.3775L73.3309 93.3867L74.7644 93.7498Z" fill="url(#paint11_linear_987_6436)"/>
<path d="M75.6136 70.5119C75.6136 70.5119 74.0706 81.115 72.9572 93.7321C72.9363 93.967 73.1238 94.1716 73.3544 94.2201C73.6945 94.2918 74.1945 94.3769 74.6085 94.3653C74.8295 94.3591 75.0142 94.1952 75.0515 93.9773C75.4309 91.7525 78.1376 79.8134 78.848 77.1856C78.848 77.1856 79.6639 88.3474 79.4033 94.1385C79.3968 94.2826 79.5024 94.4073 79.6455 94.424C79.8627 94.4493 80.21 94.4681 80.6523 94.4213C80.82 94.4035 80.9556 94.2765 80.9795 94.1095C81.2497 92.2266 82.8051 81.0197 82.7388 72.9468C82.735 72.4915 82.2046 68.751 82.2046 68.751L75.6136 70.5119Z" fill="url(#paint12_linear_987_6436)"/>
<path d="M75.0156 52.6807L74.8089 58.2289C74.2222 58.4308 73.6634 58.5879 73.1316 58.7054C72.799 57.634 72.0664 56.3194 71.4663 55.3416C73.6706 54.5625 75.0156 52.6807 75.0156 52.6807Z" fill="url(#paint13_linear_987_6436)"/>
<path d="M82.4362 71.1222C82.5951 71.0659 82.7054 70.9221 82.7228 70.7544C82.9281 68.7636 83.9216 56.4204 77.6492 51.3428C77.6492 51.3428 77.2896 50.4015 74.3329 52.7151C71.3762 55.0283 72.9593 57.4532 73.6673 60.7979C74.5238 64.8451 76.0266 68.1533 75.3616 70.6437C75.3159 70.8155 75.406 70.9962 75.573 71.0577C77.8699 71.904 80.1575 71.932 82.4362 71.1222Z" fill="url(#paint14_linear_987_6436)"/>
<path d="M75.2029 47.6445C75.2049 47.8201 77.7094 51.3775 77.7094 51.3775C77.7094 51.3775 77.26 52.2628 75.1137 52.9817L73.2612 49.1729L75.2029 47.6445Z" fill="url(#paint15_linear_987_6436)"/>
<path d="M76.4441 59.8177C76.4598 59.8177 76.4755 59.8132 76.4895 59.8037C78.4902 58.4518 79.4315 56.2698 79.4407 56.2479C79.4582 56.2066 79.439 56.1588 79.3977 56.1413C79.3564 56.1236 79.3086 56.1431 79.2911 56.1844C79.2819 56.2059 78.3584 58.3446 76.3987 59.6687C76.3614 59.694 76.3515 59.7442 76.3768 59.7818C76.3925 59.805 76.4181 59.8177 76.4441 59.8177Z" fill="url(#paint16_linear_987_6436)"/>
<path d="M73.4637 56.7937C73.4903 56.7937 73.5166 56.7804 73.532 56.7565C73.5381 56.7473 74.1492 55.7958 75.3135 53.711C75.6714 53.07 76.142 52.6642 76.7121 52.5044C77.6557 52.2407 78.5656 52.7465 78.5745 52.7516C78.6137 52.7732 78.6633 52.7602 78.6855 52.7213C78.7077 52.6823 78.694 52.6325 78.6551 52.6103C78.6158 52.5881 77.6803 52.0645 76.67 52.3473C76.0563 52.5184 75.5522 52.9504 75.1721 53.6311C74.0108 55.7107 73.4019 56.6588 73.3957 56.6681C73.3715 56.7056 73.3824 56.7562 73.42 56.7804C73.4336 56.7893 73.449 56.7934 73.464 56.7934L73.4637 56.7937Z" fill="url(#paint17_linear_987_6436)"/>
<path d="M73.231 45.6074C73.231 45.6074 72.34 47.6546 72.2799 48.7291C72.2201 49.8036 71.9885 50.5006 73.231 50.7172C74.4736 50.9337 75.52 50.3145 76.087 49.2445C76.087 49.2445 76.9753 47.5952 76.7762 46.92C76.5771 46.2447 73.231 45.6078 73.231 45.6078V45.6074Z" fill="url(#paint18_linear_987_6436)"/>
<path d="M75.6626 48.4741L75.5919 48.443C75.5017 48.4034 75.4635 48.2962 75.5086 48.2087C75.6838 47.8703 76.0253 47.0947 75.584 46.9136C75.0154 46.6804 72.7629 46.221 72.2769 45.4218C71.8097 44.6537 72.2237 43.6622 72.8456 43.3801C72.8873 43.3613 72.9364 43.3763 72.9576 43.4166L73.0095 43.5147C73.0451 43.5819 73.1441 43.5717 73.1653 43.4986C73.1854 43.4286 73.2787 43.4149 73.3173 43.4767C73.4665 43.7158 73.8699 44.1035 74.9484 44.3026C76.4813 44.5854 77.4946 45.2056 77.5199 46.2647C77.5216 46.332 77.593 46.3692 77.6507 46.3344C77.7637 46.2654 77.9451 46.233 78.1869 46.4365C78.6077 46.7903 78.4355 47.7087 77.5127 48.4639C77.469 48.4997 77.4693 48.568 77.5168 48.5991C77.6842 48.7081 77.9335 48.967 77.2873 49.3126C76.6189 49.6698 76.1199 49.6405 75.9276 49.6087C75.8798 49.6009 75.8491 49.5544 75.8593 49.5073L76.0646 48.5762C76.0762 48.5236 76.0362 48.4738 75.9823 48.4738H75.6629L75.6626 48.4741Z" fill="url(#paint19_linear_987_6436)"/>
<path d="M75.6243 48.6709C75.6243 48.6709 75.9641 47.3631 76.5505 47.7299C77.1369 48.0968 76.2462 49.1951 75.7749 49.244L75.6243 48.6709Z" fill="url(#paint20_linear_987_6436)"/>
<path d="M64.0837 52.2637C64.0837 52.2637 64.5304 51.4717 64.5021 51.0871C64.4737 50.7022 64.7135 50.1373 64.4583 50.1789C64.2032 50.2206 64.1506 50.1868 64.0813 50.6482C64.012 51.11 63.207 53.1264 64.0837 52.2637Z" fill="url(#paint21_linear_987_6436)"/>
<path d="M63.9998 51.0042L64.01 52.5862C67.0336 55.851 69.4811 56.0433 71.4658 55.3414C72.0659 56.3189 72.7985 57.6338 73.1311 58.7052C65.0561 60.4853 63.1548 53.062 63.1548 53.062C62.0612 52.6091 61.8406 52.3441 61.8877 52.047L63.9998 51.0039V51.0042Z" fill="url(#paint22_linear_987_6436)"/>
<path d="M61.6749 49.4346C61.9331 49.3297 62.4379 48.3669 62.5349 48.6839C62.6316 49.0005 62.4939 49.4346 62.5349 49.5695C62.5759 49.704 63.2053 51.2536 63.0796 51.5979C62.9888 51.8462 62.4891 51.8096 62.4126 52.216C62.3873 52.3509 62.2794 52.4476 62.1544 52.4476C62.0294 52.4476 61.9215 52.3509 61.8959 52.216C61.8856 52.1621 61.4167 49.5391 61.6749 49.4346Z" fill="url(#paint23_linear_987_6436)"/>
<path d="M52.8712 48.2063C52.9303 51.8789 55.3999 54.9473 58.7487 55.9285L58.7617 56.7263L58.7917 58.5891L59.6149 58.5758L59.636 59.9009L58.8129 59.9142L58.8235 60.5768L59.6466 60.5635L59.6589 61.3282L58.8358 61.3415L58.8529 62.4119L59.2426 62.4058L59.2648 63.7822L58.8751 63.7883L58.885 64.4L59.6422 64.3877L59.6685 66.0295L58.9113 66.0418L58.9314 67.3055L59.7545 67.2921L59.7761 68.6429L58.953 68.6562L58.9782 70.2287C58.9813 70.4145 59.052 70.5924 59.177 70.7297L61.2016 72.9507C61.3932 73.1608 61.6791 73.2414 61.9428 73.1779C61.9431 73.1779 61.9435 73.1779 61.9438 73.1779C61.9684 73.1721 61.993 73.1645 62.0169 73.156C62.0234 73.1536 62.0299 73.1512 62.036 73.1488C62.0548 73.1417 62.0736 73.1335 62.092 73.1249C62.0989 73.1215 62.1057 73.1188 62.1125 73.115C62.1364 73.1027 62.16 73.0894 62.1832 73.0744L63.5162 72.1983C63.7341 72.0552 63.8636 71.8103 63.8595 71.5494L63.6074 55.8506C66.9231 54.7625 69.293 51.6162 69.2339 47.9437C69.1615 43.4252 65.4398 39.8212 60.9212 39.8937C56.4027 39.9661 52.7988 43.6878 52.8712 48.2063ZM60.967 42.7482C61.882 42.7335 62.6354 43.4634 62.6501 44.3784C62.6648 45.2934 61.9349 46.0468 61.0199 46.0615C60.105 46.0762 59.3515 45.3463 59.3368 44.4313C59.3222 43.5163 60.052 42.7629 60.967 42.7482Z" fill="url(#paint24_linear_987_6436)"/>
<path d="M58.1831 51.1898L58.3026 58.6319L59.1257 58.6186L59.1469 59.9437L58.3238 59.9571L58.3344 60.6196L59.1575 60.6063L59.1698 61.371L58.3467 61.3843L58.3638 62.4547L58.7535 62.4486L58.7757 63.825L58.386 63.8311L58.3959 64.4428L59.1531 64.4305L59.1794 66.0723L58.4222 66.0846L58.4423 67.3483L59.2654 67.335L59.287 68.6857L58.4638 68.6991L58.4891 70.2715C58.4922 70.4573 58.5629 70.6352 58.6879 70.7725L60.7125 72.9935C60.9649 73.2702 61.3809 73.3228 61.6941 73.1168L63.0271 72.2408C63.245 72.0977 63.3745 71.8528 63.3704 71.5919L63.0664 52.6406L58.1834 51.1895L58.1831 51.1898Z" fill="url(#paint25_linear_987_6436)"/>
<path d="M60.4322 39.9366C55.914 40.009 52.3098 43.7308 52.3822 48.2493C52.4546 52.7678 56.1763 56.3718 60.6949 56.2993C65.2134 56.2269 68.8173 52.5052 68.7449 47.9867C68.6725 43.4681 64.9508 39.8642 60.4322 39.9366ZM60.5313 46.1044C59.6163 46.1191 58.8628 45.3893 58.8482 44.4743C58.8335 43.5593 59.5633 42.8059 60.4783 42.7912C61.3933 42.7765 62.1467 43.5064 62.1614 44.4214C62.1761 45.3363 61.4462 46.0898 60.5313 46.1044Z" fill="url(#paint26_linear_987_6436)"/>
<path d="M68.7449 47.9867C68.6725 43.4681 64.9508 39.8642 60.4322 39.9366C55.914 40.009 52.3098 43.7308 52.3822 48.2493C52.4413 51.9219 54.9109 54.9902 58.2597 55.9715L58.2723 56.7693C59.3038 56.7321 59.8202 57.0138 60.0989 57.3287C60.882 58.2137 60.3475 71.4489 61.0343 73.202C61.2499 73.2738 61.4927 73.2495 61.6939 73.1173L63.0269 72.2413C63.2448 72.0982 63.3742 71.8533 63.3701 71.5924L63.1181 55.8936C66.4337 54.8055 68.8036 51.6592 68.7446 47.9867H68.7449ZM60.478 42.7912C61.393 42.7765 62.1464 43.5064 62.1611 44.4214C62.1758 45.3363 61.4459 46.0898 60.5309 46.1044C59.6159 46.1191 58.8625 45.3893 58.8478 44.4743C58.8331 43.5593 59.563 42.8059 60.478 42.7912Z" fill="url(#paint27_linear_987_6436)"/>
<path d="M60.4583 41.5419C56.8267 41.6003 53.9298 44.5915 53.9882 48.223C54.0466 51.8546 57.0378 54.7515 60.6693 54.6931C64.3009 54.6347 67.1978 51.6435 67.1394 48.012C67.081 44.3804 64.0898 41.4835 60.4583 41.5419ZM60.5313 46.1041C59.6164 46.1188 58.8629 45.389 58.8482 44.474C58.8336 43.559 59.5634 42.8056 60.4784 42.7909C61.3934 42.7762 62.1468 43.5061 62.1615 44.421C62.1762 45.336 61.4463 46.0895 60.5313 46.1041Z" fill="url(#paint28_linear_987_6436)"/>
<path d="M76.4438 59.8178C76.4438 59.8178 68.7384 62.3971 64.4285 59.116C64.1611 58.9124 63.824 58.8236 63.4923 58.8776L61.8458 59.1457C61.1549 59.2584 60.4964 58.8103 60.3475 58.1262C60.2624 57.7358 60.2214 57.3089 60.3082 56.9424L63.4165 56.7549L63.3277 56.3516C63.3277 56.3516 64.7017 56.6876 64.7294 57.7625C64.7294 57.7625 67.9521 59.8735 73.83 56.5968C73.83 56.5968 76.119 58.3882 76.4441 59.8175L76.4438 59.8178Z" fill="url(#paint29_linear_987_6436)"/>
<path d="M83.33 55.4385C83.6466 54.7735 84.1992 54.337 84.5322 53.685C84.9519 52.864 84.9663 51.7768 84.6913 50.8622C84.4632 50.1033 84.0568 49.4479 83.8242 48.6914C83.511 47.6729 83.5052 47.2351 83.6479 46.2125C83.7736 45.3119 84.0489 44.3528 84.7286 43.8364C85.5694 43.1978 86.5978 43.0765 87.5603 43.3077C88.5593 43.5478 89.5279 44.0871 90.2587 44.9857C90.9896 45.8843 91.4661 47.1453 91.4538 48.438C91.4456 49.3127 91.2243 50.2143 91.4446 51.0425C91.616 51.6867 92.0614 52.201 92.5822 52.3558C93.1611 52.5275 93.7629 52.2762 94.3572 52.2857C94.9464 52.2956 95.5307 52.5733 95.9802 53.0573C96.3784 53.4862 96.6738 54.0877 96.7408 54.7458C96.8081 55.404 96.6277 56.112 96.2299 56.5416C95.9576 56.8354 95.5748 57.0345 95.4744 57.4699C95.362 57.9573 95.6919 58.4467 96.0598 58.6448C96.4276 58.8426 96.8415 58.8597 97.2155 59.0369C98.053 59.4331 98.5602 60.6333 98.4949 61.7665C98.4293 62.8997 97.8658 63.9253 97.1264 64.5633C96.387 65.2013 95.4897 65.4879 94.5994 65.5801C93.709 65.6723 92.8138 65.5821 91.9214 65.5285C90.9005 65.4674 89.8595 65.4503 88.8912 65.034C87.9124 64.6129 87.0664 63.8072 86.2778 62.9581C85.9045 62.5561 85.5257 62.1162 85.358 61.5315C85.2364 61.107 85.2358 60.6356 85.0957 60.2203C84.7955 59.3293 83.9628 58.9505 83.4813 58.1988C82.9929 57.4368 82.9293 56.2793 83.33 55.4385Z" fill="url(#paint30_linear_987_6436)"/>
<path d="M94.4049 57.0401C94.4066 57.0401 94.4086 57.0401 94.4107 57.0394C94.8328 56.9407 95.2051 56.5472 95.3588 56.038C95.5125 55.5281 95.4425 54.9195 95.1805 54.4871C94.7915 53.845 94.1064 53.6787 93.438 53.5632L92.2269 53.3542C91.5435 53.2364 90.8433 53.0676 90.4502 52.4256C90.0311 51.7404 90.1148 50.8046 90.1954 49.8995C90.2046 49.7961 90.2138 49.6933 90.222 49.5918C90.3279 48.2988 90.2217 47.1748 89.9058 46.2509C89.5205 45.1238 88.8019 44.2942 87.9843 44.0326C87.9676 44.0268 87.9512 44.0401 87.9467 44.061C87.9426 44.0818 87.9525 44.1033 87.9693 44.1084C88.7688 44.3642 89.4717 45.1768 89.8494 46.282C90.1609 47.1935 90.2658 48.3042 90.1609 49.5833C90.1527 49.6847 90.1435 49.7872 90.1343 49.8907C90.052 50.8115 89.9669 51.7637 90.4017 52.4737C90.8091 53.1394 91.5226 53.3122 92.2187 53.4321L93.4298 53.6411C94.0855 53.7541 94.757 53.916 95.1316 54.5349C95.3806 54.9461 95.4472 55.525 95.301 56.0097C95.1549 56.4943 94.801 56.8683 94.3994 56.9622C94.3827 56.9663 94.3714 56.9865 94.3745 57.008C94.3772 57.0271 94.3902 57.0401 94.4049 57.0401Z" fill="#BDD0FB"/>
<path d="M94.0238 56.5673C94.0388 56.5673 94.0541 56.5602 94.0658 56.5462C94.2136 56.3699 94.3817 56.1698 94.4811 55.9164C94.5716 55.6862 94.6167 55.3446 94.4719 55.0758C94.3776 54.9006 94.2236 54.8002 94.0712 54.7179C93.7013 54.5178 93.3127 54.3747 92.9158 54.2923C92.6576 54.2387 92.3933 54.2107 92.1378 54.1837C91.8079 54.1489 91.4667 54.1127 91.1402 54.0212C90.7498 53.9115 90.0493 53.6113 89.7443 52.8316C89.498 52.2015 89.5896 51.4986 89.6862 50.7544C89.7648 50.1512 89.8461 49.5272 89.7347 48.9343C89.7269 48.8923 89.6934 48.866 89.6603 48.8762C89.6271 48.8865 89.6066 48.9285 89.6145 48.9708C89.72 49.533 89.6408 50.141 89.5643 50.7291C89.4687 51.4651 89.3696 52.226 89.6336 52.9019C89.9612 53.7404 90.7013 54.0594 91.1132 54.1749C91.4479 54.2688 91.7932 54.3053 92.1272 54.3408C92.3803 54.3678 92.6422 54.3955 92.8957 54.4477C93.2826 54.528 93.6617 54.6677 94.0227 54.8627C94.1488 54.931 94.2898 55.0161 94.3701 55.165C94.4643 55.3402 94.4647 55.6079 94.3707 55.847C94.2809 56.0755 94.1286 56.2569 93.9814 56.4324C93.9565 56.4621 93.9551 56.5117 93.9787 56.5434C93.9906 56.5598 94.0074 56.5684 94.0238 56.5684V56.5673Z" fill="#BDD0FB"/>
<path d="M84.4985 54.1175C85.2195 53.8887 87.3223 53.4535 89.3589 55.2729C89.7042 55.5813 89.8511 56.0564 89.737 56.5052C89.2301 58.4981 87.9026 64.3827 89.1902 66.8989C89.1902 66.8989 87.032 69.3562 84.6037 67.4429C84.6037 67.4429 83.4527 62.7731 82.0111 60.7382C81.0158 59.3335 83.4759 55.3788 84.0989 54.4228C84.1931 54.278 84.3339 54.1697 84.4988 54.1175H84.4985Z" fill="url(#paint31_linear_987_6436)"/>
<path d="M86.4356 50.1436C86.4356 50.1436 87.5558 53.1569 87.658 54.4927C87.658 54.4927 86.4824 55.0501 85.3519 54.1594C85.3519 54.1594 85.1859 51.134 85.0083 50.5947L86.4356 50.1436Z" fill="url(#paint32_linear_987_6436)"/>
<path d="M84.881 46.0345C84.881 46.0345 82.1419 50.0015 83.8353 51.1138C85.5289 52.2259 87.4788 49.4068 87.4788 49.4068C87.4788 49.4068 88.0946 47.2497 87.4026 46.5325C86.711 45.8152 84.8807 46.0345 84.8807 46.0345H84.881Z" fill="url(#paint33_linear_987_6436)"/>
<path d="M86.1626 45.077C86.1626 45.077 84.8801 45.4029 84.709 45.9883C84.5379 46.5737 86.553 47.0815 87.1155 47.0989L87.6063 49.4422C87.6063 49.4422 88.9096 47.2093 88.3587 45.9408C87.8078 44.6723 86.1629 45.077 86.1629 45.077H86.1626Z" fill="url(#paint34_linear_987_6436)"/>
<path d="M86.9308 49.128C86.9308 49.128 88.0011 47.8472 88.4482 48.6638C88.8953 49.4805 87.4895 50.1215 86.9929 49.725L86.9304 49.128H86.9308Z" fill="url(#paint35_linear_987_6436)"/>
<path d="M81.9636 77.3294C81.9752 77.5422 81.6289 79.2359 81.44 80.1396C81.3642 80.503 81.4271 80.8814 81.6166 81.2008L88.849 92.9384C88.9364 93.0805 89.001 93.2345 89.0413 93.3964C89.1793 93.9504 89.4689 95.309 89.349 96.5512L88.9969 97.3135L90.5666 96.9303L90.8412 92.6942L90.3907 92.4295C90.0017 92.2007 89.696 91.8544 89.5174 91.4397C88.8558 89.9035 87.2113 85.9919 86.7728 84.0799C86.2745 81.9067 83.8247 80.1748 83.8247 80.1748L84.2338 79.1621L81.9633 77.3291L81.9636 77.3294Z" fill="url(#paint36_linear_987_6436)"/>
<path d="M92.2942 95.4455C92.2942 95.4455 91.4219 94.1104 91.3133 93.5868C91.2047 93.0636 90.9113 92.1408 90.3911 92.4283C90.3911 92.4283 90.1852 94.9827 90.2863 95.9779C90.3874 96.9732 89.1753 96.9605 89.1753 96.9605C89.1753 96.9605 88.8419 97.0128 88.6015 97.2614C88.4352 97.4329 88.5609 97.7239 88.7992 97.7355C89.1961 97.7546 89.8262 97.7512 90.4854 97.6129C90.716 97.5644 90.884 97.3649 90.8942 97.13L91.0216 94.1917L92.1166 95.5295L92.2942 95.4455Z" fill="url(#paint37_linear_987_6436)"/>
<path d="M86.2008 79.1491C86.2008 79.1491 86.6199 89.7456 86.6779 91.2508C86.7357 92.7559 86.5181 96.0965 85.0249 97.1184L85.6895 97.5941C85.6895 97.5941 86.499 96.8834 87.2794 95.5278C88.1558 94.0053 88.4239 93.7252 88.4239 93.7252L88.1151 93.1179C87.9799 92.8522 87.9365 92.5496 87.9922 92.2566C88.2924 90.6729 89.2958 85.4047 89.5745 84.2691C89.9034 82.9285 89.8997 81.1457 88.6568 79.6733C87.414 78.201 86.2012 79.1491 86.2012 79.1491H86.2008Z" fill="url(#paint38_linear_987_6436)"/>
<path d="M87.8988 98.0356C87.9456 98.0356 87.9849 98.0012 87.9907 97.9547C88.0351 97.6005 88.2216 96.1804 88.3865 95.8105C88.5757 95.3874 89.1874 93.6086 88.3486 93.4717C88.3486 93.4717 86.3178 96.5438 85.9251 96.9598C85.5323 97.3758 85.0244 97.1176 85.0244 97.1176C85.0244 97.1176 84.6371 97.2388 84.3499 97.6183C84.2133 97.799 84.3475 98.0589 84.574 98.0572L85.9749 98.0479C86.3817 98.0452 86.7437 97.7921 86.8889 97.412C87.1256 96.7921 87.5347 95.8819 88.0218 95.4731L87.8049 97.9335C87.8001 97.9885 87.8435 98.0356 87.8985 98.035L87.8988 98.0356Z" fill="url(#paint39_linear_987_6436)"/>
<path d="M84.2532 66.3057C84.2532 66.3057 84.5852 67.3067 84.1269 68.9717L81.2877 79.5256C81.2429 79.6915 81.3348 79.8627 81.4974 79.918C82.4024 80.2264 85.3752 81.0915 89.4091 80.7483C89.6123 80.7308 89.7803 80.5843 89.8213 80.3845C90.0682 79.1827 90.9101 75.0815 91.0836 74.2389C91.7442 71.0281 92.4839 67.5653 88.9518 65.5352C87.3506 66.2517 85.8533 66.6831 84.2532 66.305V66.3057Z" fill="url(#paint40_linear_987_6436)"/>
<path d="M89.6515 55.6641C89.6515 55.6641 93.1201 58.4535 94.0324 62.3268C94.9443 66.2002 89.0999 66.7077 89.0999 66.7077C89.0999 66.7077 88.2911 65.8334 87.3532 66.165C86.4154 66.4967 87.2552 64.6182 88.3587 64.6052C89.4622 64.5922 88.965 65.4731 90.5145 64.7408C92.0238 64.0277 92.9295 61.8825 88.9981 58.7161C88.7703 58.5327 88.5869 58.297 88.4745 58.0265C87.6903 56.1416 88.2679 54.8885 89.6515 55.6638V55.6641Z" fill="url(#paint41_linear_987_6436)"/>
<path d="M63.6207 73.1143C63.6207 73.1143 65.5872 78.4129 68.5781 77.7626C68.5781 77.7626 68.8865 79.5656 68.3831 79.7783C68.3831 79.7783 63.8966 79.9085 63.4509 73.7471L63.6207 73.1146V73.1143Z" fill="url(#paint42_linear_987_6436)"/>
<path d="M63.7048 74.3564C63.6963 74.4483 64.0378 74.5118 64.1464 74.1201C64.1167 73.95 64.0634 73.2058 63.9333 73.09C63.2393 72.4742 62.0012 71.7812 62.0012 71.7812C61.8629 71.9927 62.0443 72.1317 62.0443 72.1317L62.6621 72.5487C62.5976 72.7621 62.5036 72.951 62.493 73.1945C62.4848 73.379 62.5532 73.5596 62.6758 73.6997C62.7987 73.84 62.9644 74.0217 63.1136 74.1594C63.3961 74.42 63.7048 74.3561 63.7048 74.3561V74.3564Z" fill="url(#paint43_linear_987_6436)"/>
<path d="M63.3629 74.0552C63.2796 73.852 63.0399 73.3001 62.9326 73.1881C62.8554 73.1075 62.8199 73.0333 62.8243 72.9616C62.8281 72.9012 62.8592 72.8475 62.92 72.7977L62.9497 72.7734L63.5409 73.0894L63.7769 73.4592L63.6796 73.5211L63.4596 73.1768L62.9654 72.9124C62.9487 72.9316 62.9401 72.95 62.9388 72.9685C62.9364 73.0053 62.963 73.0535 63.0153 73.1085C63.157 73.2567 63.4374 73.9347 63.4692 74.0115L63.3626 74.0552H63.3629Z" fill="url(#paint44_linear_987_6436)"/>
<path fill-rule="evenodd" clip-rule="evenodd" d="M68.5492 70.9005C68.5492 70.9005 69.4987 70.0428 68.2777 69.1128C67.1305 68.2392 66.292 69.4117 66.6725 70.1658C66.6994 70.2194 66.669 70.284 66.6103 70.297C66.5102 70.3188 66.4235 70.4189 66.5816 70.771C66.5953 70.8014 66.5908 70.8366 66.571 70.8636C66.4303 71.0521 65.9614 71.8079 67.376 71.9234C67.4016 71.9254 67.4269 71.9169 67.446 71.8994L68.5492 70.9001V70.9005Z" fill="url(#paint45_linear_987_6436)"/>
<path fill-rule="evenodd" clip-rule="evenodd" d="M73.5373 72.1592C73.5373 72.1592 73.6285 71.0646 74.2143 70.708C74.8 70.3511 75.937 70.0478 76.4134 71.2378C76.6405 71.8054 76.5654 72.0755 76.4247 72.2026C76.2963 72.3187 76.2819 72.499 76.3666 72.6504C76.4633 72.8225 76.4759 73.0356 76.1853 73.2289C76.0995 73.286 76.0418 73.37 76.0234 73.4653C75.9476 73.8621 75.5415 74.814 73.3713 73.7733L73.5373 72.1589V72.1592Z" fill="url(#paint46_linear_987_6436)"/>
<path fill-rule="evenodd" clip-rule="evenodd" d="M71.0279 70.1912C71.4549 70.0082 72.3596 69.8217 73.0632 71.0523C73.1123 71.138 73.1834 71.209 73.2698 71.2568C73.6892 71.4881 74.9027 72.3282 73.7975 73.8443C73.7469 73.9137 73.7134 73.9939 73.7015 74.079C73.6646 74.3358 73.5423 74.9051 73.1748 75.0455C73.0652 75.0875 72.9727 75.1647 72.9119 75.2651C72.6649 75.6719 71.9607 76.5271 70.7755 75.6336C70.7151 75.5882 70.6458 75.5558 70.572 75.5394L68.9357 75.1791C68.8486 75.1599 68.7584 75.1637 68.6727 75.1886C68.4726 75.247 68.0685 75.2982 67.9179 74.8276C67.8872 74.7316 67.8305 74.6466 67.7536 74.5814C67.4794 74.3481 66.8967 73.7156 67.3373 72.8289C67.3865 72.7295 67.4046 72.6182 67.3878 72.5086C67.3363 72.1766 67.3093 71.4392 67.9982 71.1209C68.1016 71.0731 68.1881 70.9952 68.2406 70.8938C68.4705 70.4515 69.2195 69.3179 70.5395 70.1492C70.6861 70.2414 70.8684 70.2592 71.0276 70.1909L71.0279 70.1912Z" fill="url(#paint47_linear_987_6436)"/>
<path fill-rule="evenodd" clip-rule="evenodd" d="M68.8062 96.1953L69.0442 96.4706L68.881 97.0683C68.8383 97.2251 68.7092 97.3429 68.5494 97.3722C68.0176 97.4696 66.8116 97.6458 66.191 97.3787C66.191 97.3787 65.9981 96.0857 68.1358 96.4709L68.8062 96.1957V96.1953Z" fill="url(#paint48_linear_987_6436)"/>
<path fill-rule="evenodd" clip-rule="evenodd" d="M72.5342 96.8828L72.6609 97.194L72.6097 98.3145C72.6025 98.472 72.4755 98.6042 72.304 98.6308C72.0704 98.667 71.7303 98.7032 71.4102 98.6786C71.1599 98.6592 71.0028 98.4242 71.1008 98.2141L71.4782 97.4057C71.5346 97.2848 71.6377 97.1919 71.7637 97.1485L72.5339 96.8828H72.5342Z" fill="url(#paint49_linear_987_6436)"/>
<path fill-rule="evenodd" clip-rule="evenodd" d="M71.4484 75.036L71.692 77.4469C71.692 77.4469 70.3815 77.8913 69.5181 77.3896L69.7513 74.9688L71.4484 75.0357V75.036Z" fill="url(#paint50_linear_987_6436)"/>
<path fill-rule="evenodd" clip-rule="evenodd" d="M73.5508 88.2366C73.5508 88.2366 72.9285 95.1722 72.518 97.2945C72.518 97.2945 72.2106 97.5186 71.7506 97.2296L71.1921 87.9736L73.5508 88.2363V88.2366Z" fill="url(#paint51_linear_987_6436)"/>
<path fill-rule="evenodd" clip-rule="evenodd" d="M70.7867 88.6528L69.0824 96.42C69.0824 96.42 68.6186 96.9009 68.0161 96.42L68.3098 88.2549L70.7867 88.6531V88.6528Z" fill="url(#paint52_linear_987_6436)"/>
<path fill-rule="evenodd" clip-rule="evenodd" d="M72.9423 77.6289L73.3689 77.6764C74.1944 78.5616 75.7088 84.6448 76.2552 85.9382L78.478 85.5751C78.5651 85.5574 78.6361 85.6438 78.6026 85.7261C78.5039 85.9672 78.1337 86.6629 76.691 86.6629C76.0168 86.6629 77.0691 87.1862 76.6661 87.3655C76.6661 87.3655 75.7802 87.0465 75.7788 86.4857C75.7788 86.4857 73.2395 80.7017 72.7172 80.0928C72.195 79.4838 72.9427 77.6289 72.9427 77.6289H72.9423Z" fill="url(#paint53_linear_987_6436)"/>
<path fill-rule="evenodd" clip-rule="evenodd" d="M73.369 77.676C73.369 77.676 71.11 76.8389 68.2903 77.7054C68.2903 77.7054 67.9741 79.8403 68.137 80.8564L72.996 81.0323L73.3693 77.676H73.369Z" fill="url(#paint54_linear_987_6436)"/>
<path fill-rule="evenodd" clip-rule="evenodd" d="M68.2034 81.5235C68.2034 81.5235 66.6504 86.5086 66.4202 89.8304C66.4082 90.0011 66.537 90.1487 66.7078 90.161C67.0309 90.1842 67.6009 90.2638 68.3752 90.5216C69.6307 90.9397 70.6703 90.802 71.6088 90.5322C72.3455 90.3208 74.1881 90.1357 74.9463 90.066C75.127 90.0493 75.2544 89.8819 75.2226 89.7033C75.002 88.4745 74.1646 84.1123 72.8934 81.1475L68.2034 81.5238V81.5235Z" fill="url(#paint55_linear_987_6436)"/>
<path fill-rule="evenodd" clip-rule="evenodd" d="M68.1208 80.7412L68.2032 81.5237C68.2032 81.5237 69.6974 81.5295 72.9987 81.4185L73.0158 80.8526C73.0158 80.8526 69.3586 80.9243 68.1208 80.7416V80.7412Z" fill="url(#paint56_linear_987_6436)"/>
<path fill-rule="evenodd" clip-rule="evenodd" d="M68.1323 72.6989C67.7573 74.1487 67.8666 75.8147 69.5722 76.1884C70.7522 76.4469 71.9923 75.2447 72.3677 73.7949C72.7427 72.3451 72.1006 71.2412 70.9308 70.9386C69.7614 70.636 68.5073 71.2494 68.1323 72.6989Z" fill="url(#paint57_linear_987_6436)"/>
<path fill-rule="evenodd" clip-rule="evenodd" d="M68.26 73.1453C68.26 73.1453 68.204 72.2686 67.7668 72.5391C67.3297 72.8096 67.9359 73.8602 68.2061 73.9217C68.4762 73.9831 68.26 73.1453 68.26 73.1453Z" fill="url(#paint58_linear_987_6436)"/>
<path fill-rule="evenodd" clip-rule="evenodd" d="M72.0005 74.157C72.0005 74.157 72.1314 73.4883 72.6051 73.7974C73.0788 74.1065 72.1751 75.1991 71.6177 74.9559L72.0005 74.157Z" fill="url(#paint59_linear_987_6436)"/>
<path fill-rule="evenodd" clip-rule="evenodd" d="M72.7015 73.6254C72.7015 73.6254 71.3453 75.0937 70.6407 72.0468C70.6407 72.0468 69.9375 72.957 69.6164 72.152C69.6164 72.152 68.2165 72.6319 68.0617 72.043C67.907 71.4542 69.9542 69.8576 71.6007 71.0034C73.247 72.1493 72.7015 73.6254 72.7015 73.6254Z" fill="url(#paint60_linear_987_6436)"/>
<path d="M26.5365 97.9619C26.5361 97.9345 26.5378 97.9065 26.545 97.8785C26.9603 96.2316 28.6588 95.3877 28.6588 95.3877L29.4757 95.4516C29.9454 96.9031 30.2483 97.6118 30.1728 98.0083C30.1708 98.0196 30.1674 98.0302 30.1643 98.0408C29.4904 98.1009 28.1031 98.1402 26.5361 97.9619H26.5365Z" fill="url(#paint61_linear_987_6436)"/>
<path d="M30.1643 98.0408C30.1277 98.1733 30.0301 98.2765 29.9051 98.3028C28.9464 98.5043 27.4228 98.342 26.7827 98.2584C26.6417 98.2399 26.5385 98.1095 26.5361 97.9619C28.1031 98.1402 29.4904 98.1009 30.1643 98.0408Z" fill="#7D97F4"/>
<path d="M27.9863 94.1166L28.3439 95.8386C28.3702 95.9646 28.4672 96.0592 28.5847 96.0701C28.7285 96.0835 28.9331 96.0917 29.139 96.0613C29.3234 96.0343 29.4522 95.8468 29.4194 95.6453L29.1708 94.1162H27.9867L27.9863 94.1166Z" fill="url(#paint62_linear_987_6436)"/>
<path d="M37.1059 98.0264C36.2333 98.0018 35.7821 97.8993 35.5488 97.8037C35.5481 97.8905 35.5488 97.9789 35.5516 98.0701C35.5546 98.1678 35.627 98.246 35.7158 98.2453L40.5066 98.2142C40.6596 98.2132 40.7487 98.036 40.6825 97.8956C40.0544 97.9475 38.4546 98.0636 37.1056 98.0257L37.1059 98.0264Z" fill="#7D97F4"/>
<path d="M40.6833 97.8962C40.6775 97.8839 40.6727 97.8716 40.6645 97.86C40.2414 97.2688 39.1638 96.0915 37.0343 95.5809L36.0128 95.5488C36.0128 95.5488 35.5579 96.3395 35.5493 97.804C35.7826 97.8993 36.2341 98.0021 37.1064 98.0267C38.4551 98.0643 40.0552 97.9485 40.6833 97.8966V97.8962Z" fill="url(#paint63_linear_987_6436)"/>
<path d="M35.8235 94.0009C35.8348 94.077 35.9748 95.2342 36.0291 95.683C36.0421 95.7895 36.1193 95.8722 36.2166 95.8838C36.3904 95.9046 36.6719 95.9234 36.9181 95.8729C37.051 95.8455 37.1473 95.7181 37.1473 95.5696V93.7529L35.8235 94.0005V94.0009Z" fill="url(#paint64_linear_987_6436)"/>
<path d="M28.6689 71.5042C28.6689 71.5042 27.0343 86.0343 27.9424 95.1154C27.9424 95.1154 29.0323 95.1154 29.577 94.9337C29.577 94.9337 31.2755 80.7271 31.825 76.6618C31.8458 76.5085 32.0644 76.5016 32.0945 76.6533C32.7724 80.0734 35.4354 93.4853 35.752 94.752C35.752 94.752 36.6602 95.1154 37.3866 94.752C37.3866 94.752 35.9337 75.3182 34.8439 71.8673L28.6685 71.5039L28.6689 71.5042Z" fill="url(#paint65_linear_987_6436)"/>
<path d="M25.3996 54.613C25.3996 54.613 32.3014 53.5232 37.75 54.9764L37.3866 60.6067C37.3866 60.6067 35.9337 68.4166 34.8438 71.8675C34.8438 71.8675 30.6665 72.594 28.6685 71.5041C28.6685 71.5041 27.0339 61.6965 26.1257 60.2433C26.1257 60.2433 25.2176 56.4293 25.3993 54.613H25.3996Z" fill="url(#paint66_linear_987_6436)"/>
<path d="M30.1946 49.6504L29.5071 54.3001C29.5071 54.3001 31.4279 55.1826 32.7729 54.2622L32.4832 50.9807L30.1946 49.6504Z" fill="url(#paint67_linear_987_6436)"/>
<path d="M33.1536 46.6221C33.1751 46.6614 33.5898 49.0061 33.8449 50.4573C33.9504 51.057 33.5095 51.6141 32.9016 51.6499L32.3448 51.6827C31.3223 51.7432 30.4216 51.0153 30.2666 50.0027L29.8643 47.3735C29.8643 47.3735 32.6276 45.6682 33.1533 46.6218L33.1536 46.6221Z" fill="url(#paint68_linear_987_6436)"/>
<path d="M29.2651 47.3804C29.0517 47.1151 28.8656 46.6861 29.3201 46.2349C29.7802 45.7783 30.3021 45.892 30.633 46.045C30.7795 46.113 30.9602 46.0829 31.0644 45.9596C31.1108 45.905 31.1795 45.8678 31.2816 45.879C31.4742 45.9006 31.646 45.7735 31.6686 45.5812C31.7078 45.2516 31.8834 44.8633 32.4664 44.7506C33.5357 44.544 34.0689 45.614 34.0497 46.3661C34.0306 47.1181 32.8588 47.2763 32.1938 47.1516C31.7054 47.0597 31.2833 47.4891 31.0934 47.7233C31.0244 47.8084 30.9988 47.9197 31.0237 48.0263L31.1928 48.7527C31.0756 48.9785 30.9609 49.2094 30.7963 49.402C30.6777 49.5407 30.548 49.6175 30.4103 49.6496C30.2109 49.2787 29.6535 49.2155 29.3943 49.2073C29.2952 49.2043 29.2026 49.1605 29.1374 49.0857C28.9421 48.8617 28.636 48.3613 29.2218 47.8702C29.3673 47.7483 29.384 47.5283 29.2648 47.3801L29.2651 47.3804Z" fill="url(#paint69_linear_987_6436)"/>
<path d="M30.6026 50.4275C30.6026 50.4275 30.5797 49.1157 30.0486 48.9924C29.5175 48.8691 28.9448 49.253 29.399 50.0385C29.9639 51.0157 30.6026 50.4275 30.6026 50.4275Z" fill="url(#paint70_linear_987_6436)"/>
<path d="M25.3996 54.6133C25.3996 54.6133 14.6838 66.2372 27.3067 70.6871V69.7789C27.3067 69.7789 22.5846 65.7833 26.2169 60.3344C26.2169 60.3344 25.7626 55.158 25.3996 54.6133Z" fill="url(#paint71_linear_987_6436)"/>
<path d="M27.397 69.869C27.397 69.869 29.0316 68.7791 29.7581 69.1425C30.4845 69.5059 30.4845 70.0507 30.4845 70.0507C30.4845 70.0507 30.1211 70.7771 29.5764 70.5954C29.0316 70.4137 27.7601 70.7771 27.2153 70.5954C27.2153 70.5954 27.0336 69.869 27.397 69.869Z" fill="url(#paint72_linear_987_6436)"/>
<path d="M46.1063 58.7181C42.6466 59.2373 40.7029 56.8752 39.0228 55.5511C36.8042 53.8027 34.7666 54.8325 34.7666 54.8325L36.9497 59.9279C40.4829 63.2592 44.2883 61.9392 46.5718 60.8596C46.607 59.9876 46.3738 59.2578 46.1063 58.7181Z" fill="url(#paint73_linear_987_6436)"/>
<path d="M50.9692 56.6543L49.8219 57.2718C48.4459 58.1096 47.2146 58.5522 46.1067 58.7186C46.3741 59.2578 46.6074 59.9877 46.5722 60.86C48.0261 60.1728 48.9374 59.348 48.9374 59.348C51.5365 57.7981 50.9692 56.6546 50.9692 56.6546V56.6543Z" fill="url(#paint74_linear_987_6436)"/>
<path d="M54.349 58.271C54.2749 58.0247 54.0929 57.8256 53.8545 57.7297L51.5259 56.7932C51.5259 56.7932 51.4907 56.4947 52.0177 56.2914C52.5447 56.0886 52.4217 55.498 52.4217 55.498C52.4217 55.498 51.7018 55.8266 50.6474 56.3475C50.0446 56.6453 49.7062 57.1716 49.5269 57.5674L50.1263 58.3557C51.5614 58.7867 53.0136 58.8694 54.4781 58.6983L54.3494 58.2703L54.349 58.271Z" fill="url(#paint75_linear_987_6436)"/>
<defs>
<linearGradient id="paint0_linear_987_6436" x1="103.531" y1="110.898" x2="33.4042" y2="35.2054" gradientUnits="userSpaceOnUse">
<stop stop-color="#DAE3FE"/>
<stop offset="1" stop-color="#E9EFFD"/>
</linearGradient>
<linearGradient id="paint1_linear_987_6436" x1="112.206" y1="-19.1324" x2="99.8009" y2="9.32481" gradientUnits="userSpaceOnUse">
<stop stop-color="#4F52FF"/>
<stop offset="1" stop-color="#4042E2"/>
</linearGradient>
<linearGradient id="paint2_linear_987_6436" x1="82.2851" y1="34.9626" x2="87.987" y2="2.47897" gradientUnits="userSpaceOnUse">
<stop stop-color="#4F52FF"/>
<stop offset="1" stop-color="#4042E2"/>
</linearGradient>
<linearGradient id="paint3_linear_987_6436" x1="49.8856" y1="-13.7421" x2="25.8065" y2="32.9571" gradientUnits="userSpaceOnUse">
<stop stop-color="#4F52FF"/>
<stop offset="1" stop-color="#4042E2"/>
</linearGradient>
<linearGradient id="paint4_linear_987_6436" x1="21.9821" y1="24.3773" x2="27.684" y2="-8.10636" gradientUnits="userSpaceOnUse">
<stop stop-color="#4F52FF"/>
<stop offset="1" stop-color="#4042E2"/>
</linearGradient>
<linearGradient id="paint5_linear_987_6436" x1="45.7227" y1="74.2509" x2="55.3489" y2="74.2509" gradientUnits="userSpaceOnUse">
<stop stop-color="#4F52FF"/>
<stop offset="1" stop-color="#4042E2"/>
</linearGradient>
<linearGradient id="paint6_linear_987_6436" x1="79.5218" y1="-34.4785" x2="72.0688" y2="-13.4043" gradientUnits="userSpaceOnUse">
<stop stop-color="#4F52FF"/>
<stop offset="1" stop-color="#4042E2"/>
</linearGradient>
<linearGradient id="paint7_linear_987_6436" x1="57.8348" y1="-31.7001" x2="53.457" y2="5.51348" gradientUnits="userSpaceOnUse">
<stop stop-color="#4F52FF"/>
<stop offset="1" stop-color="#4042E2"/>
</linearGradient>
<linearGradient id="paint8_linear_987_6436" x1="80.9787" y1="96.6627" x2="77.0623" y2="96.6627" gradientUnits="userSpaceOnUse">
<stop stop-color="#09005D"/>
<stop offset="1" stop-color="#1A0F91"/>
</linearGradient>
<linearGradient id="paint9_linear_987_6436" x1="79.8895" y1="92.2047" x2="80.6375" y2="98.7335" gradientUnits="userSpaceOnUse">
<stop stop-color="#A22B25"/>
<stop offset="1" stop-color="#C0423C"/>
</linearGradient>
<linearGradient id="paint10_linear_987_6436" x1="75.0152" y1="96.7629" x2="69.3778" y2="96.7629" gradientUnits="userSpaceOnUse">
<stop stop-color="#09005D"/>
<stop offset="1" stop-color="#1A0F91"/>
</linearGradient>
<linearGradient id="paint11_linear_987_6436" x1="73.8964" y1="92.908" x2="74.2318" y2="99.471" gradientUnits="userSpaceOnUse">
<stop stop-color="#A22B25"/>
<stop offset="1" stop-color="#C0423C"/>
</linearGradient>
<linearGradient id="paint12_linear_987_6436" x1="74.9306" y1="98.3637" x2="82.6736" y2="61.4414" gradientUnits="userSpaceOnUse">
<stop stop-color="#09005D"/>
<stop offset="1" stop-color="#1A0F91"/>
</linearGradient>
<linearGradient id="paint13_linear_987_6436" x1="-429.846" y1="-362.561" x2="-412.568" y2="-348.22" gradientUnits="userSpaceOnUse">
<stop stop-color="#FF928E"/>
<stop offset="1" stop-color="#FE7062"/>
</linearGradient>
<linearGradient id="paint14_linear_987_6436" x1="78.6431" y1="58.2084" x2="75.5327" y2="73.875" gradientUnits="userSpaceOnUse">
<stop stop-color="#FEBBBA"/>
<stop offset="1" stop-color="#FF928E"/>
</linearGradient>
<linearGradient id="paint15_linear_987_6436" x1="74.7165" y1="54.1771" x2="76.79" y2="43.6557" gradientUnits="userSpaceOnUse">
<stop stop-color="#A22B25"/>
<stop offset="1" stop-color="#C0423C"/>
</linearGradient>
<linearGradient id="paint16_linear_987_6436" x1="16.8082" y1="-164.008" x2="23.7199" y2="-138.896" gradientUnits="userSpaceOnUse">
<stop stop-color="#FF928E"/>
<stop offset="1" stop-color="#FE7062"/>
</linearGradient>
<linearGradient id="paint17_linear_987_6436" x1="15.9129" y1="-163.762" x2="22.8246" y2="-138.649" gradientUnits="userSpaceOnUse">
<stop stop-color="#FF928E"/>
<stop offset="1" stop-color="#FE7062"/>
</linearGradient>
<linearGradient id="paint18_linear_987_6436" x1="-70.7004" y1="-321.827" x2="-67.6286" y2="-313.994" gradientUnits="userSpaceOnUse">
<stop stop-color="#A22B25"/>
<stop offset="1" stop-color="#C0423C"/>
</linearGradient>
<linearGradient id="paint19_linear_987_6436" x1="76.6309" y1="44.3224" x2="71.8859" y2="50.4311" gradientUnits="userSpaceOnUse">
<stop stop-color="#09005D"/>
<stop offset="1" stop-color="#1A0F91"/>
</linearGradient>
<linearGradient id="paint20_linear_987_6436" x1="-69.238" y1="-322.4" x2="-66.1662" y2="-314.566" gradientUnits="userSpaceOnUse">
<stop stop-color="#A22B25"/>
<stop offset="1" stop-color="#C0423C"/>
</linearGradient>
<linearGradient id="paint21_linear_987_6436" x1="61.6181" y1="49.1581" x2="72.4049" y2="58.4759" gradientUnits="userSpaceOnUse">
<stop stop-color="#A22B25"/>
<stop offset="1" stop-color="#C0423C"/>
</linearGradient>
<linearGradient id="paint22_linear_987_6436" x1="67.9199" y1="52.0661" x2="65.328" y2="72.9733" gradientUnits="userSpaceOnUse">
<stop stop-color="#A22B25"/>
<stop offset="1" stop-color="#C0423C"/>
</linearGradient>
<linearGradient id="paint23_linear_987_6436" x1="61.2193" y1="49.62" x2="72.0057" y2="58.9375" gradientUnits="userSpaceOnUse">
<stop stop-color="#A22B25"/>
<stop offset="1" stop-color="#C0423C"/>
</linearGradient>
<linearGradient id="paint24_linear_987_6436" x1="57.3058" y1="24.6428" x2="64.9279" y2="72.3176" gradientUnits="userSpaceOnUse">
<stop stop-color="#E1473D"/>
<stop offset="1" stop-color="#E9605A"/>
</linearGradient>
<linearGradient id="paint25_linear_987_6436" x1="42.0569" y1="57.6973" x2="66.6305" y2="63.9957" gradientUnits="userSpaceOnUse">
<stop stop-color="#FF928E"/>
<stop offset="1" stop-color="#FE7062"/>
</linearGradient>
<linearGradient id="paint26_linear_987_6436" x1="52.5141" y1="43.025" x2="88.7522" y2="65.9681" gradientUnits="userSpaceOnUse">
<stop stop-color="#FF9085"/>
<stop offset="1" stop-color="#FB6FBB"/>
</linearGradient>
<linearGradient id="paint27_linear_987_6436" x1="53.3343" y1="49.0065" x2="73.7174" y2="66.2165" gradientUnits="userSpaceOnUse">
<stop stop-color="#FEBBBA"/>
<stop offset="1" stop-color="#FF928E"/>
</linearGradient>
<linearGradient id="paint28_linear_987_6436" x1="62.1072" y1="38.1654" x2="53.3526" y2="94.6114" gradientUnits="userSpaceOnUse">
<stop stop-color="#FF928E"/>
<stop offset="1" stop-color="#FE7062"/>
</linearGradient>
<linearGradient id="paint29_linear_987_6436" x1="91.2085" y1="40.4943" x2="80.8414" y2="48.6154" gradientUnits="userSpaceOnUse">
<stop stop-color="#A22B25"/>
<stop offset="1" stop-color="#C0423C"/>
</linearGradient>
<linearGradient id="paint30_linear_987_6436" x1="82.7203" y1="47.8994" x2="105.022" y2="72.2875" gradientUnits="userSpaceOnUse">
<stop stop-color="#09005D"/>
<stop offset="1" stop-color="#1A0F91"/>
</linearGradient>
<linearGradient id="paint31_linear_987_6436" x1="115.966" y1="36.3227" x2="98.688" y2="50.6639" gradientUnits="userSpaceOnUse">
<stop stop-color="#FF928E"/>
<stop offset="1" stop-color="#FE7062"/>
</linearGradient>
<linearGradient id="paint32_linear_987_6436" x1="84.8383" y1="56.0436" x2="86.4842" y2="52.2249" gradientUnits="userSpaceOnUse">
<stop stop-color="#FEBBBA"/>
<stop offset="1" stop-color="#FF928E"/>
</linearGradient>
<linearGradient id="paint33_linear_987_6436" x1="84.6022" y1="46.8313" x2="88.1875" y2="54.2757" gradientUnits="userSpaceOnUse">
<stop stop-color="#FEBBBA"/>
<stop offset="1" stop-color="#FF928E"/>
</linearGradient>
<linearGradient id="paint34_linear_987_6436" x1="86.1551" y1="45.6307" x2="110.268" y2="71.9994" gradientUnits="userSpaceOnUse">
<stop stop-color="#09005D"/>
<stop offset="1" stop-color="#1A0F91"/>
</linearGradient>
<linearGradient id="paint35_linear_987_6436" x1="86.2196" y1="46.0529" x2="89.8049" y2="53.4972" gradientUnits="userSpaceOnUse">
<stop stop-color="#FEBBBA"/>
<stop offset="1" stop-color="#FF928E"/>
</linearGradient>
<linearGradient id="paint36_linear_987_6436" x1="95.1723" y1="103.104" x2="82.0836" y2="80.3528" gradientUnits="userSpaceOnUse">
<stop stop-color="#FEBBBA"/>
<stop offset="1" stop-color="#FF928E"/>
</linearGradient>
<linearGradient id="paint37_linear_987_6436" x1="92.2988" y1="95.0475" x2="88.517" y2="95.0726" gradientUnits="userSpaceOnUse">
<stop stop-color="#09005D"/>
<stop offset="1" stop-color="#1A0F91"/>
</linearGradient>
<linearGradient id="paint38_linear_987_6436" x1="80.3995" y1="86.3064" x2="99.7885" y2="92.3649" gradientUnits="userSpaceOnUse">
<stop stop-color="#FEBBBA"/>
<stop offset="1" stop-color="#FF928E"/>
</linearGradient>
<linearGradient id="paint39_linear_987_6436" x1="88.7971" y1="95.7538" x2="84.2892" y2="95.7837" gradientUnits="userSpaceOnUse">
<stop stop-color="#09005D"/>
<stop offset="1" stop-color="#1A0F91"/>
</linearGradient>
<linearGradient id="paint40_linear_987_6436" x1="85.8093" y1="75.3957" x2="92.2022" y2="64.8558" gradientUnits="userSpaceOnUse">
<stop stop-color="#E1473D"/>
<stop offset="1" stop-color="#E9605A"/>
</linearGradient>
<linearGradient id="paint41_linear_987_6436" x1="93.3779" y1="67.7007" x2="74.7124" y2="40.9654" gradientUnits="userSpaceOnUse">
<stop stop-color="#FEBBBA"/>
<stop offset="1" stop-color="#FF928E"/>
</linearGradient>
<linearGradient id="paint42_linear_987_6436" x1="64.9769" y1="75.4495" x2="69.6525" y2="81.9117" gradientUnits="userSpaceOnUse">
<stop stop-color="#FEBBBA"/>
<stop offset="1" stop-color="#FF928E"/>
</linearGradient>
<linearGradient id="paint43_linear_987_6436" x1="65.1761" y1="75.9733" x2="70.2667" y2="83.0092" gradientUnits="userSpaceOnUse">
<stop stop-color="#FEBBBA"/>
<stop offset="1" stop-color="#FF928E"/>
</linearGradient>
<linearGradient id="paint44_linear_987_6436" x1="62.8237" y1="73.4145" x2="63.7769" y2="73.4145" gradientUnits="userSpaceOnUse">
<stop stop-color="#FF928E"/>
<stop offset="1" stop-color="#FE7062"/>
</linearGradient>
<linearGradient id="paint45_linear_987_6436" x1="65.7937" y1="68.9615" x2="69.47" y2="72.2055" gradientUnits="userSpaceOnUse">
<stop stop-color="#09005D"/>
<stop offset="1" stop-color="#1A0F91"/>
</linearGradient>
<linearGradient id="paint46_linear_987_6436" x1="76.4935" y1="72.5703" x2="73.5565" y2="72.0424" gradientUnits="userSpaceOnUse">
<stop stop-color="#09005D"/>
<stop offset="1" stop-color="#1A0F91"/>
</linearGradient>
<linearGradient id="paint47_linear_987_6436" x1="-62.3055" y1="-60.3246" x2="-48.4345" y2="-46.4067" gradientUnits="userSpaceOnUse">
<stop stop-color="#09005D"/>
<stop offset="1" stop-color="#1A0F91"/>
</linearGradient>
<linearGradient id="paint48_linear_987_6436" x1="69.0442" y1="96.8576" x2="66.1866" y2="96.8576" gradientUnits="userSpaceOnUse">
<stop stop-color="#E1473D"/>
<stop offset="1" stop-color="#E9605A"/>
</linearGradient>
<linearGradient id="paint49_linear_987_6436" x1="72.6613" y1="97.7848" x2="71.0718" y2="97.7848" gradientUnits="userSpaceOnUse">
<stop stop-color="#E1473D"/>
<stop offset="1" stop-color="#E9605A"/>
</linearGradient>
<linearGradient id="paint50_linear_987_6436" x1="70.834" y1="79.7451" x2="70.6042" y2="77.408" gradientUnits="userSpaceOnUse">
<stop stop-color="#FEBBBA"/>
<stop offset="1" stop-color="#FF928E"/>
</linearGradient>
<linearGradient id="paint51_linear_987_6436" x1="60.5368" y1="55.6334" x2="50.9106" y2="26.1529" gradientUnits="userSpaceOnUse">
<stop stop-color="#FEBBBA"/>
<stop offset="1" stop-color="#FF928E"/>
</linearGradient>
<linearGradient id="paint52_linear_987_6436" x1="57.6583" y1="56.5732" x2="48.0321" y2="27.0927" gradientUnits="userSpaceOnUse">
<stop stop-color="#FEBBBA"/>
<stop offset="1" stop-color="#FF928E"/>
</linearGradient>
<linearGradient id="paint53_linear_987_6436" x1="79.6945" y1="89.2033" x2="71.9782" y2="78.6013" gradientUnits="userSpaceOnUse">
<stop stop-color="#FEBBBA"/>
<stop offset="1" stop-color="#FF928E"/>
</linearGradient>
<linearGradient id="paint54_linear_987_6436" x1="118.634" y1="39.5368" x2="101.355" y2="53.878" gradientUnits="userSpaceOnUse">
<stop stop-color="#FF928E"/>
<stop offset="1" stop-color="#FE7062"/>
</linearGradient>
<linearGradient id="paint55_linear_987_6436" x1="122.189" y1="43.8198" x2="104.91" y2="58.161" gradientUnits="userSpaceOnUse">
<stop stop-color="#FF928E"/>
<stop offset="1" stop-color="#FE7062"/>
</linearGradient>
<linearGradient id="paint56_linear_987_6436" x1="119.44" y1="40.5089" x2="102.162" y2="54.8504" gradientUnits="userSpaceOnUse">
<stop stop-color="#E1473D"/>
<stop offset="1" stop-color="#E9605A"/>
</linearGradient>
<linearGradient id="paint57_linear_987_6436" x1="69.9886" y1="76.5762" x2="70.4835" y2="71.8107" gradientUnits="userSpaceOnUse">
<stop stop-color="#FEBBBA"/>
<stop offset="1" stop-color="#FF928E"/>
</linearGradient>
<linearGradient id="paint58_linear_987_6436" x1="67.6752" y1="76.0614" x2="68.1803" y2="71.5199" gradientUnits="userSpaceOnUse">
<stop stop-color="#FEBBBA"/>
<stop offset="1" stop-color="#FF928E"/>
</linearGradient>
<linearGradient id="paint59_linear_987_6436" x1="71.9595" y1="76.5387" x2="72.4646" y2="71.9969" gradientUnits="userSpaceOnUse">
<stop stop-color="#FEBBBA"/>
<stop offset="1" stop-color="#FF928E"/>
</linearGradient>
<linearGradient id="paint60_linear_987_6436" x1="-61.9301" y1="-60.6975" x2="-48.0595" y2="-46.7797" gradientUnits="userSpaceOnUse">
<stop stop-color="#09005D"/>
<stop offset="1" stop-color="#1A0F91"/>
</linearGradient>
<linearGradient id="paint61_linear_987_6436" x1="30.317" y1="135.621" x2="28.9457" y2="109.192" gradientUnits="userSpaceOnUse">
<stop stop-color="#09005D"/>
<stop offset="1" stop-color="#1A0F91"/>
</linearGradient>
<linearGradient id="paint62_linear_987_6436" x1="28.9874" y1="92.4591" x2="28.2592" y2="98.8151" gradientUnits="userSpaceOnUse">
<stop stop-color="#FEBBBA"/>
<stop offset="1" stop-color="#FF928E"/>
</linearGradient>
<linearGradient id="paint63_linear_987_6436" x1="37.5166" y1="109.332" x2="38.8878" y2="82.9031" gradientUnits="userSpaceOnUse">
<stop stop-color="#09005D"/>
<stop offset="1" stop-color="#1A0F91"/>
</linearGradient>
<linearGradient id="paint64_linear_987_6436" x1="36.6599" y1="93.272" x2="35.9785" y2="99.2179" gradientUnits="userSpaceOnUse">
<stop stop-color="#FEBBBA"/>
<stop offset="1" stop-color="#FF928E"/>
</linearGradient>
<linearGradient id="paint65_linear_987_6436" x1="44.0203" y1="50.9543" x2="28.6853" y2="95.8381" gradientUnits="userSpaceOnUse">
<stop stop-color="#E1473D"/>
<stop offset="1" stop-color="#E9605A"/>
</linearGradient>
<linearGradient id="paint66_linear_987_6436" x1="34.0508" y1="61.3205" x2="16.5357" y2="69.8777" gradientUnits="userSpaceOnUse">
<stop stop-color="#09005D"/>
<stop offset="1" stop-color="#1A0F91"/>
</linearGradient>
<linearGradient id="paint67_linear_987_6436" x1="29.5067" y1="52.1658" x2="32.7729" y2="52.1658" gradientUnits="userSpaceOnUse">
<stop stop-color="#FEBBBA"/>
<stop offset="1" stop-color="#FF928E"/>
</linearGradient>
<linearGradient id="paint68_linear_987_6436" x1="303.388" y1="-200.007" x2="307.726" y2="-203.989" gradientUnits="userSpaceOnUse">
<stop stop-color="#FEBBBA"/>
<stop offset="1" stop-color="#FF928E"/>
</linearGradient>
<linearGradient id="paint69_linear_987_6436" x1="28.7932" y1="48.5205" x2="33.954" y2="45.6751" gradientUnits="userSpaceOnUse">
<stop stop-color="#09005D"/>
<stop offset="1" stop-color="#1A0F91"/>
</linearGradient>
<linearGradient id="paint70_linear_987_6436" x1="302.812" y1="-200.635" x2="307.15" y2="-204.617" gradientUnits="userSpaceOnUse">
<stop stop-color="#FEBBBA"/>
<stop offset="1" stop-color="#FF928E"/>
</linearGradient>
<linearGradient id="paint71_linear_987_6436" x1="33.0917" y1="59.3579" x2="15.5766" y2="67.9151" gradientUnits="userSpaceOnUse">
<stop stop-color="#09005D"/>
<stop offset="1" stop-color="#1A0F91"/>
</linearGradient>
<linearGradient id="paint72_linear_987_6436" x1="30.3011" y1="68.8307" x2="24.4892" y2="73.795" gradientUnits="userSpaceOnUse">
<stop stop-color="#FEBBBA"/>
<stop offset="1" stop-color="#FF928E"/>
</linearGradient>
<linearGradient id="paint73_linear_987_6436" x1="33.9558" y1="61.1256" x2="16.4407" y2="69.6829" gradientUnits="userSpaceOnUse">
<stop stop-color="#09005D"/>
<stop offset="1" stop-color="#1A0F91"/>
</linearGradient>
<linearGradient id="paint74_linear_987_6436" x1="43.1995" y1="60.6653" x2="55.6407" y2="56.4033" gradientUnits="userSpaceOnUse">
<stop stop-color="#FEBBBA"/>
<stop offset="1" stop-color="#FF928E"/>
</linearGradient>
<linearGradient id="paint75_linear_987_6436" x1="43.1828" y1="60.6163" x2="55.624" y2="56.3539" gradientUnits="userSpaceOnUse">
<stop stop-color="#FEBBBA"/>
<stop offset="1" stop-color="#FF928E"/>
</linearGradient>
</defs>
</svg>
