<svg width="101" height="101" viewBox="0 0 101 101" fill="none" xmlns="http://www.w3.org/2000/svg">
<path d="M90.1505 24.0068C89.8197 23.4569 89.477 22.917 89.1164 22.389C84.3348 15.3641 76.3755 10.5546 68.6413 8.37698C65.2523 7.42066 61.7737 6.92058 58.3011 6.79307C35.5208 5.96626 27.151 24.7479 19.8112 29.5913C12.4715 34.4347 1.20686 42.7068 2.62141 60.0839C3.69329 73.2971 11.2103 85.9304 24.9375 91.6783C26.4497 92.3138 28.0376 92.8657 29.7012 93.322C32.7952 94.1727 36.1483 94.7086 39.7624 94.868C50.1405 95.3302 58.568 92.8279 66.8103 86.5281C68.7269 85.0638 70.6316 83.4121 73.118 83.2308C74.9251 83.0993 76.6385 83.7488 74.7497 85.4961C72.5303 87.5482 75.0904 91.5866 80.7287 88.7814C90.1425 84.0955 94.0156 73.9864 95.8405 63.708C98.0799 51.0905 96.9941 35.3989 90.1505 24.0068Z" fill="#92E3A9"/>
<path opacity="0.7" d="M90.1505 24.0068C89.8197 23.4569 89.477 22.917 89.1164 22.389C84.3348 15.3641 76.3755 10.5546 68.6413 8.37698C65.2523 7.42066 61.7737 6.92058 58.3011 6.79307C35.5208 5.96626 27.151 24.7479 19.8112 29.5913C12.4715 34.4347 1.20686 42.7068 2.62141 60.0839C3.69329 73.2971 11.2103 85.9304 24.9375 91.6783C26.4497 92.3138 28.0376 92.8657 29.7012 93.322C32.7952 94.1727 36.1483 94.7086 39.7624 94.868C50.1405 95.3302 58.568 92.8279 66.8103 86.5281C68.7269 85.0638 70.6316 83.4121 73.118 83.2308C74.9251 83.0993 76.6385 83.7488 74.7497 85.4961C72.5303 87.5482 75.0904 91.5866 80.7287 88.7814C90.1425 84.0955 94.0156 73.9864 95.8405 63.708C98.0799 51.0905 96.9941 35.3989 90.1505 24.0068Z" fill="white"/>
<path d="M86.2633 27.5685C86.2633 27.5685 85.2173 23.2113 79.1188 22.3407C73.0203 21.47 72.1477 26.6979 70.9283 27.3952C69.709 28.0925 69.0117 26.1759 67.0951 26.3492C65.1785 26.5226 64.1325 28.0925 63.2619 28.7898C62.3912 29.4872 60.8213 27.3952 59.6019 27.7439C58.3826 28.0925 57.3367 29.8358 57.3367 29.8358H92.7125C92.7125 29.8358 91.4932 27.9192 89.7499 27.2219C88.0066 26.5246 87.3093 27.5705 86.2653 27.5705L86.2633 27.5685Z" stroke="#263238" stroke-width="0.4" stroke-linecap="round" stroke-linejoin="round"/>
<path d="M27.5335 40.6504C27.5335 40.6504 26.7844 37.5284 22.4113 36.9028C18.0401 36.2792 17.4145 40.0248 16.5399 40.5249C15.6652 41.025 15.1651 39.6502 13.7924 39.7758C12.4177 39.9013 11.6686 41.025 11.045 41.525C10.4214 42.0251 9.29575 40.5249 8.42111 40.7759C7.54648 41.0269 6.79736 42.2741 6.79736 42.2741H32.1557C32.1557 42.2741 31.2811 40.8994 30.0319 40.4014C28.7827 39.9013 28.2827 40.6504 27.5335 40.6504Z" stroke="#263238" stroke-width="0.4" stroke-linecap="round" stroke-linejoin="round"/>
<path d="M38.9338 14.2621C38.9338 14.2621 38.4596 12.2837 35.6883 11.8873C32.919 11.4908 32.5225 13.8657 31.9686 14.1824C31.4148 14.4992 31.098 13.6286 30.2273 13.7083C29.3567 13.788 28.8825 14.4992 28.486 14.816C28.0896 15.1328 27.3783 14.1824 26.8244 14.3418C26.2706 14.5012 25.7964 15.2922 25.7964 15.2922H41.8645C41.8645 15.2922 41.3107 14.4215 40.5197 14.1047C39.7288 13.788 39.412 14.2621 38.9358 14.2621H38.9338Z" stroke="#263238" stroke-width="0.4" stroke-linecap="round" stroke-linejoin="round"/>
<path d="M61.6943 18.3413C64.2229 18.3413 66.2727 16.2915 66.2727 13.7629C66.2727 11.2344 64.2229 9.18457 61.6943 9.18457C59.1658 9.18457 57.116 11.2344 57.116 13.7629C57.116 16.2915 59.1658 18.3413 61.6943 18.3413Z" stroke="#263238" stroke-linecap="round" stroke-linejoin="round"/>
<path d="M61.6941 6.07812V7.94095" stroke="#263238" stroke-linecap="round" stroke-linejoin="round"/>
<path d="M61.6941 19.8926V21.7554" stroke="#263238" stroke-linecap="round" stroke-linejoin="round"/>
<path d="M67.2368 8.37305L65.9199 9.69197" stroke="#263238" stroke-linecap="round" stroke-linejoin="round"/>
<path d="M57.4683 18.1436L56.1494 19.4605" stroke="#263238" stroke-linecap="round" stroke-linejoin="round"/>
<path d="M69.5318 13.918H67.6689" stroke="#263238" stroke-linecap="round" stroke-linejoin="round"/>
<path d="M55.7171 13.918H53.8542" stroke="#263238" stroke-linecap="round" stroke-linejoin="round"/>
<path d="M67.2368 19.4605L65.9199 18.1436" stroke="#263238" stroke-linecap="round" stroke-linejoin="round"/>
<path d="M57.4683 9.69197L56.1494 8.37305" stroke="#263238" stroke-linecap="round" stroke-linejoin="round"/>
<path d="M72.7355 39.2404C72.7355 39.2404 73.656 39.0113 73.9309 39.1029C74.2059 39.1946 73.7476 39.5213 73.7476 39.5213C73.7476 39.5213 73.9767 39.6548 74.1142 39.9776C74.2517 40.3003 73.656 40.1609 73.656 40.1609C73.656 40.1609 73.8373 40.392 73.656 40.5753C73.4747 40.7586 72.6439 39.8401 72.6439 39.8401C72.6439 39.8401 72.0462 40.2087 71.4943 40.1628C70.9424 40.117 70.6197 39.9796 70.2531 39.4277C69.8865 38.8758 69.6095 38.6009 69.6095 38.6009L69.241 38.4634L69.7928 38.1406C69.7928 38.1406 70.2531 37.7262 70.7133 37.7721C71.1735 37.8179 71.3568 37.9553 71.3568 37.9553C71.3568 37.9553 71.6318 37.2202 72.0462 36.9432C72.4606 36.6663 73.7476 36.2997 74.162 36.0686C74.5764 35.8395 74.4848 36.2061 74.3453 36.4372C74.2059 36.6683 73.7934 36.8516 73.6102 36.9432C73.4269 37.0349 74.5764 37.0807 74.3911 37.3118C74.2059 37.5429 73.5165 37.6346 73.5165 37.6346C73.5165 37.6346 74.16 37.8637 74.0226 38.049C73.8851 38.2323 73.3332 38.2323 73.3332 38.2323C73.3332 38.2323 73.5165 38.6925 73.2416 38.6925H72.9646C72.9646 38.6925 73.1021 39.336 72.7355 39.2444V39.2404Z" fill="#92E3A9" stroke="#263238" stroke-linecap="round" stroke-linejoin="round"/>
<path d="M71.3548 37.9534C71.3548 37.9534 70.9862 37.2182 71.1715 36.758C71.3548 36.2977 73.0562 35.1023 73.0104 35.5626C72.9646 36.0228 72.5043 36.2977 72.5043 36.2977C72.5043 36.2977 73.1937 36.0686 73.1937 36.2519V36.4352C73.1937 36.4352 72.4127 36.6185 72.0441 36.9413C71.6755 37.264 71.3548 37.9534 71.3548 37.9534Z" fill="#263238" stroke="#263238" stroke-linecap="round" stroke-linejoin="round"/>
<path d="M70.2786 38.4478C70.3545 38.4478 70.4161 38.3862 70.4161 38.3103C70.4161 38.2344 70.3545 38.1729 70.2786 38.1729C70.2027 38.1729 70.1411 38.2344 70.1411 38.3103C70.1411 38.3862 70.2027 38.4478 70.2786 38.4478Z" fill="#263238"/>
<path d="M72.1263 39.716C72.0426 39.9949 71.6043 40.1105 71.1461 39.975C70.6879 39.8395 70.383 39.5028 70.4667 39.2239C70.5504 38.945 70.9887 38.8294 71.4469 38.9649C71.9052 39.1004 72.21 39.4371 72.1263 39.716Z" fill="white" stroke="#263238" stroke-width="0.5" stroke-linecap="round" stroke-linejoin="round"/>
<path d="M26.9917 27.4533C26.9917 27.4533 26.0713 27.2242 25.7963 27.3158C25.5214 27.4075 25.9796 27.7342 25.9796 27.7342C25.9796 27.7342 25.7505 27.8677 25.613 28.1905C25.4756 28.5132 26.0713 28.3737 26.0713 28.3737C26.0713 28.3737 25.89 28.6049 26.0713 28.7882C26.2546 28.9714 27.0834 28.053 27.0834 28.053C27.0834 28.053 27.6811 28.4216 28.2329 28.3757C28.7848 28.3299 29.1076 28.1924 29.4742 27.6406C29.8407 27.0887 30.1177 26.8138 30.1177 26.8138L30.4863 26.6763L29.9344 26.3535C29.9344 26.3535 29.4742 25.9391 29.0139 25.9849C28.5537 26.0308 28.3704 26.1682 28.3704 26.1682C28.3704 26.1682 28.0955 25.4331 27.6811 25.1561C27.2667 24.8792 25.9796 24.5126 25.5652 24.2815C25.1508 24.0524 25.2425 24.419 25.3819 24.6501C25.5194 24.8792 25.9338 25.0645 26.1171 25.1561C26.3004 25.2478 25.1508 25.2936 25.3361 25.5247C25.5194 25.7538 26.2107 25.8475 26.2107 25.8475C26.2107 25.8475 25.5672 26.0766 25.7047 26.2619C25.8421 26.4472 26.394 26.4452 26.394 26.4452C26.394 26.4452 26.2107 26.9054 26.4857 26.9054H26.7606C26.7606 26.9054 26.6231 27.5489 26.9897 27.4573L26.9917 27.4533Z" fill="#92E3A9" stroke="#263238" stroke-linecap="round" stroke-linejoin="round"/>
<path d="M28.3726 26.1643C28.3726 26.1643 28.7412 25.4291 28.5559 24.9689C28.3726 24.5087 26.6712 23.3133 26.717 23.7735C26.7628 24.2337 27.223 24.5087 27.223 24.5087C27.223 24.5087 26.5337 24.2796 26.5337 24.4629V24.6462C26.5337 24.6462 27.3147 24.8294 27.6833 25.1522C28.0518 25.475 28.3726 26.1643 28.3726 26.1643Z" fill="#263238" stroke="#263238" stroke-linecap="round" stroke-linejoin="round"/>
<path d="M29.3105 26.5232C29.3105 26.5989 29.3723 26.6607 29.448 26.6607C29.5237 26.6607 29.5855 26.5989 29.5855 26.5232C29.5855 26.4475 29.5237 26.3857 29.448 26.3857C29.3723 26.3857 29.3105 26.4475 29.3105 26.5232Z" fill="#263238"/>
<path d="M27.6017 27.9289C27.6854 28.2078 28.1237 28.3234 28.5819 28.1879C29.0402 28.0524 29.345 27.7157 29.2613 27.4368C29.1777 27.1579 28.7393 27.0423 28.2811 27.1778C27.8229 27.3133 27.518 27.65 27.6017 27.9289Z" fill="white" stroke="#263238" stroke-width="0.5" stroke-linecap="round" stroke-linejoin="round"/>
<path d="M24.5232 61.7037C24.5232 61.7037 22.7042 58.8128 19.4089 57.1034C16.1136 55.394 14.709 53.7065 16.4184 53.8081C18.4924 53.9296 23.1923 55.5773 25.3281 61.3749C26.2505 63.8773 24.5212 61.7037 24.5212 61.7037" fill="#92E3A9"/>
<path d="M24.5232 61.7037C24.5232 61.7037 22.7042 58.8128 19.4089 57.1034C16.1136 55.394 14.709 53.7065 16.4184 53.8081C18.4924 53.9296 23.1923 55.5773 25.3281 61.3749C26.2505 63.8773 24.5212 61.7037 24.5212 61.7037" stroke="#263238" stroke-linecap="round" stroke-linejoin="round"/>
<path d="M24.414 60.9467C24.414 60.9467 22.7663 57.6514 19.6543 56.0635" stroke="#263238" stroke-linecap="round" stroke-linejoin="round"/>
<path d="M26.5035 63.7026C26.5035 63.7026 25.4635 60.7958 26.0911 57.4985C26.7167 54.2012 26.3023 52.2606 25.4197 53.5337C24.3478 55.0758 22.8934 59.3354 25.8221 64.0931C27.0853 66.1452 26.5055 63.7046 26.5055 63.7046" fill="#92E3A9"/>
<path d="M26.5035 63.7026C26.5035 63.7026 25.4635 60.7958 26.0911 57.4985C26.7167 54.2012 26.3023 52.2606 25.4197 53.5337C24.3478 55.0758 22.8934 59.3354 25.8221 64.0931C27.0853 66.1452 26.5055 63.7046 26.5055 63.7046" stroke="#263238" stroke-linecap="round" stroke-linejoin="round"/>
<path d="M26.0298 63.2023C26.0298 63.2023 24.6073 60.1899 25.2189 57.0918" stroke="#263238" stroke-linecap="round" stroke-linejoin="round"/>
<path d="M24.6563 60.2495C24.6563 60.2495 23.6163 57.3427 24.2439 54.0454C24.8695 50.748 24.4551 48.8075 23.5725 50.0806C22.5006 51.6227 21.0462 55.8823 23.9749 60.64C25.2381 62.6921 24.6583 60.2515 24.6583 60.2515" fill="#92E3A9"/>
<path d="M24.6563 60.2495C24.6563 60.2495 23.6163 57.3427 24.2439 54.0454C24.8695 50.748 24.4551 48.8075 23.5725 50.0806C22.5006 51.6227 21.0462 55.8823 23.9749 60.64C25.2381 62.6921 24.6583 60.2515 24.6583 60.2515" stroke="#263238" stroke-linecap="round" stroke-linejoin="round"/>
<path d="M24.4133 60.9465C24.4133 60.9465 22.7597 56.7367 23.3713 53.6387" stroke="#263238" stroke-linecap="round" stroke-linejoin="round"/>
<path d="M66.0274 58.1011C66.0274 58.1011 67.8464 55.2103 71.1418 53.5009C74.4371 51.7914 75.8417 50.1039 74.1322 50.2055C72.0562 50.3271 67.3583 51.9747 65.2225 57.7724C64.3001 60.2748 66.0294 58.1011 66.0294 58.1011" fill="#92E3A9"/>
<path d="M66.0274 58.1011C66.0274 58.1011 67.8464 55.2103 71.1418 53.5009C74.4371 51.7914 75.8417 50.1039 74.1322 50.2055C72.0562 50.3271 67.3583 51.9747 65.2225 57.7724C64.3001 60.2748 66.0294 58.1011 66.0294 58.1011" stroke="#263238" stroke-linecap="round" stroke-linejoin="round"/>
<path d="M66.137 57.3461C66.137 57.3461 67.7846 54.0508 70.8966 52.4629" stroke="#263238" stroke-linecap="round" stroke-linejoin="round"/>
<path d="M64.0455 60.1001C64.0455 60.1001 65.0854 57.1932 64.4579 53.8959C63.8323 50.5986 64.2467 48.6581 65.1293 49.9312C66.2012 51.4733 67.6555 55.7329 64.7268 60.4906C63.4637 62.5427 64.0435 60.102 64.0435 60.102" fill="#92E3A9"/>
<path d="M64.0455 60.1001C64.0455 60.1001 65.0854 57.1932 64.4579 53.8959C63.8323 50.5986 64.2467 48.6581 65.1293 49.9312C66.2012 51.4733 67.6555 55.7329 64.7268 60.4905C63.4637 62.5426 64.0435 60.102 64.0435 60.102" stroke="#263238" stroke-linecap="round" stroke-linejoin="round"/>
<path d="M64.5215 59.6017C64.5215 59.6017 65.944 56.5893 65.3324 53.4912" stroke="#263238" stroke-linecap="round" stroke-linejoin="round"/>
<path d="M65.8926 56.6469C65.8926 56.6469 66.9326 53.7401 66.305 50.4428C65.6794 47.1455 66.0938 45.205 66.9764 46.4781C68.0483 48.0201 69.5027 52.2797 66.574 57.0374C65.3109 59.0895 65.8906 56.6489 65.8906 56.6489" fill="#92E3A9"/>
<path d="M65.8926 56.6469C65.8926 56.6469 66.9326 53.7401 66.305 50.4428C65.6794 47.1455 66.0938 45.205 66.9764 46.4781C68.0483 48.0201 69.5027 52.2797 66.574 57.0374C65.3109 59.0895 65.8906 56.6489 65.8906 56.6489" stroke="#263238" stroke-linecap="round" stroke-linejoin="round"/>
<path d="M66.1377 57.346C66.1377 57.346 67.7913 53.1362 67.1797 50.0381" stroke="#263238" stroke-linecap="round" stroke-linejoin="round"/>
<path d="M66.8563 47.7925H47.9172L37.322 30.9453H56.2611L66.8563 47.7925Z" fill="#263238" stroke="#263238" stroke-width="0.4" stroke-linecap="round" stroke-linejoin="round"/>
<path d="M45.2831 47.2139H25.8718V64.3599H45.2831V47.2139Z" fill="#C7C7C7" stroke="#263238" stroke-width="0.4" stroke-linecap="round" stroke-linejoin="round"/>
<path d="M64.6928 64.36H45.2815V47.2141L55.1495 31.5225L64.6928 47.2141V64.36Z" fill="white" stroke="#263238" stroke-width="0.4" stroke-linecap="round" stroke-linejoin="round"/>
<path d="M49.4872 50.2871H47.5466V56.1107H49.4872V50.2871Z" fill="#C7C7C7" stroke="#263238" stroke-width="0.4" stroke-linecap="round" stroke-linejoin="round"/>
<path d="M51.4273 50.2871H49.4868V56.1107H51.4273V50.2871Z" fill="#263238" stroke="#263238" stroke-width="0.4" stroke-linecap="round" stroke-linejoin="round"/>
<path d="M53.3702 50.2871H51.4297V56.1107H53.3702V50.2871Z" fill="#C7C7C7" stroke="#263238" stroke-width="0.4" stroke-linecap="round" stroke-linejoin="round"/>
<path d="M40.5916 50.2871H38.9739V56.1107H40.5916V50.2871Z" fill="#919191" stroke="#263238" stroke-width="0.4" stroke-linecap="round" stroke-linejoin="round"/>
<path d="M42.2096 50.2871H40.5918V56.1107H42.2096V50.2871Z" fill="#263238" stroke="#263238" stroke-width="0.4" stroke-linecap="round" stroke-linejoin="round"/>
<path d="M43.8268 50.2871H42.209V56.1107H43.8268V50.2871Z" fill="#919191" stroke="#263238" stroke-width="0.4" stroke-linecap="round" stroke-linejoin="round"/>
<path d="M28.6217 50.2871H27.0039V56.1107H28.6217V50.2871Z" fill="#919191" stroke="#263238" stroke-width="0.4" stroke-linecap="round" stroke-linejoin="round"/>
<path d="M30.2398 50.2871H28.6221V56.1107H30.2398V50.2871Z" fill="#263238" stroke="#263238" stroke-width="0.4" stroke-linecap="round" stroke-linejoin="round"/>
<path d="M31.857 50.2871H30.2393V56.1107H31.857V50.2871Z" fill="#919191" stroke="#263238" stroke-width="0.4" stroke-linecap="round" stroke-linejoin="round"/>
<path d="M59.3551 50.2861H57.4146V56.1097H59.3551V50.2861Z" fill="#C7C7C7" stroke="#263238" stroke-width="0.4" stroke-linecap="round" stroke-linejoin="round"/>
<path d="M61.2953 50.2861H59.3547V56.1097H61.2953V50.2861Z" fill="#263238" stroke="#263238" stroke-width="0.4" stroke-linecap="round" stroke-linejoin="round"/>
<path d="M63.2364 50.2861H61.2959V56.1097H63.2364V50.2861Z" fill="#C7C7C7" stroke="#263238" stroke-width="0.4" stroke-linecap="round" stroke-linejoin="round"/>
<path d="M54.8265 40.7432H53.5315V44.3015H54.8265V40.7432Z" fill="#C7C7C7" stroke="#263238" stroke-width="0.4" stroke-linecap="round" stroke-linejoin="round"/>
<path d="M56.1214 40.7432H54.8264V44.3015H56.1214V40.7432Z" fill="#263238" stroke="#263238" stroke-width="0.4" stroke-linecap="round" stroke-linejoin="round"/>
<path d="M57.4144 40.7432H56.1194V44.3015H57.4144V40.7432Z" fill="#C7C7C7" stroke="#263238" stroke-width="0.4" stroke-linecap="round" stroke-linejoin="round"/>
<path d="M24.79 47.7925H45.6338L56.229 30.9453H35.3853L24.79 47.7925Z" fill="#92E3A9" stroke="#263238" stroke-width="0.4" stroke-linecap="round" stroke-linejoin="round"/>
<path d="M41.0628 38.5537H32.8325V44.0007H41.0628V38.5537Z" fill="#C7C7C7" stroke="#263238" stroke-width="0.4" stroke-linecap="round" stroke-linejoin="round"/>
<path d="M41.0645 38.5534L46.7526 34.6484L41.0645 44.0004V38.5534Z" fill="white" stroke="#263238" stroke-width="0.4" stroke-linecap="round" stroke-linejoin="round"/>
<path d="M32.1731 38.7387H40.7939L46.753 34.6484H38.1322L32.1731 38.7387Z" fill="#92E3A9" stroke="#263238" stroke-width="0.4" stroke-linecap="round" stroke-linejoin="round"/>
<path d="M36.1441 39.7109H34.8491V43.2692H36.1441V39.7109Z" fill="#919191" stroke="#263238" stroke-width="0.4" stroke-linecap="round" stroke-linejoin="round"/>
<path d="M37.4371 39.7109H36.1421V43.2692H37.4371V39.7109Z" fill="#263238" stroke="#263238" stroke-width="0.4" stroke-linecap="round" stroke-linejoin="round"/>
<path d="M38.732 39.7109H37.437V43.2692H38.732V39.7109Z" fill="#919191" stroke="#263238" stroke-width="0.4" stroke-linecap="round" stroke-linejoin="round"/>
<path d="M51.2123 28.3887H50.4871V33.6743L51.2123 32.5068V28.3887Z" fill="white" stroke="#263238" stroke-width="0.4" stroke-linecap="round" stroke-linejoin="round"/>
<path d="M50.5209 28.3887H48.3811V33.6743H50.5209V28.3887Z" fill="#C7C7C7" stroke="#263238" stroke-width="0.4" stroke-linecap="round" stroke-linejoin="round"/>
<path d="M38.0685 51.2666H33.0857V64.3602H38.0685V51.2666Z" fill="#263238" stroke="#263238" stroke-width="0.4" stroke-linecap="round" stroke-linejoin="round"/>
<path d="M37.8035 57.7958C37.8035 57.5527 37.6062 57.3555 37.3632 57.3555C37.1201 57.3555 36.9229 57.5527 36.9229 57.7958C36.9229 58.0388 37.1201 58.2361 37.3632 58.2361C37.6062 58.2361 37.8035 58.0388 37.8035 57.7958Z" fill="white" stroke="#263238" stroke-width="0.4" stroke-linecap="round" stroke-linejoin="round"/>
<path d="M24.844 61.6196C24.844 61.6196 20.6721 59.3364 16.7751 58.9121C12.8781 58.4877 10.6248 60.3027 10.6427 61.0917C10.6626 61.8806 13.3662 61.9384 13.8802 62.0699C14.3922 62.2014 17.5262 61.3367 22.1524 62.4345C26.7766 63.5343 27.3683 63.7594 27.3683 63.7594L24.844 61.6176V61.6196Z" fill="white" stroke="#263238" stroke-width="0.4" stroke-linecap="round" stroke-linejoin="round"/>
<path d="M23.0984 61.5676C23.0984 61.5676 18.7451 59.651 14.8262 59.5653C10.9073 59.4776 8.81733 61.4799 8.90499 62.2649C8.99266 63.0479 11.6923 62.8745 12.2143 62.9622C12.7362 63.0499 15.7845 61.9182 20.4864 62.6136C25.1883 63.3109 25.798 63.4842 25.798 63.4842L23.0984 61.5696V61.5676Z" fill="white" stroke="#263238" stroke-width="0.4" stroke-linecap="round" stroke-linejoin="round"/>
<path d="M78.7525 59.9561L72.7078 58.3184C72.7078 58.3184 68.4263 54.9175 63.2621 55.296C58.098 55.6746 53.438 57.6888 51.9258 58.8224C50.4136 59.9561 48.5249 61.0897 48.1463 61.3407C47.7678 61.5918 42.6037 60.2071 39.8343 61.3407C37.063 62.4744 34.9213 64.7417 34.9213 64.7417C34.9213 64.7417 23.2083 61.2152 20.3115 60.7112C17.4146 60.2071 14.0137 60.4601 11.621 62.2233C9.22816 63.9866 9.73222 65.1202 10.9914 65.3712C12.2505 65.6223 12.5036 64.3631 19.4309 66.2538C26.3582 68.1426 34.7977 73.0556 38.1986 74.9444C41.5995 76.8331 47.2677 79.4789 51.0452 78.3453C54.8246 77.2116 65.1509 73.3067 67.5457 73.3067C69.9404 73.3067 77.6209 73.8107 77.6209 73.8107L78.7545 59.9561H78.7525Z" fill="white" stroke="#263238" stroke-width="0.4" stroke-linecap="round" stroke-linejoin="round"/>
<path d="M75.4631 68.2881L70.2671 73.2769L77.6188 73.8108L75.4631 68.2881Z" fill="#263238" stroke="#263238" stroke-width="0.4" stroke-linecap="round" stroke-linejoin="round"/>
<path d="M34.9208 64.7412C34.9208 64.7412 33.7513 66.2793 34.2434 68.2716C34.5483 69.5029 35.9847 69.2299 38.5967 68.7079C41.2086 68.1859 38.77 67.8373 44.8665 67.7496C50.9611 67.662 57.4919 67.4886 57.8406 67.4886" stroke="#263238" stroke-width="0.4" stroke-linecap="round" stroke-linejoin="round"/>
<path d="M34.8774 69.0157C34.8774 69.0157 34.993 68.2208 35.8417 67.7286C35.8417 67.7286 37.2902 66.9775 38.2006 66.9775C39.1111 66.9775 39.8623 67.9418 39.5953 68.2646" stroke="#263238" stroke-width="0.4" stroke-linecap="round" stroke-linejoin="round"/>
<path d="M42.7051 67.5133V66.4414" stroke="#263238" stroke-width="0.4" stroke-linecap="round" stroke-linejoin="round"/>
<path d="M43.2405 65.4229C43.2405 65.4229 43.4019 66.0126 43.2943 66.9251" stroke="#263238" stroke-width="0.4" stroke-linecap="round" stroke-linejoin="round"/>
<path d="M75.9275 57.4512H84.0502V79.6199H75.9275C75.4334 79.6199 75.033 79.2194 75.033 78.7253V58.3438C75.033 57.8497 75.4334 57.4492 75.9275 57.4492V57.4512Z" fill="#92E3A9" stroke="#263238" stroke-width="0.4" stroke-linecap="round" stroke-linejoin="round"/>
<path d="M84.1176 56.3125H98.5002V81.3521H84.1176C83.7431 81.3521 83.4382 81.0473 83.4382 80.6727V56.9939C83.4382 56.6193 83.7431 56.3145 84.1176 56.3145V56.3125Z" fill="#92E3A9" stroke="#263238" stroke-width="0.4" stroke-linecap="round" stroke-linejoin="round"/>
<path d="M76.281 59.4814H82.9852" stroke="#263238" stroke-linecap="round" stroke-linejoin="round"/>
<path d="M82.8958 62.1133H76.0801" stroke="#263238" stroke-linecap="round" stroke-linejoin="round"/>
<path d="M75.8411 66.8945H80.5031" stroke="#263238" stroke-linecap="round" stroke-linejoin="round"/>
<path d="M81.3406 66.8955H82.8966" stroke="#263238" stroke-linecap="round" stroke-linejoin="round"/>
</svg>
