<svg width="32" height="33" viewBox="0 0 32 33" fill="none" xmlns="http://www.w3.org/2000/svg">
<g clip-path="url(#clip0_961_40)">
<path d="M16 32.8877C24.8366 32.8877 32 25.7243 32 16.8877C32 8.05114 24.8366 0.887695 16 0.887695C7.16344 0.887695 0 8.05114 0 16.8877C0 25.7243 7.16344 32.8877 16 32.8877Z" fill="white"/>
<path d="M20.4101 11.5361C19.8729 11.5361 19.4365 11.9726 19.4365 12.5097C19.4365 13.0468 19.8729 13.4833 20.4101 13.4833C20.9472 13.4833 21.3836 13.0468 21.3836 12.5097C21.3836 11.9726 20.9472 11.5361 20.4101 11.5361Z" fill="black"/>
<path d="M16.0663 12.7852C13.8036 12.7852 11.9639 14.6249 11.9639 16.8875C11.9639 19.1502 13.8036 20.9899 16.0663 20.9899C18.329 20.9899 20.1687 19.1502 20.1687 16.8875C20.1687 14.6249 18.329 12.7852 16.0663 12.7852ZM16.0663 19.5128C14.616 19.5128 13.441 18.3311 13.441 16.8875C13.441 15.444 14.6227 14.2623 16.0663 14.2623C17.5098 14.2623 18.6915 15.444 18.6915 16.8875C18.6915 18.3311 17.5098 19.5128 16.0663 19.5128Z" fill="black"/>
<path d="M19.323 25.2128H12.6759C9.91638 25.2128 7.67383 22.9703 7.67383 20.2107V13.5636C7.67383 10.8041 9.91638 8.56152 12.6759 8.56152H19.323C22.0826 8.56152 24.3251 10.8041 24.3251 13.5636V20.2107C24.3251 22.9703 22.0826 25.2128 19.323 25.2128ZM12.6759 10.1259C10.7825 10.1259 9.23824 11.6702 9.23824 13.5636V20.2107C9.23824 22.1041 10.7825 23.6484 12.6759 23.6484H19.323C21.2164 23.6484 22.7607 22.1041 22.7607 20.2107V13.5636C22.7607 11.6702 21.2164 10.1259 19.323 10.1259H12.6759Z" fill="black"/>
</g>
<defs>
<clipPath id="clip0_961_40">
<rect width="32" height="32" fill="white" transform="translate(0 0.887695)"/>
</clipPath>
</defs>
</svg>
