<svg width="101" height="101" viewBox="0 0 101 101" fill="none" xmlns="http://www.w3.org/2000/svg">
<path d="M94.3343 67.2184C84.6425 89.7054 59.0598 99.364 39.0151 97.7172C33.542 97.2675 22.5304 96.3629 13.9324 88.2915C-2.57968 72.7911 -0.0365267 40.3915 15.77 21.3161C17.8059 18.8594 31.8959 2.40108 53.8524 2.62133C69.9277 2.78276 81.2112 11.7967 82.583 12.9198C84.3162 14.3385 88.1388 17.7096 91.5842 23.0576C99.6792 35.6236 100.391 53.1661 94.3346 67.2181L94.3343 67.2184Z" fill="url(#paint0_linear_987_5950)"/>
<path d="M57.0774 41.2276H19.3165C17.7857 41.2276 16.5063 40.0631 16.3626 38.5391L13.9826 13.2902C13.8205 11.5716 15.1543 10.078 16.8801 10.0452L57.021 9.28082C58.6814 9.24935 60.0447 10.5866 60.0447 12.2474V38.2607C60.0447 39.8993 58.7163 41.2276 57.0778 41.2276H57.0774Z" fill="#7D97F4"/>
<path opacity="0.87" d="M16.3958 15.5405L18.0836 37.3735C18.1568 38.3218 18.9427 39.0571 19.8938 39.0671L56.1359 39.4467C57.1568 39.4573 57.9902 38.6327 57.9902 37.6118V14.1064C57.9902 13.0684 57.1301 12.237 56.0928 12.2726L18.1626 13.5654C17.1188 13.6009 16.3151 14.4994 16.3954 15.5408L16.3958 15.5405Z" fill="white"/>
<path d="M35.7448 15.3408L56.1825 14.7297C56.3921 14.7235 56.5652 14.8914 56.5652 15.1011V15.4301C56.5652 15.6332 56.402 15.7988 56.1985 15.8015L35.7609 16.0837C35.5537 16.0864 35.384 15.9195 35.384 15.7122C35.384 15.5115 35.5438 15.347 35.7445 15.3408H35.7448Z" fill="#7D97F4"/>
<path d="M35.7558 17.0547H56.1934C56.3986 17.0547 56.5652 17.2212 56.5652 17.4264V17.5667C56.5652 17.7719 56.3986 17.9384 56.1934 17.9384H35.7558C35.5506 17.9384 35.384 17.7719 35.384 17.5667V17.4264C35.384 17.2212 35.5506 17.0547 35.7558 17.0547Z" fill="#7D97F4"/>
<path d="M30.3931 35.8041C30.3011 35.8041 30.2265 35.7296 30.2262 35.6379L30.2248 35.1375C30.2248 35.0455 30.299 34.9706 30.391 34.9703H30.3914C30.4834 34.9703 30.5579 35.0449 30.5583 35.1365L30.5596 35.6369C30.5596 35.7289 30.4854 35.8041 30.3934 35.8041H30.3931ZM30.3886 34.1365C30.2966 34.1365 30.2221 34.0619 30.2217 33.9703L30.2204 33.4699C30.2204 33.3779 30.2946 33.303 30.3866 33.3027H30.3869C30.4789 33.3027 30.5535 33.3772 30.5538 33.4689L30.5552 33.9692C30.5552 34.0612 30.481 34.1361 30.389 34.1365H30.3886ZM30.3845 32.4692C30.2925 32.4692 30.218 32.3947 30.2176 32.303L30.2163 31.8026C30.2163 31.7106 30.2905 31.6354 30.3825 31.6354H30.3828C30.4748 31.6354 30.5494 31.71 30.5497 31.8016L30.5511 32.302C30.5511 32.394 30.4769 32.4689 30.3849 32.4692H30.3845ZM30.3804 30.8016C30.2884 30.8016 30.2139 30.727 30.2135 30.6354L30.2122 30.135C30.2122 30.0427 30.2864 29.9678 30.3784 29.9678H30.3787C30.4707 29.9678 30.5453 30.0423 30.5456 30.134L30.547 30.6343C30.547 30.7267 30.4728 30.8016 30.3808 30.8016H30.3804Z" fill="url(#paint1_linear_987_5950)"/>
<path d="M38.7675 35.3288C38.6755 35.3288 38.6006 35.2543 38.6006 35.1619V34.6616C38.6006 34.5692 38.6751 34.4947 38.7675 34.4947C38.8598 34.4947 38.9344 34.5692 38.9344 34.6616V35.1619C38.9344 35.2539 38.8598 35.3288 38.7675 35.3288ZM38.7675 33.6615C38.6755 33.6615 38.6006 33.587 38.6006 33.4946V32.9943C38.6006 32.9019 38.6751 32.8274 38.7675 32.8274C38.8598 32.8274 38.9344 32.9019 38.9344 32.9943V33.4946C38.9344 33.587 38.8598 33.6615 38.7675 33.6615ZM38.7675 31.9939C38.6755 31.9939 38.6006 31.9194 38.6006 31.827V31.3267C38.6006 31.2347 38.6751 31.1598 38.7675 31.1598C38.8598 31.1598 38.9344 31.2343 38.9344 31.3267V31.827C38.9344 31.919 38.8598 31.9939 38.7675 31.9939ZM38.7675 30.3266C38.6755 30.3266 38.6006 30.2521 38.6006 30.1597V29.6594C38.6006 29.5674 38.6751 29.4925 38.7675 29.4925C38.8598 29.4925 38.9344 29.567 38.9344 29.6594V30.1597C38.9344 30.2517 38.8598 30.3266 38.7675 30.3266ZM38.7675 28.6593C38.6755 28.6593 38.6006 28.5848 38.6006 28.4924V27.9921C38.6006 27.9001 38.6751 27.8252 38.7675 27.8252C38.8598 27.8252 38.9344 27.8998 38.9344 27.9921V28.4924C38.9344 28.5844 38.8598 28.6593 38.7675 28.6593Z" fill="url(#paint2_linear_987_5950)"/>
<path d="M45.155 36.7069C45.0654 36.7069 44.9912 36.6354 44.9885 36.5455L44.9792 36.2469C44.9765 36.1549 45.0486 36.0779 45.1406 36.0749C45.235 36.0687 45.3096 36.1443 45.3127 36.2363L45.3219 36.5349C45.3246 36.6269 45.2525 36.7038 45.1605 36.7069H45.1554H45.155ZM45.1095 35.2417C45.0199 35.2417 44.9457 35.1703 44.943 35.0803L44.9276 34.5803C44.9248 34.4883 44.997 34.4113 45.089 34.4083C45.1831 34.4055 45.258 34.4777 45.261 34.5697L45.2764 35.0697C45.2792 35.1617 45.207 35.2387 45.115 35.2417H45.1099H45.1095ZM45.0579 33.5751C44.9683 33.5751 44.8941 33.5037 44.8913 33.4137L44.8759 32.9137C44.8732 32.8217 44.9454 32.7448 45.0374 32.7417C45.1263 32.7424 45.2063 32.8114 45.209 32.9031L45.2244 33.4031C45.2272 33.4951 45.155 33.5721 45.063 33.5751H45.0579ZM45.0062 31.9085C44.9166 31.9085 44.8424 31.8371 44.8397 31.7471L44.8243 31.2471C44.8216 31.1551 44.8937 31.0782 44.9857 31.0751C45.0743 31.0706 45.1547 31.1445 45.1574 31.2365L45.1728 31.7365C45.1755 31.8285 45.1034 31.9055 45.0114 31.9085H45.0062ZM44.9546 30.242C44.865 30.242 44.7908 30.1705 44.788 30.0805L44.7726 29.5805C44.7699 29.4885 44.8421 29.4116 44.9341 29.4085C45.0264 29.4075 45.103 29.4779 45.1061 29.5699L45.1215 30.0699C45.1242 30.1619 45.0521 30.2389 44.9601 30.242H44.9549H44.9546ZM44.9026 28.5754C44.813 28.5754 44.7388 28.5039 44.7361 28.4139L44.7207 27.9139C44.7179 27.8219 44.7901 27.745 44.8821 27.7419C44.9741 27.7354 45.051 27.8113 45.0541 27.9033L45.0695 28.4033C45.0722 28.4953 45.0001 28.5723 44.9081 28.5754H44.903H44.9026ZM44.851 26.9088C44.7614 26.9088 44.6871 26.8373 44.6844 26.7473L44.669 26.2473C44.6663 26.1553 44.7384 26.0784 44.8304 26.0753C44.9262 26.0722 44.9994 26.1447 45.0025 26.2367L45.0179 26.7367C45.0206 26.8287 44.9484 26.9057 44.8564 26.9088H44.851Z" fill="url(#paint3_linear_987_5950)"/>
<path d="M51.2267 35.774C51.1347 35.774 51.0598 35.6995 51.0598 35.6071V35.1068C51.0598 35.0144 51.1344 34.9399 51.2267 34.9399C51.3191 34.9399 51.3936 35.0144 51.3936 35.1068V35.6071C51.3936 35.6995 51.3191 35.774 51.2267 35.774ZM51.2267 34.1067C51.1347 34.1067 51.0598 34.0322 51.0598 33.9398V33.4395C51.0598 33.3475 51.1344 33.2726 51.2267 33.2726C51.3191 33.2726 51.3936 33.3471 51.3936 33.4395V33.9398C51.3936 34.0322 51.3191 34.1067 51.2267 34.1067ZM51.2267 32.4391C51.1347 32.4391 51.0598 32.3646 51.0598 32.2722V31.7719C51.0598 31.6799 51.1344 31.605 51.2267 31.605C51.3191 31.605 51.3936 31.6795 51.3936 31.7719V32.2722C51.3936 32.3642 51.3191 32.4391 51.2267 32.4391ZM51.2267 30.7718C51.1347 30.7718 51.0598 30.6973 51.0598 30.6049V30.1046C51.0598 30.0126 51.1344 29.9377 51.2267 29.9377C51.3191 29.9377 51.3936 30.0122 51.3936 30.1046V30.6049C51.3936 30.6969 51.3191 30.7718 51.2267 30.7718ZM51.2267 29.1042C51.1347 29.1042 51.0598 29.0296 51.0598 28.9373V28.4369C51.0598 28.3446 51.1344 28.2701 51.2267 28.2701C51.3191 28.2701 51.3936 28.3446 51.3936 28.4369V28.9373C51.3936 29.0296 51.3191 29.1042 51.2267 29.1042ZM51.2267 27.4369C51.1347 27.4369 51.0598 27.3624 51.0598 27.27V26.7697C51.0598 26.6773 51.1344 26.6028 51.2267 26.6028C51.3191 26.6028 51.3936 26.6773 51.3936 26.7697V27.27C51.3936 27.3624 51.3191 27.4369 51.2267 27.4369ZM51.2267 25.7693C51.1347 25.7693 51.0598 25.6947 51.0598 25.6024V25.102C51.0598 25.01 51.1344 24.9351 51.2267 24.9351C51.3191 24.9351 51.3936 25.0097 51.3936 25.102V25.6024C51.3936 25.6944 51.3191 25.7693 51.2267 25.7693ZM51.2267 24.102C51.1347 24.102 51.0598 24.0275 51.0598 23.9351V23.4348C51.0598 23.3428 51.1344 23.2679 51.2267 23.2679C51.3191 23.2679 51.3936 23.3424 51.3936 23.4348V23.9351C51.3936 24.0271 51.3191 24.102 51.2267 24.102ZM51.2267 22.4347C51.1347 22.4347 51.0598 22.3602 51.0598 22.2678V21.7675C51.0598 21.6751 51.1344 21.6006 51.2267 21.6006C51.3191 21.6006 51.3936 21.6751 51.3936 21.7675V22.2678C51.3936 22.3598 51.3191 22.4347 51.2267 22.4347Z" fill="url(#paint4_linear_987_5950)"/>
<path d="M21.428 37.7423C21.2994 37.7423 21.1899 37.6438 21.179 37.5135L19.4697 17.3266C19.458 17.1888 19.5599 17.0677 19.6978 17.0561C19.8363 17.0485 19.9563 17.1467 19.968 17.2842L21.6773 37.4711C21.6889 37.6089 21.587 37.73 21.4492 37.7416C21.442 37.742 21.4348 37.7423 21.428 37.7423Z" fill="url(#paint5_linear_987_5950)"/>
<path d="M18.9578 18.3691L19.7314 17.4522L20.6479 18.2262L20.5871 17.5086L19.6705 16.7354L18.8972 17.6516L18.9578 18.3691Z" fill="url(#paint6_linear_987_5950)"/>
<path d="M55.3039 36.791H20.1306C19.9925 36.791 19.8806 36.6789 19.8806 36.541C19.8806 36.4032 19.9925 36.291 20.1306 36.291H55.3039C55.4421 36.291 55.5539 36.4032 55.5539 36.541C55.5539 36.6789 55.4421 36.791 55.3039 36.791Z" fill="url(#paint7_linear_987_5950)"/>
<path d="M54.3076 37.3884L55.1561 36.5406L54.3076 35.6924H55.0275L55.8757 36.5406L55.0275 37.3884H54.3076Z" fill="url(#paint8_linear_987_5950)"/>
<path d="M22.8912 30.9899C22.7677 30.9899 22.6603 30.8986 22.6436 30.7727C22.6254 30.6359 22.7215 30.5097 22.8583 30.4916C23.043 30.4669 41.459 27.9453 51.5403 20.5118C51.6515 20.4297 51.8081 20.4533 51.8902 20.5645C51.972 20.6756 51.9484 20.8323 51.8372 20.9144C41.6519 28.4248 23.1104 30.9629 22.9243 30.9878C22.9131 30.9892 22.9021 30.9899 22.8912 30.9899Z" fill="url(#paint9_linear_987_5950)"/>
<path d="M51.7663 22.0442C51.7598 22.0442 51.753 22.0442 51.7465 22.0435C51.6086 22.0329 51.506 21.9122 51.5166 21.7747L51.5939 20.7921L50.2088 20.7101C50.071 20.7018 49.9656 20.5835 49.9738 20.4457C49.982 20.3079 50.0994 20.1998 50.2382 20.2107L51.8778 20.3079C51.9448 20.3116 52.0074 20.3424 52.0515 20.393C52.0956 20.4436 52.1175 20.51 52.1124 20.577L52.0153 21.8137C52.005 21.9447 51.8956 22.0442 51.7663 22.0442Z" fill="url(#paint10_linear_987_5950)"/>
<path d="M6.46821 32.4939C6.33894 32.0705 6.83621 31.7326 7.18643 32.0034C10.7436 34.7535 19.4655 43.1751 19.0537 59.3971C18.5373 79.7502 23.4338 86.6878 29.0806 90.664C29.0806 90.664 21.7145 89.2471 16.491 82.2318C3.6665 65.0081 8.76479 40.0245 6.46821 32.4939Z" fill="#7D97F4"/>
<g style="mix-blend-mode:soft-light">
<path d="M9.55607 38.5381C10.1795 40.7386 10.7596 42.95 11.2575 45.1792C11.7671 47.4056 12.2094 49.6465 12.5808 51.8979C12.9436 54.1507 13.2641 56.4096 13.4885 58.6792C13.7227 60.9474 13.8595 63.2234 13.9885 65.5087C14.1304 67.792 14.2604 70.0933 14.6263 72.3882C14.9892 74.6786 15.6315 76.9622 16.6722 79.0611C16.9321 79.584 17.2026 80.1042 17.5012 80.6035C17.7906 81.1083 18.1025 81.6008 18.4226 82.0871C19.0686 83.0571 19.7797 83.986 20.5567 84.8574C22.1156 86.5972 23.9378 88.0982 25.905 89.3277C26.1119 89.457 26.3848 89.3941 26.5141 89.1872C26.6413 88.984 26.5829 88.7173 26.3845 88.5853L26.3831 88.5842C25.9132 88.2716 25.4474 87.9539 24.9973 87.6167C24.7695 87.4515 24.5496 87.2767 24.3263 87.1061C24.1098 86.9272 23.8865 86.7569 23.6758 86.5715C22.8208 85.8447 22.0181 85.0585 21.2773 84.2168C19.7892 82.5427 18.5437 80.6377 17.546 78.6346C17.0583 77.627 16.6459 76.5853 16.3148 75.5155C15.9848 74.4453 15.7361 73.3482 15.5501 72.2356C15.1776 70.0099 15.0302 67.7335 14.8722 65.4513C14.7111 63.1687 14.5333 60.8762 14.2614 58.5944C14.1287 57.4534 13.9751 56.3146 13.8017 55.1794C13.7183 54.6114 13.6235 54.045 13.5302 53.4786C13.4313 52.913 13.3291 52.348 13.2227 51.784C12.7921 49.5288 12.2928 47.2876 11.7234 45.0656C11.1433 42.8464 10.5048 40.6428 9.78213 38.468C9.76161 38.4057 9.69424 38.3722 9.63233 38.3927C9.57214 38.4129 9.53863 38.4769 9.55573 38.5378L9.55607 38.5381Z" fill="white"/>
</g>
<path d="M13.573 94.9266C13.3123 95.5969 12.4515 95.7833 11.9303 95.2878C9.05437 92.552 1.62257 84.0819 2.69032 70.4208C3.59185 58.885 2.98444 52.5438 2.5094 49.6843C2.40885 49.0796 3.13869 48.6983 3.57885 49.1251C8.4326 53.8339 23.0175 70.6312 13.573 94.9266Z" fill="#91B3FA"/>
<g style="mix-blend-mode:soft-light">
<path d="M12.5996 94.9097C12.5846 94.9192 12.5685 94.9274 12.551 94.9339C12.4064 94.99 12.2436 94.9182 12.1878 94.7735C12.1242 94.6097 5.84019 78.1934 6.36927 62.0969C6.3744 61.942 6.50402 61.8205 6.65929 61.8253C6.81422 61.8305 6.93597 61.9601 6.93084 62.1154C6.40552 78.0949 12.6485 94.4076 12.7118 94.5707C12.761 94.698 12.7114 94.8395 12.5999 94.9097H12.5996Z" fill="white"/>
</g>
<path d="M9.23865 69.2461H32.1534C32.2222 69.2461 32.2776 69.3018 32.2776 69.3702V73.5338C32.2776 73.6026 32.2218 73.658 32.1534 73.658H9.23865C9.16991 73.658 9.1145 73.6022 9.1145 73.5338V69.3702C9.1145 69.3015 9.17025 69.2461 9.23865 69.2461Z" fill="url(#paint11_linear_987_5950)"/>
<path d="M9.25574 74.1396H32.1702C32.2389 74.1396 32.2943 74.1954 32.2943 74.2638V78.4274C32.2943 78.4961 32.2386 78.5515 32.1702 78.5515H9.25574C9.187 78.5515 9.13159 78.4958 9.13159 78.4274V74.2638C9.13159 74.1951 9.18734 74.1396 9.25574 74.1396Z" fill="url(#paint12_linear_987_5950)"/>
<path d="M32.1895 79.0332H9.27478C9.20622 79.0332 9.15063 79.0888 9.15063 79.1573V83.3209C9.15063 83.3895 9.20622 83.4451 9.27478 83.4451H32.1895C32.2581 83.4451 32.3137 83.3895 32.3137 83.3209V79.1573C32.3137 79.0888 32.2581 79.0332 32.1895 79.0332Z" fill="url(#paint13_linear_987_5950)"/>
<path d="M32.2076 83.9268H9.29285C9.22428 83.9268 9.1687 83.9823 9.1687 84.0509V88.2145C9.1687 88.2831 9.22428 88.3386 9.29285 88.3386H32.2076C32.2762 88.3386 32.3318 88.2831 32.3318 88.2145V84.0509C32.3318 83.9823 32.2762 83.9268 32.2076 83.9268Z" fill="url(#paint14_linear_987_5950)"/>
<path d="M9.31092 88.8203H32.2253C32.2941 88.8203 32.3495 88.8761 32.3495 88.9445V93.108C32.3495 93.1768 32.2937 93.2322 32.2253 93.2322H9.31092C9.24217 93.2322 9.18677 93.1765 9.18677 93.108V88.9445C9.18677 88.8757 9.24251 88.8203 9.31092 88.8203Z" fill="url(#paint15_linear_987_5950)"/>
<path d="M9.31092 93.6621H32.2253C32.2941 93.6621 32.3495 93.7179 32.3495 93.7863V97.9498C32.3495 98.0186 32.2937 98.074 32.2253 98.074H9.31092C9.24217 98.074 9.18677 98.0182 9.18677 97.9498V93.7863C9.18677 93.7175 9.24251 93.6621 9.31092 93.6621Z" fill="url(#paint16_linear_987_5950)"/>
<path d="M28.5842 64.0729C33.2007 59.4563 33.2007 51.9714 28.5842 47.3548C23.9676 42.7383 16.4827 42.7383 11.8661 47.3548C7.24954 51.9714 7.24954 59.4563 11.8661 64.0729C16.4827 68.6895 23.9676 68.6895 28.5842 64.0729Z" fill="url(#paint17_linear_987_5950)"/>
<path d="M28.3065 63.7948C32.7694 59.3318 32.7694 52.0959 28.3065 47.633C23.8435 43.17 16.6076 43.17 12.1446 47.633C7.68167 52.0959 7.68167 59.3318 12.1446 63.7948C16.6076 68.2577 23.8435 68.2577 28.3065 63.7948Z" fill="url(#paint18_linear_987_5950)"/>
<path opacity="0.7" d="M10.8015 51.2288C10.7618 51.2288 10.7214 51.2199 10.6835 51.2007C10.5542 51.1354 10.5022 50.9777 10.5675 50.8485C12.4188 47.1808 16.1193 44.9023 20.2251 44.9023C20.8807 44.9023 21.537 44.9615 22.1752 45.0778C22.3178 45.1038 22.4122 45.2402 22.3862 45.3829C22.3602 45.5255 22.2238 45.6199 22.0812 45.5939C21.4738 45.4831 20.8489 45.427 20.2248 45.427C16.318 45.427 12.7971 47.595 11.0354 51.0851C10.9892 51.1765 10.8969 51.2291 10.8011 51.2291L10.8015 51.2288Z" fill="white"/>
<path opacity="0.78" d="M27.3136 62.8034C31.091 59.0261 31.091 52.9017 27.3136 49.1243C23.5363 45.3469 17.4119 45.3469 13.6345 49.1243C9.8571 52.9017 9.8571 59.026 13.6345 62.8034C17.4119 66.5808 23.5363 66.5808 27.3136 62.8034Z" fill="white"/>
<path d="M19.5256 63.1538V62.1015C18.4285 62.0577 17.3436 61.7988 16.5728 61.4612C16.2974 61.3408 16.1572 61.032 16.2362 60.742L16.5037 59.7618C16.6018 59.4023 16.9927 59.2163 17.3365 59.3603C18.1008 59.6807 19.0448 59.9342 20.0626 59.9342C21.0804 59.9342 21.907 59.5761 21.907 58.8418C21.907 58.1793 21.2983 57.7853 19.8297 57.3913C17.7342 56.8181 16.2301 55.905 16.2301 54.0602C16.2301 52.3946 17.448 51.1231 19.5612 50.7828V49.7304C19.5612 49.3918 19.8358 49.1172 20.1744 49.1172H20.7928C21.1314 49.1172 21.406 49.3918 21.406 49.7304V50.6754C22.4211 50.7161 23.1601 50.8895 23.7463 51.0957C24.0466 51.2014 24.2108 51.5249 24.1277 51.8324L23.8818 52.739C23.787 53.0886 23.4132 53.2801 23.0746 53.1518C22.5346 52.9477 21.7713 52.7353 20.7791 52.7353C19.5253 52.7353 19.1672 53.2544 19.1672 53.7203C19.1672 54.2935 19.9193 54.6874 21.549 55.1888C23.877 55.8872 24.8442 56.8544 24.8442 58.5914C24.8442 60.1852 23.6622 61.6182 21.3701 61.9763V63.1538C21.3701 63.4924 21.0955 63.767 20.7569 63.767H20.1385C19.7999 63.767 19.5253 63.4924 19.5253 63.1538H19.5256Z" fill="url(#paint19_linear_987_5950)"/>
<path d="M58.1659 74.1396H35.2511C35.1825 74.1396 35.127 74.1952 35.127 74.2638V78.4274C35.127 78.496 35.1825 78.5515 35.2511 78.5515H58.1659C58.2344 78.5515 58.29 78.496 58.29 78.4274V74.2638C58.29 74.1952 58.2344 74.1396 58.1659 74.1396Z" fill="url(#paint20_linear_987_5950)"/>
<path d="M35.2692 79.0332H58.1836C58.2523 79.0332 58.3077 79.0889 58.3077 79.1573V83.3209C58.3077 83.3897 58.252 83.4451 58.1836 83.4451H35.2692C35.2004 83.4451 35.145 83.3893 35.145 83.3209V79.1573C35.145 79.0886 35.2008 79.0332 35.2692 79.0332Z" fill="url(#paint21_linear_987_5950)"/>
<path d="M58.202 83.9268H35.2872C35.2187 83.9268 35.1631 83.9823 35.1631 84.0509V88.2145C35.1631 88.2831 35.2187 88.3386 35.2872 88.3386H58.202C58.2706 88.3386 58.3261 88.2831 58.3261 88.2145V84.0509C58.3261 83.9823 58.2706 83.9268 58.202 83.9268Z" fill="url(#paint22_linear_987_5950)"/>
<path d="M35.3053 88.8203H58.2197C58.2885 88.8203 58.3439 88.8761 58.3439 88.9445V93.108C58.3439 93.1768 58.2881 93.2322 58.2197 93.2322H35.3053C35.2366 93.2322 35.1812 93.1765 35.1812 93.108V88.9445C35.1812 88.8757 35.2369 88.8203 35.3053 88.8203Z" fill="url(#paint23_linear_987_5950)"/>
<path d="M35.3053 93.6621H58.2197C58.2885 93.6621 58.3439 93.7179 58.3439 93.7863V97.9498C58.3439 98.0186 58.2881 98.074 58.2197 98.074H35.3053C35.2366 98.074 35.1812 98.0182 35.1812 97.9498V93.7863C35.1812 93.7175 35.2369 93.6621 35.3053 93.6621Z" fill="url(#paint24_linear_987_5950)"/>
<path d="M54.2067 69.0827C58.8233 64.4661 58.8233 56.9812 54.2067 52.3646C49.5902 47.748 42.1052 47.748 37.4887 52.3646C32.8721 56.9812 32.8721 64.4661 37.4887 69.0827C42.1052 73.6992 49.5901 73.6992 54.2067 69.0827Z" fill="url(#paint25_linear_987_5950)"/>
<path d="M53.9288 68.8045C58.3917 64.3416 58.3917 57.1057 53.9288 52.6427C49.4658 48.1798 42.2299 48.1798 37.7669 52.6427C33.304 57.1057 33.304 64.3416 37.767 68.8045C42.2299 73.2675 49.4658 73.2675 53.9288 68.8045Z" fill="url(#paint26_linear_987_5950)"/>
<path opacity="0.7" d="M36.4238 56.2385C36.3841 56.2385 36.3437 56.2296 36.3058 56.2105C36.1765 56.1452 36.1245 55.9875 36.1898 55.8582C38.0411 52.1906 41.7416 49.9121 45.8474 49.9121C46.503 49.9121 47.1593 49.9713 47.7975 50.0876C47.9401 50.1136 48.0345 50.25 48.0085 50.3926C47.9826 50.5352 47.8461 50.6296 47.7035 50.6036C47.0961 50.4928 46.4712 50.4367 45.8471 50.4367C41.9403 50.4367 38.4194 52.6047 36.6577 56.0949C36.6115 56.1862 36.5192 56.2389 36.4234 56.2389L36.4238 56.2385Z" fill="white"/>
<path opacity="0.78" d="M52.9362 67.8122C56.7136 64.0348 56.7136 57.9105 52.9362 54.1331C49.1588 50.3557 43.0344 50.3557 39.2571 54.1331C35.4797 57.9105 35.4797 64.0348 39.2571 67.8122C43.0344 71.5896 49.1588 71.5896 52.9362 67.8122Z" fill="white"/>
<path d="M45.1475 68.1636V67.1112C44.0503 67.0674 42.9655 66.8085 42.1946 66.471C41.9193 66.3506 41.7791 66.0418 41.8581 65.7517L42.1255 64.7716C42.2237 64.4121 42.6146 64.2261 42.9583 64.37C43.7227 64.6905 44.6666 64.9439 45.6844 64.9439C46.7022 64.9439 47.5289 64.5858 47.5289 63.8516C47.5289 63.1891 46.9201 62.7951 45.4515 62.4011C43.356 61.8279 41.8519 60.9147 41.8519 59.07C41.8519 57.4044 43.0698 56.1328 45.183 55.7925V54.7402C45.183 54.4016 45.4577 54.127 45.7963 54.127H46.4146C46.7532 54.127 47.0278 54.4016 47.0278 54.7402V55.6851C48.0429 55.7258 48.782 55.8992 49.3682 56.1055C49.6685 56.2111 49.8326 56.5347 49.7495 56.8421L49.5036 57.7488C49.4089 58.0983 49.0351 58.2899 48.6965 58.1616C48.1564 57.9574 47.3934 57.745 46.4009 57.745C45.1471 57.745 44.789 58.2642 44.789 58.73C44.789 59.3032 45.5411 59.6972 47.1708 60.1986C49.4988 60.897 50.466 61.8642 50.466 63.6012C50.466 65.195 49.284 66.628 46.9919 66.986V68.1636C46.9919 68.5022 46.7173 68.7768 46.3787 68.7768H45.7603C45.4218 68.7768 45.1471 68.5022 45.1471 68.1636H45.1475Z" fill="url(#paint27_linear_987_5950)"/>
<path d="M43.7268 37.5366C49.585 38.4155 53.4035 34.7191 56.2487 32.4769C60.0053 29.5165 62.9284 30.9567 62.9284 30.9567L59.5518 38.5092C53.5694 44.1499 46.8059 42.9905 42.9388 41.1625C42.8793 39.6857 43.274 38.4497 43.7268 37.5366Z" fill="url(#paint28_linear_987_5950)"/>
<path d="M35.4931 34.0414L37.4357 35.0869C39.7658 36.5055 41.8506 37.2548 43.7269 37.5363C43.2741 38.4498 42.8794 39.6855 42.9389 41.1623C40.4772 39.9988 38.934 38.602 38.934 38.602C34.5331 35.9778 35.4934 34.041 35.4934 34.041L35.4931 34.0414Z" fill="url(#paint29_linear_987_5950)"/>
<path d="M29.7706 36.7787C29.8962 36.3618 30.2043 36.0246 30.6082 35.8621L34.5509 34.2766C34.5509 34.2766 34.6104 33.7708 33.7177 33.4274C32.8251 33.0837 33.0337 32.084 33.0337 32.084C33.0337 32.084 34.253 32.6401 36.0382 33.5225C37.0591 34.0269 37.632 34.9178 37.9357 35.5885L36.9206 36.9234C34.4907 37.6532 32.0316 37.7931 29.5518 37.5034L29.77 36.779L29.7706 36.7787Z" fill="url(#paint30_linear_987_5950)"/>
<path d="M70.2712 46.3507C71.0455 46.39 71.4087 46.18 71.5069 45.8353C71.8267 44.7234 69.4326 42.3085 69.3492 42.2241C69.4391 42.2808 72.5986 44.2898 75.6934 42.1327C77.7721 40.6837 75.9037 39.4439 74.3568 38.7691C75.0466 38.7052 76.0422 38.4835 77.4851 37.9818C81.488 36.5916 78.3077 34.8254 76.8524 34.1736C77.6066 34.2645 78.9978 33.8268 80.8508 30.6731C83.7859 25.6819 78.9972 27.7965 78.9972 27.7965C78.9972 27.7965 81.16 26.0143 80.701 19.9683C80.3823 15.762 78.8846 17.9741 78.0761 19.5258C78.9657 17.495 80.5068 13.1477 78.7588 10.7554C77.1226 8.51489 76.0412 11.7865 75.6876 13.1976C75.9509 11.6709 76.309 8.05045 75.5484 5.54218C75.5456 5.53602 75.5446 5.53021 75.5419 5.52405C75.3674 4.95358 75.1345 4.44331 74.8301 4.03153C73.1102 1.71136 71.8574 12.6487 70.6898 15.5076C69.5236 18.364 64.8921 22.4735 66.6586 26.4969C68.5266 30.7487 64.5046 41.5315 64.5046 41.5315C65.1096 44.8691 67.0519 46.1876 70.2715 46.3511L70.2712 46.3507Z" fill="#91B3FA"/>
<path d="M71.5066 45.8352C71.8263 44.7233 69.4323 42.3084 69.3489 42.2239C69.4388 42.2807 72.5983 44.2896 75.6931 42.1326C77.7718 40.6835 75.9034 39.4438 74.3565 38.769C75.0463 38.705 76.0419 38.4834 77.4848 37.9817C81.4877 36.5914 78.3074 34.8253 76.8521 34.1734C77.6063 34.2644 78.9975 33.8267 80.8505 30.673C83.7856 25.6818 78.9969 27.7964 78.9969 27.7964C78.9969 27.7964 81.1597 26.0142 80.7007 19.9682C80.382 15.7619 78.8843 17.974 78.0758 19.5257C78.9654 17.4948 80.5065 13.1476 78.7585 10.7553C77.1223 8.51477 76.0409 11.7864 75.6873 13.1975C75.9506 11.6708 76.3087 8.05033 75.5481 5.54205C75.5453 5.5359 75.5443 5.53008 75.5416 5.52393C74.6968 2.98111 74.1031 6.97814 73.9694 7.86188C73.5521 10.6229 73.6096 13.8207 72.4447 16.5441C71.8647 17.9039 71.0168 19.1488 70.3756 20.4744C69.7367 21.7925 69.1139 23.2395 69.1372 24.7348C69.1645 26.507 70.1512 28.043 70.3232 29.8354C70.5695 32.4039 69.4853 35.5658 68.6765 37.954C68.1638 39.4708 67.6204 40.9937 66.9958 42.4507C67.0923 44.8847 69.3581 45.9162 71.5066 45.8352Z" fill="#BDD0FB"/>
<path d="M75.8167 46.837C76.6591 47.0853 77.1297 46.9913 77.3558 46.7016C78.0894 45.7669 76.2808 42.7914 76.2162 42.6847C76.2979 42.7671 79.0757 45.5849 83.0926 44.4926C85.7192 43.7781 84.2705 42.0978 82.9059 40.9921C83.6507 41.1498 84.7595 41.2551 86.407 41.2401C90.8274 41.2011 88.3879 38.5947 87.1679 37.5006C87.8954 37.8409 89.4419 37.898 92.4287 35.6028C97.106 32.0111 91.7279 32.2156 91.7279 32.2156C91.7279 32.2156 94.5163 31.337 96.4743 25.2872C97.8864 20.927 95.517 22.4732 94.0833 23.6767C95.7927 22.0231 99.0961 18.311 98.4069 14.909C97.7359 11.5936 95.2297 14.552 94.2683 15.8851C95.1859 14.3776 97.1097 10.6155 97.425 7.35582C97.425 7.34727 97.4264 7.33975 97.4264 7.3312C97.4979 6.57605 97.4818 5.84792 97.3474 5.18237C96.5639 1.33275 90.4139 13.1655 87.9221 15.7011C85.4312 18.2364 78.3066 20.3647 78.8756 25.6778C79.4461 30.9905 70.7769 40.4237 70.7769 40.4237C70.357 43.9187 72.2072 45.7724 75.8174 46.837H75.8167Z" fill="#7D97F4"/>
<path d="M77.3553 46.7022C78.0889 45.7675 76.2804 42.792 76.2158 42.6853C76.2975 42.7677 79.0753 45.5855 83.0921 44.4931C85.7187 43.7787 84.27 42.0984 82.9054 40.9927C83.6503 41.1504 84.7591 41.2557 86.4065 41.2407C90.827 41.2017 88.3874 38.5952 87.1675 37.5012C87.8949 37.8415 89.4415 37.8986 92.4282 35.6034C97.1055 32.0116 91.7274 32.2161 91.7274 32.2161C91.7274 32.2161 94.5158 31.3375 96.4738 25.2878C97.886 20.9275 95.5165 22.4738 94.0828 23.6773C95.7922 22.0237 99.0956 18.3115 98.4065 14.9096C97.7355 11.5942 95.2293 14.5525 94.2679 15.8857C95.1855 14.3781 97.1093 10.6161 97.4246 7.35639C97.4246 7.34784 97.426 7.34032 97.426 7.33177C97.6777 3.884 95.2785 8.09752 94.7508 9.0182C93.1139 11.8757 91.8208 15.4424 89.4316 17.7886C88.239 18.962 86.795 19.8755 85.543 20.9857C84.2943 22.0907 83.0107 23.3448 82.4509 24.9567C81.7939 26.8466 82.3223 28.8853 81.8322 30.7996C81.1417 33.4976 78.7555 36.244 76.9689 38.3172C75.8372 39.6322 74.6692 40.9411 73.4305 42.1583C72.7003 44.54 74.9438 46.1782 77.3557 46.7018L77.3553 46.7022Z" fill="#91B3FA"/>
<path d="M61.3646 94.875C62.918 95.0094 65.614 95.2273 67.7393 95.321C69.017 95.3771 69.7523 95.2522 70.1761 95.0826C70.1754 95.1305 70.174 95.1756 70.1719 95.2173C70.162 95.441 69.9801 95.6199 69.7544 95.6325C65.7385 95.8566 62.5445 95.7102 61.4074 95.6408C61.1724 95.6264 61.0322 95.3709 61.1522 95.1705C61.2124 95.0703 61.2853 94.9721 61.3643 94.875H61.3646Z" fill="url(#paint31_linear_987_5950)"/>
<path d="M67.7384 95.3208C65.6132 95.2271 62.9172 95.0092 61.3638 94.8748C62.8908 93.001 67.7384 91.7383 67.7384 91.7383H69.1075C70.049 93.0957 70.1855 94.3878 70.1752 95.0824C69.7515 95.2521 69.0162 95.3772 67.7384 95.3208Z" fill="url(#paint32_linear_987_5950)"/>
<path d="M69.3385 89.5039L69.2103 92.0392C69.1963 92.3138 68.991 92.5443 68.7161 92.5837C68.4425 92.6227 68.0762 92.6278 67.6877 92.4985C67.4486 92.4188 67.2711 92.2177 67.227 91.9718L66.7844 89.5039H69.3385Z" fill="url(#paint33_linear_987_5950)"/>
<path d="M85.2287 97.7993C85.9024 97.6779 86.2072 97.2258 86.3347 96.7422C86.3358 96.7466 86.3364 96.7507 86.3371 96.7552C86.4363 97.2651 86.2065 97.7939 85.7472 98.0452C85.1921 98.3489 84.585 98.4009 84.1137 98.3756C83.6083 98.3486 83.1441 98.0784 82.889 97.6454L82.8853 97.6389C83.3928 97.9635 84.1052 98.0018 85.2287 97.7993Z" fill="url(#paint34_linear_987_5950)"/>
<path d="M82.0526 90.2845H83.1816C84.9012 90.239 85.9813 94.9269 86.3349 96.7426C86.207 97.2262 85.9023 97.6783 85.2289 97.7998C84.1054 98.0022 83.393 97.9639 82.8854 97.6394C81.9562 96.0593 81.4959 93.7449 81.2742 92.3943C81.0225 90.8584 82.0526 90.2845 82.0526 90.2845Z" fill="url(#paint35_linear_987_5950)"/>
<path d="M83.0357 87.9316L83.6626 90.4252C83.7395 90.731 83.5932 91.0473 83.3103 91.1923C82.9598 91.3722 82.4659 91.5614 82.0121 91.5066C81.7987 91.481 81.6215 91.3305 81.5507 91.1297L80.6304 88.5062L83.0354 87.9316H83.0357Z" fill="url(#paint36_linear_987_5950)"/>
<path d="M60.9814 55.0898C60.9814 55.0898 66.5842 90.1112 66.4919 90.3034C66.4919 90.3034 68.0394 91.0066 69.7262 90.393C69.7262 90.393 69.2197 71.6716 68.0322 64.4933C68.0322 64.4933 77.5941 81.2266 80.6304 89.5644C80.6304 89.5644 82.2142 89.3756 83.5251 88.5127C83.5251 88.5127 73.2297 58.3936 70.4831 54.3818L60.9814 55.0894V55.0898Z" fill="url(#paint37_linear_987_5950)"/>
<path opacity="0.49" d="M67.8089 64.3709C67.7336 64.3709 67.6601 64.3337 67.6177 64.2652L65.5749 61.0029L64.1292 60.7121C64.0071 60.6875 63.9281 60.5688 63.9527 60.4471C63.9774 60.325 64.0957 60.2477 64.2178 60.2706L65.7582 60.5805C65.8191 60.5928 65.8721 60.6294 65.9049 60.6817L67.999 64.0262C68.065 64.1319 68.0329 64.2707 67.9275 64.3367C67.8903 64.36 67.8492 64.3709 67.8085 64.3709H67.8089Z" fill="url(#paint38_linear_987_5950)"/>
<path d="M60.0983 30.6366C62.284 30.5084 69.4874 30.2745 75.4475 32.2437C76.702 32.6582 77.5775 34.3201 78.1012 35.5215C79.7134 39.2217 75.8754 40.7152 72.9105 39.6998C71.4006 43.7772 70.6919 49.7268 70.5438 52.3599C70.4949 53.2268 70.6471 54.0921 70.9874 54.8924L71.0244 54.9796C71.0972 55.151 70.997 55.3476 70.814 55.389C66.7346 56.3052 62.4913 56.0563 61.2235 55.9516C60.9971 55.9328 60.8093 55.771 60.7573 55.5521C58.7737 47.1932 58.7689 41.4912 59.2546 37.8868C57.3988 38.3017 59.6978 30.6596 60.0979 30.6363L60.0983 30.6366Z" fill="url(#paint39_linear_987_5950)"/>
<path d="M59.2475 38.1717C59.2376 38.1717 59.2277 38.171 59.2174 38.17C59.0943 38.1535 59.0078 38.0403 59.0242 37.9172C59.5023 34.3019 60.4647 32.7533 60.5058 32.689C60.5728 32.5843 60.7124 32.5539 60.816 32.6195C60.921 32.6859 60.9524 32.8251 60.8861 32.9301C60.8765 32.9448 59.934 34.4739 59.4702 37.9764C59.4555 38.0896 59.3587 38.172 59.2475 38.172V38.1717Z" fill="url(#paint40_linear_987_5950)"/>
<path d="M69.3144 25.7676C69.3144 25.7676 69.7272 30.1312 70.0904 31.422C70.1455 31.6179 70.0603 31.8242 69.8825 31.9261C69.2658 32.2784 67.7867 32.8533 65.7634 31.8618C65.4357 31.701 65.2384 31.3594 65.2538 30.9979L65.432 26.7813L69.3144 25.7679V25.7676Z" fill="url(#paint41_linear_987_5950)"/>
<path d="M65.3434 20.1846C65.3434 20.1846 64.0232 23.2168 63.9346 24.8085C63.8461 26.4002 63.503 27.4327 65.3434 27.7532C67.1837 28.0736 68.734 27.1571 69.5736 25.5715C69.5736 25.5715 70.8897 23.1286 70.5942 22.1282C70.299 21.1278 65.343 20.1846 65.343 20.1846H65.3434Z" fill="url(#paint42_linear_987_5950)"/>
<path d="M68.9449 24.4314L68.8402 24.3852C68.7068 24.3264 68.6497 24.1677 68.7167 24.0381C68.9763 23.5367 69.4822 22.3876 68.8286 22.1198C67.9862 21.7743 64.6499 21.0941 63.9304 19.9101C63.2385 18.7722 63.8514 17.3036 64.7727 16.886C64.8343 16.858 64.9071 16.8802 64.9386 16.9401L65.0152 17.0854C65.0679 17.185 65.2146 17.1699 65.2457 17.0618C65.2758 16.9582 65.4136 16.938 65.4708 17.0297C65.692 17.384 66.2895 17.9579 67.8867 18.2527C70.1569 18.6717 71.658 19.5903 71.6953 21.1591C71.6977 21.2586 71.8037 21.314 71.8888 21.2624C72.0564 21.1601 72.3246 21.1122 72.6833 21.4139C73.3068 21.9382 73.0517 23.298 71.685 24.4167C71.62 24.4697 71.6207 24.5713 71.6908 24.6171C71.9388 24.7785 72.3081 25.1623 71.3509 25.6739C70.3608 26.203 69.6217 26.1595 69.3371 26.1127C69.2663 26.1011 69.2205 26.0323 69.2362 25.9622L69.54 24.5832C69.5571 24.5053 69.4979 24.4314 69.4179 24.4314H68.9445H68.9449Z" fill="url(#paint43_linear_987_5950)"/>
<path d="M68.8877 24.7225C68.8877 24.7225 69.3911 22.7854 70.2598 23.3285C71.1282 23.8716 69.8091 25.4989 69.111 25.5714L68.8877 24.7225Z" fill="url(#paint44_linear_987_5950)"/>
<path d="M69.7031 68.4336L69.8874 74.1711C69.9196 75.1715 70.7407 75.9677 71.7462 75.9738L85.4856 76.0549C86.1577 76.059 86.7305 75.5706 86.8284 74.9085C87.0431 73.4594 87.3171 70.867 87.0086 68.4336H69.7024H69.7031Z" fill="url(#paint45_linear_987_5950)"/>
<path d="M73.7293 64.2678L73.7707 63.8253C73.8172 63.7196 73.9144 63.6447 74.0286 63.6266C74.4568 63.5585 75.5184 63.4388 76.0293 63.8208L76.1056 64.3349L73.729 64.2678H73.7293Z" fill="url(#paint46_linear_987_5950)"/>
<path d="M75.066 63.8423C74.9675 63.8663 74.8687 63.8663 74.7699 63.842C74.6502 63.8126 74.5657 63.7055 74.5657 63.5827V62.1973H75.2709V63.5817C75.2709 63.7048 75.1864 63.8129 75.066 63.8423Z" fill="url(#paint47_linear_987_5950)"/>
<path d="M80.5594 64.2678L80.6008 63.8253C80.6473 63.7196 80.7444 63.6447 80.8587 63.6266C81.2869 63.5585 82.3485 63.4388 82.8594 63.8208L82.9357 64.3349L80.5591 64.2678H80.5594Z" fill="url(#paint48_linear_987_5950)"/>
<path d="M81.8963 63.8428C81.7978 63.8668 81.699 63.8668 81.6002 63.8425C81.4805 63.8131 81.396 63.706 81.396 63.5833V62.0518H82.1012V63.5822C82.1012 63.7054 82.0167 63.8134 81.8963 63.8428Z" fill="url(#paint49_linear_987_5950)"/>
<path d="M74.4946 62.5373L82.0779 62.2863C82.251 62.2804 82.3974 62.1559 82.4271 61.9863C82.4685 61.749 82.5054 61.3936 82.4507 61.0253C82.3885 60.6063 82.0283 60.2951 81.6029 60.2848C80.1884 60.2513 76.587 60.2523 74.602 61.0372C74.392 61.1204 74.2364 61.2996 74.1834 61.5181C74.1328 61.7264 74.0989 62.0048 74.1653 62.2883C74.2005 62.4388 74.3397 62.5424 74.495 62.5373H74.4946Z" fill="url(#paint50_linear_987_5950)"/>
<path d="M74.3627 62.1433C74.3459 62.1433 74.3312 62.1307 74.3295 62.1132C74.3282 62.1012 74.3008 61.816 74.375 61.5417C74.4314 61.3331 74.5963 61.1655 74.8056 61.1043C75.228 60.9805 76.0354 60.7695 76.6948 60.751C76.7133 60.7503 76.7287 60.765 76.729 60.7835C76.7297 60.802 76.715 60.8174 76.6965 60.8177C76.0443 60.8358 75.2437 61.0451 74.8241 61.1682C74.637 61.2233 74.4896 61.3731 74.439 61.5592C74.3682 61.8215 74.3952 62.1036 74.3955 62.1064C74.3972 62.1248 74.3839 62.1409 74.3658 62.143C74.3648 62.143 74.3634 62.143 74.3624 62.143L74.3627 62.1433Z" fill="#91B3FA"/>
<path d="M70.2109 64.0958C72.6607 64.0644 83.2588 63.9532 86.3372 64.3246C86.6022 64.3564 86.8184 64.5504 86.8758 64.8099C87.0578 65.6325 87.4237 67.5426 87.3803 69.4363C87.3745 69.6941 87.1853 69.9113 86.9309 69.9595L79.9037 71.2889H77.4074L69.9198 69.8005C69.6558 69.7482 69.4612 69.5245 69.4479 69.257C69.3993 68.3042 69.323 66.0689 69.5809 64.63C69.6356 64.3243 69.8986 64.0996 70.2105 64.0955L70.2109 64.0958Z" fill="url(#paint51_linear_987_5950)"/>
<path d="M79.6686 72.3374H77.4818C77.1952 72.3374 76.9538 72.1243 76.9199 71.8408L76.6672 69.7364C76.6268 69.4013 76.8898 69.1064 77.2291 69.1064H79.8564C80.1888 69.1064 80.4494 69.39 80.42 69.7197L80.2323 71.824C80.2063 72.1147 79.9617 72.3374 79.6686 72.3374Z" fill="url(#paint52_linear_987_5950)"/>
<path d="M79.4983 72.0924H77.6429C77.3997 72.0924 77.1949 71.9115 77.1661 71.6714L76.9517 69.8861C76.9175 69.6019 77.1408 69.3516 77.4285 69.3516H79.6573C79.9391 69.3516 80.1604 69.5923 80.1354 69.8718L79.9764 71.657C79.9545 71.9036 79.7469 72.0927 79.4983 72.0927V72.0924Z" fill="#7D97F4"/>
<path d="M76.0752 43.5723C76.0752 43.5723 78.2822 53.5288 76.2831 59.1264C78.734 60.2629 78.2811 60.0485 78.2811 60.0485C78.2811 60.0485 83.1298 45.8819 81.5644 42.101C78.4781 41.7737 76.9473 42.6027 76.0752 43.5723Z" fill="url(#paint53_linear_987_5950)"/>
<path d="M76.2831 59.1263C76.2831 59.1263 75.02 60.7607 75.1213 61.4119C75.2221 62.0631 75.2464 62.3281 75.2464 62.3281C75.2464 62.3281 75.8812 61.8941 75.8412 61.3394C75.7529 63.0997 76.2099 62.9417 76.7458 62.8452C77.2814 62.7488 79.0085 62.3521 78.3813 59.6273C76.9585 58.6386 76.5597 58.7463 76.2834 59.1259L76.2831 59.1263Z" fill="url(#paint54_linear_987_5950)"/>
<path d="M71.9373 39.7362L75.5779 32.2969C75.5779 32.2969 85.4311 38.2324 80.643 52.3593C79.3372 51.4492 78.6645 51.6866 77.042 52.2803C76.6463 37.6787 71.9373 39.7362 71.9373 39.7362Z" fill="url(#paint55_linear_987_5950)"/>
<defs>
<linearGradient id="paint0_linear_987_5950" x1="103.957" y1="110.492" x2="33.7017" y2="34.6618" gradientUnits="userSpaceOnUse">
<stop stop-color="#DAE3FE"/>
<stop offset="1" stop-color="#E9EFFD"/>
</linearGradient>
<linearGradient id="paint1_linear_987_5950" x1="30.2122" y1="32.8861" x2="30.5596" y2="32.8861" gradientUnits="userSpaceOnUse">
<stop stop-color="#4F52FF"/>
<stop offset="1" stop-color="#4042E2"/>
</linearGradient>
<linearGradient id="paint2_linear_987_5950" x1="38.6006" y1="31.5773" x2="38.934" y2="31.5773" gradientUnits="userSpaceOnUse">
<stop stop-color="#4F52FF"/>
<stop offset="1" stop-color="#4042E2"/>
</linearGradient>
<linearGradient id="paint3_linear_987_5950" x1="44.669" y1="31.3911" x2="45.3219" y2="31.3911" gradientUnits="userSpaceOnUse">
<stop stop-color="#4F52FF"/>
<stop offset="1" stop-color="#4042E2"/>
</linearGradient>
<linearGradient id="paint4_linear_987_5950" x1="51.0598" y1="28.6873" x2="51.3936" y2="28.6873" gradientUnits="userSpaceOnUse">
<stop stop-color="#4F52FF"/>
<stop offset="1" stop-color="#4042E2"/>
</linearGradient>
<linearGradient id="paint5_linear_987_5950" x1="19.4686" y1="27.3987" x2="21.6783" y2="27.3987" gradientUnits="userSpaceOnUse">
<stop stop-color="#4F52FF"/>
<stop offset="1" stop-color="#4042E2"/>
</linearGradient>
<linearGradient id="paint6_linear_987_5950" x1="18.8972" y1="17.5521" x2="20.6479" y2="17.5521" gradientUnits="userSpaceOnUse">
<stop stop-color="#4F52FF"/>
<stop offset="1" stop-color="#4042E2"/>
</linearGradient>
<linearGradient id="paint7_linear_987_5950" x1="19.8806" y1="36.541" x2="55.5539" y2="36.541" gradientUnits="userSpaceOnUse">
<stop stop-color="#4F52FF"/>
<stop offset="1" stop-color="#4042E2"/>
</linearGradient>
<linearGradient id="paint8_linear_987_5950" x1="54.3076" y1="36.5406" x2="55.8757" y2="36.5406" gradientUnits="userSpaceOnUse">
<stop stop-color="#4F52FF"/>
<stop offset="1" stop-color="#4042E2"/>
</linearGradient>
<linearGradient id="paint9_linear_987_5950" x1="22.6415" y1="25.7264" x2="51.9391" y2="25.7264" gradientUnits="userSpaceOnUse">
<stop stop-color="#4F52FF"/>
<stop offset="1" stop-color="#4042E2"/>
</linearGradient>
<linearGradient id="paint10_linear_987_5950" x1="49.9735" y1="21.127" x2="52.1134" y2="21.127" gradientUnits="userSpaceOnUse">
<stop stop-color="#4F52FF"/>
<stop offset="1" stop-color="#4042E2"/>
</linearGradient>
<linearGradient id="paint11_linear_987_5950" x1="24.9172" y1="13.26" x2="18.4174" y2="102.865" gradientUnits="userSpaceOnUse">
<stop stop-color="#FF928E"/>
<stop offset="1" stop-color="#FE7062"/>
</linearGradient>
<linearGradient id="paint12_linear_987_5950" x1="25.2897" y1="13.254" x2="18.7898" y2="102.859" gradientUnits="userSpaceOnUse">
<stop stop-color="#FF928E"/>
<stop offset="1" stop-color="#FE7062"/>
</linearGradient>
<linearGradient id="paint13_linear_987_5950" x1="25.6641" y1="13.248" x2="19.1642" y2="102.853" gradientUnits="userSpaceOnUse">
<stop stop-color="#FF928E"/>
<stop offset="1" stop-color="#FE7062"/>
</linearGradient>
<linearGradient id="paint14_linear_987_5950" x1="26.0378" y1="13.2416" x2="19.538" y2="102.847" gradientUnits="userSpaceOnUse">
<stop stop-color="#FF928E"/>
<stop offset="1" stop-color="#FE7062"/>
</linearGradient>
<linearGradient id="paint15_linear_987_5950" x1="26.4109" y1="13.2356" x2="19.9111" y2="102.841" gradientUnits="userSpaceOnUse">
<stop stop-color="#FF928E"/>
<stop offset="1" stop-color="#FE7062"/>
</linearGradient>
<linearGradient id="paint16_linear_987_5950" x1="26.7628" y1="13.2277" x2="20.263" y2="102.833" gradientUnits="userSpaceOnUse">
<stop stop-color="#FF928E"/>
<stop offset="1" stop-color="#FE7062"/>
</linearGradient>
<linearGradient id="paint17_linear_987_5950" x1="4.04882" y1="74.4899" x2="19.9049" y2="56.0855" gradientUnits="userSpaceOnUse">
<stop stop-color="#FF928E"/>
<stop offset="1" stop-color="#FE7062"/>
</linearGradient>
<linearGradient id="paint18_linear_987_5950" x1="19.1091" y1="30.0356" x2="21.415" y2="83.065" gradientUnits="userSpaceOnUse">
<stop stop-color="#FF928E"/>
<stop offset="1" stop-color="#FE7062"/>
</linearGradient>
<linearGradient id="paint19_linear_987_5950" x1="23.2511" y1="34.6113" x2="21.3492" y2="49.8279" gradientUnits="userSpaceOnUse">
<stop stop-color="#FF928E"/>
<stop offset="1" stop-color="#FE7062"/>
</linearGradient>
<linearGradient id="paint20_linear_987_5950" x1="51.5928" y1="35.2132" x2="42.7499" y2="109.681" gradientUnits="userSpaceOnUse">
<stop stop-color="#FF928E"/>
<stop offset="1" stop-color="#FE7062"/>
</linearGradient>
<linearGradient id="paint21_linear_987_5950" x1="52.1892" y1="35.2386" x2="43.3463" y2="109.706" gradientUnits="userSpaceOnUse">
<stop stop-color="#FF928E"/>
<stop offset="1" stop-color="#FE7062"/>
</linearGradient>
<linearGradient id="paint22_linear_987_5950" x1="52.7853" y1="35.2641" x2="43.9424" y2="109.731" gradientUnits="userSpaceOnUse">
<stop stop-color="#FF928E"/>
<stop offset="1" stop-color="#FE7062"/>
</linearGradient>
<linearGradient id="paint23_linear_987_5950" x1="53.3814" y1="35.2895" x2="44.5381" y2="109.757" gradientUnits="userSpaceOnUse">
<stop stop-color="#FF928E"/>
<stop offset="1" stop-color="#FE7062"/>
</linearGradient>
<linearGradient id="paint24_linear_987_5950" x1="53.9535" y1="35.3124" x2="45.1106" y2="109.78" gradientUnits="userSpaceOnUse">
<stop stop-color="#FF928E"/>
<stop offset="1" stop-color="#FE7062"/>
</linearGradient>
<linearGradient id="paint25_linear_987_5950" x1="29.671" y1="79.4994" x2="45.5271" y2="61.0954" gradientUnits="userSpaceOnUse">
<stop stop-color="#FF928E"/>
<stop offset="1" stop-color="#FE7062"/>
</linearGradient>
<linearGradient id="paint26_linear_987_5950" x1="47.8608" y1="25.8291" x2="45.094" y2="73.7862" gradientUnits="userSpaceOnUse">
<stop stop-color="#FF928E"/>
<stop offset="1" stop-color="#FE7062"/>
</linearGradient>
<linearGradient id="paint27_linear_987_5950" x1="60.0032" y1="31.0251" x2="53.6053" y2="45.0313" gradientUnits="userSpaceOnUse">
<stop stop-color="#FF928E"/>
<stop offset="1" stop-color="#FE7062"/>
</linearGradient>
<linearGradient id="paint28_linear_987_5950" x1="71.7429" y1="6.29702" x2="56.9867" y2="29.5839" gradientUnits="userSpaceOnUse">
<stop stop-color="#FF928E"/>
<stop offset="1" stop-color="#FE7062"/>
</linearGradient>
<linearGradient id="paint29_linear_987_5950" x1="29.5408" y1="23.6338" x2="56.4441" y2="58.054" gradientUnits="userSpaceOnUse">
<stop stop-color="#FEBBBA"/>
<stop offset="1" stop-color="#FF928E"/>
</linearGradient>
<linearGradient id="paint30_linear_987_5950" x1="25.9412" y1="26.4477" x2="52.8444" y2="60.8683" gradientUnits="userSpaceOnUse">
<stop stop-color="#FEBBBA"/>
<stop offset="1" stop-color="#FF928E"/>
</linearGradient>
<linearGradient id="paint31_linear_987_5950" x1="70.1757" y1="95.3135" x2="61.1084" y2="95.3135" gradientUnits="userSpaceOnUse">
<stop stop-color="#4F52FF"/>
<stop offset="1" stop-color="#4042E2"/>
</linearGradient>
<linearGradient id="paint32_linear_987_5950" x1="70.1759" y1="93.5362" x2="61.3638" y2="93.5362" gradientUnits="userSpaceOnUse">
<stop stop-color="#09005D"/>
<stop offset="1" stop-color="#1A0F91"/>
</linearGradient>
<linearGradient id="paint33_linear_987_5950" x1="69.3382" y1="91.0559" x2="66.7841" y2="91.0559" gradientUnits="userSpaceOnUse">
<stop stop-color="#FEBBBA"/>
<stop offset="1" stop-color="#FF928E"/>
</linearGradient>
<linearGradient id="paint34_linear_987_5950" x1="86.36" y1="97.5616" x2="82.8853" y2="97.5616" gradientUnits="userSpaceOnUse">
<stop stop-color="#4F52FF"/>
<stop offset="1" stop-color="#4042E2"/>
</linearGradient>
<linearGradient id="paint35_linear_987_5950" x1="86.3346" y1="94.104" x2="81.2342" y2="94.104" gradientUnits="userSpaceOnUse">
<stop stop-color="#09005D"/>
<stop offset="1" stop-color="#1A0F91"/>
</linearGradient>
<linearGradient id="paint36_linear_987_5950" x1="83.6828" y1="89.7241" x2="80.6304" y2="89.7241" gradientUnits="userSpaceOnUse">
<stop stop-color="#FEBBBA"/>
<stop offset="1" stop-color="#FF928E"/>
</linearGradient>
<linearGradient id="paint37_linear_987_5950" x1="58.9934" y1="56.7841" x2="85.0542" y2="99.474" gradientUnits="userSpaceOnUse">
<stop stop-color="#09005D"/>
<stop offset="1" stop-color="#1A0F91"/>
</linearGradient>
<linearGradient id="paint38_linear_987_5950" x1="76.6166" y1="33.9064" x2="65.6949" y2="63.11" gradientUnits="userSpaceOnUse">
<stop stop-color="#53D8FF"/>
<stop offset="1" stop-color="#3840F7"/>
</linearGradient>
<linearGradient id="paint39_linear_987_5950" x1="83.8804" y1="13.9881" x2="69.1242" y2="37.275" gradientUnits="userSpaceOnUse">
<stop stop-color="#FF928E"/>
<stop offset="1" stop-color="#FE7062"/>
</linearGradient>
<linearGradient id="paint40_linear_987_5950" x1="74.7445" y1="0.673413" x2="55.1579" y2="46.6134" gradientUnits="userSpaceOnUse">
<stop stop-color="#E1473D"/>
<stop offset="1" stop-color="#E9605A"/>
</linearGradient>
<linearGradient id="paint41_linear_987_5950" x1="68.6451" y1="35.5934" x2="67.3226" y2="28.6497" gradientUnits="userSpaceOnUse">
<stop stop-color="#FEBBBA"/>
<stop offset="1" stop-color="#FF928E"/>
</linearGradient>
<linearGradient id="paint42_linear_987_5950" x1="65.0663" y1="22.8536" x2="72.6127" y2="28.6277" gradientUnits="userSpaceOnUse">
<stop stop-color="#FEBBBA"/>
<stop offset="1" stop-color="#FF928E"/>
</linearGradient>
<linearGradient id="paint43_linear_987_5950" x1="70.3789" y1="18.2818" x2="63.3507" y2="27.3302" gradientUnits="userSpaceOnUse">
<stop stop-color="#09005D"/>
<stop offset="1" stop-color="#1A0F91"/>
</linearGradient>
<linearGradient id="paint44_linear_987_5950" x1="66.0025" y1="21.6301" x2="73.5489" y2="27.4042" gradientUnits="userSpaceOnUse">
<stop stop-color="#FEBBBA"/>
<stop offset="1" stop-color="#FF928E"/>
</linearGradient>
<linearGradient id="paint45_linear_987_5950" x1="79.6076" y1="59.0551" x2="78.8391" y2="66.3562" gradientUnits="userSpaceOnUse">
<stop stop-color="#4F52FF"/>
<stop offset="1" stop-color="#4042E2"/>
</linearGradient>
<linearGradient id="paint46_linear_987_5950" x1="75.5936" y1="55.3969" x2="75.3631" y2="58.4329" gradientUnits="userSpaceOnUse">
<stop stop-color="#4F52FF"/>
<stop offset="1" stop-color="#4042E2"/>
</linearGradient>
<linearGradient id="paint47_linear_987_5950" x1="74.802" y1="53.8185" x2="74.8406" y2="56.8158" gradientUnits="userSpaceOnUse">
<stop stop-color="#4F52FF"/>
<stop offset="1" stop-color="#4042E2"/>
</linearGradient>
<linearGradient id="paint48_linear_987_5950" x1="82.3847" y1="55.9126" x2="82.1542" y2="58.9486" gradientUnits="userSpaceOnUse">
<stop stop-color="#4F52FF"/>
<stop offset="1" stop-color="#4042E2"/>
</linearGradient>
<linearGradient id="paint49_linear_987_5950" x1="81.632" y1="53.7314" x2="81.6703" y2="56.7284" gradientUnits="userSpaceOnUse">
<stop stop-color="#4F52FF"/>
<stop offset="1" stop-color="#4042E2"/>
</linearGradient>
<linearGradient id="paint50_linear_987_5950" x1="78.5389" y1="61.2572" x2="81.3057" y2="55.4164" gradientUnits="userSpaceOnUse">
<stop stop-color="#4F52FF"/>
<stop offset="1" stop-color="#4042E2"/>
</linearGradient>
<linearGradient id="paint51_linear_987_5950" x1="83.1657" y1="58.6771" x2="100.689" y2="27.3202" gradientUnits="userSpaceOnUse">
<stop stop-color="#4F52FF"/>
<stop offset="1" stop-color="#4042E2"/>
</linearGradient>
<linearGradient id="paint52_linear_987_5950" x1="79.2209" y1="64.6043" x2="78.237" y2="72.4003" gradientUnits="userSpaceOnUse">
<stop stop-color="#09005D"/>
<stop offset="1" stop-color="#1A0F91"/>
</linearGradient>
<linearGradient id="paint53_linear_987_5950" x1="74.4811" y1="76.7349" x2="79.7993" y2="38.5404" gradientUnits="userSpaceOnUse">
<stop stop-color="#FEBBBA"/>
<stop offset="1" stop-color="#FF928E"/>
</linearGradient>
<linearGradient id="paint54_linear_987_5950" x1="75.8381" y1="68.1272" x2="78.6032" y2="48.2696" gradientUnits="userSpaceOnUse">
<stop stop-color="#FEBBBA"/>
<stop offset="1" stop-color="#FF928E"/>
</linearGradient>
<linearGradient id="paint55_linear_987_5950" x1="92.5763" y1="19.499" x2="77.8205" y2="42.7859" gradientUnits="userSpaceOnUse">
<stop stop-color="#FF928E"/>
<stop offset="1" stop-color="#FE7062"/>
</linearGradient>
</defs>
</svg>
