<svg width="24" height="25" viewBox="0 0 24 25" fill="none" xmlns="http://www.w3.org/2000/svg">
<path d="M9 21.1042H15M12 3.10425C8.68629 3.10425 6 5.79054 6 9.10425C6 10.3187 6.36084 11.449 6.98117 12.3935C7.93507 13.8461 8.41161 14.5719 8.47352 14.6803C9.02428 15.6453 8.92287 15.3049 8.99219 16.4138C8.99998 16.5385 9 16.7271 9 17.1042C9 17.6565 9.44772 18.1042 10 18.1042L14 18.1042C14.5523 18.1042 15 17.6565 15 17.1042C15 16.7271 15 16.5385 15.0078 16.4138C15.0771 15.3049 14.9751 15.6453 15.5259 14.6803C15.5878 14.5719 16.0651 13.8461 17.019 12.3935C17.6394 11.449 18.0002 10.3187 18.0002 9.10425C18.0002 5.79054 15.3137 3.10425 12 3.10425Z" stroke="black" stroke-width="2" stroke-linecap="round" stroke-linejoin="round"/>
</svg>
