<svg width="24" height="24" viewBox="0 0 24 24" fill="none" xmlns="http://www.w3.org/2000/svg">
<path d="M1.5 21.2407H22.5" stroke="black" stroke-width="2" stroke-linecap="round"/>
<path d="M12 21.3277V13.2932" stroke="black" stroke-width="2"/>
<path d="M15.4138 13.4313H8.58618C8.58618 12.2704 9.16337 9.9646 12.0323 9.9646C14.9013 9.9646 15.4138 12.2695 15.4138 13.4313Z" stroke="black" stroke-width="2" stroke-linejoin="round"/>
<path d="M12 9.98141C12 8.94269 12 7.40139 12 5.97161C12 4.18438 13.7872 2.67212 15.6432 2.67212C17.4992 2.67212 19.0343 4.36769 19.0343 5.97161C19.0343 7.57553 19.0343 16.5225 19.0343 17.7828" stroke="black" stroke-width="1.7" stroke-miterlimit="3.86874" stroke-dasharray="4 4"/>
<path d="M12 9.98141C12 8.94269 12 7.40139 12 5.97161C12 4.18438 10.2128 2.67212 8.35681 2.67212C6.50085 2.67212 4.96567 4.36769 4.96567 5.97161C4.96567 7.57553 4.96567 16.5225 4.96567 17.7828" stroke="black" stroke-width="1.7" stroke-miterlimit="3.86874" stroke-dasharray="4 4"/>
</svg>
