<svg width="104" height="24" viewBox="0 0 104 24" fill="none" xmlns="http://www.w3.org/2000/svg">
<path d="M10.6411 14.1368C11.8251 14.1368 12.7898 13.2003 12.7898 12.065C12.7898 10.9156 11.8251 9.99316 10.6411 9.99316C9.45715 9.99316 8.49243 10.9297 8.49243 12.065V14.1368H10.6411Z" fill="#EF4531"/>
<path d="M21.4138 8.70244L12.2198 0.45765C11.5328 -0.15255 10.4657 -0.15255 9.77872 0.45765L0.57006 8.70244C0.204637 9.02882 0 9.49712 0 9.9796V21.4031C0 22.9499 1.08165 24 2.68951 24H7.63004L4.47278 13.8395C3.46421 10.5898 5.36441 7.14146 8.72631 6.16231C12.0736 5.18315 15.6255 7.02794 16.6341 10.2776C17.6426 13.5273 15.7424 16.9756 12.3805 17.9548L10.3342 18.5508L10.6411 19.5299L10.9919 20.6368L11.9566 23.7446C19.3382 22.737 21.9839 18.8204 21.9839 9.9796C21.9839 9.48293 21.7792 9.01463 21.3992 8.70244H21.4138Z" fill="#0C6DFF"/>
<path d="M76.0188 4.16895C78.0774 4.16895 79.5796 4.61268 80.5253 5.50015C81.4709 6.38035 81.9438 7.59517 81.9438 9.14461C81.9438 9.84295 81.8383 10.5122 81.6273 11.1523C81.4164 11.7852 81.0708 12.349 80.5907 12.8436C80.1179 13.3383 79.485 13.7311 78.6921 14.0221C77.8992 14.3058 76.9208 14.4476 75.7569 14.4476H74.3057V20.1216H70.9231V4.16895H76.0188ZM75.8442 6.94048H74.3057V11.6761H75.4187C76.0515 11.6761 76.6007 11.5924 77.0663 11.4251C77.5319 11.2578 77.8919 10.9959 78.1465 10.6395C78.4011 10.283 78.5284 9.82476 78.5284 9.26464C78.5284 8.479 78.3102 7.89706 77.8737 7.51879C77.4373 7.13325 76.7608 6.94048 75.8442 6.94048Z" fill="black"/>
<path d="M68.2682 12.1401C68.2682 13.3694 68.1154 14.4897 67.8099 15.5008C67.5044 16.5047 67.0388 17.3703 66.4132 18.0978C65.7949 18.8252 65.0093 19.3853 64.0564 19.7781C63.1034 20.1637 61.9759 20.3564 60.6738 20.3564C59.3717 20.3564 58.2441 20.1637 57.2912 19.7781C56.3383 19.3853 55.549 18.8252 54.9234 18.0978C54.3051 17.3703 53.8432 16.501 53.5376 15.4899C53.2321 14.4788 53.0793 13.3549 53.0793 12.1182C53.0793 10.4669 53.3485 9.03026 53.8868 7.80817C54.4324 6.5788 55.2689 5.62586 56.3965 4.94934C57.524 4.27283 58.957 3.93457 60.6956 3.93457C62.4269 3.93457 63.849 4.27283 64.962 4.94934C66.0823 5.62586 66.9115 6.5788 67.4498 7.80817C67.9954 9.03753 68.2682 10.4815 68.2682 12.1401ZM56.6256 12.1401C56.6256 13.253 56.7638 14.2132 57.0402 15.0207C57.3239 15.8209 57.764 16.4392 58.3605 16.8757C58.957 17.3048 59.7281 17.5194 60.6738 17.5194C61.634 17.5194 62.4124 17.3048 63.0088 16.8757C63.6053 16.4392 64.0382 15.8209 64.3073 15.0207C64.5837 14.2132 64.722 13.253 64.722 12.1401C64.722 10.4669 64.4092 9.15029 63.7836 8.19007C63.158 7.22986 62.1287 6.74975 60.6956 6.74975C59.7427 6.74975 58.9643 6.96798 58.3605 7.40444C57.764 7.83363 57.3239 8.45195 57.0402 9.2594C56.7638 10.0596 56.6256 11.0198 56.6256 12.1401Z" fill="black"/>
<path d="M44.3356 4.16895C45.7832 4.16895 46.9762 4.34353 47.9146 4.6927C48.8602 5.04187 49.5622 5.56926 50.0205 6.27487C50.4788 6.98049 50.7079 7.8716 50.7079 8.9482C50.7079 9.67564 50.5697 10.3121 50.2933 10.8577C50.0168 11.4033 49.6531 11.8652 49.2021 12.2435C48.7511 12.6218 48.2637 12.9309 47.74 13.171L52.4319 20.1216H48.6784L44.8702 14.0002H43.0698V20.1216H39.6873V4.16895H44.3356ZM44.0955 6.94048H43.0698V11.2505H44.161C45.2812 11.2505 46.0814 11.065 46.5615 10.694C47.0489 10.3158 47.2926 9.76293 47.2926 9.03549C47.2926 8.27896 47.0307 7.74066 46.507 7.42059C45.9905 7.10051 45.1867 6.94048 44.0955 6.94048Z" fill="black"/>
<path d="M31.4021 4.16895C33.4607 4.16895 34.9629 4.61268 35.9086 5.50015C36.8542 6.38035 37.3271 7.59517 37.3271 9.14461C37.3271 9.84295 37.2216 10.5122 37.0106 11.1523C36.7997 11.7852 36.4541 12.349 35.974 12.8436C35.5012 13.3383 34.8683 13.7311 34.0754 14.0221C33.2825 14.3058 32.3041 14.4476 31.1402 14.4476H29.689V20.1216H26.3064V4.16895H31.4021ZM31.2275 6.94048H29.689V11.6761H30.802C31.4348 11.6761 31.984 11.5924 32.4496 11.4251C32.9152 11.2578 33.2752 10.9959 33.5298 10.6395C33.7844 10.283 33.9117 9.82476 33.9117 9.26464C33.9117 8.479 33.6935 7.89706 33.257 7.51879C32.8206 7.13325 32.1441 6.94048 31.2275 6.94048Z" fill="black"/>
<circle cx="86.0639" cy="12.1457" r="1.49925" fill="black"/>
<path d="M103.278 4.06055V14.3829C103.278 15.4813 103.034 16.4742 102.547 17.3617C102.067 18.2419 101.336 18.9403 100.354 19.4567C99.3789 19.9732 98.1495 20.2314 96.6655 20.2314C94.556 20.2314 92.9483 19.6931 91.8426 18.6165C90.7369 17.5399 90.1841 16.1142 90.1841 14.3392V4.06055H93.5558V13.8264C93.5558 15.143 93.8249 16.0669 94.3632 16.5979C94.9015 17.1289 95.698 17.3944 96.7528 17.3944C97.4948 17.3944 98.095 17.2671 98.5532 17.0125C99.0188 16.7579 99.3607 16.3651 99.5789 15.8341C99.7971 15.3031 99.9063 14.6266 99.9063 13.8046V4.06055H103.278Z" fill="black"/>
</svg>
