<svg width="100" height="101" viewBox="0 0 100 101" fill="none" xmlns="http://www.w3.org/2000/svg">
<path d="M49.9996 98.7409C74.498 98.7409 94.3579 78.8811 94.3579 54.3827C94.3579 29.8843 74.498 10.0244 49.9996 10.0244C25.5012 10.0244 5.64136 29.8843 5.64136 54.3827C5.64136 78.8811 25.5012 98.7409 49.9996 98.7409Z" fill="#EDCFB9"/>
<path d="M57.7657 31.1881C57.0286 34.0418 58.7661 37.9958 60.7089 40.1466C60.5536 41.7656 58.358 42.3711 56.897 43.0503C55.4359 43.7295 53.7853 43.848 52.1768 43.8638C50.3709 43.8822 48.5518 43.7822 46.8038 43.3188C45.0585 42.8555 43.3815 42.0105 41.7783 40.4573C43.7738 37.7747 44.8716 34.4235 44.7399 30.9512C48.4255 32.8492 52.8666 33.1941 57.7683 31.1881H57.7657Z" fill="#F36843"/>
<path d="M49.7656 5.9237C45.7589 6.1501 38.9643 8.81949 37.9376 14.153C36.9109 19.4865 37.4901 25.3703 40.0963 29.9535C41.818 32.9783 44.9033 36.3611 50.6554 36.448C54.1277 36.5006 56.7813 36.6375 59.7719 33.5969C62.207 31.1223 61.8858 25.2439 61.7989 21.7742C61.6989 17.6806 60.33 12.9315 57.8764 9.654C55.4229 6.37649 53.2721 5.72626 49.763 5.9237H49.7656Z" fill="#F36843"/>
<path d="M57.3658 24.2751C57.4027 25.0675 57.0842 25.8783 56.5577 26.5022C56.0311 27.134 55.2782 27.5947 54.4464 27.7448C53.6118 27.8869 52.7484 27.7106 52.0376 27.2946C51.3268 26.8866 50.7529 26.2311 50.5212 25.4729C50.953 26.131 51.5558 26.6233 52.2271 26.9287C52.8984 27.2314 53.6487 27.3552 54.3542 27.2262C55.0624 27.1077 55.7258 26.7365 56.2549 26.2232C56.784 25.7046 57.1816 25.0385 57.3658 24.2725V24.2751Z" fill="black"/>
<path d="M51.2584 15.0742C51.4111 15.9061 51.7902 16.6537 52.3167 17.2566C52.8485 17.8594 53.5224 18.3333 54.2016 18.823C54.3701 18.9493 54.5359 19.0704 54.7097 19.2073C54.8808 19.3442 55.0598 19.4942 55.2046 19.7022C55.352 19.9023 55.4468 20.2024 55.3941 20.4709C55.352 20.7394 55.2204 20.9474 55.0888 21.1264C54.5544 21.8135 53.9252 22.3927 53.217 22.8613C53.7778 22.2321 54.3095 21.5792 54.7465 20.8974C54.8439 20.7289 54.9229 20.5578 54.9361 20.4077C54.9519 20.2577 54.9018 20.1287 54.7992 19.9944C54.5938 19.7259 54.2253 19.4995 53.8883 19.2494C53.217 18.7519 52.5115 18.2306 51.9929 17.5119C51.4769 16.8038 51.1873 15.9219 51.2558 15.0742H51.2584Z" fill="black"/>
<path d="M56.5866 35.7949C56.2339 36.0292 55.8548 36.2213 55.4573 36.3819C55.0545 36.532 54.6359 36.6399 54.2042 36.6978C53.3433 36.8163 52.4693 36.7268 51.6348 36.5504C51.2162 36.4583 50.8082 36.3345 50.4002 36.2082C50.0026 36.0555 49.5999 35.9212 49.2181 35.7396C48.4415 35.4026 47.7018 34.9919 46.9937 34.5312C47.7966 34.7945 48.5758 35.0999 49.3656 35.3579C50.1527 35.6238 50.9425 35.8712 51.7454 36.0371C52.5457 36.2134 53.3565 36.3214 54.1673 36.2898C54.5727 36.2687 54.9781 36.2213 55.3809 36.1371C55.7837 36.0502 56.1812 35.9265 56.584 35.7949H56.5866Z" fill="black"/>
<path d="M45.8725 18.5363C45.7646 17.9677 46.0015 17.4438 46.4069 17.3649C46.8097 17.2885 47.2256 17.686 47.3362 18.2547C47.4441 18.8233 47.2072 19.3472 46.8018 19.4261C46.399 19.5025 45.9831 19.105 45.8725 18.5363Z" fill="black"/>
<path d="M56.758 16.9143C56.6501 16.3456 56.887 15.8218 57.2924 15.7428C57.6952 15.6664 58.1111 16.064 58.2217 16.6326C58.3296 17.2012 58.0927 17.7251 57.6873 17.8041C57.2845 17.8804 56.8686 17.4829 56.758 16.9143Z" fill="black"/>
<path d="M45.7852 22.3053C45.6826 21.2733 46.6987 20.3256 48.0545 20.1913C49.4102 20.0544 50.5949 20.7836 50.6975 21.8156C50.8002 22.8476 49.784 23.7953 48.4283 23.9295C47.0725 24.0664 45.8879 23.3372 45.7852 22.3053Z" fill="#D15330"/>
<path d="M56.1942 20.8916C56.0915 19.8597 57.1076 18.912 58.4634 18.7777C59.8192 18.6434 61.0038 19.37 61.1065 20.402C61.2091 21.4339 60.193 22.3816 58.8372 22.5159C57.4815 22.6528 56.2968 21.9236 56.1942 20.8916Z" fill="#D15330"/>
<path d="M60.4459 14.4286C59.4508 12.5358 57.1447 11.925 55.0123 12.9859C54.7596 13.1123 54.4463 13.3677 54.47 13.652C54.4937 13.9389 54.828 13.9284 55.0887 13.8731C56.9314 13.4914 58.7216 13.7625 60.4459 14.4286Z" fill="#472F2E"/>
<path d="M43.2527 17.4639C43.5028 15.3421 45.4351 13.9442 47.807 14.168C48.0887 14.1943 48.4704 14.3207 48.552 14.5945C48.6336 14.8709 48.3151 14.9814 48.0544 15.0236C46.1985 15.3263 44.6216 16.2214 43.2527 17.4639Z" fill="#472F2E"/>
<path d="M59.8796 13.0705C60.3877 12.9679 59.9797 11.2225 59.5979 11.0277C59.9349 10.6223 59.7506 9.69037 59.2504 9.52189C59.5058 9.02434 59.3821 8.2767 58.8345 8.1556C59.0504 7.48167 58.6765 6.67875 57.9895 6.49447C58.1105 5.98113 57.95 4.98866 57.1444 4.92548C57.0549 4.56219 57.1444 3.91195 56.1651 3.89352C56.0229 3.89352 55.944 3.17747 55.0647 3.15115C54.6961 2.52724 54.2144 2.70625 53.5957 3.08797C53.472 2.88263 52.6191 2.49301 52.4559 3.24592C52.4427 3.30384 51.2817 2.51408 51.1712 3.45652C51.1712 3.47232 51.0948 2.93265 50.0234 3.56972C49.8707 3.39598 49.2705 3.20907 49.0467 3.27225C48.823 3.33543 48.6439 3.5355 48.6071 3.76453C48.4965 3.57762 48.2491 3.48285 48.0411 3.54866C47.8331 3.61448 47.6857 3.83034 47.7015 4.04621C47.3014 3.70135 46.5932 3.82771 46.3378 4.29104C46.1299 4.16731 45.8929 4.04095 45.6586 4.10676C45.427 4.17257 45.3138 4.54639 45.5007 4.83334C44.9558 4.43583 44.087 4.59904 43.7264 5.16767C43.3183 5.02815 43.1104 4.9597 42.8234 5.07817C42.7471 5.10976 42.3101 5.43619 42.3101 5.43619C42.3101 5.43619 41.9415 5.02025 41.3781 5.24928C41.2228 5.31246 41.0227 5.83634 41.1939 5.89689C40.9622 5.74157 40.6331 5.74946 40.4094 5.91268C40.1856 6.07853 40.0829 6.38917 40.1645 6.65506C39.975 6.48394 39.6644 6.46551 39.4538 6.6103C39.2432 6.75509 39.1563 7.05257 39.2511 7.2895C39.0931 7.16577 38.8509 7.16577 38.6903 7.2895C38.5297 7.41059 38.2665 7.57644 38.3428 7.76072C38.0611 7.67911 37.8005 7.57908 37.6162 7.80547C37.432 8.03187 37.2635 8.43992 37.4004 8.69791C36.995 8.65578 36.5501 9.0296 36.6606 9.41922C36.2473 9.40343 36.2157 9.89571 36.2894 10.3011C36.0394 10.3038 35.5945 10.388 35.4839 10.6091C35.3733 10.8303 35.4655 11.3173 35.6129 11.5174C35.1864 11.7543 35.1496 12.2097 35.4365 12.7678C35.1601 12.7099 34.9521 13.1837 34.831 13.4365C34.7099 13.6892 35.1127 14.192 35.1127 14.192C35.1127 14.192 35.1022 14.192 35.0837 14.1999C34.752 14.292 34.5994 14.6817 34.7731 14.9791C34.8679 15.1424 34.9732 15.3688 35.0495 15.3898C34.8652 15.5346 34.7705 15.7873 34.8152 16.019C34.86 16.2507 35.0416 16.4507 35.268 16.5165C35.1101 16.6192 35.0364 16.8351 35.0969 17.0141C35.1575 17.1931 35.3496 17.3168 35.5365 17.301C35.3233 17.4011 35.1811 17.6354 35.1917 17.8697C35.2022 18.104 35.3654 18.3251 35.5866 18.4041C35.3602 18.5357 35.2496 18.8384 35.3365 19.0859C35.426 19.3334 35.7024 19.4966 35.963 19.4571C35.7972 19.5861 35.7287 19.823 35.7998 20.0204C35.8709 20.2179 36.0762 20.3574 36.2868 20.3521C36.1341 20.5154 36.1131 20.7865 36.2394 20.9708C36.3658 21.1551 36.6264 21.2367 36.8344 21.1551C36.687 21.2867 36.6448 21.5236 36.7422 21.6947C36.837 21.8685 37.0608 21.958 37.2503 21.9027C37.0976 22.0686 37.0897 22.3476 37.2345 22.5214C37.3793 22.6951 37.6584 22.7372 37.8479 22.6161C37.79 22.9399 38.2112 23.2348 38.4955 23.0689C38.4323 23.2216 38.4639 23.4085 38.5719 23.5349C39.1405 23.2822 39.4169 22.524 39.1431 21.9685C39.1273 21.6526 39.3142 21.3657 39.409 21.0629C39.5038 20.7602 39.4564 20.3495 39.1563 20.2416C39.4353 20.1257 39.5854 19.8177 39.6486 19.4808C39.7117 19.1438 39.5906 18.7779 39.3379 18.5462C39.7196 18.1698 39.7407 17.8828 39.5512 17.4669C39.3827 17.101 39.0247 17.1562 39.0247 17.1562C39.0247 17.1562 39.2589 16.9062 39.4037 16.427C39.4696 16.2085 39.0826 15.7794 38.8562 15.7426C39.0694 15.6926 39.4353 15.5715 39.5222 15.1371C39.5643 14.9212 39.4617 14.4974 39.2537 14.421C39.4432 14.421 39.9329 14.4737 40.1251 13.9472C40.1935 13.7603 40.0355 13.4259 39.9329 13.2917C40.3804 13.4312 41.1754 13.3233 41.1833 12.8573C41.4992 13.1179 41.8151 12.7178 41.9468 12.3308C42.3364 12.3835 42.7313 12.3308 42.9366 11.9991C43.1104 12.1939 43.3341 12.2729 43.5868 12.2044C43.8396 12.136 44.0475 11.9175 44.1002 11.6621C44.3555 11.9701 44.9163 11.8201 45.1611 11.5068C45.398 11.7332 45.9272 11.6332 46.0377 11.3225C46.2984 11.5384 46.6774 11.4147 46.888 11.1514C47.3672 11.1251 47.5857 11.0672 47.762 10.6249C47.9726 10.8882 48.8072 10.6855 48.9862 10.4012C49.3126 10.696 49.7786 10.5617 49.9681 10.1669C50.2156 10.467 50.6973 10.359 50.9132 10.0352C51.1607 10.2669 51.5924 10.0905 51.8767 9.90361C52.1926 10.159 52.548 10.209 52.856 9.94836C53.1114 10.1748 53.4483 9.54032 53.4904 9.55874C54.3276 9.96152 54.475 9.28759 54.475 9.28759C54.475 9.28759 55.0884 9.7088 55.5386 9.07436C55.6597 9.29549 55.9729 9.51399 56.2257 9.50346C56.4784 9.49293 56.61 9.02697 56.71 8.79794C56.7811 8.96379 57.1444 9.37447 57.3234 9.34814C57.5024 9.32182 57.7578 9.73513 57.7788 9.55611C58.0026 9.92204 59.5979 13.1285 59.8796 13.0705Z" fill="#472F2E"/>
<path d="M37.7032 21.5552C37.0714 21.2762 36.2764 21.4368 35.7604 21.858C35.2444 22.2792 34.9864 22.9189 34.9548 23.5533C34.9232 24.1878 35.0996 24.8169 35.3418 25.4172C35.5919 26.0358 35.921 26.6465 36.4317 27.1178C36.9424 27.589 37.6585 27.9102 38.3798 27.8549C38.6351 27.8365 38.9063 27.7575 39.0405 27.5627C39.1853 27.3547 39.1327 27.0862 39.0774 26.844C38.6799 25.1355 38.2824 23.427 37.7085 21.5579L37.7032 21.5552Z" fill="#F36843"/>
<path d="M35.6284 23.8882C35.6389 23.6486 35.739 23.4301 35.8759 23.2406C36.0154 23.0537 36.1944 22.8957 36.3997 22.7825C36.6051 22.6693 36.8315 22.5956 37.0658 22.5772C37.2974 22.5614 37.537 22.5904 37.745 22.7088L37.1658 22.98C36.9894 23.0642 36.821 23.1511 36.6551 23.2432C36.4893 23.3354 36.3287 23.4328 36.1628 23.5381L35.6284 23.8882Z" fill="black"/>
<path d="M36.2524 23.3356C36.5183 23.5331 36.6973 23.8227 36.8395 24.107C36.979 24.3939 37.0791 24.6861 37.1844 24.9599C37.287 25.2284 37.4029 25.4891 37.5476 25.7286C37.6951 25.9682 37.8715 26.1867 38.1452 26.371C37.8109 26.4052 37.4713 26.2288 37.2291 25.9919C36.9817 25.7523 36.8079 25.4548 36.6921 25.1468C36.5762 24.8415 36.5104 24.5361 36.4499 24.2386C36.392 23.9385 36.3341 23.6489 36.2551 23.333L36.2524 23.3356Z" fill="black"/>
<path d="M53.6328 15.6168C54.0777 14.6769 55.5941 13.9346 56.8498 13.7398C58.1055 13.545 59.6956 13.7819 60.5669 14.7322C61.0618 16.0169 61.1882 17.6938 60.5169 19.0075C59.9456 20.1237 58.5873 20.8055 57.3368 20.7397C56.0837 20.6739 54.9307 19.9947 54.233 18.9522C53.538 17.9097 53.4038 16.1011 53.6328 15.6194V15.6168Z" stroke="#272525" stroke-width="0.269095" stroke-miterlimit="10"/>
<path d="M50.4787 16.3694C49.7626 15.6165 48.091 15.3822 46.8379 15.5876C45.6769 15.7771 44.3607 16.4089 43.7473 17.433C43.6604 17.5778 43.6078 17.741 43.6051 17.9095C43.5893 19.0072 43.871 20.2393 44.5318 21.187C45.3531 22.3663 47.2038 22.9086 48.5464 22.39C49.7179 21.9372 50.6077 20.9316 50.9446 19.7206C51.2816 18.5123 50.842 16.7511 50.476 16.3668L50.4787 16.3694Z" stroke="#272525" stroke-width="0.269095" stroke-miterlimit="10"/>
<path d="M53.8039 15.2693C52.5666 15.0692 51.2556 15.3614 50.2605 16.1117C50.4395 16.2591 50.5843 16.446 50.7107 16.6856C51.5557 16.2223 52.5376 16.009 53.4827 16.0275C53.4617 15.7537 53.5643 15.4746 53.8039 15.2693Z" fill="#272525"/>
<path d="M45.0715 16.043C44.0396 16.4958 43.2919 16.5458 42.0389 16.9802C41.8967 17.0302 41.5518 17.1065 41.4913 17.2434C41.4281 17.3882 41.4676 17.554 41.5097 17.7067C41.565 17.9121 41.6203 18.1174 41.6756 18.3227C41.923 18.199 42.2258 18.2912 42.468 18.4307C43.0445 18.7676 43.4341 19.3389 43.8606 19.9023C43.7447 19.2204 43.7053 18.8677 43.5894 18.1859C43.5289 17.8278 43.5657 17.2987 43.8527 17.0986C44.3055 16.7853 44.7293 16.3378 45.0742 16.043H45.0715Z" fill="#272525"/>
<path d="M59.1213 13.9814C59.8532 14.1552 60.6456 14.0867 61.4959 14.1157C61.617 14.3869 61.7091 14.6712 61.7512 14.995C61.4143 15.124 61.0115 15.5162 60.7798 15.7847C60.3428 14.9344 59.9374 14.2789 59.1213 13.9814Z" fill="#272525"/>
<path d="M36.7527 21.4376C36.7895 21.4376 39.9459 19.4579 41.8071 18.2312C41.8071 18.2312 41.5755 17.1966 41.5834 17.1387C39.9565 18.2259 38.3006 19.3948 36.6737 20.482C36.3815 20.6768 36.084 20.8769 35.855 21.1454C35.6259 21.4139 35.1442 22.2642 35.1837 22.6143C35.3864 22.0773 36.2077 21.456 36.7527 21.4376Z" fill="#272525"/>
<path d="M39.9937 24.2216C41.2231 26.3487 41.4495 27.3412 43.0975 29.1629C44.7454 30.9846 47.1384 32.2166 49.8578 33.196C50.566 33.4513 51.7743 33.8172 52.4956 33.6066C53.2169 33.396 53.8803 32.88 54.1199 32.1693C54.2858 31.6796 54.3016 31.0531 54.7543 30.8109C55.1598 30.595 55.6626 30.8451 55.9811 31.1742C56.2997 31.5032 56.5445 31.9192 56.9394 32.1508C57.4606 32.4562 58.1477 32.3614 58.6663 32.0482C59.1849 31.7349 59.5614 31.2373 59.8904 30.7293C61.5173 28.2152 62.0939 23.9057 61.7279 20.9336C62.1728 23.5819 62.4914 25.8485 62.4308 28.0414C62.3361 31.4032 60.9356 33.4961 59.2112 34.8518C56.6314 36.8815 54.5727 36.8289 51.3215 36.6498C49.9342 36.5735 45.2061 35.7258 41.955 32.4746C39.8621 30.3818 37.8219 26.0433 38.1036 23.1002C38.122 22.9185 38.1483 22.7264 38.2668 22.5868C38.5037 22.3078 38.9907 22.4026 39.2303 22.679C39.4698 22.9554 39.7041 23.7267 39.9911 24.2243L39.9937 24.2216Z" fill="#472F2E"/>
<path d="M53.6697 23.5744C52.5536 23.1137 51.2294 23.1927 50.1764 23.785C49.1234 24.3773 48.3678 25.4672 48.1835 26.6623C48.0098 27.7917 48.3204 28.9316 48.6311 30.032C48.9443 31.1456 49.2576 32.2618 49.5709 33.3753C49.6209 33.557 49.6762 33.7439 49.7947 33.8887C49.9131 34.0335 50.1158 34.1309 50.2922 34.0703C50.5923 33.9676 50.6055 33.5517 50.5607 33.2358L49.8499 28.1813C49.7841 27.7101 49.7288 27.1889 50 26.7966C50.2738 26.3991 50.7871 26.2701 51.2347 26.0911C52.2929 25.6672 53.1669 24.8064 53.6697 23.5744Z" fill="#472F2E"/>
<path d="M53.114 23.8244C53.5642 22.9162 54.5593 22.3555 55.5702 22.2686C56.5784 22.1817 57.5893 22.516 58.4581 23.0373C58.9661 23.3427 59.4505 23.727 59.7401 24.2456C60.0297 24.7642 60.1034 25.3724 60.1692 25.9647C60.3667 27.7074 60.5641 29.4502 60.7615 31.1929C60.7826 31.3877 60.8063 31.5904 60.751 31.7773C60.6957 31.9669 60.5457 32.1406 60.3509 32.1617C60.0218 32.1959 59.8138 31.8247 59.7059 31.5114C59.0478 29.6502 58.5133 27.7443 58.1053 25.812C58.0263 25.4434 57.9395 25.0433 57.6578 24.7906C57.1839 24.3641 56.4521 24.5536 55.8229 24.6484C54.733 24.8116 53.5905 24.5852 53.1193 23.8218L53.114 23.8244Z" fill="#472F2E"/>
<mask id="mask0_987_8401" style="mask-type:luminance" maskUnits="userSpaceOnUse" x="5" y="10" width="90" height="89">
<path d="M49.9996 98.7409C74.498 98.7409 94.3579 78.8811 94.3579 54.3827C94.3579 29.8843 74.498 10.0244 49.9996 10.0244C25.5012 10.0244 5.64136 29.8843 5.64136 54.3827C5.64136 78.8811 25.5012 98.7409 49.9996 98.7409Z" fill="white"/>
</mask>
<g mask="url(#mask0_987_8401)">
<path d="M41.8278 40.0593C44.7288 41.4229 47.8089 42.5207 51.0048 42.6971C54.2007 42.8735 57.5387 42.0416 60.3082 40.2251C63.7594 42.2101 68.6244 41.7494 71.0963 44.89C72.1441 46.222 72.5205 47.9595 72.8338 49.6312C76.2982 68.1169 75.9797 87.3186 71.5044 106.049C58.0705 109.9 43.9075 111.146 30.3157 108.632C37.9579 87.7187 39.9271 41.0675 39.9271 41.0675C39.9271 41.0675 40.909 40.2225 41.8304 40.0566L41.8278 40.0593Z" fill="#FFE1CC"/>
<mask id="mask1_987_8401" style="mask-type:luminance" maskUnits="userSpaceOnUse" x="30" y="40" width="46" height="70">
<path d="M41.8278 40.0593C44.7288 41.4229 47.8089 42.5207 51.0048 42.6971C54.2007 42.8735 57.5387 42.0416 60.3082 40.2251C63.7594 42.2101 68.6244 41.7494 71.0963 44.89C72.1441 46.222 72.5205 47.9595 72.8338 49.6312C76.2982 68.1169 75.9797 87.3186 71.5044 106.049C58.0705 109.9 43.9075 111.146 30.3157 108.632C37.9579 87.7187 39.9271 41.0675 39.9271 41.0675C39.9271 41.0675 40.909 40.2225 41.8304 40.0566L41.8278 40.0593Z" fill="white"/>
</mask>
<g mask="url(#mask1_987_8401)">
<path d="M37.7816 42.3096C40.5852 44.3208 43.968 45.3949 47.3798 45.8345C50.7916 46.2742 54.2481 46.1083 57.6757 45.8214C62.6907 45.4028 67.8083 44.692 72.2547 42.3122C72.2547 42.3122 72.8575 43.5758 72.8259 43.9181C66.9422 46.748 60.2108 47.006 53.6979 47.2114C49.8439 47.3325 45.9109 47.4457 42.2148 46.3321C40.7616 45.8951 39.3716 45.2738 37.9869 44.6552C37.4631 44.4209 36.8865 44.1339 36.6917 43.589C36.4943 43.044 37.0524 42.2938 37.7842 42.3122L37.7816 42.3096Z" fill="#FF6E81"/>
<path d="M36.3944 45.7793C47.8117 49.6833 60.4163 49.9545 71.9889 46.548C71.9889 46.548 72.1363 48.3381 72.0521 48.2512C65.9262 49.0621 59.9056 50.3757 53.727 50.4336C47.5484 50.4915 41.1777 49.2753 35.3809 47.1193C35.6704 46.727 35.9574 46.3321 36.3944 45.7793Z" fill="#FF6E81"/>
<path d="M37.2657 51.3177C45.1765 52.1048 53.1609 52.8946 61.1165 52.4155C65.1574 52.1733 69.1615 51.602 73.034 50.7148C73.034 50.7148 72.6944 52.7998 72.6128 52.7419C60.0661 54.3925 47.0771 54.2109 34.6252 52.2075C35.1044 51.8284 35.3097 51.2703 35.1518 50.7649C35.8257 50.9044 36.4233 51.2361 37.263 51.3203L37.2657 51.3177Z" fill="#FF6E81"/>
<path d="M36.7681 54.9642C44.6789 55.7513 52.6634 56.5411 60.6189 56.0619C64.6599 55.8198 68.6639 55.2485 72.5364 54.3613C72.5364 54.3613 72.1968 56.4463 72.1152 56.3884C59.5685 58.039 46.5796 57.8573 34.1277 55.854C34.6068 55.4749 34.8121 54.9168 34.6542 54.4113C35.3281 54.5509 35.9257 54.8826 36.7655 54.9668L36.7681 54.9642Z" fill="#FF6E81"/>
<path d="M37.3895 59.1126C45.3002 59.8997 53.2847 60.6895 61.2402 60.2104C65.2812 59.9682 69.2853 59.3969 73.1577 58.5098C73.1577 58.5098 72.8181 60.5947 72.7365 60.5368C60.1899 62.1874 47.2009 62.0058 34.749 60.0024C35.2281 59.6233 35.4335 59.0652 35.2755 58.5598C35.9495 58.6993 36.547 59.031 37.3868 59.1153L37.3895 59.1126Z" fill="#FF6E81"/>
<path d="M38.3054 62.1484C46.182 63.2277 54.1322 64.3097 62.1009 64.1254C66.1498 64.0307 70.1723 63.6095 74.0737 62.8671C74.0737 62.8671 73.6604 64.9389 73.5814 64.8784C60.9821 66.0656 48.009 65.4022 35.6387 62.9408C36.131 62.5775 36.3547 62.0273 36.2152 61.5166C36.8839 61.6825 37.4683 62.0352 38.3054 62.1484Z" fill="#FF6E81"/>
<path d="M39.0059 70.554C46.9167 71.3411 54.9012 72.1309 62.8567 71.6518C66.8976 71.4096 70.9017 70.8383 74.7742 69.9512C74.7742 69.9512 74.4346 72.0361 74.353 71.9782C61.8063 73.6288 48.8174 73.4472 36.3655 71.4438C36.8446 71.0647 37.0499 70.5066 36.892 70.0012C37.5659 70.1407 38.1635 70.4724 39.0033 70.5567L39.0059 70.554Z" fill="#FF6E81"/>
<path d="M39.0059 74.9554C46.9167 75.7425 54.9012 76.5323 62.8567 76.0532C66.8976 75.811 70.9017 75.2397 74.7742 74.3525C74.7742 74.3525 74.4346 76.4375 74.353 76.3796C61.8063 78.0302 48.8174 77.8485 36.3655 75.8452C36.8446 75.4661 37.0499 74.908 36.892 74.4026C37.5659 74.5421 38.1635 74.8738 39.0033 74.958L39.0059 74.9554Z" fill="#FF6E81"/>
<path d="M39.0059 78.7279C46.9167 79.515 54.9012 80.3047 62.8567 79.8256C66.8976 79.5834 70.9017 79.0122 74.7742 78.125C74.7742 78.125 74.4346 80.21 74.353 80.1521C61.8063 81.8027 48.8174 81.621 36.3655 79.6177C36.8446 79.2386 37.0499 78.6805 36.892 78.175C37.5659 78.3145 38.1635 78.6462 39.0033 78.7305L39.0059 78.7279Z" fill="#FF6E81"/>
<path d="M38.9795 83.5112C46.9166 83.935 54.9301 84.3562 62.8566 83.5112C66.8818 83.0821 70.8569 82.3292 74.6873 81.2656C74.6873 81.2656 74.4424 83.3638 74.3582 83.3085C61.8984 85.533 48.9147 85.9463 36.3865 84.5168C36.8498 84.114 37.0262 83.548 36.8472 83.0505C37.5264 83.1584 38.1371 83.4612 38.9822 83.5086L38.9795 83.5112Z" fill="#FF6E81"/>
<path d="M39.2295 87.7866C47.1666 88.2104 55.1801 88.6316 63.1066 87.7866C67.1318 87.3575 71.1069 86.6046 74.9373 85.541C74.9373 85.541 74.6924 87.6391 74.6082 87.5865C62.1484 89.811 49.1647 90.2243 36.6365 88.7948C37.0998 88.392 37.2762 87.8261 37.0972 87.3285C37.7764 87.4364 38.3871 87.7392 39.2322 87.7866H39.2295Z" fill="#FF6E81"/>
<path d="M38.732 92.312C46.6691 92.7358 54.6825 93.157 62.6091 92.312C66.6342 91.8829 70.6094 91.13 74.4397 90.0664C74.4397 90.0664 74.1949 92.1645 74.1106 92.1119C61.6508 94.3364 48.6672 94.7497 36.1389 93.3202C36.6022 92.9174 36.7786 92.3514 36.5996 91.8539C37.2788 91.9618 37.8896 92.2646 38.7346 92.312H38.732Z" fill="#FF6E81"/>
<path d="M38.2347 95.3315C46.1718 95.7553 54.1852 96.1765 62.1118 95.3315C66.1369 94.9024 70.1121 94.1495 73.9424 93.0859C73.9424 93.0859 73.6976 95.1841 73.6133 95.1288C61.1535 97.3533 48.1698 97.7666 35.6416 96.3371C36.1049 95.9343 36.2813 95.3683 36.1023 94.8708C36.7815 94.9787 37.3922 95.2815 38.2373 95.3289L38.2347 95.3315Z" fill="#FF6E81"/>
<path d="M38.482 99.354C46.4191 99.7778 54.4325 100.199 62.3591 99.354C66.3842 98.9248 70.3594 98.1719 74.1897 97.1084C74.1897 97.1084 73.9449 99.2065 73.8606 99.1512C61.4008 101.376 48.4172 101.789 35.8889 100.36C36.3522 99.9568 36.5286 99.3908 36.3496 98.8933C37.0288 99.0012 37.6396 99.3039 38.4846 99.3513L38.482 99.354Z" fill="#FF6E81"/>
<path d="M37.4341 65.9397C45.3133 67.0085 53.2635 68.0826 61.2322 67.8878C65.2784 67.7878 69.301 67.3613 73.2024 66.6137C73.2024 66.6137 72.7917 68.6855 72.7127 68.6249C60.116 69.828 47.1429 69.1804 34.7673 66.7348C35.2596 66.3715 35.4834 65.8213 35.3439 65.3105C36.0125 65.4738 36.5969 65.8265 37.4367 65.9397H37.4341Z" fill="#FF6E81"/>
</g>
<path d="M66.1001 40.0858C67.5901 42.2471 69.0854 44.4189 70.0989 46.8014C67.5375 45.8273 64.6022 45.8984 62.0249 46.9014C61.5563 45.7589 61.8749 44.4373 61.5853 43.2369C61.3984 42.455 59.9084 39.8804 59.4714 39.1802C58.7764 38.0666 58.4105 36.753 58.0788 35.7236C57.8418 34.9918 63.9098 37.3295 66.1001 40.0858Z" fill="#8E96F5"/>
<path d="M62.199 46.5141C61.5461 46.4535 60.8827 46.5299 60.4247 46.8379C60.2614 46.9458 60.1719 47.1353 60.1904 47.3302C61.3487 60.2928 67.6562 72.2287 70.1572 85.007C71.6814 92.7967 71.1444 100.286 71.118 108.323C72.0131 108.226 83.4436 108.516 84.3097 108.255C86.4289 99.6518 87.7478 89.5166 88.09 80.5686C88.2664 75.9458 85.5549 66.753 83.2093 58.5658C82.2142 55.0935 80.8189 49.5152 78.6339 46.6536C76.4015 43.7262 67.3087 40.5751 62.6281 39.0771C63.9996 41.5175 63.818 44.7608 62.1964 46.5141H62.199Z" fill="#8E96F5"/>
<path d="M65.6186 39.8933C66.1635 40.3724 66.6637 40.9041 67.1297 41.4675C67.5903 42.0335 68.0089 42.6364 68.3748 43.2734C69.1093 44.5449 69.6332 45.9534 69.8517 47.417C69.8728 47.5618 69.7753 47.6935 69.6332 47.7145C69.5753 47.7224 69.5174 47.7119 69.47 47.6856C68.8987 47.3749 68.3275 47.0748 67.7483 46.8089C67.1665 46.5483 66.5663 46.3377 65.9476 46.2219C65.3316 46.1139 64.6919 46.1087 64.0733 46.2508C63.4573 46.3877 62.8649 46.6799 62.4016 47.1433C62.7807 46.6062 63.3704 46.2219 64.0048 46.0113C64.6445 45.8007 65.3316 45.7428 66.0056 45.827C66.6769 45.906 67.3245 46.1087 67.9378 46.3614C68.5565 46.6089 69.1356 46.9221 69.7148 47.2249L69.3331 47.4934C69.1172 46.0955 68.646 44.7424 68.001 43.4709C67.6772 42.8364 67.3139 42.2178 66.9111 41.6228C66.5136 41.0252 66.074 40.454 65.6159 39.8906L65.6186 39.8933Z" fill="#272525"/>
<path d="M61.8464 46.085C62.2149 46.6589 62.6519 47.1985 62.9389 47.8277C63.0837 48.141 63.2074 48.4648 63.2995 48.7965L63.5549 49.7942C63.8892 51.121 64.2736 52.4346 64.6922 53.7377C65.5082 56.3492 66.456 58.9186 67.4195 61.4827C68.3935 64.0441 69.3491 66.6135 70.2442 69.2092C71.1234 71.8101 71.9343 74.4374 72.6056 77.1015C73.2716 79.7656 73.835 82.4561 74.2983 85.165C74.7484 87.8739 75.1065 90.5985 75.3302 93.3364C75.5619 96.0716 75.6856 98.8173 75.6856 101.56C75.6751 104.304 75.5777 107.047 75.3408 109.779C75.4566 107.041 75.5014 104.301 75.4276 101.566C75.4039 100.881 75.4013 100.197 75.3645 99.5149L75.2618 97.4642C75.1644 96.1005 75.0696 94.7342 74.9248 93.3759C74.6405 90.6564 74.2983 87.9423 73.8244 85.2492C73.3479 82.5561 72.7714 79.8841 72.0948 77.2358C71.442 74.5822 70.6522 71.9628 69.7887 69.3671C68.9174 66.7741 67.9539 64.21 67.0377 61.6248C66.119 59.0423 65.2134 56.4519 64.4447 53.8141C64.063 52.4952 63.7155 51.1684 63.418 49.8284L63.1916 48.8281C63.11 48.499 62.9968 48.1752 62.8652 47.8619C62.6072 47.2301 62.1939 46.6746 61.8438 46.085H61.8464Z" fill="#272525"/>
<path d="M77.4546 49.9389C77.6679 51.0103 77.8758 52.0817 78.0759 53.1532C78.2681 54.2273 78.4287 55.3066 78.6077 56.3859C78.9157 58.5473 79.1816 60.7165 79.3764 62.8936C79.7712 67.2478 79.8897 71.6257 79.7844 75.9984C79.6344 80.3684 79.2553 84.7357 78.5392 89.0505C78.3786 90.1324 78.1522 91.2013 77.9416 92.2753C77.7468 93.352 77.4704 94.4103 77.2282 95.4739C77.1624 95.7397 77.1045 96.0056 77.0334 96.2689L76.8123 97.0587L76.3726 98.6355C76.0699 99.6859 75.7145 100.718 75.3828 101.758L75.8145 100.178C75.9541 99.6517 76.1199 99.1331 76.241 98.5987L76.6227 97.0086L76.8123 96.2136C76.8728 95.9477 76.9228 95.6792 76.9781 95.4133C77.194 94.3445 77.4467 93.2862 77.6178 92.2095C77.8047 91.1354 78.0048 90.0666 78.1417 88.9847C78.7709 84.6752 79.1526 80.3315 79.2605 75.9799C79.4106 71.6283 79.2842 67.2689 78.9762 62.9252C78.8314 60.7507 78.6103 58.5841 78.3549 56.4175C78.2154 55.3356 78.0943 54.2536 77.9416 53.1716C77.7758 52.0949 77.6126 51.0156 77.4572 49.9336L77.4546 49.9389Z" fill="#272525"/>
<path d="M81.4192 54.7832C81.3876 55.5308 81.2902 56.268 81.1612 56.9998C81.0375 57.7316 80.869 58.4556 80.6821 59.1743C80.4873 59.8903 80.2714 60.6011 80.0134 61.2987C79.7607 61.9964 79.4764 62.6834 79.1289 63.3468C79.2658 62.6124 79.4395 61.8937 79.6186 61.1776C79.7949 60.4616 79.9871 59.7508 80.1714 59.0374C80.3662 58.3266 80.5557 57.6158 80.7611 56.9077C80.9638 56.1969 81.1718 55.4887 81.4166 54.7832H81.4192Z" fill="#272525"/>
<path d="M79.4499 65.5077C78.7339 65.5656 78.0152 65.5999 77.2991 65.6473L75.1483 65.7684L73.0002 65.8921L70.8573 66.0395L71.0863 65.7236C71.2654 66.4291 71.4523 67.132 71.6207 67.8375L72.1367 69.9567L71.8919 69.7698C73.1239 69.7514 74.3533 69.7435 75.5854 69.7488C76.2014 69.7514 76.8174 69.7566 77.4334 69.7724C78.0494 69.7856 78.6654 69.7935 79.2814 69.8198C78.6681 69.8777 78.052 69.9199 77.4387 69.9646C76.8253 70.012 76.2093 70.0489 75.5959 70.0857C74.3665 70.1568 73.1371 70.2121 71.9051 70.2595C71.7892 70.2647 71.6892 70.1858 71.6602 70.0778V70.0726L71.1127 67.9613C70.9284 67.2584 70.7625 66.5502 70.5862 65.8447C70.5519 65.7078 70.6335 65.5683 70.7704 65.5341C70.7836 65.5314 70.802 65.5288 70.8152 65.5262C71.5339 65.4761 72.2526 65.4498 72.9739 65.4261C73.6926 65.3998 74.4139 65.3972 75.1326 65.3945C75.8512 65.3945 76.5699 65.4024 77.2886 65.4235C78.0073 65.4472 78.726 65.463 79.4447 65.5051L79.4499 65.5077Z" fill="#272525"/>
<path d="M72.6423 70.1045C73.2189 73.0556 73.6927 76.0251 74.1218 78.9998C74.3377 80.4872 74.5378 81.9772 74.7326 83.4673C74.9195 84.9573 75.1011 86.4499 75.2591 87.9452L75.0853 87.8057C75.7066 87.7767 76.3253 87.7188 76.9439 87.6346C77.2519 87.5924 77.5599 87.5398 77.8679 87.4819C78.1733 87.4213 78.4813 87.3634 78.7867 87.2897C78.4918 87.395 78.1944 87.4977 77.8916 87.5819C77.5889 87.6688 77.2835 87.7451 76.9781 87.8162C76.3647 87.9584 75.7408 88.0637 75.1117 88.1295C75.0301 88.1374 74.9537 88.0795 74.9405 88.0005V87.99C74.6878 86.5078 74.4588 85.0231 74.2377 83.5383C74.0218 82.0509 73.8138 80.5636 73.619 79.0735C73.2294 76.0935 72.8845 73.1082 72.6423 70.1071V70.1045Z" fill="#272525"/>
<path d="M79.4001 82.3822C79.7582 81.9742 80.182 81.632 80.6374 81.3424C81.0929 81.0502 81.5825 80.808 82.0932 80.6211C82.6039 80.4342 83.1331 80.3052 83.6728 80.2341C84.2098 80.163 84.7547 80.1525 85.2891 80.2341C84.7653 80.3683 84.2545 80.4921 83.7544 80.6342C83.2516 80.7764 82.7619 80.937 82.2749 81.1133C81.7879 81.2897 81.3087 81.4845 80.8349 81.7004C80.3584 81.9136 79.8898 82.1479 79.4028 82.3822H79.4001Z" fill="#272525"/>
<path d="M84.8469 83.2034C84.3494 83.2245 83.8676 83.2245 83.3859 83.2297C82.9067 83.235 82.4303 83.2508 81.9538 83.2692C81.4773 83.2903 81.0008 83.314 80.5217 83.3482C80.0425 83.3824 79.5608 83.4219 79.0632 83.4403C79.5055 83.2113 79.9767 83.0533 80.4611 82.9428C80.9429 82.8322 81.4351 82.7638 81.9327 82.7453C82.4276 82.7243 82.9252 82.7506 83.4148 82.8217C83.9045 82.8927 84.3889 83.0112 84.8469 83.2034Z" fill="#272525"/>
<path d="M43.826 36.5371C43.1626 38.7616 41.541 41.2099 42.7546 42.8789C43.4838 43.8819 46.2532 45.0428 47.2299 45.3219C47.3958 45.3693 47.509 45.5167 47.5142 45.6878C48.1487 67.2957 43.2495 90.1882 33.3064 109.316C33.3064 109.316 13.1228 108.727 13.3176 108.103C18.6721 98.0832 24.0531 87.9953 27.5754 77.1782C31.0977 66.3611 32.693 54.6595 30.2132 43.8556C32.6667 42.4419 35.1202 41.0282 37.5738 39.6145C39.6113 38.4404 41.9727 37.1979 43.8208 36.5371H43.826Z" fill="#8E96F5"/>
<path d="M31.1556 43.9663C28.2466 43.5924 25.2903 44.8455 23.1053 46.8226C20.9203 48.7996 19.4224 51.44 18.2667 54.1647C17.111 56.8894 16.2633 59.7378 15.1471 62.4809C13.3833 66.8167 10.9482 70.8997 9.76887 75.433C8.58949 79.9662 8.91329 85.2866 12.1118 88.6799C13.4386 90.0883 15.313 91.0992 17.2295 90.9254C18.7432 90.7886 20.1042 89.9409 21.302 88.9932C26.1169 85.1786 29.1154 79.5634 32.3218 74.2957C34.3884 70.9024 36.5997 67.5775 38.1766 63.9288C39.7561 60.2801 40.6801 56.2233 40.0141 52.2982C39.3481 48.3731 36.8787 44.6981 31.1582 43.9636L31.1556 43.9663Z" fill="#8E96F5"/>
<path d="M44.5287 44.3685C44.2155 45.1504 43.8364 45.8928 43.4599 46.6325C43.2651 46.9985 43.0782 47.3696 42.8781 47.7329C42.6807 48.0989 42.4859 48.4621 42.2832 48.8254V48.8307C42.2095 48.9544 42.0541 48.9992 41.9304 48.9281C41.9173 48.9202 41.9015 48.9097 41.8909 48.8991C41.3986 48.4806 40.9037 48.0567 40.4193 47.6171C40.1771 47.3986 39.9376 47.1722 39.7059 46.9405C39.5901 46.8221 39.4743 46.7062 39.3637 46.5825C39.2558 46.4588 39.1373 46.3351 39.0688 46.1824C39.3005 46.4088 39.5901 46.572 39.8533 46.7615C40.1219 46.9458 40.393 47.1301 40.6589 47.3196C40.9248 47.5092 41.1907 47.6987 41.4513 47.8961C41.7145 48.091 41.9725 48.2937 42.2253 48.5043L41.833 48.578C42.0226 48.2068 42.2279 47.8435 42.4359 47.4802C42.6386 47.1169 42.865 46.7642 43.0835 46.4088C43.5336 45.7059 44.0075 45.0188 44.5314 44.3633L44.5287 44.3685Z" fill="black"/>
<path d="M41.4648 20.3889L46.435 36.8239C46.6193 37.4346 46.5008 38.098 46.1165 38.6035L41.9202 44.1292C41.7675 44.3319 41.4516 44.2713 41.3831 44.0265L36.7315 27.5442C36.6104 27.1177 36.6762 26.6596 36.9078 26.2858L40.6144 20.2757C40.8303 19.9283 41.3489 19.9967 41.4674 20.3889H41.4648Z" fill="#FF9327"/>
<path d="M37.3289 49.076C39.7693 45.5326 41.1671 41.2679 41.4436 36.9006C42.1491 36.482 42.5071 36.1319 43.2021 35.5843C43.3653 35.4553 43.8128 35.3763 44.0208 35.3684C44.5289 35.3526 45.0396 35.5 45.4898 35.7291C46.04 36.0081 46.4822 36.632 46.4822 36.632C46.4822 36.632 46.548 38.3458 46.9877 39.0329C47.2536 39.3541 47.7906 39.3883 48.096 39.1066C48.3619 38.8592 48.4224 38.4669 48.4672 38.1036C48.5409 37.5139 48.5804 36.9164 48.6883 36.3319C48.8568 35.4026 48.6936 35.1025 48.2171 34.5471C48.4988 34.0653 48.4619 33.4467 48.2539 32.9307C48.046 32.4147 47.6879 31.9724 47.4352 31.5539C47.7669 31.7855 48.1118 32.0225 48.5093 32.0856C48.9068 32.1488 49.3701 31.9803 49.5175 31.6039C49.6071 31.3749 49.5649 31.1116 49.4623 30.8905C49.3596 30.6693 49.199 30.4798 49.0411 30.2929C48.3724 29.5084 47.7064 28.7265 47.0061 27.8894C46.885 27.7446 46.7297 27.6314 46.5533 27.5682C45.2844 27.1154 43.9366 26.9206 42.6019 26.7311C42.228 26.6784 41.849 26.6258 41.4778 26.6837C41.1066 26.7442 40.7354 26.9364 40.5301 27.2813C40.8881 26.1282 41.2435 24.883 40.8697 23.7352C40.8012 23.5246 40.7038 23.3167 40.5485 23.1613C40.3905 23.006 40.1641 22.9113 39.9509 22.9534C39.5587 23.035 39.3902 23.493 39.2849 23.8853C38.5636 26.5889 37.6948 29.2504 36.6234 32.0488C35.3361 32.6911 34.6674 34.1311 34.1646 35.4895C32.9405 38.8065 32.1165 42.3525 30.0684 45.222C32.0349 46.9147 34.3989 48.1336 37.3315 49.0734L37.3289 49.076Z" fill="#F36843"/>
<path d="M40.6143 27.1104C40.4037 27.6026 40.1404 28.0633 39.8508 28.5082C39.5612 28.9505 39.248 29.377 38.911 29.785C38.574 30.1931 38.2108 30.5774 37.8264 30.9433C37.4421 31.3066 37.0366 31.6515 36.5891 31.9463C36.8813 31.4962 37.1999 31.0802 37.521 30.6669C37.8448 30.2562 38.1686 29.8482 38.503 29.4507C38.8347 29.0505 39.1769 28.6557 39.5218 28.2634C39.8693 27.8712 40.222 27.4842 40.609 27.113L40.6143 27.1104Z" fill="black"/>
<path d="M47.3375 31.4885C46.553 30.762 45.7686 30.0459 44.9577 29.3641L44.6524 29.1114C44.5497 29.0271 44.4549 28.9455 44.368 28.9008C44.2785 28.8534 44.2127 28.8428 44.1285 28.856C44.0442 28.8692 43.9442 28.9113 43.8415 28.9692L42.491 29.7958C41.5775 30.3408 40.6588 30.8831 39.7242 31.3964C38.7923 31.9124 37.8499 32.4152 36.8811 32.8706C37.7367 32.2257 38.6186 31.6281 39.511 31.0436C40.4008 30.4566 41.309 29.8985 42.2173 29.3457C42.6832 29.0745 43.1176 28.8034 43.6072 28.5296C43.7389 28.4638 43.8889 28.4006 44.0706 28.3795C44.2496 28.3558 44.4575 28.4111 44.5971 28.5006C44.7419 28.5875 44.8472 28.6902 44.9419 28.7797L45.2315 29.0587C46.0002 29.809 46.7136 30.6145 47.3349 31.4859L47.3375 31.4885Z" fill="black"/>
<path d="M48.2195 34.5604C47.8747 34.1945 47.5035 33.8601 47.1191 33.5442C46.74 33.2257 46.3425 32.9256 45.9318 32.6755C45.7265 32.5544 45.5133 32.4465 45.3264 32.4228C45.1052 32.3938 44.8551 32.3938 44.6129 32.3991C44.1233 32.4096 43.6336 32.4333 43.1545 32.5149C42.1568 32.6597 41.1591 32.7518 40.1797 32.8914C39.2004 33.0335 38.2422 33.281 37.2971 33.6337C38.1422 33.0835 39.1109 32.7097 40.1034 32.486C41.0959 32.2569 42.0936 32.1437 43.0782 31.991C43.5889 31.9147 44.1049 31.891 44.6156 31.8989C44.8736 31.9068 45.1289 31.9173 45.4027 31.9673C45.7133 32.0253 45.9424 32.1832 46.1556 32.3306C46.5821 32.6334 46.9506 32.9861 47.2981 33.3573C47.6377 33.7311 47.9668 34.1234 48.2195 34.5604Z" fill="black"/>
<path d="M40.3352 35.1768C40.53 35.2057 40.6932 35.2821 40.8407 35.3795C40.9881 35.4795 41.1171 35.6059 41.2197 35.7533C41.3224 35.9007 41.3988 36.0692 41.4382 36.2482C41.4725 36.4272 41.4777 36.6141 41.4119 36.801C41.2645 36.6694 41.1618 36.5404 41.0618 36.4193C40.9644 36.2956 40.8749 36.1771 40.7906 36.0534C40.7064 35.9297 40.6222 35.8033 40.5432 35.6611C40.4668 35.519 40.3879 35.3689 40.3378 35.1768H40.3352Z" fill="black"/>
<path d="M43.5679 26.8096C44.1576 26.8359 44.7446 26.907 45.3264 27.0254C45.9082 27.1413 46.4847 27.3071 47.0402 27.5309C47.0691 27.544 47.0955 27.5598 47.1165 27.5835L47.1271 27.5941C47.5404 28.0548 47.9405 28.5286 48.3433 28.9998C48.7382 29.4763 49.1383 29.9502 49.5174 30.4398C49.6095 30.5557 49.7306 30.6952 49.807 30.8821C49.8912 31.0664 49.8912 31.3059 49.8254 31.485C49.7728 31.6482 49.6912 31.814 49.5727 31.9562C49.4569 32.101 49.2805 32.2142 49.0962 32.2563C48.7224 32.3379 48.388 32.2089 48.1116 32.051C47.8352 31.8904 47.6009 31.6956 47.3113 31.5745C47.622 31.6245 47.9116 31.7772 48.1932 31.8825C48.4697 31.9878 48.7724 32.0378 49.0067 31.9509C49.2331 31.8667 49.3673 31.6376 49.4279 31.3691C49.4832 31.1427 49.3726 30.9874 49.1541 30.7478C48.7408 30.2872 48.3433 29.8107 47.9431 29.3394C47.5483 28.8603 47.1534 28.3838 46.7717 27.8968L46.8559 27.96C46.3373 27.7178 45.7976 27.5098 45.2474 27.3229C44.6972 27.1386 44.1339 26.9781 43.5679 26.8122V26.8096Z" fill="black"/>
<path d="M48.3751 34.7129C48.6542 34.7919 48.8753 35.042 48.9964 35.3184C49.1175 35.6027 49.1465 35.9133 49.1307 36.2055C49.0965 36.7873 49.0017 37.3217 48.9201 37.8772C48.8648 38.1536 48.8358 38.4169 48.7463 38.7222C48.6963 38.8723 48.6279 39.0303 48.5094 39.1724C48.3936 39.3146 48.2146 39.4225 48.0329 39.4515C47.6696 39.512 47.3432 39.3541 47.1273 39.1356C46.9141 38.9118 46.7904 38.6512 46.6851 38.3879C46.8851 38.588 47.072 38.8039 47.2905 38.9355C47.4985 39.0724 47.7539 39.1145 47.9381 39.0513C48.3014 38.9434 48.3041 38.3379 48.4015 37.7903L48.5542 36.969L48.7253 36.1634C48.77 35.9028 48.799 35.6448 48.7516 35.3973C48.7095 35.1473 48.5963 34.8972 48.3751 34.7155V34.7129Z" fill="black"/>
<path d="M47.5959 31.835C47.8091 31.985 47.9776 32.1614 48.125 32.3615C48.2698 32.5615 48.3857 32.7906 48.4594 33.038C48.5331 33.2881 48.5541 33.554 48.5094 33.8146C48.4646 34.0726 48.3514 34.3306 48.1461 34.4965C48.1461 34.2358 48.1303 34.02 48.0934 33.8067C48.0592 33.5935 48.0092 33.3882 47.9513 33.1855L47.7538 32.5484C47.688 32.3246 47.6196 32.0956 47.5933 31.835H47.5959Z" fill="black"/>
<path d="M42.7995 49.8018C39.264 47.056 35.9391 44.1497 30.882 42.1279C26.3119 50.1703 21.6839 58.2917 15.4263 65.0758C12.6016 68.14 9.35571 71.0753 8.0447 75.0478C6.7179 79.073 7.62876 83.5351 9.32938 87.4128C10.3403 89.7242 11.9409 92.1409 14.4075 92.5516C15.8712 92.7937 17.3534 92.2593 18.6591 91.5459C23.3977 88.9529 26.5093 84.0748 28.5574 79.0361C30.6055 73.9974 31.1689 70.2698 33.2249 65.2363C35.3152 60.124 42.3414 49.8518 42.7995 49.8018Z" fill="#8E96F5"/>
<path d="M38.6794 46.4482C39.3507 47.0379 40.0668 47.5697 40.7591 48.1357C41.4515 48.7017 42.1333 49.3019 42.6809 50.0338C42.7177 50.0811 42.7177 50.1443 42.6914 50.1943V50.1996C40.33 54.3827 37.8054 58.471 35.1439 62.4672C32.4824 66.4634 29.6814 70.3701 26.6987 74.132C29.3997 70.1648 32.0902 66.1975 34.7174 62.1856C37.3447 58.1762 39.9062 54.1247 42.4308 50.0469L42.4387 50.2128C41.9385 49.4941 41.3093 48.8649 40.6512 48.2647C39.993 47.6645 39.3033 47.0906 38.6794 46.4482Z" fill="black"/>
<path d="M31.2713 68.0378C30.7974 69.7621 30.4868 71.5127 30.184 73.266C29.8787 75.0245 29.6207 76.7831 29.1679 78.539C28.6835 80.2817 27.9464 81.9481 27.0118 83.4855C26.0878 85.0308 24.9427 86.434 23.6711 87.6844C24.7926 86.2944 25.8088 84.8307 26.6564 83.2802C27.5015 81.7296 28.1991 80.0974 28.6624 78.3995C28.8994 77.557 29.0652 76.6804 29.2442 75.809C29.4259 74.9377 29.5917 74.061 29.7839 73.187C30.1577 71.4417 30.6079 69.6963 31.2739 68.0352L31.2713 68.0378Z" fill="black"/>
<path d="M30.7398 42.6465C30.3528 43.9048 29.7552 45.0921 29.0629 46.2136C28.3574 47.3298 27.5492 48.3801 26.691 49.3779C25.838 50.3809 24.9403 51.3418 24.0663 52.3158C23.187 53.2872 22.3183 54.2612 21.5338 55.2958C20.7414 56.3278 20.0201 57.4019 19.4252 58.5575C18.8144 59.7053 18.2958 60.9084 17.7193 62.093C17.148 63.2777 16.5215 64.4518 15.7396 65.5206C14.9551 66.5815 14.0153 67.5556 12.8833 68.2268C13.4151 67.8425 13.8995 67.4002 14.3444 66.9237C14.7866 66.4446 15.1736 65.9181 15.529 65.3758C16.2477 64.2912 16.8137 63.1145 17.3481 61.9219C17.8772 60.7267 18.3906 59.5158 18.9855 58.3311C19.283 57.7388 19.6147 57.1623 19.978 56.6068L20.2439 56.1856L20.5308 55.7802C20.723 55.5117 20.9099 55.2353 21.1179 54.9799C22.7369 52.8792 24.6323 51.0469 26.3856 49.112C28.1336 47.1797 29.7605 45.1 30.7424 42.6517L30.7398 42.6465Z" fill="black"/>
<path d="M20.4887 50.7334C20.7493 51.4258 20.8046 52.1418 20.9336 52.7999C20.9968 53.129 21.0757 53.4502 21.1784 53.7766C21.2811 54.103 21.3995 54.4347 21.4943 54.7928C21.2153 54.5506 20.9862 54.2636 20.8019 53.9425C20.6177 53.6213 20.4808 53.2633 20.415 52.8973C20.3465 52.5314 20.336 52.1655 20.3491 51.8075C20.3649 51.4494 20.4018 51.0941 20.486 50.7334H20.4887Z" fill="black"/>
<path d="M18.6826 54.4223C18.938 54.3564 19.1828 54.3406 19.4329 54.3485C19.6803 54.3617 19.9357 54.4091 20.1832 54.5144C20.4306 54.6171 20.657 54.7961 20.815 55.0093C20.9729 55.2252 21.073 55.4674 21.0993 55.728C20.8834 55.5779 20.7044 55.4253 20.5228 55.3015C20.3437 55.1778 20.1674 55.0778 19.9726 54.9961C19.7804 54.9119 19.5671 54.8382 19.3486 54.7513C19.1301 54.6618 18.9011 54.5697 18.6852 54.4196L18.6826 54.4223Z" fill="black"/>
<path d="M43.231 46.5166L43.0783 50.1153L42.8335 53.7113L42.486 57.2995L42.0543 60.8797C41.4172 65.6446 40.509 70.3753 39.4086 75.0559C38.2661 79.7287 36.9314 84.3541 35.3571 88.8952L34.1382 92.2885L32.8483 95.6529L31.4688 98.9831C30.9897 100.083 30.5053 101.184 30.0183 102.279C30.4553 101.16 30.8949 100.044 31.3398 98.9304L32.6061 95.5608L33.825 92.1753L34.9754 88.7662C36.4654 84.2066 37.8027 79.5997 38.9005 74.9322C40.0404 70.2752 40.9354 65.5604 41.6568 60.8218L42.1596 57.26L42.5808 53.6876L42.9414 50.1074L43.2337 46.5192L43.231 46.5166Z" fill="black"/>
<path d="M25.0034 51.1706C26.1802 51.5076 27.3227 51.963 28.4257 52.4974C29.5314 53.0292 30.5949 53.6531 31.6137 54.3375C32.6272 55.0299 33.5987 55.7881 34.5042 56.6173C35.4098 57.4439 36.2575 58.3364 37.0052 59.3051C36.0969 58.4864 35.1808 57.6888 34.2357 56.928C33.2906 56.1724 32.3219 55.4458 31.3189 54.7719C30.3211 54.0901 29.2892 53.4583 28.2362 52.8581C27.1805 52.2605 26.1012 51.7076 25.0034 51.168V51.1706Z" fill="black"/>
<path d="M34.1723 63.4072C34.8989 63.5783 35.6176 63.7784 36.3363 63.9785C36.6969 64.0785 37.0523 64.1917 37.4077 64.3076C37.7631 64.4208 38.1185 64.5445 38.4686 64.6761C38.5634 64.713 38.6134 64.813 38.5844 64.9104V64.9209C38.3659 65.6501 38.1395 66.3741 37.9105 67.098C37.6841 67.8246 37.4393 68.5433 37.1971 69.2646C36.9549 69.9859 36.689 70.6994 36.4258 71.4128C36.1599 72.1262 35.8756 72.8317 35.5886 73.5372V73.5451C35.5439 73.6452 35.4386 73.6978 35.3385 73.6741C34.4356 73.4688 33.5642 73.1503 32.7534 72.7159C32.348 72.5026 31.961 72.2526 31.5898 71.9867C31.2186 71.7208 30.8685 71.4286 30.5447 71.11C30.9106 71.3786 31.2871 71.6286 31.6767 71.855C32.0637 72.0841 32.4691 72.2789 32.8771 72.4605C33.6958 72.8186 34.5514 73.0844 35.4254 73.2371L35.1753 73.374C35.4438 72.6659 35.6939 71.9498 35.9519 71.239L36.7074 69.0935L37.4551 66.9454L38.2106 64.7972L38.3238 65.042C37.9842 64.8946 37.642 64.7551 37.2998 64.6156L36.2625 64.2075C35.5702 63.9337 34.8699 63.6836 34.1749 63.4072H34.1723Z" fill="black"/>
<path d="M35.0545 73.5527C34.9808 74.0977 34.8886 74.64 34.7939 75.1849C34.7017 75.7272 34.5938 76.2669 34.4832 76.8065C34.2568 77.8833 34.0015 78.9547 33.7172 80.0209C33.4302 81.0844 33.1222 82.1427 32.78 83.1904C32.443 84.2382 32.0718 85.2781 31.6796 86.3074V86.3153C31.6348 86.4258 31.5085 86.4811 31.3979 86.439C31.3847 86.4337 31.3689 86.4258 31.3584 86.4179C30.6503 85.9572 29.9395 85.4939 29.2392 85.0201L28.1915 84.3014C27.8413 84.0618 27.4938 83.8196 27.1516 83.5722C27.5281 83.767 27.9019 83.9671 28.2731 84.1724L29.3866 84.7831C30.1264 85.1964 30.8582 85.6203 31.5901 86.0441L31.2689 86.1573C31.619 85.1201 31.956 84.075 32.2877 83.0325C32.6141 81.9874 32.9379 80.9396 33.2486 79.8893C33.5592 78.8389 33.8619 77.7859 34.1621 76.7276L35.0571 73.5554L35.0545 73.5527Z" fill="black"/>
</g>
<path d="M79.5953 19.5666L78.5607 17.4053L78.0631 19.7798L75.7913 20.1036L77.7788 21.1961L77.1391 22.9336L78.8687 21.2567L80.9853 22.6361L79.9717 20.8434L81.5828 19.4981L79.5953 19.5666Z" fill="#FF9327"/>
<path d="M27.165 37.7287L26.3489 36.2598L26.212 37.9814L24.7983 38.3632L26.1383 39.0055L25.8645 40.2823L26.8333 38.9765L28.2759 39.8137L27.4993 38.6106L28.4181 37.5471L27.165 37.7287Z" fill="#FF9327"/>
<path d="M72.5395 32.243C72.903 32.243 73.1976 31.9484 73.1976 31.5849C73.1976 31.2214 72.903 30.9268 72.5395 30.9268C72.176 30.9268 71.8813 31.2214 71.8813 31.5849C71.8813 31.9484 72.176 32.243 72.5395 32.243Z" fill="#FF9327"/>
<path d="M17.7826 53.0399C18.1461 53.0399 18.4408 52.7452 18.4408 52.3818C18.4408 52.0183 18.1461 51.7236 17.7826 51.7236C17.4192 51.7236 17.1245 52.0183 17.1245 52.3818C17.1245 52.7452 17.4192 53.0399 17.7826 53.0399Z" fill="#FF9327"/>
<path d="M18.5722 28.5575C18.9357 28.5575 19.2303 28.2628 19.2303 27.8993C19.2303 27.5359 18.9357 27.2412 18.5722 27.2412C18.2087 27.2412 17.9141 27.5359 17.9141 27.8993C17.9141 28.2628 18.2087 28.5575 18.5722 28.5575Z" fill="#FF9327"/>
<path d="M28.0497 23.2927C28.2678 23.2927 28.4445 23.1159 28.4445 22.8978C28.4445 22.6797 28.2678 22.5029 28.0497 22.5029C27.8316 22.5029 27.6548 22.6797 27.6548 22.8978C27.6548 23.1159 27.8316 23.2927 28.0497 23.2927Z" fill="#FF9327"/>
<path d="M69.9068 37.7712C70.1249 37.7712 70.3017 37.5944 70.3017 37.3763C70.3017 37.1582 70.1249 36.9814 69.9068 36.9814C69.6888 36.9814 69.512 37.1582 69.512 37.3763C69.512 37.5944 69.6888 37.7712 69.9068 37.7712Z" fill="#FF9327"/>
<path d="M71.223 11.446C71.4411 11.446 71.6179 11.2692 71.6179 11.0511C71.6179 10.833 71.4411 10.6562 71.223 10.6562C71.0049 10.6562 70.8281 10.833 70.8281 11.0511C70.8281 11.2692 71.0049 11.446 71.223 11.446Z" fill="#FF9327"/>
<path d="M12.9912 59.6026C13.3184 59.6026 13.5836 59.3374 13.5836 59.0103C13.5836 58.6832 13.3184 58.418 12.9912 58.418C12.6641 58.418 12.3989 58.6832 12.3989 59.0103C12.3989 59.3374 12.6641 59.6026 12.9912 59.6026Z" stroke="#FF9327" stroke-width="0.269095" stroke-miterlimit="10"/>
<path d="M88.2852 58.0245C88.6123 58.0245 88.8775 57.7593 88.8775 57.4322C88.8775 57.105 88.6123 56.8398 88.2852 56.8398C87.9581 56.8398 87.6929 57.105 87.6929 57.4322C87.6929 57.7593 87.9581 58.0245 88.2852 58.0245Z" stroke="#FF9327" stroke-width="0.269095" stroke-miterlimit="10"/>
<path d="M76.7019 38.544C77.0291 38.544 77.2943 38.2788 77.2943 37.9517C77.2943 37.6246 77.0291 37.3594 76.7019 37.3594C76.3748 37.3594 76.1096 37.6246 76.1096 37.9517C76.1096 38.2788 76.3748 38.544 76.7019 38.544Z" stroke="#FF9327" stroke-width="0.269095" stroke-miterlimit="10"/>
</svg>
