<svg width="101" height="101" viewBox="0 0 101 101" fill="none" xmlns="http://www.w3.org/2000/svg">
<path d="M90.054 66.5495C81.4001 86.9259 58.3484 98.341 38.3577 95.2616C35.1049 94.7606 26.187 93.2681 18.2915 86.2269C3.09205 72.6719 -0.158767 45.8318 12.1021 26.9168C21.026 13.1501 37.0228 5.34615 52.2229 5.73664C55.497 5.82087 68.0449 6.33887 79.0721 15.4318C80.6917 16.7675 84.2641 19.9411 87.4836 24.9759C95.0439 36.7987 95.6937 53.2702 90.0536 66.5498L90.054 66.5495Z" fill="url(#paint0_linear_987_8012)"/>
<path d="M66.0341 24.8119C68.7375 22.1085 68.7374 17.7255 66.0341 15.0221C63.3307 12.3187 58.9476 12.3187 56.2443 15.0221C53.5409 17.7255 53.5409 22.1085 56.2443 24.8119C58.9476 27.5153 63.3307 27.5153 66.0341 24.8119Z" fill="url(#paint1_linear_987_8012)"/>
<path d="M65.8718 24.6492C68.4853 22.0357 68.4853 17.7983 65.8718 15.1848C63.2582 12.5712 59.0208 12.5712 56.4073 15.1848C53.7937 17.7983 53.7937 22.0357 56.4073 24.6492C59.0208 27.2628 63.2582 27.2628 65.8718 24.6492Z" fill="url(#paint2_linear_987_8012)"/>
<path opacity="0.78" d="M55.7276 17.05C55.7087 17.0494 55.6897 17.0444 55.672 17.0344C55.6118 17.0008 55.5898 16.9249 55.6234 16.8646C56.7846 14.7696 58.9914 13.5256 61.383 13.6181C61.7645 13.6328 62.1454 13.682 62.5152 13.7643C62.5825 13.7792 62.6251 13.8458 62.6101 13.9134C62.5951 13.9806 62.5289 14.0236 62.461 14.0083C62.1061 13.9294 61.7399 13.8821 61.3734 13.8678C59.0767 13.7789 56.9571 14.9737 55.8418 16.9854C55.8182 17.0281 55.7732 17.0517 55.7276 17.0497V17.05Z" fill="white"/>
<path opacity="0.78" d="M65.2848 24.0737C67.4969 21.8616 67.4969 18.2751 65.2848 16.063C63.0727 13.851 59.4862 13.851 57.2741 16.063C55.062 18.2751 55.062 21.8616 57.2741 24.0737C59.4862 26.2858 63.0727 26.2858 65.2848 24.0737Z" fill="white"/>
<path d="M60.5609 24.2541L60.5848 23.6382C59.944 23.5876 59.3148 23.4115 58.8714 23.1968C58.7129 23.1202 58.638 22.9361 58.6909 22.7683L58.8694 22.2007C58.9349 21.9927 59.168 21.8925 59.3657 21.9847C59.8058 22.1894 60.3525 22.3592 60.948 22.3822C61.5662 22.4061 62.0356 22.2144 62.0523 21.7846C62.0673 21.3968 61.72 21.1527 60.8695 20.8887C59.6564 20.5059 58.7968 19.9376 58.8384 18.858C58.876 17.8833 59.6174 17.1669 60.8618 17.0157L60.8858 16.3998C60.8934 16.2018 61.0602 16.0473 61.2583 16.055L61.6202 16.0689C61.8182 16.0766 61.9727 16.2434 61.9651 16.4415L61.9437 16.9944C62.537 17.041 62.9654 17.1595 63.3037 17.2934C63.4771 17.3619 63.566 17.555 63.5101 17.7331L63.3456 18.2581C63.2824 18.4605 63.0593 18.5641 62.8639 18.4815C62.5526 18.3497 62.1109 18.2082 61.5303 18.1856C60.7966 18.1573 60.5755 18.4529 60.5648 18.7255C60.5519 19.0608 60.983 19.3084 61.9254 19.6387C63.272 20.1001 63.816 20.6877 63.7767 21.7044C63.7408 22.6372 63.0167 23.4488 61.6671 23.6066L61.6405 24.2957C61.6328 24.4938 61.466 24.6482 61.2679 24.6406L60.9061 24.6266C60.708 24.619 60.5535 24.4522 60.5612 24.2541H60.5609Z" fill="url(#paint3_linear_987_8012)"/>
<path d="M17.768 31.0229C20.5788 28.2122 20.5788 23.655 17.768 20.8443C14.9573 18.0335 10.4001 18.0335 7.58934 20.8443C4.77858 23.655 4.77858 28.2122 7.58934 31.0229C10.4001 33.8337 14.9573 33.8337 17.768 31.0229Z" fill="url(#paint4_linear_987_8012)"/>
<path d="M17.5991 30.8537C20.3164 28.1364 20.3164 23.7308 17.5991 21.0135C14.8818 18.2962 10.4762 18.2962 7.75896 21.0135C5.04167 23.7308 5.04167 28.1364 7.75896 30.8537C10.4762 33.571 14.8818 33.571 17.5991 30.8537Z" fill="url(#paint5_linear_987_8012)"/>
<path opacity="0.78" d="M7.05221 22.954C7.03256 22.9533 7.01292 22.948 6.99428 22.9376C6.93136 22.9027 6.90872 22.8238 6.94368 22.7612C8.15079 20.583 10.4455 19.2897 12.932 19.3859C13.3288 19.4012 13.7246 19.4525 14.1091 19.538C14.179 19.5537 14.2233 19.6229 14.2077 19.6931C14.192 19.7631 14.1231 19.8077 14.0525 19.7917C13.6833 19.7098 13.3028 19.6605 12.9217 19.6459C10.5334 19.5537 8.3299 20.7957 7.17039 22.8874C7.14575 22.9317 7.09914 22.956 7.05154 22.9543L7.05221 22.954Z" fill="white"/>
<path opacity="0.78" d="M16.9892 30.255C19.2891 27.9552 19.2891 24.2264 16.9892 21.9266C14.6894 19.6268 10.9606 19.6268 8.6608 21.9266C6.36097 24.2264 6.36097 27.9552 8.6608 30.255C10.9606 32.5549 14.6894 32.5549 16.9892 30.255Z" fill="white"/>
<path d="M12.0779 30.4436L12.1025 29.8034C11.4361 29.7508 10.7819 29.5677 10.3212 29.3444C10.1567 29.2645 10.0785 29.0734 10.1334 28.8989L10.3192 28.3087C10.3874 28.0923 10.6294 27.9881 10.8352 28.084C11.2929 28.297 11.8612 28.4735 12.4804 28.4974C13.1232 28.5224 13.6109 28.323 13.6282 27.8762C13.6439 27.4731 13.2827 27.2191 12.3985 26.9448C11.1371 26.5469 10.2433 25.9557 10.2869 24.8335C10.3261 23.8201 11.0968 23.0751 12.3905 22.9179L12.4151 22.2778C12.4231 22.0717 12.5966 21.9112 12.8026 21.9192L13.1788 21.9339C13.3849 21.9419 13.5453 22.1153 13.5374 22.3214L13.5151 22.8963C14.1316 22.9449 14.577 23.0678 14.9292 23.2069C15.1097 23.2782 15.2019 23.4789 15.144 23.664L14.9732 24.2096C14.9073 24.42 14.6756 24.5279 14.4725 24.442C14.1489 24.3052 13.6895 24.1577 13.0856 24.1344C12.3229 24.1048 12.0929 24.4124 12.0819 24.6957C12.0686 25.0442 12.5167 25.3016 13.4964 25.6451C14.8966 26.1248 15.4622 26.736 15.4213 27.7927C15.3836 28.7624 14.6309 29.6063 13.2278 29.7705L13.2001 30.4869C13.1921 30.693 13.0187 30.8534 12.8126 30.8454L12.4364 30.8308C12.2304 30.8228 12.0699 30.6493 12.0779 30.4433V30.4436Z" fill="url(#paint6_linear_987_8012)"/>
<path d="M35.5339 14.9638C37.674 12.8237 37.674 9.35401 35.5339 7.21395C33.3939 5.0739 29.9241 5.0739 27.7841 7.21395C25.644 9.35401 25.644 12.8237 27.7841 14.9638C29.9241 17.1038 33.3939 17.1038 35.5339 14.9638Z" fill="url(#paint7_linear_987_8012)"/>
<path d="M35.4055 14.8348C37.4743 12.766 37.4743 9.41176 35.4055 7.34295C33.3367 5.27414 29.9825 5.27414 27.9136 7.34295C25.8448 9.41176 25.8448 12.766 27.9136 14.8348C29.9825 16.9036 33.3367 16.9036 35.4055 14.8348Z" fill="url(#paint8_linear_987_8012)"/>
<path opacity="0.78" d="M27.3754 8.81994C27.3605 8.81927 27.3455 8.81528 27.3315 8.80762C27.2836 8.78099 27.2666 8.72106 27.2929 8.67313C28.212 7.01492 29.9588 6.03019 31.852 6.10343C32.154 6.11508 32.4556 6.15403 32.7482 6.21928C32.8015 6.23126 32.8351 6.28386 32.8234 6.33713C32.8114 6.39039 32.7592 6.42435 32.7053 6.41203C32.4243 6.34945 32.1347 6.31216 31.8444 6.30084C30.026 6.2306 28.3485 7.17638 27.4657 8.769C27.447 8.80263 27.4114 8.82127 27.3751 8.81994H27.3754Z" fill="white"/>
<path opacity="0.78" d="M36.0867 12.4186C36.7552 10.0342 35.3641 7.55928 32.9796 6.89084C30.5951 6.22239 28.1202 7.6135 27.4518 9.99797C26.7833 12.3824 28.1744 14.8573 30.5589 15.5258C32.9434 16.1942 35.4183 14.8031 36.0867 12.4186Z" fill="white"/>
<path d="M31.2014 14.5221L31.2204 14.0347C30.7131 13.9948 30.215 13.8553 29.8642 13.6852C29.739 13.6246 29.6794 13.4788 29.7213 13.346L29.8628 12.8965C29.9148 12.7318 30.0992 12.6525 30.2557 12.7254C30.6042 12.8876 31.0366 13.022 31.508 13.04C31.9974 13.059 32.3689 12.9072 32.3819 12.567C32.3939 12.26 32.1189 12.0666 31.4455 11.8579C30.485 11.5549 29.8046 11.1048 29.8375 10.2503C29.8675 9.4786 30.4544 8.91166 31.4391 8.79182L31.4581 8.30444C31.4641 8.14765 31.5963 8.02547 31.7531 8.03146L32.0394 8.04245C32.1962 8.04844 32.3183 8.1806 32.3123 8.3374L32.2954 8.77517C32.7648 8.81212 33.104 8.90567 33.372 9.01187C33.5091 9.06613 33.5794 9.21894 33.5354 9.35975L33.4053 9.77522C33.355 9.93535 33.1786 10.0176 33.0241 9.95199C32.7777 9.84779 32.4279 9.7356 31.9685 9.71796C31.3879 9.69566 31.2124 9.92969 31.2041 10.1454C31.1938 10.4107 31.5353 10.6068 32.2811 10.8681C33.347 11.2333 33.7775 11.6987 33.7465 12.5034C33.7179 13.2418 33.1449 13.8843 32.0766 14.0091L32.0557 14.5547C32.0497 14.7115 31.9175 14.8337 31.7607 14.8277L31.4744 14.8167C31.3176 14.8107 31.1954 14.6786 31.2014 14.5218V14.5221Z" fill="url(#paint9_linear_987_8012)"/>
<path d="M93.9969 45.2356C96.4839 42.7486 96.4839 38.7163 93.9969 36.2292C91.5098 33.7422 87.4775 33.7422 84.9905 36.2292C82.5035 38.7163 82.5035 42.7486 84.9905 45.2356C87.4775 47.7227 91.5098 47.7227 93.9969 45.2356Z" fill="url(#paint10_linear_987_8012)"/>
<path d="M93.8476 45.0849C96.2519 42.6806 96.2519 38.7823 93.8476 36.378C91.4432 33.9736 87.545 33.9736 85.1406 36.378C82.7362 38.7823 82.7362 42.6806 85.1406 45.0849C87.545 47.4893 91.4432 47.4893 93.8476 45.0849Z" fill="url(#paint11_linear_987_8012)"/>
<path opacity="0.78" d="M84.5146 38.0953C84.4973 38.0946 84.4797 38.09 84.4633 38.081C84.4077 38.0503 84.3878 37.9801 84.4184 37.9248C85.4867 35.9976 87.5168 34.8531 89.7173 34.938C90.0685 34.9517 90.4187 34.9969 90.7589 35.0725C90.8208 35.0862 90.8601 35.1477 90.8461 35.2097C90.8325 35.2716 90.7712 35.3109 90.709 35.2969C90.3824 35.2243 90.0458 35.1807 89.7086 35.1677C87.5956 35.0862 85.6455 36.1851 84.6198 38.036C84.5982 38.0753 84.5569 38.0969 84.5146 38.0953Z" fill="white"/>
<path opacity="0.78" d="M94.6276 42.304C95.4209 39.5375 93.8213 36.6518 91.0549 35.8586C88.2884 35.0653 85.4027 36.6649 84.6094 39.4313C83.8162 42.1978 85.4157 45.0835 88.1822 45.8768C90.9487 46.67 93.8344 45.0705 94.6276 42.304Z" fill="white"/>
<path d="M88.9617 44.7226L88.9837 44.156C88.3941 44.1094 87.8152 43.9476 87.4074 43.7498C87.2619 43.6792 87.1926 43.5101 87.2413 43.3557L87.4057 42.8337C87.466 42.6422 87.6804 42.55 87.8625 42.6349C88.2673 42.8233 88.7703 42.9795 89.3183 43.0008C89.8872 43.0228 90.3186 42.8463 90.3339 42.4512C90.3476 42.0946 90.028 41.8696 89.2457 41.6272C88.1294 41.275 87.3388 40.752 87.3771 39.759C87.4117 38.8624 88.0938 38.2033 89.2384 38.0638L89.2603 37.4972C89.2673 37.3148 89.4208 37.1729 89.6032 37.1799L89.9361 37.1929C90.1186 37.1999 90.2604 37.3534 90.2534 37.5358L90.2337 38.0445C90.7794 38.0874 91.1735 38.1963 91.4848 38.3195C91.6443 38.3824 91.7262 38.5602 91.6746 38.724L91.5234 39.207C91.4652 39.3931 91.2601 39.4886 91.0803 39.4124C90.794 39.2912 90.3875 39.1611 89.8532 39.1404C89.1784 39.1144 88.9747 39.3864 88.965 39.6371C88.9531 39.9457 89.3499 40.1734 90.2168 40.4774C91.4555 40.9018 91.9562 41.4425 91.9199 42.3776C91.8866 43.2355 91.2208 43.9822 89.9791 44.1273L89.9544 44.7612C89.9474 44.9436 89.794 45.0854 89.6115 45.0784L89.2786 45.0655C89.0962 45.0585 88.9544 44.905 88.9614 44.7226H88.9617Z" fill="url(#paint12_linear_987_8012)"/>
<path d="M81.8908 15.5149C84.1632 13.2425 84.1632 9.55824 81.8908 7.28584C79.6184 5.01343 75.9341 5.01344 73.6617 7.28584C71.3893 9.55824 71.3893 13.2425 73.6617 15.5149C75.9341 17.7873 79.6184 17.7873 81.8908 15.5149Z" fill="url(#paint13_linear_987_8012)"/>
<path d="M81.7539 15.3782C83.9508 13.1813 83.9508 9.61948 81.7539 7.42261C79.557 5.22574 75.9952 5.22574 73.7983 7.42261C71.6015 9.61948 71.6015 13.1813 73.7983 15.3782C75.9952 17.575 79.557 17.575 81.7539 15.3782Z" fill="url(#paint14_linear_987_8012)"/>
<path opacity="0.78" d="M73.2266 8.99026C73.2106 8.98959 73.1947 8.98526 73.18 8.97727C73.1294 8.94898 73.1111 8.88506 73.1391 8.83446C74.1151 7.07339 75.9701 6.02773 77.9805 6.10563C78.3014 6.11795 78.6214 6.15923 78.9323 6.22847C78.9889 6.24112 79.0245 6.29705 79.0122 6.35364C78.9995 6.41024 78.9439 6.44619 78.887 6.43321C78.5887 6.36696 78.2811 6.32701 77.9729 6.31536C76.042 6.24079 74.2606 7.24483 73.3232 8.93599C73.3032 8.97195 73.2656 8.99159 73.2273 8.98992L73.2266 8.99026Z" fill="white"/>
<path opacity="0.78" d="M82.4757 12.8238C83.1922 10.2937 81.7219 7.66195 79.1918 6.94554C76.6618 6.22912 74.03 7.69938 73.3135 10.2294C72.5971 12.7595 74.0674 15.3913 76.5975 16.1077C79.1275 16.8241 81.7593 15.3539 82.4757 12.8238Z" fill="white"/>
<path d="M77.2909 15.0457L77.3109 14.528C76.7722 14.4854 76.2432 14.3376 75.8707 14.1568C75.7375 14.0922 75.6746 13.9378 75.7189 13.7966L75.869 13.3196C75.924 13.1445 76.12 13.0606 76.2862 13.1378C76.656 13.3099 77.1154 13.4527 77.6161 13.472C78.1358 13.492 78.5303 13.3309 78.5443 12.9697C78.5569 12.6438 78.265 12.4384 77.5499 12.2167C76.5302 11.8951 75.8074 11.417 75.8427 10.5098C75.8744 9.69057 76.4976 9.08834 77.5436 8.96117L77.5635 8.4435C77.5698 8.27705 77.7103 8.14722 77.8768 8.15354L78.1811 8.16519C78.3475 8.17152 78.4773 8.312 78.471 8.47846L78.453 8.94319C78.9517 8.98248 79.3116 9.08202 79.5962 9.19454C79.7421 9.25213 79.8166 9.41459 79.7697 9.56406L79.6315 10.0052C79.5783 10.1753 79.3908 10.2625 79.2267 10.1929C78.9651 10.0821 78.5935 9.96322 78.1055 9.94424C77.489 9.92027 77.3029 10.169 77.2939 10.398C77.2829 10.68 77.6454 10.888 78.4374 11.1657C79.5693 11.5535 80.0267 12.0475 79.9934 12.9021C79.9631 13.6861 79.3546 14.3682 78.22 14.501L78.1977 15.0803C78.1914 15.2468 78.0509 15.3766 77.8844 15.3703L77.5802 15.3586C77.4137 15.3523 77.2839 15.2118 77.2902 15.0454L77.2909 15.0457Z" fill="url(#paint15_linear_987_8012)"/>
<path d="M32.5317 49.068C32.3822 49.5034 31.8362 49.6446 31.4903 49.3407C29.5814 47.6641 24.6128 42.4362 24.9481 33.6725C25.231 26.2716 24.6814 22.2318 24.3046 20.4152C24.225 20.031 24.6821 19.7683 24.974 20.0303C28.1982 22.9183 37.953 33.2896 32.5313 49.068H32.5317Z" fill="#91B3FA"/>
<path d="M31.8066 49.1646C31.7174 49.1646 31.6325 49.1127 31.5949 49.0258C31.55 48.9226 27.1093 38.5742 27.0381 28.2558C27.0371 28.1283 27.14 28.0244 27.2675 28.0234H27.2691C27.396 28.0234 27.4988 28.1256 27.4998 28.2528C27.5704 38.4747 31.9741 48.7395 32.0187 48.842C32.0696 48.9589 32.0157 49.0947 31.8988 49.1456C31.8689 49.1586 31.8376 49.1646 31.807 49.1646H31.8066Z" fill="#BDD0FB"/>
<path d="M70.0565 58.7318C71.6687 55.9294 78.2772 44.9106 85.3461 39.7638C85.8508 39.3963 86.5622 39.7369 86.5862 40.3607C86.737 44.304 85.7909 55.6804 70.4233 59.2285C70.1374 59.2944 69.9103 58.9865 70.0568 58.7318H70.0565Z" fill="#91B3FA"/>
<path d="M70.5281 59.0134C70.4578 59.0134 70.3882 58.9815 70.343 58.9206C70.2667 58.8183 70.2877 58.6739 70.3899 58.5973C80.6201 50.9658 83.6109 43.5813 83.6399 43.5077C83.6865 43.3892 83.8206 43.3306 83.9392 43.3775C84.0577 43.4241 84.1163 43.5583 84.0693 43.6768C84.0397 43.7517 81.0003 51.2581 70.6659 58.9675C70.6246 58.9985 70.576 59.0131 70.5281 59.0131V59.0134Z" fill="#BDD0FB"/>
<path d="M70.3355 59.8798C70.0452 59.8585 69.8711 59.5479 70.0009 59.2875C70.717 57.851 73.1096 53.9724 78.5176 52.7636C83.0844 51.7429 85.4637 50.7552 86.5127 50.2322C86.7344 50.1216 86.9688 50.3583 86.8559 50.5791C85.6115 53.0146 80.8493 60.6468 70.3355 59.8798Z" fill="#BDD0FB"/>
<path d="M70.3003 59.6459C70.232 59.6459 70.1645 59.616 70.1188 59.558C70.0399 59.4578 70.0573 59.3127 70.1571 59.2338C70.2131 59.1895 75.8325 54.7968 82.1411 53.0844C82.2642 53.0507 82.3911 53.1237 82.4244 53.2465C82.4577 53.3697 82.3851 53.4965 82.2619 53.5298C76.0462 55.217 70.498 59.5527 70.4428 59.5963C70.4005 59.6296 70.3499 59.6459 70.2999 59.6459H70.3003Z" fill="url(#paint16_linear_987_8012)"/>
<path d="M31.8755 58.6605C30.5602 55.6501 25.7577 47.5924 12.9059 50.6801C12.3699 50.809 12.1672 51.4668 12.5354 51.8773C14.7738 54.372 21.7692 61.1074 31.1564 59.9219C31.756 59.8463 32.1179 59.2148 31.8758 58.6609L31.8755 58.6605Z" fill="#91B3FA"/>
<path d="M31.1356 59.4802C31.0753 59.4802 31.0151 59.4566 30.9698 59.41C26.0122 54.2855 16.8573 52.39 16.7654 52.3713C16.6405 52.346 16.5596 52.2245 16.5846 52.0994C16.6096 51.9745 16.7307 51.8936 16.8566 51.9186C16.9498 51.9376 26.2429 53.8601 31.3017 59.0887C31.3902 59.1803 31.3879 59.3264 31.2964 59.4149C31.2514 59.4582 31.1938 59.4799 31.1359 59.4799L31.1356 59.4802Z" fill="#BDD0FB"/>
<path d="M37.6525 13.8749C37.0293 18.8864 33.9133 49.788 50.3485 59.6487C50.8462 59.9473 51.4844 59.6147 51.5263 59.0361C51.793 55.3529 51.9594 43.6486 45.1998 29.8347C40.3224 19.8682 38.5347 15.3749 37.9711 13.8379C37.9115 13.6751 37.6738 13.7024 37.6525 13.8745V13.8749Z" fill="#BDD0FB"/>
<path d="M51.526 59.2672C51.4441 59.2672 51.3648 59.2235 51.3229 59.1466C46.9469 51.1013 43.9587 42.2893 42.2223 36.3137C40.3726 29.9475 39.3962 24.9333 39.4971 24.611C39.5354 24.4895 39.6649 24.4216 39.7864 24.4599C39.8979 24.4949 39.9642 24.6064 39.9449 24.7186C39.9369 25.5252 43.4274 43.6662 51.728 58.9263C51.789 59.0385 51.7477 59.1786 51.6355 59.2392C51.6005 59.2582 51.5626 59.2672 51.5253 59.2672H51.526Z" fill="url(#paint17_linear_987_8012)"/>
<path d="M62.5779 55.2286L75.7466 30.0001H73.0484C72.5511 30.0001 72.2774 29.4215 72.593 29.037L86.6283 11.9309C87.2365 11.1896 88.4383 11.6596 88.3817 12.6171L87.395 29.3449C87.3384 30.3027 86.4895 31.0161 85.5364 30.9072L83.6555 30.6918L70.5893 58.9881C70.249 59.7248 69.5116 60.1966 68.7003 60.1966H64.1718L62.5779 55.229V55.2286Z" fill="url(#paint18_linear_987_8012)"/>
<path d="M51.8796 59.5067C51.8796 59.5067 56.3972 51.7386 63.1229 51.1541C66.882 50.8275 69.1115 49.1976 70.1938 48.1263C70.4821 47.841 70.9691 48.0784 70.9255 48.4815C70.5107 52.3359 67.7755 63.5887 51.8796 59.5067Z" fill="#91B3FA"/>
<path d="M51.6902 37.5345L60.9869 58.1863C61.5375 59.4094 62.7543 60.196 64.0959 60.196H68.8887C69.5246 60.196 70.1105 59.8511 70.4191 59.2948L70.5896 58.9876C70.0746 58.9876 69.6032 58.6989 69.3691 58.2402L56.9821 33.9697L51.6902 37.5341V37.5345Z" fill="url(#paint19_linear_987_8012)"/>
<path d="M58.2334 36.4217C57.3013 35.6856 55.9391 35.902 55.2809 36.8908L41.6118 57.4274C40.5169 59.0722 38.6723 60.0603 36.6961 60.0603H34.7726L33.2073 55.5511C33.2073 55.5511 45.9146 36.0665 49.1901 33.1193C49.1901 33.1193 52.4519 30.1797 55.6677 32.4022C56.5173 32.9894 57.1625 33.8274 57.5563 34.7821L58.2328 36.4217H58.2334Z" fill="url(#paint20_linear_987_8012)"/>
<path d="M18.3402 43.4239C18.3402 43.4239 20.6282 40.5639 25.0622 40.1191C25.0622 40.1191 27.1682 40.8366 31.3634 48.3542C35.5587 55.8719 38.3435 59.2998 41.6113 57.4276L41.3406 57.8766C40.4491 59.3571 38.8472 60.2623 37.119 60.2623H35.3117C33.3219 60.2623 31.454 59.3055 30.2918 57.6902C27.0267 53.1511 20.3459 44.1287 18.3398 43.4242L18.3402 43.4239Z" fill="url(#paint21_linear_987_8012)"/>
<path opacity="0.75" d="M86.7979 17.9449C86.7916 17.9449 86.7852 17.9449 86.7786 17.9439C86.686 17.9335 86.6191 17.8496 86.6298 17.7571L86.7223 16.9401C86.7326 16.8476 86.8165 16.7797 86.9091 16.7913C87.0016 16.8017 87.0685 16.8856 87.0579 16.9781L86.9653 17.7951C86.9557 17.8813 86.8825 17.9449 86.7979 17.9449Z" fill="white"/>
<path opacity="0.75" d="M75.0816 28.2556C75.0457 28.2556 75.0094 28.2443 74.9788 28.2207C74.9049 28.1638 74.8909 28.0576 74.9481 27.9837L86.5379 12.9243C86.683 12.7353 86.9291 12.6687 87.1501 12.7579C87.3712 12.8474 87.5013 13.0665 87.4747 13.3035L87.2703 15.1085C87.2596 15.2011 87.1754 15.268 87.0835 15.2573C86.991 15.247 86.9241 15.1631 86.9347 15.0706L87.1391 13.2656C87.1541 13.1347 87.0546 13.0838 87.0236 13.0715C86.9927 13.0592 86.8861 13.0262 86.8056 13.1307L75.2158 28.1901C75.1825 28.2333 75.1326 28.256 75.082 28.256L75.0816 28.2556Z" fill="white"/>
<path opacity="0.75" d="M48.7893 44.0428C48.7567 44.0428 48.7237 44.0335 48.6951 44.0138C48.6179 43.9615 48.5972 43.8567 48.6495 43.7794L54.6435 34.8949C54.8665 34.5643 55.237 34.3849 55.6342 34.4155C56.0317 34.4458 56.3706 34.6788 56.541 35.039C56.581 35.1232 56.545 35.2241 56.4608 35.2641C56.3769 35.3043 56.2757 35.2681 56.2358 35.1838C56.1179 34.9348 55.8835 34.7737 55.6086 34.7527C55.3329 34.7311 55.0776 34.8559 54.9234 35.0843L48.9295 43.9689C48.8969 44.0171 48.8436 44.0434 48.7893 44.0434V44.0428Z" fill="white"/>
<path opacity="0.75" d="M47.2315 46.3507C47.1988 46.3507 47.1659 46.3414 47.1373 46.3218C47.06 46.2695 47.0394 46.1646 47.0916 46.0874L47.4762 45.5178C47.5284 45.4402 47.6336 45.4203 47.7105 45.4722C47.7878 45.5245 47.8084 45.6293 47.7561 45.7066L47.3716 46.2762C47.339 46.3244 47.2857 46.3507 47.2315 46.3507Z" fill="white"/>
<path d="M51.8801 59.5068C54.8915 58.0427 62.9046 52.5417 56.1156 37.4927C55.9229 37.0653 55.289 37.1692 55.2457 37.6359C55.042 39.8221 54.6029 43.6085 53.3309 45.6243C49.3903 51.8693 49.9349 56.7646 50.4669 58.8506C50.6243 59.4685 51.3071 59.7858 51.8804 59.5071L51.8801 59.5068Z" fill="#91B3FA"/>
<path d="M51.2689 59.4511C51.2206 59.4511 51.1717 59.4362 51.1301 59.4049C51.0282 59.3283 51.0079 59.1835 51.0845 59.0816C56.8281 51.4544 56.132 42.7599 56.1243 42.673C56.113 42.5459 56.2069 42.434 56.3337 42.4227C56.4612 42.4121 56.5727 42.5053 56.5841 42.6321C56.5921 42.723 56.7752 44.8935 56.2378 48.0551C55.7425 50.9714 54.5101 55.2998 51.4533 59.3589C51.408 59.4192 51.3388 59.4508 51.2689 59.4508V59.4511Z" fill="#BDD0FB"/>
<path d="M31.3671 56.812C29.5857 52.1583 21.9309 32.2382 18.7943 25.3641C18.4657 24.644 17.4324 24.6776 17.1494 25.417C15.1004 30.7765 11.0546 46.8508 30.8038 57.309C31.1311 57.4825 31.4996 57.1579 31.3671 56.812Z" fill="#BDD0FB"/>
<path d="M30.6598 56.9786C30.6016 56.9786 30.5437 56.957 30.4987 56.913C24.309 50.8791 21.1797 43.1244 19.6447 37.6817C17.9825 31.7883 17.7791 27.2538 17.7771 27.2089C17.7717 27.0814 17.8709 26.9742 17.9981 26.9689C18.1239 26.9652 18.2331 27.0624 18.2381 27.1899C18.2401 27.2345 18.4425 31.7247 20.0924 37.5686C21.6125 42.9533 24.7075 50.6231 30.821 56.5825C30.9122 56.6713 30.9142 56.8178 30.8253 56.909C30.78 56.9553 30.7201 56.9786 30.6602 56.9786H30.6598Z" fill="url(#paint22_linear_987_8012)"/>
<path d="M31.4666 64.1953H69.4968C71.9896 64.1953 73.8335 66.1558 73.2729 68.2092C70.8397 77.1214 67.9234 86.1637 61.9568 95.3426C60.8549 97.0381 58.7562 98.1011 56.4682 98.1011H44.0585C41.805 98.1011 39.737 97.0544 38.669 95.3766C33.8889 87.8666 29.2898 78.9144 27.019 68.7538C26.4907 66.3892 28.62 64.1956 31.4663 64.1956L31.4666 64.1953Z" fill="url(#paint23_linear_987_8012)"/>
<path d="M22.9552 61.5751L24.5641 66.8194C24.9866 68.1966 26.2483 69.1444 27.6888 69.1667L70.9355 69.8388C72.8308 69.8685 74.5339 68.6853 75.1678 66.899L76.7224 62.5176C77.4921 60.3484 75.9181 58.0603 73.6171 58.0054C62.8017 57.7461 36.1463 57.1815 25.7386 57.6365C23.7452 57.7238 22.37 59.6673 22.9552 61.5751Z" fill="url(#paint24_linear_987_8012)"/>
<path d="M27.5094 64.8744C26.9375 64.924 25.9447 65.0042 25.1621 65.0385C24.6917 65.0591 24.4207 65.0132 24.2649 64.9506C24.2649 64.9682 24.2656 64.9849 24.2662 65.0002C24.2699 65.0824 24.3368 65.1483 24.42 65.153C25.8988 65.2356 27.0749 65.1816 27.4934 65.156C27.58 65.1507 27.6316 65.0568 27.5873 64.9829C27.565 64.9459 27.5384 64.9096 27.5091 64.874L27.5094 64.8744Z" fill="url(#paint25_linear_987_8012)"/>
<path d="M25.1623 65.0387C25.9449 65.0044 26.9376 64.9238 27.5096 64.8746C26.9473 64.1848 25.1623 63.7197 25.1623 63.7197H24.6582C24.3113 64.2194 24.2614 64.6955 24.2651 64.9511C24.4212 65.0137 24.6919 65.0597 25.1623 65.039V65.0387Z" fill="url(#paint26_linear_987_8012)"/>
<path d="M24.574 62.8965L24.6212 63.8299C24.6262 63.9312 24.7021 64.016 24.8033 64.0304C24.9042 64.0447 25.039 64.0467 25.1822 63.9991C25.2701 63.9698 25.3357 63.8955 25.3516 63.8053L25.5148 62.8965H24.5743H24.574Z" fill="url(#paint27_linear_987_8012)"/>
<path d="M18.0253 65.0317C17.7773 64.9971 17.6651 64.8683 17.6178 64.7305C17.6178 64.7318 17.6172 64.7328 17.6168 64.7341C17.5802 64.8793 17.6648 65.0301 17.8342 65.1017C18.0386 65.1882 18.262 65.2029 18.4358 65.1959C18.6219 65.1882 18.793 65.1113 18.8869 64.9878L18.8882 64.9858C18.7014 65.0784 18.4391 65.089 18.0253 65.0314V65.0317Z" fill="url(#paint28_linear_987_8012)"/>
<path d="M19.1946 62.8907H18.7789C18.1457 62.8777 17.7478 64.2134 17.6177 64.7307C17.6646 64.8685 17.7768 64.9973 18.0252 65.032C18.439 65.0896 18.7013 65.0789 18.888 64.9864C19.2303 64.5363 19.3997 63.8768 19.4813 63.4919C19.5742 63.0542 19.1946 62.8907 19.1946 62.8907Z" fill="url(#paint29_linear_987_8012)"/>
<path d="M18.8324 62.0244L18.6017 62.9426C18.5734 63.0551 18.6273 63.1716 18.7312 63.2249C18.8604 63.2911 19.0421 63.3607 19.2093 63.3407C19.2878 63.3314 19.3531 63.2758 19.379 63.2019L19.7179 62.2358L18.8324 62.0244Z" fill="url(#paint30_linear_987_8012)"/>
<path d="M18.5571 62.2893C18.8444 62.5439 19.7786 62.5776 19.7786 62.5776C23.1436 54.5009 24.5201 53.3534 24.5201 53.3534C24.0341 56.4018 24.4419 63.1508 24.4419 63.1508C24.9972 63.3958 25.7133 63.1508 25.7133 63.1508C25.7582 58.1599 26.5256 53.8075 27.4317 50.3762C25.1573 50.325 23.9479 49.547 23.5527 49.2344C21.6568 52.2908 18.5571 62.2889 18.5571 62.2889V62.2893Z" fill="url(#paint31_linear_987_8012)"/>
<path d="M24.1303 39.9466C23.6999 42.0939 23.854 45.9373 23.9555 47.6903C23.9842 48.183 23.64 48.8662 23.362 49.3322C23.3184 49.4055 23.3453 49.499 23.4209 49.538C23.8863 49.7773 25.4633 50.5187 27.2909 50.6109C27.4128 50.6169 27.5216 50.534 27.5533 50.4162C28.9088 45.3543 30.4835 42.1198 30.4835 42.1198C28.7451 39.3437 24.1303 39.947 24.1303 39.947V39.9466Z" fill="url(#paint32_linear_987_8012)"/>
<path d="M24.7502 53.162C24.7313 53.162 24.7116 53.157 24.6943 53.1464C24.6434 53.1154 24.6274 53.0492 24.6584 52.9982C24.6763 52.9686 25.1118 52.2648 25.9926 51.8397C26.0462 51.8141 26.1105 51.8364 26.1365 51.89C26.1624 51.9436 26.1398 52.0082 26.0862 52.0338C25.2649 52.43 24.8464 53.1034 24.8424 53.1101C24.8221 53.1434 24.7865 53.1617 24.7502 53.1617V53.162Z" fill="url(#paint33_linear_987_8012)"/>
<path d="M21.4304 46.1094C21.5686 47.1097 21.9774 48.2007 22.7947 49.3598L23.1053 49.1065C23.1053 49.1065 22.7467 47.6514 22.9505 45.9998C22.4464 45.9016 21.8509 46.0028 21.4304 46.1094Z" fill="url(#paint34_linear_987_8012)"/>
<path d="M24.6111 42.5959L24.1304 39.9463C24.1304 39.9463 20.9175 42.4021 21.4302 46.109C21.8506 46.0028 22.4462 45.9013 22.9502 45.9995C23.097 44.81 23.5358 43.5184 24.6114 42.5955L24.6111 42.5959Z" fill="url(#paint35_linear_987_8012)"/>
<path d="M30.4827 42.1191L29.2427 44.79C29.4431 46.4023 30.3093 47.0997 31.2434 47.3671C31.3017 46.6323 31.4875 46.0384 31.6599 45.628C30.4664 44.3959 30.4827 42.1195 30.4827 42.1195V42.1191Z" fill="url(#paint36_linear_987_8012)"/>
<path d="M31.6599 45.6279C31.4874 46.0387 31.3017 46.6323 31.2434 47.367C33.7352 48.3338 34.3944 46.4589 34.3944 46.4589L33.9339 46.3776C32.894 46.4872 32.1676 46.1519 31.6599 45.6279Z" fill="url(#paint37_linear_987_8012)"/>
<path d="M29.341 38.8221L28.7425 41.0229C28.6752 41.2703 28.4079 41.4028 28.1699 41.3079C27.9132 41.2054 27.5873 41.0652 27.307 40.9137C27.0077 40.7523 26.9142 40.3671 27.1036 40.0845L28.3483 38.2285L29.3414 38.8221H29.341Z" fill="url(#paint38_linear_987_8012)"/>
<path d="M35.5369 44.9863L20.196 50.5698C19.5525 50.8038 19.2449 51.5366 19.5285 52.1598L19.5751 52.262C19.8258 52.8133 20.4776 53.0553 21.0276 52.8009L35.9234 45.9101L35.5369 44.9863Z" fill="url(#paint39_linear_987_8012)"/>
<path opacity="0.29" d="M42.5883 49.0633C46.7707 49.0633 50.1612 45.7339 50.1612 41.6269C50.1612 37.5198 46.7707 34.1904 42.5883 34.1904C38.4059 34.1904 35.0154 37.5198 35.0154 41.6269C35.0154 45.7339 38.4059 49.0633 42.5883 49.0633Z" fill="#91B3FA"/>
<path d="M42.5881 33.3525C37.9341 33.3525 34.1616 37.0571 34.1616 41.6272C34.1616 46.1974 37.9344 49.9019 42.5881 49.9019C47.2418 49.9019 51.0146 46.1974 51.0146 41.6272C51.0146 37.0571 47.2418 33.3525 42.5881 33.3525ZM42.5881 48.6865C38.6179 48.6865 35.3994 45.5259 35.3994 41.6272C35.3994 37.7286 38.6179 34.568 42.5881 34.568C46.5584 34.568 49.7769 37.7286 49.7769 41.6272C49.7769 45.5259 46.5584 48.6865 42.5881 48.6865Z" fill="url(#paint40_linear_987_8012)"/>
<path d="M34.8023 42.6519C34.7743 42.6519 34.75 42.6313 34.7467 42.6027C34.7217 42.4063 34.7041 42.2065 34.6944 42.0094C34.6928 41.9785 34.7167 41.9522 34.748 41.9505C34.777 41.9485 34.8053 41.9728 34.8069 42.0041C34.8166 42.1985 34.8339 42.3949 34.8585 42.5887C34.8625 42.6196 34.8406 42.6476 34.8099 42.6516C34.8076 42.6516 34.8049 42.6519 34.8026 42.6519H34.8023ZM34.8605 40.3382C34.8572 40.3382 34.8539 40.3382 34.8506 40.3372C34.8199 40.3316 34.7996 40.3026 34.8049 40.272C34.9005 39.7397 35.0533 39.2164 35.2594 38.7163C36.4741 35.7691 39.3508 33.8652 42.5883 33.8652C44.0977 33.8652 45.5651 34.2847 46.8322 35.078C46.8584 35.0947 46.8664 35.1293 46.8501 35.1556C46.8335 35.1819 46.7989 35.1899 46.7726 35.1736C45.5235 34.3912 44.0767 33.9778 42.5883 33.9778C39.3967 33.9778 36.5607 35.8547 35.3636 38.7593C35.1605 39.252 35.0097 39.7676 34.9158 40.292C34.9108 40.3193 34.8872 40.3382 34.8605 40.3382Z" fill="#91B3FA"/>
<path d="M30.6499 37.1501C30.6553 37.1881 30.1506 39.6616 30.1506 39.6616L28.7444 39.3433L28.8746 36.9278C28.8746 36.9278 30.5587 36.5173 30.6503 37.1501H30.6499Z" fill="url(#paint41_linear_987_8012)"/>
<path d="M29.1902 37.4657L29.0221 38.732C29.0201 38.7483 29.0201 38.7643 29.0221 38.7806C29.0364 38.8798 29.11 39.2177 29.4512 39.1212C29.7608 39.0336 30.0444 38.9581 30.2405 39.018C30.3284 39.045 30.3817 39.1342 30.3634 39.2244C30.3174 39.4491 30.2046 39.9538 30.0398 40.3769C30.0062 40.4628 29.9123 40.5081 29.8237 40.4821C29.5571 40.4042 28.9991 40.2248 28.584 39.9748C28.5277 39.9408 28.4941 39.8799 28.4971 39.8143C28.5108 39.4947 28.548 38.523 28.5164 38.2507C28.4868 37.995 28.1732 37.8418 28.0367 37.7869C27.9921 37.7689 27.9568 37.7337 27.9392 37.689C27.8759 37.5309 27.789 37.1647 28.2504 37.0146C28.347 36.9833 28.3979 36.8791 28.3636 36.7835C28.2954 36.5935 28.2664 36.3032 28.6233 36.143C28.9861 35.9806 29.2568 36.174 29.4033 36.3311C29.4625 36.3947 29.5574 36.4044 29.6306 36.3581C29.6723 36.3318 29.7262 36.3231 29.7914 36.3634C29.879 36.418 29.9952 36.3807 30.0405 36.2878C30.1273 36.1094 30.3044 35.9187 30.6597 35.9792C31.2898 36.0871 31.3611 36.7855 31.195 37.1947C31.0289 37.6038 30.3521 37.448 30.0128 37.2416C29.7548 37.0848 29.4199 37.2493 29.2744 37.3368C29.2282 37.3648 29.1979 37.4121 29.1905 37.4653L29.1902 37.4657Z" fill="url(#paint42_linear_987_8012)"/>
<path d="M28.4603 38.7124C28.4603 38.7124 28.7193 37.987 28.4533 37.8093C28.1873 37.6315 27.7928 37.7237 27.8797 38.2494C27.9875 38.9032 28.4603 38.7124 28.4603 38.7124Z" fill="url(#paint43_linear_987_8012)"/>
<path d="M22.9764 49.0625L24.4265 48.9443L25.0547 49.5233C25.0547 49.5233 24.9062 49.7287 24.4415 49.6105C23.9771 49.4923 23.3406 49.4633 23.3406 49.4633C23.3406 49.4633 22.6994 49.7523 22.6914 49.2113L22.9764 49.0622V49.0625Z" fill="url(#paint44_linear_987_8012)"/>
<path d="M34.2099 46.8012C34.3354 46.899 34.7648 46.6946 35.0278 46.5531C35.156 46.4842 35.2179 46.3344 35.1739 46.1956C35.1107 45.9962 35.0052 45.7385 34.8753 45.7059C34.6599 45.652 33.6929 46.3973 34.2095 46.8008L34.2099 46.8012Z" fill="url(#paint45_linear_987_8012)"/>
<path d="M20.4985 52.5863C20.4925 52.5863 20.4862 52.5853 20.4802 52.5833C19.881 52.3762 19.7418 52.0223 19.7305 51.7616C19.7142 51.3811 19.9532 51.0279 20.3254 50.8824L22.1674 50.164C22.1964 50.1527 22.229 50.167 22.2403 50.196C22.2516 50.225 22.2373 50.2576 22.2083 50.2689L20.3664 50.9873C20.0391 51.1151 19.8287 51.4241 19.843 51.7567C19.8574 52.0846 20.0841 52.3269 20.5168 52.4764C20.5465 52.4867 20.5618 52.5187 20.5518 52.548C20.5438 52.5713 20.5218 52.5859 20.4985 52.5859V52.5863Z" fill="#91B3FA"/>
<path d="M22.7555 50.0518C22.7328 50.0518 22.7118 50.0381 22.7029 50.0158C22.6915 49.9869 22.7058 49.9543 22.7348 49.9429L22.9735 49.8497C23.0025 49.8381 23.0351 49.8527 23.0464 49.8817C23.0577 49.9106 23.0434 49.9433 23.0145 49.9546L22.7758 50.0478C22.7691 50.0505 22.7621 50.0518 22.7555 50.0518Z" fill="#91B3FA"/>
<path d="M28.9969 98.1355C28.8481 98.1355 28.7275 98.015 28.7275 97.8662V65.6609C28.7275 65.5121 28.8481 65.3916 28.9969 65.3916C29.1457 65.3916 29.2662 65.5121 29.2662 65.6609V97.8662C29.2662 98.015 29.1457 98.1355 28.9969 98.1355Z" fill="#7D97F4"/>
<path d="M21.6946 98.1355C21.5458 98.1355 21.4253 98.015 21.4253 97.8662V65.6609C21.4253 65.5121 21.5458 65.3916 21.6946 65.3916C21.8434 65.3916 21.9639 65.5121 21.9639 65.6609V97.8662C21.9639 98.015 21.8434 98.1355 21.6946 98.1355Z" fill="#7D97F4"/>
<path d="M3.75605 98.3395C3.72077 98.3395 3.68515 98.3325 3.65086 98.3179C3.51403 98.2596 3.45011 98.1015 3.50837 97.9643L17.2863 65.5547C17.3446 65.4178 17.5031 65.3539 17.6395 65.4122C17.7764 65.4704 17.8403 65.6286 17.782 65.7657L4.00407 98.1754C3.96046 98.2779 3.86092 98.3395 3.75605 98.3395Z" fill="#7D97F4"/>
<path d="M12.2673 98.3395C12.232 98.3395 12.1964 98.3325 12.1621 98.3179C12.0253 98.2596 11.9613 98.1015 12.0196 97.9643L25.7976 65.5547C25.8558 65.4178 26.0143 65.3539 26.1508 65.4122C26.2876 65.4704 26.3515 65.6286 26.2933 65.7657L12.5153 98.1754C12.4717 98.2779 12.3721 98.3395 12.2673 98.3395Z" fill="#7D97F4"/>
<path d="M29.685 65.1973H16.5236C16.4631 65.1973 16.4141 65.2463 16.4141 65.3068V65.8471C16.4141 65.9076 16.4631 65.9566 16.5236 65.9566H29.685C29.7455 65.9566 29.7945 65.9076 29.7945 65.8471V65.3068C29.7945 65.2463 29.7455 65.1973 29.685 65.1973Z" fill="#7D97F4"/>
<path d="M23.9635 70.8853H15.4278C15.279 70.8853 15.1584 70.7648 15.1584 70.616C15.1584 70.4672 15.279 70.3467 15.4278 70.3467H23.9635C24.1123 70.3467 24.2328 70.4672 24.2328 70.616C24.2328 70.7648 24.1123 70.8853 23.9635 70.8853Z" fill="#7D97F4"/>
<path d="M21.344 76.4766H12.8083V77.0155H21.344V76.4766Z" fill="#7D97F4"/>
<path d="M18.8089 82.6055H10.2732V83.1444H18.8089V82.6055Z" fill="#7D97F4"/>
<path d="M16.1497 89.274H7.61405C7.46524 89.274 7.34473 89.1535 7.34473 89.0047C7.34473 88.8559 7.46524 88.7354 7.61405 88.7354H16.1497C16.2986 88.7354 16.4191 88.8559 16.4191 89.0047C16.4191 89.1535 16.2986 89.274 16.1497 89.274Z" fill="#7D97F4"/>
<path d="M13.5792 95.4039H5.04349C4.89468 95.4039 4.77417 95.2834 4.77417 95.1346C4.77417 94.9857 4.89468 94.8652 5.04349 94.8652H13.5792C13.728 94.8652 13.8485 94.9857 13.8485 95.1346C13.8485 95.2834 13.728 95.4039 13.5792 95.4039Z" fill="#7D97F4"/>
<path d="M51.9377 86.374L52.2384 95.7247C52.2906 97.3552 53.6289 98.6526 55.2678 98.6622L77.6594 98.7941C78.7546 98.8004 79.6881 98.0047 79.8479 96.9261C80.1981 94.5648 80.6442 90.3396 80.1418 86.374H51.9377Z" fill="url(#paint46_linear_987_8012)"/>
<path d="M76.5735 98.2471L76.2356 98.2451C76.2046 98.2451 76.1793 98.2194 76.1796 98.1885C76.1796 98.1575 76.2049 98.1325 76.2359 98.1325L76.5738 98.1345C76.6048 98.1345 76.6301 98.1602 76.6297 98.1911C76.6297 98.2221 76.6044 98.2471 76.5735 98.2471ZM75.4476 98.2401L75.1097 98.2381C75.0787 98.2381 75.0534 98.2124 75.0537 98.1815C75.0537 98.1505 75.079 98.1255 75.11 98.1255L75.4479 98.1275C75.4789 98.1275 75.5042 98.1532 75.5038 98.1841C75.5038 98.2151 75.4785 98.2401 75.4476 98.2401ZM77.3611 98.2357C77.3328 98.2357 77.3085 98.2148 77.3052 98.1858C77.3015 98.1548 77.3238 98.1269 77.3548 98.1232C77.4633 98.1106 77.5715 98.0889 77.6767 98.059C77.707 98.0496 77.7376 98.0676 77.7463 98.0976C77.7549 98.1275 77.7376 98.1585 77.7077 98.1671C77.5968 98.1988 77.4823 98.2217 77.3678 98.2351C77.3654 98.2351 77.3634 98.2351 77.3611 98.2351V98.2357ZM74.3214 98.2337L73.9835 98.2317C73.9525 98.2317 73.9272 98.2061 73.9275 98.1751C73.9275 98.1438 73.9528 98.1235 73.9841 98.1192L74.322 98.1212C74.353 98.1212 74.3783 98.1468 74.3779 98.1778C74.3779 98.2088 74.3526 98.2337 74.3217 98.2337H74.3214ZM73.1948 98.2271L72.8569 98.2251C72.8259 98.2251 72.8006 98.1994 72.801 98.1685C72.801 98.1375 72.8263 98.1126 72.8572 98.1126L73.1951 98.1146C73.2261 98.1146 73.2514 98.1402 73.2511 98.1711C73.2511 98.2021 73.2258 98.2271 73.1948 98.2271ZM72.0689 98.2204L71.731 98.2184C71.7001 98.2184 71.6748 98.1928 71.6751 98.1618C71.6751 98.1309 71.7004 98.1059 71.7313 98.1059L72.0692 98.1079C72.1002 98.1079 72.1255 98.1335 72.1252 98.1645C72.1252 98.1955 72.0999 98.2204 72.0689 98.2204ZM70.943 98.2138L70.6051 98.2118C70.5742 98.2118 70.5489 98.1861 70.5492 98.1552C70.5492 98.1242 70.5745 98.0992 70.6055 98.0992L70.9434 98.1012C70.9743 98.1012 70.9996 98.1269 70.9993 98.1578C70.9993 98.1888 70.974 98.2138 70.943 98.2138ZM69.8168 98.2071L69.4789 98.2051C69.448 98.2051 69.4227 98.1795 69.423 98.1485C69.423 98.1176 69.4483 98.0926 69.4792 98.0926L69.8171 98.0946C69.8481 98.0946 69.8734 98.1202 69.8731 98.1512C69.8731 98.1821 69.8478 98.2071 69.8168 98.2071ZM68.6903 98.2004L68.3524 98.1984C68.3214 98.1984 68.2961 98.1728 68.2964 98.1418C68.2964 98.1109 68.3217 98.0859 68.3527 98.0859L68.6906 98.0879C68.7216 98.0879 68.7469 98.1136 68.7465 98.1445C68.7465 98.1755 68.7212 98.2004 68.6903 98.2004ZM67.5644 98.1938L67.2265 98.1918C67.1955 98.1918 67.1702 98.1662 67.1705 98.1352C67.1705 98.1042 67.1958 98.0793 67.2268 98.0793L67.5647 98.0813C67.5957 98.0813 67.621 98.1069 67.6206 98.1379C67.6206 98.1688 67.5953 98.1938 67.5644 98.1938ZM66.4382 98.1871L66.1003 98.1851C66.0693 98.1851 66.044 98.1595 66.0443 98.1285C66.0443 98.0976 66.0696 98.0726 66.1006 98.0726L66.4385 98.0746C66.4694 98.0746 66.4947 98.1002 66.4944 98.1312C66.4944 98.1622 66.4691 98.1871 66.4382 98.1871ZM65.3123 98.1805L64.9744 98.1785C64.9434 98.1785 64.9181 98.1528 64.9184 98.1219C64.9184 98.0909 64.9437 98.0659 64.9747 98.0659L65.3126 98.0679C65.3436 98.0679 65.3689 98.0936 65.3685 98.1245C65.3685 98.1555 65.3432 98.1805 65.3123 98.1805ZM64.186 98.1738L63.8481 98.1718C63.8172 98.1718 63.7919 98.1462 63.7922 98.1152C63.7922 98.0843 63.8175 98.0593 63.8485 98.0593H63.8488L64.1867 98.0613C64.2177 98.0613 64.243 98.0869 64.2426 98.1179C64.2426 98.1488 64.2173 98.1738 64.1864 98.1738H64.186ZM63.0598 98.1671L62.7219 98.1652C62.691 98.1652 62.6657 98.1395 62.666 98.1086C62.666 98.0776 62.6913 98.0526 62.7223 98.0526L63.0602 98.0546C63.0911 98.0546 63.1164 98.0803 63.1161 98.1112C63.1161 98.1422 63.0908 98.1671 63.0598 98.1671ZM61.9336 98.1605L61.5957 98.1585C61.5648 98.1585 61.5394 98.1329 61.5398 98.1019C61.5398 98.0709 61.5651 98.046 61.596 98.046L61.9339 98.048C61.9649 98.048 61.9902 98.0736 61.9899 98.1046C61.9899 98.1355 61.9646 98.1605 61.9336 98.1605ZM60.8077 98.1538L60.4698 98.1518C60.4389 98.1518 60.4136 98.1262 60.4139 98.0952C60.4139 98.0643 60.4392 98.0393 60.4702 98.0393L60.8081 98.0413C60.839 98.0413 60.8643 98.067 60.864 98.0979C60.864 98.1289 60.8387 98.1538 60.8077 98.1538ZM59.6815 98.1472L59.3436 98.1452C59.3126 98.1452 59.2873 98.1195 59.2877 98.0886C59.288 98.0576 59.3146 98.0303 59.3443 98.0327L59.6822 98.0347C59.7131 98.0347 59.7384 98.0603 59.7381 98.0912C59.7381 98.1222 59.7128 98.1472 59.6818 98.1472H59.6815ZM58.5549 98.1408L58.2171 98.1389C58.1861 98.1389 58.1608 98.1132 58.1611 98.0823C58.1611 98.0513 58.1864 98.0263 58.2174 98.0263L58.5553 98.0283C58.5862 98.0283 58.6115 98.054 58.6112 98.0849C58.6112 98.1159 58.5859 98.1408 58.5549 98.1408ZM57.4291 98.1342L57.0912 98.1322C57.0602 98.1322 57.0349 98.1066 57.0352 98.0756C57.0352 98.0446 57.0605 98.0197 57.0915 98.0197L57.4294 98.0217C57.4604 98.0217 57.4857 98.0473 57.4853 98.0783C57.4853 98.1092 57.46 98.1342 57.4291 98.1342ZM56.3028 98.1275L55.9649 98.1255C55.934 98.1255 55.9087 98.0999 55.909 98.0689C55.909 98.038 55.9343 98.013 55.9653 98.013L56.3032 98.015C56.3341 98.015 56.3594 98.0407 56.3591 98.0716C56.3591 98.1026 56.3338 98.1275 56.3028 98.1275ZM55.182 98.0563C55.178 98.0563 55.174 98.056 55.17 98.055C55.0584 98.0303 54.9469 97.999 54.8387 97.9618C54.8094 97.9514 54.7938 97.9195 54.8041 97.8902C54.8144 97.8609 54.8464 97.8456 54.8757 97.8556C54.9795 97.8915 55.0867 97.9218 55.1943 97.9454C55.2246 97.9521 55.2439 97.9821 55.2372 98.0127C55.2316 98.039 55.2083 98.057 55.1823 98.057L55.182 98.0563ZM78.3921 97.8179C78.3751 97.8179 78.3585 97.8103 78.3475 97.796C78.3285 97.7713 78.3332 97.736 78.3578 97.7171C78.4444 97.6505 78.5266 97.5766 78.6015 97.497C78.6225 97.4744 78.6584 97.473 78.6811 97.4947C78.7037 97.516 78.7047 97.5516 78.6834 97.5743C78.6042 97.6581 78.5176 97.7364 78.4261 97.8063C78.4161 97.8143 78.4038 97.8179 78.3918 97.8179H78.3921ZM54.1566 97.6092C54.1456 97.6092 54.1343 97.6059 54.1246 97.5992C54.0308 97.5343 53.9395 97.4631 53.8537 97.3875C53.8304 97.3668 53.828 97.3312 53.8483 97.3079C53.869 97.2846 53.9046 97.2823 53.9279 97.3026C54.0108 97.3755 54.0983 97.4441 54.1886 97.5063C54.2142 97.524 54.2205 97.5593 54.2029 97.5846C54.1919 97.6005 54.1742 97.6089 54.1566 97.6089V97.6092ZM79.0633 96.9307C79.0563 96.9307 79.0493 96.9294 79.0426 96.9267C79.0137 96.9154 78.9993 96.8828 79.011 96.8538C79.0509 96.7526 79.0829 96.6471 79.1062 96.5396C79.1129 96.5093 79.1428 96.49 79.1731 96.4966C79.2034 96.5033 79.2227 96.5333 79.2161 96.5635C79.1914 96.6767 79.1578 96.7883 79.1155 96.8951C79.1069 96.9171 79.0856 96.9307 79.0633 96.9307ZM53.3759 96.8076C53.3576 96.8076 53.3397 96.7986 53.3287 96.7819C53.2664 96.6867 53.2088 96.5862 53.1576 96.483C53.1439 96.455 53.1552 96.4214 53.1829 96.4074C53.2105 96.3938 53.2444 96.4048 53.2584 96.4327C53.3077 96.5319 53.363 96.6285 53.4229 96.72C53.4399 96.746 53.4325 96.7809 53.4066 96.7979C53.3972 96.8039 53.3866 96.8069 53.3759 96.8069V96.8076ZM79.277 95.8282C79.2743 95.8282 79.272 95.8282 79.2693 95.8275C79.2387 95.8235 79.2167 95.7952 79.2211 95.7642C79.2357 95.6554 79.2504 95.5439 79.2647 95.4297C79.2687 95.3987 79.2976 95.3767 79.3276 95.3807C79.3582 95.3847 79.3802 95.4127 79.3765 95.4437C79.3622 95.5582 79.3476 95.6704 79.3329 95.7792C79.3293 95.8075 79.3049 95.8282 79.2773 95.8282H79.277ZM52.9585 95.7696C52.9318 95.7696 52.9082 95.7506 52.9032 95.7236C52.8822 95.6111 52.8676 95.4963 52.8596 95.3824C52.8576 95.3514 52.8809 95.3245 52.9119 95.3225C52.9422 95.3198 52.9698 95.3438 52.9718 95.3747C52.9791 95.4843 52.9934 95.5948 53.0137 95.703C53.0194 95.7336 52.9994 95.7629 52.9688 95.7686C52.9651 95.7692 52.9618 95.7696 52.9585 95.7696ZM79.4131 94.7099C79.4111 94.7099 79.4088 94.7099 79.4068 94.7099C79.3759 94.7066 79.3536 94.6786 79.3569 94.6477C79.3689 94.5375 79.3808 94.4256 79.3928 94.3121C79.3962 94.2812 79.4235 94.2582 79.4548 94.2618C79.4857 94.2652 79.508 94.2925 79.505 94.3238C79.4934 94.4376 79.4814 94.5498 79.4691 94.66C79.4657 94.689 79.4414 94.7103 79.4131 94.7103V94.7099ZM52.8889 94.6467C52.8586 94.6467 52.8336 94.6227 52.8326 94.5921L52.8217 94.2542C52.8207 94.2232 52.845 94.1973 52.8763 94.1963H52.8782C52.9085 94.1963 52.9335 94.2202 52.9345 94.2509L52.9455 94.5887C52.9465 94.6197 52.9222 94.6457 52.8909 94.6467H52.8892H52.8889ZM79.5233 93.589C79.5233 93.589 79.52 93.589 79.5183 93.589C79.4874 93.5864 79.4644 93.5591 79.4671 93.5281C79.4767 93.4173 79.4857 93.3051 79.4947 93.1919C79.497 93.1609 79.524 93.1369 79.5553 93.1403C79.5863 93.1426 79.6096 93.1699 79.6069 93.2009C79.5979 93.3144 79.5886 93.4269 79.5793 93.5381C79.5766 93.5674 79.552 93.5897 79.5233 93.5897V93.589ZM52.8526 93.5215C52.8223 93.5215 52.7974 93.4975 52.7964 93.4669L52.7854 93.1293C52.7844 93.0983 52.8087 93.072 52.84 93.071C52.8763 93.0727 52.8969 93.0943 52.8982 93.1256L52.9092 93.4635C52.9102 93.4945 52.8859 93.5208 52.8546 93.5218H52.8529L52.8526 93.5215ZM79.6056 92.4658C79.6056 92.4658 79.6032 92.4658 79.6019 92.4658C79.5709 92.4638 79.5473 92.4372 79.549 92.4062C79.5556 92.2947 79.5619 92.1825 79.5679 92.0693C79.5696 92.0384 79.5966 92.0141 79.6272 92.0161C79.6582 92.0177 79.6821 92.0444 79.6805 92.0753C79.6745 92.1885 79.6681 92.3014 79.6615 92.4132C79.6598 92.4432 79.6349 92.4661 79.6056 92.4661V92.4658ZM52.8163 92.3956C52.786 92.3956 52.7611 92.3716 52.7601 92.341L52.7491 92.0031C52.7481 91.9721 52.7724 91.9461 52.8037 91.9452C52.833 91.9452 52.8606 91.9688 52.8616 91.9997L52.8726 92.3373C52.8736 92.3683 52.8493 92.3946 52.818 92.3956H52.816H52.8163ZM79.6585 91.3406H79.6565C79.6255 91.3396 79.6009 91.3136 79.6019 91.2823C79.6056 91.1705 79.6089 91.058 79.6119 90.9451C79.6129 90.9141 79.6405 90.8925 79.6695 90.8902C79.7004 90.8908 79.7251 90.9168 79.7244 90.9478C79.7214 91.061 79.7181 91.1738 79.7144 91.286C79.7134 91.3166 79.6885 91.3406 79.6582 91.3406H79.6585ZM52.7804 91.27C52.7501 91.27 52.7251 91.2461 52.7241 91.2154L52.7131 90.8775C52.7121 90.8466 52.7364 90.8206 52.7677 90.8196C52.7964 90.8183 52.8246 90.8429 52.8256 90.8742L52.8366 91.2121C52.8376 91.2431 52.8133 91.269 52.782 91.27H52.78H52.7804ZM79.6795 90.215C79.6485 90.215 79.6232 90.1897 79.6232 90.1588V90.0273L79.6229 89.8212C79.6229 89.7903 79.6478 89.765 79.6788 89.7646C79.7098 89.7646 79.7351 89.7896 79.7351 89.8205L79.7357 90.0269V90.1584C79.7357 90.1894 79.7101 90.2147 79.6791 90.2147L79.6795 90.215ZM52.7441 90.1445C52.7138 90.1445 52.6888 90.1205 52.6878 90.0899L52.6768 89.7523C52.6758 89.7213 52.7001 89.695 52.7314 89.694C52.7654 89.691 52.7887 89.7173 52.7897 89.7486L52.8007 90.0865C52.8017 90.1175 52.7774 90.1438 52.7461 90.1448H52.7444L52.7441 90.1445ZM79.6655 89.0892C79.6352 89.0892 79.6102 89.0652 79.6092 89.0346C79.6059 88.9224 79.6022 88.8102 79.5976 88.6973C79.5962 88.6664 79.6205 88.6401 79.6518 88.6387C79.6851 88.6377 79.7091 88.6617 79.7104 88.693C79.7151 88.8059 79.7188 88.9187 79.7221 89.0312C79.7231 89.0622 79.6984 89.0882 79.6675 89.0892H79.6658H79.6655ZM52.7078 89.0189C52.6775 89.0189 52.6525 88.9949 52.6515 88.9643L52.6406 88.6264C52.6396 88.5955 52.6639 88.5692 52.6952 88.5682H52.6971C52.7274 88.5682 52.7524 88.5921 52.7534 88.6228L52.7644 88.9603C52.7654 88.9913 52.7411 89.0176 52.7098 89.0186H52.7081L52.7078 89.0189ZM79.6119 87.9643C79.5826 87.9643 79.5576 87.9416 79.556 87.9117C79.5486 87.7995 79.5403 87.6876 79.5317 87.5751C79.5293 87.5441 79.5523 87.5172 79.5833 87.5145C79.6139 87.5112 79.6412 87.5352 79.6438 87.5661C79.6528 87.679 79.6608 87.7915 79.6685 87.904C79.6705 87.935 79.6472 87.9619 79.6159 87.9639C79.6146 87.9639 79.6132 87.9639 79.6119 87.9639V87.9643ZM52.6718 87.8934C52.6416 87.8934 52.6166 87.8694 52.6156 87.8388L52.6046 87.5009C52.6036 87.4699 52.6279 87.4439 52.6592 87.4429C52.6915 87.4429 52.7161 87.4662 52.7171 87.4975L52.7281 87.8354C52.7291 87.8664 52.7048 87.8924 52.6735 87.8934H52.6715H52.6718ZM79.514 86.8424C79.4857 86.8424 79.4614 86.8211 79.4581 86.7921C79.4458 86.6803 79.4331 86.5687 79.4191 86.4572C79.4151 86.4262 79.4371 86.3983 79.4681 86.3943C79.498 86.39 79.527 86.4123 79.531 86.4432C79.545 86.5554 79.558 86.6673 79.5703 86.7798C79.5736 86.8108 79.5513 86.8384 79.5203 86.8417C79.5183 86.8417 79.5163 86.8417 79.5143 86.8417L79.514 86.8424ZM52.6356 86.7678C52.6053 86.7678 52.5803 86.7438 52.5793 86.7132L52.5667 86.3174H52.8529C52.8839 86.3174 52.9092 86.3427 52.9092 86.3736C52.9092 86.4046 52.8839 86.4299 52.8529 86.4299H52.6832L52.6922 86.7095C52.6932 86.7405 52.6688 86.7665 52.6376 86.7675H52.6356V86.7678ZM78.7547 86.4302H78.4168C78.3858 86.4302 78.3605 86.4049 78.3605 86.374C78.3605 86.343 78.3858 86.3177 78.4168 86.3177H78.7547C78.7856 86.3177 78.8109 86.343 78.8109 86.374C78.8109 86.4049 78.7856 86.4302 78.7547 86.4302ZM77.6284 86.4302H77.2905C77.2596 86.4302 77.2343 86.4049 77.2343 86.374C77.2343 86.343 77.2596 86.3177 77.2905 86.3177H77.6284C77.6594 86.3177 77.6847 86.343 77.6847 86.374C77.6847 86.4049 77.6594 86.4302 77.6284 86.4302ZM76.5022 86.4302H76.1643C76.1334 86.4302 76.1081 86.4049 76.1081 86.374C76.1081 86.343 76.1334 86.3177 76.1643 86.3177H76.5022C76.5332 86.3177 76.5585 86.343 76.5585 86.374C76.5585 86.4049 76.5332 86.4302 76.5022 86.4302ZM75.376 86.4302H75.0381C75.0071 86.4302 74.9818 86.4049 74.9818 86.374C74.9818 86.343 75.0071 86.3177 75.0381 86.3177H75.376C75.407 86.3177 75.4323 86.343 75.4323 86.374C75.4323 86.4049 75.407 86.4302 75.376 86.4302ZM74.2498 86.4302H73.9119C73.8809 86.4302 73.8556 86.4049 73.8556 86.374C73.8556 86.343 73.8809 86.3177 73.9119 86.3177H74.2498C74.2807 86.3177 74.306 86.343 74.306 86.374C74.306 86.4049 74.2807 86.4302 74.2498 86.4302ZM73.1236 86.4302H72.7857C72.7547 86.4302 72.7294 86.4049 72.7294 86.374C72.7294 86.343 72.7547 86.3177 72.7857 86.3177H73.1236C73.1545 86.3177 73.1798 86.343 73.1798 86.374C73.1798 86.4049 73.1545 86.4302 73.1236 86.4302ZM71.9977 86.4302H71.6598C71.6288 86.4302 71.6035 86.4049 71.6035 86.374C71.6035 86.343 71.6288 86.3177 71.6598 86.3177H71.9977C72.0286 86.3177 72.0539 86.343 72.0539 86.374C72.0539 86.4049 72.0286 86.4302 71.9977 86.4302ZM70.8715 86.4302H70.5336C70.5026 86.4302 70.4773 86.4049 70.4773 86.374C70.4773 86.343 70.5026 86.3177 70.5336 86.3177H70.8715C70.9024 86.3177 70.9277 86.343 70.9277 86.374C70.9277 86.4049 70.9024 86.4302 70.8715 86.4302ZM69.7452 86.4302H69.4073C69.3764 86.4302 69.3511 86.4049 69.3511 86.374C69.3511 86.343 69.3764 86.3177 69.4073 86.3177H69.7452C69.7762 86.3177 69.8015 86.343 69.8015 86.374C69.8015 86.4049 69.7762 86.4302 69.7452 86.4302ZM68.619 86.4302H68.2811C68.2502 86.4302 68.2249 86.4049 68.2249 86.374C68.2249 86.343 68.2502 86.3177 68.2811 86.3177H68.619C68.65 86.3177 68.6753 86.343 68.6753 86.374C68.6753 86.4049 68.65 86.4302 68.619 86.4302ZM67.4928 86.4302H67.1549C67.1239 86.4302 67.0986 86.4049 67.0986 86.374C67.0986 86.343 67.1239 86.3177 67.1549 86.3177H67.4928C67.5238 86.3177 67.5491 86.343 67.5491 86.374C67.5491 86.4049 67.5238 86.4302 67.4928 86.4302ZM66.3666 86.4302H66.0287C65.9977 86.4302 65.9724 86.4049 65.9724 86.374C65.9724 86.343 65.9977 86.3177 66.0287 86.3177H66.3666C66.3975 86.3177 66.4228 86.343 66.4228 86.374C66.4228 86.4049 66.3975 86.4302 66.3666 86.4302ZM65.2407 86.4302H64.9028C64.8718 86.4302 64.8465 86.4049 64.8465 86.374C64.8465 86.343 64.8718 86.3177 64.9028 86.3177H65.2407C65.2717 86.3177 65.297 86.343 65.297 86.374C65.297 86.4049 65.2717 86.4302 65.2407 86.4302ZM64.1145 86.4302H63.7766C63.7456 86.4302 63.7203 86.4049 63.7203 86.374C63.7203 86.343 63.7456 86.3177 63.7766 86.3177H64.1145C64.1454 86.3177 64.1707 86.343 64.1707 86.374C64.1707 86.4049 64.1454 86.4302 64.1145 86.4302ZM62.9883 86.4302H62.6504C62.6194 86.4302 62.5941 86.4049 62.5941 86.374C62.5941 86.343 62.6194 86.3177 62.6504 86.3177H62.9883C63.0192 86.3177 63.0445 86.343 63.0445 86.374C63.0445 86.4049 63.0192 86.4302 62.9883 86.4302ZM61.862 86.4302H61.5241C61.4932 86.4302 61.4679 86.4049 61.4679 86.374C61.4679 86.343 61.4932 86.3177 61.5241 86.3177H61.862C61.893 86.3177 61.9183 86.343 61.9183 86.374C61.9183 86.4049 61.893 86.4302 61.862 86.4302ZM60.7358 86.4302H60.3979C60.367 86.4302 60.3417 86.4049 60.3417 86.374C60.3417 86.343 60.367 86.3177 60.3979 86.3177H60.7358C60.7668 86.3177 60.7921 86.343 60.7921 86.374C60.7921 86.4049 60.7668 86.4302 60.7358 86.4302ZM59.6096 86.4302H59.2717C59.2407 86.4302 59.2154 86.4049 59.2154 86.374C59.2154 86.343 59.2407 86.3177 59.2717 86.3177H59.6096C59.6406 86.3177 59.6659 86.343 59.6659 86.374C59.6659 86.4049 59.6406 86.4302 59.6096 86.4302ZM58.4837 86.4302H58.1458C58.1149 86.4302 58.0895 86.4049 58.0895 86.374C58.0895 86.343 58.1149 86.3177 58.1458 86.3177H58.4837C58.5147 86.3177 58.54 86.343 58.54 86.374C58.54 86.4049 58.5147 86.4302 58.4837 86.4302ZM57.3575 86.4302H57.0196C56.9886 86.4302 56.9633 86.4049 56.9633 86.374C56.9633 86.343 56.9886 86.3177 57.0196 86.3177H57.3575C57.3885 86.3177 57.4138 86.343 57.4138 86.374C57.4138 86.4049 57.3885 86.4302 57.3575 86.4302ZM56.2313 86.4302H55.8934C55.8624 86.4302 55.8371 86.4049 55.8371 86.374C55.8371 86.343 55.8624 86.3177 55.8934 86.3177H56.2313C56.2622 86.3177 56.2875 86.343 56.2875 86.374C56.2875 86.4049 56.2622 86.4302 56.2313 86.4302ZM55.1051 86.4302H54.7672C54.7362 86.4302 54.7109 86.4049 54.7109 86.374C54.7109 86.343 54.7362 86.3177 54.7672 86.3177H55.1051C55.136 86.3177 55.1613 86.343 55.1613 86.374C55.1613 86.4049 55.136 86.4302 55.1051 86.4302ZM53.9788 86.4302H53.6409C53.61 86.4302 53.5847 86.4049 53.5847 86.374C53.5847 86.343 53.61 86.3177 53.6409 86.3177H53.9788C54.0098 86.3177 54.0351 86.343 54.0351 86.374C54.0351 86.4049 54.0098 86.4302 53.9788 86.4302Z" fill="white"/>
<path d="M58.5 79.5855L58.5672 78.8644C58.6431 78.6923 58.8013 78.5705 58.9877 78.5408C59.6851 78.4296 61.4153 78.2346 62.2485 78.8571L62.373 79.695L58.5 79.5855Z" fill="url(#paint47_linear_987_8012)"/>
<path d="M60.6788 78.8922C60.5184 78.9314 60.3572 78.9311 60.1961 78.8915C60.001 78.8436 59.8635 78.6691 59.8635 78.469V76.2109H61.0127V78.4674C61.0127 78.6681 60.8749 78.8442 60.6788 78.8922Z" fill="url(#paint48_linear_987_8012)"/>
<path d="M69.6306 79.5855L69.6979 78.8644C69.7738 78.6923 69.9319 78.5705 70.1183 78.5408C70.8158 78.4296 72.5459 78.2346 73.3791 78.8571L73.5036 79.695L69.6306 79.5855Z" fill="url(#paint49_linear_987_8012)"/>
<path d="M71.8097 78.8929C71.6492 78.9322 71.4881 78.9318 71.327 78.8922C71.1319 78.8443 70.9944 78.6698 70.9944 78.4698V75.9736H72.1436V78.4681C72.1436 78.6688 72.0058 78.8449 71.8097 78.8929Z" fill="url(#paint50_linear_987_8012)"/>
<path d="M59.7471 76.7646L72.1055 76.3554C72.3872 76.3461 72.6262 76.1427 72.6748 75.8664C72.7424 75.4795 72.8023 74.9003 72.7131 74.2997C72.6119 73.6169 72.0246 73.1099 71.3315 73.0933C69.0261 73.0383 63.157 73.04 59.9222 74.3197C59.58 74.4552 59.3263 74.7475 59.2397 75.1037C59.1572 75.4433 59.1022 75.897 59.2101 76.3588C59.2674 76.6041 59.4944 76.7729 59.7474 76.7646H59.7471Z" fill="url(#paint51_linear_987_8012)"/>
<path d="M59.5327 76.1805C59.4755 76.1805 59.4265 76.1372 59.4209 76.0793C59.4189 76.0593 59.3729 75.5843 59.4964 75.1269C59.5937 74.7677 59.878 74.4787 60.2382 74.3728C60.9293 74.1701 62.2499 73.8252 63.3319 73.7949C63.3944 73.7949 63.4457 73.8422 63.4477 73.9044C63.4494 73.9667 63.4004 74.0186 63.3382 74.0203C62.2815 74.0499 60.9822 74.3895 60.3014 74.5892C60.0158 74.6731 59.7907 74.9015 59.7138 75.1858C59.6013 75.6019 59.6446 76.0524 59.6449 76.0567C59.6509 76.1186 59.606 76.1739 59.5441 76.1799C59.5401 76.1799 59.5364 76.1805 59.5327 76.1805Z" fill="#91B3FA"/>
<path d="M52.766 79.3046C56.7586 79.2536 74.0304 79.0722 79.0476 79.6774C79.4797 79.7297 79.8319 80.0456 79.9254 80.4684C80.2221 81.8087 80.8183 84.922 80.7477 88.0084C80.7381 88.4285 80.4301 88.7827 80.0153 88.8613L68.563 91.0278H64.4949L52.2923 88.6023C51.8622 88.5167 51.5453 88.1525 51.523 87.7164C51.4437 86.1637 51.3195 82.5207 51.7397 80.1758C51.8289 79.6774 52.2577 79.3112 52.766 79.3049V79.3046Z" fill="url(#paint52_linear_987_8012)"/>
<path d="M64.5921 90.0981C64.5884 90.0981 64.5847 90.0978 64.5811 90.0971L64.2498 90.0312C64.2192 90.0252 64.1996 89.9956 64.2056 89.965C64.2116 89.9347 64.2415 89.9144 64.2718 89.9207L64.6031 89.9866C64.6334 89.9926 64.6533 90.0222 64.6473 90.0529C64.642 90.0795 64.6184 90.0981 64.5921 90.0981ZM67.8486 90.0981H67.5107C67.4797 90.0981 67.4544 90.0728 67.4544 90.0419C67.4544 90.0109 67.4797 89.9856 67.5107 89.9856H67.8486C67.8795 89.9856 67.9048 90.0109 67.9048 90.0419C67.9048 90.0728 67.8795 90.0981 67.8486 90.0981ZM66.7223 90.0981H66.3844C66.3535 90.0981 66.3282 90.0728 66.3282 90.0419C66.3282 90.0109 66.3535 89.9856 66.3844 89.9856H66.7223C66.7533 89.9856 66.7786 90.0109 66.7786 90.0419C66.7786 90.0728 66.7533 90.0981 66.7223 90.0981ZM65.5964 90.0981H65.2586C65.2276 90.0981 65.2023 90.0728 65.2023 90.0419C65.2023 90.0109 65.2276 89.9856 65.2586 89.9856H65.5964C65.6274 89.9856 65.6527 90.0109 65.6527 90.0419C65.6527 90.0728 65.6274 90.0981 65.5964 90.0981ZM68.6339 90.0672C68.6072 90.0672 68.5839 90.0482 68.5786 90.0212C68.573 89.9906 68.5929 89.9613 68.6236 89.9553L68.9555 89.8924C68.9851 89.8867 69.0154 89.9067 69.0214 89.9373C69.0274 89.9676 69.0071 89.9973 68.9764 90.0033L68.6445 90.0662C68.6409 90.0668 68.6375 90.0672 68.6339 90.0672ZM63.4875 89.8787C63.4838 89.8787 63.4802 89.8784 63.4765 89.8777L63.1449 89.8118C63.1143 89.8058 63.0947 89.7762 63.1007 89.7456C63.1066 89.7153 63.1366 89.6947 63.1669 89.7013L63.4985 89.7672C63.5291 89.7732 63.5487 89.8028 63.5428 89.8335C63.5374 89.8601 63.5138 89.8787 63.4875 89.8787ZM69.7405 89.8578C69.7138 89.8578 69.6902 89.8391 69.6852 89.8118C69.6792 89.7812 69.6995 89.7519 69.7301 89.7459L70.062 89.683C70.092 89.6773 70.122 89.6973 70.128 89.7279C70.1339 89.7586 70.1136 89.7879 70.083 89.7939L69.7511 89.8568C69.7474 89.8574 69.7441 89.8578 69.7405 89.8578ZM62.3829 89.659C62.3793 89.659 62.3756 89.659 62.3719 89.658L62.0407 89.5921C62.0101 89.5861 61.9904 89.5565 61.9964 89.5259C62.0024 89.4952 62.033 89.4756 62.0627 89.4816L62.3939 89.5475C62.4245 89.5535 62.4442 89.5831 62.4382 89.6138C62.4328 89.6404 62.4092 89.659 62.3829 89.659ZM70.847 89.6484C70.8204 89.6484 70.7968 89.6297 70.7918 89.6024C70.7858 89.5718 70.8061 89.5425 70.8367 89.5365L71.1686 89.4736C71.1986 89.4683 71.2285 89.4879 71.2345 89.5185C71.2405 89.5492 71.2202 89.5785 71.1896 89.5845L70.8577 89.6474C70.854 89.648 70.8507 89.6484 70.847 89.6484ZM61.2787 89.4393C61.275 89.4393 61.2713 89.4393 61.2677 89.4383L60.9361 89.3724C60.9055 89.3664 60.8858 89.3368 60.8918 89.3062C60.8978 89.2759 60.9281 89.2555 60.9581 89.2619L61.2897 89.3278C61.3203 89.3338 61.3399 89.3634 61.3339 89.394C61.3286 89.4207 61.305 89.4393 61.2787 89.4393ZM71.9536 89.439C71.927 89.439 71.9033 89.4203 71.8983 89.393C71.8924 89.3624 71.9127 89.3331 71.9433 89.3271L72.2752 89.2642C72.3055 89.2589 72.3351 89.2785 72.3411 89.3092C72.3471 89.3398 72.3268 89.3691 72.2962 89.3751L71.9643 89.438C71.9606 89.4386 71.9573 89.439 71.9536 89.439ZM73.0602 89.2296C73.0336 89.2296 73.0099 89.2109 73.0049 89.1836C72.9989 89.153 73.0192 89.1237 73.0499 89.1177L73.3818 89.0548C73.4117 89.0488 73.4417 89.0691 73.4477 89.0998C73.4537 89.1304 73.4334 89.1597 73.4027 89.1657L73.0708 89.2286C73.0672 89.2292 73.0638 89.2296 73.0602 89.2296ZM60.1738 89.2199C60.1701 89.2199 60.1664 89.2199 60.1628 89.2189L59.8315 89.153C59.8009 89.147 59.7813 89.1174 59.7872 89.0868C59.7932 89.0565 59.8235 89.0358 59.8535 89.0425L60.1847 89.1084C60.215 89.1144 60.235 89.144 60.229 89.1747C60.2237 89.2013 60.2001 89.2199 60.1738 89.2199ZM74.1668 89.0205C74.1401 89.0205 74.1165 89.0019 74.1115 88.9746C74.1055 88.944 74.1258 88.9147 74.1565 88.9087L74.4884 88.8457C74.518 88.8397 74.5483 88.8601 74.5543 88.8907C74.5603 88.9213 74.54 88.9506 74.5093 88.9566L74.1774 89.0195C74.1738 89.0202 74.1704 89.0205 74.1668 89.0205ZM59.0695 89.0002C59.0658 89.0002 59.0622 89.0002 59.0585 88.9992L58.7269 88.9333C58.6963 88.9273 58.6767 88.8977 58.6827 88.8671C58.6887 88.8364 58.719 88.8168 58.7489 88.8228L59.0805 88.8887C59.1111 88.8947 59.1308 88.9243 59.1248 88.9549C59.1194 88.9816 59.0958 89.0002 59.0695 89.0002ZM75.2733 88.8111C75.2467 88.8111 75.2231 88.7925 75.2181 88.7652C75.2121 88.7346 75.2324 88.7053 75.263 88.6993L75.5949 88.6364C75.6252 88.6304 75.6549 88.6507 75.6608 88.6813C75.6668 88.7119 75.6465 88.7412 75.6159 88.7472L75.284 88.8101C75.2803 88.8108 75.277 88.8111 75.2733 88.8111ZM57.9649 88.7808C57.9613 88.7808 57.9576 88.7808 57.9539 88.7798L57.6227 88.7139C57.5921 88.7079 57.5724 88.6783 57.5784 88.6477C57.5844 88.617 57.6144 88.5971 57.6447 88.6034L57.9759 88.6693C58.0065 88.6753 58.0262 88.7049 58.0202 88.7356C58.0149 88.7622 57.9912 88.7808 57.9649 88.7808ZM76.3796 88.6017C76.353 88.6017 76.3293 88.5827 76.3243 88.5558C76.3183 88.5252 76.3386 88.4959 76.3693 88.4899L76.7012 88.427C76.7311 88.4213 76.7611 88.4413 76.7671 88.4719C76.7731 88.5025 76.7528 88.5318 76.7221 88.5378L76.3902 88.6007C76.3866 88.6014 76.3833 88.6017 76.3796 88.6017ZM56.8603 88.5611C56.8567 88.5611 56.853 88.5611 56.8494 88.5601L56.5178 88.4942C56.4872 88.4882 56.4675 88.4586 56.4735 88.428C56.4795 88.3973 56.5095 88.378 56.5398 88.3837L56.8713 88.4496C56.902 88.4556 56.9216 88.4852 56.9156 88.5158C56.9103 88.5425 56.8866 88.5611 56.8603 88.5611ZM77.4862 88.3923C77.4595 88.3923 77.4359 88.3737 77.4309 88.3464C77.4249 88.3158 77.4452 88.2865 77.4758 88.2805L77.8078 88.2176C77.8374 88.2119 77.8677 88.2319 77.8737 88.2625C77.8797 88.2931 77.8594 88.3224 77.8287 88.3284L77.4968 88.3913C77.4932 88.392 77.4898 88.3923 77.4862 88.3923ZM55.7558 88.3417C55.7521 88.3417 55.7484 88.3417 55.7448 88.3407L55.4135 88.2748C55.3829 88.2688 55.3633 88.2392 55.3693 88.2086C55.3753 88.1779 55.4059 88.1583 55.4355 88.1643L55.7667 88.2302C55.7974 88.2362 55.817 88.2658 55.811 88.2964C55.8057 88.3231 55.7821 88.3417 55.7558 88.3417ZM78.5927 88.1829C78.5661 88.1829 78.5425 88.1643 78.5375 88.137C78.5315 88.1064 78.5518 88.0771 78.5824 88.0711L78.9143 88.0082C78.9446 88.0025 78.9743 88.0225 78.9802 88.0531C78.9859 88.0837 78.9659 88.113 78.9353 88.119L78.6034 88.1819C78.5997 88.1826 78.5964 88.1829 78.5927 88.1829ZM54.6512 88.122C54.6475 88.122 54.6439 88.122 54.6402 88.121L54.309 88.0551C54.2783 88.0491 54.2587 88.0195 54.2647 87.9888C54.2707 87.9582 54.3013 87.9382 54.3309 87.9446L54.6622 88.0105C54.6928 88.0165 54.7124 88.0461 54.7064 88.0767C54.7011 88.1034 54.6775 88.122 54.6512 88.122ZM79.6993 87.9735C79.6727 87.9735 79.6494 87.9549 79.6441 87.9276C79.6381 87.897 79.6584 87.8677 79.689 87.8617L79.7073 87.8583C79.7086 87.7828 79.7093 87.7069 79.71 87.6313C79.71 87.6003 79.7353 87.5754 79.7662 87.5754C79.7972 87.5754 79.8225 87.601 79.8222 87.632C79.8215 87.7235 79.8205 87.8147 79.8188 87.906L79.8178 87.9519L79.7096 87.9722C79.706 87.9729 79.7027 87.9732 79.699 87.9732L79.6993 87.9735ZM53.5466 87.9026C53.5429 87.9026 53.5393 87.9026 53.5356 87.9016L53.2044 87.8357C53.1737 87.8297 53.1541 87.8001 53.1601 87.7695C53.1661 87.7388 53.1964 87.7192 53.2263 87.7252L53.5576 87.7911C53.5882 87.7971 53.6079 87.8267 53.6019 87.8573C53.5965 87.884 53.5729 87.9026 53.5466 87.9026ZM52.5036 87.6293C52.4737 87.6293 52.4487 87.606 52.4474 87.5757C52.442 87.4722 52.437 87.3593 52.4314 87.2378C52.43 87.2069 52.454 87.1806 52.4853 87.1792C52.5166 87.1799 52.5426 87.2022 52.5439 87.2332C52.5492 87.3543 52.5542 87.4669 52.5595 87.5704C52.5612 87.6013 52.5372 87.628 52.5063 87.6293C52.5053 87.6293 52.5043 87.6293 52.5033 87.6293H52.5036ZM79.7569 86.8999C79.7266 86.8999 79.7013 86.8759 79.7006 86.8453C79.6973 86.7328 79.6933 86.6206 79.6887 86.5084C79.6873 86.4775 79.7116 86.4512 79.7426 86.4498C79.7736 86.4498 79.7999 86.4728 79.8012 86.5038C79.8058 86.6163 79.8098 86.7288 79.8132 86.842C79.8142 86.8729 79.7895 86.8989 79.7586 86.8999H79.7569ZM52.4583 86.5041C52.428 86.5041 52.4031 86.4801 52.4021 86.4495C52.3987 86.34 52.3954 86.2271 52.3924 86.1113C52.3918 86.0803 52.4161 86.0543 52.4474 86.0537C52.4776 86.0583 52.5043 86.0776 52.5049 86.1086C52.5079 86.2241 52.5113 86.3366 52.5146 86.4462C52.5156 86.4771 52.4913 86.5031 52.46 86.5041H52.4583ZM79.7006 85.7757C79.6714 85.7757 79.6467 85.7531 79.6447 85.7234C79.6367 85.6106 79.6284 85.4984 79.6191 85.3872C79.6164 85.3562 79.6394 85.3289 79.6707 85.3266C79.7013 85.3253 79.729 85.3472 79.7313 85.3782C79.7403 85.4901 79.7493 85.6026 79.7569 85.7158C79.7592 85.7467 79.7356 85.7737 79.7046 85.776C79.7033 85.776 79.702 85.776 79.7006 85.776V85.7757ZM52.4334 85.3779C52.4027 85.3779 52.3774 85.3532 52.3771 85.3223C52.3758 85.2111 52.3744 85.0982 52.3738 84.984C52.3738 84.9531 52.3987 84.9278 52.4297 84.9274H52.43C52.461 84.9274 52.486 84.9524 52.4863 84.9834C52.487 85.0972 52.4883 85.2098 52.4896 85.3209C52.49 85.3519 52.465 85.3775 52.434 85.3779H52.4334ZM79.6008 84.6535C79.5725 84.6535 79.5478 84.6322 79.5449 84.6032C79.5329 84.4903 79.5202 84.3785 79.5072 84.268C79.5036 84.237 79.5259 84.209 79.5565 84.2054C79.5878 84.2017 79.6154 84.224 79.6191 84.2546C79.6321 84.3655 79.6447 84.478 79.6567 84.5912C79.66 84.6222 79.6377 84.6498 79.6068 84.6531C79.6048 84.6531 79.6028 84.6535 79.6008 84.6535ZM52.431 84.2516H52.4304C52.3994 84.2516 52.3744 84.226 52.3748 84.1947C52.3758 84.0825 52.3771 83.9697 52.3791 83.8565C52.3798 83.8259 52.4047 83.8012 52.4354 83.8012H52.4364C52.4673 83.8019 52.4923 83.8275 52.4916 83.8585C52.4896 83.9713 52.4883 84.0839 52.4873 84.1961C52.4873 84.227 52.462 84.2516 52.431 84.2516ZM79.4626 83.5356C79.435 83.5356 79.411 83.5153 79.407 83.487C79.3911 83.3738 79.3751 83.2623 79.3588 83.1531C79.3541 83.1221 79.3754 83.0935 79.406 83.0891C79.437 83.0848 79.4656 83.1058 79.4699 83.1364C79.4866 83.2463 79.5026 83.3578 79.5186 83.4717C79.5229 83.5023 79.5012 83.5309 79.4706 83.5352C79.468 83.5352 79.4653 83.5359 79.4626 83.5359V83.5356ZM52.4567 83.1258H52.4547C52.4237 83.1244 52.3994 83.0985 52.4004 83.0675C52.4047 82.9543 52.4094 82.8415 52.4147 82.7289C52.4164 82.698 52.44 82.6717 52.4737 82.6753C52.5046 82.6767 52.5286 82.7033 52.5272 82.7343C52.5219 82.8465 52.5173 82.959 52.5129 83.0715C52.5116 83.1018 52.4866 83.1258 52.4567 83.1258ZM79.2895 82.4223C79.2626 82.4223 79.2389 82.403 79.2339 82.3754C79.2146 82.2609 79.195 82.15 79.1757 82.0428C79.17 82.0122 79.1906 81.9829 79.2209 81.9772C79.2509 81.9726 79.2809 81.9919 79.2865 82.0225C79.3058 82.13 79.3255 82.2412 79.3451 82.3561C79.3504 82.3867 79.3298 82.4157 79.2992 82.421C79.2958 82.4217 79.2928 82.4217 79.2895 82.4217V82.4223ZM52.5193 82.0012C52.5193 82.0012 52.5163 82.0012 52.5149 82.0012C52.484 81.9989 52.4607 81.9719 52.463 81.941C52.4717 81.8271 52.4813 81.7146 52.4913 81.6034C52.4943 81.5724 52.5249 81.5498 52.5525 81.5525C52.5835 81.5555 52.6065 81.5827 52.6035 81.6137C52.5935 81.7246 52.5842 81.8368 52.5755 81.9499C52.5732 81.9796 52.5486 82.0019 52.5196 82.0019L52.5193 82.0012ZM79.0835 81.3144C79.0571 81.3144 79.0338 81.2961 79.0282 81.2695C79.0042 81.151 78.9812 81.0404 78.9596 80.9389C78.9533 80.9086 78.9726 80.8786 79.0029 80.872C79.0332 80.8663 79.0631 80.885 79.0698 80.9156C79.0914 81.0171 79.1144 81.128 79.1387 81.2472C79.145 81.2778 79.1251 81.3074 79.0948 81.3138C79.0911 81.3144 79.0871 81.3148 79.0835 81.3148V81.3144ZM52.6361 80.881C52.6334 80.881 52.6308 80.881 52.6285 80.8803C52.5975 80.876 52.5762 80.8477 52.5805 80.8167C52.5962 80.7022 52.6131 80.59 52.6314 80.4812C52.6368 80.4505 52.6664 80.4292 52.6964 80.4349C52.727 80.4402 52.748 80.4688 52.7426 80.4998C52.7247 80.608 52.708 80.7189 52.692 80.8324C52.688 80.8607 52.6641 80.881 52.6364 80.881H52.6361ZM78.4369 80.6613C78.4349 80.6613 78.4333 80.6613 78.4313 80.6613C78.3241 80.6509 78.2122 80.6406 78.0954 80.6306C78.0644 80.628 78.0415 80.6007 78.0441 80.5697C78.0468 80.5388 78.0744 80.5165 78.105 80.5184C78.2222 80.5284 78.3347 80.5384 78.4423 80.5491C78.4732 80.5521 78.4959 80.5797 78.4929 80.6107C78.4899 80.6396 78.4656 80.6616 78.4369 80.6616V80.6613ZM77.3144 80.5721C77.3144 80.5721 77.3117 80.5721 77.3104 80.5721C77.2012 80.5647 77.0887 80.5577 76.9735 80.5507C76.9425 80.5487 76.9189 80.5221 76.9206 80.4911C76.9226 80.4602 76.9489 80.4336 76.9801 80.4382C77.0957 80.4452 77.2082 80.4525 77.3177 80.4595C77.3487 80.4615 77.3723 80.4885 77.3703 80.5194C77.3683 80.5491 77.3437 80.5721 77.3144 80.5721ZM76.1898 80.5075C76.1898 80.5075 76.1878 80.5075 76.1868 80.5075C76.0766 80.5018 75.9645 80.4965 75.8496 80.4911C75.8186 80.4898 75.7947 80.4635 75.796 80.4322C75.7973 80.4013 75.82 80.3736 75.8549 80.3786C75.9698 80.384 76.0823 80.3893 76.1925 80.3949C76.2235 80.3966 76.2474 80.4229 76.2458 80.4539C76.2441 80.4842 76.2195 80.5075 76.1895 80.5075H76.1898ZM75.0649 80.4575H75.0626L74.725 80.4449C74.6941 80.4435 74.6698 80.4176 74.6708 80.3866C74.6718 80.3557 74.6938 80.3304 74.729 80.3324L75.0669 80.345C75.0979 80.3463 75.1222 80.3723 75.1212 80.4036C75.1199 80.4339 75.0949 80.4579 75.0649 80.4579V80.4575ZM73.9391 80.4179H73.9374L73.5998 80.4076C73.5689 80.4066 73.5442 80.3806 73.5452 80.3497C73.5462 80.3187 73.5742 80.2947 73.6032 80.2951L73.9411 80.3054C73.972 80.3064 73.9967 80.3324 73.9957 80.3633C73.9947 80.3939 73.9697 80.4179 73.9394 80.4179H73.9391ZM72.8135 80.386H72.8122L72.4743 80.3776C72.4433 80.377 72.4187 80.351 72.4193 80.32C72.4203 80.2891 72.448 80.2628 72.4769 80.2651L72.8148 80.2734C72.8458 80.2741 72.8704 80.3001 72.8698 80.331C72.8691 80.3616 72.8438 80.386 72.8135 80.386ZM71.6876 80.36H71.6866L71.3487 80.3533C71.3178 80.3527 71.2931 80.327 71.2935 80.2961C71.2941 80.2651 71.3164 80.2438 71.3507 80.2408L71.6886 80.2475C71.7196 80.2481 71.7442 80.2738 71.7439 80.3047C71.7432 80.3354 71.7182 80.36 71.6876 80.36ZM53.3282 80.3417C53.2976 80.3417 53.2723 80.317 53.272 80.2861C53.272 80.2551 53.2966 80.2295 53.3276 80.2292L53.6658 80.2252C53.6967 80.2252 53.7224 80.2495 53.7227 80.2808C53.7227 80.3117 53.6981 80.3374 53.6671 80.3377L53.3289 80.3417H53.3282ZM70.5614 80.339H70.5604L70.2225 80.3337C70.1915 80.3334 70.1666 80.3077 70.1669 80.2764C70.1672 80.2458 70.1925 80.2212 70.2232 80.2212H70.2242L70.5621 80.2265C70.593 80.2272 70.618 80.2525 70.6173 80.2837C70.617 80.3147 70.5917 80.3393 70.5611 80.3393L70.5614 80.339ZM54.4551 80.329C54.4245 80.329 54.3992 80.3041 54.3988 80.2734C54.3988 80.2425 54.4235 80.2168 54.4544 80.2165L54.7927 80.2132C54.8216 80.2145 54.8493 80.2378 54.8496 80.2688C54.8496 80.2997 54.825 80.3254 54.794 80.3257L54.4558 80.329H54.4551ZM69.4355 80.3224H69.4348L69.0969 80.318C69.066 80.3177 69.041 80.2921 69.0414 80.2611C69.0417 80.2302 69.067 80.2055 69.0976 80.2055H69.0983L69.4362 80.2098C69.4671 80.2102 69.4921 80.2358 69.4918 80.2668C69.4914 80.2977 69.4661 80.3224 69.4355 80.3224ZM55.5817 80.318C55.5507 80.318 55.5257 80.2931 55.5254 80.2624C55.5254 80.2315 55.55 80.2059 55.581 80.2055L55.9189 80.2025H55.9196C55.9505 80.2025 55.9755 80.2275 55.9758 80.2581C55.9758 80.2891 55.9512 80.3147 55.9202 80.315L55.5823 80.318H55.5817ZM68.309 80.3091H68.3083L67.9704 80.3057C67.9394 80.3057 67.9145 80.2801 67.9148 80.2488C67.9148 80.2178 67.9401 80.1932 67.9711 80.1932H67.9717L68.3096 80.1965C68.3409 80.1965 68.3656 80.2222 68.3652 80.2535C68.3652 80.2844 68.3399 80.3091 68.309 80.3091ZM56.7082 80.3084C56.6772 80.3084 56.6523 80.2834 56.6519 80.2525C56.6519 80.2215 56.6766 80.1959 56.7079 80.1959L57.0458 80.1932C57.0771 80.1939 57.1024 80.2182 57.1024 80.2491C57.1024 80.2801 57.0777 80.3057 57.0464 80.3057L56.7085 80.3084H56.7082ZM57.8348 80.3004C57.8038 80.3004 57.7788 80.2754 57.7785 80.2445C57.7785 80.2135 57.8035 80.1879 57.8344 80.1879L58.1727 80.1855C58.2036 80.1855 58.2286 80.2105 58.2289 80.2415C58.2289 80.2724 58.204 80.2977 58.173 80.2981L57.8351 80.3004H57.8348ZM67.1827 80.2987L66.8448 80.2961C66.8139 80.2961 66.7886 80.2704 66.7889 80.2395C66.7889 80.2085 66.8142 80.1835 66.8452 80.1835L67.1831 80.1862C67.214 80.1862 67.239 80.2118 67.239 80.2428C67.239 80.2738 67.2137 80.2987 67.1827 80.2987ZM58.9613 80.2937C58.9304 80.2937 58.905 80.2688 58.905 80.2378C58.905 80.2069 58.93 80.1812 58.961 80.1812L59.2992 80.1796C59.3302 80.1796 59.3555 80.2045 59.3555 80.2355C59.3555 80.2664 59.3305 80.2917 59.2995 80.2921L58.9616 80.2937H58.9613ZM66.0565 80.2914L65.7186 80.2897C65.6877 80.2897 65.6624 80.2641 65.6627 80.2331C65.663 80.2022 65.688 80.1772 65.719 80.1772L66.0569 80.1789C66.0878 80.1789 66.1131 80.2045 66.1128 80.2355C66.1128 80.2664 66.0875 80.2914 66.0565 80.2914ZM60.0879 80.2887C60.0569 80.2887 60.0316 80.2638 60.0316 80.2328C60.0316 80.2019 60.0566 80.1766 60.0875 80.1762L60.4254 80.1749C60.4564 80.1749 60.4817 80.1999 60.4817 80.2311C60.4817 80.2621 60.4567 80.2874 60.4258 80.2874L60.0879 80.2887ZM64.9306 80.2867L64.5927 80.2857C64.5618 80.2857 64.5365 80.2605 64.5365 80.2295C64.5365 80.1985 64.5618 80.1732 64.5927 80.1732L64.9306 80.1742C64.9616 80.1742 64.9869 80.1995 64.9866 80.2308C64.9866 80.2618 64.9613 80.2867 64.9303 80.2867H64.9306ZM61.2144 80.2851C61.1835 80.2851 61.1582 80.2598 61.1582 80.2288C61.1582 80.1979 61.1831 80.1726 61.2144 80.1726L61.5526 80.1719C61.5836 80.1719 61.6089 80.1972 61.6089 80.2282C61.6089 80.2591 61.5839 80.2844 61.5526 80.2844L61.2144 80.2851ZM63.8044 80.2841H63.4665C63.4356 80.2838 63.4103 80.2585 63.4103 80.2272C63.4103 80.1959 63.4356 80.1709 63.4665 80.1709H63.8044C63.8354 80.1716 63.8607 80.1965 63.8607 80.2278C63.8607 80.2588 63.8354 80.2841 63.8044 80.2841ZM62.3406 80.2834C62.3097 80.2834 62.2844 80.2581 62.2844 80.2272C62.2844 80.1962 62.3097 80.1709 62.3406 80.1709H62.6782C62.7092 80.1709 62.7345 80.1962 62.7345 80.2272C62.7345 80.2581 62.7092 80.2834 62.6782 80.2834H62.3406Z" fill="white"/>
<path d="M68.1803 92.7363H64.6163C64.1492 92.7363 63.756 92.3887 63.7004 91.9273L63.2886 88.4977C63.223 87.9514 63.6515 87.4707 64.2044 87.4707H68.4859C69.0276 87.4707 69.4524 87.9328 69.4048 88.4698L69.0992 91.8993C69.0569 92.3731 68.6584 92.7363 68.1803 92.7363Z" fill="url(#paint53_linear_987_8012)"/>
<path d="M67.7416 92.1055H65.0291C64.6736 92.1055 64.3743 91.8412 64.332 91.4896L64.0187 88.8793C63.9688 88.4635 64.295 88.0977 64.7158 88.0977H67.9746C68.3868 88.0977 68.7104 88.4495 68.6737 88.858L68.441 91.4683C68.4088 91.8289 68.1055 92.1052 67.7419 92.1052L67.7416 92.1055Z" fill="url(#paint54_linear_987_8012)"/>
<defs>
<linearGradient id="paint0_linear_987_8012" x1="101.434" y1="96.9777" x2="34.4741" y2="38.388" gradientUnits="userSpaceOnUse">
<stop stop-color="#DAE3FE"/>
<stop offset="1" stop-color="#E9EFFD"/>
</linearGradient>
<linearGradient id="paint1_linear_987_8012" x1="51.2545" y1="30.5359" x2="60.9493" y2="20.1239" gradientUnits="userSpaceOnUse">
<stop stop-color="#E1473D"/>
<stop offset="1" stop-color="#E9605A"/>
</linearGradient>
<linearGradient id="paint2_linear_987_8012" x1="66.4958" y1="12.4709" x2="37.4583" y2="52.8628" gradientUnits="userSpaceOnUse">
<stop stop-color="#FF928E"/>
<stop offset="1" stop-color="#FE7062"/>
</linearGradient>
<linearGradient id="paint3_linear_987_8012" x1="62.0433" y1="10.567" x2="60.9171" y2="25.4322" gradientUnits="userSpaceOnUse">
<stop stop-color="#FF928E"/>
<stop offset="1" stop-color="#FE7062"/>
</linearGradient>
<linearGradient id="paint4_linear_987_8012" x1="2.39872" y1="36.977" x2="12.4783" y2="26.1514" gradientUnits="userSpaceOnUse">
<stop stop-color="#E1473D"/>
<stop offset="1" stop-color="#E9605A"/>
</linearGradient>
<linearGradient id="paint5_linear_987_8012" x1="18.2454" y1="18.1944" x2="-11.9458" y2="60.1909" gradientUnits="userSpaceOnUse">
<stop stop-color="#FF928E"/>
<stop offset="1" stop-color="#FE7062"/>
</linearGradient>
<linearGradient id="paint6_linear_987_8012" x1="13.1861" y1="9.82311" x2="12.7357" y2="29.869" gradientUnits="userSpaceOnUse">
<stop stop-color="#FF928E"/>
<stop offset="1" stop-color="#FE7062"/>
</linearGradient>
<linearGradient id="paint7_linear_987_8012" x1="23.8334" y1="19.4948" x2="31.5075" y2="11.2529" gradientUnits="userSpaceOnUse">
<stop stop-color="#E1473D"/>
<stop offset="1" stop-color="#E9605A"/>
</linearGradient>
<linearGradient id="paint8_linear_987_8012" x1="35.8986" y1="5.19466" x2="12.9127" y2="37.1688" gradientUnits="userSpaceOnUse">
<stop stop-color="#FF928E"/>
<stop offset="1" stop-color="#FE7062"/>
</linearGradient>
<linearGradient id="paint9_linear_987_8012" x1="31.5164" y1="0.00111689" x2="31.7414" y2="13.7405" gradientUnits="userSpaceOnUse">
<stop stop-color="#FF928E"/>
<stop offset="1" stop-color="#FE7062"/>
</linearGradient>
<linearGradient id="paint10_linear_987_8012" x1="80.4028" y1="50.5015" x2="89.3215" y2="40.9227" gradientUnits="userSpaceOnUse">
<stop stop-color="#E1473D"/>
<stop offset="1" stop-color="#E9605A"/>
</linearGradient>
<linearGradient id="paint11_linear_987_8012" x1="94.4243" y1="33.8809" x2="67.7103" y2="71.041" gradientUnits="userSpaceOnUse">
<stop stop-color="#FF928E"/>
<stop offset="1" stop-color="#FE7062"/>
</linearGradient>
<linearGradient id="paint12_linear_987_8012" x1="97.3273" y1="25.5369" x2="87.192" y2="46.0332" gradientUnits="userSpaceOnUse">
<stop stop-color="#FF928E"/>
<stop offset="1" stop-color="#FE7062"/>
</linearGradient>
<linearGradient id="paint13_linear_987_8012" x1="69.469" y1="20.325" x2="77.6179" y2="11.5727" gradientUnits="userSpaceOnUse">
<stop stop-color="#E1473D"/>
<stop offset="1" stop-color="#E9605A"/>
</linearGradient>
<linearGradient id="paint14_linear_987_8012" x1="82.28" y1="5.13956" x2="57.8715" y2="39.0924" gradientUnits="userSpaceOnUse">
<stop stop-color="#FF928E"/>
<stop offset="1" stop-color="#FE7062"/>
</linearGradient>
<linearGradient id="paint15_linear_987_8012" x1="82.6221" y1="7.51642" x2="65.5806" y2="22.769" gradientUnits="userSpaceOnUse">
<stop stop-color="#FF928E"/>
<stop offset="1" stop-color="#FE7062"/>
</linearGradient>
<linearGradient id="paint16_linear_987_8012" x1="81.1773" y1="45.5747" x2="64.7328" y2="81.5797" gradientUnits="userSpaceOnUse">
<stop stop-color="#DAE3FE"/>
<stop offset="1" stop-color="#E9EFFD"/>
</linearGradient>
<linearGradient id="paint17_linear_987_8012" x1="45.4062" y1="42.4994" x2="25.4994" y2="101.7" gradientUnits="userSpaceOnUse">
<stop stop-color="#DAE3FE"/>
<stop offset="1" stop-color="#E9EFFD"/>
</linearGradient>
<linearGradient id="paint18_linear_987_8012" x1="88.5651" y1="9.73077" x2="67.0178" y2="58.9069" gradientUnits="userSpaceOnUse">
<stop stop-color="#FF928E"/>
<stop offset="1" stop-color="#FE7062"/>
</linearGradient>
<linearGradient id="paint19_linear_987_8012" x1="70.2856" y1="65.4626" x2="54.2938" y2="38.0591" gradientUnits="userSpaceOnUse">
<stop stop-color="#FF928E"/>
<stop offset="1" stop-color="#FE7062"/>
</linearGradient>
<linearGradient id="paint20_linear_987_8012" x1="54.3697" y1="32.3609" x2="37.9279" y2="58.2626" gradientUnits="userSpaceOnUse">
<stop stop-color="#FF928E"/>
<stop offset="1" stop-color="#FE7062"/>
</linearGradient>
<linearGradient id="paint21_linear_987_8012" x1="39.0905" y1="63.018" x2="28.7751" y2="48.767" gradientUnits="userSpaceOnUse">
<stop stop-color="#FF928E"/>
<stop offset="1" stop-color="#FE7062"/>
</linearGradient>
<linearGradient id="paint22_linear_987_8012" x1="28.6967" y1="34.0754" x2="4.98184" y2="77.0049" gradientUnits="userSpaceOnUse">
<stop stop-color="#DAE3FE"/>
<stop offset="1" stop-color="#E9EFFD"/>
</linearGradient>
<linearGradient id="paint23_linear_987_8012" x1="51.3324" y1="104.221" x2="49.9808" y2="62.3234" gradientUnits="userSpaceOnUse">
<stop stop-color="#4F52FF"/>
<stop offset="1" stop-color="#4042E2"/>
</linearGradient>
<linearGradient id="paint24_linear_987_8012" x1="48.9977" y1="67.912" x2="54.7417" y2="22.6355" gradientUnits="userSpaceOnUse">
<stop stop-color="#4F52FF"/>
<stop offset="1" stop-color="#4042E2"/>
</linearGradient>
<linearGradient id="paint25_linear_987_8012" x1="25.8159" y1="65.6317" x2="27.0829" y2="58.8748" gradientUnits="userSpaceOnUse">
<stop stop-color="#09005D"/>
<stop offset="1" stop-color="#1A0F91"/>
</linearGradient>
<linearGradient id="paint26_linear_987_8012" x1="24.2647" y1="64.3815" x2="27.5096" y2="64.3815" gradientUnits="userSpaceOnUse">
<stop stop-color="#09005D"/>
<stop offset="1" stop-color="#1A0F91"/>
</linearGradient>
<linearGradient id="paint27_linear_987_8012" x1="24.574" y1="63.4681" x2="25.5144" y2="63.4681" gradientUnits="userSpaceOnUse">
<stop stop-color="#FEBBBA"/>
<stop offset="1" stop-color="#FF928E"/>
</linearGradient>
<linearGradient id="paint28_linear_987_8012" x1="18.3695" y1="64.2358" x2="19.6366" y2="57.4788" gradientUnits="userSpaceOnUse">
<stop stop-color="#09005D"/>
<stop offset="1" stop-color="#1A0F91"/>
</linearGradient>
<linearGradient id="paint29_linear_987_8012" x1="17.618" y1="63.979" x2="19.4959" y2="63.979" gradientUnits="userSpaceOnUse">
<stop stop-color="#09005D"/>
<stop offset="1" stop-color="#1A0F91"/>
</linearGradient>
<linearGradient id="paint30_linear_987_8012" x1="18.5941" y1="62.6842" x2="19.7179" y2="62.6842" gradientUnits="userSpaceOnUse">
<stop stop-color="#FEBBBA"/>
<stop offset="1" stop-color="#FF928E"/>
</linearGradient>
<linearGradient id="paint31_linear_987_8012" x1="15.9904" y1="65.9705" x2="30.7554" y2="49.2657" gradientUnits="userSpaceOnUse">
<stop stop-color="#09005D"/>
<stop offset="1" stop-color="#1A0F91"/>
</linearGradient>
<linearGradient id="paint32_linear_987_8012" x1="32.7286" y1="39.2216" x2="6.96239" y2="61.6314" gradientUnits="userSpaceOnUse">
<stop stop-color="#4F52FF"/>
<stop offset="1" stop-color="#4042E2"/>
</linearGradient>
<linearGradient id="paint33_linear_987_8012" x1="22.3819" y1="58.5211" x2="22.9206" y2="57.4438" gradientUnits="userSpaceOnUse">
<stop stop-color="#4F52FF"/>
<stop offset="1" stop-color="#4042E2"/>
</linearGradient>
<linearGradient id="paint34_linear_987_8012" x1="23.7441" y1="46.3008" x2="19.7429" y2="49.8439" gradientUnits="userSpaceOnUse">
<stop stop-color="#FEBBBA"/>
<stop offset="1" stop-color="#FF928E"/>
</linearGradient>
<linearGradient id="paint35_linear_987_8012" x1="30.5808" y1="36.8463" x2="4.93072" y2="59.1553" gradientUnits="userSpaceOnUse">
<stop stop-color="#4F52FF"/>
<stop offset="1" stop-color="#4042E2"/>
</linearGradient>
<linearGradient id="paint36_linear_987_8012" x1="34.6124" y1="41.4823" x2="8.96241" y2="63.7913" gradientUnits="userSpaceOnUse">
<stop stop-color="#4F52FF"/>
<stop offset="1" stop-color="#4042E2"/>
</linearGradient>
<linearGradient id="paint37_linear_987_8012" x1="31.2434" y1="46.6363" x2="34.3944" y2="46.6363" gradientUnits="userSpaceOnUse">
<stop stop-color="#FEBBBA"/>
<stop offset="1" stop-color="#FF928E"/>
</linearGradient>
<linearGradient id="paint38_linear_987_8012" x1="28.1815" y1="38.2152" x2="28.1469" y2="44.0996" gradientUnits="userSpaceOnUse">
<stop stop-color="#FEBBBA"/>
<stop offset="1" stop-color="#FF928E"/>
</linearGradient>
<linearGradient id="paint39_linear_987_8012" x1="19.4226" y1="48.9442" x2="35.9231" y2="48.9442" gradientUnits="userSpaceOnUse">
<stop stop-color="#09005D"/>
<stop offset="1" stop-color="#1A0F91"/>
</linearGradient>
<linearGradient id="paint40_linear_987_8012" x1="34.1613" y1="41.6272" x2="51.0146" y2="41.6272" gradientUnits="userSpaceOnUse">
<stop stop-color="#09005D"/>
<stop offset="1" stop-color="#1A0F91"/>
</linearGradient>
<linearGradient id="paint41_linear_987_8012" x1="30.0905" y1="37.2521" x2="27.7712" y2="41.4585" gradientUnits="userSpaceOnUse">
<stop stop-color="#FEBBBA"/>
<stop offset="1" stop-color="#FF928E"/>
</linearGradient>
<linearGradient id="paint42_linear_987_8012" x1="28.0328" y1="38.4826" x2="31.4575" y2="37.9885" gradientUnits="userSpaceOnUse">
<stop stop-color="#09005D"/>
<stop offset="1" stop-color="#1A0F91"/>
</linearGradient>
<linearGradient id="paint43_linear_987_8012" x1="26.325" y1="40.8615" x2="28.2842" y2="38.1705" gradientUnits="userSpaceOnUse">
<stop stop-color="#FEBBBA"/>
<stop offset="1" stop-color="#FF928E"/>
</linearGradient>
<linearGradient id="paint44_linear_987_8012" x1="25.3234" y1="48.0854" x2="21.3222" y2="51.6282" gradientUnits="userSpaceOnUse">
<stop stop-color="#FEBBBA"/>
<stop offset="1" stop-color="#FF928E"/>
</linearGradient>
<linearGradient id="paint45_linear_987_8012" x1="34.06" y1="46.2652" x2="35.1883" y2="46.2652" gradientUnits="userSpaceOnUse">
<stop stop-color="#FEBBBA"/>
<stop offset="1" stop-color="#FF928E"/>
</linearGradient>
<linearGradient id="paint46_linear_987_8012" x1="65.8409" y1="86.5295" x2="66.8542" y2="99.1989" gradientUnits="userSpaceOnUse">
<stop stop-color="#09005D"/>
<stop offset="1" stop-color="#1A0F91"/>
</linearGradient>
<linearGradient id="paint47_linear_987_8012" x1="60.2614" y1="75.3939" x2="60.0969" y2="71.4053" gradientUnits="userSpaceOnUse">
<stop stop-color="#09005D"/>
<stop offset="1" stop-color="#1A0F91"/>
</linearGradient>
<linearGradient id="paint48_linear_987_8012" x1="60.303" y1="75.4679" x2="61.1252" y2="86.8985" gradientUnits="userSpaceOnUse">
<stop stop-color="#09005D"/>
<stop offset="1" stop-color="#1A0F91"/>
</linearGradient>
<linearGradient id="paint49_linear_987_8012" x1="71.4143" y1="75.9382" x2="71.2499" y2="71.9496" gradientUnits="userSpaceOnUse">
<stop stop-color="#09005D"/>
<stop offset="1" stop-color="#1A0F91"/>
</linearGradient>
<linearGradient id="paint50_linear_987_8012" x1="71.3849" y1="74.6713" x2="72.2075" y2="86.1019" gradientUnits="userSpaceOnUse">
<stop stop-color="#09005D"/>
<stop offset="1" stop-color="#1A0F91"/>
</linearGradient>
<linearGradient id="paint51_linear_987_8012" x1="66.8206" y1="69.1044" x2="65.7104" y2="77.2456" gradientUnits="userSpaceOnUse">
<stop stop-color="#09005D"/>
<stop offset="1" stop-color="#1A0F91"/>
</linearGradient>
<linearGradient id="paint52_linear_987_8012" x1="68.091" y1="59.4504" x2="66.6831" y2="77.8631" gradientUnits="userSpaceOnUse">
<stop stop-color="#09005D"/>
<stop offset="1" stop-color="#1A0F91"/>
</linearGradient>
<linearGradient id="paint53_linear_987_8012" x1="66.6773" y1="88.6495" x2="69.7177" y2="79.5276" gradientUnits="userSpaceOnUse">
<stop stop-color="#09005D"/>
<stop offset="1" stop-color="#1A0F91"/>
</linearGradient>
<linearGradient id="paint54_linear_987_8012" x1="65.9482" y1="76.5974" x2="66.1733" y2="83.5235" gradientUnits="userSpaceOnUse">
<stop stop-color="#09005D"/>
<stop offset="1" stop-color="#1A0F91"/>
</linearGradient>
</defs>
</svg>
