<svg width="100" height="101" viewBox="0 0 100 101" fill="none" xmlns="http://www.w3.org/2000/svg">
<path d="M6.41639 67.517C16.0834 90.0309 41.6012 99.7014 61.595 98.0526C67.0542 97.6023 78.0377 96.6968 86.6142 88.6155C103.084 73.0965 100.547 40.6572 84.7811 21.5589C82.7506 19.0998 68.6963 2.62152 46.7957 2.84204C30.761 3.00329 19.5066 12.0284 18.138 13.1527C16.4093 14.5729 12.5961 17.9482 9.15978 23.3027C1.08536 35.8843 0.375564 53.4479 6.41639 67.517Z" fill="url(#paint0_linear_987_8740)"/>
<g opacity="0.3">
<path d="M25.5985 11.0644C25.4706 11.2111 25.2481 11.2263 25.1016 11.0985C24.8167 10.85 24.5169 10.6106 24.2102 10.3863C24.0552 10.2729 24.02 10.0562 24.13 9.89975C24.1313 9.89802 24.1327 9.89596 24.1337 9.89423C24.2485 9.73711 24.469 9.703 24.6261 9.81808C24.949 10.0541 25.2646 10.3063 25.5644 10.5678C25.7015 10.6874 25.7236 10.8897 25.6212 11.0354C25.6143 11.0454 25.6067 11.0554 25.5985 11.0647V11.0644ZM22.6428 9.39703C22.3086 9.21683 21.9637 9.04903 21.6171 8.89845C21.4389 8.82093 21.3569 8.6135 21.4345 8.43502C21.513 8.25619 21.7194 8.17488 21.8979 8.2524C22.2624 8.4109 22.6256 8.58732 22.9774 8.77682C23.1487 8.86917 23.2124 9.08279 23.1201 9.25404C23.1135 9.26644 23.1059 9.2785 23.098 9.28953C22.9967 9.43356 22.8017 9.48248 22.6428 9.39669V9.39703ZM19.8709 8.28031C19.506 8.17901 19.1321 8.09287 18.76 8.02327C18.5688 7.98778 18.4426 7.80379 18.4785 7.61255C18.5143 7.42167 18.698 7.29522 18.8892 7.33105C19.2813 7.4041 19.6751 7.4954 20.0593 7.60187C20.2468 7.6539 20.3567 7.84789 20.3047 8.03533C20.2936 8.0753 20.2761 8.11182 20.2537 8.14387C20.1706 8.2624 20.0187 8.32166 19.8712 8.28066L19.8709 8.28031ZM16.919 7.81171C16.5403 7.79448 16.1565 7.79379 15.7782 7.8093C15.5838 7.81722 15.4198 7.66596 15.4119 7.47163C15.4043 7.2773 15.5552 7.11363 15.7496 7.10536C16.1479 7.08917 16.552 7.08986 16.9507 7.10777C17.145 7.11639 17.2956 7.28109 17.2866 7.47542C17.2835 7.54502 17.2605 7.60876 17.2233 7.66183C17.1564 7.75693 17.0441 7.81688 16.919 7.81137V7.81171ZM13.9358 8.01224C13.5637 8.07943 13.1891 8.16385 12.8225 8.26274C12.6347 8.31339 12.4414 8.2021 12.3908 8.01431C12.3401 7.82653 12.4514 7.63323 12.6392 7.58258C13.0248 7.47852 13.419 7.38997 13.8104 7.31899C14.0016 7.28419 14.1849 7.41133 14.2197 7.60291C14.2373 7.69938 14.2135 7.79379 14.1615 7.86822C14.1101 7.94127 14.0309 7.99502 13.9361 8.01224H13.9358ZM11.0718 8.86813C10.7231 9.01629 10.3768 9.18134 10.0419 9.35844C9.86999 9.44941 9.65671 9.38394 9.56609 9.212C9.47512 9.04007 9.54059 8.82713 9.71252 8.73582C10.065 8.54907 10.4296 8.37576 10.7965 8.21967C10.9757 8.14352 11.1824 8.22691 11.2586 8.40608C11.3078 8.52219 11.2899 8.65037 11.2224 8.7465C11.1859 8.79853 11.1349 8.84126 11.0722 8.86779L11.0718 8.86813ZM2.76309 18.9668C2.57186 18.931 2.44609 18.7467 2.48193 18.5558C2.55566 18.1644 2.64766 17.7705 2.75482 17.3857C2.80719 17.1982 3.00152 17.089 3.18862 17.1414C3.37572 17.1937 3.48529 17.3877 3.43291 17.5752C3.33092 17.9404 3.24375 18.3142 3.1738 18.686C3.16416 18.737 3.14417 18.7832 3.11592 18.8232C3.03908 18.9327 2.90264 18.9934 2.7624 18.9668H2.76309ZM8.47004 10.3363C8.16338 10.5582 7.86258 10.7959 7.57591 11.0433C7.42878 11.1705 7.20619 11.1539 7.07905 11.0068C6.95191 10.8597 6.96879 10.6378 7.11557 10.51C7.41741 10.2495 7.73406 9.99898 8.05726 9.76537C8.21472 9.65132 8.4349 9.68681 8.54894 9.84427C8.63922 9.96935 8.63577 10.1337 8.5517 10.2533C8.52999 10.2843 8.50243 10.3125 8.4697 10.336L8.47004 10.3363ZM3.59107 16.0116C3.41293 15.9337 3.33161 15.7263 3.40948 15.5478C3.56902 15.1829 3.74646 14.8197 3.93666 14.4686C4.02866 14.297 4.24298 14.2343 4.41422 14.3267C4.58512 14.4193 4.64852 14.633 4.55618 14.8042C4.37529 15.1377 4.2068 15.4827 4.05519 15.8296C4.04554 15.8517 4.03383 15.8724 4.02039 15.8913C3.92598 16.0253 3.7475 16.0794 3.59141 16.0112L3.59107 16.0116ZM6.2621 12.3492C6.01298 12.6338 5.77282 12.9333 5.54817 13.2389C5.43309 13.3957 5.21257 13.4294 5.05579 13.3143C4.90109 13.2006 4.86628 12.9846 4.9762 12.8282C4.97758 12.8261 4.97896 12.824 4.98068 12.822C5.2167 12.5001 5.46961 12.1852 5.73182 11.8854C5.86 11.739 6.08258 11.7242 6.22902 11.8524C6.36581 11.9719 6.38752 12.1742 6.28553 12.3196C6.27829 12.3299 6.27037 12.3396 6.2621 12.3492Z" fill="#91B3FA"/>
<path d="M2.88127 21.2851C2.92123 21.2282 2.94466 21.1593 2.94501 21.0845C2.9457 20.903 2.95052 20.7183 2.95879 20.536C2.96775 20.3417 2.81718 20.177 2.62319 20.1683C2.42886 20.1594 2.26381 20.3096 2.25554 20.5043C2.24659 20.6962 2.24176 20.8902 2.24073 21.0814C2.23969 21.2758 2.39681 21.4343 2.59115 21.4353C2.71105 21.436 2.81718 21.3764 2.88127 21.2854V21.2851Z" fill="#91B3FA"/>
</g>
<g opacity="0.3">
<path d="M7.02588 31.189C7.12374 31.0498 7.10892 30.8565 6.98316 30.7342C6.85292 30.6078 6.72336 30.4761 6.5976 30.3435C6.46391 30.2022 6.24098 30.196 6.09971 30.33C5.95775 30.4644 5.95258 30.6867 6.08627 30.8279C6.21858 30.9675 6.35503 31.106 6.49216 31.2393C6.63171 31.3748 6.85464 31.3717 6.99005 31.2325C7.00349 31.2187 7.0152 31.2042 7.02588 31.189Z" fill="#91B3FA"/>
<path d="M27.397 29.8185C27.2775 29.9718 27.0562 29.9994 26.9026 29.8798C26.7492 29.7602 26.7217 29.5394 26.8412 29.3857C27.0687 29.0935 27.2871 28.7872 27.4935 28.4716C27.5989 28.3093 27.8181 28.2631 27.981 28.3696C28.1437 28.4761 28.1895 28.6942 28.083 28.8571C27.9938 28.9939 27.9025 29.1287 27.8091 29.261C27.6761 29.4501 27.5376 29.6376 27.3967 29.8185H27.397ZM28.5527 27.35C28.3769 27.2667 28.3022 27.0565 28.3856 26.8811C28.5458 26.5438 28.6933 26.1961 28.8242 25.8474C28.8921 25.6655 29.0957 25.5731 29.2776 25.6414C29.4596 25.7096 29.5519 25.9129 29.4833 26.0948C29.3455 26.4618 29.1901 26.8277 29.0216 27.1829C29.013 27.2012 29.0027 27.2188 28.9913 27.2346C28.8945 27.3724 28.7098 27.4245 28.5523 27.35H28.5527ZM26.1173 31.2484C25.8365 31.5216 25.5405 31.7869 25.2366 32.0364C25.0864 32.1598 24.8645 32.1381 24.7408 31.9878C24.6174 31.8376 24.6395 31.6157 24.7894 31.492C25.0778 31.2553 25.3593 31.0034 25.6256 30.744C25.7652 30.6082 25.9881 30.6113 26.1239 30.7505C26.2438 30.8739 26.2555 31.0623 26.16 31.1984C26.1476 31.216 26.1335 31.2329 26.1173 31.2487V31.2484ZM29.6129 24.5219C29.423 24.4792 29.3038 24.2907 29.3469 24.1008C29.4289 23.737 29.4964 23.3655 29.5474 22.9965C29.5739 22.8036 29.7517 22.6692 29.9444 22.6957C30.137 22.7223 30.2717 22.9 30.2448 23.0927C30.1911 23.4813 30.1201 23.8727 30.0339 24.2555C30.0236 24.3017 30.0043 24.3441 29.9788 24.3806C29.8992 24.494 29.7566 24.5539 29.6129 24.5215V24.5219ZM23.6747 33.1486C23.3409 33.3533 22.9939 33.547 22.6428 33.7234C22.4691 33.8109 22.2576 33.7409 22.17 33.5673C22.0825 33.3936 22.1525 33.1817 22.3265 33.0942C22.66 32.9264 22.9897 32.7428 23.3067 32.5484C23.4725 32.4468 23.6895 32.4988 23.7912 32.6645C23.867 32.7882 23.8573 32.9398 23.7791 33.0515C23.7523 33.0897 23.7175 33.1231 23.6751 33.149L23.6747 33.1486ZM20.8741 34.4669C20.5027 34.5941 20.1216 34.7071 19.7416 34.8029C19.5528 34.8504 19.3615 34.736 19.314 34.5472C19.2664 34.3584 19.3808 34.1672 19.5696 34.12C19.9307 34.029 20.2929 33.9215 20.6457 33.8009C20.8297 33.7378 21.0299 33.836 21.0929 34.02C21.1308 34.131 21.1102 34.2478 21.0478 34.3367C21.0065 34.3956 20.9468 34.4421 20.8738 34.4673L20.8741 34.4669ZM17.853 35.144C17.4627 35.1874 17.0661 35.2146 16.6743 35.2253C16.48 35.2305 16.318 35.0772 16.3129 34.8828C16.3077 34.6881 16.461 34.5265 16.6553 34.5214C17.0275 34.5114 17.4044 34.4852 17.7755 34.4442C17.9688 34.4228 18.1428 34.562 18.1642 34.7553C18.1742 34.8442 18.1501 34.9286 18.1025 34.9965C18.0463 35.0765 17.9578 35.1326 17.853 35.1443V35.144ZM14.7565 35.1457C14.3661 35.1026 13.9729 35.0423 13.5881 34.9665C13.3972 34.929 13.2731 34.744 13.3107 34.5531C13.3483 34.3625 13.5336 34.2381 13.7242 34.2757C14.0894 34.3477 14.4629 34.4049 14.8337 34.4459C15.027 34.4673 15.1665 34.6413 15.1451 34.8346C15.1383 34.8956 15.1165 34.9514 15.0835 34.9982C15.0121 35.0999 14.8888 35.1605 14.7565 35.1461V35.1457ZM11.7333 34.4662C11.3629 34.3384 10.9932 34.1934 10.6338 34.0345C10.456 33.956 10.3754 33.7478 10.4543 33.57C10.5329 33.3926 10.741 33.3116 10.9188 33.3905C11.2599 33.5414 11.6113 33.6796 11.9631 33.8009C12.1468 33.8643 12.2446 34.0648 12.1812 34.2485C12.1702 34.2805 12.155 34.3098 12.1364 34.3363C12.0486 34.4614 11.8853 34.519 11.7333 34.4666V34.4662ZM8.93617 33.1414C8.69015 32.9902 8.44586 32.8292 8.21018 32.6635C8.12473 32.6036 8.04031 32.5426 7.95658 32.4812C7.80015 32.3662 7.76191 32.1453 7.88181 31.9889C7.9969 31.8321 8.21741 31.7987 8.37419 31.9137C8.45378 31.9723 8.53407 32.0302 8.61504 32.0871C8.83935 32.2445 9.07123 32.3975 9.30519 32.5412C9.47092 32.6432 9.52261 32.8599 9.42062 33.0256C9.41683 33.0318 9.41269 33.038 9.40856 33.0439C9.30243 33.1952 9.09535 33.2393 8.93617 33.1411V33.1414Z" fill="#91B3FA"/>
<path d="M30.3123 21.3703C30.3526 21.3131 30.376 21.2431 30.3764 21.168C30.3764 20.9775 30.3722 20.7832 30.3643 20.5906C30.3564 20.3962 30.1924 20.2453 29.998 20.2532C29.8037 20.2615 29.6528 20.4252 29.6607 20.6195C29.6683 20.8025 29.6721 20.9868 29.6721 21.168C29.6721 21.3624 29.8295 21.5202 30.0242 21.5202C30.1434 21.5202 30.2489 21.4609 30.3126 21.3703H30.3123Z" fill="#91B3FA"/>
</g>
<path d="M26.0475 17.0978C26.0285 17.0303 25.9686 16.982 25.8986 16.9779L23.8988 16.8614C23.4471 16.0421 22.8613 15.2892 22.1515 14.6387L22.5089 12.6688C22.5213 12.5996 22.4885 12.5303 22.4275 12.4959L20.3323 11.3195C20.2709 11.2851 20.1948 11.2933 20.1424 11.3402L18.6467 12.6709C17.7219 12.4035 16.774 12.2957 15.8392 12.3367L14.6984 10.69C14.6584 10.6325 14.586 10.6063 14.5185 10.6252L12.2051 11.2751C12.1376 11.294 12.0894 11.354 12.0852 11.4239L11.9688 13.4238C11.1494 13.8755 10.3962 14.4612 9.746 15.171L7.77615 14.8137C7.70689 14.8013 7.63764 14.8337 7.60318 14.895L6.42685 16.9903C6.3924 17.0516 6.40067 17.1278 6.44753 17.1802L7.77856 18.6759C7.51118 19.6007 7.40334 20.5486 7.44434 21.4834L5.79769 22.6242C5.74014 22.6642 5.71396 22.7365 5.73291 22.8041L6.38275 25.1174C6.4017 25.185 6.46165 25.2332 6.5316 25.2374L8.53143 25.3538C8.98314 26.1732 9.5689 26.926 10.2787 27.5766L9.92138 29.5464C9.90898 29.6157 9.94137 29.6849 10.0027 29.7194L12.098 30.8957C12.1593 30.9302 12.2354 30.9219 12.2878 30.875L13.7836 29.5444C14.7084 29.8117 15.6562 29.9196 16.591 29.8786L17.7319 31.5252C17.7718 31.5831 17.8442 31.609 17.9117 31.59L20.2251 30.9402C20.2926 30.9212 20.3409 30.8613 20.345 30.7913L20.4615 28.7915C21.2808 28.3398 22.0337 27.754 22.6842 27.0442L24.6541 27.4015C24.723 27.4139 24.7926 27.3815 24.8271 27.3202L26.0034 25.2249C26.0378 25.1636 26.0296 25.0875 25.9827 25.0351L24.652 23.5394C24.9194 22.6146 25.0272 21.6667 24.9862 20.7319L26.6329 19.591C26.6908 19.5511 26.7166 19.4787 26.6977 19.4112L26.0478 17.0978H26.0475Z" fill="#91B3FA"/>
<path d="M17.9678 22.7696C17.0513 23.7361 15.5197 23.7768 14.5532 22.8603C14.085 22.4165 13.8179 21.8166 13.8007 21.1716C13.7835 20.5269 14.0185 19.9136 14.4626 19.4457C15.3791 18.4792 16.9107 18.4385 17.8772 19.355C18.7565 20.1889 18.8695 21.532 18.1925 22.495C18.1253 22.5905 18.0505 22.6825 17.9678 22.7696ZM14.3637 21.1567C14.3768 21.6512 14.5818 22.1108 14.9408 22.4516C15.6816 23.1542 16.8562 23.1232 17.5588 22.382C18.2621 21.6412 18.2304 20.4666 17.4892 19.7637C16.7484 19.0611 15.5738 19.0921 14.8712 19.8333C14.8075 19.9005 14.7496 19.9715 14.6972 20.0459C14.4702 20.3691 14.353 20.755 14.3637 21.1567Z" fill="#BDD0FB"/>
<path d="M21.018 24.5411C21.1341 24.3757 21.243 24.2034 21.3433 24.0246C21.375 23.9684 21.4056 23.9116 21.4353 23.8544C21.582 23.5722 21.7061 23.2786 21.8057 22.9782C21.807 22.974 21.8084 22.9699 21.8098 22.9658C21.8136 22.9541 21.8174 22.9427 21.8212 22.931C21.8284 22.9082 21.8356 22.8855 21.8425 22.8627C21.8611 22.8028 21.8377 22.7401 21.7891 22.706C21.7774 22.6977 21.764 22.6912 21.7495 22.6867C21.6751 22.6636 21.5965 22.7056 21.5734 22.7797C21.4556 23.1622 21.2954 23.5346 21.0976 23.8864C20.1166 25.6347 18.3387 26.6598 16.4719 26.7646C15.4334 26.8228 14.3673 26.5961 13.395 26.0503C13.2244 25.9545 13.06 25.8511 12.9022 25.7402C11.8403 24.9939 11.0736 23.9137 10.7181 22.6474C10.3094 21.1927 10.4917 19.6656 11.2315 18.348C12.7596 15.627 16.2141 14.6574 18.9341 16.1845C19.1019 16.2785 19.2642 16.3809 19.4203 16.4908C20.0977 16.967 20.6634 17.5862 21.0745 18.3056C21.0852 18.3242 21.0993 18.3394 21.1159 18.3511C21.1589 18.3814 21.2178 18.3862 21.2668 18.358C21.3343 18.319 21.3581 18.2336 21.3191 18.1657C20.8874 17.4101 20.2937 16.7602 19.5826 16.2603C19.4186 16.1449 19.248 16.0377 19.0723 15.9388C16.2166 14.3356 12.5887 15.3555 10.9858 18.2102C10.2091 19.5936 10.0179 21.1965 10.4469 22.7235C10.8204 24.0532 11.6249 25.1868 12.7399 25.9707C12.9057 26.0871 13.0783 26.1957 13.2571 26.2963C14.6405 27.0729 16.2434 27.2645 17.7709 26.8355C19.1009 26.462 20.2348 25.6568 21.0183 24.5418L21.018 24.5411Z" fill="#BDD0FB"/>
<g opacity="0.3">
<path d="M40.125 6.53758C40.1791 6.46074 40.1788 6.35427 40.1171 6.27709C40.002 6.13272 39.8811 5.98972 39.7574 5.85225C39.6771 5.763 39.5396 5.75577 39.45 5.83605C39.3604 5.91599 39.3535 6.05381 39.4338 6.14305C39.5517 6.27399 39.6671 6.41009 39.7767 6.54791C39.8514 6.64198 39.9882 6.65714 40.0823 6.58237C40.0988 6.56893 40.113 6.55377 40.1247 6.53723L40.125 6.53758Z" fill="#91B3FA"/>
<path d="M38.9525 5.34857C38.8735 5.43919 38.7364 5.44918 38.6454 5.37028C38.4163 5.17181 38.1744 4.98265 37.9264 4.8083C37.874 4.77143 37.8213 4.73525 37.7675 4.69942C37.6679 4.63258 37.6414 4.49716 37.7082 4.39759C37.7754 4.30593 37.9105 4.27148 38.0101 4.33832C38.0659 4.37588 38.1214 4.41378 38.1762 4.45237C38.4363 4.63499 38.6899 4.83345 38.9301 5.04157C39.0152 5.1153 39.0289 5.24072 38.9655 5.33065C38.9614 5.33651 38.9566 5.34237 38.9518 5.34823L38.9525 5.34857ZM36.8148 4.14054C36.4871 3.97412 36.146 3.82665 35.8011 3.70192C35.6881 3.66092 35.6295 3.53653 35.6705 3.42351C35.7112 3.31119 35.8359 3.25192 35.9489 3.29293C36.3104 3.42351 36.6677 3.57822 37.0115 3.75257C37.1187 3.80701 37.1614 3.93794 37.107 4.0451C37.1022 4.0544 37.0967 4.06336 37.0908 4.07198C37.0295 4.15915 36.9123 4.19016 36.8145 4.14054H36.8148ZM34.7409 3.3925C34.3829 3.31153 34.0159 3.25261 33.6504 3.21643C33.5308 3.20472 33.4436 3.09825 33.4553 2.97869C33.4671 2.85878 33.5732 2.77161 33.6931 2.78332C34.0766 2.82088 34.4615 2.88324 34.8367 2.96766C34.9538 2.99419 35.0276 3.11065 35.001 3.2278C34.9945 3.2564 34.9828 3.28224 34.9669 3.30499C34.9177 3.37493 34.8294 3.41214 34.7409 3.39216V3.3925ZM32.5464 3.17646C32.1787 3.18577 31.8087 3.21816 31.4462 3.2726C31.3273 3.29051 31.2164 3.20851 31.1988 3.08964C31.1812 2.97111 31.2626 2.86016 31.3814 2.84224C31.7615 2.78504 32.1498 2.75128 32.535 2.74128C32.6549 2.73818 32.7548 2.83328 32.7579 2.95319C32.759 3.00143 32.7445 3.04657 32.7187 3.08343C32.6804 3.13787 32.6177 3.17405 32.546 3.17612L32.5464 3.17646ZM30.3657 3.50311C30.0118 3.60165 29.6607 3.72294 29.3216 3.86352C29.2107 3.90969 29.0836 3.85697 29.0374 3.74602C28.9912 3.63507 29.0436 3.50759 29.1549 3.46176C29.5098 3.31429 29.8781 3.18715 30.2489 3.08378C30.3646 3.05173 30.4845 3.11927 30.5166 3.23504C30.5348 3.30051 30.5211 3.36701 30.4849 3.41869C30.457 3.45831 30.4156 3.48898 30.3653 3.50311H30.3657ZM28.3304 4.349C28.0113 4.53059 27.7005 4.73353 27.4069 4.95267C27.3108 5.02434 27.1744 5.0047 27.1027 4.90857C27.031 4.81244 27.0507 4.67633 27.1468 4.60398C27.4548 4.37416 27.7808 4.16122 28.1153 3.97068C28.2197 3.91141 28.3524 3.94793 28.412 4.05234C28.4551 4.12779 28.4478 4.21841 28.401 4.28491C28.3831 4.31041 28.3596 4.33246 28.3307 4.349H28.3304ZM26.5645 5.6666C26.3005 5.91985 26.049 6.19343 25.8168 6.47942C25.741 6.57245 25.6038 6.58692 25.5108 6.51112C25.4174 6.43566 25.4047 6.29956 25.4791 6.20515C25.7227 5.90573 25.9863 5.61905 26.2633 5.35305C26.3502 5.27001 26.4876 5.27277 26.571 5.35925C26.6441 5.4354 26.6506 5.55117 26.592 5.6349C26.5841 5.64627 26.5752 5.65695 26.5645 5.66695V5.6666ZM24.3579 8.4534C24.249 8.40275 24.2022 8.2732 24.2528 8.16432C24.3934 7.86283 24.5529 7.56409 24.7266 7.27708C24.7528 7.23332 24.7793 7.19025 24.8062 7.14683C24.8668 7.04381 25.0043 7.01418 25.106 7.07826C25.2076 7.14201 25.2383 7.27639 25.1745 7.37803C25.149 7.41835 25.1242 7.459 25.0991 7.5007C24.933 7.77565 24.7807 8.06061 24.6467 8.34797C24.6411 8.35968 24.6346 8.37105 24.6274 8.38105C24.5678 8.46581 24.4544 8.4982 24.3576 8.45271L24.3579 8.4534Z" fill="#91B3FA"/>
</g>
<g opacity="0.3">
<path d="M40.3753 17.6419C40.1534 17.9493 39.9104 18.2456 39.6541 18.5229C39.5724 18.6112 39.435 18.6163 39.3468 18.535C39.2585 18.4533 39.2548 18.3159 39.3347 18.2277C39.5793 17.9634 39.8109 17.6805 40.0224 17.3873C40.0927 17.2898 40.2288 17.2681 40.326 17.3383C40.4225 17.4083 40.4449 17.5427 40.3766 17.6398C40.376 17.6405 40.3756 17.6416 40.3749 17.6422L40.3753 17.6419ZM40.6898 16.7647C40.5848 16.7064 40.5469 16.5741 40.6051 16.469C40.7801 16.1527 40.9376 15.823 41.0733 15.4881C41.1185 15.3775 41.2453 15.323 41.3569 15.3685C41.4682 15.4136 41.5216 15.5404 41.4768 15.6517C41.3345 16.0025 41.1695 16.3481 40.9858 16.6795C40.982 16.6864 40.9779 16.693 40.9734 16.6995C40.9104 16.7891 40.7887 16.8188 40.6902 16.7643L40.6898 16.7647ZM38.8306 19.3103C38.5408 19.5549 38.2335 19.784 37.9175 19.9911C37.8169 20.0569 37.6822 20.0287 37.6164 19.9284C37.5506 19.8278 37.5785 19.6938 37.6791 19.6273C37.9806 19.4298 38.2734 19.2114 38.5501 18.9781C38.6421 18.9006 38.7793 18.9123 38.8564 19.004C38.9216 19.0811 38.9236 19.1904 38.8682 19.2693C38.8578 19.2841 38.8451 19.2982 38.8303 19.3106L38.8306 19.3103ZM41.573 14.7252C41.4568 14.6942 41.3883 14.5746 41.4193 14.4585C41.513 14.1095 41.5864 13.7515 41.637 13.3942C41.6539 13.2753 41.7642 13.1926 41.8827 13.2091C42.0016 13.226 42.0846 13.3359 42.0677 13.4552C42.0147 13.83 41.9378 14.2059 41.8396 14.5715C41.8328 14.5967 41.8217 14.6198 41.8076 14.6401C41.7566 14.7128 41.6639 14.7493 41.5733 14.7252H41.573ZM36.929 20.5559C36.5896 20.7233 36.2364 20.8718 35.8791 20.9969C35.7657 21.0365 35.6417 20.9769 35.6017 20.8635C35.5621 20.7502 35.6214 20.6258 35.7351 20.5862C36.0758 20.467 36.4128 20.3253 36.7364 20.1655C36.8442 20.1124 36.9745 20.1565 37.0279 20.2644C37.0644 20.3381 37.0551 20.4229 37.0106 20.4859C36.9903 20.5145 36.9627 20.539 36.929 20.5559ZM34.7837 21.3087C34.4133 21.39 34.0347 21.4496 33.6584 21.4862C33.5388 21.4979 33.4327 21.4104 33.421 21.2908C33.4093 21.1712 33.4968 21.0648 33.6167 21.0534C33.9754 21.0186 34.3365 20.9617 34.69 20.8842C34.8072 20.8584 34.9233 20.9328 34.9491 21.0499C34.9626 21.112 34.9484 21.1736 34.9147 21.2219C34.8844 21.265 34.8389 21.297 34.7834 21.3091L34.7837 21.3087ZM32.52 21.5265C32.1406 21.5168 31.7585 21.4841 31.3847 21.4286C31.2658 21.411 31.1838 21.3004 31.2013 21.1816C31.2189 21.0627 31.3295 20.9807 31.4484 20.9983C31.805 21.0513 32.1692 21.0827 32.531 21.0913C32.6513 21.0944 32.746 21.1943 32.7429 21.3142C32.7419 21.3587 32.7274 21.3997 32.7036 21.4338C32.6633 21.4913 32.5958 21.5282 32.52 21.5265Z" fill="#91B3FA"/>
<path d="M42.1227 12.4296C42.1469 12.3952 42.1613 12.3538 42.162 12.3087C42.1655 12.1226 42.1631 11.9355 42.1555 11.7526C42.1503 11.6327 42.049 11.5393 41.9291 11.5441C41.8092 11.5493 41.7158 11.6506 41.7206 11.7705C41.7279 11.9448 41.7299 12.1233 41.7268 12.3011C41.7248 12.4214 41.8206 12.5203 41.9405 12.5223C42.0152 12.5237 42.0821 12.4868 42.1224 12.4296H42.1227Z" fill="#91B3FA"/>
</g>
<path d="M39.2849 9.41433C39.2722 9.3692 39.2322 9.33681 39.1853 9.33405L37.8471 9.25618C37.5449 8.70799 37.1528 8.20389 36.678 7.76871L36.9171 6.45043C36.9254 6.40426 36.9037 6.35774 36.8627 6.33466L35.4606 5.54768C35.4196 5.52459 35.3686 5.53011 35.3335 5.56146L34.3326 6.45215C33.7137 6.27332 33.0794 6.20097 32.454 6.22853L31.6905 5.12663C31.6636 5.08804 31.6153 5.07046 31.5702 5.08321L30.0221 5.51805C29.977 5.5308 29.9446 5.57077 29.9418 5.61763L29.8639 6.9559C29.3158 7.25808 28.8117 7.65019 28.3765 8.12499L27.0582 7.88587C27.012 7.8776 26.9655 7.8993 26.9424 7.94031L26.1551 9.34232C26.132 9.38332 26.1375 9.43432 26.1689 9.46946L27.0596 10.4704C26.8807 11.0892 26.8084 11.7236 26.836 12.349L25.734 13.1125C25.6955 13.1394 25.6779 13.1876 25.6906 13.2328L26.1255 14.7809C26.1382 14.826 26.1782 14.8584 26.225 14.8611L27.5633 14.939C27.8655 15.4872 28.2573 15.9913 28.7324 16.4265L28.4933 17.7448C28.485 17.7909 28.5067 17.8375 28.5477 17.8605L29.9497 18.6479C29.9907 18.6709 30.0417 18.6654 30.0769 18.6341L31.0778 17.7434C31.6967 17.9222 32.331 17.9946 32.9564 17.967L33.7199 19.0689C33.7468 19.1075 33.795 19.1251 33.8402 19.1123L35.3883 18.6775C35.4334 18.6647 35.4658 18.6248 35.4686 18.5779L35.5464 17.2396C36.0946 16.9375 36.5987 16.5454 37.0339 16.0705L38.3522 16.3097C38.3984 16.3179 38.4449 16.2962 38.468 16.2552L39.2553 14.8532C39.2784 14.8122 39.2729 14.7612 39.2415 14.7261L38.3508 13.7251C38.5296 13.1063 38.602 12.472 38.5744 11.8466L39.6763 11.083C39.7149 11.0562 39.7325 11.0079 39.7197 10.9628L39.2849 9.41468V9.41433Z" fill="#91B3FA"/>
<path d="M33.8993 13.2288C33.5967 13.5479 33.1884 13.7298 32.7491 13.7415C32.3098 13.7532 31.8922 13.593 31.5735 13.2905C30.9154 12.6665 30.8878 11.6245 31.5118 10.9644C32.1362 10.3062 33.1795 10.2787 33.8376 10.9027C34.1567 11.2052 34.3386 11.6135 34.3503 12.0528C34.3596 12.4098 34.2555 12.7526 34.054 13.0396C34.0075 13.1055 33.9561 13.1689 33.8996 13.2285L33.8993 13.2288ZM31.8722 12.9752C32.1069 13.1978 32.4139 13.3156 32.7374 13.307C33.0606 13.2984 33.3611 13.1644 33.5833 12.9301C33.8056 12.6951 33.9234 12.3884 33.9148 12.0649C33.9062 11.7417 33.7721 11.4412 33.5378 11.219C33.0537 10.7597 32.286 10.78 31.8267 11.2641C31.7854 11.3079 31.7478 11.3537 31.7141 11.4016C31.375 11.8843 31.4315 12.5576 31.8719 12.9752H31.8722Z" fill="#BDD0FB"/>
<path d="M36.0222 14.4628C36.1014 14.3501 36.1752 14.2326 36.2441 14.1103C36.3809 13.8671 36.4929 13.6097 36.5773 13.3447L36.5883 13.3089C36.6169 13.2165 36.5807 13.1197 36.506 13.0667C36.4877 13.0539 36.467 13.0436 36.4446 13.0367C36.3299 13.0012 36.2086 13.066 36.1728 13.1804C36.0963 13.4284 35.9926 13.6696 35.8647 13.8967C35.8578 13.9094 35.8506 13.9218 35.8434 13.9339C35.536 14.469 35.1074 14.9073 34.5954 15.2219C34.3173 15.3928 34.0148 15.5272 33.6933 15.6205C33.6905 15.6212 33.6881 15.6219 33.6854 15.6229C33.6775 15.625 33.6695 15.6274 33.6613 15.6298C32.7196 15.8945 31.731 15.7763 30.8779 15.2973C30.7673 15.2353 30.6612 15.1685 30.5588 15.0965C29.8714 14.6134 29.3753 13.9139 29.1448 13.0942C28.8801 12.1525 28.9983 11.164 29.4773 10.3112C29.9562 9.45911 30.7387 8.84269 31.6804 8.57807C32.6221 8.31344 33.6106 8.43163 34.4637 8.91057C34.5723 8.97155 34.6774 9.03771 34.7787 9.10869C35.2173 9.41707 35.5836 9.81779 35.8496 10.2836C35.8661 10.3122 35.8878 10.336 35.9133 10.3536C35.9802 10.4004 36.0708 10.4077 36.1462 10.3646C36.2503 10.3047 36.2868 10.1723 36.2272 10.0676C35.9295 9.54628 35.5198 9.09801 35.0292 8.7531C34.9158 8.67351 34.7983 8.59943 34.677 8.53121C33.7226 7.99541 32.6166 7.86345 31.5629 8.15942C30.5092 8.4554 29.6337 9.14314 29.0983 10.0983C28.5625 11.0527 28.4302 12.1584 28.7265 13.2121C28.9839 14.1293 29.5393 14.9114 30.3083 15.4524C30.4224 15.5327 30.5416 15.6078 30.665 15.677C32.5128 16.7142 34.8286 16.1605 36.0218 14.4628H36.0222Z" fill="#BDD0FB"/>
<path d="M68.8937 9.99121V96.48C68.8937 97.0513 68.6625 97.5671 68.269 97.8854C67.9703 98.1277 67.5933 98.2817 67.1781 98.2658L66.2309 98.231C65.2734 98.1949 64.4099 97.3186 64.4099 96.3177V10.138L68.8937 9.99156V9.99121Z" fill="url(#paint1_linear_987_8740)"/>
<path d="M70.6957 6.88858C70.6957 8.34814 69.9542 9.65471 68.8372 10.4231C68.2087 10.8558 67.4613 11.1177 66.662 11.1415C66.265 11.1532 65.8808 11.1063 65.5191 11.0068C65.2465 10.9323 64.9867 10.8286 64.7421 10.6987C64.6804 10.665 64.6184 10.6315 64.5577 10.594C63.4155 9.9059 62.6558 8.63447 62.6558 7.15734C62.6558 4.8891 64.4464 2.98575 66.6616 2.90409C68.8854 2.82208 70.6954 4.60484 70.6954 6.88893L70.6957 6.88858Z" fill="url(#paint2_linear_987_8740)"/>
<path d="M68.8491 6.73907C68.8491 7.87371 68.2726 8.88947 67.4043 9.48694C66.9157 9.82357 66.3348 10.0269 65.7132 10.0455C65.4045 10.0548 65.1061 10.0182 64.8246 9.94072C64.6127 9.88284 64.4108 9.80221 64.2202 9.70125C64.172 9.67507 64.1241 9.64888 64.0769 9.61959C63.1886 9.08484 62.5984 8.09629 62.5984 6.94753C62.5984 5.18407 63.9904 3.70418 65.7129 3.64079C67.4419 3.57704 68.8491 4.96321 68.8491 6.73873V6.73907Z" fill="url(#paint3_linear_987_8740)"/>
<path d="M36.4832 13.0823L36.8274 13.2601L43.3503 9.26074L75.2948 13.9829L79.7631 14.4943L79.4995 15.3284C79.4637 15.418 74.3804 19.1224 74.3804 19.1224L78.3369 24.3153L78.1467 24.8493C78.124 24.9127 78.0623 24.9513 77.9986 24.9413L73.8907 24.3049L41.9283 19.3536C41.8387 19.3398 41.7564 19.2964 41.693 19.2299L36.5528 13.8489C36.4853 13.7783 36.4501 13.6808 36.4556 13.5805L36.4836 13.0823H36.4832Z" fill="url(#paint4_linear_987_8740)"/>
<path d="M43.7108 8.90897L79.7628 14.4936C79.7962 14.4988 79.8059 14.5443 79.778 14.5646L74.6978 18.281C74.6289 18.3313 74.6106 18.4295 74.6564 18.5019L78.2895 24.2409C78.3074 24.2691 78.2843 24.3067 78.2519 24.3019L42.1772 18.7134C42.0741 18.6976 41.979 18.6487 41.9049 18.5732L36.5284 13.1278C36.5057 13.1047 36.5109 13.0651 36.5388 13.0485L43.3855 8.97306C43.4844 8.91414 43.5988 8.89174 43.7108 8.90897Z" fill="url(#paint5_linear_987_8740)"/>
<path d="M39.6196 46.7963L39.9856 46.8859L45.2256 41.6024L76.4621 38.7408L80.6309 38.2198C80.7174 38.2091 80.7929 38.2791 80.788 38.3663L80.7518 39.0478C80.7388 39.1408 76.777 43.8158 76.777 43.8158L81.7025 47.8238L81.6453 48.373C81.6384 48.4381 81.5888 48.4888 81.5264 48.4943L77.503 48.8347L46.1969 51.4837C46.1094 51.4913 46.0216 51.4689 45.9464 51.4206L39.8605 47.5061C39.7805 47.4547 39.7251 47.3707 39.7075 47.2742L39.6196 46.7959V46.7963Z" fill="#7D97F4"/>
<path d="M45.4854 41.1874L80.6922 38.2083C80.7646 38.2021 80.808 38.2865 80.7615 38.342L76.8849 42.9471C76.8318 43.0101 76.837 43.1087 76.8959 43.1659L81.6432 47.7668C81.6663 47.7892 81.6525 47.8288 81.6201 47.8316L46.2862 50.8213C46.1856 50.8299 46.0843 50.8055 45.9971 50.751L39.6734 46.8299C39.6462 46.813 39.6417 46.7748 39.6648 46.7524L45.1932 41.3228C45.2732 41.2443 45.3759 41.1967 45.4854 41.1874Z" fill="#91B3FA"/>
<path opacity="0.56" d="M66.3045 42.2447L46.6806 43.7788C46.608 43.7845 46.5537 43.848 46.5594 43.9206L46.63 44.8247C46.6357 44.8974 46.6992 44.9517 46.7719 44.946L66.3957 43.4119C66.4684 43.4063 66.5227 43.3427 66.517 43.2701L66.4463 42.366C66.4406 42.2933 66.3771 42.239 66.3045 42.2447Z" fill="white"/>
<path opacity="0.56" d="M66.4095 46.5095L46.9425 48.031C46.8702 48.0365 46.8061 47.9821 46.8006 47.9097L46.7348 47.0663C46.7292 46.9939 46.7837 46.9298 46.856 46.9243L66.323 45.4027C66.3954 45.3972 66.4595 45.4517 66.465 45.524L66.5308 46.3675C66.5363 46.4399 66.4818 46.5039 66.4095 46.5095Z" fill="white"/>
<path d="M96.4525 29.1501L96.0732 29.301L89.4973 25.0439L55.2738 27.6698L50.5085 27.942L50.7029 28.6877C50.7332 28.7766 55.8158 32.6884 55.8158 32.6884L51.1942 37.4633L51.3513 37.9905C51.3699 38.0532 51.4323 38.0938 51.5005 38.0883L55.9037 37.7224L90.165 34.8763C90.2608 34.8684 90.3518 34.8315 90.4248 34.7712L96.3154 29.886C96.3926 29.822 96.4381 29.73 96.4405 29.6328L96.4522 29.1501H96.4525Z" fill="url(#paint6_linear_987_8740)"/>
<path d="M89.1446 24.6829L50.5797 27.8863C50.5163 27.8915 50.4925 27.9721 50.5428 28.0111L55.5486 31.857C55.6164 31.9094 55.6278 32.0066 55.5737 32.0731L51.2509 37.3927C51.2295 37.4193 51.2502 37.4585 51.2839 37.4554L89.9536 34.2435C90.0638 34.2342 90.1686 34.1928 90.2537 34.1246L96.4 29.1915C96.4255 29.1712 96.423 29.1319 96.3955 29.1143L89.4829 24.7643C89.383 24.7015 89.2638 24.6726 89.1439 24.6826L89.1446 24.6829Z" fill="url(#paint7_linear_987_8740)"/>
<path opacity="0.56" d="M88.5138 27.2335L69.3469 28.7319C69.2742 28.7376 69.2199 28.8011 69.2256 28.8738L69.2991 29.8139C69.3048 29.8866 69.3683 29.9409 69.441 29.9352L88.6079 28.4369C88.6806 28.4312 88.7349 28.3677 88.7292 28.295L88.6557 27.3548C88.65 27.2821 88.5865 27.2278 88.5138 27.2335Z" fill="white"/>
<path opacity="0.56" d="M88.545 30.4877L69.5312 31.9741C69.4586 31.9798 69.4043 32.0433 69.4099 32.1159L69.4786 32.994C69.4843 33.0666 69.5478 33.1209 69.6204 33.1152L88.6342 31.6288C88.7068 31.6232 88.7611 31.5597 88.7555 31.487L88.6868 30.609C88.6811 30.5363 88.6176 30.482 88.545 30.4877Z" fill="white"/>
<path d="M67.9975 17.887C68.1187 17.1405 67.6118 16.4372 66.8653 16.316C66.1189 16.1948 65.4155 16.7017 65.2943 17.4482C65.1732 18.1947 65.6801 18.898 66.4265 19.0192C67.173 19.1404 67.8764 18.6335 67.9975 17.887Z" fill="url(#paint8_linear_987_8740)"/>
<path d="M66.7368 18.2885C67.2007 18.2885 67.5768 17.9124 67.5768 17.4484C67.5768 16.9845 67.2007 16.6084 66.7368 16.6084C66.2728 16.6084 65.8967 16.9845 65.8967 17.4484C65.8967 17.9124 66.2728 18.2885 66.7368 18.2885Z" fill="url(#paint9_linear_987_8740)"/>
<path d="M67.7075 31.8742C67.8748 31.1654 67.4359 30.4552 66.7271 30.2879C66.0183 30.1206 65.3081 30.5596 65.1408 31.2684C64.9735 31.9772 65.4125 32.6874 66.1213 32.8547C66.83 33.0219 67.5402 32.583 67.7075 31.8742Z" fill="url(#paint10_linear_987_8740)"/>
<path d="M66.5167 32.1734C66.9637 32.1734 67.326 31.8111 67.326 31.3641C67.326 30.9171 66.9637 30.5547 66.5167 30.5547C66.0696 30.5547 65.7073 30.9171 65.7073 31.3641C65.7073 31.8111 66.0696 32.1734 66.5167 32.1734Z" fill="url(#paint11_linear_987_8740)"/>
<path d="M67.4757 45.0156C68.0107 44.4806 68.0107 43.6132 67.4757 43.0782C66.9407 42.5432 66.0733 42.5432 65.5383 43.0782C65.0033 43.6132 65.0033 44.4806 65.5383 45.0156C66.0733 45.5506 66.9407 45.5506 67.4757 45.0156Z" fill="url(#paint12_linear_987_8740)"/>
<path d="M67.4168 44.0192C67.5234 43.5673 67.2436 43.1145 66.7916 43.0078C66.3397 42.9011 65.8869 43.181 65.7803 43.6329C65.6736 44.0848 65.9535 44.5376 66.4054 44.6443C66.8573 44.751 67.3101 44.4711 67.4168 44.0192Z" fill="url(#paint13_linear_987_8740)"/>
<path opacity="0.56" d="M62.7164 14.4034L45.177 11.6348C45.105 11.6235 45.0374 11.6726 45.0261 11.7446L44.8932 12.5863C44.8818 12.6583 44.931 12.7259 45.003 12.7372L62.5424 15.5058C62.6144 15.5171 62.6819 15.468 62.6933 15.396L62.8262 14.5543C62.8375 14.4823 62.7884 14.4148 62.7164 14.4034Z" fill="white"/>
<path opacity="0.56" d="M62.0459 17.3373L44.6467 14.5909C44.5747 14.5795 44.5071 14.6287 44.4958 14.7007L44.3719 15.4855C44.3605 15.5575 44.4097 15.6251 44.4817 15.6364L61.8809 18.3829C61.9528 18.3942 62.0204 18.3451 62.0318 18.2731L62.1557 17.4882C62.167 17.4162 62.1179 17.3487 62.0459 17.3373Z" fill="white"/>
<path d="M37.2411 54.4995C26.3837 54.2166 14.3733 57.1329 14.3733 57.1329C11.5138 72.9114 12.7718 90.7586 13.2587 96.164C13.35 97.1764 14.107 97.9981 15.1066 98.1821C20.717 99.2134 26.6338 98.5877 29.6105 98.1346C30.7685 97.9582 31.6944 97.084 31.9404 95.939C33.9071 86.7841 39.5262 66.5863 39.5262 66.5863C44.8383 65.9785 49.2235 64.4893 52.8421 62.4998C50.127 59.2913 48.8714 55.2293 48.3322 52.8301C44.4813 53.9868 40.5902 54.587 37.2414 54.4995H37.2411Z" fill="url(#paint14_linear_987_8740)"/>
<path d="M69.4697 38.8102C68.4153 37.5116 67.425 37.5677 67.425 37.5677C65.7625 44.3025 56.9659 50.2362 48.3323 52.8293C48.8715 55.2285 50.1271 59.2902 52.8422 62.4991C67.2049 54.6028 69.4697 38.8102 69.4697 38.8102Z" fill="url(#paint15_linear_987_8740)"/>
<path d="M69.2067 39.1359C69.3149 39.4919 68.0172 40.0197 67.2699 38.5612C67.2499 37.8655 66.8554 34.8817 67.2764 34.319C69.5188 31.3223 73.8465 27.5801 73.8465 27.5801C74.5649 28.3026 73.9609 29 73.9609 29L71.8584 31.149C72.2864 31.9401 72.8111 32.6093 73.0509 33.5637C73.2325 34.2863 73.1098 35.0557 72.7394 35.7079C72.3677 36.3629 71.8608 37.214 71.3833 37.879C70.4791 39.138 69.2067 39.1356 69.2067 39.1356V39.1359Z" fill="url(#paint16_linear_987_8740)"/>
<path d="M70.9345 32.5479L69.0218 34.138L68.4109 35.7337L70.0844 37.6263C70.0844 37.6263 70.6836 34.4546 71.1126 33.771C71.5419 33.0874 71.3259 32.7529 70.9341 32.5482L70.9345 32.5479Z" fill="url(#paint17_linear_987_8740)"/>
<path d="M18.4376 67.6874L14.3729 57.1328C14.3729 57.1328 4.16424 63.9279 2.41284 72.6497C4.32791 72.8093 7.81072 73.3409 11.2077 75.0971C11.9971 70.9783 18.4376 67.6874 18.4376 67.6874Z" fill="url(#paint18_linear_987_8740)"/>
<path d="M27.2069 77.6659C27.2069 77.6659 15.7575 83.993 11.9673 78.4608C11.1804 77.312 11.0005 76.1763 11.2076 75.0968C7.81056 73.3406 4.32774 72.8089 2.41268 72.6494C1.88481 75.2788 2.12394 78.0831 3.64448 80.9292C10.2576 93.3058 28.6871 80.4875 28.6871 80.4875L27.2069 77.6652V77.6659Z" fill="url(#paint19_linear_987_8740)"/>
<path d="M26.3252 45.5781L22.7745 55.5373C22.7156 55.7023 22.7821 55.8863 22.9344 55.9725C23.8712 56.5021 27.25 58.0398 31.364 55.486C31.7927 55.22 32.0869 54.7824 32.1562 54.2828L33.3576 45.6453L26.3248 45.5781H26.3252Z" fill="url(#paint20_linear_987_8740)"/>
<path d="M33.9324 36.3965C33.9324 36.3965 37.6585 43.5747 37.1447 46.4552C36.631 49.3354 31.9305 49.0835 27.8468 46.7012L25.051 38.9621L33.9324 36.3965Z" fill="url(#paint21_linear_987_8740)"/>
<path d="M28.0636 42.9163C28.231 42.844 28.2948 42.6403 28.1962 42.4866C27.8964 42.0194 27.3358 41.0667 27.1618 40.2353C27.1618 40.2353 26.4841 39.7918 28.9074 39.2364C31.331 38.6806 34.9455 37.8168 35.7231 35.7657C36.4812 33.7658 34.5878 28.7008 31.4516 32.6922C31.3324 32.8441 31.1015 32.8452 30.9851 32.6908C30.4837 32.0251 29.1617 30.6403 27.3 31.4545C25.5579 32.2163 25.3505 33.4854 25.3681 34.1262C25.3732 34.3147 25.2034 34.4598 25.0183 34.4226C24.1428 34.2468 22.04 34.0832 21.0369 36.2329C20.211 38.0032 20.7272 39.0152 21.2013 39.5117C21.355 39.6726 21.2843 39.9348 21.071 39.9979C20.4929 40.1688 19.7441 40.6505 19.8058 42.0015C19.8909 43.8694 21.9797 43.7247 22.5747 43.6454C22.6722 43.6323 22.7701 43.6668 22.8352 43.7405C23.3393 44.3094 25.612 46.7254 28.0942 47.0376C28.3092 47.0648 28.4781 46.8539 28.4095 46.6482L27.3641 43.5124C27.3155 43.3667 27.3865 43.2082 27.5274 43.1472L28.0629 42.916L28.0636 42.9163Z" fill="url(#paint22_linear_987_8740)"/>
<path d="M28.4912 43.3636C28.4912 43.3636 25.8074 41.4844 25.5951 43.0435C25.3829 44.6023 28.0064 45.3276 29.3147 44.758L28.4915 43.3636H28.4912Z" fill="url(#paint23_linear_987_8740)"/>
<path d="M24.8671 87.6655L31.104 65.8848C31.175 65.6374 31.3858 65.4572 31.6411 65.4276C32.7713 65.2956 36.0457 64.9256 39.8262 64.6058C44.3799 64.2206 49.6685 63.9084 52.8285 64.1741C53.2778 64.2117 53.5493 64.6871 53.3495 65.0913C51.5526 68.7271 44.1604 83.516 40.4588 88.3608C40.3361 88.5214 40.1466 88.6151 39.9444 88.6134L25.4735 88.4787C25.0525 88.4749 24.751 88.0707 24.8667 87.6659L24.8671 87.6655Z" fill="url(#paint24_linear_987_8740)"/>
<path d="M26.3741 82.4028C26.3741 82.4028 25.5051 78.8304 25.8559 77.5628C26.2063 76.2952 26.8854 74.6657 29.1485 75.0279C31.4119 75.39 34.0816 76.3434 34.0816 76.3434C34.0816 76.3434 33.9468 77.9942 32.2264 77.4619L33.2932 78.2871C33.2932 78.2871 33.1406 79.6088 31.6879 78.9028L32.6799 79.9975C32.6799 79.9975 32.0559 81.0832 30.9867 80.3868C29.9179 79.6905 29.4052 82.8332 26.3737 82.4028H26.3741Z" fill="url(#paint25_linear_987_8740)"/>
<path d="M39.4102 71.1074C39.4102 72.1186 40.2299 72.938 41.2411 72.938C42.2524 72.938 43.0718 72.1183 43.0718 71.1074C43.0718 70.0964 42.2521 69.2764 41.2411 69.2764C40.2302 69.2764 39.4102 70.0961 39.4102 71.1074Z" fill="#91B3FA"/>
<path d="M31.8097 72.3138L33.0794 68.0061C33.2351 67.4772 33.6606 67.0799 34.1892 66.9693C38.1692 66.1389 49.0628 65.9629 49.1724 65.9611L49.1652 65.4746C48.7158 65.4815 38.1151 65.6534 34.09 66.4931C33.3857 66.6399 32.8196 67.1671 32.6125 67.8683L31.3428 72.176L31.8097 72.3138Z" fill="#BDD0FB"/>
<path d="M68.4193 98.1333C68.2908 98.1116 68.1774 98.04 68.1034 97.9328C67.0214 96.373 59.1824 84.1866 70.4715 73.6375C81.1884 63.6232 85.964 61.6492 86.7844 55.5901C86.8802 54.8824 87.8453 54.7429 88.1406 55.3931C90.3475 60.2517 93.6673 71.5305 81.2656 78.4672C67.5851 86.1189 68.4018 95.0127 68.9703 97.551C69.0454 97.8866 68.7584 98.1905 68.4193 98.1333Z" fill="#91B3FA"/>
<path d="M70.0764 98.4133C69.7721 98.362 69.5378 98.1187 69.5006 97.8127C69.2467 95.7292 68.7074 87.9562 74.4809 86.0843C80.8366 84.0234 85.7222 90.0377 90.4874 85.605C90.7383 85.3717 91.14 85.595 91.0715 85.9302C90.5836 88.3098 88.5755 93.7928 80.3932 94.6473C71.6352 95.5617 70.6218 96.531 70.7583 97.7772C70.8003 98.1614 70.4578 98.4774 70.0764 98.413V98.4133Z" fill="#91B3FA"/>
<path opacity="0.47" d="M86.213 61.7575C86.0828 62.1924 85.916 62.6051 85.7252 63.0107C85.5353 63.4156 85.3258 63.8115 85.1005 64.1977C84.8755 64.5843 84.6346 64.9626 84.3741 65.3265C84.115 65.6914 83.8452 66.0501 83.5579 66.3936C82.415 67.7753 81.0591 68.9771 79.581 69.9908C78.8429 70.4966 78.0628 70.9538 77.2814 71.3721C76.5116 71.786 75.7694 72.2525 75.0565 72.7607C73.6318 73.7779 72.3245 74.9628 71.1751 76.2838C70.0246 77.6045 69.0391 79.0682 68.2559 80.6332C67.4714 82.1972 66.9049 83.8728 66.6 85.5976C66.2937 87.3225 66.2492 89.0932 66.4491 90.8384C66.6455 92.5857 67.1013 94.3009 67.7246 95.951C67.7429 95.9982 67.7191 96.0513 67.6719 96.0692C67.6257 96.0868 67.5737 96.064 67.5548 96.0189C66.8718 94.3774 66.3757 92.6491 66.1366 90.878C66.0129 89.9932 65.9564 89.0984 65.965 88.2036C65.9791 87.3091 66.0525 86.4136 66.2003 85.5298C66.4887 83.7608 67.0459 82.0363 67.8283 80.423C68.6112 78.8084 69.6242 77.3106 70.7923 75.9531C71.9631 74.5962 73.2945 73.3795 74.7488 72.3314C75.4766 71.808 76.2353 71.3267 77.0243 70.898L77.6049 70.581C77.7985 70.4783 77.9867 70.3671 78.1751 70.2554L78.458 70.089L78.7354 69.9136L79.0128 69.7382L79.285 69.5553C80.0099 69.0656 80.7108 68.5392 81.3703 67.9641C82.0304 67.3904 82.6593 66.7785 83.235 66.1183C83.8177 65.4643 84.3479 64.7638 84.83 64.0309C85.3069 63.2974 85.7369 62.52 86.0521 61.7083L86.0542 61.7027C86.0711 61.6597 86.1193 61.6383 86.1624 61.6552C86.2031 61.671 86.2244 61.7158 86.212 61.7572L86.213 61.7575Z" fill="white"/>
<path opacity="0.47" d="M69.8136 96.9941C69.828 96.9214 69.8256 96.8511 69.8249 96.7797L69.826 96.5665C69.8277 96.4245 69.8315 96.2822 69.8363 96.1402C69.847 95.8563 69.8635 95.5724 69.8863 95.2892C69.9321 94.7227 70.001 94.158 70.0971 93.5971C70.2925 92.4776 70.5881 91.3664 71.0781 90.331C71.3224 89.8141 71.6208 89.3197 71.9829 88.8724C72.3433 88.4242 72.7785 88.0324 73.2709 87.7282C73.765 87.4277 74.3177 87.2203 74.8879 87.1241C75.1725 87.0749 75.4613 87.047 75.7497 87.0459C76.0381 87.0401 76.3261 87.0604 76.6118 87.0935C76.8988 87.1286 77.1758 87.1789 77.4563 87.2261L78.2946 87.3743C78.8528 87.4759 79.4099 87.5834 79.966 87.6944C81.0786 87.9149 82.1864 88.1568 83.2983 88.3615C83.8544 88.4624 84.4119 88.553 84.9718 88.6092C85.531 88.664 86.0944 88.684 86.6481 88.6199C87.2015 88.5599 87.7435 88.4031 88.2324 88.1382C88.723 87.8756 89.1565 87.5125 89.5417 87.1059C89.57 87.0759 89.6172 87.0745 89.6471 87.1028C89.6768 87.1307 89.6782 87.1775 89.6506 87.2075C89.2623 87.6269 88.8205 88.0069 88.313 88.286C87.8075 88.5678 87.2425 88.7381 86.6705 88.8066C86.0975 88.8749 85.521 88.8552 84.9532 88.8011C84.385 88.7456 83.8227 88.6557 83.2635 88.5558C82.1454 88.3532 81.0376 88.1144 79.9261 87.8973C78.8162 87.6803 77.6985 87.4711 76.5859 87.3054C76.3092 87.2713 76.0305 87.2492 75.7524 87.2533C75.474 87.2523 75.1963 87.2771 74.9227 87.3226C74.3745 87.4108 73.8456 87.6055 73.3698 87.8898C72.8957 88.1778 72.4736 88.5517 72.1208 88.9844C71.7662 89.4158 71.4713 89.8965 71.227 90.4019C70.7356 91.4136 70.431 92.5106 70.2267 93.6194C70.1257 94.1749 70.0517 94.7355 70.0007 95.2981C69.9752 95.5796 69.9562 95.8615 69.9428 96.1437C69.9362 96.285 69.9314 96.4259 69.9283 96.5672L69.9252 96.7791C69.9245 96.8493 69.9228 96.9207 69.9404 96.9896C69.9493 97.0244 69.9283 97.0595 69.8935 97.0685C69.8587 97.0775 69.8236 97.0564 69.8146 97.0216C69.8122 97.012 69.8119 97.002 69.8136 96.993V96.9941Z" fill="white"/>
<defs>
<linearGradient id="paint0_linear_987_8740" x1="-3.28608" y1="110.737" x2="66.9308" y2="34.9468" gradientUnits="userSpaceOnUse">
<stop stop-color="#DAE3FE"/>
<stop offset="1" stop-color="#E9EFFD"/>
</linearGradient>
<linearGradient id="paint1_linear_987_8740" x1="64.4099" y1="54.1294" x2="68.8937" y2="54.1294" gradientUnits="userSpaceOnUse">
<stop stop-color="#FE7062"/>
<stop offset="1" stop-color="#FF928E"/>
</linearGradient>
<linearGradient id="paint2_linear_987_8740" x1="61.9318" y1="-0.91812" x2="71.8397" y2="15.6663" gradientUnits="userSpaceOnUse">
<stop stop-color="#E1473D"/>
<stop offset="1" stop-color="#E9605A"/>
</linearGradient>
<linearGradient id="paint3_linear_987_8740" x1="62.0354" y1="0.669298" x2="69.7384" y2="13.5634" gradientUnits="userSpaceOnUse">
<stop stop-color="#FE7062"/>
<stop offset="1" stop-color="#FF928E"/>
</linearGradient>
<linearGradient id="paint4_linear_987_8740" x1="59.6962" y1="-0.202583" x2="55.6639" y2="29.4259" gradientUnits="userSpaceOnUse">
<stop stop-color="#E1473D"/>
<stop offset="1" stop-color="#E9605A"/>
</linearGradient>
<linearGradient id="paint5_linear_987_8740" x1="58.3533" y1="8.80067" x2="56.5994" y2="33.9423" gradientUnits="userSpaceOnUse">
<stop stop-color="#FE7062"/>
<stop offset="1" stop-color="#FF928E"/>
</linearGradient>
<linearGradient id="paint6_linear_987_8740" x1="72.9811" y1="-27.8619" x2="73.212" y2="-1.77662" gradientUnits="userSpaceOnUse">
<stop stop-color="#4F52FF"/>
<stop offset="1" stop-color="#4042E2"/>
</linearGradient>
<linearGradient id="paint7_linear_987_8740" x1="96.8114" y1="10.5959" x2="139.518" y2="-22.4147" gradientUnits="userSpaceOnUse">
<stop stop-color="#4F52FF"/>
<stop offset="1" stop-color="#4042E2"/>
</linearGradient>
<linearGradient id="paint8_linear_987_8740" x1="67.5152" y1="13.6616" x2="63.532" y2="32.0208" gradientUnits="userSpaceOnUse">
<stop stop-color="#E1473D"/>
<stop offset="1" stop-color="#E9605A"/>
</linearGradient>
<linearGradient id="paint9_linear_987_8740" x1="66.6679" y1="14.3147" x2="66.7568" y2="18.3546" gradientUnits="userSpaceOnUse">
<stop stop-color="#E1473D"/>
<stop offset="1" stop-color="#E9605A"/>
</linearGradient>
<linearGradient id="paint10_linear_987_8740" x1="67.2592" y1="27.7185" x2="63.4229" y2="45.402" gradientUnits="userSpaceOnUse">
<stop stop-color="#E1473D"/>
<stop offset="1" stop-color="#E9605A"/>
</linearGradient>
<linearGradient id="paint11_linear_987_8740" x1="66.4501" y1="28.3457" x2="66.5356" y2="32.2368" gradientUnits="userSpaceOnUse">
<stop stop-color="#E1473D"/>
<stop offset="1" stop-color="#E9605A"/>
</linearGradient>
<linearGradient id="paint12_linear_987_8740" x1="67.3759" y1="40.0413" x2="63.3903" y2="58.4115" gradientUnits="userSpaceOnUse">
<stop stop-color="#E1473D"/>
<stop offset="1" stop-color="#E9605A"/>
</linearGradient>
<linearGradient id="paint13_linear_987_8740" x1="66.528" y1="40.6932" x2="66.6169" y2="44.7356" gradientUnits="userSpaceOnUse">
<stop stop-color="#E1473D"/>
<stop offset="1" stop-color="#E9605A"/>
</linearGradient>
<linearGradient id="paint14_linear_987_8740" x1="26.1952" y1="53.0006" x2="51.0776" y2="148.797" gradientUnits="userSpaceOnUse">
<stop stop-color="#4F52FF"/>
<stop offset="1" stop-color="#4042E2"/>
</linearGradient>
<linearGradient id="paint15_linear_987_8740" x1="48.3445" y1="49.8875" x2="69.3458" y2="50.0854" gradientUnits="userSpaceOnUse">
<stop stop-color="#FEBBBA"/>
<stop offset="1" stop-color="#FF928E"/>
</linearGradient>
<linearGradient id="paint16_linear_987_8740" x1="64.7126" y1="46.7468" x2="50.3182" y2="78.677" gradientUnits="userSpaceOnUse">
<stop stop-color="#FEBBBA"/>
<stop offset="1" stop-color="#FF928E"/>
</linearGradient>
<linearGradient id="paint17_linear_987_8740" x1="69.3765" y1="36.0873" x2="75.3417" y2="27.1019" gradientUnits="userSpaceOnUse">
<stop stop-color="#FEBBBA"/>
<stop offset="1" stop-color="#FF928E"/>
</linearGradient>
<linearGradient id="paint18_linear_987_8740" x1="7.25012" y1="57.9446" x2="31.5847" y2="151.633" gradientUnits="userSpaceOnUse">
<stop stop-color="#4F52FF"/>
<stop offset="1" stop-color="#4042E2"/>
</linearGradient>
<linearGradient id="paint19_linear_987_8740" x1="2.10572" y1="79.4" x2="28.6825" y2="79.6505" gradientUnits="userSpaceOnUse">
<stop stop-color="#FEBBBA"/>
<stop offset="1" stop-color="#FF928E"/>
</linearGradient>
<linearGradient id="paint20_linear_987_8740" x1="22.7816" y1="51.1807" x2="33.2895" y2="51.2797" gradientUnits="userSpaceOnUse">
<stop stop-color="#FEBBBA"/>
<stop offset="1" stop-color="#FF928E"/>
</linearGradient>
<linearGradient id="paint21_linear_987_8740" x1="35.8724" y1="44.648" x2="24.3854" y2="37.4916" gradientUnits="userSpaceOnUse">
<stop stop-color="#FEBBBA"/>
<stop offset="1" stop-color="#FF928E"/>
</linearGradient>
<linearGradient id="paint22_linear_987_8740" x1="18.3394" y1="30.0058" x2="33.1539" y2="41.936" gradientUnits="userSpaceOnUse">
<stop stop-color="#09005D"/>
<stop offset="1" stop-color="#1A0F91"/>
</linearGradient>
<linearGradient id="paint23_linear_987_8740" x1="32.8119" y1="47.2473" x2="22.4767" y2="40.8085" gradientUnits="userSpaceOnUse">
<stop stop-color="#FEBBBA"/>
<stop offset="1" stop-color="#FF928E"/>
</linearGradient>
<linearGradient id="paint24_linear_987_8740" x1="35.8217" y1="62.5443" x2="50.4872" y2="123.651" gradientUnits="userSpaceOnUse">
<stop stop-color="#09005D"/>
<stop offset="1" stop-color="#1A0F91"/>
</linearGradient>
<linearGradient id="paint25_linear_987_8740" x1="25.7725" y1="78.7102" x2="34.0819" y2="78.7102" gradientUnits="userSpaceOnUse">
<stop stop-color="#FEBBBA"/>
<stop offset="1" stop-color="#FF928E"/>
</linearGradient>
</defs>
</svg>
