<svg width="50" height="46" viewBox="0 0 50 46" fill="none" xmlns="http://www.w3.org/2000/svg">
<path d="M38.3611 15.1406L42.5974 14.1543C42.5974 14.1543 45.4298 13.8997 45.8128 16.4172C46.1958 18.9346 46.0848 33.8498 45.9649 36.9258C45.9254 37.9396 45.9303 38.8764 46.0166 39.6933C46.1963 41.3947 44.8688 42.881 43.1581 42.9107L35.2715 43.0473L38.3612 15.1406H38.3611Z" fill="url(#paint0_linear_3028_12894)"/>
<path d="M36.1076 44.2592C36.1076 44.2592 36.9539 32.3928 42.9731 25.1594C43.0516 25.0651 43.1874 25.0887 43.229 25.2047C43.8848 27.0371 47.5714 38.8208 36.1074 44.2592H36.1076Z" fill="#BDD0FB"/>
<path d="M42.7139 28.6029C42.6631 29.2953 42.563 29.9784 42.4468 30.6604C42.3267 31.3413 42.1857 32.0186 42.0196 32.6902C41.6883 34.0335 41.2739 35.3582 40.7642 36.6473C40.5072 37.2909 40.2347 37.9288 39.9297 38.5515C39.7819 38.865 39.6169 39.1704 39.4588 39.4788C39.2907 39.7822 39.1267 40.0878 38.9449 40.3833C38.2404 41.5774 37.4151 42.7028 36.4731 43.7156C36.445 43.7457 36.3979 43.7475 36.3676 43.7194C36.3391 43.6929 36.336 43.6495 36.359 43.6193L36.3598 43.6184C37.1981 42.5318 37.9533 41.3896 38.6083 40.1906C38.7771 39.8937 38.9273 39.5867 39.0881 39.2857C39.2375 38.9785 39.3937 38.675 39.5328 38.3631C39.6026 38.2073 39.6784 38.0543 39.746 37.8974L39.9522 37.4285C40.0198 37.2716 40.0833 37.1132 40.1489 36.9556C40.2155 36.7984 40.2775 36.6391 40.3388 36.4798C40.4661 36.1628 40.5843 35.8422 40.7038 35.5219C40.8177 35.1997 40.9316 34.8775 41.038 34.5525C41.2576 33.9048 41.4527 33.2489 41.6409 32.5909C41.8254 31.9317 41.9969 31.2682 42.1509 30.6005C42.3079 29.9338 42.4472 29.2605 42.5656 28.587L42.5659 28.5848C42.573 28.5442 42.6118 28.517 42.6524 28.5242C42.6905 28.531 42.7166 28.5656 42.7139 28.6033V28.6029Z" fill="url(#paint1_linear_3028_12894)"/>
<path d="M36.8535 42.9603C36.8535 42.9603 43.0586 32.5228 49.8095 32.3594C49.9293 32.3565 50.0202 32.4666 49.9955 32.5837C49.7081 33.9481 47.6982 41.09 36.8535 42.9603Z" fill="#91B3FA"/>
<path d="M48.3814 34.0154C47.9723 34.4448 47.5511 34.8581 47.1241 35.2672C46.9084 35.4692 46.6927 35.671 46.4747 35.8706C46.2549 36.0679 46.0375 36.2683 45.8155 36.4632C44.9297 37.2455 44.0162 37.9968 43.0787 38.7167C42.6136 39.0814 42.1316 39.4239 41.6561 39.7748L40.9286 40.2816C40.8071 40.3657 40.6865 40.4512 40.5638 40.5333L40.1924 40.7756C39.2114 41.4358 38.1863 42.0277 37.1539 42.6025C37.1179 42.6226 37.0725 42.6096 37.0524 42.5737C37.0326 42.5381 37.045 42.4935 37.0798 42.473L37.0818 42.472L37.8436 42.0251L38.2244 41.8017C38.3502 41.7254 38.4737 41.6452 38.5985 41.5673L39.3468 41.0987C39.5934 40.9382 39.8371 40.7728 40.0823 40.6102L40.4497 40.3654L40.8113 40.1122L41.5341 39.605C42.0066 39.254 42.4854 38.9113 42.9476 38.5464C43.416 38.1897 43.874 37.8198 44.3324 37.4504L45.0113 36.8856L45.6819 36.3107C45.9053 36.1189 46.1238 35.9218 46.345 35.7274C46.5643 35.5308 46.7813 35.3321 46.9984 35.1332C47.4305 34.7339 47.8601 34.3293 48.2726 33.9121L48.2737 33.911C48.3027 33.8816 48.3499 33.8814 48.3792 33.9104C48.4083 33.9391 48.4088 33.9855 48.3809 34.0149L48.3814 34.0154Z" fill="#BDD0FB"/>
<path d="M29.7494 15.3452C29.7494 15.3452 37.463 15.769 42.5978 14.1542C42.5978 14.1542 39.1842 13.9203 39.1842 21.8014C39.1842 27.827 40.0778 39.3281 39.2976 41.5114C38.5173 43.6947 35.5998 46.6294 31.4175 44.1072C27.2352 41.585 29.7492 15.3452 29.7492 15.3452H29.7494Z" fill="#7D97F4"/>
<path d="M27.6994 3.52947C27.6994 3.52947 36.2101 4.45718 37.3065 3.01467C37.3065 3.01467 36.4343 0.418498 33.8443 0.591129C31.2543 0.763759 27.6992 3.52947 27.6992 3.52947H27.6994Z" fill="url(#paint2_linear_3028_12894)"/>
<path d="M0.0186701 6.4504C0.76087 14.7909 2.31962 32.4324 2.99781 41.026C3.14904 42.9418 4.68458 44.455 6.60237 44.5782C13.4339 45.0166 28.8084 45.8675 34.7084 45.0759C33.3569 44.4097 32.5058 43.0287 32.5181 41.522L32.8314 2.96007C32.8425 1.59752 34.1996 0.618316 35.4756 1.0965C36.2795 1.39769 36.8882 2.03944 37.3057 3.01483C36.7486 1.39153 35.8726 0.203966 33.8435 0.591297C33.8435 0.591297 13.9988 0.789677 4.36887 1.38681C1.7524 1.54893 -0.2138 3.839 0.0186701 6.4504Z" fill="#91B3FA"/>
<path opacity="0.53" d="M4.92841 2.4904L31.5938 1.46387C30.494 9.60597 30.9582 26.187 31.3778 42.5278C31.4026 43.4965 31.9708 44.3684 32.847 44.7825C32.847 44.7825 15.0614 44.9874 7.41922 44.4454C5.61984 44.3178 4.15194 42.9563 3.88465 41.1723C2.83564 34.1712 0.32561 16.0849 0.848033 6.5095C0.967714 4.3168 2.73409 2.5749 4.92841 2.4904Z" fill="url(#paint3_linear_3028_12894)"/>
<path d="M4.57457 15.1198L4.88574 18.1065C4.94286 18.654 5.39366 19.0763 5.94364 19.0973L7.68264 19.1641C8.30987 19.1882 8.83139 18.6863 8.83139 18.0585V14.8363C8.83139 14.1895 8.27905 13.6807 7.6344 13.7336L5.58424 13.9021C4.96589 13.9529 4.5102 14.5023 4.57439 15.1194L4.57457 15.1198Z" fill="url(#paint4_linear_3028_12894)"/>
<path d="M10.6887 14.1991C13.5829 14.1092 24.6936 13.748 27.4992 13.6566C27.8532 13.6452 28.1457 13.9288 28.1457 14.2829C28.1457 14.62 27.8791 14.8965 27.5422 14.9091L10.7425 15.5329C10.4188 15.5448 10.1394 15.3084 10.0979 14.9872L10.0873 14.906C10.0397 14.5388 10.3186 14.2106 10.6887 14.1991Z" fill="url(#paint5_linear_3028_12894)"/>
<path d="M10.5078 18.1368C10.557 18.2191 10.6466 18.2688 10.7425 18.2668L22.2781 18.0162C22.4229 18.0131 22.5388 17.8947 22.5388 17.7496V16.9891C22.5388 16.8381 22.4133 16.7171 22.2623 16.7227L11.0484 17.142C10.549 17.1606 10.2518 17.7074 10.5078 18.1366V18.1368Z" fill="url(#paint6_linear_3028_12894)"/>
<path d="M4.57457 23.4093L4.88574 26.3961C4.94286 26.9435 5.39366 27.3659 5.94364 27.3869L7.68264 27.4536C8.30987 27.4777 8.83139 26.9758 8.83139 26.348V23.1259C8.83139 22.4791 8.27905 21.9702 7.6344 22.0232L5.58424 22.1917C4.96589 22.2424 4.5102 22.7919 4.57439 23.409L4.57457 23.4093Z" fill="url(#paint7_linear_3028_12894)"/>
<path d="M10.6887 22.4887C13.5829 22.3988 24.6936 22.0375 27.4992 21.9461C27.8532 21.9345 28.1457 22.2183 28.1457 22.5725C28.1457 22.9096 27.8791 23.1861 27.5422 23.1986L10.7425 23.8222C10.4188 23.8342 10.1394 23.5977 10.0979 23.2766L10.0873 23.1954C10.0397 22.8282 10.3186 22.4999 10.6887 22.4885V22.4887Z" fill="url(#paint8_linear_3028_12894)"/>
<path opacity="0.78" d="M10.5078 26.4264C10.557 26.5087 10.6466 26.5584 10.7425 26.5564L22.2781 26.3058C22.4229 26.3027 22.5388 26.1843 22.5388 26.0394V25.2789C22.5388 25.1278 22.4133 25.0069 22.2623 25.0125L11.0484 25.4318C10.549 25.4504 10.2518 25.9972 10.5078 26.4264Z" fill="white"/>
<path d="M4.57457 31.6991L4.88574 34.6859C4.94286 35.2333 5.39366 35.6557 5.94364 35.6767L7.68264 35.7434C8.30987 35.7675 8.83139 35.2656 8.83139 34.6378V31.4157C8.83139 30.7689 8.27905 30.26 7.6344 30.313L5.58424 30.4815C4.96589 30.5322 4.5102 31.0817 4.57439 31.6988L4.57457 31.6991Z" fill="url(#paint9_linear_3028_12894)"/>
<path d="M10.6887 30.7785C13.5829 30.6885 24.6936 30.3273 27.4992 30.2359C27.8532 30.2245 28.1457 30.5081 28.1457 30.8623C28.1457 31.1994 27.8791 31.4759 27.5422 31.4884L10.7425 32.112C10.4188 32.124 10.1394 31.8875 10.0979 31.5664L10.0873 31.4851C10.0397 31.1179 10.3186 30.7897 10.6887 30.7783V30.7785Z" fill="url(#paint10_linear_3028_12894)"/>
<path d="M10.5078 34.7159C10.557 34.7983 10.6466 34.8479 10.7425 34.846L22.2781 34.5953C22.4229 34.5923 22.5388 34.4739 22.5388 34.329V33.5684C22.5388 33.4174 22.4133 33.2964 22.2623 33.3021L11.0484 33.7213C10.549 33.74 10.2518 34.2867 10.5078 34.7159Z" fill="url(#paint11_linear_3028_12894)"/>
<g style="mix-blend-mode:soft-light">
<path d="M38.1829 32.5735C38.1123 32.5735 38.0545 32.5169 38.0532 32.4462C38.0532 32.4422 38.0453 32.0333 38.0059 30.6316C38.0039 30.5599 38.0603 30.5001 38.1319 30.4981C38.2019 30.4945 38.2634 30.5525 38.2654 30.6241C38.3047 32.0275 38.3127 32.4371 38.3129 32.4411C38.3142 32.5127 38.2572 32.572 38.1856 32.5733H38.1831L38.1829 32.5735Z" fill="white"/>
</g>
<g style="mix-blend-mode:soft-light">
<path d="M38.0881 29.1523C38.0181 29.1523 37.9607 29.0968 37.9585 29.0265C37.9306 28.1142 37.887 27.1056 37.841 26.0377C37.7788 24.595 37.7144 23.103 37.6805 21.6659C37.5909 17.8729 38.2165 16.417 38.7573 15.8634C39.051 15.5625 39.2973 15.5538 39.3245 15.5538C39.3961 15.5538 39.4543 15.612 39.4543 15.6837C39.4543 15.7553 39.3976 15.8121 39.3272 15.8135C39.2976 15.8157 37.8062 15.9794 37.9404 21.6599C37.9743 23.0946 38.0385 24.5852 38.1007 26.0266C38.1467 27.0952 38.1902 28.1047 38.2182 29.0187C38.2203 29.0903 38.1641 29.1501 38.0923 29.1523C38.091 29.1523 38.0896 29.1523 38.0883 29.1523H38.0881Z" fill="white"/>
</g>
<path d="M19.2753 43.1411C19.1436 43.1411 19.012 43.0789 18.8727 42.9511C18.3615 42.4814 18.2295 41.7595 18.1936 41.073C17.9577 41.337 17.7163 41.5941 17.4777 41.8484L17.3457 41.7245C17.6259 41.4259 17.91 41.1232 18.184 40.8106C18.1613 39.8702 18.2047 38.9198 18.3129 37.985C18.3793 37.4118 18.4751 36.8055 18.7235 36.2522C18.8027 36.0758 18.934 35.823 19.1601 35.6649C19.396 35.4999 19.7052 35.4819 19.9123 35.621C20.145 35.7773 20.2077 36.0736 20.2345 36.2829C20.3927 37.5127 19.9128 38.64 19.4825 39.369C19.163 39.9103 18.7762 40.4055 18.3666 40.8764C18.3878 41.5793 18.4852 42.3492 18.9951 42.8176C19.1025 42.9163 19.196 42.963 19.2836 42.9598C19.4274 42.9545 19.5437 42.8151 19.6385 42.6794C20.0695 42.062 20.4048 41.3925 20.6393 40.6826C20.6667 40.469 20.7263 40.2593 20.8172 40.0639L20.9873 40.1233C20.9379 40.3261 20.881 40.5259 20.8166 40.7227C20.7927 40.9238 20.7999 41.1285 20.8398 41.3274C20.861 41.4331 20.9503 41.782 21.2078 41.831C21.4 41.8672 21.6002 41.722 21.8214 41.3858L22.7281 40.0075L22.6135 40.5009C22.573 40.6751 22.5052 41.0911 22.7484 41.191C22.8867 41.248 23.0331 41.1657 23.2024 41.0701C23.3709 40.9752 23.5448 40.877 23.7426 40.9034L23.836 40.916L23.8201 41.0086C23.8108 41.0617 23.7375 41.5283 23.9796 41.5818C24.0904 41.6065 24.1831 41.5296 24.3227 41.4005C24.4324 41.2989 24.5459 41.1941 24.6954 41.1579L24.738 41.3339C24.6344 41.359 24.5429 41.4436 24.4458 41.5334C24.308 41.6609 24.1523 41.8052 23.9406 41.7586C23.665 41.6977 23.5974 41.3872 23.6271 41.0842C23.5185 41.1 23.4075 41.1626 23.2915 41.228C23.1076 41.3316 22.8991 41.4489 22.6796 41.3586C22.4985 41.2841 22.4004 41.1042 22.393 40.8467L21.9728 41.4853C21.8033 41.7432 21.5363 42.0783 21.1738 42.009C20.9251 41.9617 20.7337 41.7202 20.6621 41.3631C20.6521 41.3134 20.644 41.2632 20.6378 41.213C20.4155 41.7651 20.131 42.2905 19.7868 42.7833C19.6735 42.9456 19.5146 43.1329 19.2901 43.1411C19.2851 43.1411 19.28 43.1415 19.2749 43.1415L19.2753 43.1411ZM19.5906 35.7075C19.4717 35.7075 19.3514 35.7521 19.2642 35.8132C19.0749 35.9456 18.9594 36.1695 18.8889 36.3264C18.6506 36.8571 18.5577 37.4474 18.493 38.0059C18.3933 38.8656 18.3492 39.7389 18.3614 40.6051C18.716 40.1868 19.0484 39.7487 19.327 39.2769C19.7429 38.5722 20.207 37.4847 20.0554 36.3059C20.0197 36.029 19.9422 35.8591 19.8117 35.7713C19.7446 35.7262 19.6679 35.7075 19.5908 35.7075H19.5906Z" fill="url(#paint12_linear_3028_12894)"/>
<path opacity="0.78" d="M27.2225 10.4671L5.97991 11.0974C5.21686 11.12 4.57602 10.5278 4.53867 9.76529L4.46069 8.17625C4.42225 7.39089 5.03733 6.72739 5.82342 6.70672L27.1715 6.14222C27.9697 6.12119 28.6242 6.77018 28.6097 7.56842L28.5821 9.09163C28.5685 9.83945 27.9701 10.4449 27.2225 10.4671Z" fill="white"/>
<defs>
<linearGradient id="paint0_linear_3028_12894" x1="35.2713" y1="28.5972" x2="46.0777" y2="28.5972" gradientUnits="userSpaceOnUse">
<stop stop-color="#4F52FF"/>
<stop offset="1" stop-color="#4042E2"/>
</linearGradient>
<linearGradient id="paint1_linear_3028_12894" x1="36.3436" y1="36.131" x2="42.7141" y2="36.131" gradientUnits="userSpaceOnUse">
<stop stop-color="#DAE3FE"/>
<stop offset="1" stop-color="#E9EFFD"/>
</linearGradient>
<linearGradient id="paint2_linear_3028_12894" x1="36.7659" y1="12.1144" x2="21.3593" y2="-19.9103" gradientUnits="userSpaceOnUse">
<stop stop-color="#4042E2"/>
<stop offset="1" stop-color="#4F52FF"/>
</linearGradient>
<linearGradient id="paint3_linear_3028_12894" x1="28.8685" y1="9.64133" x2="-12.1922" y2="62.1862" gradientUnits="userSpaceOnUse">
<stop stop-color="white"/>
<stop offset="1" stop-color="white"/>
</linearGradient>
<linearGradient id="paint4_linear_3028_12894" x1="4.56841" y1="16.4475" x2="8.83139" y2="16.4475" gradientUnits="userSpaceOnUse">
<stop stop-color="#DAE3FE"/>
<stop offset="1" stop-color="#E9EFFD"/>
</linearGradient>
<linearGradient id="paint5_linear_3028_12894" x1="10.0819" y1="14.5948" x2="28.1457" y2="14.5948" gradientUnits="userSpaceOnUse">
<stop stop-color="#DAE3FE"/>
<stop offset="1" stop-color="#E9EFFD"/>
</linearGradient>
<linearGradient id="paint6_linear_3028_12894" x1="10.4141" y1="17.4948" x2="22.539" y2="17.4948" gradientUnits="userSpaceOnUse">
<stop stop-color="#DAE3FE"/>
<stop offset="1" stop-color="#E9EFFD"/>
</linearGradient>
<linearGradient id="paint7_linear_3028_12894" x1="4.56841" y1="24.7372" x2="8.83139" y2="24.7372" gradientUnits="userSpaceOnUse">
<stop stop-color="#DAE3FE"/>
<stop offset="1" stop-color="#E9EFFD"/>
</linearGradient>
<linearGradient id="paint8_linear_3028_12894" x1="10.0819" y1="22.8844" x2="28.1457" y2="22.8844" gradientUnits="userSpaceOnUse">
<stop stop-color="#DAE3FE"/>
<stop offset="1" stop-color="#E9EFFD"/>
</linearGradient>
<linearGradient id="paint9_linear_3028_12894" x1="4.56841" y1="33.0268" x2="8.83139" y2="33.0268" gradientUnits="userSpaceOnUse">
<stop stop-color="#DAE3FE"/>
<stop offset="1" stop-color="#E9EFFD"/>
</linearGradient>
<linearGradient id="paint10_linear_3028_12894" x1="10.0819" y1="31.1742" x2="28.1457" y2="31.1742" gradientUnits="userSpaceOnUse">
<stop stop-color="#DAE3FE"/>
<stop offset="1" stop-color="#E9EFFD"/>
</linearGradient>
<linearGradient id="paint11_linear_3028_12894" x1="10.4141" y1="34.0738" x2="22.539" y2="34.0738" gradientUnits="userSpaceOnUse">
<stop stop-color="#DAE3FE"/>
<stop offset="1" stop-color="#E9EFFD"/>
</linearGradient>
<linearGradient id="paint12_linear_3028_12894" x1="24.6789" y1="31.2398" x2="19.0034" y2="45.7706" gradientUnits="userSpaceOnUse">
<stop stop-color="#09005D"/>
<stop offset="1" stop-color="#1A0F91"/>
</linearGradient>
</defs>
</svg>
