<svg width="269" height="269" viewBox="0 0 269 269" fill="none" xmlns="http://www.w3.org/2000/svg">
<path d="M18.1754 179.896C44.083 240.234 112.471 266.15 166.054 261.732C180.685 260.525 210.121 258.098 233.105 236.44C277.245 194.849 270.447 107.912 228.193 56.7286C222.751 50.1381 185.086 5.97641 126.392 6.5674C83.4189 6.99956 53.2572 31.1867 49.5893 34.1999C44.9565 38.0062 34.737 47.052 25.5277 61.402C3.88827 95.1207 1.98602 142.191 18.1754 179.896Z" fill="url(#paint0_linear_2271_86051)"/>
<g opacity="0.3">
<path d="M69.58 28.6041C69.2374 28.9975 68.6409 29.0381 68.2484 28.6955C67.4848 28.0298 66.6814 27.388 65.8596 26.7868C65.444 26.483 65.3498 25.9022 65.6444 25.483C65.6481 25.4783 65.6518 25.4728 65.6545 25.4682C65.962 25.0471 66.553 24.9557 66.9741 25.2641C67.8394 25.8967 68.6852 26.5726 69.4886 27.2735C69.8561 27.5939 69.9152 28.1359 69.641 28.5266C69.6225 28.5533 69.6022 28.5801 69.58 28.605V28.6041ZM61.6589 24.1357C60.7632 23.6527 59.8388 23.203 58.9099 22.7995C58.4325 22.5917 58.2127 22.0358 58.4205 21.5575C58.631 21.0782 59.1841 20.8603 59.6625 21.0681C60.6395 21.4929 61.6127 21.9656 62.5555 22.4735C63.0145 22.721 63.1853 23.2935 62.9378 23.7525C62.9203 23.7857 62.9 23.818 62.8787 23.8476C62.6073 24.2336 62.0846 24.3647 61.6589 24.1348V24.1357ZM54.23 21.1429C53.2521 20.8714 52.2502 20.6405 51.2529 20.454C50.7404 20.3589 50.4024 19.8658 50.4984 19.3533C50.5945 18.8417 51.0867 18.5028 51.5992 18.5989C52.65 18.7946 53.7055 19.0393 54.7351 19.3247C55.2374 19.4641 55.532 19.984 55.3926 20.4863C55.363 20.5934 55.3159 20.6913 55.2559 20.7772C55.0334 21.0949 54.6261 21.2537 54.2309 21.1438L54.23 21.1429ZM46.319 19.887C45.3042 19.8409 44.2755 19.839 43.2616 19.8806C42.7408 19.9018 42.3012 19.4964 42.28 18.9756C42.2597 18.4548 42.6641 18.0162 43.1849 17.994C44.2524 17.9506 45.3356 17.9525 46.404 18.0005C46.9248 18.0236 47.3283 18.465 47.3043 18.9858C47.296 19.1723 47.2341 19.3431 47.1344 19.4853C46.9553 19.7402 46.6542 19.9009 46.319 19.8861V19.887ZM38.324 20.4245C37.3268 20.6045 36.323 20.8308 35.3405 21.0958C34.8372 21.2315 34.3192 20.9333 34.1834 20.43C34.0477 19.9267 34.3459 19.4087 34.8492 19.2729C35.8825 18.9941 36.9389 18.7568 37.9879 18.5665C38.5004 18.4733 38.9917 18.814 39.0849 19.3274C39.132 19.586 39.0683 19.839 38.9289 20.0385C38.7913 20.2342 38.5789 20.3783 38.325 20.4245H38.324ZM30.6486 22.7182C29.7141 23.1153 28.786 23.5576 27.8885 24.0323C27.4277 24.276 26.8561 24.1006 26.6132 23.6398C26.3694 23.179 26.5449 22.6083 27.0057 22.3636C27.9503 21.8631 28.9273 21.3987 29.9108 20.9804C30.3909 20.7763 30.945 20.9997 31.1491 21.4799C31.2811 21.7911 31.2331 22.1346 31.0521 22.3923C30.9542 22.5317 30.8176 22.6462 30.6495 22.7173L30.6486 22.7182ZM8.38118 49.7828C7.86868 49.6868 7.53163 49.1927 7.62767 48.6811C7.82528 47.6321 8.07184 46.5767 8.35902 45.5452C8.49938 45.0429 9.02019 44.7501 9.52161 44.8905C10.023 45.0309 10.3167 45.5507 10.1763 46.0531C9.90298 47.0319 9.66935 48.0338 9.4819 49.0302C9.45604 49.1669 9.40249 49.2906 9.32677 49.3977C9.12084 49.6914 8.75517 49.8539 8.37933 49.7828H8.38118ZM23.6758 26.6529C22.854 27.2476 22.0478 27.8848 21.2795 28.5478C20.8852 28.8885 20.2887 28.8442 19.948 28.4499C19.6072 28.0556 19.6525 27.4609 20.0458 27.1183C20.8548 26.4202 21.7034 25.7489 22.5696 25.1228C22.9916 24.8172 23.5816 24.9123 23.8873 25.3343C24.1292 25.6695 24.12 26.11 23.8947 26.4304C23.8365 26.5135 23.7626 26.5892 23.6749 26.652L23.6758 26.6529ZM10.6002 41.8626C10.1228 41.6539 9.90483 41.098 10.1135 40.6197C10.5411 39.6418 11.0166 38.6685 11.5264 37.7275C11.7729 37.2677 12.3473 37.0996 12.8062 37.3471C13.2642 37.5955 13.4341 38.168 13.1867 38.6269C12.7019 39.5208 12.2503 40.4452 11.844 41.375C11.8182 41.4341 11.7868 41.4895 11.7507 41.5403C11.4977 41.8995 11.0194 42.0445 10.6011 41.8617L10.6002 41.8626ZM17.7585 32.0476C17.0909 32.8103 16.4473 33.6128 15.8452 34.4318C15.5368 34.852 14.9458 34.9425 14.5256 34.6341C14.111 34.3293 14.0177 33.7503 14.3123 33.3311C14.316 33.3256 14.3197 33.32 14.3243 33.3145C14.9569 32.452 15.6347 31.608 16.3374 30.8046C16.6809 30.4122 17.2774 30.3725 17.6699 30.716C18.0365 31.0364 18.0947 31.5785 17.8213 31.9681C17.8019 31.9958 17.7807 32.0217 17.7585 32.0476Z" fill="#91B3FA"/>
<path d="M8.69908 55.9958C8.80619 55.8434 8.86899 55.6587 8.86991 55.4584C8.87176 54.9717 8.88468 54.4768 8.90685 53.9883C8.93085 53.4675 8.52732 53.0261 8.00743 53.003C7.48662 52.979 7.0443 53.3816 7.02214 53.9033C6.99813 54.4177 6.98521 54.9375 6.98244 55.45C6.97967 55.9709 7.40075 56.3956 7.92156 56.3984C8.24291 56.4002 8.52732 56.2405 8.69908 55.9967V55.9958Z" fill="#91B3FA"/>
</g>
<g opacity="0.3">
<path d="M19.8048 82.5396C20.0671 82.1666 20.0274 81.6485 19.6903 81.3207C19.3413 80.9818 18.9941 80.6291 18.657 80.2736C18.2987 79.895 17.7013 79.8783 17.3227 80.2375C16.9422 80.5977 16.9284 81.1933 17.2867 81.5719C17.6413 81.9459 18.0069 82.3171 18.3745 82.6745C18.7485 83.0374 19.3459 83.029 19.7088 82.656C19.7448 82.619 19.7762 82.5803 19.8048 82.5396Z" fill="#91B3FA"/>
<path d="M74.3999 78.864C74.0795 79.275 73.4867 79.3488 73.0748 79.0284C72.6639 78.708 72.59 78.1161 72.9104 77.7042C73.5199 76.9212 74.1054 76.1002 74.6585 75.2544C74.9411 74.8194 75.5284 74.6957 75.9651 74.981C76.401 75.2664 76.5238 75.8509 76.2385 76.2877C75.9993 76.6543 75.7546 77.0153 75.5043 77.3699C75.1479 77.8769 74.7767 78.3792 74.399 78.864H74.3999ZM77.4971 72.2486C77.0261 72.0252 76.8258 71.4619 77.0492 70.9919C77.4786 70.0878 77.8738 69.1561 78.2247 68.2216C78.4067 67.734 78.9524 67.4866 79.44 67.6694C79.9275 67.8522 80.175 68.3971 79.9912 68.8846C79.6219 69.8681 79.2054 70.8487 78.7539 71.8008C78.7308 71.8497 78.7031 71.8968 78.6726 71.9393C78.4131 72.3087 77.9182 72.4481 77.4962 72.2486H77.4971ZM70.9703 82.6962C70.2178 83.4285 69.4245 84.1395 68.6101 84.8081C68.2075 85.1387 67.6128 85.0805 67.2813 84.6779C66.9507 84.2753 67.0098 83.6806 67.4115 83.3491C68.1844 82.7147 68.9388 82.0397 69.6526 81.3443C70.0266 80.9805 70.6241 80.9888 70.9879 81.3619C71.3092 81.6925 71.3406 82.1976 71.0849 82.5623C71.0516 82.6094 71.0137 82.6547 70.9703 82.6972V82.6962ZM80.3385 64.6692C79.8296 64.5547 79.5101 64.0496 79.6256 63.5408C79.8453 62.5656 80.0263 61.5702 80.163 60.5812C80.2341 60.0641 80.7106 59.704 81.2268 59.7751C81.743 59.8462 82.104 60.3227 82.032 60.8388C81.888 61.8805 81.6977 62.9295 81.4669 63.9554C81.4392 64.0791 81.3875 64.1927 81.3191 64.2906C81.1058 64.5944 80.7235 64.7551 80.3385 64.6683V64.6692ZM64.4242 87.7889C63.5294 88.3374 62.5995 88.8564 61.6586 89.3292C61.1932 89.5637 60.6262 89.3763 60.3916 88.9109C60.1571 88.4455 60.3445 87.8776 60.8109 87.643C61.7047 87.1933 62.5884 86.7011 63.438 86.1803C63.8822 85.9079 64.4639 86.0473 64.7363 86.4915C64.9395 86.823 64.9136 87.2293 64.704 87.5285C64.632 87.631 64.5387 87.7206 64.4251 87.7898L64.4242 87.7889ZM56.9186 91.3219C55.9232 91.6627 54.9019 91.9655 53.8834 92.2222C53.3773 92.3497 52.8648 92.0431 52.7374 91.5371C52.61 91.031 52.9165 90.5185 53.4226 90.392C54.3903 90.1482 55.3608 89.8601 56.3064 89.5369C56.7995 89.368 57.336 89.6311 57.505 90.1242C57.6066 90.4216 57.5512 90.7346 57.384 90.9729C57.2732 91.1308 57.1135 91.2554 56.9177 91.3228L56.9186 91.3219ZM48.8221 93.1364C47.7758 93.2528 46.713 93.3257 45.6631 93.3544C45.1422 93.3682 44.7082 92.9573 44.6944 92.4365C44.6805 91.9148 45.0915 91.4817 45.6123 91.4678C46.6096 91.441 47.6198 91.3709 48.6143 91.261C49.1323 91.2037 49.5987 91.5768 49.6559 92.0948C49.6827 92.3331 49.6181 92.5593 49.4906 92.7412C49.3401 92.9554 49.1028 93.106 48.8221 93.1374V93.1364ZM40.5233 93.1411C39.4771 93.0256 38.4234 92.864 37.392 92.6609C36.8804 92.5602 36.548 92.0643 36.6486 91.5528C36.7493 91.0421 37.2461 90.7088 37.7567 90.8094C38.7355 91.0024 39.7365 91.1557 40.7301 91.2656C41.2482 91.3228 41.6222 91.7892 41.5649 92.3072C41.5464 92.4706 41.4883 92.6202 41.3996 92.7458C41.2085 93.0182 40.8779 93.1808 40.5233 93.142V93.1411ZM32.4212 91.3201C31.4285 90.9775 30.4377 90.5887 29.4746 90.163C28.9981 89.9525 28.782 89.3947 28.9935 88.9182C29.204 88.4427 29.7617 88.2257 30.2382 88.4371C31.1524 88.8416 32.0943 89.2119 33.0371 89.5369C33.5293 89.7068 33.7915 90.2443 33.6216 90.7365C33.5921 90.8223 33.5515 90.9008 33.5016 90.9719C33.2661 91.3071 32.8284 91.4613 32.4212 91.321V91.3201ZM24.9249 87.7695C24.2655 87.3641 23.6108 86.9329 22.9792 86.4887C22.7502 86.328 22.524 86.1646 22.2996 86.0002C21.8803 85.6918 21.7778 85.0999 22.0992 84.6807C22.4076 84.2605 22.9986 84.1709 23.4188 84.4794C23.6321 84.6363 23.8472 84.7915 24.0642 84.9438C24.6654 85.3658 25.2868 85.7758 25.9138 86.1609C26.358 86.4342 26.4965 87.0151 26.2232 87.4592C26.213 87.4759 26.2019 87.4925 26.1909 87.5082C25.9065 87.9136 25.3515 88.0318 24.9249 87.7686V87.7695Z" fill="#91B3FA"/>
<path d="M82.2138 56.224C82.3218 56.0707 82.3846 55.8833 82.3855 55.682C82.3855 55.1713 82.3745 54.6505 82.3532 54.1343C82.332 53.6135 81.8924 53.2091 81.3716 53.2303C80.8508 53.2525 80.4464 53.6911 80.4676 54.2119C80.4879 54.7022 80.4981 55.1963 80.4981 55.682C80.4981 56.2028 80.9201 56.6257 81.4418 56.6257C81.7613 56.6257 82.0439 56.4669 82.2147 56.224H82.2138Z" fill="#91B3FA"/>
</g>
<path d="M70.7856 44.774C70.7348 44.593 70.5741 44.4637 70.3867 44.4526L65.0271 44.1405C63.8165 41.9446 62.2467 39.9269 60.3445 38.1835L61.3021 32.9043C61.3353 32.7187 61.2476 32.5331 61.0841 32.4407L55.4688 29.2882C55.3044 29.1958 55.1004 29.218 54.96 29.3436L50.9514 32.9098C48.473 32.1933 45.9326 31.9042 43.4274 32.0141L40.3699 27.6011C40.2628 27.4469 40.0689 27.3767 39.8879 27.4275L33.6881 29.1691C33.5071 29.2198 33.3778 29.3805 33.3667 29.568L33.0546 34.9275C30.8587 36.1381 28.8401 37.7079 27.0976 39.6102L21.8184 38.6526C21.6328 38.6194 21.4472 38.7062 21.3549 38.8705L18.2023 44.4858C18.11 44.6502 18.1321 44.8543 18.2577 44.9947L21.8249 49.0032C21.1083 51.4817 20.8193 54.022 20.9292 56.5273L16.5161 59.5847C16.3619 59.6918 16.2917 59.8857 16.3425 60.0667L18.0841 66.2666C18.1349 66.4476 18.2956 66.5769 18.483 66.5879L23.8426 66.9001C25.0532 69.096 26.623 71.1136 28.5252 72.857L27.5676 78.1362C27.5344 78.3219 27.6212 78.5075 27.7856 78.5998L33.4009 81.7524C33.5653 81.8447 33.7693 81.8225 33.9097 81.697L37.9183 78.1307C40.3967 78.8473 42.9371 79.1363 45.4423 79.0264L48.4998 83.4395C48.6069 83.5946 48.8008 83.6638 48.9818 83.6131L55.1816 81.8715C55.3626 81.8207 55.4919 81.66 55.503 81.4726L55.8151 76.113C58.011 74.9024 60.0287 73.3326 61.7721 71.4304L67.0513 72.3879C67.236 72.4212 67.4225 72.3344 67.5148 72.17L70.6674 66.5547C70.7597 66.3903 70.7376 66.1863 70.612 66.0459L67.0457 62.0373C67.7623 59.5589 68.0514 57.0185 67.9415 54.5133L72.3545 51.4558C72.5096 51.3487 72.5789 51.1548 72.5281 50.9738L70.7865 44.774H70.7856Z" fill="#91B3FA"/>
<path d="M49.1292 59.9732C46.6729 62.5634 42.5683 62.6724 39.9781 60.2161C38.7232 59.0267 38.0075 57.4191 37.9614 55.6904C37.9152 53.9627 38.545 52.319 39.7352 51.065C42.1915 48.4748 46.2962 48.3658 48.8864 50.8221C51.2429 53.0568 51.5458 56.6563 49.7313 59.2373C49.5512 59.4931 49.3508 59.7396 49.1292 59.9732ZM39.4702 55.6507C39.5053 56.9758 40.0548 58.2077 41.017 59.1209C43.0023 61.0038 46.1503 60.9207 48.0331 58.9344C49.9178 56.949 49.8329 53.8011 47.8466 51.9173C45.8612 50.0345 42.7133 50.1176 40.8304 52.1038C40.6596 52.2839 40.5045 52.4741 40.3641 52.6736C39.7556 53.5398 39.4416 54.574 39.4702 55.6507Z" fill="#BDD0FB"/>
<path d="M57.3059 64.7219C57.6171 64.2786 57.9089 63.8169 58.1776 63.3377C58.2625 63.1872 58.3447 63.0348 58.4241 62.8815C58.8175 62.1252 59.1499 61.3385 59.4168 60.5333C59.4205 60.5222 59.4242 60.5111 59.4279 60.5C59.4381 60.4686 59.4482 60.4381 59.4584 60.4067C59.4778 60.3458 59.4972 60.2848 59.5156 60.2239C59.5655 60.0632 59.5027 59.8952 59.3725 59.8037C59.3411 59.7816 59.3051 59.764 59.2663 59.752C59.0668 59.6902 58.8563 59.8028 58.7944 60.0014C58.4786 61.0264 58.0492 62.0246 57.5192 62.9674C54.8902 67.6528 50.1253 70.4 45.1222 70.6807C42.3391 70.8368 39.482 70.2292 36.8761 68.7665C36.419 68.5098 35.9785 68.2327 35.5556 67.9354C32.7096 65.9353 30.655 63.0403 29.702 59.6468C28.6069 55.7481 29.0953 51.6555 31.0779 48.1243C35.1733 40.8321 44.4315 38.2335 51.721 42.3261C52.1707 42.5782 52.6057 42.8525 53.024 43.1471C54.8394 44.4232 56.3557 46.0826 57.4573 48.0107C57.4859 48.0606 57.5238 48.1012 57.5681 48.1326C57.6836 48.2139 57.8415 48.2268 57.9726 48.1511C58.1536 48.0467 58.2173 47.8177 58.1129 47.6358C56.9559 45.6108 55.3648 43.8692 53.4589 42.5293C53.0194 42.22 52.5623 41.9328 52.0913 41.6677C44.438 37.3711 34.7153 40.1044 30.4195 47.7549C28.3381 51.4625 27.8256 55.7582 28.9753 59.8508C29.9763 63.4143 32.1325 66.4524 35.1207 68.5532C35.5648 68.8653 36.0275 69.1562 36.5067 69.4258C40.2143 71.5072 44.51 72.0206 48.6035 70.871C52.168 69.87 55.2069 67.7119 57.3068 64.7237L57.3059 64.7219Z" fill="#BDD0FB"/>
<g opacity="0.3">
<path d="M108.51 16.4724C108.655 16.2665 108.654 15.9812 108.489 15.7743C108.18 15.3874 107.856 15.0042 107.525 14.6358C107.31 14.3966 106.941 14.3772 106.701 14.5924C106.461 14.8066 106.442 15.176 106.658 15.4151C106.973 15.766 107.283 16.1308 107.576 16.5001C107.777 16.7522 108.143 16.7929 108.395 16.5925C108.44 16.5565 108.478 16.5158 108.509 16.4715L108.51 16.4724Z" fill="#91B3FA"/>
<path d="M105.372 13.2846C105.16 13.5275 104.793 13.5542 104.549 13.3428C103.935 12.8109 103.286 12.3039 102.622 11.8367C102.481 11.7379 102.34 11.6409 102.196 11.5449C101.929 11.3657 101.858 11.0028 102.037 10.736C102.217 10.4903 102.579 10.398 102.846 10.5771C102.996 10.6778 103.144 10.7794 103.291 10.8828C103.988 11.3722 104.668 11.9041 105.312 12.4618C105.54 12.6594 105.577 12.9956 105.407 13.2366C105.396 13.2523 105.383 13.268 105.37 13.2837L105.372 13.2846ZM99.6427 10.0471C98.7645 9.60107 97.8503 9.20585 96.926 8.87157C96.6231 8.76168 96.4661 8.42833 96.576 8.12545C96.6849 7.82441 97.0192 7.66558 97.3221 7.77547C98.2908 8.12545 99.2484 8.54006 100.17 9.00731C100.457 9.15321 100.572 9.50412 100.426 9.7913C100.413 9.81623 100.398 9.84024 100.382 9.86333C100.218 10.097 99.904 10.1801 99.6417 10.0471H99.6427ZM94.0846 8.04234C93.1251 7.82534 92.1417 7.66743 91.1619 7.57047C90.8415 7.53907 90.6079 7.25374 90.6393 6.93331C90.6707 6.61196 90.9551 6.37833 91.2765 6.40973C92.3042 6.51038 93.3357 6.67752 94.3413 6.90376C94.6553 6.97486 94.8529 7.28698 94.7818 7.60094C94.7642 7.67759 94.7328 7.74684 94.6903 7.80779C94.5583 7.99524 94.3219 8.09497 94.0846 8.04142V8.04234ZM88.2033 7.46335C87.218 7.48829 86.2263 7.57509 85.2548 7.72099C84.9362 7.76901 84.6389 7.54923 84.5918 7.23065C84.5447 6.91299 84.7626 6.61565 85.0812 6.56764C86.0998 6.41435 87.1404 6.32385 88.1728 6.29707C88.4942 6.28876 88.762 6.54363 88.7703 6.86498C88.7731 6.99426 88.7343 7.11522 88.665 7.21403C88.5625 7.35993 88.3945 7.45689 88.2024 7.46243L88.2033 7.46335ZM82.359 8.33876C81.4106 8.60286 80.4697 8.9279 79.561 9.30466C79.2637 9.42839 78.9229 9.28711 78.7992 8.98977C78.6754 8.69243 78.8158 8.35076 79.1141 8.22795C80.0652 7.83272 81.0523 7.49198 82.0459 7.21495C82.3562 7.12908 82.6776 7.31007 82.7634 7.62034C82.8124 7.79579 82.7754 7.97401 82.6785 8.11252C82.6037 8.21871 82.4929 8.3009 82.3581 8.33876H82.359ZM76.9043 10.6058C76.0492 11.0924 75.2163 11.6363 74.4296 12.2236C74.1719 12.4157 73.8062 12.363 73.6142 12.1054C73.4221 11.8478 73.4747 11.483 73.7324 11.2891C74.5579 10.6732 75.4315 10.1025 76.3281 9.59184C76.6079 9.43301 76.9634 9.53089 77.1232 9.81069C77.2386 10.0129 77.2192 10.2558 77.0936 10.434C77.0456 10.5023 76.9828 10.5614 76.9053 10.6058H76.9043ZM72.1718 14.1369C71.4645 14.8156 70.7904 15.5488 70.168 16.3153C69.9648 16.5646 69.5973 16.6034 69.348 16.4002C69.0977 16.198 69.0636 15.8332 69.263 15.5802C69.9159 14.7778 70.6223 14.0095 71.3647 13.2966C71.5974 13.0741 71.9659 13.0814 72.1893 13.3132C72.3851 13.5173 72.4026 13.8276 72.2457 14.052C72.2244 14.0824 72.2004 14.1111 72.1718 14.1378V14.1369ZM66.2582 21.6056C65.9664 21.4698 65.8408 21.1226 65.9766 20.8308C66.3533 20.0228 66.7809 19.2222 67.2463 18.453C67.3164 18.3357 67.3875 18.2203 67.4596 18.1039C67.6221 17.8278 67.9905 17.7484 68.2629 17.9202C68.5354 18.091 68.6175 18.4511 68.4467 18.7236C68.3784 18.8316 68.3119 18.9406 68.2445 19.0523C67.7994 19.7892 67.3912 20.5529 67.032 21.323C67.0172 21.3544 66.9997 21.3849 66.9803 21.4116C66.8206 21.6388 66.5168 21.7256 66.2573 21.6037L66.2582 21.6056Z" fill="#91B3FA"/>
</g>
<g opacity="0.3">
<path d="M109.184 46.2307C108.59 47.0544 107.939 47.8485 107.252 48.5919C107.033 48.8283 106.664 48.8421 106.428 48.6242C106.191 48.4053 106.181 48.0369 106.396 47.8005C107.051 47.0922 107.672 46.3341 108.239 45.5483C108.427 45.2869 108.792 45.2288 109.052 45.4171C109.311 45.6046 109.371 45.9647 109.188 46.2251C109.186 46.227 109.185 46.2298 109.183 46.2316L109.184 46.2307ZM110.027 43.8796C109.746 43.7236 109.644 43.369 109.8 43.0873C110.269 42.2396 110.691 41.3559 111.055 40.4584C111.176 40.162 111.516 40.016 111.815 40.1379C112.113 40.2589 112.256 40.5987 112.136 40.897C111.755 41.837 111.313 42.7632 110.821 43.6516C110.81 43.67 110.799 43.6876 110.787 43.7051C110.618 43.9452 110.292 44.0246 110.028 43.8787L110.027 43.8796ZM105.045 50.7019C104.268 51.3575 103.444 51.9716 102.597 52.5266C102.328 52.7029 101.967 52.6272 101.79 52.3585C101.614 52.0889 101.689 51.7297 101.958 51.5514C102.766 51.0223 103.551 50.4369 104.293 49.8117C104.539 49.6039 104.907 49.6353 105.114 49.881C105.288 50.0878 105.294 50.3805 105.145 50.592C105.118 50.6317 105.083 50.6696 105.044 50.7028L105.045 50.7019ZM112.394 38.4139C112.083 38.3308 111.899 38.0104 111.982 37.6992C112.233 36.7638 112.43 35.8043 112.566 34.8467C112.611 34.5282 112.907 34.3065 113.224 34.3509C113.543 34.3961 113.765 34.6907 113.72 35.0102C113.578 36.0149 113.372 37.0223 113.109 38.0021C113.09 38.0695 113.061 38.1313 113.023 38.1858C112.886 38.3807 112.638 38.4786 112.395 38.4139H112.394ZM99.9482 54.0401C99.0386 54.4888 98.0921 54.8868 97.1345 55.222C96.8307 55.3282 96.4983 55.1685 96.3912 54.8647C96.285 54.5609 96.4438 54.2275 96.7485 54.1213C97.6618 53.8018 98.5649 53.4223 99.432 52.9938C99.721 52.8516 100.07 52.9698 100.213 53.2588C100.311 53.4564 100.286 53.6836 100.167 53.8526C100.113 53.9292 100.039 53.9948 99.9482 54.0401ZM94.199 56.0577C93.2063 56.2757 92.1914 56.4354 91.1831 56.5333C90.8626 56.5647 90.5782 56.3301 90.5468 56.0097C90.5154 55.6893 90.75 55.4039 91.0713 55.3735C92.0326 55.2802 93.0004 55.1278 93.9478 54.9201C94.2618 54.8508 94.573 55.0503 94.6422 55.3642C94.6782 55.5305 94.6404 55.6957 94.5499 55.825C94.4686 55.9404 94.3467 56.0263 94.198 56.0586L94.199 56.0577ZM88.1321 56.6413C87.1154 56.6155 86.0913 56.5277 85.0894 56.3791C84.7708 56.332 84.5511 56.0356 84.5982 55.717C84.6452 55.3984 84.9417 55.1786 85.2602 55.2257C86.216 55.3679 87.192 55.452 88.1616 55.475C88.4839 55.4834 88.7378 55.7512 88.7295 56.0725C88.7268 56.1916 88.688 56.3015 88.6243 56.3929C88.5162 56.5471 88.3352 56.6459 88.1321 56.6413Z" fill="#91B3FA"/>
<path d="M113.867 32.2633C113.932 32.171 113.971 32.0602 113.972 31.9392C113.982 31.4406 113.975 30.9391 113.955 30.4488C113.941 30.1274 113.67 29.8772 113.348 29.8901C113.027 29.904 112.777 30.1755 112.79 30.4968C112.809 30.9641 112.814 31.4424 112.806 31.9189C112.801 32.2412 113.057 32.5062 113.379 32.5117C113.579 32.5154 113.758 32.4166 113.866 32.2633H113.867Z" fill="#91B3FA"/>
</g>
<path d="M106.26 24.1809C106.226 24.06 106.119 23.9732 105.993 23.9658L102.407 23.7571C101.597 22.2879 100.546 20.9369 99.2735 19.7707L99.9143 16.2377C99.9365 16.1139 99.8783 15.9893 99.7684 15.9274L96.011 13.8183C95.9011 13.7564 95.7645 13.7712 95.6703 13.8552L92.9878 16.2423C91.3293 15.763 89.6293 15.5691 87.9533 15.643L85.907 12.6899C85.8349 12.5864 85.7057 12.5394 85.5847 12.5735L81.4358 13.7389C81.3148 13.773 81.228 13.8802 81.2206 14.0057L81.0119 17.5923C79.5427 18.4022 78.1918 19.453 77.0255 20.7255L73.4925 20.0846C73.3687 20.0625 73.2441 20.1206 73.1822 20.2305L71.0722 23.9879C71.0103 24.0978 71.0251 24.2345 71.1091 24.3287L73.4962 27.0112C73.0169 28.6697 72.823 30.3697 72.8969 32.0457L69.9438 34.092C69.8403 34.164 69.7933 34.2933 69.8274 34.4143L70.9928 38.5632C71.0269 38.6842 71.1341 38.771 71.2596 38.7784L74.8462 38.9871C75.6561 40.4562 76.706 41.8072 77.9794 42.9735L77.3385 46.5065C77.3164 46.6302 77.3745 46.7549 77.4844 46.8168L81.2418 48.9268C81.3517 48.9886 81.4884 48.9739 81.5826 48.8898L84.2651 46.5028C85.9236 46.982 87.6236 47.176 89.2996 47.1021L91.3459 50.0552C91.4179 50.1586 91.5472 50.2057 91.6682 50.1715L95.8171 49.0062C95.9381 48.972 96.0249 48.8649 96.0323 48.7393L96.241 45.1527C97.7101 44.3429 99.0611 43.2921 100.227 42.0196L103.76 42.6604C103.884 42.6826 104.009 42.6244 104.071 42.5145L106.181 38.7571C106.243 38.6472 106.228 38.5106 106.144 38.4164L103.757 35.7338C104.236 34.0754 104.43 32.3754 104.356 30.6994L107.309 28.6531C107.413 28.581 107.46 28.4517 107.425 28.3308L106.26 24.1818V24.1809Z" fill="#91B3FA"/>
<path d="M91.8265 34.4053C91.0158 35.2604 89.9215 35.748 88.7441 35.7794C87.5668 35.8108 86.4476 35.3814 85.5934 34.5706C83.8297 32.8983 83.7558 30.1059 85.4281 28.3366C87.1014 26.5729 89.8975 26.499 91.6612 28.1713C92.5163 28.9821 93.0039 30.0763 93.0353 31.2537C93.0602 32.2103 92.7813 33.1292 92.2411 33.8984C92.1165 34.0747 91.9789 34.2446 91.8275 34.4044L91.8265 34.4053ZM86.394 33.7257C87.0229 34.3222 87.8457 34.638 88.7127 34.6149C89.5789 34.5918 90.3841 34.2326 90.9797 33.6047C91.5754 32.9749 91.8912 32.1531 91.8681 31.286C91.845 30.4198 91.4858 29.6146 90.8579 29.019C89.5605 27.7881 87.5031 27.8426 86.2721 29.14C86.1613 29.2572 86.0607 29.3801 85.9702 29.5084C85.0615 30.8021 85.213 32.6065 86.3931 33.7257H86.394Z" fill="#BDD0FB"/>
<path d="M97.514 37.7096C97.7264 37.4076 97.924 37.0927 98.1087 36.7649C98.4753 36.113 98.7754 35.4232 99.0016 34.7131L99.0312 34.617C99.1078 34.3696 99.0108 34.1101 98.8105 33.9679C98.7615 33.9337 98.7061 33.906 98.6461 33.8875C98.3386 33.7924 98.0136 33.966 97.9175 34.2726C97.7125 34.9375 97.4346 35.5839 97.092 36.1924C97.0735 36.2266 97.0541 36.2598 97.0347 36.2921C96.211 37.7262 95.0623 38.9008 93.6901 39.7439C92.9449 40.2019 92.1341 40.562 91.2726 40.8123C91.2652 40.8141 91.2587 40.816 91.2513 40.8187C91.2301 40.8243 91.2089 40.8308 91.1867 40.8372C88.663 41.5464 86.0137 41.2297 83.7273 39.9461C83.4309 39.7799 83.1465 39.6008 82.8722 39.4078C81.03 38.1131 79.7003 36.2386 79.0825 34.0418C78.3733 31.518 78.69 28.8687 79.9736 26.5833C81.2571 24.2997 83.3542 22.6477 85.8779 21.9385C88.4017 21.2293 91.051 21.546 93.3373 22.8296C93.6282 22.993 93.9099 23.1703 94.1814 23.3605C95.3569 24.187 96.3385 25.2609 97.0513 26.5094C97.0957 26.5861 97.1538 26.6498 97.2222 26.6969C97.4013 26.8224 97.6442 26.8418 97.8464 26.7264C98.1253 26.5657 98.2232 26.2111 98.0634 25.9304C97.2656 24.5333 96.1676 23.3319 94.8527 22.4076C94.5489 22.1943 94.234 21.9957 93.9089 21.8129C91.3511 20.377 88.3869 20.0233 85.5631 20.8165C82.7392 21.6097 80.3928 23.4529 78.9578 26.0126C77.5219 28.5705 77.1673 31.5337 77.9615 34.3576C78.6513 36.8157 80.1398 38.9119 82.2009 40.3617C82.5065 40.5768 82.826 40.7781 83.1566 40.9637C88.1089 43.7432 94.3152 42.2593 97.5131 37.7096H97.514Z" fill="#BDD0FB"/>
<path d="M185.614 25.7271V257.517C185.614 259.048 184.995 260.43 183.94 261.284C183.139 261.933 182.129 262.346 181.016 262.303L178.478 262.21C175.912 262.113 173.598 259.765 173.598 257.082V26.1204L185.614 25.728V25.7271Z" fill="url(#paint1_linear_2271_86051)"/>
<path d="M190.44 17.4118C190.44 21.3234 188.452 24.825 185.459 26.8843C183.774 28.0441 181.772 28.7459 179.629 28.8096C178.565 28.841 177.536 28.7154 176.566 28.4485C175.836 28.2491 175.14 27.9711 174.484 27.623C174.319 27.5325 174.152 27.4429 173.99 27.3423C170.929 25.4982 168.893 22.0908 168.893 18.1321C168.893 12.0532 173.692 6.95221 179.628 6.73336C185.588 6.51359 190.439 11.2914 190.439 17.4127L190.44 17.4118Z" fill="url(#paint2_linear_2271_86051)"/>
<path d="M185.492 17.0112C185.492 20.052 183.947 22.7743 181.62 24.3755C180.311 25.2777 178.754 25.8225 177.088 25.8724C176.261 25.8973 175.461 25.7994 174.706 25.5916C174.139 25.4365 173.597 25.2204 173.087 24.9499C172.958 24.8797 172.829 24.8095 172.703 24.731C170.322 23.2979 168.74 20.6486 168.74 17.5699C168.74 12.8438 172.471 8.87772 177.087 8.70781C181.721 8.53698 185.492 12.2519 185.492 17.0103V17.0112Z" fill="url(#paint3_linear_2271_86051)"/>
<path d="M98.7531 34.0122L99.6756 34.4887L117.157 23.7705L202.768 36.426L214.743 37.7964L214.037 40.032C213.941 40.272 200.317 50.1998 200.317 50.1998L210.921 64.1166L210.411 65.5479C210.35 65.7178 210.185 65.8213 210.014 65.7945L199.005 64.0889L113.346 50.8194C113.106 50.7824 112.885 50.6661 112.715 50.4879L98.9396 36.0668C98.7587 35.8775 98.6645 35.6162 98.6792 35.3474L98.754 34.0122H98.7531Z" fill="url(#paint4_linear_2271_86051)"/>
<path d="M118.123 22.8281L214.742 37.7949C214.832 37.8088 214.858 37.9307 214.783 37.9852L201.168 47.9452C200.983 48.08 200.934 48.3432 201.057 48.5371L210.794 63.9176C210.842 63.9933 210.78 64.094 210.693 64.0811L114.013 49.1041C113.737 49.0616 113.482 48.9305 113.283 48.7283L98.8742 34.1345C98.8132 34.0726 98.8271 33.9664 98.9019 33.9221L117.251 22.9999C117.516 22.842 117.823 22.782 118.123 22.8281Z" fill="url(#paint5_linear_2271_86051)"/>
<path d="M107.158 124.363L108.139 124.603L122.182 110.444L205.896 102.775L217.068 101.378C217.3 101.35 217.502 101.537 217.49 101.771L217.393 103.597C217.357 103.847 206.74 116.376 206.74 116.376L219.94 127.117L219.787 128.589C219.769 128.763 219.636 128.899 219.468 128.914L208.686 129.826L124.785 136.925C124.551 136.946 124.315 136.886 124.114 136.757L107.804 126.266C107.589 126.128 107.441 125.903 107.394 125.644L107.158 124.362V124.363Z" fill="#7D97F4"/>
<path d="M122.881 109.331L217.236 101.348C217.43 101.331 217.546 101.557 217.421 101.706L207.032 114.047C206.89 114.216 206.904 114.48 207.061 114.634L219.784 126.964C219.846 127.024 219.809 127.13 219.722 127.138L125.027 135.15C124.758 135.173 124.486 135.108 124.253 134.962L107.305 124.453C107.232 124.408 107.22 124.306 107.282 124.246L122.098 109.694C122.313 109.484 122.588 109.356 122.881 109.331Z" fill="#91B3FA"/>
<path opacity="0.56" d="M178.673 112.164L126.081 116.275C125.886 116.29 125.741 116.461 125.756 116.655L125.946 119.078C125.961 119.273 126.131 119.419 126.326 119.403L178.917 115.292C179.112 115.277 179.258 115.107 179.243 114.912L179.053 112.489C179.038 112.294 178.868 112.149 178.673 112.164Z" fill="white"/>
<path opacity="0.56" d="M178.956 123.595L126.784 127.672C126.59 127.687 126.419 127.541 126.404 127.347L126.228 125.087C126.213 124.893 126.359 124.721 126.553 124.706L178.724 120.628C178.918 120.614 179.09 120.76 179.105 120.954L179.281 123.214C179.296 123.408 179.15 123.58 178.956 123.595Z" fill="white"/>
<path d="M259.47 77.0728L258.453 77.4772L240.83 66.0684L149.111 73.1058L136.34 73.8353L136.861 75.8335C136.942 76.0718 150.563 86.5554 150.563 86.5554L138.177 99.3522L138.599 100.765C138.648 100.933 138.816 101.042 138.998 101.027L150.799 100.047L242.619 92.4191C242.876 92.3979 243.12 92.2991 243.315 92.1375L259.102 79.0452C259.309 78.8734 259.431 78.6269 259.437 78.3665L259.469 77.0728H259.47Z" fill="url(#paint6_linear_2271_86051)"/>
<path d="M239.887 65.1008L136.533 73.6859C136.363 73.6997 136.299 73.9158 136.434 74.0202L149.85 84.3274C150.031 84.4678 150.062 84.7282 149.917 84.9064L138.332 99.1631C138.274 99.2342 138.33 99.3395 138.42 99.3311L242.055 90.723C242.351 90.6981 242.631 90.5873 242.859 90.4044L259.331 77.1838C259.4 77.1293 259.393 77.0241 259.319 76.977L240.794 65.3188C240.526 65.1507 240.206 65.0731 239.885 65.0999L239.887 65.1008Z" fill="url(#paint7_linear_2271_86051)"/>
<path opacity="0.56" d="M238.195 71.9363L186.827 75.9519C186.632 75.9672 186.487 76.1374 186.502 76.3321L186.699 78.8518C186.714 79.0465 186.885 79.1921 187.079 79.1768L238.447 75.1612C238.641 75.146 238.787 74.9758 238.772 74.781L238.575 72.2613C238.56 72.0666 238.389 71.9211 238.195 71.9363Z" fill="white"/>
<path opacity="0.56" d="M238.276 80.6588L187.319 84.6424C187.125 84.6576 186.979 84.8278 186.994 85.0225L187.178 87.3756C187.194 87.5703 187.364 87.7159 187.558 87.7006L238.515 83.7171C238.71 83.7019 238.856 83.5317 238.84 83.3369L238.656 80.9838C238.641 80.7891 238.471 80.6436 238.276 80.6588Z" fill="white"/>
<path d="M183.209 46.8877C183.534 44.8872 182.176 43.0022 180.175 42.6774C178.175 42.3527 176.29 43.7112 175.965 45.7117C175.64 47.7122 176.999 49.5972 178.999 49.922C181 50.2467 182.885 48.8882 183.209 46.8877Z" fill="url(#paint8_linear_2271_86051)"/>
<path d="M179.833 47.965C181.077 47.965 182.085 46.9571 182.085 45.7137C182.085 44.4703 181.077 43.4624 179.833 43.4624C178.59 43.4624 177.582 44.4703 177.582 45.7137C177.582 46.9571 178.59 47.965 179.833 47.965Z" fill="url(#paint9_linear_2271_86051)"/>
<path d="M182.435 84.3721C182.883 82.4726 181.707 80.5692 179.807 80.1209C177.908 79.6726 176.004 80.849 175.556 82.7486C175.108 84.6481 176.284 86.5514 178.184 86.9998C180.083 87.4481 181.986 86.2717 182.435 84.3721Z" fill="url(#paint10_linear_2271_86051)"/>
<path d="M179.243 85.1742C180.441 85.1742 181.412 84.203 181.412 83.0051C181.412 81.8071 180.441 80.8359 179.243 80.8359C178.045 80.8359 177.074 81.8071 177.074 83.0051C177.074 84.203 178.045 85.1742 179.243 85.1742Z" fill="url(#paint11_linear_2271_86051)"/>
<path d="M181.816 119.592C183.25 118.158 183.25 115.834 181.816 114.4C180.382 112.966 178.057 112.966 176.624 114.4C175.19 115.834 175.19 118.158 176.624 119.592C178.057 121.026 180.382 121.026 181.816 119.592Z" fill="url(#paint12_linear_2271_86051)"/>
<path d="M181.657 116.923C181.943 115.712 181.193 114.499 179.982 114.213C178.771 113.927 177.557 114.677 177.271 115.888C176.986 117.099 177.736 118.313 178.947 118.599C180.158 118.884 181.371 118.134 181.657 116.923Z" fill="url(#paint13_linear_2271_86051)"/>
<path opacity="0.56" d="M169.06 37.5515L122.054 30.1318C121.861 30.1013 121.68 30.2331 121.65 30.426L121.294 32.6817C121.263 32.8746 121.395 33.0557 121.588 33.0862L168.594 40.5059C168.787 40.5364 168.968 40.4047 168.998 40.2117L169.354 37.956C169.385 37.7631 169.253 37.582 169.06 37.5515Z" fill="white"/>
<path opacity="0.56" d="M167.26 45.4146L120.631 38.0542C120.438 38.0237 120.257 38.1554 120.226 38.3484L119.894 40.4517C119.864 40.6447 119.995 40.8258 120.188 40.8562L166.818 48.2166C167.011 48.2471 167.192 48.1154 167.223 47.9224L167.555 45.8191C167.585 45.6261 167.453 45.445 167.26 45.4146Z" fill="white"/>
<path d="M100.785 145.008C71.6866 144.25 39.4989 152.065 39.4989 152.065C31.8354 194.352 35.2068 242.182 36.5116 256.669C36.7563 259.382 38.7851 261.584 41.4639 262.077C56.5 264.841 72.357 263.164 80.3344 261.95C83.438 261.477 85.9193 259.134 86.5786 256.066C91.8495 231.53 106.909 177.4 106.909 177.4C121.145 175.771 132.897 171.78 142.595 166.449C135.319 157.85 131.954 146.963 130.509 140.534C120.188 143.634 109.76 145.242 100.785 145.008H100.785Z" fill="url(#paint14_linear_2271_86051)"/>
<path d="M187.156 102.962C184.33 99.4818 181.676 99.6323 181.676 99.6323C177.221 117.681 153.646 133.584 130.508 140.533C131.953 146.963 135.318 157.848 142.594 166.448C181.086 145.286 187.156 102.962 187.156 102.962Z" fill="url(#paint15_linear_2271_86051)"/>
<path d="M186.449 103.835C186.739 104.789 183.262 106.204 181.259 102.295C181.205 100.43 180.148 92.4335 181.276 90.9255C187.286 82.8945 198.884 72.8652 198.884 72.8652C200.809 74.8016 199.191 76.6707 199.191 76.6707L193.556 82.43C194.703 84.5502 196.109 86.3435 196.752 88.9014C197.238 90.8378 196.91 92.8998 195.917 94.6478C194.921 96.4032 193.562 98.6841 192.282 100.466C189.859 103.84 186.449 103.834 186.449 103.834V103.835Z" fill="url(#paint16_linear_2271_86051)"/>
<path d="M191.082 86.1777L185.956 90.4393L184.318 94.7157L188.803 99.788C188.803 99.788 190.409 91.2879 191.559 89.4559C192.709 87.6238 192.131 86.7272 191.081 86.1787L191.082 86.1777Z" fill="url(#paint17_linear_2271_86051)"/>
<path d="M50.3898 180.352L39.4962 152.065C39.4962 152.065 12.1371 170.276 7.44336 193.651C12.5757 194.078 21.9097 195.503 31.0137 200.21C33.1292 189.171 50.3898 180.352 50.3898 180.352Z" fill="url(#paint18_linear_2271_86051)"/>
<path d="M73.8922 207.095C73.8922 207.095 43.2078 224.052 33.0502 209.225C30.9411 206.147 30.4591 203.103 31.014 200.21C21.91 195.503 12.5761 194.078 7.44371 193.651C6.02903 200.698 6.66988 208.213 10.7449 215.841C28.4682 249.01 77.8592 214.657 77.8592 214.657L73.8922 207.093V207.095Z" fill="url(#paint19_linear_2271_86051)"/>
<path d="M71.5319 121.1L62.0161 147.791C61.8582 148.233 62.0364 148.726 62.4445 148.957C64.9553 150.376 74.0104 154.497 85.0361 147.653C86.1848 146.94 86.9734 145.767 87.159 144.428L90.379 121.28L71.531 121.1H71.5319Z" fill="url(#paint20_linear_2271_86051)"/>
<path d="M91.9173 96.4956C91.9173 96.4956 101.903 115.733 100.526 123.453C99.1496 131.172 86.5523 130.497 75.6079 124.112L68.1152 103.371L91.9173 96.4956Z" fill="url(#paint21_linear_2271_86051)"/>
<path d="M76.1911 113.967C76.6399 113.773 76.8107 113.228 76.5466 112.816C75.7432 111.564 74.2408 109.01 73.7745 106.782C73.7745 106.782 71.9581 105.594 78.4525 104.105C84.9479 102.616 94.6346 100.301 96.7187 94.8036C98.7503 89.4441 93.6761 75.8698 85.2711 86.5667C84.9516 86.9739 84.3329 86.9767 84.0208 86.563C82.6772 84.7789 79.134 81.0677 74.1448 83.2498C69.476 85.2914 68.9201 88.6924 68.9672 90.41C68.981 90.9151 68.5258 91.3038 68.0299 91.2041C65.6835 90.7332 60.0478 90.2945 57.3597 96.0558C55.1463 100.8 56.5296 103.512 57.8002 104.843C58.2121 105.274 58.0228 105.977 57.4512 106.146C55.9017 106.604 53.8951 107.895 54.0604 111.516C54.2885 116.522 59.8862 116.134 61.481 115.921C61.7423 115.886 62.0046 115.979 62.1791 116.176C63.5301 117.701 69.6209 124.176 76.2733 125.012C76.8495 125.085 77.302 124.52 77.1182 123.969L74.3165 115.565C74.1863 115.174 74.3766 114.75 74.7542 114.586L76.1892 113.966L76.1911 113.967Z" fill="url(#paint22_linear_2271_86051)"/>
<path d="M77.3369 115.168C77.3369 115.168 70.1443 110.131 69.5755 114.31C69.0067 118.488 76.0376 120.431 79.5438 118.905L77.3378 115.168H77.3369Z" fill="url(#paint23_linear_2271_86051)"/>
<path d="M67.6225 233.894L84.3373 175.522C84.5276 174.859 85.0927 174.376 85.7769 174.296C88.8058 173.943 97.581 172.951 107.713 172.094C119.917 171.062 134.09 170.225 142.559 170.937C143.763 171.038 144.491 172.312 143.955 173.395C139.14 183.139 119.329 222.773 109.408 235.757C109.079 236.188 108.572 236.439 108.03 236.434L69.2477 236.073C68.1193 236.063 67.3113 234.98 67.6216 233.895L67.6225 233.894Z" fill="url(#paint24_linear_2271_86051)"/>
<path d="M71.6592 219.79C71.6592 219.79 69.3304 210.216 70.2704 206.819C71.2095 203.422 73.0296 199.055 79.0946 200.025C85.1606 200.996 92.3153 203.551 92.3153 203.551C92.3153 203.551 91.9542 207.975 87.3436 206.548L90.2025 208.76C90.2025 208.76 89.7934 212.302 85.9002 210.41L88.5588 213.344C88.5588 213.344 86.8865 216.253 84.0211 214.387C81.1566 212.521 79.7826 220.943 71.6583 219.79H71.6592Z" fill="url(#paint25_linear_2271_86051)"/>
<path d="M106.598 189.517C106.598 192.227 108.794 194.423 111.505 194.423C114.215 194.423 116.411 192.226 116.411 189.517C116.411 186.808 114.214 184.61 111.505 184.61C108.795 184.61 106.598 186.807 106.598 189.517Z" fill="#91B3FA"/>
<path d="M86.2317 192.753L89.6345 181.208C90.0519 179.791 91.1923 178.726 92.6089 178.43C103.275 176.204 132.47 175.732 132.764 175.728L132.744 174.424C131.54 174.442 103.13 174.903 92.3429 177.153C90.4554 177.547 88.9383 178.96 88.3833 180.839L84.9805 192.383L86.2317 192.753Z" fill="#BDD0FB"/>
<path d="M184.34 261.947C183.996 261.888 183.692 261.696 183.494 261.409C180.594 257.229 159.585 224.569 189.84 196.298C218.561 169.46 231.36 164.169 233.559 147.931C233.815 146.034 236.402 145.66 237.193 147.403C243.108 160.424 252.005 190.651 218.768 209.241C182.105 229.748 184.293 253.583 185.817 260.386C186.018 261.285 185.249 262.1 184.34 261.947Z" fill="#91B3FA"/>
<path d="M188.782 262.697C187.967 262.559 187.339 261.907 187.239 261.087C186.559 255.503 185.113 234.672 200.586 229.655C217.62 224.132 230.713 240.25 243.484 228.371C244.156 227.745 245.233 228.344 245.049 229.242C243.742 235.619 238.36 250.314 216.431 252.604C192.96 255.055 190.244 257.652 190.61 260.992C190.722 262.022 189.804 262.869 188.782 262.696V262.697Z" fill="#91B3FA"/>
<path opacity="0.47" d="M232.027 164.461C231.678 165.626 231.231 166.732 230.719 167.819C230.211 168.904 229.649 169.965 229.045 171C228.442 172.036 227.797 173.05 227.099 174.025C226.404 175.003 225.681 175.965 224.911 176.885C221.848 180.588 218.214 183.809 214.253 186.526C212.275 187.881 210.184 189.107 208.09 190.228C206.027 191.337 204.038 192.587 202.127 193.949C198.309 196.675 194.806 199.851 191.725 203.391C188.642 206.931 186.001 210.853 183.902 215.048C181.799 219.239 180.281 223.73 179.464 228.352C178.643 232.975 178.524 237.72 179.059 242.397C179.586 247.08 180.808 251.677 182.478 256.099C182.527 256.226 182.463 256.368 182.337 256.416C182.213 256.463 182.074 256.402 182.023 256.281C180.193 251.882 178.863 247.25 178.222 242.504C177.89 240.132 177.739 237.734 177.762 235.336C177.8 232.939 177.997 230.539 178.393 228.17C179.166 223.429 180.659 218.808 182.756 214.484C184.854 210.157 187.569 206.143 190.699 202.505C193.837 198.868 197.405 195.608 201.303 192.799C203.253 191.396 205.286 190.106 207.401 188.957L208.957 188.108C209.476 187.832 209.98 187.534 210.485 187.235L211.243 186.789L211.987 186.319L212.73 185.849L213.46 185.359C215.403 184.046 217.281 182.635 219.048 181.094C220.818 179.557 222.503 177.917 224.046 176.147C225.607 174.395 227.028 172.517 228.32 170.553C229.598 168.587 230.751 166.504 231.596 164.329L231.601 164.314C231.646 164.198 231.776 164.141 231.891 164.186C232 164.229 232.057 164.349 232.024 164.46L232.027 164.461Z" fill="white"/>
<path opacity="0.47" d="M188.079 258.893C188.118 258.698 188.111 258.51 188.11 258.319L188.112 257.747C188.117 257.367 188.127 256.985 188.14 256.605C188.169 255.844 188.213 255.083 188.274 254.324C188.397 252.806 188.581 251.293 188.839 249.789C189.363 246.789 190.155 243.811 191.468 241.036C192.123 239.651 192.922 238.326 193.893 237.127C194.859 235.926 196.025 234.876 197.345 234.061C198.669 233.255 200.15 232.699 201.678 232.442C202.441 232.31 203.215 232.235 203.988 232.232C204.761 232.216 205.533 232.271 206.298 232.36C207.067 232.454 207.81 232.589 208.561 232.715L210.808 233.112C212.304 233.385 213.797 233.673 215.288 233.97C218.269 234.561 221.238 235.209 224.218 235.758C225.708 236.028 227.203 236.271 228.703 236.422C230.202 236.569 231.712 236.622 233.196 236.45C234.679 236.29 236.131 235.87 237.441 235.159C238.756 234.456 239.918 233.482 240.95 232.393C241.026 232.313 241.153 232.309 241.233 232.385C241.312 232.459 241.316 232.585 241.242 232.665C240.202 233.789 239.018 234.808 237.658 235.556C236.303 236.311 234.788 236.767 233.256 236.951C231.72 237.134 230.175 237.081 228.653 236.936C227.131 236.787 225.624 236.546 224.125 236.279C221.128 235.736 218.16 235.096 215.181 234.514C212.206 233.932 209.211 233.372 206.229 232.928C205.487 232.836 204.74 232.777 203.995 232.788C203.249 232.785 202.505 232.852 201.772 232.974C200.302 233.21 198.885 233.732 197.61 234.494C196.339 235.266 195.208 236.268 194.262 237.427C193.312 238.583 192.522 239.872 191.867 241.226C190.55 243.937 189.734 246.878 189.186 249.849C188.916 251.338 188.717 252.84 188.58 254.348C188.512 255.103 188.461 255.858 188.425 256.614C188.408 256.993 188.395 257.37 188.387 257.749L188.378 258.317C188.376 258.505 188.372 258.697 188.419 258.881C188.443 258.974 188.387 259.069 188.293 259.093C188.2 259.117 188.106 259.06 188.082 258.967C188.075 258.941 188.074 258.914 188.079 258.89V258.893Z" fill="white"/>
<defs>
<linearGradient id="paint0_linear_2271_86051" x1="-7.82718" y1="295.726" x2="180.354" y2="92.6081" gradientUnits="userSpaceOnUse">
<stop stop-color="#DAE3FE"/>
<stop offset="1" stop-color="#E9EFFD"/>
</linearGradient>
<linearGradient id="paint1_linear_2271_86051" x1="173.598" y1="144.017" x2="185.614" y2="144.017" gradientUnits="userSpaceOnUse">
<stop stop-color="#FE7062"/>
<stop offset="1" stop-color="#FF928E"/>
</linearGradient>
<linearGradient id="paint2_linear_2271_86051" x1="166.952" y1="-3.51015" x2="193.505" y2="40.936" gradientUnits="userSpaceOnUse">
<stop stop-color="#E1473D"/>
<stop offset="1" stop-color="#E9605A"/>
</linearGradient>
<linearGradient id="paint3_linear_2271_86051" x1="167.231" y1="0.744226" x2="187.875" y2="35.3005" gradientUnits="userSpaceOnUse">
<stop stop-color="#FE7062"/>
<stop offset="1" stop-color="#FF928E"/>
</linearGradient>
<linearGradient id="paint4_linear_2271_86051" x1="160.964" y1="-1.5912" x2="150.157" y2="77.8132" gradientUnits="userSpaceOnUse">
<stop stop-color="#E1473D"/>
<stop offset="1" stop-color="#E9605A"/>
</linearGradient>
<linearGradient id="paint5_linear_2271_86051" x1="157.365" y1="22.5379" x2="152.664" y2="89.9174" gradientUnits="userSpaceOnUse">
<stop stop-color="#FE7062"/>
<stop offset="1" stop-color="#FF928E"/>
</linearGradient>
<linearGradient id="paint6_linear_2271_86051" x1="196.566" y1="-75.7193" x2="197.185" y2="-5.81077" gradientUnits="userSpaceOnUse">
<stop stop-color="#4F52FF"/>
<stop offset="1" stop-color="#4042E2"/>
</linearGradient>
<linearGradient id="paint7_linear_2271_86051" x1="260.434" y1="27.3477" x2="374.886" y2="-61.1207" gradientUnits="userSpaceOnUse">
<stop stop-color="#4F52FF"/>
<stop offset="1" stop-color="#4042E2"/>
</linearGradient>
<linearGradient id="paint8_linear_2271_86051" x1="181.917" y1="35.5635" x2="171.242" y2="84.7661" gradientUnits="userSpaceOnUse">
<stop stop-color="#E1473D"/>
<stop offset="1" stop-color="#E9605A"/>
</linearGradient>
<linearGradient id="paint9_linear_2271_86051" x1="179.649" y1="37.3152" x2="179.887" y2="48.1423" gradientUnits="userSpaceOnUse">
<stop stop-color="#E1473D"/>
<stop offset="1" stop-color="#E9605A"/>
</linearGradient>
<linearGradient id="paint10_linear_2271_86051" x1="181.233" y1="73.235" x2="170.952" y2="120.627" gradientUnits="userSpaceOnUse">
<stop stop-color="#E1473D"/>
<stop offset="1" stop-color="#E9605A"/>
</linearGradient>
<linearGradient id="paint11_linear_2271_86051" x1="179.065" y1="74.9159" x2="179.294" y2="85.3441" gradientUnits="userSpaceOnUse">
<stop stop-color="#E1473D"/>
<stop offset="1" stop-color="#E9605A"/>
</linearGradient>
<linearGradient id="paint12_linear_2271_86051" x1="181.548" y1="106.261" x2="170.867" y2="155.493" gradientUnits="userSpaceOnUse">
<stop stop-color="#E1473D"/>
<stop offset="1" stop-color="#E9605A"/>
</linearGradient>
<linearGradient id="paint13_linear_2271_86051" x1="179.275" y1="108.01" x2="179.514" y2="118.843" gradientUnits="userSpaceOnUse">
<stop stop-color="#E1473D"/>
<stop offset="1" stop-color="#E9605A"/>
</linearGradient>
<linearGradient id="paint14_linear_2271_86051" x1="71.1815" y1="140.991" x2="137.866" y2="397.726" gradientUnits="userSpaceOnUse">
<stop stop-color="#4F52FF"/>
<stop offset="1" stop-color="#4042E2"/>
</linearGradient>
<linearGradient id="paint15_linear_2271_86051" x1="130.54" y1="132.649" x2="186.824" y2="133.18" gradientUnits="userSpaceOnUse">
<stop stop-color="#FEBBBA"/>
<stop offset="1" stop-color="#FF928E"/>
</linearGradient>
<linearGradient id="paint16_linear_2271_86051" x1="174.405" y1="124.232" x2="135.828" y2="209.805" gradientUnits="userSpaceOnUse">
<stop stop-color="#FEBBBA"/>
<stop offset="1" stop-color="#FF928E"/>
</linearGradient>
<linearGradient id="paint17_linear_2271_86051" x1="186.906" y1="95.6635" x2="202.893" y2="71.5826" gradientUnits="userSpaceOnUse">
<stop stop-color="#FEBBBA"/>
<stop offset="1" stop-color="#FF928E"/>
</linearGradient>
<linearGradient id="paint18_linear_2271_86051" x1="20.4073" y1="154.241" x2="85.6239" y2="405.327" gradientUnits="userSpaceOnUse">
<stop stop-color="#4F52FF"/>
<stop offset="1" stop-color="#4042E2"/>
</linearGradient>
<linearGradient id="paint19_linear_2271_86051" x1="6.62107" y1="211.743" x2="77.847" y2="212.414" gradientUnits="userSpaceOnUse">
<stop stop-color="#FEBBBA"/>
<stop offset="1" stop-color="#FF928E"/>
</linearGradient>
<linearGradient id="paint20_linear_2271_86051" x1="62.0352" y1="136.115" x2="90.1964" y2="136.38" gradientUnits="userSpaceOnUse">
<stop stop-color="#FEBBBA"/>
<stop offset="1" stop-color="#FF928E"/>
</linearGradient>
<linearGradient id="paint21_linear_2271_86051" x1="97.1166" y1="118.61" x2="66.3313" y2="99.4306" gradientUnits="userSpaceOnUse">
<stop stop-color="#FEBBBA"/>
<stop offset="1" stop-color="#FF928E"/>
</linearGradient>
<linearGradient id="paint22_linear_2271_86051" x1="50.1304" y1="79.3673" x2="89.8331" y2="111.34" gradientUnits="userSpaceOnUse">
<stop stop-color="#09005D"/>
<stop offset="1" stop-color="#1A0F91"/>
</linearGradient>
<linearGradient id="paint23_linear_2271_86051" x1="88.9165" y1="125.576" x2="61.2181" y2="108.32" gradientUnits="userSpaceOnUse">
<stop stop-color="#FEBBBA"/>
<stop offset="1" stop-color="#FF928E"/>
</linearGradient>
<linearGradient id="paint24_linear_2271_86051" x1="96.9808" y1="166.569" x2="136.284" y2="330.336" gradientUnits="userSpaceOnUse">
<stop stop-color="#09005D"/>
<stop offset="1" stop-color="#1A0F91"/>
</linearGradient>
<linearGradient id="paint25_linear_2271_86051" x1="70.0469" y1="209.894" x2="92.3162" y2="209.894" gradientUnits="userSpaceOnUse">
<stop stop-color="#FEBBBA"/>
<stop offset="1" stop-color="#FF928E"/>
</linearGradient>
</defs>
</svg>
