<svg width="25" height="25" viewBox="0 0 25 25" fill="none" xmlns="http://www.w3.org/2000/svg">
<path d="M18.6841 13.3528L17.9509 12.6728L18.6841 13.3528ZM11.6131 6.28178L12.2931 7.01498L11.6131 6.28178ZM22.0415 4.81627L23.0331 4.94595L22.0415 4.81627ZM20.1496 2.92441L20.2793 3.91596L20.1496 2.92441ZM6.87496 13.1945L7.77286 13.6347L6.87496 13.1945ZM11.7714 18.0909L11.3312 17.193L11.7714 18.0909ZM5.5876 18.4114C5.97812 18.0208 5.97812 17.3877 5.5876 16.9971C5.19708 16.6066 4.56391 16.6066 4.17339 16.9971L5.5876 18.4114ZM1.34496 19.8256C0.954436 20.2161 0.954435 20.8493 1.34496 21.2398C1.73548 21.6303 2.36865 21.6303 2.75917 21.2398L1.34496 19.8256ZM7.70892 20.5327C8.09944 20.1422 8.09944 19.509 7.70892 19.1185C7.31839 18.7279 6.68523 18.7279 6.29471 19.1185L7.70892 20.5327ZM4.88049 20.5327C4.48997 20.9232 4.48997 21.5564 4.88049 21.9469C5.27102 22.3374 5.90418 22.3374 6.29471 21.9469L4.88049 20.5327ZM10.9767 21.626L11.9666 21.4845L11.9666 21.4845L10.9767 21.626ZM16.1386 18.1611L17.1285 18.0197L16.1386 18.1611ZM3.33993 13.9892L3.48135 12.9993L3.48135 12.9993L3.33993 13.9892ZM6.80475 8.82734L6.66333 9.81729L6.66333 9.81729L6.80475 8.82734ZM9.60051 17.7043L10.3076 16.9971L7.96876 14.6583L7.26165 15.3654L6.55455 16.0725L8.8934 18.4114L9.60051 17.7043ZM18.6841 13.3528L17.9509 12.6728C16.0911 14.6781 13.0533 16.3488 11.3312 17.193L11.7714 18.0909L12.2116 18.9888C13.9544 18.1344 17.2868 16.33 19.4173 14.0329L18.6841 13.3528ZM6.87496 13.1945L7.77286 13.6347C8.61713 11.9126 10.2878 8.87478 12.2931 7.01498L11.6131 6.28178L10.933 5.54858C8.63595 7.67906 6.83146 11.0115 5.97706 12.7544L6.87496 13.1945ZM22.0415 4.81627L21.0499 4.68658C20.7469 7.00399 19.9462 10.5216 17.9509 12.6728L18.6841 13.3528L19.4173 14.0329C21.87 11.3884 22.7237 7.31089 23.0331 4.94595L22.0415 4.81627ZM11.6131 6.28178L12.2931 7.01498C14.4443 5.01974 17.9619 4.21905 20.2793 3.91596L20.1496 2.92441L20.02 1.93285C17.655 2.24216 13.5775 3.09589 10.933 5.54858L11.6131 6.28178ZM22.0415 4.81627L23.0331 4.94595C23.2654 3.16926 21.7967 1.70048 20.02 1.93285L20.1496 2.92441L20.2793 3.91596C20.7535 3.85395 21.112 4.21244 21.0499 4.68658L22.0415 4.81627ZM7.26165 15.3654L7.96876 14.6583C7.67635 14.3659 7.61452 13.9577 7.77286 13.6347L6.87496 13.1945L5.97706 12.7544C5.41888 13.8929 5.69598 15.2139 6.55455 16.0725L7.26165 15.3654ZM9.60051 17.7043L8.8934 18.4114C9.75196 19.2699 11.073 19.547 12.2116 18.9888L11.7714 18.0909L11.3312 17.193C11.0082 17.3514 10.6 17.2896 10.3076 16.9971L9.60051 17.7043ZM4.88049 17.7043L4.17339 16.9971L1.34496 19.8256L2.05207 20.5327L2.75917 21.2398L5.5876 18.4114L4.88049 17.7043ZM7.00181 19.8256L6.29471 19.1185L4.88049 20.5327L5.5876 21.2398L6.29471 21.9469L7.70892 20.5327L7.00181 19.8256ZM14.088 8.0495L13.3809 7.3424C12.2093 8.51397 12.2093 10.4135 13.3809 11.585L14.088 10.8779L14.7951 10.1708C14.4046 9.7803 14.4046 9.14714 14.7951 8.75661L14.088 8.0495ZM14.088 10.8779L13.3809 11.585C14.5524 12.7566 16.4519 12.7566 17.6235 11.585L16.9164 10.8779L16.2093 10.1708C15.8188 10.5613 15.1856 10.5613 14.7951 10.1708L14.088 10.8779ZM16.9164 10.8779L17.6235 11.585C18.7951 10.4135 18.7951 8.51397 17.6235 7.3424L16.9164 8.0495L16.2093 8.75661C16.5998 9.14714 16.5998 9.7803 16.2093 10.1708L16.9164 10.8779ZM16.9164 8.0495L17.6235 7.3424C16.4519 6.17082 14.5524 6.17083 13.3809 7.3424L14.088 8.0495L14.7951 8.75661C15.1856 8.36609 15.8188 8.36609 16.2093 8.75661L16.9164 8.0495ZM15.8557 19.0097L15.1486 18.3026L11.9666 21.4845L12.6738 22.1916L13.3809 22.8987L16.5628 19.7168L15.8557 19.0097ZM10.9767 21.626L11.9666 21.4845L11.5424 18.5147L10.5524 18.6561L9.56249 18.7975L9.98675 21.7674L10.9767 21.626ZM15.8557 16.1812L14.8658 16.3227L15.1486 18.3026L16.1386 18.1611L17.1285 18.0197L16.8457 16.0398L15.8557 16.1812ZM12.6738 22.1916L11.9666 21.4845L10.9767 21.626L9.98675 21.7674C10.2198 23.3989 12.2155 24.0641 13.3809 22.8987L12.6738 22.1916ZM15.8557 19.0097L16.5628 19.7168C17.008 19.2716 17.2176 18.6429 17.1285 18.0197L16.1386 18.1611L15.1486 18.3026L15.1486 18.3026L15.8557 19.0097ZM5.95622 9.11019L5.24911 8.40308L2.06713 11.5851L2.77424 12.2922L3.48135 12.9993L6.66333 9.81729L5.95622 9.11019ZM3.33993 13.9892L3.19851 14.9792L6.16835 15.4034L6.30977 14.4135L6.45119 13.4235L3.48135 12.9993L3.33993 13.9892ZM8.78465 9.11019L8.92607 8.12024L6.94617 7.83739L6.80475 8.82734L6.66333 9.81729L8.64323 10.1001L8.78465 9.11019ZM2.77424 12.2922L2.06713 11.5851C0.901756 12.7504 1.56698 14.7461 3.19851 14.9792L3.33993 13.9892L3.48135 12.9993L3.48135 12.9993L2.77424 12.2922ZM5.95622 9.11019L6.66333 9.81729L6.80475 8.82734L6.94617 7.83739C6.32298 7.74837 5.69425 7.95794 5.24911 8.40308L5.95622 9.11019Z" fill="black"/>
</svg>
