<svg width="269" height="269" viewBox="0 0 269 269" fill="none" xmlns="http://www.w3.org/2000/svg">
<path fill-rule="evenodd" clip-rule="evenodd" d="M37.6031 71.5234C60.3883 49.7617 67.3583 2.03321 142.39 8.67507C196.281 13.4468 210.873 24.8717 228.762 72.8836C239.406 101.446 263.792 112.565 262.928 158.089C261.948 209.881 203.046 242.795 161.808 243.232C150.915 243.351 111.892 242.16 102.01 242.16C45.9555 242.16 5.35811 185.047 5.67173 139.246C5.88294 107.833 18.498 89.7716 37.6031 71.5234Z" fill="#3887FF"/>
<path d="M88.8561 256.328C88.8561 256.328 88.5601 255.901 88.0479 255.097C87.7519 254.641 87.8882 254.035 88.3439 253.739C88.546 253.612 88.7715 253.565 88.9924 253.589C89.0628 253.161 89.1474 252.673 89.2508 252.137C89.3542 251.601 89.8663 251.258 90.402 251.362C90.9376 251.465 91.2806 251.977 91.1773 252.513C90.8906 254.012 90.745 255.097 90.6745 255.619C90.6557 255.769 90.6369 255.873 90.6322 255.924L90.2281 258.311L88.8561 256.319L88.8561 256.328ZM85.4683 250.864C84.6555 249.459 83.8473 248.002 83.0673 246.536C82.8136 246.057 82.9921 245.465 83.4714 245.211C83.9507 244.957 84.5427 245.136 84.8011 245.62C85.567 247.062 86.3658 248.5 87.1646 249.882C87.4371 250.352 87.2773 250.953 86.8075 251.226C86.7229 251.272 86.643 251.305 86.5537 251.329C86.1403 251.432 85.6939 251.258 85.4636 250.868L85.4683 250.864ZM91.0927 248.5C90.5758 248.35 90.2751 247.805 90.4302 247.283C90.9094 245.639 91.4639 244.051 92.07 242.552C92.272 242.049 92.8453 241.805 93.3527 242.011C93.8555 242.213 94.0951 242.791 93.8884 243.289C93.3057 244.727 92.7748 246.254 92.3143 247.833C92.211 248.181 91.9337 248.43 91.6095 248.51C91.4451 248.552 91.2712 248.547 91.0974 248.496L91.0927 248.5ZM94.6167 239.347C94.1421 239.079 93.9777 238.483 94.2408 238.013C95.0913 236.495 96.031 235.076 97.0365 233.798C97.3701 233.37 97.9904 233.295 98.4132 233.634C98.8408 233.967 98.9113 234.583 98.5777 235.01C97.638 236.204 96.7546 237.538 95.9511 238.971C95.8102 239.216 95.5893 239.38 95.3309 239.441C95.096 239.498 94.8375 239.474 94.612 239.343L94.6167 239.347ZM80.8307 242.129C80.1072 240.635 79.407 239.126 78.7492 237.642C78.5284 237.148 78.7539 236.566 79.252 236.349C79.7547 236.129 80.328 236.354 80.5441 236.852C81.1878 238.314 81.8785 239.803 82.5927 241.269C82.8277 241.758 82.6256 242.345 82.137 242.58C82.0759 242.613 82.0101 242.632 81.9443 242.65C81.5026 242.763 81.0281 242.552 80.826 242.124L80.8307 242.129ZM100.434 231.491C100.081 231.082 100.119 230.462 100.532 230.105C101.458 229.301 102.445 228.568 103.46 227.939C103.859 227.69 104.244 227.436 104.616 227.187C105.067 226.886 105.677 226.999 105.978 227.45C106.284 227.897 106.166 228.512 105.715 228.813C105.33 229.076 104.926 229.339 104.503 229.602C103.577 230.18 102.675 230.847 101.82 231.59C101.698 231.693 101.561 231.764 101.416 231.796C101.068 231.881 100.683 231.778 100.438 231.486L100.434 231.491ZM118.632 225.134C118.491 224.758 118.594 224.354 118.857 224.091C118.975 223.203 119.322 222.31 119.905 221.332C120.182 220.867 120.784 220.717 121.249 220.994C121.714 221.271 121.864 221.873 121.587 222.338C120.878 223.527 120.652 224.457 120.826 225.467L118.942 225.979L118.627 225.138L118.632 225.134ZM108.285 225.632C107.909 225.237 107.928 224.617 108.318 224.246C109.53 223.09 110.526 221.887 111.259 220.675C111.541 220.214 112.143 220.064 112.608 220.35C113.068 220.632 113.219 221.234 112.937 221.704C112.11 223.066 111.01 224.401 109.667 225.679C109.544 225.801 109.389 225.881 109.23 225.918C108.896 225.998 108.534 225.909 108.28 225.646L108.285 225.632ZM76.8416 233.074C76.2307 231.533 75.6481 229.973 75.1171 228.437C74.9433 227.925 75.2111 227.366 75.7186 227.187C76.2307 227.004 76.7899 227.281 76.9684 227.788C77.4947 229.301 78.0632 230.838 78.6646 232.351C78.8667 232.854 78.6177 233.422 78.1149 233.624C78.0726 233.638 78.0303 233.652 77.9927 233.662C77.5182 233.779 77.0248 233.53 76.8463 233.07L76.8416 233.074ZM116.874 220.548C116.184 218.786 115.568 217.259 115.037 216.014C114.826 215.511 115.061 214.938 115.554 214.726C116.052 214.529 116.63 214.75 116.837 215.248C117.372 216.507 117.997 218.053 118.697 219.834C118.895 220.341 118.646 220.91 118.143 221.102C118.101 221.116 118.058 221.13 118.021 221.14C117.546 221.257 117.053 221.008 116.87 220.543L116.874 220.548ZM123.072 218.673C122.644 218.339 122.574 217.724 122.907 217.296C123.796 216.164 124.754 214.914 125.75 213.401C126.051 212.95 126.657 212.823 127.108 213.124C127.559 213.425 127.686 214.031 127.385 214.482C126.352 216.051 125.36 217.343 124.449 218.509C124.308 218.687 124.12 218.8 123.913 218.856C123.626 218.927 123.316 218.87 123.067 218.678L123.072 218.673ZM113.665 217.592C113.13 217.508 112.763 217.01 112.848 216.474C113.087 214.919 112.918 213.641 112.81 212.8C112.763 212.443 112.725 212.151 112.721 211.94C112.716 211.822 112.721 211.724 112.73 211.639C112.787 211.103 113.266 210.737 113.801 210.793C114.342 210.845 114.736 211.362 114.68 211.897C114.68 212.057 114.718 212.273 114.751 212.541C114.868 213.439 115.065 214.942 114.783 216.775C114.722 217.174 114.422 217.484 114.05 217.574C113.928 217.602 113.797 217.611 113.66 217.588L113.665 217.592ZM73.5948 223.719C73.1719 222.3 72.7819 220.877 72.4295 219.481L72.2979 218.936C72.1664 218.41 72.4906 217.879 73.0121 217.752C73.5431 217.625 74.0693 217.945 74.2009 218.471L74.3324 219.007C74.6755 220.374 75.056 221.769 75.4695 223.16C75.6246 223.682 75.3286 224.222 74.8117 224.382C74.7976 224.387 74.7835 224.391 74.7694 224.396C74.2667 224.523 73.7404 224.232 73.5901 223.724L73.5948 223.719ZM128.588 210.582C128.104 210.333 127.916 209.741 128.161 209.262C128.87 207.875 129.528 206.4 130.12 204.878C130.317 204.37 130.881 204.116 131.393 204.319C131.901 204.516 132.155 205.08 131.952 205.592C131.337 207.175 130.651 208.707 129.909 210.154C129.777 210.417 129.537 210.591 129.274 210.657C129.049 210.713 128.809 210.69 128.588 210.582ZM132.333 201.537C131.816 201.387 131.515 200.841 131.661 200.32C131.755 199.991 131.854 199.657 131.943 199.314C132.272 198.102 132.53 196.876 132.718 195.664C132.803 195.128 133.306 194.757 133.837 194.846C134.372 194.931 134.739 195.429 134.654 195.964C134.457 197.252 134.18 198.553 133.827 199.836C133.733 200.184 133.635 200.527 133.536 200.87C133.433 201.217 133.155 201.466 132.831 201.546C132.667 201.589 132.493 201.584 132.324 201.537L132.333 201.537ZM72.4013 214.876C71.8703 214.975 71.3582 214.623 71.2595 214.092C70.9541 212.443 70.7004 210.789 70.503 209.182C70.4372 208.646 70.8225 208.139 71.3582 208.092C71.8938 208.026 72.3872 208.406 72.4483 208.947C72.6409 210.511 72.89 212.123 73.186 213.735C73.2846 214.247 72.9604 214.74 72.4577 214.867C72.4342 214.872 72.4201 214.876 72.3966 214.881L72.4013 214.876ZM134.062 191.905C133.517 191.905 133.08 191.468 133.08 190.923C133.08 189.344 132.963 187.751 132.718 186.182C132.634 185.646 133.005 185.134 133.541 185.068C134.076 184.983 134.579 185.355 134.654 185.89C134.908 187.554 135.035 189.25 135.04 190.927C135.04 191.388 134.72 191.773 134.297 191.876C134.222 191.895 134.137 191.905 134.057 191.909L134.062 191.905ZM71.0951 205.15C70.55 205.178 70.0942 204.76 70.0613 204.22C69.9721 202.542 69.9486 200.865 69.9956 199.239C70.0097 198.699 70.456 198.271 71.0011 198.281C71.5414 198.295 71.9737 198.746 71.9596 199.286C71.9173 200.86 71.9408 202.491 72.0254 204.116C72.0489 204.591 71.7294 205.005 71.283 205.122C71.2219 205.136 71.1608 205.15 71.0951 205.15ZM131.661 181.544C131.201 180.04 130.627 178.546 129.951 177.09C129.721 176.596 129.937 176.014 130.425 175.788C130.919 175.558 131.501 175.774 131.727 176.263C132.441 177.794 133.047 179.378 133.536 180.966C133.696 181.483 133.4 182.033 132.883 182.192C132.869 182.197 132.845 182.202 132.831 182.206C132.328 182.333 131.812 182.042 131.656 181.539L131.661 181.544ZM71.1984 195.349C70.6581 195.288 70.2728 194.799 70.3339 194.268C70.5218 192.595 70.7896 190.937 71.1232 189.334C71.2313 188.803 71.7576 188.465 72.2838 188.578C72.8148 188.686 73.1531 189.212 73.0403 189.738C72.7161 191.284 72.4577 192.877 72.2791 194.484C72.2321 194.907 71.9267 195.231 71.5414 195.325C71.4287 195.353 71.3159 195.363 71.1937 195.344L71.1984 195.349ZM127.648 172.917C126.347 170.901 125.238 169.68 124.933 169.412L123.11 168.237C122.654 167.941 122.527 167.335 122.818 166.884C123.114 166.428 123.72 166.301 124.171 166.593L125.952 167.744L125.938 167.758C127.132 168.538 129.265 171.827 129.293 171.865C129.589 172.32 129.453 172.927 129.002 173.218C128.908 173.274 128.809 173.317 128.706 173.345C128.306 173.443 127.879 173.288 127.644 172.922L127.648 172.917ZM73.0356 185.73C72.5188 185.561 72.2321 185.012 72.4013 184.495C72.9134 182.902 73.5102 181.328 74.1868 179.815C74.4076 179.321 74.9903 179.096 75.4836 179.317C75.977 179.538 76.2025 180.12 75.9817 180.614C75.338 182.056 74.7647 183.569 74.2761 185.091C74.168 185.425 73.9002 185.665 73.576 185.745C73.4021 185.787 73.2189 185.782 73.0403 185.726L73.0356 185.73ZM76.8181 176.704C76.3482 176.432 76.1884 175.83 76.4657 175.365C77.302 173.937 78.2277 172.532 79.2238 171.188C79.548 170.751 80.1635 170.662 80.5958 170.981C81.0328 171.306 81.1221 171.921 80.8026 172.353C79.8534 173.641 78.9607 174.985 78.1619 176.357C78.0256 176.596 77.8001 176.756 77.551 176.817C77.3114 176.878 77.0483 176.85 76.8181 176.714L76.8181 176.704ZM118.993 165.568L114.873 162.904C114.417 162.608 114.29 162.002 114.581 161.551C114.877 161.095 115.484 160.968 115.935 161.26L120.055 163.924C120.511 164.22 120.638 164.826 120.347 165.277C120.206 165.493 119.99 165.634 119.759 165.695C119.506 165.761 119.228 165.719 118.989 165.564L118.993 165.568ZM82.4706 168.712C82.0665 168.345 82.0477 167.725 82.4095 167.326C83.509 166.123 84.7025 164.939 85.957 163.816C86.3611 163.449 86.9813 163.487 87.3431 163.886C87.7049 164.286 87.672 164.911 87.2726 165.272C86.0651 166.358 84.9139 167.5 83.8567 168.651C83.7204 168.796 83.556 168.895 83.3727 168.937C83.0626 169.013 82.7243 168.937 82.4706 168.712ZM110.752 160.24L106.631 157.576C106.175 157.28 106.049 156.674 106.34 156.223C106.636 155.767 107.242 155.64 107.693 155.931L111.814 158.596C112.27 158.892 112.397 159.498 112.105 159.949C111.964 160.165 111.748 160.306 111.518 160.367C111.264 160.433 110.987 160.39 110.747 160.235L110.752 160.24ZM89.6173 162.016C89.2884 161.584 89.3777 160.968 89.8146 160.644C91.1068 159.672 92.4882 158.722 93.9119 157.816C94.3677 157.529 94.9785 157.661 95.2651 158.116C95.5564 158.577 95.4202 159.183 94.9644 159.47C93.583 160.343 92.2439 161.269 90.994 162.209C90.8859 162.289 90.7638 162.345 90.6463 162.378C90.2751 162.467 89.8663 162.34 89.6267 162.016L89.6173 162.016ZM97.7977 156.636C97.5393 156.162 97.7178 155.56 98.1971 155.306C99.5832 154.559 101.04 153.826 102.529 153.136L103.018 152.91L103.572 153.267C104.028 153.563 104.155 154.169 103.864 154.62C103.671 154.916 103.352 155.076 103.018 155.072C101.684 155.701 100.377 156.359 99.1274 157.036C99.0523 157.073 98.9771 157.101 98.8972 157.125C98.4696 157.233 98.0138 157.04 97.7977 156.636Z" fill="#91B3FA"/>
<path d="M115.682 163.686C115.682 163.686 129.041 180.841 117.501 192.005C105.961 203.169 91.5499 211.566 91.3901 219.122C91.3901 219.122 72.1161 181.222 108.822 160.256L115.682 163.686Z" fill="url(#paint0_linear_934_389157)"/>
<path d="M153.291 137.561C153.291 137.561 171.47 148.748 171.061 155.97C170.667 162.84 146.68 204.804 144.34 208.882C144.232 209.065 144.006 209.131 143.818 209.037C142.239 208.285 141.112 206.838 140.783 205.119C139.204 196.821 134.689 172.007 135.732 164.066C136.986 154.476 153.291 137.561 153.291 137.561Z" fill="url(#paint1_linear_934_389157)"/>
<g opacity="0.58">
<path d="M150.322 192.591C150.449 192.558 150.566 192.478 150.637 192.351C150.768 192.116 163.506 168.909 168.6 158.704C169.506 156.885 169.262 154.705 167.965 153.145C165.926 150.683 161.791 145.994 156.961 142.216C156.75 142.052 156.439 142.089 156.275 142.301C156.111 142.512 156.148 142.822 156.36 142.987C161.115 146.708 165.198 151.336 167.209 153.77C168.252 155.029 168.454 156.791 167.721 158.267C162.637 168.454 149.904 191.646 149.777 191.876C149.645 192.111 149.73 192.412 149.974 192.544C150.087 192.609 150.214 192.614 150.331 192.591L150.322 192.591Z" fill="white"/>
</g>
<path d="M108.474 116.322C108.474 116.322 88.303 109.335 82.9747 114.231C77.9048 118.887 60.6231 164.023 58.9456 168.416C58.8704 168.614 58.9644 168.83 59.1524 168.924C60.7311 169.676 62.5683 169.624 64.1095 168.787C71.5334 164.756 93.5985 152.539 99.0818 146.699C105.707 139.651 108.474 116.322 108.474 116.322Z" fill="url(#paint2_linear_934_389157)"/>
<g opacity="0.58">
<path d="M68.3228 153.727C68.4732 153.69 68.5954 153.586 68.6612 153.436C68.7598 153.187 78.6459 128.65 83.3117 118.262C83.9836 116.763 85.4778 115.804 87.1129 115.814C90.2704 115.832 96.4398 116.063 102.327 117.383C102.59 117.449 102.854 117.28 102.915 117.012C102.971 116.749 102.811 116.486 102.543 116.424C96.8674 115.146 91.0222 114.855 87.1223 114.827C85.0972 114.813 83.2506 116.002 82.4189 117.858C77.7484 128.26 67.853 152.816 67.7543 153.065C67.6509 153.319 67.7731 153.6 68.0268 153.704C68.1255 153.746 68.2336 153.751 68.3276 153.723L68.3228 153.727Z" fill="white"/>
</g>
<path d="M183.747 72.652C182.426 82.9469 179.555 94.2002 174.143 105.712C157.335 141.446 138.804 164.798 133.358 171.296C132.371 172.471 130.821 172.997 129.317 172.697C117.462 170.324 106.82 165.376 97.38 157.863C95.6039 156.453 94.777 154.151 95.2186 151.924C97.1357 142.263 103.643 114.113 119.924 80.0149C125.365 68.6253 132.193 59.3266 139.269 51.8181C159.295 55.2575 175.134 66.0316 183.751 72.6474L183.747 72.652Z" fill="url(#paint3_linear_934_389157)"/>
<path d="M139.26 51.8183C154.893 35.2366 171.738 27.3851 177.489 25.0263C178.616 24.5659 179.885 25.1673 180.238 26.3279C182.051 32.2482 186.614 50.1549 183.738 72.6522C175.121 66.0365 159.286 55.2577 139.256 51.823L139.26 51.8183Z" fill="url(#paint4_linear_934_389157)"/>
<path d="M130.215 82.0185C125.831 91.2608 130.323 102.566 140.247 107.265C150.166 111.968 161.762 108.284 166.136 99.0419C170.52 89.7995 166.028 78.4945 156.105 73.7958C146.186 69.0924 134.589 72.7762 130.215 82.0185Z" fill="url(#paint5_linear_934_389157)"/>
<path d="M133.585 83.0464C130.094 90.4092 133.67 99.4166 141.578 103.161C149.481 106.911 158.719 103.97 162.21 96.6068C165.701 89.2439 162.125 80.2365 154.217 76.4917C146.309 72.7468 137.076 75.6835 133.585 83.0464Z" fill="url(#paint6_linear_934_389157)"/>
<path d="M159.099 92.0977C159.287 92.0507 159.433 91.8957 159.465 91.6936C160.227 86.5063 157.309 81.2484 152.37 78.9132C151.125 78.3258 149.81 77.9406 148.466 77.7714C148.198 77.7385 147.954 77.9264 147.916 78.199C147.883 78.4668 148.071 78.7111 148.339 78.744C149.584 78.8991 150.796 79.2562 151.943 79.8012C156.496 81.9579 159.188 86.7929 158.488 91.5527C158.446 91.8205 158.634 92.0742 158.902 92.1071C158.967 92.1165 159.028 92.1118 159.09 92.0977L159.099 92.0977Z" fill="#91B3FA"/>
<path d="M120.372 118.54C117.477 124.648 120.442 132.115 126.997 135.22C133.551 138.326 141.21 135.892 144.1 129.789C146.994 123.68 144.029 116.214 137.475 113.108C130.92 110.003 123.261 112.436 120.372 118.54Z" fill="url(#paint7_linear_934_389157)"/>
<path d="M122.598 119.217C120.291 124.08 122.654 130.034 127.879 132.505C133.1 134.981 139.203 133.041 141.51 128.178C143.817 123.315 141.454 117.361 136.229 114.89C131.009 112.414 124.905 114.354 122.598 119.217Z" fill="url(#paint8_linear_934_389157)"/>
<path d="M139.49 125.357C139.678 125.31 139.824 125.155 139.857 124.952C140.369 121.452 138.405 117.909 135.074 116.335C134.237 115.94 133.354 115.677 132.442 115.565C132.174 115.532 131.93 115.72 131.893 115.992C131.86 116.26 132.048 116.504 132.32 116.542C133.124 116.64 133.908 116.871 134.651 117.228C137.592 118.619 139.335 121.743 138.879 124.821C138.837 125.089 139.025 125.342 139.293 125.375C139.359 125.385 139.42 125.38 139.481 125.366L139.49 125.357Z" fill="#91B3FA"/>
<defs>
<linearGradient id="paint0_linear_934_389157" x1="127.714" y1="152.354" x2="89.5554" y2="205.772" gradientUnits="userSpaceOnUse">
<stop stop-color="#E1473D"/>
<stop offset="1" stop-color="#E9605A"/>
</linearGradient>
<linearGradient id="paint1_linear_934_389157" x1="153.978" y1="215.054" x2="153.247" y2="161.475" gradientUnits="userSpaceOnUse">
<stop stop-color="#FE7062"/>
<stop offset="1" stop-color="#FF928E"/>
</linearGradient>
<linearGradient id="paint2_linear_934_389157" x1="41.5737" y1="164.269" x2="101.387" y2="123.856" gradientUnits="userSpaceOnUse">
<stop stop-color="#FE7062"/>
<stop offset="1" stop-color="#FF928E"/>
</linearGradient>
<linearGradient id="paint3_linear_934_389157" x1="132.466" y1="80.5031" x2="189.764" y2="352.639" gradientUnits="userSpaceOnUse">
<stop stop-color="#4042E2"/>
<stop offset="1" stop-color="#4F52FF"/>
</linearGradient>
<linearGradient id="paint4_linear_934_389157" x1="158.029" y1="26.5524" x2="172.207" y2="113.125" gradientUnits="userSpaceOnUse">
<stop stop-color="#09005D"/>
<stop offset="1" stop-color="#1A0F91"/>
</linearGradient>
<linearGradient id="paint5_linear_934_389157" x1="166.852" y1="85.9902" x2="129.327" y2="95.374" gradientUnits="userSpaceOnUse">
<stop stop-color="#FE7062"/>
<stop offset="1" stop-color="#FF928E"/>
</linearGradient>
<linearGradient id="paint6_linear_934_389157" x1="162.139" y1="96.6829" x2="133.515" y2="83.1157" gradientUnits="userSpaceOnUse">
<stop stop-color="#09005D"/>
<stop offset="1" stop-color="#1A0F91"/>
</linearGradient>
<linearGradient id="paint7_linear_934_389157" x1="144.543" y1="121.213" x2="119.75" y2="127.413" gradientUnits="userSpaceOnUse">
<stop stop-color="#FE7062"/>
<stop offset="1" stop-color="#FF928E"/>
</linearGradient>
<linearGradient id="paint8_linear_934_389157" x1="141.439" y1="128.251" x2="122.53" y2="119.289" gradientUnits="userSpaceOnUse">
<stop stop-color="#09005D"/>
<stop offset="1" stop-color="#1A0F91"/>
</linearGradient>
</defs>
</svg>
