<svg width="40" height="41" viewBox="0 0 40 41" fill="none" xmlns="http://www.w3.org/2000/svg">
<path d="M17.5017 28.8539C17.5017 28.8539 14.8646 12.7597 7.46081 3.60631C6.96314 2.99103 5.94791 3.15266 5.67254 3.89343C3.83147 8.84655 -0.151596 23.971 17.5017 28.8539Z" fill="#91B3FA"/>
<path opacity="0.5" d="M15.9405 27.729C15.9777 27.7694 15.9196 27.8258 15.877 27.7907C14.3065 26.4961 8.33471 20.2437 6.89113 8.4378C6.88648 8.39984 6.94497 8.38913 6.95297 8.42657C7.54501 11.1793 10.0524 21.35 15.9405 27.729Z" fill="white"/>
<path d="M32.5846 12.7895C32.2761 12.1466 32.0553 11.4735 32.0038 10.7407C31.8741 8.89425 32.9474 7.19389 33.736 5.60417C34.4608 4.14303 34.9994 1.96578 32.554 2.15956C30.6058 2.31396 28.3153 4.25547 28.054 6.28013C27.7449 8.67633 28.9114 11.698 27.5282 13.8746C25.5934 16.9197 24.1978 16.2218 24.1978 21.3603C24.1978 23.5558 25.4139 24.767 26.807 25.4341C29.0056 26.487 31.6274 26.0615 33.3791 24.3662C34.9267 22.8685 35.8469 20.7154 35.5357 18.5538C35.2213 16.3706 33.509 14.715 32.5848 12.7895H32.5846Z" fill="#91B3FA"/>
<path d="M30.9501 29.3105C30.9195 29.3105 30.8917 29.2899 30.884 29.2589C29.672 24.4211 29.0122 20.0356 28.9231 16.2242C28.8517 13.1723 29.144 10.4791 29.7918 8.21919C30.8982 4.3594 32.6334 3.11967 32.7069 3.0688C32.7377 3.04737 32.7802 3.05499 32.8017 3.08597C32.8232 3.11683 32.8156 3.1593 32.7847 3.18086C32.767 3.19312 31.0088 4.45338 29.9178 8.27483C28.9094 11.8068 28.2815 18.3088 31.0164 29.2257C31.0256 29.2623 31.0034 29.2993 30.9669 29.3085C30.9613 29.3099 30.9558 29.3105 30.9502 29.3105H30.9501Z" fill="#7D97F4"/>
<path d="M34.5262 7.37252C34.4319 7.34696 34.3285 7.33896 34.2183 7.35161C33.6088 7.42171 33.3585 8.06436 33.1794 8.56694C33.0261 8.99723 32.8453 9.51969 32.9359 9.98586C33.0338 10.4899 33.5692 10.901 33.9576 10.3893C34.3991 9.80758 35.0617 8.91447 35.0657 8.1435C35.0676 7.76033 34.8525 7.46095 34.5262 7.37239V7.37252Z" fill="#91B3FA"/>
<path d="M37.936 24.4882C38.2039 22.723 37.5624 20.6965 37.2423 18.8299C37.073 17.843 36.9946 16.8635 37.1532 15.8692C37.3108 14.8805 37.7753 13.8113 37.347 12.8264C36.4839 10.8422 34.4324 11.7452 33.2573 13.239C31.8936 14.9726 31.5208 17.8051 31.0028 19.9864C30.6905 21.3014 30.2202 22.6501 30.0555 23.99C29.7826 26.2097 30.2845 27.7509 31.3463 28.7915C32.3648 29.7897 33.9159 29.9968 35.1618 29.3029C36.2873 28.6761 37.5038 27.3357 37.936 24.4882Z" fill="#BDD0FB"/>
<path d="M33.2429 32.675C33.2117 32.675 33.1844 32.6526 33.179 32.6209C33.1744 32.5942 32.7284 29.9028 32.7168 26.1883C32.7059 22.7591 33.0736 17.7306 34.8863 13.2485C34.8997 13.2153 34.9375 13.1993 34.9707 13.2128C35.0039 13.2262 35.0199 13.264 35.0065 13.2972C33.2021 17.7588 32.8358 22.7685 32.8464 26.1854C32.8579 29.8898 33.3022 32.5726 33.3068 32.5994C33.3127 32.6346 33.2888 32.6682 33.2536 32.6741C33.25 32.6748 33.2463 32.675 33.2427 32.675H33.2429Z" fill="#7D97F4"/>
<path d="M35.417 22.5117H28.467V35.9154H35.417V22.5117Z" fill="#7D97F4"/>
<g opacity="0.89">
<path d="M33.934 26.1523H29.9915C29.9835 26.1523 29.9771 26.1588 29.9771 26.1668V32.2605C29.9771 32.2685 29.9835 32.275 29.9915 32.275H33.934C33.942 32.275 33.9485 32.2685 33.9485 32.2605V26.1668C33.9485 26.1588 33.942 26.1523 33.934 26.1523Z" fill="url(#paint0_linear_2478_8992)"/>
<path d="M33.6509 26.4834H32.1249C32.1205 26.4834 32.1169 26.487 32.1169 26.4914V31.9361C32.1169 31.9406 32.1205 31.9441 32.1249 31.9441H33.6509C33.6553 31.9441 33.6589 31.9406 33.6589 31.9361V26.4914C33.6589 26.487 33.6553 26.4834 33.6509 26.4834Z" fill="#7D97F4"/>
<path d="M31.8005 26.4834H30.2746C30.2702 26.4834 30.2666 26.487 30.2666 26.4914V31.9361C30.2666 31.9406 30.2702 31.9441 30.2746 31.9441H31.8005C31.805 31.9441 31.8086 31.9406 31.8086 31.9361V26.4914C31.8086 26.487 31.805 26.4834 31.8005 26.4834Z" fill="#7D97F4"/>
</g>
<path d="M36.7255 23.57H28.137L27.7866 17.3877L34.8868 17.2529L37.064 23.04C37.1786 23.2873 36.9982 23.5699 36.7256 23.5699L36.7255 23.57Z" fill="url(#paint1_linear_2478_8992)"/>
<path d="M34.9158 17.5377L28.0911 17.4614L28.1339 16.7705L34.5128 16.8192C34.7591 16.8344 34.9471 17.0344 34.9328 17.2657L34.9158 17.5377Z" fill="url(#paint2_linear_2478_8992)"/>
<path d="M11.0164 22.4658H4.06641V35.8695H11.0164V22.4658Z" fill="#7D97F4"/>
<g opacity="0.89">
<path d="M5.54936 32.2295H9.49189C9.49987 32.2295 9.50635 32.223 9.50635 32.215V26.1213C9.50635 26.1133 9.49987 26.1069 9.49189 26.1069H5.54936C5.54137 26.1069 5.5349 26.1133 5.5349 26.1213L5.5349 32.215C5.5349 32.223 5.54137 32.2295 5.54936 32.2295Z" fill="url(#paint3_linear_2478_8992)"/>
<path d="M5.83251 31.8984H7.35845C7.36287 31.8984 7.36646 31.8949 7.36646 31.8904L7.36646 26.4457C7.36646 26.4413 7.36287 26.4377 7.35845 26.4377H5.83251C5.82809 26.4377 5.82451 26.4413 5.82451 26.4457L5.82451 31.8904C5.82451 31.8949 5.82809 31.8984 5.83251 31.8984Z" fill="#7D97F4"/>
<path d="M7.6831 31.8984H9.20904C9.21346 31.8984 9.21704 31.8949 9.21704 31.8904V26.4457C9.21704 26.4413 9.21346 26.4377 9.20904 26.4377H7.6831C7.67867 26.4377 7.67509 26.4413 7.67509 26.4457L7.67509 31.8904C7.67509 31.8949 7.67867 31.8984 7.6831 31.8984Z" fill="#7D97F4"/>
</g>
<path d="M2.75808 23.5241H11.3466L11.697 17.3418L4.59682 17.207L2.41958 22.9941C2.30494 23.2414 2.48542 23.524 2.75795 23.524L2.75808 23.5241Z" fill="url(#paint4_linear_2478_8992)"/>
<path d="M4.56773 17.4918L11.3925 17.4155L11.3496 16.7246L4.97077 16.7733C4.72445 16.7885 4.53649 16.9885 4.55082 17.2198L4.56773 17.4918Z" fill="url(#paint5_linear_2478_8992)"/>
<path d="M16.7257 35.498H22.4181C22.4407 35.498 22.459 35.5164 22.459 35.539V36.4775H16.6848V35.539C16.6848 35.5164 16.7031 35.498 16.7257 35.498Z" fill="url(#paint6_linear_2478_8992)"/>
<path d="M10.0559 21.6544V36.461H29.0188C29.2112 36.461 29.3673 36.3049 29.3673 36.1123V21.6543H10.0559V21.6544Z" fill="#BDD0FB"/>
<path d="M21.5424 35.4979H17.6013V27.9635C17.6013 27.8785 17.6703 27.8096 17.7552 27.8096H21.3885C21.4735 27.8096 21.5424 27.8785 21.5424 27.9635V35.4979Z" fill="#7D97F4"/>
<path d="M17.7961 28.0986H21.3481C21.3734 28.0986 21.394 28.1193 21.394 28.1446V35.2072H17.7502V28.1446C17.7502 28.1193 17.7709 28.0986 17.7962 28.0986H17.7961Z" fill="url(#paint7_linear_2478_8992)"/>
<path d="M21.2643 27.2916H17.8798C17.7261 27.2916 17.6016 27.167 17.6016 27.0133V26.7702C17.6016 26.624 17.7147 26.5027 17.8605 26.4926L21.245 26.2575C21.4058 26.2463 21.5425 26.3738 21.5425 26.5351V27.0133C21.5425 27.1669 21.418 27.2916 21.2642 27.2916H21.2643Z" fill="url(#paint8_linear_2478_8992)"/>
<path d="M21.5161 35.9743H17.6745C17.5001 35.9743 17.3586 35.833 17.3586 35.6584V35.3826C17.3586 35.2167 17.485 34.7576 17.6505 34.7461L21.494 34.8006C21.6767 34.7879 21.8318 34.9326 21.8318 35.1157V35.6584C21.8318 35.8328 21.6904 35.9743 21.5159 35.9743H21.5161Z" fill="#7D97F4"/>
<path d="M21.5264 36.5749H17.6848C17.5104 36.5749 17.3689 36.4336 17.3689 36.259V35.9831C17.3689 35.8172 17.4052 35.5093 17.5708 35.4979L21.5044 35.4012C21.6871 35.3885 21.8422 35.5332 21.8422 35.7163V36.259C21.8422 36.4334 21.7008 36.5749 21.5262 36.5749H21.5264Z" fill="#7D97F4"/>
<path d="M28.3419 25.793H22.8001C22.7777 25.793 22.7595 25.8111 22.7595 25.8335V34.7511C22.7595 34.7735 22.7777 34.7917 22.8001 34.7917H28.3419C28.3642 34.7917 28.3824 34.7735 28.3824 34.7511V25.8335C28.3824 25.8111 28.3642 25.793 28.3419 25.793Z" fill="url(#paint9_linear_2478_8992)"/>
<path d="M27.9325 26.1709H23.1978C23.1278 26.1709 23.071 26.2277 23.071 26.2977V34.3329C23.071 34.4029 23.1278 34.4597 23.1978 34.4597H27.9325C28.0025 34.4597 28.0593 34.4029 28.0593 34.3329V26.2977C28.0593 26.2277 28.0025 26.1709 27.9325 26.1709Z" fill="#7D97F4"/>
<path d="M25.6055 26.0566H25.3196V34.7917H25.6055V26.0566Z" fill="url(#paint10_linear_2478_8992)"/>
<path d="M16.5987 25.793H11.0569C11.0345 25.793 11.0164 25.8111 11.0164 25.8335V34.7511C11.0164 34.7735 11.0345 34.7917 11.0569 34.7917H16.5987C16.6211 34.7917 16.6392 34.7735 16.6392 34.7511V25.8335C16.6392 25.8111 16.6211 25.793 16.5987 25.793Z" fill="url(#paint11_linear_2478_8992)"/>
<path d="M16.1893 26.1709H11.4547C11.3846 26.1709 11.3279 26.2277 11.3279 26.2977V34.3329C11.3279 34.4029 11.3846 34.4597 11.4547 34.4597H16.1893C16.2593 34.4597 16.3161 34.4029 16.3161 34.3329V26.2977C16.3161 26.2277 16.2593 26.1709 16.1893 26.1709Z" fill="#7D97F4"/>
<path d="M13.8624 26.0566H13.5764V34.7917H13.8624V26.0566Z" fill="url(#paint12_linear_2478_8992)"/>
<path d="M29.5929 13.3728L29.4288 13.2488V13.0762H29.2006L19.7115 5.9043L10.1174 13.0762V21.6546H29.4288V14.2574L29.5929 13.3728Z" fill="#BDD0FB"/>
<path d="M25.5451 6.73828H23.9478V9.3391H25.5451V6.73828Z" fill="url(#paint13_linear_2478_8992)"/>
<path d="M23.5686 6.36035H25.952C26.0181 6.36035 26.0718 6.41406 26.0718 6.48016V7.15908H23.49V6.4391C23.49 6.39572 23.5252 6.36035 23.5687 6.36035H23.5686Z" fill="url(#paint14_linear_2478_8992)"/>
<path d="M9.47179 14.4416L19.7195 6.58244L29.4469 14.1277C29.8005 14.4019 30.3191 14.21 30.4087 13.7716L30.5451 13.1042L19.7196 4.85742L9.24084 12.8613C9.05326 13.0046 8.98509 13.2559 9.07482 13.4744L9.47192 14.4416H9.47179Z" fill="url(#paint15_linear_2478_8992)"/>
<g opacity="0.89">
<path d="M17.6651 20.3828H21.6076C21.6156 20.3828 21.6221 20.3763 21.6221 20.3684V14.2746C21.6221 14.2667 21.6156 14.2602 21.6076 14.2602H17.6651C17.6571 14.2602 17.6506 14.2667 17.6506 14.2746V20.3684C17.6506 20.3763 17.6571 20.3828 17.6651 20.3828Z" fill="url(#paint16_linear_2478_8992)"/>
<path d="M17.948 20.0518H19.4739C19.4784 20.0518 19.4819 20.0482 19.4819 20.0438V14.599C19.4819 14.5946 19.4784 14.591 19.4739 14.591H17.948C17.9436 14.591 17.94 14.5946 17.94 14.599V20.0438C17.94 20.0482 17.9436 20.0518 17.948 20.0518Z" fill="#7D97F4"/>
<path d="M19.7983 20.0518H21.3243C21.3287 20.0518 21.3323 20.0482 21.3323 20.0438V14.599C21.3323 14.5946 21.3287 14.591 21.3243 14.591H19.7983C19.7939 14.591 19.7903 14.5946 19.7903 14.599V20.0438C19.7903 20.0482 19.7939 20.0518 19.7983 20.0518Z" fill="#7D97F4"/>
</g>
<g opacity="0.89">
<path d="M12.0914 20.4268H16.0339C16.0419 20.4268 16.0483 20.4203 16.0483 20.4123V14.3186C16.0483 14.3106 16.0419 14.3041 16.0339 14.3041H12.0914C12.0834 14.3041 12.0769 14.3106 12.0769 14.3186V20.4123C12.0769 20.4203 12.0834 20.4268 12.0914 20.4268Z" fill="url(#paint17_linear_2478_8992)"/>
<path d="M12.3745 20.0957H13.9004C13.9049 20.0957 13.9084 20.0921 13.9084 20.0877V14.643C13.9084 14.6385 13.9049 14.635 13.9004 14.635H12.3745C12.3701 14.635 12.3665 14.6385 12.3665 14.643V20.0877C12.3665 20.0921 12.3701 20.0957 12.3745 20.0957Z" fill="#7D97F4"/>
<path d="M14.2248 20.0957H15.7508C15.7552 20.0957 15.7588 20.0921 15.7588 20.0877V14.643C15.7588 14.6385 15.7552 14.635 15.7508 14.635H14.2248C14.2204 14.635 14.2168 14.6385 14.2168 14.643V20.0877C14.2168 20.0921 14.2204 20.0957 14.2248 20.0957Z" fill="#7D97F4"/>
</g>
<g opacity="0.89">
<path d="M22.9969 20.4814H26.9394C26.9474 20.4814 26.9539 20.475 26.9539 20.467V14.3733C26.9539 14.3653 26.9474 14.3588 26.9394 14.3588H22.9969C22.9889 14.3588 22.9824 14.3653 22.9824 14.3733V20.467C22.9824 20.475 22.9889 20.4814 22.9969 20.4814Z" fill="url(#paint18_linear_2478_8992)"/>
<path d="M23.28 20.1504H24.806C24.8104 20.1504 24.814 20.1468 24.814 20.1424V14.6977C24.814 14.6932 24.8104 14.6896 24.806 14.6896H23.28C23.2756 14.6896 23.272 14.6932 23.272 14.6977V20.1424C23.272 20.1468 23.2756 20.1504 23.28 20.1504Z" fill="#7D97F4"/>
<path d="M25.1301 20.1504H26.6561C26.6605 20.1504 26.6641 20.1468 26.6641 20.1424V14.6977C26.6641 14.6932 26.6605 14.6896 26.6561 14.6896H25.1301C25.1257 14.6896 25.1221 14.6932 25.1221 14.6977V20.1424C25.1221 20.1468 25.1257 20.1504 25.1301 20.1504Z" fill="#7D97F4"/>
</g>
<path d="M9.88202 21.4785H29.5411C29.7484 21.4785 29.9168 21.6469 29.9168 21.8542V22.2088C29.9168 22.4162 29.7484 22.5845 29.5411 22.5845H9.88202C9.67469 22.5845 9.50635 22.4162 9.50635 22.2088V21.8542C9.50635 21.6469 9.67469 21.4785 9.88202 21.4785Z" fill="#7D97F4"/>
<path d="M18.3422 26.4531H6.32269C6.08434 26.4531 5.89111 26.6463 5.89111 26.8847V33.8315C5.89111 34.0699 6.08434 34.2631 6.32269 34.2631H18.3422C18.5806 34.2631 18.7738 34.0699 18.7738 33.8315V26.8847C18.7738 26.6463 18.5806 26.4531 18.3422 26.4531Z" fill="url(#paint19_linear_2478_8992)"/>
<path d="M18.0565 26.7979H6.63568C6.39732 26.7979 6.2041 26.9911 6.2041 27.2294V33.6096C6.2041 33.848 6.39732 34.0412 6.63568 34.0412H18.0565C18.2948 34.0412 18.4881 33.848 18.4881 33.6096V27.2294C18.4881 26.9911 18.2948 26.7979 18.0565 26.7979Z" fill="white"/>
<path d="M8.44411 28.7665V29.242H7.65158V30.1297H7.01758V27.8154H8.5075V28.3227H7.65158V28.7665H8.44411Z" fill="url(#paint20_linear_2478_8992)"/>
<path d="M9.10199 28.1028C9.31642 27.8904 9.60547 27.7842 9.96901 27.7842C10.3326 27.7842 10.6215 27.8904 10.836 28.1028C11.0505 28.3152 11.1577 28.6052 11.1577 28.973C11.1577 29.3408 11.0505 29.6308 10.836 29.8433C10.6215 30.0557 10.3324 30.1619 9.96901 30.1619C9.6056 30.1619 9.31642 30.0557 9.10199 29.8433C8.88742 29.6309 8.78027 29.3408 8.78027 28.973C8.78027 28.6052 8.88755 28.3153 9.10199 28.1028ZM9.43003 28.973C9.43003 29.4169 9.6096 29.6388 9.96901 29.6388C10.3284 29.6388 10.508 29.4169 10.508 28.973C10.508 28.5292 10.3283 28.3073 9.96901 28.3073C9.60973 28.3073 9.43003 28.5292 9.43003 28.973Z" fill="url(#paint21_linear_2478_8992)"/>
<path d="M12.0961 29.3216V30.13H11.478V27.8317C11.7527 27.7999 12.0275 27.7842 12.3023 27.7842C12.9363 27.7842 13.2534 28.022 13.2534 28.4974C13.2534 28.6306 13.2122 28.7542 13.1297 28.8683C13.0473 28.9825 12.9406 29.0638 12.8095 29.1125V29.1188C12.8729 29.1548 12.9257 29.2008 12.9681 29.2567C13.0103 29.3127 13.0504 29.3925 13.0885 29.496L13.3168 30.13H12.6669L12.4703 29.5277C12.447 29.4537 12.4175 29.4009 12.3815 29.3691C12.3454 29.3374 12.2979 29.3216 12.2388 29.3216H12.0961ZM12.0961 28.8619H12.2706C12.3784 28.8619 12.4634 28.8349 12.5258 28.7811C12.5881 28.7272 12.6193 28.6538 12.6193 28.5607C12.6193 28.36 12.5031 28.2595 12.2706 28.2595C12.2029 28.2595 12.1448 28.2648 12.0961 28.2754V28.8619Z" fill="url(#paint22_linear_2478_8992)"/>
<path d="M16.8197 33.3102H15.4846V31.0615H16.8197V31.5491H16.0922V31.9029H16.7658V32.3904H16.0922V32.8149H16.8197V33.3102Z" fill="#FE7E74"/>
<path d="M13.7427 33.3102V31.0615H14.3502V32.8196H15.2162V33.3102H13.7427Z" fill="#FE7E74"/>
<path d="M12.9249 33.3097L12.8142 32.8882H12.0836L11.9698 33.3097H11.3022L12.0359 31.0518H12.8465L13.5894 33.3097H12.9249ZM12.6881 32.3899L12.5912 32.0208C12.5809 31.9808 12.566 31.9239 12.5466 31.85C12.5271 31.7752 12.5076 31.6983 12.4881 31.6193C12.4697 31.5393 12.4553 31.4737 12.445 31.4224C12.4358 31.4737 12.4225 31.5373 12.4051 31.6132C12.3886 31.688 12.3712 31.7624 12.3528 31.8362C12.3353 31.91 12.3199 31.9715 12.3066 32.0208L12.2097 32.3899H12.6881Z" fill="#FE7E74"/>
<path d="M11.2891 32.6274C11.2891 32.7494 11.2584 32.8653 11.1968 32.975C11.1353 33.0837 11.0394 33.1719 10.9092 33.2395C10.78 33.3072 10.6129 33.341 10.4078 33.341C10.3052 33.341 10.215 33.3364 10.1371 33.3272C10.0602 33.318 9.9884 33.3031 9.92175 33.2826C9.8551 33.2611 9.78589 33.2334 9.71411 33.1995V32.6581C9.83613 32.7197 9.95918 32.7668 10.0833 32.7996C10.2073 32.8314 10.3196 32.8473 10.4201 32.8473C10.4806 32.8473 10.5298 32.8401 10.5677 32.8258C10.6067 32.8114 10.6354 32.7919 10.6539 32.7673C10.6723 32.7417 10.6816 32.7125 10.6816 32.6797C10.6816 32.6407 10.6677 32.6079 10.64 32.5812C10.6134 32.5535 10.5703 32.5248 10.5108 32.4951C10.4514 32.4654 10.3729 32.4284 10.2755 32.3844C10.1925 32.3454 10.1171 32.3054 10.0494 32.2644C9.98276 32.2234 9.92534 32.1767 9.87715 32.1244C9.82998 32.0711 9.79358 32.0091 9.76794 31.9383C9.74231 31.8676 9.72949 31.784 9.72949 31.6876C9.72949 31.543 9.76487 31.422 9.83562 31.3246C9.9074 31.2262 10.0069 31.1523 10.134 31.1031C10.2622 31.0539 10.4098 31.0293 10.577 31.0293C10.7236 31.0293 10.8554 31.0457 10.9723 31.0785C11.0902 31.1113 11.1958 31.1488 11.2891 31.1908L11.103 31.6599C11.0066 31.6158 10.9118 31.581 10.8185 31.5553C10.7251 31.5287 10.6385 31.5153 10.5585 31.5153C10.5062 31.5153 10.4632 31.522 10.4293 31.5353C10.3965 31.5476 10.3719 31.5646 10.3555 31.5861C10.3401 31.6076 10.3324 31.6322 10.3324 31.6599C10.3324 31.6948 10.3458 31.7261 10.3724 31.7537C10.4001 31.7814 10.4457 31.8117 10.5093 31.8445C10.5739 31.8763 10.6616 31.9178 10.7723 31.9691C10.882 32.0183 10.9753 32.0716 11.0522 32.129C11.1292 32.1854 11.1876 32.2536 11.2276 32.3336C11.2686 32.4126 11.2891 32.5105 11.2891 32.6274Z" fill="#FE7E74"/>
<path d="M17.1075 24.2305H16.7592C16.7361 24.2305 16.7173 24.2493 16.7173 24.2724V26.9547C16.7173 26.9779 16.7361 26.9967 16.7592 26.9967H17.1075C17.1307 26.9967 17.1495 26.9779 17.1495 26.9547V24.2724C17.1495 24.2493 17.1307 24.2305 17.1075 24.2305Z" fill="url(#paint23_linear_2478_8992)"/>
<path d="M7.94446 24.1875H7.59616C7.57298 24.1875 7.5542 24.2063 7.5542 24.2295V26.9117C7.5542 26.9349 7.57298 26.9537 7.59616 26.9537H7.94446C7.96764 26.9537 7.98642 26.9349 7.98642 26.9117V24.2295C7.98642 24.2063 7.96764 24.1875 7.94446 24.1875Z" fill="url(#paint24_linear_2478_8992)"/>
<path d="M21.9689 23.208L21.4069 24.0745V23.4811L3.35434 23.4678L2.8648 23.2368L2.85034 23.4674L3.36906 24.5119L21.4069 24.5767L22.0121 23.4386L21.9689 23.208Z" fill="url(#paint25_linear_2478_8992)"/>
<path d="M21.3205 24.4038L3.45537 24.3461L2.86475 23.2368L21.9688 23.208L21.3205 24.4038Z" fill="url(#paint26_linear_2478_8992)"/>
<path d="M5.31606 36.6411H4.01953L4.01733 21.3779L5.31606 22.2856V36.6411Z" fill="url(#paint27_linear_2478_8992)"/>
<path d="M5.50345 36.6557H4.20678L4.20459 21.5078L5.50345 22.3002V36.6557Z" fill="url(#paint28_linear_2478_8992)"/>
<path d="M4.99034 23.7474C5.02233 23.6119 4.93839 23.4761 4.80287 23.4441C4.66735 23.4121 4.53155 23.496 4.49957 23.6316C4.46758 23.7671 4.55151 23.9029 4.68704 23.9349C4.82256 23.9669 4.95835 23.8829 4.99034 23.7474Z" fill="url(#paint29_linear_2478_8992)"/>
<path d="M4.91305 23.7725C4.93498 23.6796 4.87744 23.5865 4.78452 23.5646C4.69161 23.5426 4.5985 23.6002 4.57657 23.6931C4.55464 23.786 4.61219 23.8791 4.70511 23.901C4.79802 23.923 4.89112 23.8654 4.91305 23.7725Z" fill="url(#paint30_linear_2478_8992)"/>
<path d="M6.47557 37.238C6.47557 37.238 4.32802 38.5758 3.17904 37.4258C2.25561 36.5016 3.76941 37.1048 5.17426 37.1914C5.28451 37.1982 5.30142 37.0353 5.19207 37.0193C4.11823 36.8623 2.50735 36.5256 2.38651 35.9082C2.20409 34.9759 2.53046 35.3542 3.75702 35.83C4.98371 36.3059 5.31485 36.0637 4.54749 35.6361C3.78 35.2086 2.34972 35.2652 2.15827 34.7801C1.96681 34.2948 2.02504 33.4563 2.00025 33.0815C1.97546 32.7068 3.81059 32.6766 4.14057 33.2531C4.47054 33.8297 4.55807 34.9322 5.04865 35.2683C5.53909 35.6045 5.20653 34.5567 4.97635 33.9993C4.74617 33.4419 4.69969 33.0631 5.3874 33.3759C6.07498 33.6887 6.20549 34.6735 6.09524 35.3495C5.98487 36.0256 6.13397 36.4637 6.21453 36.1365C6.29509 35.8094 6.45995 34.7831 6.3151 34.4191C6.17038 34.0553 7.706 34.8856 6.4757 37.2379L6.47557 37.238Z" fill="#BDD0FB"/>
<path opacity="0.53" d="M6.33761 37.2171C6.3296 37.2177 6.3216 37.2143 6.31695 37.207C5.26248 35.5803 3.16231 34.0187 3.14113 34.0032C3.13119 33.9958 3.12913 33.9819 3.13649 33.9719C3.14384 33.962 3.15779 33.9599 3.16773 33.9673C3.1889 33.9829 5.29553 35.5491 6.35439 37.1829C6.3611 37.1932 6.35813 37.207 6.3478 37.2137C6.34458 37.2158 6.34109 37.217 6.33761 37.2172V37.2171Z" fill="white"/>
<path d="M7.79692 37.7613C7.79692 37.7613 5.02841 37.8527 4.56959 36.1331C4.20076 34.7511 5.30506 36.1522 6.58907 37.0041C6.6899 37.071 6.79512 36.9259 6.70023 36.8508C5.76853 36.1137 4.42616 34.9119 4.65002 34.2604C4.98787 33.2768 5.08999 33.8142 5.99187 34.9373C6.89375 36.0605 7.3403 36.0125 6.84727 35.1866C6.35425 34.3609 4.96747 33.6309 5.0519 33.0661C5.1362 32.5013 5.65092 31.7384 5.83282 31.3696C6.01472 31.0007 7.77058 31.9778 7.76735 32.705C7.76413 33.4322 7.24309 34.5251 7.52375 35.1125C7.80441 35.6999 8.06325 34.5246 8.15052 33.8702C8.23779 33.2157 8.40136 32.8312 8.8816 33.5045C9.36185 34.1777 8.94602 35.1826 8.47107 35.7629C7.99612 36.3432 7.89723 36.84 8.15284 36.5742C8.40846 36.3084 9.12702 35.4257 9.18924 35.0016C9.25134 34.5774 10.252 36.2059 7.79705 37.7613H7.79692Z" fill="#91B3FA"/>
<path opacity="0.53" d="M7.67756 37.6667C7.66968 37.6629 7.664 37.6552 7.66349 37.6458C7.55543 35.5262 6.42053 32.8953 6.40904 32.8691C6.40362 32.8567 6.4093 32.8424 6.42169 32.837C6.43408 32.8317 6.44841 32.8372 6.45383 32.8496C6.46532 32.8759 7.60384 35.5147 7.71228 37.6434C7.71293 37.6569 7.7026 37.6683 7.68905 37.6691C7.68492 37.6694 7.68091 37.6685 7.67743 37.6668L7.67756 37.6667Z" fill="white"/>
<defs>
<linearGradient id="paint0_linear_2478_8992" x1="29.9771" y1="29.2137" x2="33.9485" y2="29.2137" gradientUnits="userSpaceOnUse">
<stop stop-color="#DAE3FE"/>
<stop offset="1" stop-color="#E9EFFD"/>
</linearGradient>
<linearGradient id="paint1_linear_2478_8992" x1="41.9166" y1="39.5286" x2="27.7573" y2="13.5132" gradientUnits="userSpaceOnUse">
<stop stop-color="#4F52FF"/>
<stop offset="1" stop-color="#4042E2"/>
</linearGradient>
<linearGradient id="paint2_linear_2478_8992" x1="30.2213" y1="-1.86864" x2="31.6714" y2="19.7114" gradientUnits="userSpaceOnUse">
<stop stop-color="#4F52FF"/>
<stop offset="1" stop-color="#4042E2"/>
</linearGradient>
<linearGradient id="paint3_linear_2478_8992" x1="5.53503" y1="29.168" x2="9.50648" y2="29.168" gradientUnits="userSpaceOnUse">
<stop stop-color="#DAE3FE"/>
<stop offset="1" stop-color="#E9EFFD"/>
</linearGradient>
<linearGradient id="paint4_linear_2478_8992" x1="-2.43296" y1="39.4827" x2="11.7263" y2="13.4673" gradientUnits="userSpaceOnUse">
<stop stop-color="#4F52FF"/>
<stop offset="1" stop-color="#4042E2"/>
</linearGradient>
<linearGradient id="paint5_linear_2478_8992" x1="9.26226" y1="-1.91441" x2="7.81234" y2="19.6655" gradientUnits="userSpaceOnUse">
<stop stop-color="#4F52FF"/>
<stop offset="1" stop-color="#4042E2"/>
</linearGradient>
<linearGradient id="paint6_linear_2478_8992" x1="16.6848" y1="35.9878" x2="22.459" y2="35.9878" gradientUnits="userSpaceOnUse">
<stop stop-color="#DAE3FE"/>
<stop offset="1" stop-color="#E9EFFD"/>
</linearGradient>
<linearGradient id="paint7_linear_2478_8992" x1="17.7501" y1="31.653" x2="21.3939" y2="31.653" gradientUnits="userSpaceOnUse">
<stop stop-color="#4F52FF"/>
<stop offset="1" stop-color="#4042E2"/>
</linearGradient>
<linearGradient id="paint8_linear_2478_8992" x1="17.6016" y1="26.7743" x2="21.5425" y2="26.7743" gradientUnits="userSpaceOnUse">
<stop stop-color="#DAE3FE"/>
<stop offset="1" stop-color="#E9EFFD"/>
</linearGradient>
<linearGradient id="paint9_linear_2478_8992" x1="22.7595" y1="30.2923" x2="28.3823" y2="30.2923" gradientUnits="userSpaceOnUse">
<stop stop-color="#DAE3FE"/>
<stop offset="1" stop-color="#E9EFFD"/>
</linearGradient>
<linearGradient id="paint10_linear_2478_8992" x1="25.3196" y1="30.4242" x2="25.6055" y2="30.4242" gradientUnits="userSpaceOnUse">
<stop stop-color="#DAE3FE"/>
<stop offset="1" stop-color="#E9EFFD"/>
</linearGradient>
<linearGradient id="paint11_linear_2478_8992" x1="11.0164" y1="30.2923" x2="16.6392" y2="30.2923" gradientUnits="userSpaceOnUse">
<stop stop-color="#DAE3FE"/>
<stop offset="1" stop-color="#E9EFFD"/>
</linearGradient>
<linearGradient id="paint12_linear_2478_8992" x1="13.5764" y1="30.4242" x2="13.8624" y2="30.4242" gradientUnits="userSpaceOnUse">
<stop stop-color="#DAE3FE"/>
<stop offset="1" stop-color="#E9EFFD"/>
</linearGradient>
<linearGradient id="paint13_linear_2478_8992" x1="24.8225" y1="10.2851" x2="24.6249" y2="4.45453" gradientUnits="userSpaceOnUse">
<stop stop-color="#4F52FF"/>
<stop offset="1" stop-color="#4042E2"/>
</linearGradient>
<linearGradient id="paint14_linear_2478_8992" x1="24.8284" y1="8.21847" x2="24.6297" y2="2.36088" gradientUnits="userSpaceOnUse">
<stop stop-color="#4F52FF"/>
<stop offset="1" stop-color="#4042E2"/>
</linearGradient>
<linearGradient id="paint15_linear_2478_8992" x1="20.5687" y1="2.0494" x2="19.4986" y2="17.3558" gradientUnits="userSpaceOnUse">
<stop stop-color="#4F52FF"/>
<stop offset="1" stop-color="#4042E2"/>
</linearGradient>
<linearGradient id="paint16_linear_2478_8992" x1="17.6506" y1="17.3214" x2="21.6221" y2="17.3214" gradientUnits="userSpaceOnUse">
<stop stop-color="#DAE3FE"/>
<stop offset="1" stop-color="#E9EFFD"/>
</linearGradient>
<linearGradient id="paint17_linear_2478_8992" x1="12.077" y1="17.3654" x2="16.0485" y2="17.3654" gradientUnits="userSpaceOnUse">
<stop stop-color="#DAE3FE"/>
<stop offset="1" stop-color="#E9EFFD"/>
</linearGradient>
<linearGradient id="paint18_linear_2478_8992" x1="22.9824" y1="17.4201" x2="26.9539" y2="17.4201" gradientUnits="userSpaceOnUse">
<stop stop-color="#DAE3FE"/>
<stop offset="1" stop-color="#E9EFFD"/>
</linearGradient>
<linearGradient id="paint19_linear_2478_8992" x1="27.3218" y1="17.9756" x2="-4.29714" y2="44.0955" gradientUnits="userSpaceOnUse">
<stop stop-color="#FF928E"/>
<stop offset="1" stop-color="#FE7062"/>
</linearGradient>
<linearGradient id="paint20_linear_2478_8992" x1="55.0554" y1="53.822" x2="7.10711" y2="28.6282" gradientUnits="userSpaceOnUse">
<stop stop-color="#FF928E"/>
<stop offset="1" stop-color="#FE7062"/>
</linearGradient>
<linearGradient id="paint21_linear_2478_8992" x1="55.5328" y1="52.914" x2="7.58451" y2="27.7203" gradientUnits="userSpaceOnUse">
<stop stop-color="#FF928E"/>
<stop offset="1" stop-color="#FE7062"/>
</linearGradient>
<linearGradient id="paint22_linear_2478_8992" x1="55.9973" y1="52.0298" x2="8.04912" y2="26.8361" gradientUnits="userSpaceOnUse">
<stop stop-color="#FF928E"/>
<stop offset="1" stop-color="#FE7062"/>
</linearGradient>
<linearGradient id="paint23_linear_2478_8992" x1="16.9334" y1="22.4151" x2="16.9334" y2="34.863" gradientUnits="userSpaceOnUse">
<stop stop-color="#FF928E"/>
<stop offset="1" stop-color="#FE7062"/>
</linearGradient>
<linearGradient id="paint24_linear_2478_8992" x1="7.77031" y1="22.4154" x2="7.77031" y2="34.8633" gradientUnits="userSpaceOnUse">
<stop stop-color="#FF928E"/>
<stop offset="1" stop-color="#FE7062"/>
</linearGradient>
<linearGradient id="paint25_linear_2478_8992" x1="12.4896" y1="25.4068" x2="12.36" y2="21.0701" gradientUnits="userSpaceOnUse">
<stop stop-color="#E1473D"/>
<stop offset="1" stop-color="#E9605A"/>
</linearGradient>
<linearGradient id="paint26_linear_2478_8992" x1="11.1365" y1="30.819" x2="12.8845" y2="20.4476" gradientUnits="userSpaceOnUse">
<stop stop-color="#FF928E"/>
<stop offset="1" stop-color="#FE7062"/>
</linearGradient>
<linearGradient id="paint27_linear_2478_8992" x1="2.21654" y1="29.4494" x2="13.7712" y2="27.3747" gradientUnits="userSpaceOnUse">
<stop stop-color="#E1473D"/>
<stop offset="1" stop-color="#E9605A"/>
</linearGradient>
<linearGradient id="paint28_linear_2478_8992" x1="8.34128" y1="31.2548" x2="1.08621" y2="27.4428" gradientUnits="userSpaceOnUse">
<stop stop-color="#FF928E"/>
<stop offset="1" stop-color="#FE7062"/>
</linearGradient>
<linearGradient id="paint29_linear_2478_8992" x1="4.86749" y1="22.2512" x2="4.62259" y2="25.1039" gradientUnits="userSpaceOnUse">
<stop stop-color="#FF928E"/>
<stop offset="1" stop-color="#FE7062"/>
</linearGradient>
<linearGradient id="paint30_linear_2478_8992" x1="4.79517" y1="23.1364" x2="4.62722" y2="25.0925" gradientUnits="userSpaceOnUse">
<stop stop-color="#FF928E"/>
<stop offset="1" stop-color="#FE7062"/>
</linearGradient>
</defs>
</svg>
