<svg width="24" height="25" viewBox="0 0 24 25" fill="none" xmlns="http://www.w3.org/2000/svg">
<path d="M3 12.1042H8M3 12.1042C3 17.0748 7.02944 21.1042 12 21.1042M3 12.1042C3 7.13369 7.02944 3.10425 12 3.10425M8 12.1042H16M8 12.1042C8 17.0748 9.79086 21.1042 12 21.1042M8 12.1042C8 7.13369 9.79086 3.10425 12 3.10425M16 12.1042H21M16 12.1042C16 7.13369 14.2091 3.10425 12 3.10425M16 12.1042C16 17.0748 14.2091 21.1042 12 21.1042M21 12.1042C21 7.13369 16.9706 3.10425 12 3.10425M21 12.1042C21 17.0748 16.9706 21.1042 12 21.1042" stroke="black" stroke-width="2" stroke-linecap="round" stroke-linejoin="round"/>
</svg>
