<svg width="25" height="24" viewBox="0 0 25 24" fill="none" xmlns="http://www.w3.org/2000/svg">
<path d="M3.97852 6L7.08409 4.44721C7.64714 4.16569 8.30989 4.16569 8.87294 4.44721L10.2952 5.15836C11.9844 6.00294 13.9726 6.00294 15.6618 5.15836L17.0841 4.44721C17.6471 4.16569 18.3099 4.16569 18.8729 4.44721L21.9785 6M3.97852 10.5L7.08409 8.94721C7.64714 8.66569 8.30989 8.66569 8.87294 8.94721L10.2952 9.65836C11.9844 10.5029 13.9726 10.5029 15.6618 9.65836L17.0841 8.94721C17.6471 8.66569 18.3099 8.66569 18.8729 8.94721L21.9785 10.5M3.97852 15L7.08409 13.4472C7.64714 13.1657 8.30989 13.1657 8.87294 13.4472L10.2952 14.1584C11.9844 15.0029 13.9726 15.0029 15.6618 14.1584L17.0841 13.4472C17.6471 13.1657 18.3099 13.1657 18.8729 13.4472L21.9785 15M3.97852 19.5L7.08409 17.9472C7.64714 17.6657 8.30989 17.6657 8.87294 17.9472L10.2952 18.6584C11.9844 19.5029 13.9726 19.5029 15.6618 18.6584L17.0841 17.9472C17.6471 17.6657 18.3099 17.6657 18.8729 17.9472L21.9785 19.5" stroke="black" stroke-width="2" stroke-linecap="round" stroke-linejoin="round"/>
</svg>
