<svg width="101" height="101" viewBox="0 0 101 101" fill="none" xmlns="http://www.w3.org/2000/svg">
<path d="M86.0113 83.0691C83.5571 85.5569 81.3607 87.0192 79.6792 88.1231C63.2808 98.8899 44.5353 95.7868 38.7397 94.726C29.3894 93.0146 21.4963 91.8075 14.7145 85.7826C-0.695408 72.0925 0.0542336 43.5342 11.8293 25.8431C13.2254 23.7455 24.9825 6.60824 43.7687 4.19336C44.2282 4.13431 44.5709 4.10072 44.8713 4.0695C47.7775 3.76679 65.7862 2.17011 80.4706 14.2676C82.5726 15.9993 85.9553 19.1228 89.0923 23.8867C100.562 41.3056 100.599 68.2839 86.0117 83.0691H86.0113Z" fill="url(#paint0_linear_987_7325)"/>
<path d="M97.3581 3.64301C97.4568 3.22322 96.8663 2.94427 96.5046 3.23747C92.8327 6.215 84.0108 15.131 86.2095 30.7119C88.9681 50.261 84.2521 57.3943 78.3818 61.7452C78.3818 61.7452 86.4436 59.6989 91.5157 52.4607C103.969 34.6892 95.6049 11.1062 97.3581 3.64267V3.64301Z" fill="#BDD0FB"/>
<g style="mix-blend-mode:soft-light">
<path d="M94.5636 9.74888C94.1041 11.9252 93.6949 14.1083 93.3786 16.3009C93.0491 18.4918 92.7963 20.6905 92.6235 22.8926C92.4603 25.095 92.3453 27.3002 92.3388 29.506C92.3208 31.7118 92.4124 33.9156 92.5136 36.1282C92.6001 38.3398 92.7023 40.5677 92.54 42.8109C92.3809 45.0496 91.9095 47.308 90.9742 49.4253C90.7404 49.953 90.4947 50.479 90.2154 50.9874C89.947 51.5005 89.6521 52.0031 89.347 52.5012C88.7307 53.4949 88.0371 54.4549 87.2644 55.3664C85.7128 57.1857 83.8416 58.7997 81.7803 60.166C81.5635 60.3099 81.2526 60.2742 81.086 60.0869C80.9225 59.903 80.9591 59.6407 81.1658 59.4954L81.1671 59.4944C81.6575 59.1499 82.1428 58.8011 82.6087 58.4346C82.8449 58.2547 83.0716 58.066 83.302 57.8811C83.5243 57.689 83.7551 57.5041 83.9699 57.3059C84.8451 56.5267 85.6562 55.6956 86.3919 54.8167C87.8718 53.067 89.0565 51.1177 89.9538 49.0965C90.3895 48.0811 90.7377 47.04 90.9919 45.9791C91.2454 44.9179 91.4045 43.8388 91.4928 42.7505C91.6692 40.5728 91.5895 38.3673 91.5213 36.1554C91.4565 33.9428 91.4086 31.7189 91.467 29.4968C91.4928 28.3858 91.5417 27.2754 91.6133 26.1664C91.6455 25.6115 91.6903 25.0577 91.7337 24.5035C91.7833 23.9497 91.8366 23.3965 91.8949 22.8434C92.1332 20.6321 92.4498 18.428 92.8461 16.2357C93.2547 14.0452 93.7309 11.8644 94.3033 9.70341C94.3196 9.64165 94.3909 9.60296 94.4625 9.61721C94.5321 9.63079 94.5762 9.68984 94.5636 9.74956V9.74888Z" fill="white"/>
</g>
<path d="M85.8923 57.3608C86.3134 58.0379 87.2894 58.065 87.7557 57.4182C90.3291 53.8492 96.6924 43.1 92.7338 28.4353C89.3907 16.0514 88.7548 9.01891 88.6872 5.80621C88.673 5.12681 87.7998 4.86075 87.4079 5.4156C83.0834 11.539 70.631 32.8242 85.8926 57.3608H85.8923Z" fill="#91B3FA"/>
<g style="mix-blend-mode:soft-light">
<path d="M86.9497 57.1429C86.9681 57.15 86.9874 57.1558 87.0074 57.1595C87.1764 57.1911 87.339 57.0794 87.3705 56.9104C87.4062 56.7187 90.8931 37.5477 87.0224 20.1189C86.985 19.9513 86.8187 19.8454 86.6508 19.8824C86.4828 19.9197 86.3769 20.086 86.4142 20.254C90.2568 37.5558 86.7936 56.606 86.758 56.7964C86.7302 56.9454 86.8133 57.0893 86.9491 57.1429H86.9497Z" fill="white"/>
</g>
<g opacity="0.3">
<path d="M22.5356 22.6776C22.3669 22.6549 22.2397 22.508 22.2448 22.3342C22.2563 21.9545 22.2841 21.5693 22.3283 21.1899C22.3496 21.0053 22.5166 20.8729 22.7012 20.8943C22.7036 20.8943 22.7056 20.895 22.7077 20.8953C22.8889 20.9198 23.0178 21.085 22.9968 21.2673C22.9551 21.6277 22.9282 21.9935 22.9174 22.3542C22.912 22.5399 22.7569 22.6861 22.5709 22.6804C22.559 22.6804 22.5471 22.679 22.5356 22.6773V22.6776ZM22.95 19.7761C22.9371 19.7744 22.9238 19.7717 22.9106 19.7683C22.7307 19.7218 22.6225 19.5386 22.6686 19.3587C22.764 18.9892 22.876 18.6199 23.0015 18.2616C23.063 18.0861 23.254 17.9942 23.4305 18.0552C23.6059 18.1167 23.6982 18.3087 23.6368 18.4842C23.5174 18.8249 23.4112 19.1755 23.3205 19.527C23.2774 19.694 23.1166 19.7992 22.95 19.7765V19.7761ZM23.9928 17.0378C23.9558 17.0328 23.9188 17.0216 23.8835 17.0032C23.7186 16.9181 23.6538 16.7151 23.739 16.5498C23.9137 16.2115 24.1055 15.8762 24.3088 15.5538C24.4078 15.3967 24.6159 15.3499 24.7727 15.4486C24.9298 15.5477 24.977 15.7554 24.8779 15.9125C24.6848 16.2186 24.5029 16.5366 24.3369 16.8583C24.2697 16.9883 24.1299 17.0562 23.9928 17.0375V17.0378ZM25.6221 14.6009C25.5606 14.5928 25.5009 14.5673 25.4504 14.5242C25.3085 14.4041 25.2909 14.192 25.4107 14.0501C25.657 13.7593 25.9187 13.4753 26.1885 13.2065C26.3201 13.0755 26.5329 13.0762 26.6642 13.2075C26.7952 13.3392 26.7949 13.5523 26.6632 13.6833C26.4067 13.9385 26.1583 14.2079 25.9244 14.4845C25.8474 14.5755 25.7324 14.6155 25.6221 14.6006V14.6009ZM27.7539 12.5889C27.6677 12.5773 27.5863 12.5325 27.5303 12.4575C27.4186 12.3089 27.4485 12.0981 27.5968 11.9865C27.9005 11.7581 28.2185 11.5392 28.5419 11.3366C28.6994 11.2379 28.9071 11.285 29.0058 11.4428C29.1046 11.6003 29.0571 11.808 28.8996 11.9067C28.5925 12.0995 28.2901 12.3072 28.0013 12.5244C27.9277 12.5797 27.8388 12.6004 27.7539 12.5889ZM30.2777 11.0984C30.1664 11.0835 30.065 11.0129 30.0154 10.9026C29.9394 10.7329 30.0151 10.534 30.1844 10.4577C30.5319 10.3019 30.8903 10.1587 31.25 10.0328C31.4254 9.97138 31.6172 10.0637 31.6786 10.2391C31.74 10.4142 31.6477 10.6063 31.4723 10.6677C31.1305 10.7875 30.7902 10.9233 30.46 11.0712C30.4006 11.0981 30.3375 11.1059 30.2774 11.0977L30.2777 11.0984ZM42.6025 11.957C42.5564 11.9509 42.5109 11.9349 42.4688 11.9084C42.1627 11.716 41.8441 11.5345 41.522 11.3689C41.3568 11.284 41.2916 11.0811 41.3764 10.9158C41.4613 10.7506 41.6642 10.6854 41.8295 10.7702C42.1688 10.9447 42.5045 11.1357 42.8269 11.3383C42.9843 11.4371 43.0315 11.6448 42.9327 11.8022C42.8605 11.9176 42.7291 11.9739 42.6025 11.9566V11.957ZM33.0673 10.2049C32.9288 10.1862 32.8114 10.082 32.7825 9.93745C32.7459 9.75521 32.8643 9.57807 33.0462 9.54142C33.4195 9.46676 33.8009 9.40703 34.1793 9.36461C34.3639 9.34493 34.5306 9.4766 34.5513 9.66155C34.572 9.84616 34.4389 10.0128 34.2543 10.0335C33.8949 10.0739 33.5329 10.1302 33.1782 10.2011C33.1406 10.2086 33.1032 10.2096 33.0669 10.2049H33.0673ZM39.961 10.6878C39.9389 10.6847 39.9169 10.6796 39.8951 10.6722C39.5534 10.553 39.2022 10.4475 38.8513 10.3576C38.6711 10.3114 38.5625 10.1282 38.6086 9.94831C38.6548 9.76845 38.838 9.65884 39.0179 9.70567C39.3875 9.80035 39.757 9.91132 40.1164 10.0365C40.2919 10.0976 40.3845 10.2894 40.3234 10.4648C40.2698 10.6185 40.1161 10.7088 39.961 10.6878ZM35.9864 9.95679C35.8181 9.93406 35.6908 9.78745 35.6956 9.61404C35.7007 9.42841 35.8558 9.28215 36.0414 9.28724C36.4218 9.2981 36.8066 9.32525 37.1854 9.36868C37.1877 9.36868 37.1901 9.36936 37.1925 9.36936C37.3734 9.3938 37.5023 9.55872 37.4816 9.74096C37.4606 9.92557 37.294 10.0583 37.1093 10.0372C36.7493 9.99616 36.3838 9.97037 36.0224 9.96019C36.0102 9.95985 35.9983 9.95883 35.9864 9.95713V9.95679Z" fill="#91B3FA"/>
<path d="M44.481 13.3894C44.4155 13.3806 44.3517 13.3524 44.2991 13.3043C44.1712 13.1868 44.0388 13.0704 43.9055 12.9578C43.7636 12.838 43.7456 12.6255 43.8654 12.4837C43.9852 12.3418 44.1977 12.3235 44.3395 12.444C44.4797 12.5624 44.6191 12.6849 44.7535 12.8084C44.8903 12.934 44.8998 13.1468 44.7742 13.2839C44.6969 13.3684 44.5862 13.4044 44.4807 13.3901L44.481 13.3894Z" fill="#91B3FA"/>
</g>
<g opacity="0.3">
<path d="M48.734 22.7238C48.5732 22.702 48.4473 22.5663 48.4432 22.3987C48.4391 22.2252 48.431 22.0491 48.4194 21.875C48.4072 21.6894 48.5477 21.5292 48.733 21.5173C48.9193 21.5051 49.0785 21.6456 49.0907 21.8309C49.1026 22.0142 49.1111 22.1998 49.1155 22.3824C49.1199 22.568 48.9729 22.7224 48.7873 22.7268C48.769 22.7272 48.751 22.7261 48.7337 22.7238H48.734Z" fill="#91B3FA"/>
<path d="M33.8916 36.0405C33.7382 36.0198 33.5845 35.9964 33.4307 35.9703C33.2475 35.9391 33.1243 35.7653 33.1552 35.5824C33.1864 35.3992 33.3608 35.2753 33.5431 35.3069C33.898 35.3669 34.2547 35.4127 34.6073 35.4429C34.7926 35.4592 34.9297 35.6218 34.9137 35.8067C34.8978 35.992 34.7349 36.1291 34.5499 36.1132C34.3321 36.0945 34.1105 36.0701 33.8916 36.0405ZM31.7037 35.5542C31.6851 35.5519 31.6664 35.5475 31.6477 35.5417C31.2894 35.4294 30.932 35.3007 30.5856 35.1592C30.4135 35.089 30.331 34.8925 30.4013 34.7208C30.4715 34.5487 30.6684 34.4659 30.8401 34.5365C31.1693 34.6709 31.509 34.7931 31.8493 34.9C32.0265 34.9556 32.1252 35.1443 32.0696 35.3214C32.0197 35.4803 31.8632 35.576 31.7037 35.5542ZM36.3204 36.1417C36.1632 36.1203 36.0384 35.99 36.0299 35.8257C36.0204 35.6401 36.1629 35.482 36.3485 35.4725C36.7035 35.4541 37.0625 35.4205 37.4158 35.372C37.6001 35.3469 37.7698 35.4755 37.7949 35.6598C37.82 35.8441 37.6914 36.0137 37.5071 36.0388C37.1352 36.0898 36.7571 36.1254 36.3832 36.1447C36.3618 36.1457 36.3407 36.1447 36.3204 36.142V36.1417ZM29.0625 34.3933C29.0201 34.3875 28.9784 34.3736 28.939 34.3509C28.6146 34.1629 28.2942 33.9586 27.9868 33.7441C27.8344 33.6375 27.7974 33.4282 27.9036 33.2758C28.0102 33.1234 28.2196 33.0861 28.3719 33.1927C28.6638 33.3963 28.9678 33.5904 29.276 33.7689C29.4368 33.8619 29.4915 34.0679 29.3985 34.2287C29.3282 34.3502 29.1932 34.4113 29.0622 34.3936L29.0625 34.3933ZM39.1649 35.6751C39.0359 35.6577 38.9233 35.5658 38.8859 35.4324C38.8357 35.2536 38.9402 35.0676 39.1191 35.0174C39.4611 34.9213 39.8039 34.8094 40.1378 34.6848C40.3119 34.6197 40.5057 34.7079 40.5708 34.8823C40.6357 35.0564 40.5474 35.2502 40.3733 35.315C40.0218 35.4463 39.6607 35.5644 39.3006 35.6652C39.2551 35.6781 39.209 35.6808 39.1649 35.6747V35.6751ZM41.8383 34.5956C41.7352 34.5816 41.6402 34.5202 41.5869 34.4218C41.4986 34.2582 41.5601 34.0543 41.7236 33.966C42.0375 33.797 42.3477 33.6128 42.646 33.4187C42.8014 33.3172 43.0098 33.361 43.1116 33.5171C43.2131 33.6728 43.169 33.8812 43.0132 33.9827C42.6993 34.187 42.3728 34.3807 42.0426 34.5586C41.9778 34.5935 41.9062 34.6051 41.8383 34.5959V34.5956ZM44.2128 32.9588C44.1344 32.9483 44.0594 32.91 44.0038 32.8455C43.8823 32.705 43.8976 32.4926 44.0381 32.3711C44.3078 32.1376 44.5705 31.8905 44.8193 31.636C44.9492 31.5033 45.162 31.5006 45.295 31.6306C45.4277 31.7606 45.4304 31.9733 45.3005 32.1064C45.0388 32.3741 44.7622 32.6344 44.4785 32.8798C44.4025 32.9456 44.3055 32.971 44.2132 32.9588H44.2128ZM46.1736 30.8433C46.1193 30.8358 46.0661 30.8151 46.0189 30.7802C45.8696 30.6695 45.838 30.4591 45.9486 30.3098C46.1607 30.0234 46.363 29.7244 46.5496 29.4217C46.647 29.2636 46.8547 29.2144 47.0125 29.3117C47.1707 29.4091 47.2199 29.6165 47.1225 29.7746C46.926 30.0936 46.7129 30.4082 46.4896 30.7099C46.4139 30.8121 46.2914 30.8592 46.1736 30.8433ZM47.6227 28.348C47.5922 28.3439 47.5616 28.3354 47.5321 28.3222C47.3621 28.2472 47.285 28.0487 47.3597 27.8786C47.5029 27.5532 47.6342 27.2172 47.75 26.8802C47.8104 26.7045 48.0021 26.6111 48.1772 26.6712C48.353 26.7316 48.4467 26.923 48.3863 27.0988C48.2644 27.4538 48.1263 27.8074 47.9753 28.1498C47.9135 28.2903 47.7673 28.3673 47.6224 28.348H47.6227ZM48.4874 25.5971C48.4806 25.5961 48.4738 25.5951 48.4667 25.5937C48.2844 25.5578 48.166 25.3806 48.202 25.1984C48.2529 24.9412 48.2963 24.6792 48.3316 24.4199C48.3442 24.3259 48.3561 24.2322 48.3666 24.1386C48.3876 23.954 48.5542 23.8213 48.7388 23.842C48.9262 23.8596 49.0561 24.0293 49.0354 24.2139C49.0243 24.3127 49.012 24.4111 48.9988 24.5098C48.9618 24.7827 48.916 25.0582 48.8624 25.329C48.8278 25.5045 48.6625 25.6209 48.4877 25.5971H48.4874Z" fill="#91B3FA"/>
<path d="M26.736 32.6743C26.6698 32.6654 26.6053 32.6366 26.5527 32.5877C26.419 32.4639 26.2857 32.3349 26.1557 32.2046C26.0247 32.0729 26.0254 31.8598 26.157 31.7288C26.2887 31.5978 26.5018 31.5982 26.6328 31.7302C26.756 31.854 26.8829 31.9765 27.0098 32.0943C27.1463 32.2205 27.1544 32.4333 27.0282 32.5697C26.9508 32.6532 26.8408 32.6889 26.736 32.6746V32.6743Z" fill="#91B3FA"/>
</g>
<path d="M27.7089 28.8685C27.7438 28.9255 27.8114 28.9544 27.8769 28.9398L29.7454 28.5261C30.3739 29.1614 31.1086 29.7013 31.9305 30.114L32.1151 32.0178C32.1216 32.0846 32.1698 32.1399 32.2349 32.1556L34.4672 32.6911C34.5324 32.7067 34.6006 32.6792 34.6365 32.6229L35.6645 31.0099C36.5841 31.0146 37.4838 30.867 38.3322 30.5857L39.8097 31.8019C39.8616 31.8447 39.9346 31.8498 39.992 31.8145L41.949 30.6145C42.0064 30.5796 42.0349 30.512 42.0203 30.4465L41.6066 28.578C42.2419 27.9495 42.7818 27.2148 43.1945 26.3929L45.0983 26.2083C45.1651 26.2018 45.2205 26.1537 45.2361 26.0885L45.7716 23.8562C45.7872 23.791 45.7597 23.7228 45.703 23.6869L44.0901 22.6589C44.0948 21.7393 43.9472 20.8396 43.6659 19.9913L44.8821 18.5137C44.9249 18.4618 44.93 18.3888 44.8947 18.3315L43.6947 16.3744C43.6597 16.317 43.5922 16.2885 43.5267 16.3031L41.6582 16.7171C41.0297 16.0818 40.295 15.5419 39.4731 15.1293L39.2885 13.2255C39.282 13.1586 39.2338 13.1033 39.1687 13.0877L36.9364 12.5522C36.8712 12.5366 36.803 12.5641 36.767 12.6207L35.7391 14.2337C34.8195 14.2289 33.9198 14.3766 33.0714 14.6579L31.5939 13.4416C31.5419 13.3989 31.469 13.3938 31.4116 13.4291L29.4545 14.6291C29.3972 14.664 29.3687 14.7315 29.3833 14.797L29.797 16.6655C29.1617 17.294 28.6218 18.0287 28.2091 18.8507L26.3053 19.0353C26.2384 19.0417 26.1831 19.0899 26.1675 19.1551L25.632 21.3874C25.6164 21.4525 25.6439 21.5207 25.7002 21.5567L27.3132 22.5846C27.3084 23.5043 27.4561 24.4036 27.7374 25.2523L26.5211 26.7299C26.4784 26.7818 26.4733 26.8548 26.5086 26.9121L27.7085 28.8692L27.7089 28.8685Z" fill="#91B3FA"/>
<path d="M35.3916 24.9085C34.2768 24.7578 33.4088 23.807 33.3952 22.6494C33.3802 21.3772 34.4027 20.3296 35.6753 20.3146C36.2916 20.3072 36.8739 20.5403 37.3148 20.9709C37.7559 21.4016 38.0026 21.9782 38.0101 22.5944C38.025 23.8667 37.0026 24.9143 35.7303 24.9292C35.6156 24.9306 35.5026 24.9235 35.392 24.9085H35.3916ZM35.9431 20.8688C35.8569 20.8573 35.7697 20.8518 35.6811 20.8528C34.7058 20.8644 33.9215 21.6676 33.9331 22.643C33.9446 23.6186 34.7475 24.4029 35.7232 24.391C36.6985 24.3795 37.4828 23.5762 37.4712 22.6009C37.4654 22.1282 37.2764 21.6863 36.9381 21.3561C36.6632 21.0877 36.3167 20.9194 35.9427 20.8688H35.9431Z" fill="#BDD0FB"/>
<path d="M34.991 28.217C34.7996 28.1912 34.6082 28.1555 34.4178 28.1097C34.3577 28.0955 34.298 28.0799 34.2386 28.0636C33.9454 27.9831 33.659 27.8796 33.3841 27.7544C33.3804 27.7527 33.3767 27.751 33.3729 27.7493C33.3624 27.7446 33.3516 27.7395 33.341 27.7344C33.3203 27.7249 33.3 27.715 33.2793 27.7052C33.2253 27.6794 33.1965 27.6224 33.2039 27.5661C33.2056 27.5525 33.2097 27.5386 33.2161 27.5257C33.2484 27.4588 33.3288 27.4307 33.3957 27.4626C33.7405 27.6282 34.1053 27.7575 34.4803 27.8474C36.3427 28.2943 38.2152 27.7137 39.5004 26.4727C40.2154 25.7824 40.7482 24.8879 40.9966 23.8521C41.0401 23.6706 41.0743 23.488 41.0991 23.3054C41.265 22.0766 41.0058 20.8383 40.3488 19.7666C39.594 18.5357 38.4056 17.6724 37.0017 17.3358C34.1022 16.6408 31.1803 18.4329 30.4853 21.331C30.4426 21.5099 30.409 21.6901 30.3845 21.871C30.2787 22.6549 30.3455 23.4534 30.5831 24.2085C30.5892 24.2281 30.5905 24.2478 30.5882 24.2668C30.5814 24.3167 30.5464 24.3612 30.4952 24.3771C30.4242 24.3992 30.3486 24.3602 30.3265 24.2889C30.0771 23.4958 30.0068 22.6576 30.1181 21.8346C30.1436 21.6446 30.1792 21.4556 30.224 21.2683C30.9536 18.2256 34.0235 16.3445 37.0648 17.0741C38.5386 17.4277 39.7865 18.3338 40.5785 19.6261C41.2681 20.7511 41.5406 22.0508 41.3662 23.3411C41.3404 23.5328 41.3044 23.7242 41.2589 23.9149C40.9053 25.3887 39.9992 26.6366 38.7073 27.429C37.5823 28.1189 36.2819 28.391 34.9913 28.2166L34.991 28.217Z" fill="#BDD0FB"/>
<g opacity="0.3">
<path d="M9.96932 29.9255C9.88007 29.9133 9.80609 29.8444 9.79183 29.7507C9.76536 29.5763 9.74364 29.3988 9.72769 29.223C9.71717 29.1087 9.80134 29.0079 9.9157 28.997C10.0301 28.9862 10.1312 29.0707 10.1417 29.185C10.157 29.3527 10.1777 29.5217 10.2028 29.6883C10.2201 29.8017 10.1421 29.9075 10.0287 29.9252C10.0087 29.9282 9.98866 29.9282 9.96932 29.9255Z" fill="#91B3FA"/>
<path d="M9.87423 28.3297C9.76971 28.3155 9.69097 28.2245 9.69471 28.117C9.70455 27.8132 9.73034 27.5068 9.77106 27.2061C9.77955 27.1427 9.78905 27.0792 9.79889 27.0157C9.81688 26.9024 9.92853 26.8298 10.0364 26.8423C10.1498 26.86 10.2272 26.9665 10.2095 27.0799C10.2 27.1406 10.1912 27.2014 10.1827 27.2618C10.144 27.5489 10.1192 27.8411 10.1097 28.1305C10.106 28.2452 10.01 28.3352 9.89527 28.3314C9.88814 28.3311 9.88102 28.3304 9.87389 28.3297H9.87423ZM10.2085 26.1982C10.1987 26.1969 10.1888 26.1948 10.1793 26.1921C10.069 26.1606 10.0049 26.0455 10.0364 25.9352C10.1372 25.5809 10.2608 25.23 10.404 24.892C10.4488 24.7862 10.5713 24.7373 10.6765 24.7817C10.7824 24.8265 10.8316 24.9484 10.7868 25.0539C10.6503 25.3763 10.5322 25.7113 10.4362 26.0489C10.4077 26.1494 10.3096 26.2115 10.2088 26.1979L10.2085 26.1982ZM11.0498 24.2113C11.0236 24.2079 10.9978 24.1991 10.9734 24.1852C10.874 24.1278 10.8404 24.0005 10.8977 23.9011C11.082 23.5831 11.2883 23.273 11.5106 22.9798C11.5802 22.8881 11.7102 22.8705 11.8018 22.9397C11.8931 23.0089 11.9111 23.1393 11.8418 23.2309C11.6297 23.5105 11.4329 23.8061 11.2575 24.1095C11.214 24.1845 11.1305 24.2221 11.0498 24.2113ZM12.3539 22.4921C12.3112 22.4863 12.2701 22.4673 12.2368 22.4351C12.1547 22.355 12.153 22.2233 12.2331 22.1412C12.4903 21.8775 12.7659 21.6274 13.0527 21.398C13.1422 21.3264 13.2732 21.3413 13.3448 21.4306C13.4164 21.5202 13.4022 21.6508 13.3123 21.7228C13.0387 21.9413 12.7757 22.1799 12.5307 22.4314C12.4829 22.4806 12.417 22.5006 12.3539 22.4921ZM14.0385 21.1435C13.9791 21.1353 13.9235 21.1017 13.8892 21.0464C13.8291 20.9487 13.8593 20.8208 13.957 20.7607C14.2703 20.5676 14.5984 20.3921 14.932 20.2391C15.0365 20.1909 15.1597 20.2371 15.2076 20.3412C15.2554 20.4458 15.2096 20.569 15.1054 20.6168C14.7868 20.7631 14.4739 20.9304 14.1753 21.1146C14.1328 21.1408 14.0843 21.1499 14.0385 21.1435ZM15.9986 20.2449C15.9216 20.2343 15.8534 20.1807 15.8283 20.1017C15.7937 19.9924 15.8544 19.8756 15.9637 19.8407C16.3142 19.7297 16.6753 19.6395 17.0364 19.5726C17.1497 19.5522 17.2576 19.6266 17.2783 19.7392C17.2994 19.8519 17.2247 19.9605 17.1117 19.9812C16.7673 20.0446 16.4235 20.1308 16.0892 20.2367C16.059 20.2462 16.0282 20.2486 15.9986 20.2445V20.2449ZM18.1189 19.8526C18.0226 19.8397 17.9455 19.7596 17.9394 19.6588C17.9326 19.5441 18.0202 19.446 18.1345 19.4392C18.5007 19.4175 18.8727 19.4189 19.2409 19.4426C19.3556 19.4521 19.4424 19.5492 19.4346 19.6635C19.4272 19.7779 19.3284 19.8648 19.2137 19.8577C18.8625 19.8346 18.5078 19.8336 18.1586 19.8543C18.1451 19.8549 18.1315 19.8543 18.1183 19.8526H18.1189ZM21.3194 20.2591C21.3075 20.2574 21.2957 20.2547 21.2838 20.251C20.9953 20.1587 20.6967 20.0803 20.396 20.0182C20.3506 20.0087 20.3058 19.9995 20.261 19.9914C20.1483 19.97 20.074 19.8614 20.0954 19.7487C20.1164 19.6357 20.2264 19.5583 20.338 19.5828C20.3859 19.5919 20.4334 19.6011 20.4809 19.6113C20.7948 19.6761 21.108 19.7582 21.4104 19.8553C21.5196 19.8902 21.5797 20.0073 21.5448 20.1166C21.5135 20.214 21.4172 20.2724 21.3194 20.2591Z" fill="#91B3FA"/>
</g>
<g opacity="0.3">
<path d="M17.5843 37.3106C17.472 37.2953 17.3922 37.1925 17.4062 37.0795C17.4201 36.9658 17.5236 36.8844 17.6376 36.8983C17.9807 36.94 18.3289 36.9614 18.6733 36.9614C18.7873 36.9624 18.8813 37.0544 18.881 37.1694C18.881 37.2841 18.7877 37.3771 18.673 37.3771C18.3119 37.3771 17.9467 37.3547 17.5874 37.3106C17.5863 37.3106 17.5853 37.3106 17.5847 37.3103L17.5843 37.3106ZM16.5388 37.1185C16.5313 37.1175 16.5242 37.1161 16.5167 37.1144C16.1655 37.0279 15.8159 36.9193 15.4776 36.7914C15.3703 36.7507 15.316 36.6309 15.3568 36.5236C15.3971 36.416 15.5176 36.3624 15.6245 36.4025C15.9472 36.5246 16.2808 36.6281 16.6161 36.711C16.7274 36.7384 16.7956 36.8508 16.7682 36.9624C16.7424 37.0666 16.6426 37.1328 16.5388 37.1189V37.1185ZM19.7063 37.3109C19.615 37.2987 19.5397 37.2261 19.5282 37.1304C19.5142 37.0167 19.595 36.9129 19.709 36.899C20.0521 36.8565 20.3956 36.7931 20.7295 36.7096C20.8411 36.6824 20.9535 36.7496 20.9813 36.8613C21.0091 36.9726 20.9412 37.0853 20.8299 37.1131C20.4797 37.2003 20.1197 37.2668 19.7599 37.3113C19.7416 37.3137 19.724 37.3133 19.7067 37.3113L19.7063 37.3109ZM14.5535 36.3665C14.5301 36.3634 14.5067 36.356 14.4846 36.3444C14.1643 36.1761 13.851 35.9861 13.5538 35.7798C13.4594 35.7143 13.436 35.585 13.5015 35.4906C13.567 35.3966 13.6963 35.3732 13.7906 35.4384C14.074 35.6348 14.3726 35.8161 14.678 35.9769C14.7795 36.0305 14.8185 36.1561 14.7653 36.2576C14.7235 36.337 14.6377 36.378 14.5535 36.3668V36.3665ZM21.7649 36.7982C21.6919 36.7883 21.6264 36.7398 21.5986 36.6665C21.5575 36.5593 21.6111 36.4391 21.7184 36.3981C22.0404 36.2749 22.3584 36.1306 22.6632 35.9691C22.7646 35.9152 22.8905 35.9542 22.9441 36.0556C22.9978 36.1571 22.9591 36.283 22.8576 36.3366C22.5379 36.5056 22.2047 36.657 21.867 36.7863C21.8334 36.7992 21.7985 36.8026 21.7652 36.7982H21.7649ZM23.6408 35.8069C23.5852 35.7994 23.5326 35.7692 23.498 35.7197C23.4325 35.6253 23.4559 35.496 23.5499 35.4306C23.8339 35.2334 24.1081 35.0169 24.3654 34.7881C24.4512 34.7118 24.5826 34.7196 24.6589 34.8051C24.7353 34.891 24.7278 35.022 24.6419 35.0983C24.3722 35.3386 24.0847 35.5653 23.7874 35.7719C23.743 35.8028 23.6907 35.814 23.6412 35.8072L23.6408 35.8069ZM25.225 34.3942C25.1856 34.3887 25.1476 34.3724 25.1157 34.3443C25.0295 34.2686 25.021 34.1373 25.097 34.0511C25.3254 33.7918 25.5399 33.5162 25.7343 33.2319C25.7992 33.1375 25.9285 33.1131 26.0231 33.1779C26.1178 33.2427 26.1423 33.372 26.0774 33.4667C25.8735 33.7646 25.6485 34.0541 25.4092 34.3259C25.3614 34.3802 25.2918 34.4033 25.2253 34.3945L25.225 34.3942Z" fill="#91B3FA"/>
<path d="M12.802 35.1504C12.7623 35.1449 12.7236 35.128 12.6917 35.0994C12.559 34.981 12.4294 34.8578 12.3062 34.734C12.2254 34.6525 12.2258 34.5208 12.3069 34.4401C12.3883 34.3596 12.5197 34.3596 12.6008 34.4411C12.7182 34.5595 12.8421 34.6766 12.9686 34.79C13.0542 34.8663 13.0616 34.998 12.9849 35.0835C12.9371 35.1368 12.8679 35.1599 12.802 35.151V35.1504Z" fill="#91B3FA"/>
</g>
<path d="M13.3328 32.5135C13.3562 32.5519 13.4013 32.5709 13.4451 32.5614L14.6956 32.2845C15.1164 32.7097 15.6078 33.0708 16.1576 33.347L16.2811 34.621C16.2855 34.6658 16.3177 34.7027 16.3612 34.7133L17.855 35.0716C17.8988 35.0821 17.9443 35.0638 17.9684 35.0258L18.6563 33.9467C19.2719 33.95 19.8735 33.851 20.4413 33.663L21.4302 34.4771C21.4648 34.5056 21.5137 34.509 21.552 34.4856L22.8616 33.6826C22.8999 33.6592 22.9189 33.6141 22.9094 33.5703L22.6325 32.3201C23.0577 31.8993 23.4188 31.4079 23.6951 30.8578L24.969 30.7343C25.0138 30.7299 25.0508 30.6976 25.0613 30.6542L25.4197 29.1603C25.4302 29.1166 25.4119 29.0711 25.3739 29.047L24.2947 28.3591C24.2981 27.7435 24.199 27.1418 24.011 26.5741L24.8251 25.5852C24.8536 25.5506 24.857 25.5017 24.8336 25.4634L24.0307 24.1538C24.0073 24.1154 23.9621 24.0964 23.9184 24.1059L22.6678 24.3829C22.2474 23.9576 21.7556 23.5966 21.2059 23.3203L21.0823 22.0464C21.0779 22.0016 21.0457 21.9646 21.0023 21.9541L19.5084 21.5957C19.4646 21.5852 19.4191 21.6035 19.395 21.6415L18.7072 22.7207C18.0916 22.7173 17.4899 22.8164 16.9221 23.0044L15.9333 22.1906C15.8986 22.1621 15.8498 22.1587 15.8114 22.1821L14.5018 22.985C14.4635 23.0085 14.4445 23.0536 14.454 23.0974L14.7309 24.3476C14.3057 24.7684 13.9446 25.2598 13.6684 25.8099L12.3944 25.9334C12.3496 25.9378 12.3126 25.97 12.3025 26.0135L11.9441 27.5073C11.9336 27.5511 11.9519 27.5966 11.9899 27.6207L13.0691 28.3086C13.0657 28.9242 13.1648 29.5258 13.3528 30.0936L12.539 31.0825C12.5105 31.1171 12.5071 31.166 12.5305 31.2043L13.3334 32.5139L13.3328 32.5135Z" fill="#91B3FA"/>
<path d="M18.4673 29.891C18.135 29.8462 17.8272 29.6966 17.5829 29.458C17.2826 29.1648 17.1142 28.7718 17.1095 28.352C17.099 27.4857 17.7957 26.7723 18.6624 26.7618C19.5301 26.753 20.2424 27.4483 20.253 28.315C20.2581 28.7348 20.0992 29.1315 19.806 29.4319C19.5128 29.7322 19.1199 29.9005 18.7001 29.9053C18.6217 29.9063 18.544 29.9012 18.4676 29.891H18.4673ZM18.8368 27.1877C18.7815 27.1802 18.7248 27.1765 18.6675 27.1772C18.0298 27.185 17.5177 27.7096 17.5252 28.3473C17.5289 28.6561 17.6525 28.9449 17.8734 29.1607C18.0943 29.3766 18.3862 29.493 18.695 29.4899C19.0038 29.4862 19.2929 29.3626 19.5084 29.1417C19.7242 28.9208 19.841 28.629 19.8373 28.3201C19.8305 27.7402 19.3954 27.2637 18.8368 27.188V27.1877Z" fill="#BDD0FB"/>
<path d="M18.1865 32.1941C18.0562 32.1764 17.9259 32.152 17.7952 32.1208C17.5359 32.0587 17.2831 31.9701 17.0425 31.8574L17.0103 31.8418C16.9271 31.8018 16.8827 31.7139 16.8942 31.627C16.8969 31.606 16.9034 31.5849 16.9129 31.5645C16.9624 31.461 17.0866 31.4179 17.1901 31.4672C17.4138 31.5747 17.65 31.6582 17.8923 31.7162C17.9055 31.7196 17.9191 31.7223 17.9323 31.7254C18.5069 31.8574 19.0922 31.8411 19.6454 31.6867C19.9457 31.6029 20.2362 31.478 20.5104 31.3134C20.5128 31.3121 20.5148 31.3107 20.5172 31.3093C20.524 31.3053 20.5308 31.3012 20.5376 31.2968C21.3344 30.8081 21.8933 30.0388 22.1112 29.13C22.1393 29.0122 22.1614 28.8945 22.1773 28.776C22.2849 27.9806 22.1169 27.1787 21.6917 26.485C21.2031 25.6882 20.4337 25.1296 19.5249 24.9118C18.6168 24.6942 17.6768 24.8429 16.88 25.3312C16.0832 25.8199 15.5242 26.5892 15.3064 27.498C15.2785 27.6137 15.2568 27.7301 15.2409 27.8472C15.1723 28.3549 15.2154 28.8717 15.3695 29.3604C15.379 29.3906 15.3814 29.4212 15.3773 29.4507C15.3668 29.5281 15.3131 29.5963 15.2337 29.621C15.1241 29.6553 15.0077 29.5949 14.9731 29.485C14.8011 28.9379 14.7525 28.3596 14.8292 27.7919C14.8469 27.6609 14.8713 27.5303 14.9022 27.401C15.1462 26.3839 15.7713 25.5233 16.6628 24.9766C17.5543 24.4302 18.6046 24.2626 19.6216 24.5073C20.6384 24.7509 21.4993 25.376 22.046 26.2678C22.5218 27.044 22.7098 27.9409 22.5897 28.831C22.5717 28.963 22.5472 29.0954 22.5157 29.2267C22.0433 31.1953 20.1521 32.4594 18.1875 32.1937L18.1865 32.1941Z" fill="#BDD0FB"/>
<path d="M7.46588 83.4116C7.46588 84.2566 8.15817 84.9483 9.00385 84.9483H92.1751C93.0212 84.9483 93.7131 84.2566 93.7131 83.4116L94.4051 35.6154C94.4051 34.7704 93.4094 33.1204 91.5847 33.2443L10.3005 31.141C9.23902 31.1135 8.2128 31.5221 7.46146 32.271C6.70979 33.0203 6.29848 34.0445 6.3236 35.105L7.46588 83.4113V83.4116Z" fill="url(#paint1_linear_987_7325)"/>
<path d="M8.98476 81.938C8.98476 82.7382 9.63972 83.3932 10.4399 83.3932H90.1701C90.9703 83.3932 91.6253 82.7382 91.6253 81.938L92.2782 38.548C92.2012 35.937 89.9122 34.9983 88.5246 35.054L10.6211 32.9639C9.87558 32.9438 9.15444 33.2313 8.6264 33.758C8.09836 34.2847 7.80787 35.0058 7.82653 35.7514L8.9851 81.938H8.98476Z" fill="#91B3FA"/>
<path d="M90.7625 61.3243H90.7594C90.6416 61.3226 90.5476 61.2259 90.5493 61.1078L90.6009 57.589C90.6026 57.4722 90.6976 57.3789 90.814 57.3789H90.8171C90.9348 57.3806 91.0288 57.4773 91.0271 57.5954L90.9756 61.1142C90.9739 61.231 90.8789 61.3243 90.7625 61.3243Z" fill="url(#paint2_linear_987_7325)"/>
<path d="M90.8892 52.7011H90.8861C90.7684 52.6994 90.6744 52.6024 90.6761 52.4846L90.8739 39.0073C90.8702 38.2068 90.6272 37.5678 90.1518 37.112C89.264 36.2616 87.8543 36.305 87.7949 36.3077L62.8952 35.6399C62.7774 35.6368 62.6844 35.5388 62.6878 35.421C62.6909 35.3032 62.7815 35.2031 62.9067 35.2137L87.7915 35.8815C87.9463 35.8723 89.4469 35.8466 90.4467 36.8039C91.009 37.3424 91.2961 38.085 91.3005 39.0094L91.1026 52.4907C91.1009 52.6075 91.0059 52.7008 90.8895 52.7008L90.8892 52.7011Z" fill="url(#paint3_linear_987_7325)"/>
<path d="M2.69186 88.916L97.1645 88.916C97.2704 88.916 97.3562 88.8302 97.3562 88.7243V84.9082C97.3562 84.8023 97.2704 84.7165 97.1645 84.7165L2.69186 84.7165C2.58596 84.7165 2.50012 84.8023 2.50012 84.9082V88.7243C2.50012 88.8302 2.58596 88.916 2.69186 88.916Z" fill="url(#paint4_linear_987_7325)"/>
<path opacity="0.44" d="M86.5589 50.5961H12.6762C11.5057 50.5961 10.5569 49.6839 10.5569 48.5583V38.7301C10.5569 37.5929 11.5247 36.676 12.7074 36.6926L86.5898 37.7412C87.748 37.7575 88.6779 38.665 88.6779 39.7787V48.5583C88.6779 49.6836 87.729 50.5961 86.5586 50.5961H86.5589Z" fill="white"/>
<path opacity="0.44" d="M88.11 52.7012H11.9373C11.6234 52.7012 11.3689 52.9557 11.3689 53.2696V70.7079C11.3689 71.0218 11.6234 71.2763 11.9373 71.2763H88.11C88.424 71.2763 88.6784 71.0218 88.6784 70.7079V53.2696C88.6784 52.9557 88.424 52.7012 88.11 52.7012Z" fill="white"/>
<path opacity="0.44" d="M88.3947 73.5947H11.6526C11.4959 73.5947 11.3689 73.7217 11.3689 73.8784V81.2927C11.3689 81.4494 11.4959 81.5764 11.6526 81.5764H88.3947C88.5514 81.5764 88.6784 81.4494 88.6784 81.2927V73.8784C88.6784 73.7217 88.5514 73.5947 88.3947 73.5947Z" fill="white"/>
<path d="M77.1922 39.2291C77.0764 37.4417 75.9969 35.8583 74.3789 35.0896L53.4157 25.1335C52.0732 24.4959 50.5152 24.4959 49.1727 25.1335L28.2095 35.0896C26.5915 35.8583 25.512 37.4417 25.3962 39.2291C23.43 69.6241 42.9187 80.6987 49.3074 83.4964C50.5746 84.0512 52.0138 84.0512 53.281 83.4964C59.6697 80.6987 79.1584 69.6241 77.1922 39.2291Z" fill="url(#paint5_linear_987_7325)"/>
<path opacity="0.67" d="M44.9528 29.5336C44.7648 29.5336 44.5843 29.4277 44.4984 29.2465C44.3793 28.9957 44.4862 28.696 44.7366 28.5769L49.6899 26.2245C49.941 26.1054 50.2407 26.2123 50.3595 26.4627C50.4786 26.7135 50.3717 27.0132 50.1212 27.1323L45.168 29.4847C45.0984 29.5176 45.0251 29.5332 44.9528 29.5332V29.5336Z" fill="white"/>
<path opacity="0.67" d="M26.9992 45.9388C26.7295 45.9388 26.5065 45.7247 26.4973 45.4532C26.4308 43.47 26.4658 41.4019 26.6012 39.3071C26.6884 37.9602 27.5029 36.7619 28.7273 36.1802L42.8296 29.4823C43.0804 29.3632 43.3801 29.4701 43.4992 29.7205C43.6183 29.9713 43.5114 30.271 43.261 30.3901L29.1586 37.088C28.2634 37.5132 27.6678 38.3881 27.604 39.3719C27.4706 41.4342 27.436 43.4686 27.5018 45.4193C27.511 45.6965 27.2938 45.929 27.0166 45.9385C27.0108 45.9385 27.005 45.9385 26.9992 45.9385V45.9388Z" fill="white"/>
<path d="M72.123 40.4152C72.0999 39.9622 71.8301 39.5577 71.4201 39.3629L51.8232 30.0556C51.4886 29.8968 51.1004 29.8968 50.7658 30.0556L31.1688 39.3629C30.7589 39.5577 30.4891 39.9622 30.466 40.4152C29.8864 51.7535 32.5052 61.2138 38.2557 68.546C42.6395 74.1362 47.7679 77.1321 50.7732 78.5296C51.1044 78.6836 51.4852 78.6836 51.8164 78.5296C54.8214 77.1321 59.9498 74.1362 64.334 68.546C70.0841 61.2138 72.7033 51.7532 72.1236 40.4152H72.123Z" fill="url(#paint6_linear_987_7325)"/>
<path d="M45.5001 52.5978H43.5471V44.8142C43.5471 41.7573 45.8358 39.1738 48.8703 38.8049L52.8639 38.3196C54.5827 38.1106 56.3121 38.6495 57.6081 39.7975C58.9041 40.9456 59.6476 42.5972 59.6476 44.329V51.1239H57.6946V44.329C57.6946 43.1561 57.191 42.0373 56.3131 41.2595C55.4352 40.4816 54.2637 40.1168 53.0994 40.2584L49.1058 40.7436C47.0503 40.9934 45.5001 42.7435 45.5001 44.8142V52.5978Z" fill="url(#paint7_linear_987_7325)"/>
<path d="M42.9697 50.8498L60.0907 49.9013C60.786 49.8629 61.3711 50.4161 61.3711 51.1128V64.6763C61.3711 65.3462 60.8278 65.8895 60.1579 65.8895H43.4482C42.7936 65.8895 42.2571 65.3699 42.2357 64.7156L41.8244 52.1007C41.803 51.4416 42.3117 50.8861 42.9697 50.8498Z" fill="url(#paint8_linear_987_7325)"/>
<path d="M54.3886 62.0042L53.3522 59.025C53.2277 58.6669 53.3125 58.2661 53.5789 57.9964C54.11 57.4581 54.4263 56.7078 54.389 55.8839C54.3228 54.4307 53.1357 53.2521 51.6819 53.1965C50.073 53.1347 48.7495 54.4205 48.7495 56.0155C48.7495 56.9002 49.1571 57.6899 49.7947 58.2068C50.1253 58.4749 50.2614 58.9157 50.1215 59.3178L49.1873 62.0042C48.9599 62.6574 49.4452 63.3399 50.1368 63.3399H53.4394C54.1311 63.3399 54.6163 62.6578 54.389 62.0042H54.3886Z" fill="url(#paint9_linear_987_7325)"/>
<path d="M64.7317 41.863C64.7452 41.8579 72.0187 29.1205 73.0015 27.9215C73.1668 27.7199 73.4226 27.6171 73.6816 27.648L75.7116 27.8899L78.0966 33.0495L74.1234 30.7355C74.5167 33.4547 69.4124 37.4955 67.6617 38.97C67.4839 39.1197 67.4696 39.3877 67.6298 39.5557L68.3285 40.2874C67.1812 41.4504 65.8573 42.1973 64.3628 42.5424L64.731 41.8627L64.7317 41.863Z" fill="url(#paint10_linear_987_7325)"/>
<path d="M67.9245 39.8926C67.9245 39.8926 68.3704 40.0368 68.5215 40.4339C68.5937 40.6239 68.5157 40.839 68.3504 40.9575C67.616 41.4838 65.1934 43.1823 64.0755 43.5152C63.9839 43.5424 63.8967 43.4596 63.9174 43.3662C63.9747 43.1066 64.1604 42.5878 64.7583 41.8286L64.7047 41.9372C64.6368 42.0747 64.7865 42.2175 64.9198 42.1422C65.6675 41.72 67.1905 40.7963 67.9249 39.8926H67.9245Z" fill="url(#paint11_linear_987_7325)"/>
<path d="M67.5645 44.9894C67.5767 44.9816 68.6681 42.3523 68.6803 42.3444C69.6808 36.2526 72.1221 31.0357 72.8419 29.6626C72.963 29.4319 73.1928 29.2795 73.4527 29.2571L75.4899 29.083L78.8696 33.6531L74.5102 32.1912C75.4454 34.7744 71.2645 39.7647 69.8487 41.5629C69.7052 41.7455 69.7449 42.0109 69.9363 42.1429L70.7687 42.7177C69.8806 44.0888 68.735 45.0882 67.3416 45.7289L67.5649 44.9887L67.5645 44.9894Z" fill="url(#paint12_linear_987_7325)"/>
<path d="M70.2929 42.4138C70.2929 42.4138 70.7588 42.4647 70.9872 42.823C71.0965 42.9944 71.0636 43.2211 70.9258 43.3704C70.3129 44.0342 68.2842 46.1884 67.257 46.7402C67.1728 46.7854 67.0707 46.7219 67.072 46.6262C67.0758 46.3602 67.1525 45.8148 67.5841 44.9501L67.5536 45.0672C67.5149 45.2155 67.6903 45.3251 67.8057 45.2243C68.4525 44.6596 69.757 43.4468 70.2932 42.4131L70.2929 42.4138Z" fill="url(#paint13_linear_987_7325)"/>
<path d="M85.0255 28.121C85.0255 28.121 86.8683 30.862 87.0196 32.1122C87.171 33.3624 86.5099 33.7947 84.5813 33.9542C78.8414 34.4286 76.0122 32.7084 76.0122 32.7084C75.6195 30.205 75.3403 29.568 72.061 28.2068C72.061 28.2068 76.2087 28.536 77.0435 28.2123C77.8783 27.8882 85.0259 28.121 85.0259 28.121H85.0255Z" fill="url(#paint14_linear_987_7325)"/>
<path d="M76.202 13.7507C76.202 13.7507 75.2281 12.7459 76.6367 11.9382C78.0454 11.1306 79.1317 12.1496 80.3931 13.5539C81.4261 14.7037 83.355 14.7824 84.7474 15.1801C86.5009 15.681 87.7704 17.0228 87.9713 18.9036C88.1359 20.4419 86.8178 21.5214 85.5055 21.9968C81.4903 23.452 80.5404 23.939 79.2807 21.5377C78.0207 19.1364 76.2017 13.7511 76.2017 13.7511L76.202 13.7507Z" fill="url(#paint15_linear_987_7325)"/>
<path d="M86.512 20.6668C86.7567 20.4961 86.9814 20.2701 87.1168 20.0502C87.3201 19.7204 87.3828 19.1207 87.374 18.6694C87.3309 16.4625 85.2147 15.6691 83.6268 15.2639C83.1531 15.1431 82.6532 15.0345 82.1408 14.9408C82.1279 14.9385 82.115 14.9469 82.1129 14.9602C82.1106 14.9731 82.1191 14.9856 82.1323 14.988C82.6437 15.0813 83.1426 15.1899 83.6153 15.3104C85.1879 15.7115 87.2837 16.4961 87.3262 18.67C87.335 19.1146 87.2736 19.7041 87.0761 20.0248C86.8938 20.3207 86.545 20.6285 86.2083 20.7903C86.1964 20.7961 86.1914 20.8104 86.1971 20.8222C86.2029 20.8341 86.2171 20.8392 86.229 20.8334C86.3237 20.788 86.4194 20.731 86.512 20.6665V20.6668Z" fill="#BDD0FB"/>
<path d="M80.0412 27.7584C80.0412 27.7584 77.8951 25.7152 76.8391 24.3615C76.2679 23.6298 76.0887 22.6667 76.3527 21.7769C76.835 20.1521 77.6922 18.4692 77.7702 18.2072C77.89 17.8057 80.2961 17.8224 80.2961 17.8224C80.2961 17.8224 85.0312 20.8953 86.8912 26.1007L84.8018 26.7512C84.8018 26.7512 83.5655 24.6771 82.3441 23.3583C82.3441 23.3583 84.4576 26.1506 84.5323 27.2935L80.0412 27.7578V27.7584Z" fill="url(#paint16_linear_987_7325)"/>
<path d="M75.9531 28.565L77.5658 26.8105L79.4282 27.3121C79.4282 27.3121 81.5994 27.6484 82.8418 27.3121L84.0845 26.9757L86.8923 26.1016L87.3335 27.348C87.4455 27.6643 87.3328 28.0159 87.0593 28.2103C86.8163 28.3831 86.5316 28.5728 86.35 28.6522C85.9801 28.8141 77.8318 28.7034 77.8318 28.7034L75.9535 28.5656L75.9531 28.565Z" fill="url(#paint17_linear_987_7325)"/>
<path d="M78.6424 14.9299L80.2594 17.9373C80.1525 18.5936 78.4992 18.6123 78.244 18.2203C78.2178 18.1803 78.2033 18.1341 78.1934 18.0877L77.2259 16.0783C77.1845 15.8825 77.7214 15.2221 77.8982 15.1281L78.5409 14.786C78.7883 14.6544 77.7556 14.6438 78.642 14.9303L78.6424 14.9299Z" fill="url(#paint18_linear_987_7325)"/>
<path d="M75.3695 14.2243C75.3695 14.2243 75.187 15.2404 75.9855 16.5323C76.784 17.8242 77.5791 17.7659 77.9833 17.305C78.3871 16.8442 78.8714 16.0769 78.6511 14.7887C78.4309 13.5001 75.6454 12.929 75.3695 14.2243Z" fill="url(#paint19_linear_987_7325)"/>
<path d="M75.4872 12.7299C75.4872 12.7299 74.8179 13.7364 74.955 14.1651C75.0918 14.5937 76.5531 13.7952 76.9043 13.5739L80.1167 16.0448C80.1167 16.0448 78.3961 12.7275 77.5359 12.1788C76.6756 11.63 75.4875 12.7299 75.4875 12.7299H75.4872Z" fill="url(#paint20_linear_987_7325)"/>
<path d="M75.1195 14.171C75.1263 14.1649 75.1291 14.1551 75.126 14.1456C75.1202 14.1279 74.9852 13.7092 75.3944 13.3318C75.4043 13.3226 75.405 13.3077 75.3958 13.2979C75.3866 13.288 75.3717 13.2873 75.3619 13.2965C74.9288 13.6959 75.0792 14.1564 75.0805 14.1612C75.0846 14.1737 75.0985 14.1805 75.1111 14.1761C75.1145 14.1751 75.1172 14.1734 75.1195 14.171Z" fill="#BDD0FB"/>
<path d="M78.2019 14.8831C78.2019 14.8831 77.532 14.014 78.1418 13.8335C78.7516 13.653 78.7289 14.6853 78.6888 15.0691L78.2019 14.8831Z" fill="url(#paint21_linear_987_7325)"/>
<path d="M81.2908 29.2586C81.2851 29.2586 81.2796 29.2589 81.2739 29.2589L73.8572 29.2508C73.6739 29.2508 73.5253 29.1018 73.5256 28.9185C73.5256 28.7353 73.6753 28.5836 73.8579 28.587L81.2745 28.5951C81.4578 28.5951 81.6064 28.7441 81.6061 28.9273C81.6061 29.1048 81.4663 29.2501 81.2908 29.2586Z" fill="url(#paint22_linear_987_7325)"/>
<path d="M67.1896 22.5244H73.3663C73.822 22.5244 74.2367 22.7874 74.4312 23.1994L77.2865 29.2542H69.6106C69.3171 29.2542 69.053 29.0747 68.9451 28.8019L66.7308 23.1991C66.6029 22.8753 66.8414 22.5244 67.1896 22.5244Z" fill="url(#paint23_linear_987_7325)"/>
<path d="M71.5412 25.6293C71.6749 26.045 71.5762 26.4492 71.3203 26.5313C71.0644 26.6137 70.7485 26.3433 70.6148 25.9276C70.4811 25.5118 70.5798 25.108 70.8357 25.0255C71.0916 24.9431 71.4075 25.2135 71.5412 25.6293Z" fill="#91B3FA"/>
<path d="M22.1595 95.7113C21.1971 95.7944 19.5265 95.9295 18.2098 95.9875C17.418 96.0225 16.9623 95.9448 16.7 95.8399C16.7003 95.8694 16.7013 95.8976 16.7023 95.9234C16.7084 96.0618 16.8211 96.1728 16.9613 96.1806C19.4498 96.3194 21.4286 96.2288 22.1331 96.1857C22.2787 96.1769 22.3655 96.0184 22.2912 95.8942C22.2539 95.8321 22.2088 95.7713 22.1599 95.7109L22.1595 95.7113Z" fill="url(#paint24_linear_987_7325)"/>
<path d="M18.2101 95.9873C19.5271 95.9293 21.1975 95.7942 22.1599 95.7111C21.2137 94.5501 18.2101 93.7676 18.2101 93.7676H17.3617C16.7783 94.6085 16.6938 95.4094 16.7003 95.8397C16.9626 95.9449 17.4184 96.0223 18.2101 95.9873Z" fill="url(#paint25_linear_987_7325)"/>
<path d="M17.2188 92.3828L17.2982 93.9537C17.3066 94.1237 17.4342 94.2669 17.6046 94.291C17.7743 94.3151 18.001 94.3185 18.2419 94.2381C18.3899 94.1889 18.4998 94.064 18.5273 93.912L18.8015 92.3828H17.2191H17.2188Z" fill="url(#paint26_linear_987_7325)"/>
<path d="M7.37268 97.5231C6.95527 97.4478 6.76659 97.1678 6.68718 96.8682C6.6865 96.8709 6.68616 96.8736 6.68548 96.8763C6.62406 97.1923 6.76659 97.5197 7.05097 97.6755C7.39508 97.8638 7.77109 97.8957 8.06294 97.8801C8.37616 97.8635 8.66394 97.6959 8.82174 97.4278L8.82412 97.4237C8.50953 97.6249 8.06837 97.6484 7.372 97.5231H7.37268Z" fill="url(#paint27_linear_987_7325)"/>
<path d="M9.3406 92.8666H8.64119C7.5756 92.8384 6.90639 95.7433 6.6875 96.8679C6.76657 97.1676 6.95559 97.4479 7.373 97.5229C8.06903 97.6484 8.51053 97.6247 8.82512 97.4235C9.40067 96.4444 9.68607 95.0103 9.82351 94.1734C9.97961 93.2215 9.34128 92.8662 9.34128 92.8662L9.3406 92.8666Z" fill="url(#paint28_linear_987_7325)"/>
<path d="M8.73192 91.4092L8.34335 92.9543C8.29584 93.1436 8.38645 93.3398 8.56156 93.4294C8.77875 93.541 9.08485 93.6581 9.36618 93.6242C9.49853 93.6082 9.60814 93.5152 9.65192 93.3907L10.2224 91.7652L8.73226 91.4092H8.73192Z" fill="url(#paint29_linear_987_7325)"/>
<path d="M22.3963 71.0592C22.3963 71.0592 18.9247 92.7595 18.982 92.8786C18.982 92.8786 18.0233 93.3143 16.9781 92.9342C16.9781 92.9342 17.292 81.334 18.0277 76.8863C18.0277 76.8863 12.1029 87.2547 10.2215 92.4211C10.2215 92.4211 9.24006 92.3041 8.42798 91.7696C8.42798 91.7696 14.8072 73.1069 16.5091 70.6211L22.3966 71.0595L22.3963 71.0592Z" fill="url(#paint30_linear_987_7325)"/>
<path d="M18.1663 76.8099C18.2128 76.8099 18.2583 76.7868 18.2847 76.7444L19.5505 74.7228L20.4461 74.5426C20.5218 74.5274 20.5707 74.4537 20.5554 74.3784C20.5401 74.3027 20.4668 74.2549 20.3911 74.2691L19.4365 74.4612C19.3989 74.4687 19.3659 74.4914 19.3456 74.524L18.0482 76.5961C18.0071 76.6616 18.0272 76.7474 18.0923 76.7885C18.1154 76.8031 18.1409 76.8099 18.166 76.8099H18.1663Z" fill="url(#paint31_linear_987_7325)"/>
<path d="M38.3277 49.8105C38.3277 49.8105 35.9851 50.327 34.5605 50.9851C34.2775 51.1157 34.0518 51.3441 33.9232 51.6258C33.497 52.5593 32.2223 54.8999 29.7498 56.0171C30.1057 56.4898 30.6793 57.4726 30.929 59.1249C32.4141 58.0196 33.6962 56.1739 34.3114 53.1464C34.3114 53.1464 34.7801 53.4013 35.3648 53.1173C35.6736 52.9673 36.0303 52.7545 36.298 52.5872C36.5648 52.4206 36.7636 52.1613 36.8406 51.8586C36.9425 51.4588 36.8824 51.1072 36.8824 50.7302L38.0864 50.3573C38.0864 50.3573 38.4485 50.2205 38.3277 49.8109V49.8105Z" fill="url(#paint32_linear_987_7325)"/>
<path d="M30.9289 59.1253C30.6791 57.4729 30.1059 56.4898 29.7496 56.0174C28.2137 56.7114 26.2159 56.9334 23.6714 56.0517C23.4369 55.9706 23.1922 55.9227 22.9441 55.9082C21.5897 55.8287 17.1265 55.6838 13.4333 56.9042C12.6561 57.1611 12.0266 57.7356 11.7019 58.4802C10.7028 60.7729 9.0854 65.9942 13.5755 68.63C13.9206 67.7735 14.3186 67.0849 14.659 66.5793C13.9359 65.3596 13.7217 63.6937 15.0048 61.5242C15.9404 64.0507 16.3796 67.7372 16.4712 69.3688C16.5014 69.906 16.4071 70.4422 16.1963 70.938L16.1732 70.992C16.1281 71.0982 16.1902 71.22 16.3036 71.2455C18.8314 71.8132 21.4604 71.6591 22.2461 71.594C22.3862 71.5824 22.503 71.482 22.5349 71.3466C23.764 66.1673 23.7667 62.6342 23.4661 60.4006C24.6158 60.6578 28.1319 61.2059 30.9279 59.1249L30.9289 59.1253Z" fill="url(#paint33_linear_987_7325)"/>
<path d="M23.4716 60.5761C23.4777 60.5761 23.4838 60.5757 23.4903 60.5751C23.5666 60.5649 23.6203 60.495 23.6101 60.4183C23.3138 58.1782 22.7176 57.2185 22.6921 57.1788C22.6507 57.114 22.5642 57.0949 22.5 57.1357C22.4349 57.1767 22.4155 57.2629 22.4566 57.3281C22.4624 57.3372 23.0464 58.2847 23.3338 60.4549C23.343 60.5252 23.4031 60.5761 23.4716 60.5761Z" fill="url(#paint34_linear_987_7325)"/>
<path d="M17.2334 52.8906C17.2334 52.8906 16.9775 55.5946 16.7525 56.3942C16.7183 56.5157 16.7712 56.6436 16.8815 56.7064C17.2636 56.9246 18.1802 57.2809 19.4338 56.6663C19.6371 56.5669 19.7589 56.3551 19.7494 56.1312L19.6391 53.5184L17.2334 52.8906Z" fill="url(#paint35_linear_987_7325)"/>
<path d="M34.9365 52.9043C34.9769 52.9043 35.0173 52.8867 35.0448 52.8528C35.3814 52.4387 35.9543 51.7821 36.1538 51.6694C36.3292 51.5703 36.4294 51.4587 36.4602 51.3284C36.4864 51.2181 36.4589 51.102 36.3791 50.9832C36.3476 50.9367 36.2933 50.9137 36.2359 50.9245L35.2134 51.1295C35.19 51.1342 35.1683 51.1448 35.15 51.1604L34.6063 51.627C34.5476 51.6772 34.5412 51.7651 34.5914 51.8238C34.642 51.8825 34.7299 51.889 34.7882 51.8388L35.304 51.3959L36.1871 51.2191C36.1935 51.2439 36.1901 51.2581 36.1888 51.2646C36.1776 51.3131 36.1165 51.3704 36.0167 51.4268C35.7079 51.6012 34.9175 52.5674 34.8286 52.677C34.7801 52.7367 34.7892 52.8246 34.849 52.8731C34.8748 52.8942 34.906 52.9043 34.9369 52.9043H34.9365Z" fill="url(#paint36_linear_987_7325)"/>
<path d="M17.4753 70.4757L21.1665 70.3952C21.1665 70.3952 17.9477 69.4854 17.7481 69.7331C17.7481 69.7331 15.7531 68.4222 14.66 66.5781C14.3196 67.0841 13.9212 67.7723 13.5764 68.6289C14.5565 69.2041 15.8437 70.2038 17.4756 70.4753L17.4753 70.4757Z" fill="url(#paint37_linear_987_7325)"/>
<path d="M17.3708 69.8363C17.3708 69.8363 17.2948 71.3071 19.225 71.0933C20.2743 70.9772 21.9681 69.9988 21.9681 69.9988C21.9681 69.9988 17.5533 69.987 17.3708 69.8359V69.8363Z" fill="url(#paint38_linear_987_7325)"/>
<path d="M18.1263 70.2315C18.1335 70.2318 18.1403 70.2322 18.1474 70.2318L27.3247 70.222C27.5517 70.222 27.7353 70.0398 27.7349 69.8151C27.7349 69.5905 27.55 69.4052 27.3236 69.4092L18.1464 69.4191C17.9193 69.4191 17.7357 69.6013 17.7361 69.826C17.7361 70.0435 17.9092 70.221 18.1263 70.2315Z" fill="url(#paint39_linear_987_7325)"/>
<path d="M35.5745 61.9873H27.9318C27.3682 61.9873 26.8547 62.3094 26.6145 62.8136L23.0811 70.2266H32.579C32.9425 70.2266 33.2689 70.007 33.4023 69.6728L36.1423 62.8133C36.3004 62.4169 36.0055 61.9873 35.5745 61.9873Z" fill="url(#paint40_linear_987_7325)"/>
<path d="M30.1903 65.7878C30.0247 66.2968 30.1469 66.7913 30.4635 66.8921C30.7801 66.9929 31.1711 66.662 31.3367 66.1526C31.5023 65.6436 31.3801 65.1491 31.0635 65.0483C30.7469 64.9476 30.3559 65.2784 30.1903 65.7878Z" fill="url(#paint41_linear_987_7325)"/>
<path d="M20.2558 49.1347C20.29 49.1901 21.1998 53.3964 21.1998 53.3964L18.787 53.8647L17.3325 50.0059C17.3325 50.0059 19.6792 48.21 20.2558 49.1347Z" fill="url(#paint42_linear_987_7325)"/>
<path d="M18.195 50.6291L18.8014 52.7205C18.8092 52.7473 18.8201 52.7724 18.835 52.7962C18.9253 52.9415 19.2724 53.4179 19.7384 53.0331C20.1612 52.6839 20.5521 52.3713 20.8993 52.3306C21.0551 52.3123 21.1993 52.4148 21.2322 52.5682C21.3147 52.9503 21.4847 53.815 21.5179 54.589C21.5247 54.7462 21.4087 54.8809 21.2529 54.9016C20.7832 54.9633 19.7893 55.0655 18.9704 54.9606C18.8594 54.9464 18.7651 54.8741 18.7244 54.7696C18.5262 54.2616 17.9177 52.7195 17.6815 52.316C17.4599 51.9373 16.8653 51.9135 16.6149 51.9213C16.5328 51.9241 16.454 51.8928 16.3953 51.8355C16.1883 51.6319 15.8011 51.1205 16.4184 50.5697C16.5477 50.4543 16.5555 50.2571 16.4364 50.1316C16.1992 49.8815 15.9552 49.4484 16.4021 48.954C16.8565 48.4514 17.4121 48.5671 17.7484 48.712C17.8841 48.7707 18.0388 48.7205 18.1216 48.598C18.1688 48.5281 18.2469 48.4775 18.3762 48.4962C18.5503 48.5213 18.706 48.3835 18.7128 48.2077C18.726 47.8697 18.8713 47.4503 19.4672 47.3017C20.5246 47.0376 21.1151 48.0784 21.1365 48.8311C21.1579 49.5838 19.9952 49.8048 19.324 49.7159C18.8136 49.6483 18.404 50.1343 18.237 50.3715C18.1841 50.4465 18.1688 50.5415 18.1946 50.6297L18.195 50.6291Z" fill="url(#paint43_linear_987_7325)"/>
<path d="M17.9107 53.0752C17.9107 53.0752 17.817 51.7652 17.2798 51.6706C16.7426 51.5759 16.1908 51.9902 16.6866 52.7511C17.3036 53.6972 17.9103 53.0752 17.9103 53.0752H17.9107Z" fill="url(#paint44_linear_987_7325)"/>
<defs>
<linearGradient id="paint0_linear_987_7325" x1="105.485" y1="111.489" x2="39.5885" y2="41.3402" gradientUnits="userSpaceOnUse">
<stop stop-color="#DAE3FE"/>
<stop offset="1" stop-color="#E9EFFD"/>
</linearGradient>
<linearGradient id="paint1_linear_987_7325" x1="50.5919" y1="32.6745" x2="49.419" y2="86.8609" gradientUnits="userSpaceOnUse">
<stop stop-color="#09005D"/>
<stop offset="1" stop-color="#1A0F91"/>
</linearGradient>
<linearGradient id="paint2_linear_987_7325" x1="90.5493" y1="59.3516" x2="91.0271" y2="59.3516" gradientUnits="userSpaceOnUse">
<stop stop-color="#DAE3FE"/>
<stop offset="1" stop-color="#E9EFFD"/>
</linearGradient>
<linearGradient id="paint3_linear_987_7325" x1="62.6875" y1="43.9569" x2="91.3002" y2="43.9569" gradientUnits="userSpaceOnUse">
<stop stop-color="#DAE3FE"/>
<stop offset="1" stop-color="#E9EFFD"/>
</linearGradient>
<linearGradient id="paint4_linear_987_7325" x1="51.064" y1="82.1027" x2="58.1539" y2="52.68" gradientUnits="userSpaceOnUse">
<stop stop-color="#09005D"/>
<stop offset="1" stop-color="#1A0F91"/>
</linearGradient>
<linearGradient id="paint5_linear_987_7325" x1="72.8433" y1="-1.50001" x2="55.4128" y2="37.4621" gradientUnits="userSpaceOnUse">
<stop stop-color="#FF928E"/>
<stop offset="1" stop-color="#FE7062"/>
</linearGradient>
<linearGradient id="paint6_linear_987_7325" x1="42.1529" y1="24.1508" x2="60.4935" y2="69.1684" gradientUnits="userSpaceOnUse">
<stop stop-color="#4F52FF"/>
<stop offset="1" stop-color="#4042E2"/>
</linearGradient>
<linearGradient id="paint7_linear_987_7325" x1="67.5676" y1="-17.6677" x2="63.6378" y2="-1.60692" gradientUnits="userSpaceOnUse">
<stop stop-color="#FF928E"/>
<stop offset="1" stop-color="#FE7062"/>
</linearGradient>
<linearGradient id="paint8_linear_987_7325" x1="70.0532" y1="-17.0599" x2="66.1235" y2="-0.999056" gradientUnits="userSpaceOnUse">
<stop stop-color="#FF928E"/>
<stop offset="1" stop-color="#FE7062"/>
</linearGradient>
<linearGradient id="paint9_linear_987_7325" x1="51.5526" y1="59.1441" x2="62.146" y2="29.2432" gradientUnits="userSpaceOnUse">
<stop stop-color="#E1473D"/>
<stop offset="1" stop-color="#E9605A"/>
</linearGradient>
<linearGradient id="paint10_linear_987_7325" x1="62.9881" y1="31.1929" x2="74.4553" y2="37.7381" gradientUnits="userSpaceOnUse">
<stop stop-color="#FEBBBA"/>
<stop offset="1" stop-color="#FF928E"/>
</linearGradient>
<linearGradient id="paint11_linear_987_7325" x1="63.9143" y1="41.7068" x2="68.5486" y2="41.7068" gradientUnits="userSpaceOnUse">
<stop stop-color="#09005D"/>
<stop offset="1" stop-color="#1A0F91"/>
</linearGradient>
<linearGradient id="paint12_linear_987_7325" x1="64.0973" y1="32.8255" x2="24.8627" y2="8.26406" gradientUnits="userSpaceOnUse">
<stop stop-color="#FEBBBA"/>
<stop offset="1" stop-color="#FF928E"/>
</linearGradient>
<linearGradient id="paint13_linear_987_7325" x1="67.0717" y1="44.5846" x2="71.0527" y2="44.5846" gradientUnits="userSpaceOnUse">
<stop stop-color="#09005D"/>
<stop offset="1" stop-color="#1A0F91"/>
</linearGradient>
<linearGradient id="paint14_linear_987_7325" x1="73.7293" y1="22.9746" x2="83.1608" y2="33.3101" gradientUnits="userSpaceOnUse">
<stop stop-color="#4F52FF"/>
<stop offset="1" stop-color="#4042E2"/>
</linearGradient>
<linearGradient id="paint15_linear_987_7325" x1="87.0557" y1="22.4841" x2="73.8995" y2="11.72" gradientUnits="userSpaceOnUse">
<stop stop-color="#09005D"/>
<stop offset="1" stop-color="#1A0F91"/>
</linearGradient>
<linearGradient id="paint16_linear_987_7325" x1="99.5218" y1="7.71152" x2="89.9536" y2="15.7421" gradientUnits="userSpaceOnUse">
<stop stop-color="#FF928E"/>
<stop offset="1" stop-color="#FE7062"/>
</linearGradient>
<linearGradient id="paint17_linear_987_7325" x1="83.0729" y1="27.4206" x2="94.4957" y2="27.4206" gradientUnits="userSpaceOnUse">
<stop stop-color="#FEBBBA"/>
<stop offset="1" stop-color="#FF928E"/>
</linearGradient>
<linearGradient id="paint18_linear_987_7325" x1="78.4122" y1="21.9495" x2="78.6766" y2="17.8348" gradientUnits="userSpaceOnUse">
<stop stop-color="#FEBBBA"/>
<stop offset="1" stop-color="#FF928E"/>
</linearGradient>
<linearGradient id="paint19_linear_987_7325" x1="78.8071" y1="18.4816" x2="73.8366" y2="8.96908" gradientUnits="userSpaceOnUse">
<stop stop-color="#FEBBBA"/>
<stop offset="1" stop-color="#FF928E"/>
</linearGradient>
<linearGradient id="paint20_linear_987_7325" x1="87.2788" y1="22.2119" x2="74.1226" y2="11.4478" gradientUnits="userSpaceOnUse">
<stop stop-color="#09005D"/>
<stop offset="1" stop-color="#1A0F91"/>
</linearGradient>
<linearGradient id="paint21_linear_987_7325" x1="80.1656" y1="17.8868" x2="75.1952" y2="8.37427" gradientUnits="userSpaceOnUse">
<stop stop-color="#FEBBBA"/>
<stop offset="1" stop-color="#FF928E"/>
</linearGradient>
<linearGradient id="paint22_linear_987_7325" x1="82.5555" y1="27.2787" x2="76.6679" y2="29.2095" gradientUnits="userSpaceOnUse">
<stop stop-color="#09005D"/>
<stop offset="1" stop-color="#1A0F91"/>
</linearGradient>
<linearGradient id="paint23_linear_987_7325" x1="67.0396" y1="26.3256" x2="120.784" y2="21.804" gradientUnits="userSpaceOnUse">
<stop stop-color="#09005D"/>
<stop offset="1" stop-color="#1A0F91"/>
</linearGradient>
<linearGradient id="paint24_linear_987_7325" x1="16.7" y1="95.9831" x2="22.3184" y2="95.9831" gradientUnits="userSpaceOnUse">
<stop stop-color="#4F52FF"/>
<stop offset="1" stop-color="#4042E2"/>
</linearGradient>
<linearGradient id="paint25_linear_987_7325" x1="16.6999" y1="94.8817" x2="22.1599" y2="94.8817" gradientUnits="userSpaceOnUse">
<stop stop-color="#09005D"/>
<stop offset="1" stop-color="#1A0F91"/>
</linearGradient>
<linearGradient id="paint26_linear_987_7325" x1="17.2188" y1="93.3446" x2="18.8015" y2="93.3446" gradientUnits="userSpaceOnUse">
<stop stop-color="#FEBBBA"/>
<stop offset="1" stop-color="#FF928E"/>
</linearGradient>
<linearGradient id="paint27_linear_987_7325" x1="6.67191" y1="97.3758" x2="8.8248" y2="97.3758" gradientUnits="userSpaceOnUse">
<stop stop-color="#4F52FF"/>
<stop offset="1" stop-color="#4042E2"/>
</linearGradient>
<linearGradient id="paint28_linear_987_7325" x1="6.6875" y1="95.2332" x2="9.8476" y2="95.2332" gradientUnits="userSpaceOnUse">
<stop stop-color="#09005D"/>
<stop offset="1" stop-color="#1A0F91"/>
</linearGradient>
<linearGradient id="paint29_linear_987_7325" x1="8.3308" y1="92.5196" x2="10.2224" y2="92.5196" gradientUnits="userSpaceOnUse">
<stop stop-color="#FEBBBA"/>
<stop offset="1" stop-color="#FF928E"/>
</linearGradient>
<linearGradient id="paint30_linear_987_7325" x1="23.6285" y1="72.1092" x2="7.48049" y2="98.5608" gradientUnits="userSpaceOnUse">
<stop stop-color="#4F52FF"/>
<stop offset="1" stop-color="#4042E2"/>
</linearGradient>
<linearGradient id="paint31_linear_987_7325" x1="34.1725" y1="58.3416" x2="24.0918" y2="69.7892" gradientUnits="userSpaceOnUse">
<stop stop-color="#4F52FF"/>
<stop offset="1" stop-color="#4042E2"/>
</linearGradient>
<linearGradient id="paint32_linear_987_7325" x1="34.3453" y1="52.6802" x2="26.8543" y2="62.4255" gradientUnits="userSpaceOnUse">
<stop stop-color="#FEBBBA"/>
<stop offset="1" stop-color="#FF928E"/>
</linearGradient>
<linearGradient id="paint33_linear_987_7325" x1="33.7686" y1="55.0828" x2="12.3531" y2="67.3856" gradientUnits="userSpaceOnUse">
<stop stop-color="#E1473D"/>
<stop offset="1" stop-color="#E9605A"/>
</linearGradient>
<linearGradient id="paint34_linear_987_7325" x1="22.4352" y1="58.8454" x2="23.6114" y2="58.8454" gradientUnits="userSpaceOnUse">
<stop stop-color="#FF928E"/>
<stop offset="1" stop-color="#FE7062"/>
</linearGradient>
<linearGradient id="paint35_linear_987_7325" x1="17.6484" y1="58.9791" x2="18.468" y2="54.6767" gradientUnits="userSpaceOnUse">
<stop stop-color="#FEBBBA"/>
<stop offset="1" stop-color="#FF928E"/>
</linearGradient>
<linearGradient id="paint36_linear_987_7325" x1="51.9312" y1="31.5445" x2="41.4512" y2="44.3026" gradientUnits="userSpaceOnUse">
<stop stop-color="#FEBBBA"/>
<stop offset="1" stop-color="#FF928E"/>
</linearGradient>
<linearGradient id="paint37_linear_987_7325" x1="21.14" y1="63.6464" x2="18.4571" y2="67.6712" gradientUnits="userSpaceOnUse">
<stop stop-color="#FEBBBA"/>
<stop offset="1" stop-color="#FF928E"/>
</linearGradient>
<linearGradient id="paint38_linear_987_7325" x1="15.7873" y1="64.2962" x2="18.4163" y2="68.2396" gradientUnits="userSpaceOnUse">
<stop stop-color="#FEBBBA"/>
<stop offset="1" stop-color="#FF928E"/>
</linearGradient>
<linearGradient id="paint39_linear_987_7325" x1="16.5726" y1="67.7977" x2="23.8568" y2="70.1866" gradientUnits="userSpaceOnUse">
<stop stop-color="#09005D"/>
<stop offset="1" stop-color="#1A0F91"/>
</linearGradient>
<linearGradient id="paint40_linear_987_7325" x1="26.5961" y1="63.0797" x2="31.811" y2="68.5919" gradientUnits="userSpaceOnUse">
<stop stop-color="#09005D"/>
<stop offset="1" stop-color="#1A0F91"/>
</linearGradient>
<linearGradient id="paint41_linear_987_7325" x1="29.7587" y1="64.4572" x2="32.1162" y2="68.0072" gradientUnits="userSpaceOnUse">
<stop stop-color="#4F52FF"/>
<stop offset="1" stop-color="#4042E2"/>
</linearGradient>
<linearGradient id="paint42_linear_987_7325" x1="19.4535" y1="49.6685" x2="18.7207" y2="57.8236" gradientUnits="userSpaceOnUse">
<stop stop-color="#FEBBBA"/>
<stop offset="1" stop-color="#FF928E"/>
</linearGradient>
<linearGradient id="paint43_linear_987_7325" x1="17.0877" y1="53.0005" x2="22.0922" y2="49.8794" gradientUnits="userSpaceOnUse">
<stop stop-color="#09005D"/>
<stop offset="1" stop-color="#1A0F91"/>
</linearGradient>
<linearGradient id="paint44_linear_987_7325" x1="16.0549" y1="57.8845" x2="17.2651" y2="52.3412" gradientUnits="userSpaceOnUse">
<stop stop-color="#FEBBBA"/>
<stop offset="1" stop-color="#FF928E"/>
</linearGradient>
</defs>
</svg>
