<svg width="54" height="55" viewBox="0 0 54 55" fill="none" xmlns="http://www.w3.org/2000/svg">
<g clip-path="url(#clip0_3028_9358)">
<path d="M48.8529 15.2559C48.7552 13.7476 47.8447 12.4114 46.4793 11.7629L28.7905 3.36237C27.6578 2.82452 26.3429 2.82452 25.2102 3.36237L7.52192 11.7634C6.15648 12.4119 5.24601 13.7481 5.14827 15.2564C3.4891 40.9027 19.9335 50.2474 25.3238 52.6082C26.393 53.0766 27.6077 53.0766 28.6764 52.6082C34.0672 50.2474 50.5116 40.9032 48.8524 15.2564L48.8529 15.2559Z" fill="url(#paint0_linear_3028_9358)"/>
<path d="M21.6503 6.90048C21.557 6.90048 21.4672 6.84789 21.4245 6.75809C21.3655 6.63355 21.4186 6.4847 21.5431 6.42565L25.7228 4.4405C25.8473 4.38146 25.9962 4.43455 26.0552 4.55908C26.1143 4.68362 26.0612 4.83247 25.9366 4.89151L21.7569 6.87667C21.7222 6.89304 21.686 6.90098 21.6503 6.90098V6.90048Z" fill="#91B3FA"/>
<path d="M6.50182 20.743C6.36786 20.743 6.25721 20.6368 6.25225 20.5019C6.19619 18.8338 6.22546 17.0947 6.33958 15.3328C6.40904 14.2591 7.05852 13.3045 8.03448 12.8406L19.9335 7.18928C20.058 7.13024 20.2069 7.18333 20.2659 7.30786C20.325 7.4324 20.2719 7.58125 20.1473 7.64029L8.24832 13.2916C7.4361 13.6776 6.89528 14.472 6.83723 15.3651C6.7246 17.1101 6.69533 18.8328 6.7504 20.485C6.75487 20.6229 6.6472 20.738 6.50927 20.743C6.50629 20.743 6.50381 20.743 6.50083 20.743H6.50182Z" fill="#91B3FA"/>
<path d="M44.5757 16.2572C44.5564 15.8746 44.3286 15.5333 43.9828 15.3691L27.4466 7.51576C27.1643 7.38179 26.8368 7.38179 26.5545 7.51576L10.0188 15.3691C9.67301 15.5333 9.44527 15.8746 9.42592 16.2572C8.9367 25.8242 11.1466 33.8065 15.9986 39.9937C19.6975 44.7107 24.0251 47.2382 26.5605 48.4176C26.8398 48.5476 27.1613 48.5476 27.4407 48.4176C29.9766 47.2382 34.3036 44.7102 38.0025 39.9937C42.8545 33.807 45.0644 25.8242 44.5752 16.2572H44.5757Z" fill="url(#paint1_linear_3028_9358)"/>
<path d="M22.1111 26.5358H20.4629V19.968C20.4629 17.3885 22.394 15.2088 24.9547 14.8972L28.3241 14.4879C29.7744 14.3118 31.2336 14.7663 32.3272 15.7348C33.4207 16.7038 34.0479 18.097 34.0479 19.5582V25.2919H32.3996V19.5582C32.3996 18.5684 31.9749 17.6247 31.2341 16.9682C30.4934 16.3118 29.505 16.0042 28.5226 16.1238L25.1531 16.5331C23.4185 16.744 22.1107 18.2206 22.1107 19.9675V26.5353L22.1111 26.5358Z" fill="url(#paint2_linear_3028_9358)"/>
<path d="M19.9754 25.0617L34.4217 24.2614C35.0087 24.2286 35.5019 24.696 35.5019 25.2835V36.728C35.5019 37.2936 35.0434 37.7516 34.4783 37.7516H20.3788C19.8266 37.7516 19.3736 37.3135 19.3557 36.7613L19.0084 26.117C18.99 25.5608 19.4197 25.0925 19.9749 25.0617H19.9754Z" fill="url(#paint3_linear_3028_9358)"/>
<path d="M29.6103 34.4734L28.736 31.9593C28.6308 31.6572 28.7023 31.3193 28.9271 31.0915C29.3751 30.6375 29.642 30.0044 29.6103 29.3093C29.5547 28.0833 28.553 27.089 27.3259 27.0418C25.9684 26.9897 24.8516 28.0749 24.8516 29.4205C24.8516 30.1672 25.1954 30.833 25.7332 31.2697C26.0121 31.4959 26.1267 31.868 26.0091 32.2074L25.2207 34.4739C25.0292 35.0251 25.438 35.6007 26.022 35.6007H28.8085C29.392 35.6007 29.8013 35.0251 29.6098 34.4739L29.6103 34.4734Z" fill="url(#paint4_linear_3028_9358)"/>
</g>
<defs>
<linearGradient id="paint0_linear_3028_9358" x1="29.3517" y1="-17.1" x2="27.565" y2="10.142" gradientUnits="userSpaceOnUse">
<stop stop-color="#09005D"/>
<stop offset="1" stop-color="#1A0F91"/>
</linearGradient>
<linearGradient id="paint1_linear_3028_9358" x1="39.5615" y1="3.9652" x2="9.34207" y2="49.9646" gradientUnits="userSpaceOnUse">
<stop stop-color="#4042E2"/>
<stop offset="1" stop-color="#4F52FF"/>
</linearGradient>
<linearGradient id="paint2_linear_3028_9358" x1="29.9034" y1="14.6224" x2="19.1853" y2="45.2883" gradientUnits="userSpaceOnUse">
<stop stop-color="#FE7062"/>
<stop offset="1" stop-color="#FF928E"/>
</linearGradient>
<linearGradient id="paint3_linear_3028_9358" x1="32.771" y1="15.6247" x2="22.0528" y2="46.2906" gradientUnits="userSpaceOnUse">
<stop stop-color="#FE7062"/>
<stop offset="1" stop-color="#FF928E"/>
</linearGradient>
<linearGradient id="paint4_linear_3028_9358" x1="32.6026" y1="13.056" x2="28.7321" y2="26.7516" gradientUnits="userSpaceOnUse">
<stop stop-color="#A22B25"/>
<stop offset="1" stop-color="#C0423C"/>
</linearGradient>
<clipPath id="clip0_3028_9358">
<rect width="43.9384" height="50" fill="white" transform="translate(5.03125 2.95898)"/>
</clipPath>
</defs>
</svg>
