<svg width="18" height="17" viewBox="0 0 18 17" fill="none" xmlns="http://www.w3.org/2000/svg">
<path d="M4.83301 15.25C4.83301 15.3983 4.78902 15.5433 4.70661 15.6667C4.6242 15.79 4.50707 15.8861 4.37002 15.9429C4.23298 15.9997 4.08218 16.0145 3.93669 15.9856C3.7912 15.9566 3.65757 15.8852 3.55268 15.7803C3.44779 15.6754 3.37636 15.5418 3.34742 15.3963C3.31848 15.2508 3.33333 15.1 3.3901 14.963C3.44686 14.8259 3.54299 14.7088 3.66633 14.6264C3.78967 14.544 3.93467 14.5 4.08301 14.5C4.28192 14.5 4.47269 14.579 4.61334 14.7197C4.75399 14.8603 4.83301 15.0511 4.83301 15.25ZM6.08301 12.5C5.93467 12.5 5.78967 12.544 5.66633 12.6264C5.54299 12.7088 5.44686 12.8259 5.3901 12.963C5.33333 13.1 5.31848 13.2508 5.34742 13.3963C5.37636 13.5418 5.44779 13.6754 5.55268 13.7803C5.65757 13.8852 5.7912 13.9566 5.93669 13.9856C6.08218 14.0145 6.23298 13.9997 6.37002 13.9429C6.50707 13.8861 6.6242 13.79 6.70661 13.6667C6.78902 13.5433 6.83301 13.3983 6.83301 13.25C6.83301 13.0511 6.75399 12.8603 6.61334 12.7197C6.47269 12.579 6.28192 12.5 6.08301 12.5ZM2.08301 12.5C1.93467 12.5 1.78967 12.544 1.66633 12.6264C1.54299 12.7088 1.44686 12.8259 1.3901 12.963C1.33333 13.1 1.31848 13.2508 1.34742 13.3963C1.37636 13.5418 1.44779 13.6754 1.55268 13.7803C1.65757 13.8852 1.7912 13.9566 1.93669 13.9856C2.08218 14.0145 2.23298 13.9997 2.37002 13.9429C2.50707 13.8861 2.6242 13.79 2.70661 13.6667C2.78902 13.5433 2.83301 13.3983 2.83301 13.25C2.83301 13.0511 2.75399 12.8603 2.61334 12.7197C2.47269 12.579 2.28192 12.5 2.08301 12.5ZM4.08301 10.5C3.93467 10.5 3.78967 10.544 3.66633 10.6264C3.54299 10.7088 3.44686 10.8259 3.3901 10.963C3.33333 11.1 3.31848 11.2508 3.34742 11.3963C3.37636 11.5418 3.44779 11.6754 3.55268 11.7803C3.65757 11.8852 3.7912 11.9566 3.93669 11.9856C4.08218 12.0145 4.23298 11.9997 4.37002 11.9429C4.50707 11.8861 4.6242 11.79 4.70661 11.6667C4.78902 11.5433 4.83301 11.3983 4.83301 11.25C4.83301 11.0511 4.75399 10.8603 4.61334 10.7197C4.47269 10.579 4.28192 10.5 4.08301 10.5ZM16.833 3C16.833 3.13261 16.7803 3.25979 16.6866 3.35355C16.5928 3.44732 16.4656 3.5 16.333 3.5H14.5399L12.7993 5.24125L11.4455 13.1656C11.415 13.3467 11.3353 13.5158 11.2151 13.6546C11.0948 13.7933 10.9387 13.8963 10.7639 13.9522C10.589 14.0081 10.4021 14.0148 10.2237 13.9715C10.0453 13.9282 9.88222 13.8367 9.75238 13.7069L3.62738 7.58187C3.49739 7.45193 3.40572 7.28868 3.36244 7.11004C3.31917 6.9314 3.32597 6.74429 3.3821 6.56926C3.43822 6.39424 3.5415 6.23807 3.68059 6.1179C3.81967 5.99774 3.98919 5.91824 4.17051 5.88813L12.0918 4.53375L13.9793 2.64625C14.0257 2.59983 14.0809 2.56303 14.1416 2.53793C14.2023 2.51284 14.2673 2.49995 14.333 2.5H16.333C16.4656 2.5 16.5928 2.55268 16.6866 2.64645C16.7803 2.74022 16.833 2.86739 16.833 3ZM11.7211 5.61188L4.33301 6.875L10.458 13L11.7211 5.61188Z" fill="black" stroke="black" stroke-width="0.5"/>
</svg>
