<svg width="101" height="101" viewBox="0 0 101 101" fill="none" xmlns="http://www.w3.org/2000/svg">
<path d="M76.3522 35.9702L84.4859 34.0766C84.4859 34.0766 89.9242 33.5878 90.6595 38.4213C91.3949 43.2548 91.1818 71.8919 90.9517 77.7978C90.8758 79.7444 90.8852 81.543 91.0509 83.1114C91.3959 86.3782 88.847 89.2318 85.5624 89.2889L70.4202 89.551L76.3525 35.9702H76.3522Z" fill="url(#paint0_linear_3787_267162)"/>
<path d="M72.0248 91.8781C72.0248 91.8781 73.6496 69.0947 85.2065 55.2064C85.3573 55.0254 85.6181 55.0707 85.6978 55.2935C86.9571 58.8117 94.0352 81.4363 72.0244 91.8781H72.0248Z" fill="#BDD0FB"/>
<path d="M84.7076 61.818C84.6102 63.1473 84.418 64.4588 84.1948 65.7683C83.9643 67.0756 83.6934 68.376 83.3745 69.6656C82.7384 72.2448 81.9429 74.7881 80.9642 77.2632C80.4709 78.4988 79.9476 79.7237 79.362 80.9193C79.0782 81.5212 78.7614 82.1075 78.4578 82.6998C78.135 83.2822 77.8203 83.8689 77.4711 84.4364C76.1185 86.729 74.534 88.8897 72.7253 90.8342C72.6713 90.892 72.5808 90.8955 72.5227 90.8415C72.468 90.7907 72.4621 90.7075 72.5063 90.6494L72.5077 90.6476C74.1172 88.5614 75.5673 86.3683 76.8249 84.0663C77.149 83.4964 77.4373 82.9069 77.7461 82.329C78.033 81.7392 78.3328 81.1564 78.5998 80.5575C78.7339 80.2584 78.8794 79.9646 79.0093 79.6634L79.4051 78.7631C79.535 78.4619 79.6569 78.1576 79.7829 77.8551C79.9107 77.5532 80.0297 77.2475 80.1474 76.9415C80.3918 76.3329 80.6188 75.7174 80.8483 75.1025C81.0669 74.4838 81.2856 73.8651 81.4899 73.2412C81.9116 71.9976 82.2862 70.7383 82.6476 69.4748C83.0017 68.2092 83.331 66.9353 83.6266 65.6534C83.9281 64.3732 84.1955 63.0805 84.4229 61.7874L84.4236 61.7832C84.4371 61.7052 84.5116 61.653 84.5896 61.6669C84.6627 61.6798 84.7129 61.7463 84.7076 61.8187V61.818Z" fill="url(#paint1_linear_3787_267162)"/>
<path d="M73.4572 89.3842C73.4572 89.3842 85.3709 69.3443 98.3327 69.0306C98.5628 69.0251 98.7372 69.2364 98.6899 69.4613C98.138 72.0809 94.279 85.7933 73.4572 89.3842Z" fill="#91B3FA"/>
<path d="M95.5884 72.21C94.8029 73.0345 93.9941 73.8279 93.1742 74.6134C92.7603 75.0012 92.3459 75.3887 91.9275 75.7721C91.5055 76.1509 91.088 76.5356 90.6619 76.9099C88.9611 78.4118 87.2071 79.8543 85.4071 81.2365C84.514 81.9366 83.5886 82.5943 82.6757 83.268L81.2789 84.2411C81.0456 84.4027 80.8141 84.5667 80.5784 84.7244L79.8654 85.1895C77.9818 86.4572 76.0137 87.5936 74.0316 88.6973C73.9623 88.7359 73.8752 88.7108 73.8366 88.6419C73.7986 88.5737 73.8223 88.488 73.8892 88.4487L73.893 88.4466L75.3556 87.5887L76.0868 87.1598C76.3284 87.0132 76.5655 86.8593 76.805 86.7096L78.2419 85.8099C78.7154 85.5018 79.1833 85.1843 79.654 84.872L80.3594 84.402L81.0536 83.9159L82.4414 82.9421C83.3487 82.2681 84.2679 81.6101 85.1554 80.9096C86.0547 80.2247 86.9341 79.5145 87.8143 78.8053L89.1178 77.7207L90.4053 76.6171C90.8342 76.2487 91.2538 75.8703 91.6785 75.497C92.0994 75.1196 92.5162 74.738 92.9329 74.3561C93.7626 73.5894 94.5874 72.8127 95.3795 72.0116L95.3816 72.0095C95.4373 71.9531 95.5278 71.9527 95.5842 72.0084C95.6399 72.0634 95.641 72.1526 95.5873 72.209L95.5884 72.21Z" fill="#BDD0FB"/>
<path d="M59.8166 36.3632C59.8166 36.3632 74.6267 37.1769 84.4856 34.0765C84.4856 34.0765 77.9314 33.6274 77.9314 48.7592C77.9314 60.3283 79.6472 82.4105 78.149 86.6024C76.6509 90.7942 71.0493 96.4289 63.0193 91.5863C54.9893 86.7437 59.8162 36.3632 59.8162 36.3632H59.8166Z" fill="#7D97F4"/>
<path d="M55.8791 13.677C55.8791 13.677 72.2198 15.4582 74.3248 12.6885C74.3248 12.6885 72.6501 7.70391 67.6773 8.03536C62.7045 8.36681 55.8788 13.677 55.8788 13.677H55.8791Z" fill="url(#paint2_linear_3787_267162)"/>
<path d="M2.73348 19.2852C4.15851 35.2989 7.15131 69.1706 8.45344 85.6704C8.74381 89.3487 11.692 92.2541 15.3742 92.4905C28.4909 93.3324 58.0098 94.9659 69.338 93.4462C66.7431 92.1671 65.1089 89.5155 65.1325 86.6226L65.7342 12.5838C65.7554 9.96766 68.3611 8.08758 70.8111 9.00569C72.3545 9.58398 73.5233 10.8161 74.3247 12.6889C73.2552 9.57215 71.5732 7.29203 67.6773 8.03571C67.6773 8.03571 29.5754 8.4166 11.0859 9.56309C6.06226 9.87435 2.28713 14.2713 2.73348 19.2852Z" fill="#91B3FA"/>
<path opacity="0.53" d="M12.159 11.682L63.3567 9.71106C61.2451 25.3439 62.1364 57.1795 62.942 88.5538C62.9897 90.4137 64.0805 92.0877 65.7628 92.8829C65.7628 92.8829 31.6144 93.2763 16.9414 92.2357C13.4866 91.9906 10.6682 89.3765 10.155 85.9513C8.1409 72.5091 3.32163 37.7834 4.32469 19.3987C4.55448 15.1887 7.94593 11.8443 12.159 11.682Z" fill="url(#paint3_linear_3787_267162)"/>
<path d="M11.4815 35.9305L12.079 41.6651C12.1887 42.7162 13.0542 43.527 14.1102 43.5674L17.449 43.6955C18.6533 43.7418 19.6546 42.7781 19.6546 41.5728V35.3863C19.6546 34.1444 18.5941 33.1675 17.3564 33.2691L13.4201 33.5926C12.2329 33.69 11.3579 34.745 11.4812 35.9298L11.4815 35.9305Z" fill="url(#paint4_linear_3787_267162)"/>
<path d="M23.2227 34.1628C28.7797 33.9901 50.1123 33.2966 55.4991 33.1211C56.1787 33.0992 56.7403 33.6437 56.7403 34.3237C56.7403 34.9709 56.2285 35.5019 55.5816 35.5259L23.3261 36.7236C22.7046 36.7465 22.1681 36.2925 22.0884 35.6759L22.0682 35.52C21.9766 34.8149 22.5121 34.1848 23.2227 34.1628Z" fill="url(#paint5_linear_3787_267162)"/>
<path d="M22.8734 41.7229C22.9678 41.881 23.1398 41.9764 23.324 41.9725L45.4723 41.4914C45.7505 41.4855 45.973 41.2581 45.973 40.9796V39.5194C45.973 39.2294 45.732 38.9971 45.442 39.0079L23.9113 39.8129C22.9525 39.8487 22.3818 40.8985 22.8734 41.7226V41.7229Z" fill="url(#paint6_linear_3787_267162)"/>
<path d="M11.4815 51.8464L12.079 57.5809C12.1887 58.632 13.0542 59.4429 14.1102 59.4833L17.449 59.6114C18.6533 59.6577 19.6546 58.694 19.6546 57.4887V51.3022C19.6546 50.0603 18.5941 49.0833 17.3564 49.185L13.4201 49.5085C12.2329 49.6059 11.3579 50.6609 11.4812 51.8457L11.4815 51.8464Z" fill="url(#paint7_linear_3787_267162)"/>
<path d="M23.2227 50.0787C28.7797 49.9061 50.1123 49.2125 55.4991 49.037C56.1787 49.0148 56.7403 49.5596 56.7403 50.2396C56.7403 50.8868 56.2285 51.4178 55.5816 51.4418L23.3261 52.6391C22.7046 52.6621 22.1681 52.2081 22.0884 51.5915L22.0682 51.4355C21.9766 50.7305 22.5121 50.1003 23.2227 50.0784V50.0787Z" fill="url(#paint8_linear_3787_267162)"/>
<path opacity="0.78" d="M22.8734 57.6391C22.9678 57.7971 23.1398 57.8925 23.324 57.8887L45.4723 57.4075C45.7505 57.4016 45.973 57.1743 45.973 56.8961V55.4359C45.973 55.1459 45.732 54.9136 45.442 54.9244L23.9113 55.7294C22.9525 55.7653 22.3818 56.815 22.8734 57.6391Z" fill="white"/>
<path d="M11.4815 67.7626L12.079 73.4972C12.1887 74.5483 13.0542 75.3592 14.1102 75.3996L17.449 75.5277C18.6533 75.574 19.6546 74.6103 19.6546 73.4049V67.2184C19.6546 65.9766 18.5941 64.9996 17.3564 65.1013L13.4201 65.4247C12.2329 65.5222 11.3579 66.5771 11.4812 67.7619L11.4815 67.7626Z" fill="url(#paint9_linear_3787_267162)"/>
<path d="M23.2227 65.9951C28.7797 65.8224 50.1123 65.1289 55.4991 64.9534C56.1787 64.9315 56.7403 65.476 56.7403 66.156C56.7403 66.8032 56.2285 67.3341 55.5816 67.3582L23.3261 68.5555C22.7046 68.5785 22.1681 68.1245 22.0884 67.5079L22.0682 67.3519C21.9766 66.6469 22.5121 66.0167 23.2227 65.9948V65.9951Z" fill="url(#paint10_linear_3787_267162)"/>
<path d="M22.8734 73.5551C22.9678 73.7131 23.1398 73.8085 23.324 73.8047L45.4723 73.3235C45.7505 73.3176 45.973 73.0903 45.973 72.8121V71.3519C45.973 71.0619 45.732 70.8297 45.442 70.8404L23.9113 71.6454C22.9525 71.6813 22.3818 72.731 22.8734 73.5551Z" fill="url(#paint11_linear_3787_267162)"/>
<g style="mix-blend-mode:soft-light">
<path d="M76.0079 69.4415C75.8724 69.4415 75.7614 69.3328 75.7589 69.197C75.7589 69.1894 75.7436 68.4043 75.6681 65.713C75.6642 65.5755 75.7725 65.4606 75.91 65.4567C76.0444 65.4498 76.1625 65.5612 76.1663 65.6987C76.2418 68.3931 76.2572 69.1796 76.2575 69.1873C76.2599 69.3248 76.1506 69.4387 76.0131 69.4411H76.0082L76.0079 69.4415Z" fill="white"/>
</g>
<g style="mix-blend-mode:soft-light">
<path d="M75.8268 62.8727C75.6924 62.8727 75.5821 62.7662 75.5779 62.6311C75.5243 60.8795 75.4407 58.943 75.3523 56.8927C75.2329 54.1227 75.1092 51.258 75.0441 48.4988C74.8722 41.2163 76.0733 38.4209 77.1115 37.358C77.6756 36.7804 78.1484 36.7637 78.2006 36.7637C78.3381 36.7637 78.4499 36.8754 78.4499 37.013C78.4499 37.1505 78.3409 37.2595 78.2058 37.2622C78.1491 37.2664 75.2854 37.5808 75.5431 48.4873C75.6082 51.242 75.7314 54.1039 75.8508 56.8714C75.9393 58.9232 76.0228 60.8614 76.0765 62.6161C76.0806 62.7536 75.9727 62.8685 75.8348 62.8727C75.8324 62.8727 75.8296 62.8727 75.8272 62.8727H75.8268Z" fill="white"/>
</g>
<path d="M39.707 89.7314C39.4542 89.7314 39.2015 89.612 38.9341 89.3665C37.9526 88.4648 37.6991 87.0787 37.6302 85.7606C37.1772 86.2675 36.7138 86.7612 36.2557 87.2493L36.0022 87.0115C36.5401 86.4381 37.0857 85.857 37.6118 85.2568C37.5682 83.4512 37.6514 81.6265 37.8593 79.8317C37.9867 78.7312 38.1706 77.5669 38.6475 76.5047C38.7997 76.1659 39.0518 75.6806 39.4859 75.377C39.9389 75.0602 40.5325 75.0257 40.9301 75.2927C41.3768 75.5928 41.4972 76.1617 41.5488 76.5635C41.8524 78.9248 40.9311 81.0893 40.1049 82.4889C39.4915 83.5282 38.7489 84.479 37.9624 85.3832C38.0031 86.7327 38.1901 88.211 39.1691 89.1103C39.3752 89.2997 39.5548 89.3895 39.723 89.3832C39.9991 89.3731 40.2223 89.1054 40.4044 88.845C41.2319 87.6595 41.8757 86.3741 42.3259 85.011C42.3784 84.6009 42.493 84.1984 42.6674 83.8231L42.994 83.9373C42.8993 84.3265 42.79 84.7102 42.6664 85.0879C42.6204 85.474 42.6343 85.8671 42.7109 86.2491C42.7517 86.452 42.923 87.1219 43.4174 87.2159C43.7864 87.2855 44.1708 87.0067 44.5955 86.3612L46.3364 83.7148L46.1163 84.6621C46.0387 84.9967 45.9085 85.7954 46.3753 85.9872C46.641 86.0966 46.922 85.9385 47.2472 85.755C47.5706 85.5729 47.9045 85.3842 48.2843 85.4351L48.4636 85.4591L48.433 85.637C48.4152 85.739 48.2746 86.6348 48.7394 86.7375C48.9521 86.7849 49.13 86.6373 49.3981 86.3894C49.6087 86.1944 49.8267 85.9932 50.1136 85.9235L50.1954 86.2616C49.9966 86.3096 49.8208 86.4722 49.6345 86.6446C49.3699 86.8893 49.0708 87.1665 48.6645 87.077C48.1353 86.96 48.0054 86.3639 48.0625 85.7822C47.854 85.8125 47.6409 85.9326 47.4181 86.0583C47.0651 86.2571 46.6647 86.4823 46.2434 86.3089C45.8956 86.1658 45.7072 85.8205 45.693 85.3261L44.8863 86.5523C44.5607 87.0474 44.0482 87.6908 43.3523 87.5578C42.8746 87.4669 42.5073 87.0032 42.3697 86.3176C42.3506 86.2223 42.3349 86.1258 42.3231 86.0294C41.8962 87.0895 41.35 88.0981 40.6892 89.0445C40.4716 89.3561 40.1666 89.7157 39.7355 89.7314C39.7258 89.7314 39.716 89.7321 39.7063 89.7321L39.707 89.7314ZM40.3124 75.4588C40.0841 75.4588 39.8532 75.5445 39.6858 75.6618C39.3223 75.9159 39.1005 76.3459 38.9651 76.6471C38.5076 77.6662 38.3293 78.7994 38.205 79.8718C38.0135 81.5224 37.9289 83.1992 37.9523 84.8623C38.6333 84.0591 39.2714 83.218 39.8062 82.312C40.6049 80.9591 41.4959 78.8711 41.2048 76.6077C41.1362 76.0761 40.9875 75.7499 40.7369 75.5814C40.608 75.4947 40.4608 75.4588 40.3128 75.4588H40.3124Z" fill="url(#paint12_linear_3787_267162)"/>
<path opacity="0.78" d="M54.9663 26.9973L14.1804 28.2075C12.7154 28.251 11.485 27.1139 11.4132 25.6499L11.2635 22.5989C11.1897 21.091 12.3707 19.8171 13.88 19.7774L54.8684 18.6936C56.4011 18.6532 57.6576 19.8993 57.6297 21.4319L57.5768 24.3564C57.5507 25.7923 56.4017 26.9548 54.9663 26.9973Z" fill="white"/>
<defs>
<linearGradient id="paint0_linear_3787_267162" x1="70.4198" y1="61.807" x2="91.1682" y2="61.807" gradientUnits="userSpaceOnUse">
<stop stop-color="#4F52FF"/>
<stop offset="1" stop-color="#4042E2"/>
</linearGradient>
<linearGradient id="paint1_linear_3787_267162" x1="72.4767" y1="76.272" x2="84.708" y2="76.272" gradientUnits="userSpaceOnUse">
<stop stop-color="#DAE3FE"/>
<stop offset="1" stop-color="#E9EFFD"/>
</linearGradient>
<linearGradient id="paint2_linear_3787_267162" x1="73.2869" y1="30.16" x2="43.7063" y2="-31.3275" gradientUnits="userSpaceOnUse">
<stop stop-color="#4042E2"/>
<stop offset="1" stop-color="#4F52FF"/>
</linearGradient>
<linearGradient id="paint3_linear_3787_267162" x1="58.1241" y1="25.4118" x2="-20.7124" y2="126.298" gradientUnits="userSpaceOnUse">
<stop stop-color="white"/>
<stop offset="1" stop-color="white"/>
</linearGradient>
<linearGradient id="paint4_linear_3787_267162" x1="11.4697" y1="38.4797" x2="19.6546" y2="38.4797" gradientUnits="userSpaceOnUse">
<stop stop-color="#DAE3FE"/>
<stop offset="1" stop-color="#E9EFFD"/>
</linearGradient>
<linearGradient id="paint5_linear_3787_267162" x1="22.0578" y1="34.9225" x2="56.7403" y2="34.9225" gradientUnits="userSpaceOnUse">
<stop stop-color="#DAE3FE"/>
<stop offset="1" stop-color="#E9EFFD"/>
</linearGradient>
<linearGradient id="paint6_linear_3787_267162" x1="22.6934" y1="40.4904" x2="45.9733" y2="40.4904" gradientUnits="userSpaceOnUse">
<stop stop-color="#DAE3FE"/>
<stop offset="1" stop-color="#E9EFFD"/>
</linearGradient>
<linearGradient id="paint7_linear_3787_267162" x1="11.4697" y1="54.396" x2="19.6546" y2="54.396" gradientUnits="userSpaceOnUse">
<stop stop-color="#DAE3FE"/>
<stop offset="1" stop-color="#E9EFFD"/>
</linearGradient>
<linearGradient id="paint8_linear_3787_267162" x1="22.0578" y1="50.8384" x2="56.7403" y2="50.8384" gradientUnits="userSpaceOnUse">
<stop stop-color="#DAE3FE"/>
<stop offset="1" stop-color="#E9EFFD"/>
</linearGradient>
<linearGradient id="paint9_linear_3787_267162" x1="11.4697" y1="70.3119" x2="19.6546" y2="70.3119" gradientUnits="userSpaceOnUse">
<stop stop-color="#DAE3FE"/>
<stop offset="1" stop-color="#E9EFFD"/>
</linearGradient>
<linearGradient id="paint10_linear_3787_267162" x1="22.0578" y1="66.7548" x2="56.7403" y2="66.7548" gradientUnits="userSpaceOnUse">
<stop stop-color="#DAE3FE"/>
<stop offset="1" stop-color="#E9EFFD"/>
</linearGradient>
<linearGradient id="paint11_linear_3787_267162" x1="22.6934" y1="72.3222" x2="45.9733" y2="72.3222" gradientUnits="userSpaceOnUse">
<stop stop-color="#DAE3FE"/>
<stop offset="1" stop-color="#E9EFFD"/>
</linearGradient>
<linearGradient id="paint12_linear_3787_267162" x1="50.0819" y1="66.8808" x2="39.1851" y2="94.7801" gradientUnits="userSpaceOnUse">
<stop stop-color="#09005D"/>
<stop offset="1" stop-color="#1A0F91"/>
</linearGradient>
</defs>
</svg>
