<svg width="24" height="25" viewBox="0 0 24 25" fill="none" xmlns="http://www.w3.org/2000/svg">
<path d="M3 20.1041L8.11092 14.9932C10.2588 12.8453 13.7412 12.8453 15.8891 14.9932L21 20.1041M7.00012 9.10413C8.10469 9.10413 9.00012 8.2087 9.00012 7.10413C9.00012 5.99956 8.10469 5.10413 7.00012 5.10413M7.00012 9.10413C5.89555 9.10413 5.00012 8.2087 5.00012 7.10413C5.00012 5.99956 5.89555 5.10413 7.00012 5.10413M7.00012 9.10413V11.1041M7.00012 5.10413V3.10413M8.73218 8.10413L10.4642 9.10413M3.53614 5.10413L5.26819 6.10413M8.73218 6.10413L10.4642 5.10413M3.53614 9.10413L5.26819 8.10413" stroke="black" stroke-width="2" stroke-linecap="round" stroke-linejoin="round"/>
</svg>
