<svg width="17" height="17" viewBox="0 0 17 17" fill="none" xmlns="http://www.w3.org/2000/svg">
<g clip-path="url(#clip0_3097_9856)">
<path d="M16.167 12.5V13.1667C16.1659 14.0504 15.8144 14.8976 15.1895 15.5225C14.5646 16.1474 13.7174 16.4989 12.8337 16.5H12.167C11.9902 16.5 11.8206 16.4298 11.6956 16.3047C11.5706 16.1797 11.5003 16.0101 11.5003 15.8333C11.5003 15.6565 11.5706 15.487 11.6956 15.3619C11.8206 15.2369 11.9902 15.1667 12.167 15.1667H12.8337C13.3641 15.1667 13.8728 14.956 14.2479 14.5809C14.6229 14.2058 14.8337 13.6971 14.8337 13.1667V12.5C14.8337 12.3232 14.9039 12.1536 15.0289 12.0286C15.1539 11.9036 15.3235 11.8333 15.5003 11.8333C15.6771 11.8333 15.8467 11.9036 15.9717 12.0286C16.0968 12.1536 16.167 12.3232 16.167 12.5ZM12.8337 0.5H12.167C11.9902 0.5 11.8206 0.570238 11.6956 0.695262C11.5706 0.820286 11.5003 0.989856 11.5003 1.16667C11.5003 1.34348 11.5706 1.51305 11.6956 1.63807C11.8206 1.7631 11.9902 1.83333 12.167 1.83333H12.8337C13.3641 1.83333 13.8728 2.04405 14.2479 2.41912C14.6229 2.79419 14.8337 3.3029 14.8337 3.83333V4.5C14.8337 4.67681 14.9039 4.84638 15.0289 4.9714C15.1539 5.09643 15.3235 5.16667 15.5003 5.16667C15.6771 5.16667 15.8467 5.09643 15.9717 4.9714C16.0968 4.84638 16.167 4.67681 16.167 4.5V3.83333C16.1659 2.9496 15.8144 2.10237 15.1895 1.47748C14.5646 0.852588 13.7174 0.501059 12.8337 0.5V0.5ZM15.5003 6.5C15.3235 6.5 15.1539 6.57024 15.0289 6.69526C14.9039 6.82029 14.8337 6.98986 14.8337 7.16667V9.83333C14.8337 10.0101 14.9039 10.1797 15.0289 10.3047C15.1539 10.4298 15.3235 10.5 15.5003 10.5C15.6771 10.5 15.8467 10.4298 15.9717 10.3047C16.0968 10.1797 16.167 10.0101 16.167 9.83333V7.16667C16.167 6.98986 16.0968 6.82029 15.9717 6.69526C15.8467 6.57024 15.6771 6.5 15.5003 6.5ZM4.16699 15.1667H3.50033C2.96989 15.1667 2.46118 14.956 2.08611 14.5809C1.71104 14.2058 1.50033 13.6971 1.50033 13.1667V12.5C1.50033 12.3232 1.43009 12.1536 1.30506 12.0286C1.18004 11.9036 1.01047 11.8333 0.833659 11.8333C0.656848 11.8333 0.487279 11.9036 0.362254 12.0286C0.23723 12.1536 0.166992 12.3232 0.166992 12.5L0.166992 13.1667C0.168051 14.0504 0.51958 14.8976 1.14447 15.5225C1.76936 16.1474 2.6166 16.4989 3.50033 16.5H4.16699C4.3438 16.5 4.51337 16.4298 4.6384 16.3047C4.76342 16.1797 4.83366 16.0101 4.83366 15.8333C4.83366 15.6565 4.76342 15.487 4.6384 15.3619C4.51337 15.2369 4.3438 15.1667 4.16699 15.1667ZM4.16699 0.5H3.50033C2.6166 0.501059 1.76936 0.852588 1.14447 1.47748C0.51958 2.10237 0.168051 2.9496 0.166992 3.83333L0.166992 4.5C0.166992 4.67681 0.23723 4.84638 0.362254 4.9714C0.487279 5.09643 0.656848 5.16667 0.833659 5.16667C1.01047 5.16667 1.18004 5.09643 1.30506 4.9714C1.43009 4.84638 1.50033 4.67681 1.50033 4.5V3.83333C1.50033 3.3029 1.71104 2.79419 2.08611 2.41912C2.46118 2.04405 2.96989 1.83333 3.50033 1.83333H4.16699C4.3438 1.83333 4.51337 1.7631 4.6384 1.63807C4.76342 1.51305 4.83366 1.34348 4.83366 1.16667C4.83366 0.989856 4.76342 0.820286 4.6384 0.695262C4.51337 0.570238 4.3438 0.5 4.16699 0.5V0.5ZM0.833659 10.5C1.01047 10.5 1.18004 10.4298 1.30506 10.3047C1.43009 10.1797 1.50033 10.0101 1.50033 9.83333V7.16667C1.50033 6.98986 1.43009 6.82029 1.30506 6.69526C1.18004 6.57024 1.01047 6.5 0.833659 6.5C0.656848 6.5 0.487279 6.57024 0.362254 6.69526C0.23723 6.82029 0.166992 6.98986 0.166992 7.16667L0.166992 9.83333C0.166992 10.0101 0.23723 10.1797 0.362254 10.3047C0.487279 10.4298 0.656848 10.5 0.833659 10.5ZM6.83366 1.83333H9.45499C9.6318 1.83333 9.80137 1.7631 9.9264 1.63807C10.0514 1.51305 10.1217 1.34348 10.1217 1.16667C10.1217 0.989856 10.0514 0.820286 9.9264 0.695262C9.80137 0.570238 9.6318 0.5 9.45499 0.5H6.83366C6.65685 0.5 6.48728 0.570238 6.36225 0.695262C6.23723 0.820286 6.16699 0.989856 6.16699 1.16667C6.16699 1.34348 6.23723 1.51305 6.36225 1.63807C6.48728 1.7631 6.65685 1.83333 6.83366 1.83333ZM9.50033 15.1667H6.83366C6.65685 15.1667 6.48728 15.2369 6.36225 15.3619C6.23723 15.487 6.16699 15.6565 6.16699 15.8333C6.16699 16.0101 6.23723 16.1797 6.36225 16.3047C6.48728 16.4298 6.65685 16.5 6.83366 16.5H9.50033C9.67714 16.5 9.84671 16.4298 9.97173 16.3047C10.0968 16.1797 10.167 16.0101 10.167 15.8333C10.167 15.6565 10.0968 15.487 9.97173 15.3619C9.84671 15.2369 9.67714 15.1667 9.50033 15.1667Z" fill="black"/>
</g>
<defs>
<clipPath id="clip0_3097_9856">
<rect width="16" height="16" fill="white" transform="translate(0.166992 0.5)"/>
</clipPath>
</defs>
</svg>
