<svg width="100" height="100" viewBox="0 0 100 100" fill="none" xmlns="http://www.w3.org/2000/svg">
<g clip-path="url(#clip0_3559_34204)">
<path d="M38.9286 58.0804C39.004 58.5703 39.4373 58.6456 40.2287 58.2971C40.2569 58.1416 40.2852 57.9909 40.3134 57.8355C40.3841 57.2796 40.3935 56.705 40.4312 56.1445C40.4595 55.7535 40.4218 55.3202 40.0544 55.0564C39.866 54.9198 39.2819 54.9857 38.9475 55.0328C38.9475 55.0517 38.9475 55.0705 38.9475 55.0894C38.8109 55.7676 38.7355 56.4365 38.7826 57.1242C38.8015 57.421 38.7826 57.826 38.9239 58.0804H38.9286Z" fill="white"/>
<path d="M9.09853 42.5178C9.6308 42.3906 9.80037 41.9526 9.96993 41.491C10.116 41.0906 10.6482 40.0355 10.3091 39.6963C9.84747 39.2394 9.11738 39.4467 8.82534 39.979C8.70758 40.1909 8.63693 40.5112 8.57098 40.7467C8.3967 41.3355 8.33076 41.9431 8.18945 42.5319C8.49091 42.5555 8.81121 42.5884 9.10325 42.5178H9.09853Z" fill="white"/>
<path d="M43.903 70.5344C46.9552 72.6022 50.813 73.695 54.4917 73.0873C58.0762 72.4986 61.2603 70.0869 62.0422 66.4459C62.0187 62.9932 62.7676 59.4888 61.9433 56.0786C61.0813 52.5035 58.453 50.6712 55.3113 49.1356C52.0753 47.553 48.5426 46.3895 44.9251 46.1776C42.0566 46.008 36.3854 46.2341 36.5644 50.365C36.5644 50.4404 36.5408 50.4922 36.5032 50.5299C36.3948 54.2086 36.3618 57.8166 37.4405 61.4012C38.5427 65.0752 40.6953 68.3724 43.8983 70.5438L43.903 70.5344ZM61.6513 57.9014C61.7973 57.7931 61.9857 58.038 61.8491 58.1558C57.332 61.9758 52.5181 65.5038 47.7419 68.9847C47.5676 69.1119 47.4027 68.8245 47.5723 68.6974C52.2967 65.1364 56.9128 61.4341 61.656 57.9014H61.6513ZM49.1973 57.3927C51.6985 55.5981 54.1572 53.7187 56.7243 52.0277C56.8798 51.9241 57.0729 52.1737 56.9269 52.2868C54.6047 54.0908 52.146 55.7394 49.7531 57.4492C47.252 59.2391 44.7838 61.1044 42.1979 62.7766C42.0848 62.8472 41.9482 62.6729 42.0566 62.5929C44.3599 60.77 46.8092 59.1073 49.1973 57.3927ZM38.9619 52.0984C39.0561 50.7842 39.3387 49.0179 40.1442 47.9957C40.6294 47.3787 41.8634 47.4022 42.3533 48.0428C42.6642 48.4432 42.424 48.8813 42.2685 49.2911C41.9153 50.2049 41.562 51.1422 41.1569 52.0371C40.6906 53.0734 39.8946 53.0451 38.9996 52.4799C38.8489 52.3857 38.8677 52.202 38.9619 52.1031V52.0984ZM38.505 54.9669C38.5144 54.9245 38.5333 54.8963 38.5568 54.868C38.5615 54.8068 38.5992 54.7456 38.6793 54.7126C39.4047 54.4253 40.7801 54.3499 40.9449 55.3626C41.058 56.0315 40.8743 56.8887 40.8178 57.567C40.7754 58.038 40.7424 58.5467 40.4315 58.933C39.8522 59.6442 38.9619 59.3946 38.6039 58.6174C38.1046 57.5482 38.2507 56.0786 38.5097 54.9669H38.505Z" fill="#3F6070"/>
<path d="M41.317 50.3604C41.5619 49.7481 42.3862 48.4858 41.4441 48.0995C40.13 47.5578 39.527 50.9257 39.3057 52.1032C40.6387 52.8804 40.9684 51.2318 41.317 50.3652V50.3604Z" fill="white"/>
<path d="M14.2134 36.0128C17.3834 36.2389 20.4403 37.2657 23.2571 38.6976C25.73 39.9553 28.7116 41.5144 29.9127 44.1663C30.2895 44.9953 30.5015 45.8572 30.6004 46.7381C30.7794 46.2906 31.1091 45.9232 31.6037 45.7583C32.2301 40.1201 25.3955 37.7791 21.1987 36.107C20.4921 35.8244 19.7338 35.537 18.9425 35.2639C18.8859 35.2639 18.8341 35.245 18.7964 35.212C14.5808 33.7895 9.44656 32.9087 6.31423 36.399C6.21532 36.5074 6.07872 36.4979 5.97981 36.432C5.97039 36.432 5.96097 36.4367 5.95154 36.4367C5.44755 36.4697 4.85405 36.2813 4.38302 36.545C3.912 36.8088 3.73772 37.44 3.54931 37.911C3.21488 38.7447 2.96052 39.5973 2.68262 40.4499C2.70146 40.4687 2.72501 40.4923 2.73914 40.5205C2.86161 40.7231 2.97936 40.9256 3.09712 41.1281C3.17249 41.2553 3.25727 41.3872 3.3185 41.5285C3.408 41.6039 3.46452 41.7216 3.43155 41.8724C3.19133 42.9416 3.1348 43.992 3.3609 45.0659C3.53047 45.8667 3.88845 46.5308 4.23701 47.2279C4.21817 44.105 4.49136 40.8078 6.63453 38.3397C8.53748 36.1494 11.472 35.8055 14.2181 35.9987L14.2134 36.0128Z" fill="#7CD1F2"/>
<path d="M31.166 46.9879C30.9917 47.3223 30.9493 47.7086 31.0011 48.0807C32.6356 46.8796 34.6798 47.8781 35.8857 49.3148C35.8998 48.6883 35.9516 48.0665 36.0552 47.4683C35.994 47.4683 35.9375 47.4448 35.8857 47.3977C35.2404 46.7901 34.5998 46.3332 33.7095 46.1824C32.9983 46.0647 32.3765 46.2154 31.7171 46.3897C31.5051 46.5593 31.3026 46.7241 31.166 46.9879Z" fill="#5199CE"/>
<path d="M49.71 29.4185C50.9299 29.6587 51.7542 30.4736 52.3948 31.5522C54.4249 34.986 56.0217 38.7966 57.4819 42.5083C58.3816 43.1866 59.5356 42.4471 59.8747 41.4014C60.1762 40.4735 60.0254 39.4702 59.7428 38.5564C59.2106 36.8325 58.2355 35.1509 57.2888 33.6248C56.3561 32.1316 55.2728 30.7279 53.9775 29.5315C52.9271 28.5612 51.7731 27.8782 50.5672 27.2C50.6661 27.8877 50.1951 28.8297 49.7147 29.4185H49.71Z" fill="#446BAA"/>
<path d="M31.2789 31.7406C35.2591 30.9351 39.2722 30.2663 43.3089 29.8046C45.193 29.5927 47.2656 29.197 49.1779 29.3525C49.4276 29.0746 49.6537 28.7919 49.8044 28.4387C49.9645 28.0618 50.2048 27.3412 49.8892 26.9644C43.9637 28.2597 37.9863 29.3525 32.042 30.5442C26.7288 31.6087 21.4015 32.8805 16.0459 33.7424C17.134 33.9685 18.2126 34.2747 19.2677 34.628C23.1725 33.375 27.2705 32.5554 31.2789 31.7406Z" fill="#5199CE"/>
<path d="M8.2124 48.9238C8.24537 48.7166 8.27363 48.5046 8.29718 48.2973C8.38668 47.6002 8.47146 46.8984 8.56096 46.1966C8.59864 45.8998 8.7635 45.4994 8.47146 45.2781C8.32073 45.165 7.8921 45.1933 7.59064 45.2074C7.4823 45.9563 7.34571 46.6958 7.25621 47.4495C7.21853 47.7557 7.13845 48.1231 7.21382 48.4245C7.17614 48.905 7.50586 49.0698 8.20769 48.9238H8.2124Z" fill="white"/>
<path d="M30.7276 48.5751C30.6994 48.5657 30.6758 48.5468 30.657 48.5186C30.6052 49.682 30.4026 50.8501 30.1436 51.9853C30.3602 51.6415 30.5675 51.2976 30.737 50.9208C31.1044 50.1106 31.274 49.2863 31.453 48.4385C31.3023 48.4903 31.1516 48.5515 31.0008 48.6316C30.9019 48.6834 30.7936 48.6457 30.7323 48.5751H30.7276Z" fill="#5199CE"/>
<path d="M14.708 57.6095C14.5525 57.7272 14.3359 57.5153 14.4913 57.3928C19.4371 53.4032 24.4535 49.3995 29.6678 45.7631C29.3805 44.5573 28.7917 43.4315 27.7413 42.4612C25.226 40.1438 21.6085 38.4858 18.3631 37.5343C15.212 36.6064 10.5818 35.8527 7.83097 38.1513C5.02836 40.4923 4.89647 44.4678 4.6798 47.8262C4.6798 47.8592 4.67038 47.8875 4.65625 47.9157C4.7693 51.2082 4.88234 54.3217 6.62043 57.275C8.32084 60.1671 11.0057 61.8958 14.2746 62.5176C17.5765 63.144 21.3494 63.2571 24.2416 61.2882C27.1195 59.3287 28.5279 56.0833 29.2109 52.7814C29.2203 52.739 29.2344 52.7061 29.2533 52.6825C29.696 50.5441 30.1294 48.2407 29.7431 46.1494C24.7832 50.0401 19.6867 53.7659 14.7033 57.6236L14.708 57.6095ZM8.04764 40.8833C8.17011 40.3887 8.29258 39.7622 8.61759 39.3477C9.10745 38.726 10.1767 38.9144 10.7184 39.3854C10.9774 39.6115 11.001 39.8376 10.9209 40.1673C10.7749 40.7797 10.5488 41.4674 10.2897 42.042C9.87523 42.9652 9.09332 43.1018 8.15598 43.0265C8.08062 43.0218 8.01938 42.9841 7.9817 42.937C7.91105 42.937 7.84039 42.8899 7.83097 42.8051C7.75561 42.1739 7.89692 41.5003 8.04764 40.888V40.8833ZM7.15269 45.0519C7.16211 45.0095 7.17624 44.9812 7.1998 44.953C7.21864 44.9106 7.25161 44.8729 7.31284 44.8588C8.15598 44.6609 9.20166 44.6374 9.09332 45.7066C9.01325 46.5168 8.89078 47.3222 8.79187 48.1277C8.74005 48.5375 8.76831 49.1498 8.49512 49.5031C7.9817 50.1719 7.11972 49.6962 6.85595 49.0603C6.39434 47.9487 6.90776 46.1682 7.15269 45.0472V45.0519ZM6.96899 53.601C6.78529 53.7094 6.63927 53.4409 6.80413 53.3184C9.18282 51.618 11.6322 50.0212 14.0014 48.3067C16.3707 46.5921 18.6693 44.7928 21.0103 43.0453C21.1516 42.937 21.3353 43.1772 21.1987 43.2902C16.7569 47.0302 11.9289 50.5864 6.96428 53.5963L6.96899 53.601Z" fill="#3F6070"/>
<path d="M61.9428 56.074C61.1185 52.6732 58.7021 50.8503 55.7676 49.3572C58.5749 51.5569 59.9221 55.7113 59.8797 59.244C60.4732 58.7966 61.0572 58.3444 61.6554 57.9016C61.8015 57.7933 61.9899 58.0382 61.8533 58.156C61.1985 58.7118 60.5344 59.2582 59.8655 59.7998C59.7337 62.2869 58.9517 64.8775 57.03 66.5779C55.0893 68.2878 52.4186 69.3193 49.8515 69.5454C47.0913 69.7856 44.5289 69.1686 42.414 67.3316C40.4357 65.6123 38.8059 63.4597 37.6849 61.0905C37.4258 60.5441 37.1903 59.9788 36.9736 59.4089C37.1008 60.0683 37.2515 60.7325 37.4494 61.3919C38.5516 65.0659 40.7042 68.3631 43.9071 70.5346C46.9594 72.6024 50.8171 73.6951 54.4958 73.0875C58.0803 72.4987 61.2645 70.0871 62.0464 66.446C62.0228 62.9934 62.7718 59.489 61.9475 56.0787L61.9428 56.074Z" fill="#2D4959"/>
<path d="M27.647 44.2417C27.8024 45.1319 27.9202 46.0599 27.9437 46.9878C28.5184 46.5733 29.093 46.1682 29.6724 45.7631C29.3851 44.5573 28.7963 43.4315 27.7459 42.4612C27.5151 42.2492 27.2654 42.0467 27.0205 41.8489C27.3078 42.6355 27.5104 43.4551 27.647 44.2464V44.2417Z" fill="#3F6070"/>
<path d="M29.7481 46.1353C29.1499 46.6063 28.5423 47.0679 27.9394 47.5342C27.9252 48.3773 27.8263 49.2158 27.5861 50.0212C26.1918 54.6561 22.2352 58.2972 17.3177 58.7352C12.2542 59.1874 7.03988 56.3189 4.97208 51.6086C4.92968 51.5097 4.892 51.406 4.84961 51.3024C5.05215 53.3608 5.49492 55.3485 6.62538 57.2703C8.32579 60.1624 11.0106 61.8911 14.2796 62.5129C17.5815 63.1393 21.3544 63.2524 24.2465 61.2835C27.1245 59.324 28.5328 56.0786 29.2158 52.7767C29.2253 52.7343 29.2394 52.7014 29.2582 52.6778C29.701 50.5394 30.1343 48.236 29.7481 46.1447V46.1353Z" fill="#2D4959"/>
<path d="M68.1182 56.8134C71.0197 54.4536 74.3216 52.4611 77.4445 50.4121C80.6663 48.2972 83.9352 46.253 87.2842 44.3453C88.8481 43.4551 90.4825 42.334 92.1782 41.7217C92.6163 41.5615 93.0072 41.5286 93.3322 41.6275C93.9681 41.0481 94.1518 40.3227 94.0388 39.4561C89.4792 41.6181 84.9809 43.8931 80.6004 46.4037C78.3489 47.6943 76.1209 49.0367 73.9306 50.4263C71.9241 51.698 69.9881 53.1064 67.958 54.3358C68.1605 55.1365 68.1087 56.0786 68.1182 56.8134Z" fill="#5199CE"/>
<path d="M65.7492 57.5717C65.9376 57.468 65.9847 57.1949 65.8858 57.0159C65.8528 56.9499 65.801 56.9028 65.7492 56.8557C65.655 56.9923 65.5702 57.1336 65.5325 57.3032C65.4948 57.4822 65.5231 57.6988 65.7492 57.5717Z" fill="#446BAA"/>
<path d="M94.2225 42.7392C94.6464 44.5527 94.5334 46.6629 94.6135 48.5234C94.703 50.6101 94.7406 52.6967 94.7171 54.7881C94.882 55.0236 95.0986 55.1979 95.3954 55.3015C95.7769 55.4334 96.4222 55.6029 96.7001 55.2308C96.7143 55.212 96.7284 55.1979 96.7472 55.1837C97.4443 53.912 97.1759 51.8771 97.1288 50.4735C97.0817 49.1263 96.978 47.7839 96.8037 46.4462C96.62 45.0237 96.4128 43.5541 95.9559 42.1881C95.645 41.2555 95.1599 40.5678 94.6229 39.8518C94.6606 40.6102 94.3309 41.3685 93.7656 41.8819C93.9729 42.0751 94.1283 42.3577 94.2178 42.7392H94.2225Z" fill="#446BAA"/>
<path d="M42.4893 45.4241C46.5213 45.1697 50.5251 46.1919 54.1991 47.7886C57.501 49.2253 60.9018 50.9681 62.2631 54.5196C63.6856 58.2454 62.9037 62.3481 62.8142 66.2294C64.5428 65.5888 64.6936 63.846 64.6653 62.0608C64.6653 61.9524 64.6983 61.8724 64.7548 61.8111C64.7548 61.731 64.7972 61.6463 64.8867 61.5803C65.6309 61.0716 66.5824 60.8926 67.044 60.0212C67.4585 59.2346 67.3549 58.1418 67.3596 57.2751C67.3596 56.4037 67.4491 55.2827 67.1853 54.449C67.1523 54.4019 67.1335 54.3501 67.1288 54.2982C66.6672 53.1442 65.4425 53.1536 64.4015 52.9464C64.2461 52.9134 64.1848 52.8051 64.1801 52.6873C62.6352 50.2097 60.2847 48.4811 57.76 47.0821C55.1082 45.6125 52.2773 44.3878 49.3287 43.6436C46.5025 42.9324 43.2147 42.4802 40.3791 43.3798C38.0664 44.1146 37.1526 45.7962 36.7334 47.7792C37.9345 46.1683 40.4922 45.5466 42.4893 45.4194V45.4241ZM65.4849 56.3425C65.5037 56.3048 65.532 56.2671 65.5744 56.253C66.0642 56.0269 66.5164 56.5545 66.6012 57.0066C66.6954 57.5059 66.4269 58.057 65.9418 58.2313C65.4425 58.4103 64.9244 58.1277 64.8631 57.586C64.8066 57.1103 65.061 56.578 65.4896 56.3425H65.4849Z" fill="#7CD1F2"/>
<path d="M3.68119 37.8356C3.66706 37.7885 3.65293 37.7414 3.63409 37.6943C3.60583 37.7697 3.57757 37.8451 3.54931 37.9157C3.21488 38.7494 2.96052 39.602 2.68262 40.4546C2.70146 40.4734 2.72501 40.4969 2.73914 40.5252C2.86161 40.7277 2.97936 40.9303 3.09712 41.1328C3.17249 41.26 3.25727 41.3919 3.3185 41.5332C3.408 41.6086 3.46452 41.7263 3.43155 41.8771C3.19133 42.9463 3.1348 43.9967 3.3609 45.0706C3.53047 45.8714 3.88845 46.5355 4.23701 47.2326C4.22288 44.6938 4.40187 42.0372 5.62183 39.8092C4.75514 39.4136 4.01091 38.7589 3.6859 37.8309L3.68119 37.8356Z" fill="#5199CE"/>
<path d="M67.3599 55.7207C67.2468 56.1729 67.0584 56.578 66.7899 56.8888C66.7334 56.9548 66.6675 57.016 66.6062 57.082C66.6627 57.5577 66.399 58.0664 65.9374 58.2313C65.6406 58.3396 65.3392 58.2784 65.1272 58.0994C64.4866 58.3867 63.7895 58.561 63.0735 58.6458C63.2101 61.1611 62.871 63.7423 62.8145 66.234C64.5431 65.5934 64.6938 63.8506 64.6656 62.0654C64.6656 61.9571 64.6986 61.877 64.7551 61.8158C64.7551 61.7357 64.7975 61.6509 64.887 61.585C65.6312 61.0763 66.5827 60.8973 67.0443 60.0259C67.4588 59.2393 67.3551 58.1465 67.3599 57.2798C67.3599 56.8041 67.3834 56.2577 67.3646 55.7207H67.3599Z" fill="#5199CE"/>
<path d="M97.9625 51.3213C97.9389 49.6539 97.8165 47.9912 97.5951 46.3379C97.2795 43.9874 96.8933 39.8236 94.378 38.6507C94.2791 38.6036 94.1566 38.6319 94.0671 38.6931C94.0106 38.6931 93.9493 38.6978 93.8881 38.7261C89.159 40.8645 84.5476 43.2856 80.0493 45.8715C77.8591 47.1292 75.6971 48.4339 73.5633 49.7905C71.5991 51.034 69.569 52.2728 67.7226 53.7C67.6708 53.6058 67.6189 53.5163 67.553 53.4315C66.9265 52.5978 65.8479 52.334 64.8399 52.334C63.1913 49.6115 60.5959 47.7368 57.8357 46.2437C54.7458 44.5715 51.4203 43.1961 47.9536 42.5508C45.0991 42.0185 41.6842 41.7359 39.0135 43.116C37.3837 43.9592 36.5641 45.3204 36.1779 46.8748C35.2876 45.815 33.6862 45.1933 32.3155 45.5041C33.2528 39.9178 25.8106 37.1952 21.7739 35.5608C21.2981 35.3676 20.8177 35.1839 20.3373 35.005C23.6297 34.322 26.8892 33.427 30.1817 32.7346C33.9499 31.9433 37.7417 31.265 41.5617 30.7751C43.3799 30.5396 45.1981 30.3512 47.0256 30.2052C47.9065 30.1345 48.9286 29.965 49.7906 30.2193C50.8127 30.5208 51.3732 31.3969 51.8537 32.2777C53.6577 35.5796 55.1744 39.0464 56.6205 42.5178C56.6252 42.5461 56.6346 42.5697 56.6487 42.5932C56.6534 42.6026 56.6628 42.612 56.6676 42.6215C56.6864 42.6686 56.71 42.7204 56.7288 42.7675C56.7712 42.8664 56.8371 42.9323 56.9125 42.9747C57.7839 43.978 59.4089 43.6389 60.1908 42.5649C61.5615 40.6903 60.5771 38.1561 59.6868 36.3144C58.6223 34.1147 57.3553 31.9857 55.7255 30.1581C54.2323 28.4812 52.2116 26.7526 49.9837 26.1968C49.8801 26.1685 49.7906 26.2015 49.7246 26.2627C43.752 27.3508 37.8029 28.6461 31.8492 29.8378C26.0037 31.0107 20.0358 31.9527 14.261 33.4459C13.8371 33.394 13.4132 33.3564 12.9892 33.3328C10.4881 33.2009 7.56771 33.6814 6.03687 35.8575C5.09953 35.4948 3.89841 35.6691 3.32376 36.5546C2.60309 37.6615 2.00488 39.3667 2.00488 40.6808C2.00488 40.7421 2.06612 40.808 2.1038 40.874C2.22627 41.0765 2.37699 41.2743 2.50417 41.4722C2.57012 41.5805 2.65019 41.6935 2.72555 41.8019C2.19329 43.8132 2.49004 46.6393 4.13863 48.076C4.17161 48.1042 4.20929 48.1231 4.24226 48.1325C3.87015 51.392 4.65676 55.0801 6.37601 57.8215C8.2036 60.7277 10.9921 62.4281 14.3458 63.0311C17.7325 63.6434 21.5478 63.7282 24.5106 61.7216C27.2519 59.8658 28.8299 56.8229 29.5505 53.6623C29.6118 53.6623 29.6777 53.6435 29.7342 53.5964C31.1191 52.4188 32.0234 50.1061 32.0517 48.2785C33.5025 48.0571 34.7554 48.9474 35.6645 50.1956C35.7257 50.3369 35.834 50.4735 35.9141 50.5865C35.9235 50.6007 35.9377 50.6148 35.9471 50.6289C35.9706 50.6572 35.9989 50.6807 36.0366 50.6949C35.4007 56.7617 36.4699 63.5445 40.5349 68.2312C44.3926 72.6777 51.166 75.1836 56.856 73.0074C59.555 71.9759 61.7452 69.762 62.4706 66.9594C65.0236 67.4022 65.4758 63.813 65.4475 62.0607C65.4475 62.0513 65.4475 62.0419 65.4475 62.0325C66.2954 61.8158 67.1573 61.2647 67.6095 60.5393C68.1512 59.6632 68.1559 58.4904 68.1371 57.44C68.1512 57.4353 68.1653 57.4353 68.1795 57.4258C71.0857 55.7914 73.78 53.6953 76.559 51.8536C79.3569 50.0025 82.1831 48.189 85.0658 46.4745C86.4742 45.636 87.8967 44.8165 89.338 44.0298C90.0257 43.653 90.7181 43.2809 91.4105 42.9182C91.7308 42.7486 92.3055 42.3153 92.6917 42.3106C93.6338 42.3012 93.5443 43.4882 93.5867 44.044C93.8599 47.6285 93.9729 51.213 93.9776 54.8069C93.9776 54.9011 94.0059 54.9765 94.053 55.033C94.2979 56.3189 96.8838 56.7805 97.3031 55.7396C97.3455 55.7113 97.3878 55.6689 97.4208 55.6124C98.1792 54.3971 97.9813 52.692 97.9672 51.3213H97.9625ZM53.9733 29.5363C55.2686 30.7327 56.3567 32.1364 57.2846 33.6296C58.2361 35.1557 59.2111 36.8373 59.7387 38.5612C60.0213 39.4703 60.172 40.4783 59.8705 41.4062C59.5267 42.4519 58.3774 43.1961 57.4777 42.5131C56.0175 38.8061 54.4208 34.9955 52.3906 31.557C51.7547 30.4784 50.9257 29.6635 49.7058 29.4233C50.1862 28.8345 50.6573 27.8925 50.5583 27.2048C51.7689 27.883 52.9229 28.566 53.9686 29.5363H53.9733ZM32.0376 30.5396C37.9819 29.3479 43.9593 28.2551 49.8848 26.9598C50.2051 27.3414 49.9601 28.0573 49.8 28.4341C49.6493 28.7874 49.4279 29.0747 49.1735 29.3479C47.2659 29.1925 45.1886 29.5881 43.3045 29.8001C39.2678 30.2617 35.2547 30.9259 31.2745 31.736C27.2613 32.5509 23.1681 33.3705 19.2633 34.6234C18.2035 34.2702 17.1296 33.964 16.0415 33.7379C21.4018 32.8759 26.7291 31.6041 32.0376 30.5396ZM4.23755 47.2422C3.88899 46.5451 3.53101 45.8763 3.36144 45.0802C3.13535 44.0016 3.19187 42.9559 3.43209 41.8867C3.46507 41.7359 3.40854 41.6182 3.31905 41.5428C3.25781 41.4062 3.17303 41.2696 3.09767 41.1424C2.97991 40.9399 2.86215 40.7326 2.73968 40.5348C2.72084 40.5066 2.702 40.483 2.68316 40.4642C2.96107 39.6116 3.21542 38.759 3.54985 37.9253C3.73826 37.459 3.91254 36.8231 4.38357 36.5593C4.8546 36.2956 5.44809 36.484 5.95209 36.451C5.96151 36.451 5.97093 36.4463 5.98035 36.4463C6.07927 36.5122 6.21586 36.5217 6.31478 36.4133C9.44711 32.9183 14.5813 33.7991 18.797 35.2263C18.8347 35.2546 18.8865 35.2734 18.943 35.2782C19.7343 35.5513 20.4927 35.8387 21.1992 36.1213C25.3961 37.7934 32.2307 40.1392 31.6042 45.7726C31.1096 45.9375 30.7799 46.3096 30.6009 46.7524C30.502 45.8715 30.2901 45.0096 29.9132 44.1806C28.7074 41.5287 25.7305 39.9696 23.2576 38.7119C20.4409 37.28 17.3792 36.2485 14.2139 36.0271C11.4725 35.834 8.53332 36.1778 6.63037 38.3681C4.48719 40.8316 4.214 44.1287 4.23284 47.2564L4.23755 47.2422ZM29.2632 52.6685C29.2444 52.6967 29.2302 52.7297 29.2208 52.7674C28.5331 56.0693 27.1295 59.3147 24.2515 61.2741C21.3594 63.243 17.5912 63.13 14.2846 62.5035C11.0109 61.8818 8.33077 60.1531 6.63037 57.261C4.89228 54.3076 4.77452 51.1942 4.66618 47.9017C4.68032 47.8781 4.68503 47.8499 4.68974 47.8122C4.90641 44.4538 5.0383 40.4783 7.84091 38.1373C10.5917 35.8387 15.2219 36.5923 18.3731 37.5202C21.6184 38.4764 25.2359 40.1297 27.7512 42.4472C28.8016 43.4175 29.3904 44.5433 29.6777 45.7491C24.4634 49.3854 19.447 53.3939 14.5012 57.3787C14.3458 57.5059 14.5672 57.7132 14.7179 57.5954C19.7061 53.7377 24.7979 50.0119 29.7578 46.1212C30.1487 48.2126 29.7154 50.5159 29.2679 52.6543L29.2632 52.6685ZM30.7328 50.921C30.5632 51.2978 30.356 51.6463 30.1393 51.9855C30.3984 50.8503 30.6009 49.6822 30.6527 48.5187C30.6716 48.5423 30.6998 48.5658 30.7234 48.5752C30.7893 48.6459 30.893 48.6836 30.9919 48.6318C31.1426 48.5517 31.2933 48.4952 31.4441 48.4386C31.2604 49.2865 31.0908 50.1108 30.7281 50.921H30.7328ZM35.8859 49.3148C34.6847 47.8734 32.6358 46.8795 31.0013 48.0807C30.9495 47.7086 30.9919 47.3223 31.1662 46.9879C31.3028 46.7241 31.5053 46.5592 31.7173 46.3897C32.372 46.2154 32.9937 46.0647 33.7097 46.1824C34.5999 46.3332 35.2453 46.7901 35.8859 47.3977C35.933 47.4448 35.9942 47.4636 36.0554 47.4683C35.9518 48.0665 35.9 48.6883 35.8859 49.3148ZM62.042 66.446C61.2601 70.087 58.0759 72.4987 54.4914 73.0875C50.8127 73.6904 46.955 72.6023 43.9027 70.5345C40.6997 68.3631 38.5472 65.0706 37.445 61.3919C36.3663 57.8027 36.3993 54.1946 36.5076 50.5206C36.5453 50.4829 36.5688 50.4311 36.5688 50.3557C36.3899 46.2248 42.061 45.9987 44.9296 46.1683C48.5471 46.385 52.075 47.5437 55.3157 49.1263C58.4575 50.6619 61.0811 52.4942 61.9478 56.0693C62.7721 59.4795 62.0184 62.9887 62.0467 66.4366L62.042 66.446ZM67.0396 60.0259C66.5827 60.8926 65.6265 61.0716 64.8823 61.585C64.7881 61.6462 64.7504 61.731 64.7504 61.8158C64.6939 61.877 64.6609 61.9618 64.6609 62.0655C64.6892 63.8459 64.5384 65.5887 62.8098 66.234C62.8993 62.3528 63.6812 58.2501 62.2587 54.5243C60.9021 50.9681 57.5013 49.2253 54.1947 47.7933C50.5207 46.1966 46.5122 45.1744 42.4849 45.4288C40.4878 45.556 37.9301 46.1777 36.729 47.7886C37.1435 45.8056 38.0573 44.1193 40.3747 43.3892C43.2103 42.4896 46.5028 42.9371 49.3242 43.653C52.2729 44.3972 55.099 45.6172 57.7556 47.0915C60.2803 48.4905 62.6308 50.2191 64.1757 52.6967C64.1757 52.8145 64.2417 52.9275 64.3971 52.9558C65.4381 53.1678 66.6628 53.1583 67.1244 54.3076C67.1244 54.3595 67.1479 54.4113 67.1809 54.4584C67.4447 55.2921 67.3552 56.4131 67.3552 57.2845C67.3552 58.1559 67.4588 59.244 67.0396 60.0306V60.0259ZM93.3323 41.6276C93.0073 41.5287 92.6163 41.5664 92.1783 41.7218C90.4826 42.3341 88.8481 43.4552 87.2843 44.3454C83.9353 46.2484 80.6664 48.2973 77.4446 50.4122C74.3264 52.4612 71.0198 54.4537 68.1182 56.8135C68.1135 56.0787 68.1653 55.1414 67.9581 54.3359C69.9882 53.1065 71.9241 51.6982 73.9307 50.4264C76.1257 49.0368 78.3489 47.6944 80.6004 46.4038C84.981 43.8932 89.4746 41.6182 94.0388 39.4562C94.1519 40.3181 93.9682 41.0482 93.3323 41.6276ZM96.7472 55.1838C96.7472 55.1838 96.7143 55.212 96.7001 55.2309C96.4222 55.603 95.7769 55.4334 95.3954 55.3015C95.0939 55.1979 94.8773 55.0236 94.7171 54.7881C94.736 52.7014 94.703 50.6101 94.6135 48.5234C94.5334 46.6676 94.6465 44.5574 94.2225 42.7392C94.133 42.3577 93.9776 42.0751 93.7704 41.882C94.3356 41.3685 94.6653 40.6102 94.6276 39.8518C95.1646 40.5631 95.645 41.2508 95.9606 42.1881C96.4175 43.5541 96.6248 45.0237 96.8085 46.4462C96.9781 47.7792 97.0864 49.1263 97.1335 50.4735C97.1806 51.8819 97.4491 53.912 96.752 55.1838H96.7472Z" fill="black"/>
<path d="M66.602 57.0067C66.5172 56.5592 66.065 56.0317 65.5752 56.2531C65.5328 56.2719 65.5092 56.3049 65.4857 56.3426C65.0617 56.5781 64.8074 57.1103 64.8592 57.5861C64.9204 58.1278 65.4386 58.4104 65.9379 58.2314C66.4277 58.0571 66.6962 57.506 66.5973 57.0067H66.602ZM65.7494 57.572C65.5281 57.6944 65.4951 57.4825 65.5328 57.3035C65.5705 57.1386 65.6505 56.9926 65.7494 56.856C65.8013 56.9031 65.8531 56.9502 65.886 57.0161C65.985 57.1951 65.9379 57.4683 65.7494 57.572Z" fill="black"/>
<path d="M61.6509 57.9015C56.9077 61.4342 52.2916 65.1365 47.5672 68.6974C47.3976 68.8246 47.5625 69.1119 47.7368 68.9848C52.5177 65.4992 57.3269 61.9759 61.844 58.1559C61.9806 58.0381 61.7969 57.7932 61.6462 57.9015H61.6509Z" fill="black"/>
<path d="M56.7291 52.0278C54.1573 53.7188 51.6985 55.6029 49.2021 57.3928C46.8139 59.1074 44.3646 60.7654 42.0613 62.593C41.9577 62.6777 42.0943 62.852 42.2026 62.7767C44.7885 61.1092 47.252 59.2392 49.7579 57.4493C52.1507 55.7395 54.6094 54.0909 56.9316 52.2869C57.0776 52.1738 56.8892 51.9242 56.7291 52.0278Z" fill="black"/>
<path d="M21.0153 43.05C18.6743 44.7975 16.371 46.5969 14.0064 48.3114C11.6372 50.0259 9.18783 51.6274 6.80915 53.3231C6.64429 53.4409 6.7903 53.7141 6.97401 53.6058C11.9386 50.6006 16.7714 47.0396 21.2084 43.2997C21.345 43.1866 21.1613 42.9464 21.02 43.0547L21.0153 43.05Z" fill="black"/>
<path d="M40.9494 55.3627C40.7798 54.3547 39.4044 54.43 38.6837 54.7127C38.6037 54.7456 38.566 54.8069 38.5613 54.8681C38.5377 54.8916 38.5189 54.9246 38.5095 54.967C38.2551 56.0786 38.1091 57.5482 38.6037 58.6175C38.9664 59.3947 39.8519 59.6396 40.4313 58.933C40.7468 58.5515 40.7751 58.0381 40.8175 57.5671C40.8787 56.8935 41.0577 56.0362 40.9447 55.3627H40.9494ZM40.436 56.1446C40.3983 56.7051 40.3889 57.2797 40.3182 57.8356C40.29 57.991 40.2617 58.1417 40.2334 58.2972C39.4374 58.6457 39.0041 58.5704 38.9334 58.0805C38.7921 57.8261 38.8156 57.4258 38.7921 57.1243C38.745 56.4366 38.8156 55.7678 38.9569 55.0895C38.9569 55.0706 38.9569 55.0518 38.9569 55.0329C39.2914 54.9858 39.8754 54.9199 40.0639 55.0565C40.4265 55.3203 40.4689 55.7536 40.4407 56.1446H40.436Z" fill="black"/>
<path d="M7.30895 44.8636C7.25243 44.8777 7.21475 44.9107 7.19591 44.9578C7.17706 44.9814 7.15822 45.0143 7.1488 45.0567C6.90387 46.1778 6.38574 47.9583 6.85206 49.0699C7.11583 49.7105 7.98252 50.1815 8.49123 49.5126C8.75972 49.1594 8.73616 48.547 8.78798 48.1372C8.88689 47.3318 9.00936 46.5263 9.08943 45.7162C9.19777 44.6422 8.15209 44.6705 7.30895 44.8683V44.8636ZM8.56188 46.1966C8.4771 46.8984 8.39231 47.5956 8.29811 48.2974C8.26985 48.5046 8.24159 48.7166 8.21332 48.9239C7.51149 49.0699 7.17706 48.905 7.21946 48.4246C7.13938 48.1184 7.22417 47.7557 7.26185 47.4495C7.35134 46.7006 7.48323 45.9564 7.59628 45.2075C7.89774 45.1886 8.32637 45.1651 8.4771 45.2781C8.76914 45.4995 8.60428 45.8999 8.56659 46.1966H8.56188Z" fill="black"/>
<path d="M42.3532 48.0383C41.8586 47.3977 40.6245 47.3741 40.1441 47.9912C39.3386 49.018 39.056 50.7796 38.9618 52.0938C38.8676 52.1927 38.8488 52.3764 38.9995 52.4706C39.8992 53.0359 40.6905 53.0641 41.1568 52.0279C41.5619 51.1329 41.9104 50.1956 42.2684 49.2818C42.4286 48.8673 42.6641 48.4339 42.3532 48.0336V48.0383ZM41.317 50.3604C40.9684 51.2271 40.6387 52.8804 39.3057 52.0985C39.5223 50.9209 40.1253 47.5531 41.4441 48.0948C42.3862 48.481 41.5666 49.7481 41.317 50.3557V50.3604Z" fill="black"/>
<path d="M10.7189 39.3856C10.1772 38.9146 9.10794 38.7261 8.61808 39.3479C8.29307 39.7577 8.1706 40.3889 8.04813 40.8835C7.89741 41.4958 7.7561 42.1694 7.83146 42.8005C7.84088 42.8853 7.91625 42.9371 7.98219 42.9324C8.01987 42.9795 8.08111 43.0125 8.15647 43.0219C9.09381 43.0973 9.87101 42.9654 10.2902 42.0375C10.5493 41.4628 10.7754 40.7751 10.9214 40.1628C10.9968 39.8378 10.9779 39.607 10.7189 39.3809V39.3856ZM9.96992 41.4911C9.80035 41.9527 9.63078 42.3907 9.09852 42.5179C8.80178 42.5886 8.48148 42.5556 8.18473 42.532C8.32604 41.9433 8.39198 41.3309 8.56626 40.7469C8.63692 40.5161 8.70286 40.191 8.82062 39.9791C9.11736 39.4468 9.84275 39.2396 10.3044 39.6965C10.6482 40.0356 10.1112 41.086 9.96521 41.4911H9.96992Z" fill="black"/>
</g>
<defs>
<clipPath id="clip0_3559_34204">
<rect width="96" height="47.6255" fill="white" transform="translate(2 26.1873)"/>
</clipPath>
</defs>
</svg>
