<svg width="32" height="33" viewBox="0 0 32 33" fill="none" xmlns="http://www.w3.org/2000/svg">
<g clip-path="url(#clip0_961_46)">
<path d="M16 32.8877C24.8366 32.8877 32 25.7243 32 16.8877C32 8.05114 24.8366 0.887695 16 0.887695C7.16344 0.887695 0 8.05114 0 16.8877C0 25.7243 7.16344 32.8877 16 32.8877Z" fill="white"/>
<path d="M22.9094 15.1754C22.7617 15.1889 22.614 15.1956 22.4663 15.1956C20.8481 15.1956 19.3307 14.3764 18.4444 13.0202V20.4192C18.4444 23.4407 15.9937 25.8913 12.9723 25.8913C9.95094 25.8913 7.50024 23.4407 7.50024 20.4192C7.50024 17.3978 9.95094 14.9472 12.9723 14.9472C13.0865 14.9472 13.2006 14.9606 13.308 14.9673V17.6597C13.1939 17.6463 13.0865 17.6261 12.9723 17.6261C11.4281 17.6261 10.1792 18.875 10.1792 20.4192C10.1792 21.9635 11.4281 23.2124 12.9723 23.2124C14.5166 23.2124 15.8729 21.9971 15.8729 20.4528L15.8997 7.88379H18.478C18.7197 10.1935 20.5863 11.9996 22.9027 12.1742V15.1687L22.9094 15.1754Z" fill="black"/>
</g>
<defs>
<clipPath id="clip0_961_46">
<rect width="32" height="32" fill="white" transform="translate(0 0.887695)"/>
</clipPath>
</defs>
</svg>
