<svg width="32" height="33" viewBox="0 0 32 33" fill="none" xmlns="http://www.w3.org/2000/svg">
<g clip-path="url(#clip0_961_37)">
<path d="M16 32.8877C24.8366 32.8877 32 25.7243 32 16.8877C32 8.05114 24.8366 0.887695 16 0.887695C7.16344 0.887695 0 8.05114 0 16.8877C0 25.7243 7.16344 32.8877 16 32.8877Z" fill="white"/>
<path d="M17.356 15.7661L22.6603 9.5957H21.4047L16.7988 14.9537L13.1194 9.5957H8.87598L14.4421 17.6931L8.87598 24.1589H10.1315L14.9994 18.5055L18.8869 24.1589H23.1303L17.356 15.7594V15.7661ZM15.6372 17.7669L15.0732 16.9612L10.5881 10.5424H12.5218L16.1408 15.7191L16.7048 16.5248L21.4114 23.2592H19.4777L15.6372 17.7669Z" fill="black"/>
</g>
<defs>
<clipPath id="clip0_961_37">
<rect width="32" height="32" fill="white" transform="translate(0 0.887695)"/>
</clipPath>
</defs>
</svg>
