<svg width="24" height="25" viewBox="0 0 24 25" fill="none" xmlns="http://www.w3.org/2000/svg">
<path d="M6 18.7102C6.06366 18.7102 6.12926 18.7102 6.19691 18.7102H12M6 18.7102C5.01173 18.7094 4.49334 18.697 4.0918 18.4924C3.71547 18.3007 3.40973 17.9939 3.21799 17.6176C3 17.1898 3 16.6305 3 15.5104V9.9104C3 8.7903 3 8.22983 3.21799 7.802C3.40973 7.42568 3.71547 7.11994 4.0918 6.92819C4.51962 6.71021 5.08009 6.71021 6.2002 6.71021H17.8002C18.9203 6.71021 19.4796 6.71021 19.9074 6.92819C20.2837 7.11994 20.5905 7.42568 20.7822 7.802C21 8.22941 21 8.7892 21 9.90712V15.5133C21 16.6312 21 17.1902 20.7822 17.6176C20.5905 17.9939 20.2837 18.3007 19.9074 18.4924C19.48 18.7102 18.921 18.7102 17.8031 18.7102H12M6 18.7102C6.00004 17.6056 7.34317 16.7102 9 16.7102C10.6569 16.7102 12 17.6056 12 18.7102M6 18.7102C6 18.7102 6 18.7101 6 18.7102ZM18 14.7102H14M18 11.7102H15M9 13.7102C7.89543 13.7102 7 12.8148 7 11.7102C7 10.6056 7.89543 9.71021 9 9.71021C10.1046 9.71021 11 10.6056 11 11.7102C11 12.8148 10.1046 13.7102 9 13.7102Z" stroke="black" stroke-width="2" stroke-linecap="round" stroke-linejoin="round"/>
</svg>
