<svg width="40" height="41" viewBox="0 0 40 41" fill="none" xmlns="http://www.w3.org/2000/svg">
<g clip-path="url(#clip0_2478_11481)">
<path d="M38.2164 22.8128C38.2164 31.0089 31.5746 37.9568 23.1009 38.3441C14.3004 38.7465 6.91284 31.9684 6.91284 23.1906C6.91284 14.4129 14.3004 7.45643 23.1009 7.64638C31.5746 7.82918 38.2164 14.6167 38.2164 22.8128Z" fill="url(#paint0_linear_2478_11481)"/>
<path d="M39.2002 22.8128C39.2002 31.0089 32.5585 37.9568 24.0848 38.3441C15.2842 38.7465 7.89673 31.9684 7.89673 23.1906C7.89673 14.4129 15.2842 7.45643 24.0848 7.64638C32.5585 7.82918 39.2002 14.6167 39.2002 22.8128Z" fill="url(#paint1_linear_2478_11481)"/>
<path d="M38.2648 22.8242C38.2648 30.5467 31.9999 37.0809 24.0226 37.4296C15.7562 37.7908 8.83203 31.4162 8.83203 23.1794C8.83203 14.9426 15.7562 8.40073 24.0226 8.56251C31.9999 8.71867 38.2648 15.1016 38.2648 22.8242Z" fill="url(#paint2_linear_2478_11481)"/>
<path d="M20.8069 23.564C21.4484 22.7312 21.7693 21.486 21.7693 19.8277C21.7693 18.1695 21.4431 17.0215 20.7907 16.1672C20.1381 15.3129 19.2026 14.8857 17.9844 14.8857C15.4973 14.8857 14.2537 16.5332 14.2537 19.8277C14.2537 21.4427 14.5781 22.6771 15.2268 23.5314C15.8758 24.3857 16.7948 24.8129 17.9843 24.8129C19.1738 24.8129 20.165 24.3965 20.8068 23.5638L20.8069 23.564ZM18.0062 22.5744C17.6456 22.5744 17.3843 22.3491 17.2222 21.8985C17.06 21.4481 16.9789 20.765 16.9789 19.8493C16.9789 18.9336 17.06 18.2543 17.2222 17.8109C17.3844 17.3675 17.6456 17.1458 18.0062 17.1458C18.6983 17.1458 19.0444 18.0471 19.0444 19.8493C19.0444 21.6515 18.6984 22.5744 18.0062 22.5744Z" fill="white"/>
<path d="M31.8642 22.4826C31.2116 21.6283 30.2763 21.2012 29.0579 21.2012C26.5707 21.2012 25.3271 22.8486 25.3271 26.1431C25.3271 27.7508 25.6517 28.9818 26.3005 29.8361C26.9492 30.6904 27.8684 31.1175 29.0579 31.1175C30.2474 31.1175 31.2386 30.7012 31.8803 29.8684C32.5218 29.0357 32.8428 27.7941 32.8428 26.1431C32.8428 24.4922 32.5166 23.3369 31.8642 22.4826ZM29.0796 28.8897C28.7191 28.8897 28.4578 28.6644 28.2956 28.2138C28.1334 27.7634 28.0522 27.0803 28.0522 26.1646C28.0522 25.2489 28.1334 24.5696 28.2956 24.1261C28.4578 23.6827 28.7191 23.4611 29.0796 23.4611C29.7717 23.4611 30.1177 24.3624 30.1177 26.1646C30.1177 27.9668 29.7717 28.8897 29.0796 28.8897Z" fill="white"/>
<path d="M28.9216 15.2776C28.8598 15.1726 28.7471 15.1035 28.6253 15.1035H27.0218C26.7702 15.1035 26.5383 15.2447 26.4162 15.4648L18.1275 30.4094C18.0683 30.516 18.07 30.6494 18.1318 30.7544C18.1936 30.8594 18.3063 30.9274 18.4281 30.9274H20.2368C20.3619 30.9274 20.477 30.8572 20.5377 30.748L28.9261 15.6226C28.9853 15.5161 28.9836 15.3826 28.9218 15.2778L28.9216 15.2776Z" fill="white"/>
<g style="mix-blend-mode:multiply" opacity="0.3">
<path style="mix-blend-mode:multiply" opacity="0.3" d="M17.2641 16.4058C16.7437 14.7095 16.7676 12.1333 19.3053 8.32715C12.7588 10.2131 7.89673 16.1497 7.89673 23.2511C7.89673 32.0288 15.2842 38.8068 24.0848 38.4046C27.3299 38.2563 30.3008 37.1487 32.7286 35.3912C32.6533 33.0502 32.144 30.4877 30.7118 28.1242C26.7737 21.6253 18.897 21.7277 17.2641 16.4059V16.4058Z" fill="url(#paint3_linear_2478_11481)"/>
</g>
<mask id="mask0_2478_11481" style="mask-type:luminance" maskUnits="userSpaceOnUse" x="0" y="1" width="35" height="26">
<path d="M21.4403 1.61719C6.69697 1.61719 5.02862 14.2112 5.02862 14.2112H0.800049V15.3557L9.11251 26.7878L19.2695 13.5169H15.2689L20.9302 6.88075C20.9302 6.88075 27.4362 8.04331 29.6819 8.79751C32.5838 9.86741 34.8661 12.2954 34.8661 12.2954C34.8661 12.2954 32.5997 1.61747 21.4402 1.61747L21.4403 1.61719Z" fill="white"/>
</mask>
<g mask="url(#mask0_2478_11481)">
<path d="M34.5548 14.519V14.5668C34.1149 13.9949 33.3269 13.2003 32.8551 12.7401C32.8462 12.7198 32.8315 12.6994 32.8227 12.6791C32.5594 12.0777 32.2042 11.4268 31.7405 10.7771C31.2798 10.1255 30.6944 9.48413 30.012 8.89352C29.9302 8.81698 29.8357 8.74927 29.7484 8.67694C29.7038 8.64161 29.6588 8.60516 29.6136 8.56983L29.5474 8.516C29.5241 8.49806 29.5001 8.48194 29.4769 8.46455C29.3832 8.39698 29.2896 8.32871 29.1952 8.25988L29.1249 8.20843L29.0507 8.16063C29.0016 8.12839 28.9527 8.09601 28.9037 8.06432C28.7102 7.93087 28.5015 7.81535 28.2979 7.69339C28.1942 7.63409 28.0855 7.5797 27.98 7.52349C27.9278 7.49531 27.8744 7.46657 27.821 7.43909C27.7663 7.4133 27.7111 7.38709 27.657 7.36129C26.7847 6.94185 25.8333 6.63849 24.8575 6.47153C24.7355 6.45233 24.6137 6.43326 24.4905 6.41405C24.3679 6.39793 24.2435 6.3877 24.1216 6.37396L23.9369 6.3542L23.7515 6.34466L23.5662 6.33387C23.5047 6.33092 23.4437 6.3249 23.3815 6.32616C23.2582 6.3256 23.1351 6.32434 23.0114 6.32377C22.9812 6.32377 22.9486 6.32195 22.9202 6.32377L22.8379 6.32798L22.6734 6.33639L22.5099 6.3441C22.4955 6.34466 22.4854 6.34466 22.4666 6.34592L22.2988 6.35784L22.0745 6.37284L21.9067 6.38476L21.8784 6.38658L21.8683 6.38714C21.8683 6.38714 21.8098 6.38714 21.908 6.38896L21.5453 6.43985C21.4856 6.44882 21.4253 6.45415 21.3656 6.46676L21.1878 6.50083L21.0099 6.53433L20.9213 6.55116C20.8917 6.55648 20.8629 6.56489 20.834 6.57148C20.7178 6.59966 20.6016 6.62714 20.4859 6.65588C20.4275 6.66779 20.371 6.687 20.3143 6.70312L20.1447 6.75401L19.9751 6.80251L19.8092 6.86055C19.6986 6.90008 19.588 6.93471 19.4806 6.97662C19.3738 7.01966 19.2664 7.06284 19.1602 7.10643C18.315 7.46419 17.5552 7.9268 16.9086 8.45502L16.7867 8.55189L16.671 8.65535C16.5944 8.72362 16.5151 8.7888 16.4423 8.85876C16.4392 8.86114 16.4366 8.86479 16.4334 8.86717C16.2914 9.00721 16.1474 9.13885 16.0199 9.28366C15.9859 9.31899 15.9526 9.35488 15.9199 9.39076L15.8696 9.44347L15.823 9.49969C15.7608 9.57272 15.6993 9.64632 15.6377 9.71866C15.6226 9.7366 15.6063 9.75398 15.5912 9.77249L15.5491 9.8287C15.5202 9.86641 15.4919 9.90412 15.4636 9.94057C15.4084 10.016 15.348 10.0854 15.2983 10.1632C14.8786 10.7615 14.5587 11.3598 14.3413 11.9307C14.1219 12.5002 13.9919 13.0346 13.9171 13.5066C13.909 13.5659 13.9007 13.624 13.8925 13.6813C13.8857 13.7381 13.8738 13.7937 13.8712 13.8494C13.8618 13.9607 13.8523 14.0665 13.8429 14.1677C13.8366 14.2706 13.8366 14.3693 13.8323 14.4621C13.8304 14.5088 13.8272 14.5542 13.8267 14.598C13.8285 14.6428 13.8297 14.6866 13.8304 14.7283C13.8317 14.8127 13.833 14.8922 13.8342 14.9665C13.8337 14.9874 13.8375 14.9982 13.8387 15.0126C13.8405 15.0264 13.8425 15.0401 13.8443 15.0533C13.8468 15.0796 13.8506 15.076 13.8532 15.1C13.855 15.1203 13.8575 15.1298 13.8595 15.1298H17.9962L15.4827 17.7834L9.63917 23.8685L1.28101 15.13H5.67541C5.68172 15.13 5.68859 15.0582 5.69546 15.002C5.71242 14.8806 5.73065 14.762 5.75069 14.6179C5.76205 14.5461 5.772 14.4791 5.78406 14.4018C5.79037 14.3641 5.79597 14.3283 5.80228 14.2887C5.80789 14.2499 5.81364 14.208 5.82177 14.1739C5.85261 14.0291 5.88457 13.8766 5.9185 13.7138C5.93672 13.6331 5.95438 13.5505 5.97317 13.4655C5.99335 13.3806 6.01719 13.2944 6.04102 13.2059C6.08882 13.0294 6.13522 12.844 6.19312 12.653C6.25466 12.4634 6.31887 12.2665 6.38475 12.0619C6.41686 11.959 6.45891 11.8579 6.49788 11.7532C6.53742 11.6503 6.57835 11.5443 6.61985 11.4366C6.96106 10.584 7.42676 9.65543 8.04946 8.72194C8.66964 7.78788 9.45959 6.85746 10.3972 5.99476C10.5108 5.88401 10.6366 5.78294 10.7579 5.6771C10.8194 5.62509 10.8804 5.57238 10.9419 5.51967L11.0356 5.44074L11.131 5.36532C11.2599 5.26537 11.39 5.1643 11.5193 5.06322L11.6173 4.9878L11.7191 4.91603C11.7877 4.86752 11.8555 4.81972 11.9239 4.77178C12.1922 4.57608 12.4807 4.39958 12.7673 4.21776C12.9118 4.12916 13.0614 4.0466 13.2103 3.96108C13.2837 3.91917 13.3586 3.87725 13.4333 3.83421C13.51 3.79468 13.5867 3.75529 13.6632 3.71576C14.886 3.07791 16.2372 2.59385 17.6397 2.30422C17.8151 2.27128 17.9916 2.23778 18.1675 2.20483C18.3435 2.17371 18.5226 2.15212 18.6998 2.12647L18.9663 2.09058L19.2346 2.06549L19.5022 2.04096C19.5915 2.03325 19.6801 2.02357 19.77 2.02063C19.9484 2.01292 20.1276 1.99245 20.3066 1.98474C20.3506 1.98292 20.3958 1.9668 20.4405 1.9668H20.5749L20.842 1.9811L21.109 1.98951C21.1982 1.98951 21.2875 2.00086 21.3761 2.00507L21.9071 2.03563C22.0278 2.03745 21.9486 2.03857 21.9793 2.03927L21.993 2.0411L22.0214 2.04404L22.0766 2.05119L22.1885 2.06437L22.4109 2.09072L22.5228 2.1039L22.578 2.11049L22.6466 2.11946L22.9281 2.15899L23.2096 2.19965L23.3491 2.22053C23.3949 2.22768 23.4358 2.23736 23.4797 2.24563C23.6513 2.28039 23.8228 2.31558 23.9943 2.34978C24.0799 2.36591 24.164 2.38932 24.2482 2.4102L24.5015 2.47427L24.7529 2.53833L25.001 2.61319C25.1656 2.66408 25.3309 2.71188 25.4924 2.76698C25.6539 2.82445 25.8141 2.88193 25.9743 2.93927C27.2457 3.42038 28.4056 4.0623 29.4029 4.80963C29.4657 4.85575 29.5279 4.90243 29.5901 4.94841C29.6511 4.99621 29.7108 5.04472 29.7706 5.09378C29.89 5.19065 30.01 5.28402 30.125 5.38341C30.3518 5.58626 30.578 5.78069 30.7848 5.99125C30.8375 6.0427 30.8891 6.09471 30.942 6.1456L31.0192 6.22214L31.0934 6.30177C31.192 6.40831 31.2893 6.51415 31.3855 6.61887L31.4577 6.69779L31.5268 6.7791C31.5714 6.83349 31.6172 6.88746 31.662 6.94129C31.7511 7.04966 31.8449 7.15255 31.9252 7.26442C32.3808 7.85012 32.7666 8.44367 33.0858 9.02894C33.2417 9.3131 33.3805 9.59614 33.5032 9.87553C33.8821 10.7287 34.1253 11.5407 34.2785 12.264C34.2955 12.355 34.3137 12.4442 34.3307 12.532C34.3469 12.6194 34.3664 12.705 34.3772 12.7906C34.401 12.961 34.425 13.1245 34.447 13.2818C34.4659 13.4398 34.4759 13.5917 34.4898 13.736C34.4954 13.8077 34.503 13.8778 34.5073 13.9472C34.5098 14.0155 34.525 14.0825 34.528 14.1483C34.5318 14.2786 34.5538 14.4038 34.5538 14.5192L34.5548 14.519Z" fill="url(#paint4_linear_2478_11481)"/>
<path style="mix-blend-mode:multiply" opacity="0.4" d="M34.5548 14.5193V14.5671C34.1149 13.9952 33.3269 13.2006 32.855 12.7404C32.8462 12.7201 32.8315 12.6997 32.8226 12.6794C32.5594 12.078 32.2041 11.4271 31.7404 10.7774C31.2797 10.1258 30.6943 9.48443 30.0119 8.89382C29.9302 8.81728 29.8357 8.74957 29.7483 8.67724C29.7038 8.64191 29.6588 8.60546 29.6135 8.57013L29.5473 8.5163C29.524 8.49836 29.5001 8.48224 29.4768 8.46485C29.3832 8.39729 29.2895 8.32901 29.1952 8.26018L29.1248 8.20873L29.0506 8.16093C29.0016 8.12869 28.9527 8.09631 28.9036 8.06462C28.7101 7.93117 28.5014 7.81565 28.2978 7.69369C28.1941 7.63439 28.0855 7.58 27.9799 7.52379C27.9278 7.49561 27.8743 7.46687 27.8209 7.43939C27.7663 7.4136 27.711 7.38739 27.6569 7.36159C26.7847 6.94216 25.8332 6.63879 24.8574 6.47183C24.7354 6.45263 24.6136 6.43356 24.4904 6.41436C24.3679 6.39823 24.2434 6.388 24.1216 6.37426L23.9368 6.3545L23.7515 6.34496L23.5661 6.33417C23.5046 6.33123 23.4436 6.3252 23.3814 6.32646C23.2582 6.3259 23.1351 6.32464 23.0113 6.32408C22.9812 6.32408 22.9485 6.32225 22.9202 6.32408L22.8379 6.32828L22.6733 6.33669L22.5098 6.3444C22.4954 6.34496 22.4853 6.34496 22.4665 6.34623L22.2987 6.35814L22.0744 6.37314L21.9066 6.38506L21.8783 6.38688L21.8682 6.38744C21.8682 6.38744 21.8098 6.38744 21.9079 6.38926L21.5452 6.44015C21.4855 6.44912 21.4252 6.45445 21.3655 6.46707L21.1878 6.50113L21.0099 6.53464L20.9213 6.55146C20.8917 6.55678 20.8628 6.5652 20.8339 6.57178C20.7177 6.59996 20.6015 6.62744 20.4858 6.65618C20.4274 6.66809 20.3709 6.6873 20.3143 6.70342L20.1446 6.75431L19.975 6.80281L19.8092 6.86085C19.6986 6.90038 19.588 6.93501 19.4806 6.97692C19.3737 7.01996 19.2664 7.06314 19.1601 7.10673C18.3149 7.46449 17.5551 7.9271 16.9086 8.45532L16.7866 8.55219L16.671 8.65565C16.5943 8.72392 16.5151 8.7891 16.4422 8.85906C16.4391 8.86144 16.4366 8.86509 16.4333 8.86747C18.2903 6.67819 21.2984 5.25586 24.693 5.25586C28.0876 5.25586 31.2434 6.7487 33.0872 9.02896C33.243 9.31312 33.3818 9.59615 33.5045 9.87555C33.8834 10.7287 34.1266 11.5407 34.2799 12.264C34.2968 12.355 34.315 12.4442 34.332 12.5321C34.3483 12.6194 34.3678 12.7051 34.3785 12.7906C34.4024 12.961 34.4263 13.1245 34.4484 13.2818C34.4673 13.4398 34.4772 13.5917 34.4911 13.736C34.4967 13.8078 34.5043 13.8779 34.5086 13.9472C34.5112 14.0155 34.5263 14.0825 34.5294 14.1483C34.5332 14.2786 34.5552 14.4038 34.5552 14.5192L34.5548 14.5193Z" fill="url(#paint5_linear_2478_11481)"/>
</g>
</g>
<defs>
<linearGradient id="paint0_linear_2478_11481" x1="11.5425" y1="44.0497" x2="35.1501" y2="-1.07977" gradientUnits="userSpaceOnUse">
<stop stop-color="#444B8C"/>
<stop offset="1" stop-color="#26264F"/>
</linearGradient>
<linearGradient id="paint1_linear_2478_11481" x1="-2.9109" y1="73.5601" x2="20.6968" y2="28.4305" gradientUnits="userSpaceOnUse">
<stop stop-color="#AA80F9"/>
<stop offset="1" stop-color="#6165D7"/>
</linearGradient>
<linearGradient id="paint2_linear_2478_11481" x1="31.8463" y1="13.8076" x2="-9.24452" y2="59.2633" gradientUnits="userSpaceOnUse">
<stop stop-color="#AA80F9"/>
<stop offset="1" stop-color="#6165D7"/>
</linearGradient>
<linearGradient id="paint3_linear_2478_11481" x1="7.89673" y1="23.3743" x2="32.7286" y2="23.3743" gradientUnits="userSpaceOnUse">
<stop stop-color="#AA80F9"/>
<stop offset="1" stop-color="#6165D7"/>
</linearGradient>
<linearGradient id="paint4_linear_2478_11481" x1="10.7465" y1="24.6769" x2="26.6893" y2="2.8274" gradientUnits="userSpaceOnUse">
<stop stop-color="#FCB148"/>
<stop offset="0.05" stop-color="#FDB946"/>
<stop offset="0.14" stop-color="#FEC144"/>
<stop offset="0.32" stop-color="#FFC444"/>
<stop offset="0.48" stop-color="#FDB946"/>
<stop offset="0.78" stop-color="#F99C4C"/>
<stop offset="0.87" stop-color="#F8924F"/>
<stop offset="1" stop-color="#F8924F"/>
</linearGradient>
<linearGradient id="paint5_linear_2478_11481" x1="23.7027" y1="14.1721" x2="29.5962" y2="6.09501" gradientUnits="userSpaceOnUse">
<stop stop-color="#FCB148"/>
<stop offset="0.05" stop-color="#FDB946"/>
<stop offset="0.14" stop-color="#FEC144"/>
<stop offset="0.32" stop-color="#FFC444"/>
<stop offset="0.48" stop-color="#FDB946"/>
<stop offset="0.78" stop-color="#F99C4C"/>
<stop offset="0.87" stop-color="#F8924F"/>
<stop offset="1" stop-color="#F8924F"/>
</linearGradient>
<clipPath id="clip0_2478_11481">
<rect width="38.4" height="36.8048" fill="white" transform="translate(0.800049 1.61719)"/>
</clipPath>
</defs>
</svg>
