<svg width="258" height="256" viewBox="0 0 258 256" fill="none" xmlns="http://www.w3.org/2000/svg">
<g clip-path="url(#clip0_3929_33156)">
<path d="M226.686 219.947C219.989 226.85 213.997 230.908 209.41 233.971C164.667 263.847 113.52 255.235 97.7073 252.292C72.1944 247.544 50.6589 244.194 32.1552 227.477C-9.8897 189.491 -7.84467 110.249 24.2828 61.1619C28.092 55.3417 60.1702 7.79063 111.428 1.09014C112.681 0.926426 113.617 0.832494 114.436 0.746613C122.366 -0.0925136 171.502 -4.52342 211.568 29.0434C217.303 33.8483 226.533 42.5151 235.092 55.7336C266.388 104.067 266.486 178.923 226.686 219.947Z" fill="#3887FF"/>
<path d="M53.0973 112.728C53.1688 112.783 53.2413 112.838 53.3138 112.892C57.5908 116.13 62.8367 118.913 69.3135 120.777C70.6017 121.052 71.89 121.325 73.1782 121.6C75.0013 118.833 76.2404 115.875 72.6441 113.73C67.0592 110.4 69.5917 99.7399 72.1959 96.3986C75.4182 92.2638 82.7244 82.4814 74.1721 77.1979C67.052 72.7992 61.5583 71.4153 63.5291 61.3172C65.4999 51.2181 61.6299 43.632 52.4451 41.9457C42.78 40.1717 38.1755 25.5496 29.319 27.8183C13.8864 31.7715 20.646 56.8263 35.5481 67.3494C50.4502 77.8725 39.4816 81.432 36.9803 89.4726C33.5657 100.449 49.2121 101.866 52.0837 107.241C53.0561 109.061 53.2762 110.951 53.0973 112.729V112.728Z" fill="url(#paint0_linear_3929_33156)"/>
<mask id="mask0_3929_33156" style="mask-type:luminance" maskUnits="userSpaceOnUse" x="20" y="27" width="59" height="97">
<path d="M51.1112 118.751L71.8684 123.813C73.7945 121.169 76.6598 116.124 72.6431 113.73C67.0582 110.399 69.5908 99.7391 72.1949 96.3978C75.4172 92.263 82.7234 82.4807 74.1711 77.1972C67.051 72.7985 61.5573 71.4146 63.5281 61.3164C65.4989 51.2174 61.6289 43.6312 52.4441 41.9449C42.779 40.171 38.1745 25.5489 29.3181 27.8176C13.8855 31.7708 20.645 56.8256 35.5471 67.3487C50.4492 77.8717 39.4806 81.4313 36.9793 89.4719C33.5647 100.449 49.2111 101.866 52.0827 107.24C54.3344 111.454 52.5631 116.039 51.1112 118.751Z" fill="white"/>
</mask>
<g mask="url(#mask0_3929_33156)">
<g style="mix-blend-mode:soft-light" opacity="0.5">
<path d="M61.6804 117.869L62.1429 117.89C63.6592 84.0752 48.7562 49.6907 23.2514 28.1543L22.9526 28.5077C48.351 49.9537 63.1905 84.1951 61.6804 117.869Z" fill="#FCFDFE"/>
<path d="M60.9282 99.3626L61.3773 99.4744C64.5853 86.5646 78.1384 79.2486 78.2752 79.1762L78.0588 78.7673C77.9201 78.8407 64.1881 86.2497 60.9291 99.3626H60.9282Z" fill="#FCFDFE"/>
<path d="M61.7901 111.641L62.2383 111.525C58.8862 98.4626 35.5106 90.9221 35.2753 90.8469L35.1357 91.288C35.3692 91.3613 58.5025 98.8249 61.7901 111.64V111.641Z" fill="#FCFDFE"/>
<path d="M51.9206 67.4323L52.3778 67.3563C50.6127 56.8045 60.4729 43.6916 60.5722 43.561L60.2036 43.281C60.1026 43.4134 50.1234 56.6856 51.9206 67.4332V67.4323Z" fill="#FCFDFE"/>
<path d="M41.3548 48.7102L41.6858 48.3855C33.146 39.6856 16.6846 39.2284 16.5191 39.2249L16.5093 39.6874C16.673 39.6909 32.9492 40.1454 41.3557 48.7093L41.3548 48.7102Z" fill="#FCFDFE"/>
</g>
</g>
<mask id="mask1_3929_33156" style="mask-type:luminance" maskUnits="userSpaceOnUse" x="37" y="4" width="65" height="141">
<path d="M84.7999 144.108L61.9037 142.411C61.9037 142.411 58.464 130.347 64.6895 122.473C77.3909 106.41 62.436 96.4068 56.7992 91.2799C48.2979 83.5479 44.1783 73.0275 57.7752 69.5878C71.3721 66.1481 59.5617 44.5956 44.0334 34.0877C28.837 23.8053 38.3474 -9.14071 73.2812 10.0948C94.143 21.5822 89.0635 44.227 89.2174 56.2727C89.3713 68.3184 107.098 70.6273 99.9221 84.7968C93.7923 96.8997 83.2308 105.273 90.1397 114.418C97.0487 123.564 97.1158 133.248 84.7999 144.108Z" fill="white"/>
</mask>
<g mask="url(#mask1_3929_33156)">
<path d="M84.799 144.108L61.9029 142.411C61.9029 142.411 58.4631 130.347 64.6886 122.473C77.39 106.41 62.4351 96.4068 56.7983 91.2799C48.297 83.5479 44.9969 74.1279 56.2884 69.0126C69.0641 63.2255 59.5617 44.5956 44.0334 34.0877C28.837 23.8053 38.3474 -9.14071 73.2812 10.0948C94.143 21.5822 89.0635 44.227 89.2174 56.2727C89.3713 68.3184 107.098 70.6273 99.9221 84.7968C93.7923 96.8997 83.2308 105.273 90.1397 114.418C97.0487 123.564 97.1158 133.248 84.7999 144.108H84.799Z" fill="url(#paint1_linear_3929_33156)"/>
<g style="mix-blend-mode:soft-light" opacity="0.5">
<path d="M74.7324 145.499L74.2636 145.376C74.3396 145.086 81.8238 115.977 80.5427 84.8832C79.3628 56.2375 70.2836 19.9958 33.7368 10.0184L33.8647 9.55054C50.1338 13.9922 62.4058 23.9168 70.3399 39.0488C76.6781 51.1365 80.2735 66.5539 81.0276 84.8734C82.3096 116.038 74.8084 145.208 74.7333 145.499H74.7324Z" fill="#BEB8F2"/>
<path d="M73.3821 45.5149L72.9071 45.4191C76.0775 29.6019 71.6771 6.47399 71.6323 6.24229L72.1082 6.15015C72.153 6.38274 76.5723 29.6045 73.383 45.5149H73.3821Z" fill="#BEB8F2"/>
<path d="M67.8183 35.5779C52.2989 24.2344 36.7357 27.972 36.581 28.0105L36.4629 27.5408C36.6203 27.5006 52.3947 23.7039 68.1046 35.186L67.8183 35.577V35.5779Z" fill="#BEB8F2"/>
<path d="M80.2715 105.257C76.5563 82.0672 45.9764 74.1814 45.6714 74.1295L45.7215 73.6482C46.0248 73.6706 77.0018 81.7854 80.7501 105.181L80.2715 105.258V105.257Z" fill="#BEB8F2"/>
<path d="M81.137 95.612L80.6709 95.4787C84.7985 81.0722 101.416 72.1808 101.585 72.0923L101.81 72.5208C101.645 72.6085 85.2065 81.4068 81.137 95.612Z" fill="#BEB8F2"/>
<path d="M75.3403 140.77C75.3009 131.849 63.1577 123.887 63.0352 123.807L63.2982 123.4C63.8081 123.729 75.784 131.583 75.8251 140.768L75.3403 140.77V140.77Z" fill="#BEB8F2"/>
<path d="M77.2054 133.9L76.7349 133.783C78.4328 126.937 89.4873 119.989 93.1202 117.706C93.6337 117.383 94.0765 117.104 94.1463 117.039L94.4836 117.387C94.3869 117.48 94.0935 117.666 93.3787 118.116C89.787 120.373 78.8568 127.244 77.2063 133.9H77.2054Z" fill="#BEB8F2"/>
</g>
</g>
<path d="M111.931 56.4415L16.312 52.5679C14.0961 52.4784 12.2944 54.0314 12.2944 56.038V217.101C12.2944 219.108 14.0952 220.615 16.312 220.47L111.931 214.191C113.882 214.063 115.46 212.439 115.46 210.563V59.9805C115.46 58.1045 113.882 56.5202 111.931 56.4415Z" fill="url(#paint2_linear_3929_33156)"/>
<path d="M110.703 59.0277L16.3106 52.5679C14.0947 52.4784 12.293 54.0314 12.293 56.038V217.101C12.293 219.108 14.0938 220.615 16.3106 220.47L111.93 214.191C113.881 214.063 115.459 212.439 115.459 210.563V59.9805C115.459 58.1045 112.654 59.1073 110.703 59.0277Z" fill="url(#paint3_linear_3929_33156)"/>
<path d="M113.875 56.4415L18.2554 52.5679C16.0395 52.4784 14.2378 54.0314 14.2378 56.038V217.101C14.2378 219.108 16.0386 220.615 18.2554 220.47L113.875 214.191C115.826 214.063 117.404 212.439 117.404 210.563V59.9805C117.404 58.1045 115.826 56.5202 113.875 56.4415Z" fill="#D8DEE8"/>
<g style="mix-blend-mode:multiply" opacity="0.3">
<path d="M74.9492 174.021C73.3264 155.766 85.4822 148.182 80.8517 131.668C75.1201 111.225 52.9888 110.314 45.4206 90.1643C42.5167 82.4324 41.369 70.7553 49.6779 53.8421L18.2554 52.5691C16.0395 52.4796 14.2378 54.0327 14.2378 56.0392V217.102C14.2378 219.109 16.0386 220.616 18.2554 220.471L103.638 214.864C82.1069 199.717 75.9467 185.238 74.9492 174.022V174.021Z" fill="#D8DEE8"/>
</g>
<path d="M113.875 58.4471L18.2553 54.7024C17.3472 54.6666 16.6074 55.3062 16.6074 56.1283V216.951C16.6074 217.772 17.3472 218.393 18.2553 218.335L113.875 212.184C114.675 212.133 115.326 211.464 115.326 210.694V59.9008C115.326 59.1306 114.675 58.4784 113.875 58.4471Z" fill="url(#paint4_linear_3929_33156)"/>
<path d="M67.5552 128.975C49.6303 129.12 34.7354 115.498 34.7354 98.6084C34.7354 81.7185 49.6303 68.4401 67.5552 68.9974C85.0704 69.5422 99.027 83.1525 99.027 99.3491C99.027 115.546 85.0704 128.835 67.5552 128.975Z" fill="#D8DEE8"/>
<path d="M96.8984 99.3248C96.8984 114.45 83.9017 126.798 67.5558 126.908C50.8538 127.02 37.0439 114.363 37.0439 98.636C37.0439 82.9091 50.8538 70.57 67.5558 71.0665C83.9017 71.5522 96.8984 84.2 96.8984 99.3248Z" fill="white"/>
<path opacity="0.74" d="M103.266 139.616L30.0967 140.741C28.0392 140.772 26.3672 142.32 26.3672 144.196C26.3672 146.073 28.0392 147.562 30.0967 147.521L103.266 146.08C105.131 146.044 106.641 144.57 106.641 142.789C106.641 141.008 105.131 139.588 103.266 139.616Z" fill="url(#paint5_linear_3929_33156)"/>
<path d="M103.267 152.343L43.3935 153.772C41.3708 153.821 39.7266 155.368 39.7266 157.229C39.7266 159.09 41.3708 160.552 43.3935 160.495L103.267 158.807C105.132 158.754 106.641 157.268 106.641 155.487C106.641 153.706 105.132 152.299 103.267 152.343Z" fill="#D8DEE8"/>
<path d="M30.1317 160.868L30.0637 160.87C28.0249 160.927 26.3682 159.519 26.3682 157.725V157.427C26.3682 155.633 28.0249 154.139 30.0637 154.09L30.1317 154.088C32.1651 154.04 33.8103 155.448 33.8103 157.234V157.531C33.8103 159.317 32.166 160.812 30.1317 160.869V160.868Z" fill="#B19AF3"/>
<path d="M30.0979 161.505C27.6575 161.575 25.667 159.82 25.667 157.595C25.667 155.369 27.6584 153.511 30.0979 153.454C32.5303 153.396 34.5047 155.151 34.5047 157.365C34.5047 159.579 32.5312 161.435 30.0979 161.505ZM30.0979 154.725C28.4286 154.765 27.0688 156.036 27.0688 157.558C27.0688 159.08 28.4295 160.28 30.0979 160.234C31.7636 160.187 33.1154 158.917 33.1154 157.4C33.1154 155.884 31.7627 154.684 30.0979 154.725Z" fill="#D8DEE8"/>
<path d="M103.267 163.857L43.3935 165.747C41.3708 165.811 39.7266 167.372 39.7266 169.233C39.7266 171.094 41.3708 172.543 43.3935 172.47L103.267 170.322C105.132 170.254 106.641 168.757 106.641 166.976C106.641 165.195 105.132 163.799 103.267 163.857Z" fill="#D8DEE8"/>
<path d="M30.1317 172.945L30.0637 172.948C28.0249 173.021 26.3682 171.626 26.3682 169.831V169.533C26.3682 167.739 28.0249 166.232 30.0637 166.168L30.1317 166.166C32.1651 166.102 33.8103 167.498 33.8103 169.284V169.581C33.8103 171.366 32.166 172.874 30.1317 172.946V172.945Z" fill="#B19AF3"/>
<path d="M30.0979 173.582C27.6575 173.671 25.667 171.932 25.667 169.706C25.667 167.48 27.6584 165.607 30.0979 165.531C32.5303 165.455 34.5047 167.195 34.5047 169.408C34.5047 171.621 32.5312 173.494 30.0979 173.582ZM30.0979 166.802C28.4286 166.856 27.0688 168.137 27.0688 169.659C27.0688 171.18 28.4295 172.37 30.0979 172.311C31.7636 172.252 33.1154 170.971 33.1154 169.455C33.1154 167.938 31.7627 166.749 30.0979 166.802Z" fill="#D8DEE8"/>
<path d="M103.267 175.37L43.3935 177.721C41.3708 177.801 39.7266 179.374 39.7266 181.234C39.7266 183.095 41.3708 184.532 43.3935 184.444L103.267 181.835C105.132 181.753 106.641 180.244 106.641 178.463C106.641 176.682 105.132 175.298 103.267 175.37Z" fill="#D8DEE8"/>
<path d="M30.0979 185.659C27.6575 185.767 25.667 184.043 25.667 181.817C25.667 179.591 27.6584 177.703 30.0979 177.608C32.5303 177.513 34.5047 179.238 34.5047 181.451C34.5047 183.664 32.5312 185.552 30.0979 185.659ZM30.0979 178.879C28.4286 178.945 27.0688 180.237 27.0688 181.759C27.0688 183.281 28.4295 184.46 30.0979 184.388C31.7636 184.317 33.1154 183.025 33.1154 181.508C33.1154 179.992 31.7627 178.813 30.0979 178.879Z" fill="#D8DEE8"/>
<path d="M103.267 186.885L43.3935 189.696C41.3708 189.791 39.7266 191.377 39.7266 193.238C39.7266 195.099 41.3708 196.523 43.3935 196.419L103.267 193.349C105.132 193.253 106.641 191.733 106.641 189.951C106.641 188.17 105.132 186.798 103.267 186.885Z" fill="#D8DEE8"/>
<path d="M30.1317 197.098L30.0637 197.102C28.0249 197.206 26.3682 195.837 26.3682 194.042V193.744C26.3682 191.95 28.0249 190.417 30.0637 190.322L30.1317 190.318C32.1651 190.222 33.8103 191.593 33.8103 193.379V193.676C33.8103 195.462 32.166 196.994 30.1317 197.099V197.098Z" fill="#B19AF3"/>
<path d="M30.0979 197.736C27.6575 197.862 25.667 196.154 25.667 193.928C25.667 191.701 27.6584 189.798 30.0979 189.685C32.5303 189.571 34.5047 191.28 34.5047 193.494C34.5047 195.707 32.5312 197.61 30.0979 197.736ZM30.0979 190.956C28.4286 191.034 27.0688 192.337 27.0688 193.859C27.0688 195.38 28.4295 196.55 30.0979 196.465C31.7636 196.38 33.1154 195.078 33.1154 193.562C33.1154 192.045 31.7627 190.877 30.0979 190.956Z" fill="#D8DEE8"/>
<mask id="mask2_3929_33156" style="mask-type:luminance" maskUnits="userSpaceOnUse" x="39" y="73" width="56" height="52">
<path d="M94.7638 99.2997C94.7638 113.324 82.703 124.758 67.5557 124.839C52.1035 124.923 39.3457 113.203 39.3457 98.6618C39.3457 84.1212 52.1035 72.6954 67.5557 73.1338C82.703 73.5641 94.7638 85.2752 94.7638 99.2997Z" fill="white"/>
</mask>
<g mask="url(#mask2_3929_33156)">
<path d="M63.9581 79.5834C58.6558 79.4314 53.6229 82.1652 51.3882 85.9681C48.6946 90.5511 52.2908 92.8404 50.5347 100.287C48.9173 107.146 45.1377 108.319 45.763 112.822C46.4473 117.754 51.6091 120.882 53.6479 122.118C62.8157 127.674 77.1274 127.441 84.3879 120.269C84.9944 119.671 90.0023 114.724 88.6506 110.173C87.4411 106.101 82.2534 106.072 81.1781 101.84C80.2522 98.1936 83.7974 97.0163 83.4602 91.7311C83.394 90.6969 83.0818 85.8026 79.1357 83.5411C76.5074 82.0346 73.6188 82.4658 72.5596 82.6769C71.2884 81.7331 68.1913 79.706 63.9572 79.5843L63.9581 79.5834Z" fill="#26264F"/>
<path d="M37.0439 117.852C37.0439 117.852 63.8548 103.319 96.8984 117.805C96.8984 117.805 92.6956 130.217 67.5558 131.065C41.5625 131.94 37.0439 117.852 37.0439 117.852Z" fill="url(#paint6_linear_3929_33156)"/>
<path d="M62.8121 98.9318L61.8083 105.87C61.4657 108.238 59.7096 110.217 57.2665 110.984L49.0962 113.547C49.0962 113.547 64.7265 120.54 84.4326 113.55L75.4535 110.637C72.9031 109.743 71.1649 107.497 71.0539 104.945L70.7963 99.0231L62.8112 98.9309L62.8121 98.9318Z" fill="url(#paint7_linear_3929_33156)"/>
<path d="M74.9787 92.9501C74.9787 98.8043 71.1865 105.065 66.4828 105.029C61.7495 104.993 57.8911 98.6039 57.8911 92.6844C57.8911 86.7649 61.7495 83.6096 66.4828 83.7116C71.1865 83.8127 74.9787 87.0959 74.9787 92.9501Z" fill="url(#paint8_linear_3929_33156)"/>
<path d="M70.2451 87.5805C67.691 87.6556 63.8201 88.1566 61.1372 90.7303C56.6321 95.053 58.772 102.031 56.7672 102.424C54.9816 102.775 52.2146 97.7931 52.2593 92.3567C52.2969 87.8032 53.9743 82.4696 58.339 81.2163C60.9011 80.481 61.6561 81.7853 69.9132 82.721C74.7216 83.2658 72.8358 85.233 73.9174 86.0024C78.7169 89.4144 78.1094 100.325 75.5267 100.437C74.3021 100.489 72.6086 97.6169 70.2451 87.5805Z" fill="#26264F"/>
</g>
<g style="mix-blend-mode:soft-light" opacity="0.35">
<path d="M74.9485 174.02C73.3257 155.766 85.4815 148.182 80.851 131.667C75.1194 111.224 52.9881 110.314 45.4199 90.1638C42.6359 82.7512 41.4658 71.7111 48.7021 55.8956L18.2538 54.7031C17.3458 54.6673 16.606 55.3069 16.606 56.1291V216.952C16.606 217.773 17.3458 218.394 18.2538 218.335L101.072 213.008C81.6061 198.526 75.904 184.772 74.9476 174.021L74.9485 174.02Z" fill="white"/>
</g>
<path d="M241.418 60.4085L158.343 57.043C156.426 56.9652 154.868 58.4144 154.868 60.2806V210.064C154.868 211.93 156.426 213.34 158.343 213.214L241.418 207.758C243.121 207.646 244.497 206.135 244.497 204.382V63.706C244.497 61.9534 243.121 60.4774 241.418 60.4085Z" fill="url(#paint9_linear_3929_33156)"/>
<path d="M240.53 65.5989L158.342 57.043C156.425 56.9652 154.867 58.4144 154.867 60.2806V210.064C154.867 211.93 156.425 213.34 158.342 213.214L241.417 207.758C243.12 207.646 244.496 206.135 244.496 204.382V63.706C244.496 61.9534 242.231 65.6678 240.53 65.5989Z" fill="url(#paint10_linear_3929_33156)"/>
<path d="M243.361 60.4085L160.286 57.043C158.369 56.9652 156.812 58.4144 156.812 60.2806V210.064C156.812 211.93 158.369 213.34 160.286 213.214L243.361 207.758C245.064 207.646 246.441 206.135 246.441 204.382V63.706C246.441 61.9534 245.064 60.4774 243.361 60.4085Z" fill="#D8DEE8"/>
<g style="mix-blend-mode:multiply" opacity="0.3">
<path d="M209.458 170.144C208.047 153.119 218.621 146.064 214.591 130.654C209.606 111.589 190.382 110.744 183.817 91.9822C181.298 84.7861 180.303 73.915 187.509 58.1461L160.286 57.043C158.369 56.9652 156.812 58.4144 156.812 60.2806V210.064C156.812 211.93 158.369 213.34 160.286 213.214L234.433 208.344C215.682 194.128 210.324 180.605 209.457 170.144L209.458 170.144Z" fill="#D8DEE8"/>
</g>
<path d="M243.361 62.2821L160.285 59.0285C159.5 58.998 158.859 59.5947 158.859 60.3587V209.933C158.859 210.697 159.499 211.278 160.285 211.228L243.361 205.885C244.059 205.84 244.627 205.217 244.627 204.498V63.6365C244.627 62.9172 244.059 62.3089 243.361 62.2821Z" fill="url(#paint11_linear_3929_33156)"/>
<g style="mix-blend-mode:soft-light" opacity="0.35">
<path d="M209.457 170.144C208.047 153.12 218.62 146.064 214.591 130.655C209.605 111.589 190.381 110.745 183.816 91.9825C181.401 85.0834 180.387 74.8055 186.662 60.0617L160.285 59.0285C159.5 58.998 158.859 59.5947 158.859 60.3587V209.933C158.859 210.697 159.499 211.278 160.285 211.228L232.198 206.602C215.247 193.016 210.288 180.171 209.457 170.144H209.457Z" fill="white"/>
</g>
<path d="M203.03 128.137C187.467 128.262 174.553 115.576 174.553 99.8544C174.553 84.1328 187.467 71.7436 203.03 72.2276C218.261 72.7008 230.414 85.379 230.414 100.498C230.414 115.616 218.26 128.014 203.03 128.137Z" fill="#D8DEE8"/>
<path d="M228.56 100.476C228.56 114.594 217.244 126.114 203.031 126.209C188.528 126.307 176.554 114.519 176.554 99.878C176.554 85.2371 188.528 73.7246 203.031 74.1558C217.244 74.5789 228.56 86.3589 228.56 100.476Z" fill="white"/>
<path opacity="0.74" d="M234.11 138.09L170.537 139.067C168.755 139.095 167.308 140.532 167.308 142.279C167.308 144.025 168.755 145.412 170.537 145.377L234.11 144.125C235.737 144.093 237.053 142.719 237.053 141.056C237.053 139.393 235.737 138.065 234.11 138.09Z" fill="url(#paint12_linear_3929_33156)"/>
<path d="M234.11 149.972L182.058 151.214C180.304 151.256 178.88 152.695 178.88 154.427C178.88 156.159 180.305 157.523 182.058 157.474L234.11 156.006C235.737 155.961 237.052 154.575 237.052 152.912C237.052 151.249 235.737 149.932 234.11 149.972Z" fill="#D8DEE8"/>
<path d="M170.567 157.798L170.508 157.8C168.742 157.85 167.308 156.537 167.308 154.866V154.589C167.308 152.92 168.743 151.531 170.508 151.489L170.567 151.488C172.328 151.446 173.752 152.759 173.752 154.421V154.697C173.752 156.359 172.327 157.747 170.567 157.797V157.798Z" fill="#B19AF3"/>
<path d="M170.538 158.39C168.425 158.451 166.701 156.815 166.701 154.744C166.701 152.673 168.425 150.947 170.538 150.898C172.644 150.849 174.355 152.485 174.355 154.545C174.355 156.606 172.645 158.33 170.538 158.391V158.39ZM170.538 152.081C169.092 152.116 167.915 153.296 167.915 154.713C167.915 156.129 169.093 157.248 170.538 157.208C171.98 157.167 173.152 155.987 173.152 154.577C173.152 153.166 171.981 152.047 170.538 152.082V152.081Z" fill="#D8DEE8"/>
<path d="M234.11 160.722L182.058 162.365C180.304 162.421 178.88 163.87 178.88 165.603C178.88 167.335 180.305 168.688 182.058 168.626L234.11 166.758C235.737 166.7 237.052 165.304 237.052 163.641C237.052 161.978 235.737 160.671 234.11 160.723V160.722Z" fill="#D8DEE8"/>
<path d="M170.567 169.037L170.508 169.039C168.742 169.103 167.308 167.8 167.308 166.131V165.853C167.308 164.184 168.743 162.785 170.508 162.73L170.567 162.728C172.328 162.672 173.752 163.975 173.752 165.637V165.913C173.752 167.576 172.327 168.975 170.567 169.037Z" fill="#B19AF3"/>
<path d="M170.538 169.629C168.425 169.706 166.701 168.084 166.701 166.013C166.701 163.942 168.425 162.202 170.538 162.137C172.644 162.072 174.355 163.695 174.355 165.755C174.355 167.815 172.645 169.553 170.538 169.63V169.629ZM170.538 163.32C169.092 163.366 167.915 164.556 167.915 165.971C167.915 167.387 169.093 168.498 170.538 168.446C171.98 168.395 173.152 167.205 173.152 165.794C173.152 164.383 171.981 163.273 170.538 163.319V163.32Z" fill="#D8DEE8"/>
<path d="M234.11 171.471L182.058 173.514C180.304 173.583 178.88 175.043 178.88 176.776C178.88 178.508 180.305 179.851 182.058 179.775L234.11 177.506C235.737 177.435 237.052 176.03 237.052 174.367C237.052 172.704 235.737 171.407 234.11 171.471Z" fill="#D8DEE8"/>
<path d="M170.567 180.276L170.508 180.278C168.742 180.355 167.308 179.065 167.308 177.395V177.118C167.308 175.449 168.743 174.039 170.508 173.969L170.567 173.966C172.328 173.897 173.752 175.188 173.752 176.851V177.128C173.752 178.79 172.327 180.2 170.567 180.277V180.276Z" fill="#B19AF3"/>
<path d="M170.538 180.869C168.425 180.962 166.701 179.352 166.701 177.281C166.701 175.21 168.425 173.458 170.538 173.377C172.644 173.294 174.355 174.905 174.355 176.965C174.355 179.025 172.645 180.777 170.538 180.87V180.869ZM170.538 174.558C169.092 174.616 167.915 175.814 167.915 177.23C167.915 178.647 169.093 179.748 170.538 179.685C171.98 179.623 173.152 178.425 173.152 177.014C173.152 175.603 171.981 174.502 170.538 174.559V174.558Z" fill="#D8DEE8"/>
<path d="M234.11 182.221L182.058 184.665C180.304 184.748 178.88 186.219 178.88 187.951C178.88 189.683 180.305 191.015 182.058 190.925L234.11 188.255C235.737 188.172 237.052 186.756 237.052 185.093C237.052 183.43 235.737 182.143 234.11 182.22V182.221Z" fill="#D8DEE8"/>
<path d="M170.567 191.514L170.508 191.517C168.742 191.608 167.308 190.327 167.308 188.658V188.381C167.308 186.711 168.743 185.29 170.508 185.208L170.567 185.205C172.328 185.123 173.752 186.403 173.752 188.065V188.341C173.752 190.004 172.327 191.424 170.567 191.514Z" fill="#B19AF3"/>
<path d="M170.538 192.108C168.425 192.217 166.701 190.621 166.701 188.55C166.701 186.479 168.425 184.714 170.538 184.615C172.644 184.517 174.355 186.114 174.355 188.174C174.355 190.234 172.645 191.999 170.538 192.108ZM170.538 185.798C169.092 185.867 167.915 187.075 167.915 188.49C167.915 189.905 169.093 190.997 170.538 190.924C171.98 190.851 173.152 189.643 173.152 188.232C173.152 186.821 171.981 185.729 170.538 185.797V185.798Z" fill="#D8DEE8"/>
<mask id="mask3_3929_33156" style="mask-type:luminance" maskUnits="userSpaceOnUse" x="178" y="76" width="49" height="49">
<path d="M226.7 100.455C226.7 113.544 216.2 124.211 203.03 124.282C189.612 124.353 178.549 113.439 178.549 99.9016C178.549 86.3646 189.612 75.7038 203.03 76.0849C216.2 76.4588 226.7 87.3674 226.7 100.456V100.455Z" fill="white"/>
</mask>
<g mask="url(#mask3_3929_33156)">
<path d="M176.554 117.833C176.554 117.833 199.816 104.288 228.56 117.79C228.56 117.79 224.9 129.373 203.031 130.15C180.471 130.951 176.554 117.833 176.554 117.833Z" fill="url(#paint13_linear_3929_33156)"/>
<path d="M198.91 100.135L198.039 106.602C197.785 110.72 193.701 112.256 193.701 112.256C198.497 117.944 207.662 117.735 210.866 112.359C208.652 111.529 206.17 108.116 206.073 105.737L205.849 100.216L198.911 100.136L198.91 100.135Z" fill="url(#paint14_linear_3929_33156)"/>
<path d="M209.483 94.5496C209.483 100.008 206.186 105.848 202.098 105.817C197.986 105.786 194.636 99.8348 194.636 94.3188C194.636 88.8027 197.986 85.8577 202.098 85.9463C206.186 86.0339 209.483 89.0908 209.483 94.5496Z" fill="url(#paint15_linear_3929_33156)"/>
<path d="M194.416 95.7078C194.827 95.6488 195.238 95.5906 195.648 95.5316C195.46 95.0771 194.68 93.0661 195.648 91.3333C196.577 89.6702 198.762 88.8928 200.431 89.035C202.326 89.197 203.463 90.0898 204.413 89.4331C204.948 89.0646 205.121 88.3784 205.182 87.8435C205.224 88.187 205.32 88.6969 205.566 89.2623C206.272 90.8869 207.469 91.2438 208.12 92.3209C208.558 93.0455 208.844 94.2514 208.12 96.3555C208.481 96.3394 208.842 96.3233 209.202 96.3072C209.583 95.1254 210.04 93.449 210.323 91.3932C210.745 88.3408 211.035 86.2395 209.838 85.1874C209.599 84.9781 208.545 84.1443 206.019 84.8501C205.427 84.2221 204.18 83.0699 202.26 82.458C201.596 82.246 198.302 81.1966 195.379 83.2309C193.391 84.6149 191.833 87.2468 192.334 89.4618C192.599 90.6328 193.323 91.1704 193.961 93.4373C194.23 94.3945 194.354 95.1979 194.416 95.7078Z" fill="url(#paint16_linear_3929_33156)"/>
<path d="M208.457 96.5494C208.457 96.5494 208.931 94.1653 210.37 94.4248C211.807 94.6842 209.748 98.5712 208.457 99.0265V96.5503V96.5494Z" fill="url(#paint17_linear_3929_33156)"/>
<path d="M195.561 96.3674C195.561 96.3674 195.078 93.9467 193.608 94.1623C192.134 94.3788 194.244 98.374 195.561 98.866V96.3674Z" fill="url(#paint18_linear_3929_33156)"/>
</g>
<g style="mix-blend-mode:multiply" opacity="0.5">
<path d="M207.29 59.2536L160.286 57.043C158.369 56.9652 156.812 58.4144 156.812 60.2806V210.064C156.812 211.93 158.369 213.34 160.286 213.214L207.246 209.916L207.29 59.2545V59.2536Z" fill="#D8DEE8"/>
</g>
<path d="M198.433 190.029C200.177 193.794 198.516 197.561 196.92 200.096C196.54 200.099 196.319 200.204 195.935 200.297C192.466 201.141 190.84 200.711 187.314 200.966C186.556 201.021 184.301 200.456 183.395 200.161L181.716 199.582C181.716 199.582 178.735 190.424 183.419 187.894C188.103 185.364 186.31 176.249 185.917 171.278C184.852 157.791 199.427 159.016 199.443 141.575C199.448 136.936 197.905 128.088 201.816 124.393C206.272 120.183 209.524 124.312 212.39 120.793C216.868 115.291 224.134 113.318 228.466 118.98C232.741 124.568 227.546 135.692 214.633 144.633C206.095 152.097 205.962 154.331 206.634 159.772C207.105 163.583 210.74 173.512 205.567 177.477C200.393 181.442 196.439 185.726 198.432 190.03L198.433 190.029Z" fill="url(#paint19_linear_3929_33156)"/>
<mask id="mask4_3929_33156" style="mask-type:luminance" maskUnits="userSpaceOnUse" x="180" y="115" width="50" height="89">
<path d="M194.669 203.178L181.998 199.914C181.998 199.914 178.735 190.423 183.418 187.893C188.101 185.363 186.309 176.248 185.916 171.278C184.85 157.79 199.426 159.016 199.442 141.575C199.447 136.935 197.903 128.088 201.814 124.392C206.27 120.182 209.523 124.312 212.389 120.792C216.867 115.291 224.133 113.317 228.464 118.979C232.74 124.568 227.545 135.692 214.632 144.632C206.095 152.096 205.962 154.331 206.634 159.771C207.104 163.582 210.74 173.512 205.566 177.476C200.393 181.441 196.439 185.725 198.432 190.029C201.465 196.579 194.669 203.178 194.669 203.178Z" fill="white"/>
</mask>
<g mask="url(#mask4_3929_33156)">
<g style="mix-blend-mode:soft-light" opacity="0.5">
<path d="M189.149 201.108L188.892 201.076C189.083 199.543 189.294 197.998 189.521 196.486C191.199 185.29 193.86 174.656 197.432 164.879C200.46 156.594 204.181 148.809 208.494 141.736C211.962 136.048 215.83 130.79 219.99 126.107C222.915 122.814 225.952 119.838 229.019 117.26C229.553 116.811 230.124 116.381 230.677 115.965C231.413 115.412 232.175 114.84 232.854 114.217L233.029 114.408C232.34 115.04 231.574 115.617 230.833 116.174C230.283 116.587 229.715 117.015 229.185 117.459C226.128 120.029 223.1 122.996 220.184 126.279C216.034 130.951 212.176 136.197 208.716 141.871C204.412 148.928 200.698 156.7 197.676 164.968C194.11 174.729 191.453 185.346 189.778 196.523C189.552 198.034 189.341 199.576 189.149 201.107V201.108Z" fill="#FCFDFE"/>
<path d="M203.824 150.691L203.588 150.581C208.317 140.502 204.164 121.881 204.122 121.694L204.376 121.637C204.419 121.825 208.591 140.533 203.824 150.692V150.691Z" fill="#FCFDFE"/>
<path d="M193.067 180.047L192.821 179.965C195.234 172.739 208.761 167.161 208.897 167.106L208.995 167.347C208.86 167.402 195.442 172.934 193.066 180.047H193.067Z" fill="#FCFDFE"/>
<path d="M192.054 184.265L191.797 184.228C192.513 179.307 190.859 172.213 187.142 164.255C187.018 163.988 186.957 163.839 186.962 163.806L187.218 163.84L187.09 163.823L187.215 163.791C187.224 163.819 187.294 163.97 187.377 164.145C191.115 172.149 192.776 179.295 192.054 184.265Z" fill="#FCFDFE"/>
<path d="M189.538 198.315L189.303 198.205C191.609 193.238 199.493 191.277 199.572 191.258L199.633 191.51C199.555 191.529 191.791 193.461 189.537 198.316L189.538 198.315Z" fill="#FCFDFE"/>
<path d="M188.758 201.129C187.78 196.821 185.534 192.654 181.891 188.389L182.088 188.221C185.76 192.519 188.024 196.723 189.011 201.072L188.758 201.129Z" fill="#FCFDFE"/>
<path d="M217.779 129.078L217.551 128.955C220.493 123.498 222.319 117.083 222.918 114.974C223.063 114.464 223.115 114.285 223.143 114.226L223.377 114.339C223.355 114.385 223.272 114.676 223.168 115.046C222.565 117.161 220.734 123.596 217.779 129.078Z" fill="#FCFDFE"/>
<path d="M211.683 137.244L211.501 137.059C215.644 132.98 227.27 133.111 227.763 133.118L227.759 133.377C227.639 133.375 215.748 133.241 211.682 137.243L211.683 137.244Z" fill="#FCFDFE"/>
</g>
</g>
<mask id="mask5_3929_33156" style="mask-type:luminance" maskUnits="userSpaceOnUse" x="175" y="139" width="66" height="89">
<path d="M177.86 222.649L192.976 227.386C192.976 227.386 198.251 220.524 196.262 213.891C192.204 200.356 204.34 197.747 209.261 195.893C216.68 193.098 222 187.399 214.154 181.733C206.309 176.067 219.368 165.25 232.001 162.462C244.364 159.735 246.648 136.185 219.349 139.632C203.046 141.691 200.541 157.506 197.378 165.193C194.215 172.879 182.258 169.849 183.254 180.762C184.105 190.084 188.748 198.141 181.99 202.248C175.232 206.355 172.725 212.55 177.86 222.648V222.649Z" fill="white"/>
</mask>
<g mask="url(#mask5_3929_33156)">
<path d="M177.86 222.649L192.976 227.386C192.976 227.386 198.251 220.524 196.262 213.891C192.204 200.356 204.34 197.747 209.261 195.893C216.68 193.098 221.194 187.896 215.254 181.742C208.534 174.78 219.369 165.25 232.001 162.462C244.364 159.735 246.648 136.185 219.349 139.632C203.046 141.691 200.541 157.506 197.378 165.193C194.215 172.879 182.258 169.849 183.254 180.762C184.105 190.084 188.748 198.141 181.99 202.248C175.232 206.355 172.725 212.55 177.86 222.648V222.649Z" fill="url(#paint20_linear_3929_33156)"/>
<g style="mix-blend-mode:soft-light" opacity="0.5">
<path d="M183.962 226.102L184.294 226.143C184.319 225.938 186.927 205.365 195.661 185.75C203.707 167.679 218.752 146.747 244.729 149.648L244.767 149.316C233.202 148.024 222.807 151.267 213.869 158.952C206.728 165.092 200.499 174.065 195.353 185.621C186.601 205.281 183.988 225.897 183.963 226.104L183.962 226.102Z" fill="#BEB8F2"/>
<path d="M210.27 162.323L210.599 162.383C212.591 151.432 221.299 137.719 221.386 137.582L221.104 137.402C221.017 137.54 212.273 151.309 210.27 162.324V162.323Z" fill="#BEB8F2"/>
<path d="M216.368 157.366C229.208 154.04 238.237 160.398 238.327 160.462L238.523 160.191C238.432 160.126 229.282 153.676 216.285 157.043L216.369 157.367L216.368 157.366Z" fill="#BEB8F2"/>
<path d="M190.65 198.884C198.934 184.957 220.553 187.681 220.761 187.725L220.851 187.403C220.651 187.341 198.72 184.662 190.363 198.713L190.65 198.884Z" fill="#BEB8F2"/>
<path d="M192.549 192.478L192.882 192.511C193.901 182.221 185.505 172.29 185.42 172.191L185.166 172.409C185.25 172.507 193.553 182.332 192.548 192.478H192.549Z" fill="#BEB8F2"/>
<path d="M184.775 222.914C187.071 217.202 196.885 215.187 196.984 215.167L196.919 214.84C196.508 214.921 186.828 216.911 184.466 222.791L184.776 222.915L184.775 222.914Z" fill="#BEB8F2"/>
<path d="M185.327 218.034L185.658 218.079C186.311 213.256 180.99 205.987 179.241 203.598C178.994 203.261 178.781 202.969 178.753 202.91L178.448 203.048C178.485 203.132 178.627 203.326 178.971 203.797C180.7 206.159 185.961 213.346 185.326 218.035L185.327 218.034Z" fill="#BEB8F2"/>
</g>
</g>
<path d="M192.168 226.477C192.112 226.504 192.054 226.53 191.998 226.556C188.636 228.104 184.688 229.202 180.048 229.497C179.139 229.491 178.23 229.485 177.322 229.479C176.504 227.343 176.107 225.167 178.848 224.254C183.106 222.838 182.979 215.279 181.719 212.641C180.161 209.377 176.687 201.703 183.234 199.41C188.684 197.501 192.591 197.382 192.759 190.286C192.928 183.188 196.661 178.65 203.099 178.874C209.875 179.111 215.145 169.94 220.777 172.782C230.591 177.734 222.322 193.615 210.72 198.497C199.118 203.38 205.982 207.404 206.476 213.193C207.151 221.095 196.397 219.731 193.665 222.927C192.74 224.01 192.311 225.251 192.168 226.475V226.477Z" fill="url(#paint21_linear_3929_33156)"/>
<mask id="mask6_3929_33156" style="mask-type:luminance" maskUnits="userSpaceOnUse" x="176" y="172" width="50" height="60">
<path d="M192.613 230.83L177.875 231.165C176.969 229.099 175.785 225.274 178.847 224.256C183.105 222.84 182.978 215.281 181.718 212.643C180.16 209.379 176.686 201.705 183.233 199.412C188.683 197.502 192.59 197.384 192.758 190.288C192.927 183.19 196.66 178.652 203.098 178.876C209.874 179.113 215.144 169.942 220.776 172.784C230.59 177.736 222.321 193.617 210.719 198.499C199.117 203.382 205.981 207.406 206.475 213.194C207.15 221.097 196.396 219.733 193.664 222.929C191.522 225.435 192.036 228.787 192.613 230.83Z" fill="white"/>
</mask>
<g mask="url(#mask6_3929_33156)">
<g style="mix-blend-mode:soft-light" opacity="0.5">
<path d="M185.621 228.67L185.306 228.615C189.296 205.604 204.434 184.642 224.814 173.91L224.962 174.193C204.67 184.879 189.594 205.755 185.621 228.67Z" fill="#FCFDFE"/>
<path d="M188.871 216.31L188.552 216.319C188.303 207.144 180.255 200.205 180.174 200.135L180.38 199.892C180.463 199.962 188.619 206.99 188.871 216.31Z" fill="#FCFDFE"/>
<path d="M186.471 224.456L186.186 224.312C190.38 216.006 207.25 214.389 207.42 214.374L207.448 214.693C207.28 214.708 190.585 216.308 186.47 224.456H186.471Z" fill="#FCFDFE"/>
<path d="M199.674 196.129L199.378 196.01C202.132 189.161 197.431 178.864 197.383 178.76L197.673 178.626C197.721 178.731 202.479 189.154 199.675 196.129H199.674Z" fill="#FCFDFE"/>
<path d="M209.569 185.078L209.395 184.811C216.439 180.214 227.599 182.345 227.711 182.368L227.65 182.681C227.539 182.658 216.504 180.553 209.57 185.077L209.569 185.078Z" fill="#FCFDFE"/>
</g>
</g>
<path d="M184.492 40.7612L82.4746 32.022C80.1048 31.9263 78.1797 33.8478 78.1797 36.3151V234.373C78.1797 236.84 80.1048 238.714 82.4746 238.558L185.547 231.789C187.667 231.649 189.382 229.652 189.382 227.325V40.5653C189.382 38.2394 186.612 40.848 184.492 40.7621V40.7612Z" fill="url(#paint22_linear_3929_33156)"/>
<path d="M161.009 35.7694C161.009 34.3926 162.073 33.2842 163.368 33.3102L164.253 33.2637L168.492 34.9545V36.5003L161.009 35.7694Z" fill="url(#paint23_linear_3929_33156)"/>
<path d="M188.297 36.1978L85.2251 32.0227C82.8553 31.927 80.9302 33.8486 80.9302 36.3159V234.374C80.9302 236.841 82.8553 238.714 85.2251 238.559L188.297 231.789C190.417 231.65 192.132 229.652 192.132 227.325V40.5661C192.132 38.2401 190.417 36.2845 188.297 36.1987V36.1978Z" fill="#D8DEE8"/>
<g style="mix-blend-mode:multiply" opacity="0.3">
<path d="M146.141 181.753C144.39 159.187 157.521 149.853 152.516 129.418C146.326 104.144 122.478 103.032 114.342 78.1947C111.224 68.6727 109.991 54.2849 118.917 33.3864L85.2251 32.0212C82.8553 31.9255 80.9302 33.8471 80.9302 36.3144V234.372C80.9302 236.84 82.8553 238.713 85.2251 238.557L177.185 232.518C153.872 213.569 147.218 195.621 146.141 181.752V181.753Z" fill="#D8DEE8"/>
</g>
<path d="M188.297 38.6845L85.2247 34.6481C84.2532 34.6096 83.4624 35.4013 83.4624 36.4113V234.212C83.4624 235.223 84.2532 235.994 85.2247 235.931L188.297 229.301C189.167 229.245 189.874 228.423 189.874 227.467V40.479C189.874 39.5236 189.166 38.7185 188.297 38.6845Z" fill="url(#paint24_linear_3929_33156)"/>
<path d="M138.164 126.073C118.866 126.229 102.874 109.432 102.874 88.6268C102.874 67.8212 118.867 51.393 138.164 51.9932C157.076 52.581 172.185 69.368 172.185 89.4247C172.185 109.481 157.076 125.92 138.164 126.073Z" fill="#D8DEE8"/>
<path d="M169.878 89.3984C169.878 108.125 155.812 123.401 138.164 123.519C120.181 123.64 105.35 108.032 105.35 88.6559C105.35 69.28 120.181 54.0129 138.164 54.5478C155.812 55.0729 169.878 70.6719 169.878 89.3984Z" fill="white"/>
<path opacity="0.74" d="M176.782 139.301L97.9025 140.513C95.6982 140.547 93.9072 142.447 93.9072 144.757C93.9072 147.067 95.6982 148.904 97.9025 148.861L176.782 147.308C178.806 147.268 180.443 145.447 180.443 143.24C180.443 141.034 178.806 139.269 176.782 139.301Z" fill="url(#paint25_linear_3929_33156)"/>
<path d="M176.782 155.066L112.165 156.608C109.993 156.66 108.229 158.561 108.229 160.854C108.229 163.147 109.993 164.956 112.165 164.895L176.782 163.073C178.806 163.016 180.443 161.181 180.443 158.974C180.443 156.767 178.806 155.018 176.782 155.066Z" fill="#D8DEE8"/>
<path d="M97.9382 165.295L97.8648 165.297C95.6802 165.359 93.9062 163.618 93.9062 161.409V161.043C93.9062 158.834 95.6811 157.001 97.8648 156.949L97.9382 156.947C100.117 156.895 101.881 158.636 101.881 160.836V161.201C101.881 163.401 100.117 165.234 97.9382 165.295V165.295Z" fill="#B19AF3"/>
<path d="M97.9015 166.079C95.2875 166.154 93.1548 163.986 93.1548 161.246C93.1548 158.506 95.2866 156.227 97.9015 156.165C100.508 156.104 102.625 158.273 102.625 160.999C102.625 163.725 100.509 166.004 97.9015 166.078V166.079ZM97.9015 157.731C96.1132 157.775 94.6568 159.334 94.6568 161.207C94.6568 163.081 96.1141 164.564 97.9015 164.515C99.6862 164.465 101.135 162.906 101.135 161.039C101.135 159.172 99.6862 157.689 97.9015 157.732V157.731Z" fill="#D8DEE8"/>
<path d="M176.782 169.33L112.165 171.369C109.993 171.438 108.229 173.353 108.229 175.645C108.229 177.938 109.993 179.734 112.165 179.656L176.782 177.337C178.806 177.265 180.443 175.416 180.443 173.209C180.443 171.003 178.806 169.265 176.782 169.33Z" fill="#D8DEE8"/>
<path d="M97.9382 180.166L97.8648 180.169C95.6802 180.248 93.9062 178.52 93.9062 176.312V175.945C93.9062 173.736 95.6811 171.89 97.8648 171.821L97.9382 171.818C100.117 171.749 101.881 173.477 101.881 175.677V176.042C101.881 178.241 100.117 180.088 97.9382 180.166V180.166Z" fill="#B19AF3"/>
<path d="M97.9015 180.951C95.2875 181.045 93.1548 178.894 93.1548 176.154C93.1548 173.414 95.2866 171.118 97.9015 171.037C100.508 170.955 102.625 173.108 102.625 175.834C102.625 178.561 100.509 180.856 97.9015 180.951ZM97.9015 172.602C96.1132 172.659 94.6568 174.23 94.6568 176.103C94.6568 177.975 96.1141 179.449 97.9015 179.385C99.6862 179.321 101.135 177.751 101.135 175.884C101.135 174.017 99.6862 172.545 97.9015 172.602Z" fill="#D8DEE8"/>
<path d="M176.782 183.593L112.165 186.13C109.993 186.215 108.229 188.144 108.229 190.437C108.229 192.729 109.993 194.511 112.165 194.417L176.782 191.6C178.806 191.512 180.443 189.652 180.443 187.445C180.443 185.238 178.806 183.513 176.782 183.593Z" fill="#D8DEE8"/>
<path d="M97.9015 195.821C95.2875 195.937 93.1548 193.801 93.1548 191.061C93.1548 188.321 95.2866 186.009 97.9015 185.907C100.508 185.806 102.625 187.942 102.625 190.668C102.625 193.395 100.509 195.706 97.9015 195.821ZM97.9015 187.473C96.1132 187.543 94.6568 189.126 94.6568 190.998C94.6568 192.871 96.1141 194.333 97.9015 194.256C99.6862 194.179 101.135 192.597 101.135 190.73C101.135 188.863 99.6862 187.402 97.9015 187.473Z" fill="#D8DEE8"/>
<path d="M176.782 197.856L112.165 200.89C109.993 200.992 108.229 202.935 108.229 205.227C108.229 207.52 109.993 209.289 112.165 209.177L176.782 205.863C178.806 205.76 180.443 203.886 180.443 201.679C180.443 199.472 178.806 197.76 176.782 197.855V197.856Z" fill="#D8DEE8"/>
<path d="M97.9382 209.906L97.8648 209.91C95.6802 210.022 93.9062 208.322 93.9062 206.113V205.746C93.9062 203.538 95.6811 201.663 97.8648 201.561L97.9382 201.558C100.117 201.456 101.881 203.156 101.881 205.355V205.72C101.881 207.92 100.117 209.793 97.9382 209.905V209.906Z" fill="#B19AF3"/>
<path d="M97.9015 210.691C95.2875 210.826 93.1548 208.707 93.1548 205.968C93.1548 203.228 95.2866 200.9 97.9015 200.777C100.508 200.656 102.625 202.776 102.625 205.502C102.625 208.229 100.509 210.557 97.9015 210.691ZM97.9015 202.343C96.1132 202.428 94.6568 204.02 94.6568 205.893C94.6568 207.767 96.1141 209.217 97.9015 209.126C99.6862 209.035 101.135 207.442 101.135 205.575C101.135 203.708 99.6862 202.258 97.9015 202.342V202.343Z" fill="#D8DEE8"/>
<mask id="mask7_3929_33156" style="mask-type:luminance" maskUnits="userSpaceOnUse" x="107" y="57" width="61" height="64">
<path d="M167.566 89.3718C167.566 106.733 154.516 120.877 138.164 120.964C121.524 121.054 107.819 106.602 107.819 88.6838C107.819 70.7661 121.524 56.6297 138.164 57.1021C154.516 57.5664 167.566 72.0104 167.566 89.3718Z" fill="white"/>
</mask>
<g mask="url(#mask7_3929_33156)">
<path d="M143.885 64.0671C150.113 67.8772 151.859 74.524 152.257 76.136C155.006 87.2925 146.534 92.957 150.144 100.844C153.102 107.308 161.468 109.349 161.124 110.057C160.816 110.691 154.845 107.601 149.079 106.201C130.277 101.635 113.936 115.103 111.62 111.735C109.98 109.35 119.559 104.61 121.536 93.5287C123.407 83.0378 116.574 77.4618 120.723 69.6341C123.489 64.4151 128.833 62.5418 129.744 62.2385C136.822 59.8813 142.929 63.482 143.886 64.0671H143.885Z" fill="url(#paint26_linear_3929_33156)"/>
<path d="M105.349 112.331C105.349 112.331 134.174 94.3892 169.877 112.28C169.877 112.28 165.326 127.642 138.163 128.654C110.197 129.695 105.349 112.331 105.349 112.331Z" fill="url(#paint27_linear_3929_33156)"/>
<path d="M133.05 88.9748L131.969 97.5423C131.601 100.466 129.71 102.911 127.08 103.858L118.292 107.024C118.292 107.024 135.115 115.654 156.386 107.017L146.685 103.419C143.933 102.317 142.057 99.5426 141.937 96.3892L141.659 89.0732L133.05 88.9739V88.9748Z" fill="url(#paint28_linear_3929_33156)"/>
<path d="M134.185 94.7742C129.765 93.512 127.397 89.6608 125.992 87.3778C123.639 83.5507 120.39 75.63 123.448 71.1284C123.62 70.8761 123.818 70.7518 124.172 70.3072C126.25 67.6977 126.01 65.5596 126.818 64.1909C128.767 60.8862 136.699 62.2737 137.181 62.3623C145.656 63.9243 149.331 71.6866 149.404 71.8602C149.47 72.0176 149.536 72.1796 149.536 72.1796C150.05 73.4382 152.993 80.6531 149.3 87.4118C146.339 92.8303 139.958 96.4239 134.186 94.7751L134.185 94.7742Z" fill="url(#paint29_linear_3929_33156)"/>
<path d="M146.171 81.5596C146.171 88.7942 142.078 96.536 137.006 96.4984C131.906 96.4599 127.751 88.5795 127.751 81.2742C127.751 73.969 131.906 70.0614 137.006 70.1715C142.079 70.2806 146.171 74.3259 146.171 81.5605V81.5596Z" fill="url(#paint30_linear_3929_33156)"/>
<path d="M127.443 85.9823C128.322 85.9429 127.053 78.3398 130.458 76.2751C132.72 74.9037 136.645 76.2214 138.852 78.7263C142.332 82.6741 140.384 88.2725 143.02 89.498C144.694 90.2763 146.928 88.6893 147.999 87.521C151.343 83.8737 150.886 76.0693 146.934 71.6161C143.784 68.0672 139.51 67.8767 138.493 67.865C132.676 67.7961 127.336 72.3264 126.112 77.7386C125.171 81.8976 126.792 86.0118 127.442 85.9823H127.443Z" fill="url(#paint31_linear_3929_33156)"/>
</g>
<g style="mix-blend-mode:soft-light" opacity="0.35">
<path d="M146.141 181.753C144.39 159.187 157.521 149.854 152.516 129.418C146.325 104.144 122.477 103.032 114.342 78.195C111.352 69.0657 110.095 55.4634 117.869 35.9264L85.2257 34.6481C84.2542 34.6096 83.4634 35.4013 83.4634 36.4113V234.212C83.4634 235.223 84.2542 235.994 85.2257 235.931L174.405 230.195C153.333 212.094 147.173 195.047 146.142 181.752L146.141 181.753Z" fill="white"/>
</g>
<g style="mix-blend-mode:multiply">
<path d="M183.814 63.8686L174.379 56.3889L164.847 63.4124V39.8112C164.847 37.9711 164.019 36.2016 162.6 35.0153L162.526 34.9536L180.516 35.6603C182.339 35.7319 183.815 37.3171 183.815 39.202V63.8686H183.814Z" fill="#D8DEE8"/>
</g>
<path d="M185.54 63.8687L176.105 55.9516L166.573 63.3856V38.4042C166.573 36.4566 165.745 34.5834 164.326 33.3282L164.252 33.2629L182.242 34.0108C184.065 34.0869 185.541 35.7651 185.541 37.7592V63.8687H185.54Z" fill="url(#paint32_linear_3929_33156)"/>
</g>
<defs>
<linearGradient id="paint0_linear_3929_33156" x1="40.4624" y1="35.1788" x2="68.5942" y2="123.99" gradientUnits="userSpaceOnUse">
<stop stop-color="#FF9085"/>
<stop offset="1" stop-color="#FB6FBB"/>
</linearGradient>
<linearGradient id="paint1_linear_3929_33156" x1="54.1622" y1="7.8392" x2="90.138" y2="140.759" gradientUnits="userSpaceOnUse">
<stop stop-color="#FFC444"/>
<stop offset="1" stop-color="#F36F56"/>
</linearGradient>
<linearGradient id="paint2_linear_3929_33156" x1="12.2944" y1="136.522" x2="115.46" y2="136.522" gradientUnits="userSpaceOnUse">
<stop stop-color="#444B8C"/>
<stop offset="1" stop-color="#26264F"/>
</linearGradient>
<linearGradient id="paint3_linear_3929_33156" x1="12.2939" y1="136.522" x2="115.459" y2="136.522" gradientUnits="userSpaceOnUse">
<stop stop-color="#444B8C"/>
<stop offset="1" stop-color="#26264F"/>
</linearGradient>
<linearGradient id="paint4_linear_3929_33156" x1="109.98" y1="61.3984" x2="43.5024" y2="170.18" gradientUnits="userSpaceOnUse">
<stop stop-color="white"/>
<stop offset="1" stop-color="#EBEFF2"/>
</linearGradient>
<linearGradient id="paint5_linear_3929_33156" x1="26.3672" y1="143.569" x2="106.641" y2="143.569" gradientUnits="userSpaceOnUse">
<stop stop-color="#AA80F9"/>
<stop offset="1" stop-color="#6165D7"/>
</linearGradient>
<linearGradient id="paint6_linear_3929_33156" x1="37.0439" y1="121.242" x2="96.8984" y2="121.242" gradientUnits="userSpaceOnUse">
<stop stop-color="#FF9085"/>
<stop offset="1" stop-color="#FB6FBB"/>
</linearGradient>
<linearGradient id="paint7_linear_3929_33156" x1="67.1929" y1="120.101" x2="65.0799" y2="87.753" gradientUnits="userSpaceOnUse">
<stop stop-color="#893976"/>
<stop offset="1" stop-color="#311944"/>
</linearGradient>
<linearGradient id="paint8_linear_3929_33156" x1="70.9253" y1="90.7664" x2="35.9772" y2="115.636" gradientUnits="userSpaceOnUse">
<stop stop-color="#893976"/>
<stop offset="1" stop-color="#311944"/>
</linearGradient>
<linearGradient id="paint9_linear_3929_33156" x1="154.867" y1="135.13" x2="244.497" y2="135.13" gradientUnits="userSpaceOnUse">
<stop stop-color="#444B8C"/>
<stop offset="1" stop-color="#26264F"/>
</linearGradient>
<linearGradient id="paint10_linear_3929_33156" x1="154.867" y1="135.13" x2="244.497" y2="135.13" gradientUnits="userSpaceOnUse">
<stop stop-color="#444B8C"/>
<stop offset="1" stop-color="#26264F"/>
</linearGradient>
<linearGradient id="paint11_linear_3929_33156" x1="193.154" y1="137.616" x2="234.916" y2="112.503" gradientUnits="userSpaceOnUse">
<stop stop-color="white"/>
<stop offset="1" stop-color="#EBEFF2"/>
</linearGradient>
<linearGradient id="paint12_linear_3929_33156" x1="167.307" y1="141.733" x2="237.052" y2="141.733" gradientUnits="userSpaceOnUse">
<stop stop-color="#AA80F9"/>
<stop offset="1" stop-color="#6165D7"/>
</linearGradient>
<linearGradient id="paint13_linear_3929_33156" x1="176.554" y1="120.993" x2="228.56" y2="120.993" gradientUnits="userSpaceOnUse">
<stop stop-color="#AB316D"/>
<stop offset="1" stop-color="#792D3D"/>
</linearGradient>
<linearGradient id="paint14_linear_3929_33156" x1="202.232" y1="102.312" x2="202.329" y2="121.218" gradientUnits="userSpaceOnUse">
<stop stop-color="#F36F56"/>
<stop offset="1" stop-color="#FFC444"/>
</linearGradient>
<linearGradient id="paint15_linear_3929_33156" x1="204.997" y1="76.358" x2="200.246" y2="105.7" gradientUnits="userSpaceOnUse">
<stop stop-color="#F36F56"/>
<stop offset="1" stop-color="#FFC444"/>
</linearGradient>
<linearGradient id="paint16_linear_3929_33156" x1="202.489" y1="82.3811" x2="200.18" y2="96.6409" gradientUnits="userSpaceOnUse">
<stop stop-color="#444B8C"/>
<stop offset="1" stop-color="#26264F"/>
</linearGradient>
<linearGradient id="paint17_linear_3929_33156" x1="212.582" y1="77.8676" x2="207.874" y2="106.937" gradientUnits="userSpaceOnUse">
<stop stop-color="#F36F56"/>
<stop offset="1" stop-color="#FFC444"/>
</linearGradient>
<linearGradient id="paint18_linear_3929_33156" x1="197.89" y1="74.8507" x2="193.084" y2="104.529" gradientUnits="userSpaceOnUse">
<stop stop-color="#F36F56"/>
<stop offset="1" stop-color="#FFC444"/>
</linearGradient>
<linearGradient id="paint19_linear_3929_33156" x1="221.391" y1="113.735" x2="175.448" y2="214.196" gradientUnits="userSpaceOnUse">
<stop stop-color="#AA80F9"/>
<stop offset="1" stop-color="#6165D7"/>
</linearGradient>
<linearGradient id="paint20_linear_3929_33156" x1="232.211" y1="143.03" x2="175.316" y2="219.126" gradientUnits="userSpaceOnUse">
<stop stop-color="#E38DDD"/>
<stop offset="1" stop-color="#9571F6"/>
</linearGradient>
<linearGradient id="paint21_linear_3929_33156" x1="212.177" y1="176.114" x2="180.061" y2="231.794" gradientUnits="userSpaceOnUse">
<stop stop-color="#FFC444"/>
<stop offset="1" stop-color="#F36F56"/>
</linearGradient>
<linearGradient id="paint22_linear_3929_33156" x1="78.1797" y1="135.293" x2="189.382" y2="135.293" gradientUnits="userSpaceOnUse">
<stop stop-color="#444B8C"/>
<stop offset="1" stop-color="#26264F"/>
</linearGradient>
<linearGradient id="paint23_linear_3929_33156" x1="161.009" y1="34.882" x2="168.492" y2="34.882" gradientUnits="userSpaceOnUse">
<stop stop-color="#AB316D"/>
<stop offset="1" stop-color="#792D3D"/>
</linearGradient>
<linearGradient id="paint24_linear_3929_33156" x1="189.357" y1="45.7347" x2="110.159" y2="175.332" gradientUnits="userSpaceOnUse">
<stop stop-color="white"/>
<stop offset="1" stop-color="#EBEFF2"/>
</linearGradient>
<linearGradient id="paint25_linear_3929_33156" x1="93.9072" y1="144.081" x2="180.444" y2="144.081" gradientUnits="userSpaceOnUse">
<stop stop-color="#AA80F9"/>
<stop offset="1" stop-color="#6165D7"/>
</linearGradient>
<linearGradient id="paint26_linear_3929_33156" x1="173.808" y1="50.2439" x2="105.933" y2="131.508" gradientUnits="userSpaceOnUse">
<stop stop-color="#AB316D"/>
<stop offset="1" stop-color="#792D3D"/>
</linearGradient>
<linearGradient id="paint27_linear_3929_33156" x1="142.326" y1="90.5755" x2="135.508" y2="122.01" gradientUnits="userSpaceOnUse">
<stop stop-color="#AA80F9"/>
<stop offset="1" stop-color="#6165D7"/>
</linearGradient>
<linearGradient id="paint28_linear_3929_33156" x1="137.261" y1="91.892" x2="137.392" y2="117.236" gradientUnits="userSpaceOnUse">
<stop stop-color="#F36F56"/>
<stop offset="1" stop-color="#FFC444"/>
</linearGradient>
<linearGradient id="paint29_linear_3929_33156" x1="163.466" y1="45.5753" x2="104.136" y2="116.609" gradientUnits="userSpaceOnUse">
<stop stop-color="#AB316D"/>
<stop offset="1" stop-color="#792D3D"/>
</linearGradient>
<linearGradient id="paint30_linear_3929_33156" x1="140.879" y1="55.1012" x2="135.012" y2="94.6376" gradientUnits="userSpaceOnUse">
<stop stop-color="#F36F56"/>
<stop offset="1" stop-color="#FFC444"/>
</linearGradient>
<linearGradient id="paint31_linear_3929_33156" x1="165.642" y1="47.3923" x2="106.311" y2="118.426" gradientUnits="userSpaceOnUse">
<stop stop-color="#AB316D"/>
<stop offset="1" stop-color="#792D3D"/>
</linearGradient>
<linearGradient id="paint32_linear_3929_33156" x1="187.731" y1="25.819" x2="159.12" y2="76.5272" gradientUnits="userSpaceOnUse">
<stop stop-color="#FF9085"/>
<stop offset="1" stop-color="#FB6FBB"/>
</linearGradient>
<clipPath id="clip0_3929_33156">
<rect width="257.28" height="255.637" fill="white" transform="translate(0.359863 0.0927734)"/>
</clipPath>
</defs>
</svg>
