<svg width="24" height="25" viewBox="0 0 24 25" fill="none" xmlns="http://www.w3.org/2000/svg">
<path d="M3 6.10425L6.10557 4.55146C6.66863 4.26993 7.33137 4.26993 7.89443 4.55146L9.31672 5.26261C11.0059 6.10719 12.9941 6.10719 14.6833 5.26261L16.1056 4.55146C16.6686 4.26993 17.3314 4.26993 17.8944 4.55146L21 6.10425M3 10.6042L6.10557 9.05146C6.66863 8.76993 7.33137 8.76993 7.89443 9.05146L9.31672 9.76261C11.0059 10.6072 12.9941 10.6072 14.6833 9.76261L16.1056 9.05146C16.6686 8.76993 17.3314 8.76993 17.8944 9.05146L21 10.6042M3 15.1042L6.10557 13.5515C6.66863 13.2699 7.33137 13.2699 7.89443 13.5515L9.31672 14.2626C11.0059 15.1072 12.9941 15.1072 14.6833 14.2626L16.1056 13.5515C16.6686 13.2699 17.3314 13.2699 17.8944 13.5515L21 15.1042M3 19.6042L6.10557 18.0515C6.66863 17.7699 7.33137 17.7699 7.89443 18.0515L9.31672 18.7626C11.0059 19.6072 12.9941 19.6072 14.6833 18.7626L16.1056 18.0515C16.6686 17.7699 17.3314 17.7699 17.8944 18.0515L21 19.6042" stroke="black" stroke-width="2" stroke-linecap="round" stroke-linejoin="round"/>
</svg>
