<svg width="25" height="25" viewBox="0 0 25 25" fill="none" xmlns="http://www.w3.org/2000/svg">
<path d="M15.3808 10.5438L11.3808 14.5438L9.38081 12.5438M13.6269 4.00274L14.8479 5.04324C15.1555 5.30537 15.5374 5.46385 15.9403 5.496L17.5393 5.62344C18.4795 5.69846 19.2262 6.44474 19.3012 7.38487L19.4284 8.98418C19.4605 9.38705 19.6196 9.76954 19.8817 10.0771L20.9217 11.2978C21.5335 12.0156 21.5336 13.0715 20.9218 13.7893L19.8818 15.0101C19.6196 15.3177 19.4608 15.7004 19.4287 16.1032L19.3007 17.7023C19.2257 18.6424 18.4801 19.3891 17.54 19.4642L15.9404 19.5918C15.5375 19.6239 15.1552 19.782 14.8476 20.0441L13.6269 21.0847C12.9091 21.6964 11.8525 21.6965 11.1347 21.0848L9.91401 20.0442C9.60641 19.7821 9.22411 19.6238 8.82124 19.5916L7.22163 19.4642C6.2815 19.3891 5.53591 18.6426 5.46089 17.7024L5.33296 16.1033C5.30081 15.7005 5.14197 15.3182 4.87984 15.0106L3.8398 13.7894C3.22807 13.0715 3.22778 12.016 3.83951 11.2981L4.88048 10.077C5.14262 9.76935 5.29993 9.38705 5.33208 8.98418L5.46001 7.38506C5.53503 6.44493 6.28278 5.69837 7.22291 5.62334L8.82075 5.4959C9.22362 5.46375 9.60611 5.3054 9.91371 5.04327L11.1348 4.00274C11.8526 3.39101 12.9091 3.39101 13.6269 4.00274Z" stroke="#0C6DFF" stroke-width="2" stroke-linecap="round" stroke-linejoin="round"/>
</svg>
