<svg width="25" height="24" viewBox="0 0 25 24" fill="none" xmlns="http://www.w3.org/2000/svg">
<path d="M9.32227 14.5899C9.78811 14.0903 10.3514 13.6915 10.9773 13.418C11.6032 13.1446 12.279 13.0025 12.9621 13.0001C13.6451 12.9977 14.3213 13.1353 14.9492 13.4044C15.577 13.6735 16.1432 14.0683 16.6125 14.5646M7.12891 11.5439C7.87425 10.7446 8.77546 10.1066 9.77694 9.66902C10.7784 9.23148 11.8588 9.00389 12.9516 9.00007C14.0445 8.99626 15.1261 9.21651 16.1306 9.64704C17.1351 10.0776 18.0412 10.7094 18.7921 11.5035M4.20312 8.81635C5.32114 7.61742 6.67296 6.66028 8.17518 6.00398C9.6774 5.34768 11.2974 5.0058 12.9367 5.00007C14.576 4.99435 16.2003 5.32472 17.7071 5.97052C19.2139 6.61632 20.5726 7.56458 21.699 8.75568M12.9795 19.0001C12.4272 19.0001 11.9795 18.5524 11.9795 18.0001C11.9795 17.4478 12.4272 17.0001 12.9795 17.0001C13.5318 17.0001 13.9795 17.4478 13.9795 18.0001C13.9795 18.5524 13.5318 19.0001 12.9795 19.0001Z" stroke="black" stroke-width="2" stroke-linecap="round" stroke-linejoin="round"/>
</svg>
