<svg width="52" height="52" viewBox="0 0 52 52" fill="none" xmlns="http://www.w3.org/2000/svg">
<path d="M29.5895 20.6795H9.19857C8.37193 20.6795 7.68103 20.0507 7.60346 19.2278L6.31825 5.59332C6.23071 4.66528 6.95097 3.85877 7.88289 3.84104L29.559 3.42827C30.4556 3.41128 31.1918 4.13339 31.1918 5.03022V19.0774C31.1918 19.9622 30.4745 20.6795 29.5896 20.6795H29.5895Z" fill="#7D97F4"/>
<path opacity="0.87" d="M7.62134 6.80858L8.53275 18.5984C8.57228 19.1105 8.99668 19.5076 9.51028 19.5129L29.081 19.7179C29.6323 19.7237 30.0823 19.2784 30.0823 18.7271V6.0342C30.0823 5.47369 29.6179 5.02472 29.0577 5.04393L8.57542 5.74203C8.01176 5.76124 7.57776 6.2464 7.62116 6.80876L7.62134 6.80858Z" fill="white"/>
<path d="M18.0698 6.70072L29.1061 6.37069C29.2194 6.36737 29.3128 6.45805 29.3128 6.57126V6.74893C29.3128 6.85863 29.2247 6.94801 29.1148 6.94949L18.0785 7.10186C17.9666 7.10333 17.875 7.01321 17.875 6.90129C17.875 6.79288 17.9612 6.70405 18.0697 6.70072H18.0698Z" fill="#7D97F4"/>
<path d="M18.0758 7.62598H29.1121C29.2229 7.62598 29.3128 7.71592 29.3128 7.82673V7.90245C29.3128 8.01326 29.2229 8.1032 29.1121 8.1032H18.0758C17.9649 8.1032 17.875 8.01326 17.875 7.90245V7.82673C17.875 7.71592 17.9649 7.62598 18.0758 7.62598Z" fill="#7D97F4"/>
<path d="M15.1799 17.751C15.1302 17.751 15.0899 17.7107 15.0897 17.6612L15.089 17.391C15.089 17.3414 15.1291 17.3009 15.1787 17.3007H15.1789C15.2286 17.3007 15.2689 17.341 15.2691 17.3905L15.2698 17.6607C15.2698 17.7104 15.2297 17.751 15.18 17.751H15.1799ZM15.1774 16.8505C15.1278 16.8505 15.0875 16.8102 15.0873 16.7607L15.0866 16.4905C15.0866 16.4408 15.1267 16.4004 15.1763 16.4002H15.1765C15.2262 16.4002 15.2665 16.4405 15.2667 16.49L15.2674 16.7602C15.2674 16.8098 15.2273 16.8503 15.1776 16.8505H15.1774ZM15.1752 15.9501C15.1256 15.9501 15.0853 15.9099 15.0851 15.8604L15.0844 15.5902C15.0844 15.5405 15.1244 15.4999 15.1741 15.4999H15.1743C15.224 15.4999 15.2643 15.5401 15.2644 15.5896L15.2652 15.8598C15.2652 15.9095 15.2251 15.95 15.1754 15.9501H15.1752ZM15.173 15.0496C15.1233 15.0496 15.0831 15.0094 15.0829 14.9599L15.0822 14.6897C15.0822 14.6398 15.1222 14.5994 15.1719 14.5994H15.1721C15.2218 14.5994 15.262 14.6396 15.2622 14.6891L15.263 14.9593C15.263 15.0092 15.2229 15.0496 15.1732 15.0496H15.173Z" fill="url(#paint0_linear_3847_34761)"/>
<path d="M19.7021 17.4943C19.6524 17.4943 19.6119 17.4541 19.6119 17.4042V17.134C19.6119 17.0842 19.6522 17.0439 19.7021 17.0439C19.7519 17.0439 19.7922 17.0842 19.7922 17.134V17.4042C19.7922 17.4539 19.7519 17.4943 19.7021 17.4943ZM19.7021 16.594C19.6524 16.594 19.6119 16.5537 19.6119 16.5039V16.2337C19.6119 16.1838 19.6522 16.1436 19.7021 16.1436C19.7519 16.1436 19.7922 16.1838 19.7922 16.2337V16.5039C19.7922 16.5537 19.7519 16.594 19.7021 16.594ZM19.7021 15.6935C19.6524 15.6935 19.6119 15.6532 19.6119 15.6034V15.3332C19.6119 15.2835 19.6522 15.243 19.7021 15.243C19.7519 15.243 19.7922 15.2833 19.7922 15.3332V15.6034C19.7922 15.653 19.7519 15.6935 19.7021 15.6935ZM19.7021 14.7932C19.6524 14.7932 19.6119 14.7529 19.6119 14.703V14.4328C19.6119 14.3832 19.6522 14.3427 19.7021 14.3427C19.7519 14.3427 19.7922 14.383 19.7922 14.4328V14.703C19.7922 14.7527 19.7519 14.7932 19.7021 14.7932ZM19.7021 13.8928C19.6524 13.8928 19.6119 13.8526 19.6119 13.8027V13.5325C19.6119 13.4828 19.6522 13.4424 19.7021 13.4424C19.7519 13.4424 19.7922 13.4826 19.7922 13.5325V13.8027C19.7922 13.8524 19.7519 13.8928 19.7021 13.8928Z" fill="url(#paint1_linear_3847_34761)"/>
<path d="M23.1514 18.2384C23.103 18.2384 23.0629 18.1998 23.0615 18.1513L23.0565 17.99C23.055 17.9404 23.094 17.8988 23.1436 17.8971C23.1946 17.8938 23.2349 17.9346 23.2365 17.9843L23.2415 18.1455C23.243 18.1952 23.204 18.2368 23.1543 18.2384H23.1516H23.1514ZM23.1268 17.4472C23.0784 17.4472 23.0384 17.4086 23.0369 17.3601L23.0286 17.0901C23.0271 17.0404 23.0661 16.9988 23.1157 16.9972C23.1665 16.9957 23.207 17.0347 23.2086 17.0843L23.217 17.3544C23.2184 17.404 23.1795 17.4456 23.1298 17.4472H23.127H23.1268ZM23.0989 16.5473C23.0506 16.5473 23.0105 16.5087 23.009 16.4601L23.0007 16.1901C22.9992 16.1404 23.0382 16.0989 23.0879 16.0972C23.1359 16.0976 23.1791 16.1349 23.1806 16.1844L23.1889 16.4544C23.1904 16.5041 23.1514 16.5456 23.1017 16.5473H23.0989ZM23.0711 15.6473C23.0227 15.6473 22.9826 15.6087 22.9811 15.5602L22.9728 15.2901C22.9713 15.2405 23.0103 15.1989 23.06 15.1973C23.1078 15.1949 23.1512 15.2347 23.1527 15.2844L23.161 15.5544C23.1625 15.6041 23.1235 15.6457 23.0738 15.6473H23.0711ZM23.0432 14.7474C22.9948 14.7474 22.9547 14.7088 22.9532 14.6602L22.9449 14.3902C22.9434 14.3405 22.9824 14.299 23.0321 14.2973C23.082 14.2967 23.1233 14.3348 23.125 14.3845L23.1333 14.6545C23.1348 14.7041 23.0958 14.7457 23.0461 14.7474H23.0434H23.0432ZM23.0151 13.8474C22.9667 13.8474 22.9266 13.8088 22.9252 13.7602L22.9168 13.4902C22.9154 13.4405 22.9543 13.399 23.004 13.3973C23.0537 13.3938 23.0952 13.4348 23.0969 13.4845L23.1052 13.7545C23.1067 13.8042 23.0677 13.8457 23.0181 13.8474H23.0153H23.0151ZM22.9872 12.9474C22.9388 12.9474 22.8987 12.9088 22.8973 12.8603L22.889 12.5903C22.8875 12.5406 22.9264 12.499 22.9761 12.4974C23.0278 12.4957 23.0674 12.5349 23.069 12.5845L23.0773 12.8545C23.0788 12.9042 23.0398 12.9458 22.9902 12.9474H22.9872Z" fill="url(#paint2_linear_3847_34761)"/>
<path d="M26.4301 17.7346C26.3804 17.7346 26.34 17.6943 26.34 17.6445V17.3743C26.34 17.3244 26.3802 17.2841 26.4301 17.2841C26.48 17.2841 26.5202 17.3244 26.5202 17.3743V17.6445C26.5202 17.6943 26.48 17.7346 26.4301 17.7346ZM26.4301 16.8342C26.3804 16.8342 26.34 16.794 26.34 16.7441V16.4739C26.34 16.4243 26.3802 16.3838 26.4301 16.3838C26.48 16.3838 26.5202 16.4241 26.5202 16.4739V16.7441C26.5202 16.794 26.48 16.8342 26.4301 16.8342ZM26.4301 15.9337C26.3804 15.9337 26.34 15.8935 26.34 15.8436V15.5734C26.34 15.5237 26.3802 15.4833 26.4301 15.4833C26.48 15.4833 26.5202 15.5236 26.5202 15.5734V15.8436C26.5202 15.8933 26.48 15.9337 26.4301 15.9337ZM26.4301 15.0334C26.3804 15.0334 26.34 14.9931 26.34 14.9433V14.6731C26.34 14.6234 26.3802 14.583 26.4301 14.583C26.48 14.583 26.5202 14.6232 26.5202 14.6731V14.9433C26.5202 14.993 26.48 15.0334 26.4301 15.0334ZM26.4301 14.1329C26.3804 14.1329 26.34 14.0926 26.34 14.0428V13.7726C26.34 13.7227 26.3802 13.6824 26.4301 13.6824C26.48 13.6824 26.5202 13.7227 26.5202 13.7726V14.0428C26.5202 14.0926 26.48 14.1329 26.4301 14.1329ZM26.4301 13.2326C26.3804 13.2326 26.34 13.1923 26.34 13.1424V12.8722C26.34 12.8224 26.3802 12.7821 26.4301 12.7821C26.48 12.7821 26.5202 12.8224 26.5202 12.8722V13.1424C26.5202 13.1923 26.48 13.2326 26.4301 13.2326ZM26.4301 12.332C26.3804 12.332 26.34 12.2918 26.34 12.2419V11.9717C26.34 11.922 26.3802 11.8816 26.4301 11.8816C26.48 11.8816 26.5202 11.9219 26.5202 11.9717V12.2419C26.5202 12.2916 26.48 12.332 26.4301 12.332ZM26.4301 11.4317C26.3804 11.4317 26.34 11.3914 26.34 11.3416V11.0714C26.34 11.0217 26.3802 10.9813 26.4301 10.9813C26.48 10.9813 26.5202 11.0215 26.5202 11.0714V11.3416C26.5202 11.3913 26.48 11.4317 26.4301 11.4317ZM26.4301 10.5314C26.3804 10.5314 26.34 10.4911 26.34 10.4413V10.1711C26.34 10.1212 26.3802 10.0809 26.4301 10.0809C26.48 10.0809 26.5202 10.1212 26.5202 10.1711V10.4413C26.5202 10.4909 26.48 10.5314 26.4301 10.5314Z" fill="url(#paint3_linear_3847_34761)"/>
<path d="M10.3389 18.7975C10.2694 18.7975 10.2103 18.7443 10.2044 18.6739L9.28137 7.77301C9.27509 7.69858 9.33013 7.63321 9.40456 7.62693C9.47935 7.62286 9.54418 7.67587 9.55046 7.75011L10.4735 18.651C10.4798 18.7255 10.4247 18.7909 10.3503 18.7971C10.3464 18.7973 10.3426 18.7975 10.3389 18.7975Z" fill="url(#paint4_linear_3847_34761)"/>
<path d="M9.00486 8.33609L9.42261 7.84095L9.91756 8.25889L9.88469 7.87143L9.38974 7.45386L8.97217 7.94862L9.00486 8.33609Z" fill="url(#paint5_linear_3847_34761)"/>
<path d="M28.6319 18.2834H9.6383C9.56369 18.2834 9.5033 18.2229 9.5033 18.1484C9.5033 18.074 9.56369 18.0134 9.6383 18.0134H28.6319C28.7065 18.0134 28.7669 18.074 28.7669 18.1484C28.7669 18.2229 28.7065 18.2834 28.6319 18.2834Z" fill="url(#paint6_linear_3847_34761)"/>
<path d="M28.0939 18.6063L28.5521 18.1484L28.0939 17.6904H28.4826L28.9406 18.1484L28.4826 18.6063H28.0939Z" fill="url(#paint7_linear_3847_34761)"/>
<path d="M11.1289 15.1514C11.0622 15.1514 11.0043 15.1021 10.9952 15.0341C10.9854 14.9602 11.0373 14.8921 11.1112 14.8823C11.2109 14.869 21.1556 13.5073 26.5995 9.49322C26.6595 9.4489 26.7441 9.46164 26.7884 9.52166C26.8325 9.58168 26.8198 9.66627 26.7598 9.71059C21.2597 13.7662 11.2473 15.1368 11.1468 15.1503C11.1407 15.151 11.1348 15.1514 11.1289 15.1514Z" fill="url(#paint8_linear_3847_34761)"/>
<path d="M26.7216 10.3203C26.7181 10.3203 26.7144 10.3203 26.7109 10.32C26.6364 10.3142 26.581 10.249 26.5868 10.1748L26.6285 9.64421L25.8805 9.59988C25.8061 9.59545 25.7492 9.53155 25.7537 9.45712C25.7581 9.3827 25.8214 9.32434 25.8964 9.33025L26.7818 9.3827C26.818 9.38473 26.8518 9.40135 26.8756 9.42868C26.8994 9.45602 26.9113 9.49184 26.9085 9.52804L26.856 10.1959C26.8505 10.2666 26.7914 10.3203 26.7216 10.3203Z" fill="url(#paint9_linear_3847_34761)"/>
<path d="M2.26046 15.9636C2.19065 15.7349 2.45918 15.5525 2.64829 15.6987C4.56918 17.1838 9.27898 21.7314 9.05662 30.4913C8.77775 41.482 11.4219 45.2283 14.4712 47.3754C14.4712 47.3754 10.4935 46.6103 7.67279 42.8221C0.747531 33.5212 3.50061 20.0301 2.26046 15.9636Z" fill="#7D97F4"/>
<g style="mix-blend-mode:soft-light">
<path d="M3.92788 19.2276C4.26456 20.4159 4.57778 21.61 4.84668 22.8138C5.12186 24.0161 5.36066 25.2261 5.56122 26.4419C5.75717 27.6584 5.93022 28.8783 6.05137 30.1038C6.17788 31.3286 6.25175 32.5577 6.32138 33.7918C6.39802 35.0247 6.4682 36.2674 6.66581 37.5067C6.86176 38.7435 7.2086 39.9766 7.77059 41.11C7.91095 41.3924 8.05703 41.6733 8.21826 41.9429C8.37451 42.2155 8.54294 42.4815 8.7158 42.7441C9.06467 43.2679 9.44862 43.7695 9.86823 44.24C10.71 45.1795 11.694 45.9901 12.7563 46.654C12.868 46.7238 13.0154 46.6899 13.0852 46.5781C13.1539 46.4684 13.1223 46.3244 13.0152 46.2531L13.0145 46.2525C12.7607 46.0837 12.5092 45.9122 12.2662 45.7301C12.1432 45.6409 12.0244 45.5465 11.9038 45.4543C11.7869 45.3577 11.6663 45.2658 11.5525 45.1657C11.0908 44.7732 10.6574 44.3486 10.2574 43.8941C9.4538 42.9901 8.78118 41.9614 8.24246 40.8797C7.9791 40.3356 7.75637 39.7731 7.5776 39.1954C7.39938 38.6175 7.26511 38.0251 7.16464 37.4243C6.96352 36.2224 6.88393 34.9931 6.7986 33.7607C6.71162 32.5281 6.61558 31.2902 6.46876 30.058C6.3971 29.4419 6.31418 28.8269 6.22054 28.2139C6.17548 27.9072 6.12432 27.6013 6.0739 27.2955C6.02053 26.99 5.96531 26.685 5.90787 26.3804C5.67536 25.1626 5.40572 23.9524 5.09822 22.7525C4.785 21.5541 4.4402 20.3642 4.04996 19.1898C4.03888 19.1561 4.0025 19.138 3.96907 19.1491C3.93656 19.16 3.91846 19.1946 3.9277 19.2274L3.92788 19.2276Z" fill="white"/>
</g>
<path d="M6.09695 49.6771C5.95622 50.0391 5.49137 50.1398 5.20992 49.8722C3.65691 48.3949 -0.356256 43.821 0.220325 36.444C0.707151 30.2147 0.379153 26.7904 0.122628 25.2463C0.068331 24.9198 0.462445 24.7139 0.700133 24.9443C3.32116 27.4871 11.197 36.5576 6.09695 49.6771Z" fill="#91B3FA"/>
<g style="mix-blend-mode:soft-light">
<path d="M5.5714 49.6681C5.56327 49.6733 5.55459 49.6777 5.54517 49.6812C5.46705 49.7115 5.37914 49.6727 5.34904 49.5946C5.31469 49.5061 1.92131 40.6413 2.20702 31.9492C2.20979 31.8655 2.27978 31.8 2.36363 31.8026C2.44729 31.8053 2.51304 31.8753 2.51027 31.9592C2.22659 40.5881 5.59781 49.397 5.63197 49.4851C5.65857 49.5538 5.63179 49.6302 5.57158 49.6681H5.5714Z" fill="white"/>
</g>
<path d="M3.75649 35.8098H16.1305C16.1676 35.8098 16.1975 35.8399 16.1975 35.8769V38.1252C16.1975 38.1623 16.1674 38.1922 16.1305 38.1922H3.75649C3.71937 38.1922 3.68945 38.1621 3.68945 38.1252V35.8769C3.68945 35.8397 3.71956 35.8098 3.75649 35.8098Z" fill="url(#paint10_linear_3847_34761)"/>
<path d="M3.76577 38.452H16.1396C16.1767 38.452 16.2066 38.4821 16.2066 38.5191V40.7674C16.2066 40.8045 16.1765 40.8344 16.1396 40.8344H3.76577C3.72865 40.8344 3.69873 40.8043 3.69873 40.7674V38.5191C3.69873 38.4819 3.72883 38.452 3.76577 38.452Z" fill="url(#paint11_linear_3847_34761)"/>
<path d="M16.1501 41.0944H3.77615C3.73912 41.0944 3.70911 41.1244 3.70911 41.1614V43.4097C3.70911 43.4468 3.73912 43.4768 3.77615 43.4768H16.1501C16.1871 43.4768 16.2172 43.4468 16.2172 43.4097V41.1614C16.2172 41.1244 16.1871 41.0944 16.1501 41.0944Z" fill="url(#paint12_linear_3847_34761)"/>
<path d="M16.1599 43.7369H3.78591C3.74889 43.7369 3.71887 43.767 3.71887 43.804V46.0523C3.71887 46.0893 3.74889 46.1194 3.78591 46.1194H16.1599C16.1969 46.1194 16.2269 46.0893 16.2269 46.0523V43.804C16.2269 43.767 16.1969 43.7369 16.1599 43.7369Z" fill="url(#paint13_linear_3847_34761)"/>
<path d="M3.79568 46.3794H16.1695C16.2066 46.3794 16.2365 46.4095 16.2365 46.4464V48.6948C16.2365 48.7319 16.2064 48.7618 16.1695 48.7618H3.79568C3.75856 48.7618 3.72864 48.7317 3.72864 48.6948V46.4464C3.72864 46.4093 3.75874 46.3794 3.79568 46.3794Z" fill="url(#paint14_linear_3847_34761)"/>
<path d="M3.79568 48.994H16.1695C16.2066 48.994 16.2365 49.0241 16.2365 49.0611V51.3094C16.2365 51.3465 16.2064 51.3764 16.1695 51.3764H3.79568C3.75856 51.3764 3.72864 51.3463 3.72864 51.3094V49.0611C3.72864 49.0239 3.75874 48.994 3.79568 48.994Z" fill="url(#paint15_linear_3847_34761)"/>
<path d="M14.2031 33.0162C16.6961 30.5232 16.6961 26.4814 14.2031 23.9884C11.7102 21.4955 7.66832 21.4955 5.17537 23.9884C2.68243 26.4814 2.68243 30.5232 5.17537 33.0162C7.66831 35.5091 11.7102 35.5091 14.2031 33.0162Z" fill="url(#paint16_linear_3847_34761)"/>
<path d="M14.0531 32.8659C16.4631 30.4559 16.4631 26.5485 14.0531 24.1385C11.6431 21.7285 7.73573 21.7285 5.32573 24.1385C2.91573 26.5485 2.91573 30.4559 5.32573 32.8659C7.73573 35.2759 11.6431 35.2759 14.0531 32.8659Z" fill="url(#paint17_linear_3847_34761)"/>
<path opacity="0.7" d="M4.60042 26.0803C4.579 26.0803 4.5572 26.0755 4.53671 26.0652C4.46689 26.0299 4.43882 25.9448 4.4741 25.875C5.47379 23.8944 7.47206 22.6641 9.68919 22.6641C10.0432 22.6641 10.3976 22.696 10.7423 22.7588C10.8193 22.7728 10.8702 22.8465 10.8562 22.9235C10.8422 23.0006 10.7685 23.0515 10.6915 23.0375C10.3635 22.9777 10.026 22.9474 9.689 22.9474C7.57936 22.9474 5.67805 24.1181 4.72674 26.0028C4.70181 26.0521 4.65195 26.0805 4.60024 26.0805L4.60042 26.0803Z" fill="white"/>
<path opacity="0.78" d="M13.517 32.3305C15.5568 30.2907 15.5568 26.9835 13.517 24.9437C11.4772 22.9039 8.17005 22.9039 6.13026 24.9437C4.09047 26.9835 4.09047 30.2907 6.13026 32.3305C8.17005 34.3702 11.4772 34.3702 13.517 32.3305Z" fill="white"/>
<path d="M9.31153 32.5198V31.9516C8.71907 31.9279 8.13325 31.7881 7.71698 31.6058C7.56831 31.5408 7.49259 31.3741 7.53525 31.2175L7.67967 30.6882C7.73268 30.494 7.94377 30.3936 8.12938 30.4713C8.54214 30.6444 9.05187 30.7812 9.60149 30.7812C10.1511 30.7812 10.5975 30.5879 10.5975 30.1914C10.5975 29.8336 10.2687 29.6209 9.47572 29.4081C8.34416 29.0986 7.53192 28.6055 7.53192 27.6093C7.53192 26.7099 8.18958 26.0232 9.33074 25.8395V25.2712C9.33074 25.0884 9.47904 24.9401 9.66188 24.9401H9.99579C10.1786 24.9401 10.3269 25.0884 10.3269 25.2712V25.7815C10.8751 25.8035 11.2742 25.8971 11.5907 26.0085C11.7529 26.0655 11.8415 26.2402 11.7966 26.4063L11.6638 26.8959C11.6127 27.0846 11.4108 27.188 11.228 27.1188C10.9364 27.0085 10.5242 26.8938 9.9884 26.8938C9.31135 26.8938 9.11799 27.1742 9.11799 27.4257C9.11799 27.7352 9.5241 27.948 10.4041 28.2187C11.6613 28.5959 12.1835 29.1182 12.1835 30.0562C12.1835 30.9168 11.5453 31.6906 10.3075 31.884V32.5198C10.3075 32.7027 10.1592 32.851 9.97639 32.851H9.64249C9.45965 32.851 9.31135 32.7027 9.31135 32.5198H9.31153Z" fill="url(#paint18_linear_3847_34761)"/>
<path d="M30.1771 38.4519H17.8031C17.7661 38.4519 17.7361 38.4819 17.7361 38.5189V40.7673C17.7361 40.8043 17.7661 40.8343 17.8031 40.8343H30.1771C30.2141 40.8343 30.2441 40.8043 30.2441 40.7673V38.5189C30.2441 38.4819 30.2141 38.4519 30.1771 38.4519Z" fill="url(#paint19_linear_3847_34761)"/>
<path d="M17.8129 41.0944H30.1867C30.2238 41.0944 30.2537 41.1245 30.2537 41.1614V43.4097C30.2537 43.4469 30.2236 43.4768 30.1867 43.4768H17.8129C17.7758 43.4768 17.7458 43.4467 17.7458 43.4097V41.1614C17.7458 41.1243 17.776 41.0944 17.8129 41.0944Z" fill="url(#paint20_linear_3847_34761)"/>
<path d="M30.1966 43.7368H17.8227C17.7856 43.7368 17.7556 43.7668 17.7556 43.8039V46.0522C17.7556 46.0892 17.7856 46.1192 17.8227 46.1192H30.1966C30.2337 46.1192 30.2637 46.0892 30.2637 46.0522V43.8039C30.2637 43.7668 30.2337 43.7368 30.1966 43.7368Z" fill="url(#paint21_linear_3847_34761)"/>
<path d="M17.8324 46.3792H30.2062C30.2433 46.3792 30.2732 46.4093 30.2732 46.4462V48.6945C30.2732 48.7316 30.2431 48.7616 30.2062 48.7616H17.8324C17.7953 48.7616 17.7654 48.7315 17.7654 48.6945V46.4462C17.7654 46.4091 17.7955 46.3792 17.8324 46.3792Z" fill="url(#paint22_linear_3847_34761)"/>
<path d="M17.8324 48.9939H30.2062C30.2433 48.9939 30.2732 49.024 30.2732 49.0609V51.3093C30.2732 51.3464 30.2431 51.3763 30.2062 51.3763H17.8324C17.7953 51.3763 17.7654 51.3462 17.7654 51.3093V49.0609C17.7654 49.0238 17.7955 48.9939 17.8324 48.9939Z" fill="url(#paint23_linear_3847_34761)"/>
<path d="M28.0392 35.7211C30.5321 33.2282 30.5321 29.1863 28.0392 26.6934C25.5462 24.2005 21.5044 24.2005 19.0114 26.6934C16.5185 29.1863 16.5185 33.2282 19.0114 35.7211C21.5044 38.2141 25.5462 38.2141 28.0392 35.7211Z" fill="url(#paint24_linear_3847_34761)"/>
<path d="M27.8892 35.571C30.2992 33.161 30.2992 29.2536 27.8892 26.8436C25.4792 24.4336 21.5718 24.4336 19.1618 26.8436C16.7518 29.2536 16.7518 33.161 19.1618 35.571C21.5718 37.981 25.4792 37.981 27.8892 35.571Z" fill="url(#paint25_linear_3847_34761)"/>
<path opacity="0.7" d="M18.4365 28.7853C18.4151 28.7853 18.3933 28.7805 18.3728 28.7701C18.303 28.7349 18.2749 28.6497 18.3102 28.5799C19.3098 26.5994 21.3081 25.369 23.5252 25.369C23.8793 25.369 24.2337 25.401 24.5783 25.4638C24.6553 25.4778 24.7063 25.5515 24.6923 25.6285C24.6782 25.7055 24.6045 25.7565 24.5275 25.7424C24.1995 25.6826 23.8621 25.6523 23.5251 25.6523C21.4154 25.6523 19.5141 26.823 18.5628 28.7077C18.5379 28.757 18.488 28.7855 18.4363 28.7855L18.4365 28.7853Z" fill="white"/>
<path opacity="0.78" d="M27.3532 35.0349C29.393 32.9951 29.393 29.688 27.3532 27.6482C25.3134 25.6084 22.0062 25.6084 19.9664 27.6482C17.9266 29.688 17.9266 32.9951 19.9664 35.0349C22.0062 37.0747 25.3134 37.0747 27.3532 35.0349Z" fill="white"/>
<path d="M23.1471 35.2249V34.6566C22.5546 34.633 21.9688 34.4932 21.5525 34.3109C21.4039 34.2459 21.3282 34.0791 21.3708 33.9225L21.5152 33.3932C21.5682 33.1991 21.7793 33.0987 21.9649 33.1764C22.3777 33.3495 22.8874 33.4863 23.4371 33.4863C23.9867 33.4863 24.4331 33.2929 24.4331 32.8964C24.4331 32.5387 24.1043 32.3259 23.3113 32.1132C22.1797 31.8037 21.3675 31.3106 21.3675 30.3144C21.3675 29.415 22.0252 28.7283 23.1663 28.5445V27.9763C23.1663 27.7934 23.3146 27.6451 23.4974 27.6451H23.8314C24.0142 27.6451 24.1625 27.7934 24.1625 27.9763V28.4866C24.7106 28.5085 25.1097 28.6022 25.4263 28.7135C25.5884 28.7706 25.6771 28.9453 25.6322 29.1113L25.4994 29.6009C25.4483 29.7897 25.2464 29.8931 25.0636 29.8239C24.7719 29.7136 24.3599 29.5989 23.824 29.5989C23.1469 29.5989 22.9536 29.8793 22.9536 30.1308C22.9536 30.4403 23.3597 30.6531 24.2397 30.9238C25.4968 31.3009 26.0191 31.8232 26.0191 32.7612C26.0191 33.6219 25.3808 34.3957 24.1431 34.5891V35.2249C24.1431 35.4078 23.9948 35.5561 23.812 35.5561H23.4781C23.2952 35.5561 23.1469 35.4078 23.1469 35.2249H23.1471Z" fill="url(#paint26_linear_3847_34761)"/>
<path d="M22.38 18.6862C25.5435 19.1609 27.6055 17.1648 29.1418 15.954C31.1704 14.3554 32.7489 15.1331 32.7489 15.1331L30.9255 19.2115C27.695 22.2574 24.0427 21.6314 21.9545 20.6442C21.9224 19.8468 22.1355 19.1793 22.38 18.6862Z" fill="url(#paint27_linear_3847_34761)"/>
<path d="M17.934 16.7989L18.983 17.3635C20.2413 18.1295 21.3671 18.5342 22.3803 18.6862C22.1358 19.1795 21.9226 19.8467 21.9548 20.6442C20.6254 20.0159 19.7921 19.2616 19.7921 19.2616C17.4156 17.8446 17.9342 16.7987 17.9342 16.7987L17.934 16.7989Z" fill="url(#paint28_linear_3847_34761)"/>
<path d="M14.8438 18.2772C14.9116 18.0521 15.078 17.87 15.2961 17.7823L17.4251 16.9261C17.4251 16.9261 17.4572 16.6529 16.9752 16.4675C16.4932 16.2819 16.6058 15.7421 16.6058 15.7421C16.6058 15.7421 17.2642 16.0424 18.2283 16.5188C18.7796 16.7913 19.0889 17.2724 19.2529 17.6345L18.7048 18.3553C17.3926 18.7494 16.0647 18.825 14.7256 18.6686L14.8434 18.2774L14.8438 18.2772Z" fill="url(#paint29_linear_3847_34761)"/>
<path d="M36.7142 23.4458C37.1323 23.467 37.3284 23.3536 37.3814 23.1674C37.5541 22.567 36.2613 21.263 36.2163 21.2174C36.2648 21.248 37.9709 22.3329 39.6421 21.1681C40.7646 20.3856 39.7557 19.7161 38.9204 19.3517C39.2929 19.3172 39.8305 19.1975 40.6097 18.9266C42.7712 18.1758 41.0539 17.2221 40.268 16.8701C40.6753 16.9192 41.4265 16.6828 42.4272 14.9799C44.0121 12.2846 41.4262 13.4265 41.4262 13.4265C41.4262 13.4265 42.5941 12.4641 42.3463 9.19929C42.1741 6.92787 41.3654 8.1224 40.9288 8.96031C41.4092 7.86366 42.2414 5.51615 41.2975 4.22429C40.4139 3.01442 39.83 4.78111 39.639 5.54311C39.7812 4.71868 39.9746 2.76362 39.5638 1.40916C39.5624 1.40583 39.5618 1.40269 39.5603 1.39937C39.4661 1.09132 39.3404 0.815769 39.176 0.59341C38.2472 -0.659482 37.5707 5.24669 36.9402 6.79046C36.3104 8.33294 33.8095 10.5521 34.7634 12.7247C35.7721 15.0207 33.6002 20.8434 33.6002 20.8434C33.9269 22.6457 34.9757 23.3577 36.7144 23.4459L36.7142 23.4458Z" fill="#91B3FA"/>
<path d="M37.3811 23.1675C37.5538 22.5671 36.261 21.2631 36.2159 21.2175C36.2645 21.2481 37.9706 22.333 39.6418 21.1682C40.7643 20.3857 39.7554 19.7162 38.9201 19.3518C39.2926 19.3173 39.8302 19.1976 40.6094 18.9267C42.7709 18.1759 41.0535 17.2222 40.2677 16.8702C40.6749 16.9193 41.4262 16.6829 42.4268 14.98C44.0118 12.2847 41.4259 13.4266 41.4259 13.4266C41.4259 13.4266 42.5938 12.4642 42.3459 9.19939C42.1738 6.92797 41.3651 8.1225 40.9285 8.96041C41.4089 7.86376 42.241 5.51625 41.2971 4.22439C40.4136 3.01452 39.8296 4.78121 39.6387 5.54321C39.7809 4.71878 39.9742 2.76372 39.5635 1.40926C39.562 1.40593 39.5615 1.40279 39.56 1.39947C39.1038 0.0263483 38.7832 2.18474 38.711 2.66196C38.4857 4.15291 38.5167 5.8797 37.8877 7.35034C37.5745 8.08464 37.1166 8.75688 36.7704 9.47272C36.4254 10.1845 36.0891 10.9659 36.1016 11.7733C36.1164 12.7303 36.6492 13.5598 36.7421 14.5277C36.8751 15.9147 36.2896 17.6221 35.8528 18.9117C35.576 19.7308 35.2825 20.5532 34.9453 21.3399C34.9974 22.6543 36.2209 23.2113 37.3811 23.1675Z" fill="#BDD0FB"/>
<path d="M39.7086 23.7081C40.1635 23.8422 40.4176 23.7914 40.5397 23.635C40.9358 23.1303 39.9592 21.5235 39.9243 21.4659C39.9685 21.5104 41.4685 23.032 43.6376 22.4421C45.0559 22.0563 44.2736 21.149 43.5367 20.5519C43.939 20.637 44.5377 20.6939 45.4274 20.6858C47.8144 20.6647 46.497 19.2573 45.8383 18.6665C46.2311 18.8502 47.0662 18.8811 48.6791 17.6416C51.2048 15.7021 48.3007 15.8125 48.3007 15.8125C48.3007 15.8125 49.8064 15.3381 50.8637 12.0712C51.6262 9.7167 50.3468 10.5517 49.5726 11.2016C50.4956 10.3086 52.2795 8.30406 51.9073 6.46701C51.545 4.67669 50.1916 6.2742 49.6725 6.9941C50.168 6.18002 51.2068 4.1485 51.3771 2.38828C51.3771 2.38366 51.3778 2.3796 51.3778 2.37498C51.4164 1.9672 51.4078 1.57401 51.3352 1.21462C50.9121 -0.864177 47.5911 5.5255 46.2455 6.89474C44.9004 8.2638 41.0531 9.41308 41.3604 12.2821C41.6685 15.151 36.9871 20.2449 36.9871 20.2449C36.7603 22.1322 37.7595 23.1332 39.709 23.7081H39.7086Z" fill="#7D97F4"/>
<path d="M40.5395 23.6353C40.9356 23.1306 39.959 21.5238 39.9241 21.4662C39.9683 21.5107 41.4683 23.0323 43.6374 22.4424C45.0557 22.0566 44.2734 21.1493 43.5365 20.5522C43.9388 20.6373 44.5375 20.6942 45.4271 20.6861C47.8142 20.665 46.4968 19.2576 45.838 18.6668C46.2309 18.8505 47.066 18.8814 48.6788 17.6419C51.2046 15.7024 48.3004 15.8128 48.3004 15.8128C48.3004 15.8128 49.8062 15.3384 50.8635 12.0715C51.626 9.717 50.3465 10.5519 49.5723 11.2019C50.4954 10.3089 52.2792 8.30435 51.9071 6.46731C51.5448 4.67699 50.1914 6.2745 49.6723 6.99439C50.1678 6.18031 51.2066 4.14879 51.3769 2.38857C51.3769 2.38396 51.3776 2.37989 51.3776 2.37528C51.5136 0.513484 50.218 2.78878 49.933 3.28595C49.0491 4.82898 48.3508 6.75504 47.0607 8.02197C46.4167 8.65562 45.6369 9.14891 44.9608 9.74839C44.2865 10.3451 43.5934 11.0223 43.2911 11.8928C42.9363 12.9133 43.2216 14.0142 42.957 15.0479C42.5841 16.5048 41.2956 17.9879 40.3308 19.1074C39.7197 19.8175 39.089 20.5243 38.4201 21.1816C38.0258 22.4677 39.2373 23.3524 40.5397 23.6351L40.5395 23.6353Z" fill="#91B3FA"/>
<path d="M31.9045 49.649C32.7433 49.7216 34.1992 49.8393 35.3468 49.8899C36.0368 49.9202 36.4338 49.8528 36.6626 49.7612C36.6623 49.787 36.6615 49.8114 36.6604 49.8339C36.6551 49.9547 36.5568 50.0513 36.4349 50.0581C34.2664 50.1791 32.5416 50.1 31.9275 50.0626C31.8007 50.0548 31.725 49.9168 31.7898 49.8086C31.8223 49.7545 31.8616 49.7015 31.9043 49.649H31.9045Z" fill="url(#paint30_linear_3847_34761)"/>
<path d="M35.3465 49.8898C34.1989 49.8392 32.743 49.7215 31.9042 49.6489C32.7288 48.6371 35.3465 47.9552 35.3465 47.9552H36.0858C36.5942 48.6882 36.6679 49.3859 36.6624 49.761C36.4335 49.8526 36.0365 49.9202 35.3465 49.8898Z" fill="url(#paint31_linear_3847_34761)"/>
<path d="M36.2105 46.7483L36.1413 48.1174C36.1337 48.2657 36.0229 48.3901 35.8744 48.4114C35.7266 48.4324 35.5288 48.4352 35.319 48.3654C35.19 48.3223 35.0941 48.2138 35.0703 48.081L34.8313 46.7483H36.2105Z" fill="url(#paint32_linear_3847_34761)"/>
<path d="M44.7912 51.2283C45.155 51.1628 45.3196 50.9186 45.3885 50.6575C45.389 50.6599 45.3894 50.6621 45.3898 50.6645C45.4433 50.9398 45.3192 51.2254 45.0712 51.3611C44.7714 51.5251 44.4436 51.5532 44.1891 51.5395C43.9162 51.5249 43.6656 51.379 43.5278 51.1452L43.5258 51.1417C43.7998 51.317 44.1845 51.3377 44.7912 51.2283Z" fill="url(#paint33_linear_3847_34761)"/>
<path d="M43.0761 47.17H43.6858C44.6144 47.1454 45.1976 49.6769 45.3886 50.6574C45.3195 50.9185 45.1549 51.1626 44.7913 51.2282C44.1846 51.3375 43.7999 51.3169 43.5258 51.1416C43.024 50.2884 42.7755 49.0386 42.6558 48.3093C42.5199 47.4799 43.0761 47.17 43.0761 47.17Z" fill="url(#paint34_linear_3847_34761)"/>
<path d="M43.607 45.8993L43.9455 47.2458C43.9871 47.4109 43.908 47.5818 43.7553 47.6601C43.566 47.7572 43.2993 47.8593 43.0542 47.8298C42.939 47.8159 42.8433 47.7347 42.8051 47.6263L42.3081 46.2096L43.6068 45.8993H43.607Z" fill="url(#paint35_linear_3847_34761)"/>
<path d="M31.6978 28.1649C31.6978 28.1649 34.7232 47.0765 34.6734 47.1803C34.6734 47.1803 35.5091 47.56 36.4199 47.2286C36.4199 47.2286 36.1464 37.1191 35.5052 33.2428C35.5052 33.2428 40.6686 42.2788 42.3082 46.7812C42.3082 46.7812 43.1635 46.6792 43.8713 46.2133C43.8713 46.2133 38.3118 29.9489 36.8286 27.7826L31.6978 28.1647V28.1649Z" fill="url(#paint36_linear_3847_34761)"/>
<path opacity="0.49" d="M35.3844 33.1768C35.3438 33.1768 35.3041 33.1567 35.2812 33.1197L34.1781 31.358L33.3974 31.201C33.3315 31.1877 33.2888 31.1237 33.3021 31.0579C33.3154 30.992 33.3793 30.9502 33.4452 30.9626L34.2771 31.1299C34.3099 31.1366 34.3386 31.1563 34.3563 31.1846L35.4871 32.9906C35.5227 33.0477 35.5054 33.1227 35.4485 33.1583C35.4284 33.1709 35.4062 33.1768 35.3842 33.1768H35.3844Z" fill="url(#paint37_linear_3847_34761)"/>
<path d="M31.2208 14.96C32.4012 14.8908 36.291 14.7644 39.5094 15.8279C40.1869 16.0517 40.6596 16.9491 40.9424 17.5979C41.813 19.596 39.7405 20.4025 38.1395 19.8541C37.3241 22.0559 36.9414 25.2687 36.8614 26.6906C36.835 27.1587 36.9172 27.626 37.101 28.0581L37.1209 28.1052C37.1603 28.1978 37.1062 28.304 37.0073 28.3263C34.8044 28.8211 32.5131 28.6866 31.8285 28.6301C31.7062 28.62 31.6048 28.5326 31.5767 28.4144C30.5056 23.9006 30.503 20.8215 30.7652 18.8751C29.7631 19.0992 31.0046 14.9724 31.2207 14.9598L31.2208 14.96Z" fill="url(#paint38_linear_3847_34761)"/>
<path d="M30.7613 19.0289C30.756 19.0289 30.7506 19.0285 30.7451 19.028C30.6786 19.0191 30.6319 18.958 30.6407 18.8915C30.8989 16.9392 31.4186 16.103 31.4408 16.0682C31.477 16.0117 31.5523 15.9953 31.6083 16.0308C31.665 16.0666 31.682 16.1418 31.6461 16.1985C31.641 16.2064 31.132 17.0321 30.8816 18.9235C30.8736 18.9846 30.8213 19.0291 30.7613 19.0291V19.0289Z" fill="url(#paint39_linear_3847_34761)"/>
<path d="M36.1975 12.3307C36.1975 12.3307 36.4204 14.6871 36.6165 15.3841C36.6463 15.4899 36.6003 15.6012 36.5042 15.6563C36.1712 15.8465 35.3725 16.157 34.2799 15.6216C34.103 15.5348 33.9964 15.3503 34.0047 15.1551L34.1009 12.8781L36.1975 12.3309V12.3307Z" fill="url(#paint40_linear_3847_34761)"/>
<path d="M34.053 9.31604C34.053 9.31604 33.3401 10.9534 33.2923 11.813C33.2445 12.6725 33.0592 13.23 34.053 13.4031C35.0468 13.5761 35.884 13.0812 36.3374 12.225C36.3374 12.225 37.048 10.9058 36.8885 10.3656C36.7291 9.8254 34.0528 9.31604 34.0528 9.31604H34.053Z" fill="url(#paint41_linear_3847_34761)"/>
<path d="M35.9978 11.6094L35.9413 11.5845C35.8692 11.5527 35.8384 11.467 35.8746 11.397C36.0148 11.1263 36.2879 10.5058 35.935 10.3611C35.4801 10.1746 33.6785 9.80728 33.2899 9.1679C32.9163 8.55346 33.2473 7.76043 33.7448 7.53493C33.7781 7.51979 33.8174 7.5318 33.8344 7.56411L33.8758 7.64261C33.9042 7.69635 33.9834 7.68822 34.0002 7.62986C34.0165 7.5739 34.0909 7.56301 34.1218 7.6125C34.2412 7.80383 34.5639 8.11373 35.4264 8.27293C36.6523 8.49917 37.4629 8.99523 37.483 9.84237C37.4843 9.89611 37.5415 9.92603 37.5875 9.89814C37.678 9.84292 37.8228 9.81707 38.0165 9.97996C38.3532 10.2631 38.2154 10.9974 37.4775 11.6015C37.4424 11.6301 37.4427 11.685 37.4806 11.7097C37.6145 11.7969 37.8139 12.0041 37.297 12.2804C36.7624 12.5661 36.3633 12.5426 36.2096 12.5173C36.1714 12.511 36.1466 12.4739 36.1551 12.4361L36.3191 11.6914C36.3284 11.6493 36.2964 11.6094 36.2532 11.6094H35.9976H35.9978Z" fill="url(#paint42_linear_3847_34761)"/>
<path d="M35.9669 11.7667C35.9669 11.7667 36.2388 10.7206 36.7079 11.0139C37.1768 11.3072 36.4645 12.1859 36.0875 12.2251L35.9669 11.7667Z" fill="url(#paint43_linear_3847_34761)"/>
<path d="M36.4074 35.3705L36.5069 38.4687C36.5243 39.0089 36.9677 39.4389 37.5107 39.4422L44.9299 39.486C45.2928 39.4882 45.6022 39.2245 45.655 38.8669C45.771 38.0844 45.9189 36.6845 45.7523 35.3705H36.407H36.4074Z" fill="url(#paint44_linear_3847_34761)"/>
<path d="M38.5815 33.1213L38.6038 32.8824C38.6289 32.8253 38.6814 32.7848 38.7431 32.7751C38.9743 32.7383 39.5476 32.6737 39.8235 32.88L39.8647 33.1575L38.5813 33.1213H38.5815Z" fill="url(#paint45_linear_3847_34761)"/>
<path d="M39.3033 32.8915C39.2501 32.9044 39.1967 32.9044 39.1433 32.8913C39.0787 32.8754 39.0331 32.8176 39.0331 32.7513V32.0032H39.4139V32.7508C39.4139 32.8173 39.3683 32.8756 39.3033 32.8915Z" fill="url(#paint46_linear_3847_34761)"/>
<path d="M42.2697 33.1213L42.2921 32.8824C42.3172 32.8253 42.3696 32.7848 42.4313 32.7751C42.6625 32.7383 43.2358 32.6737 43.5117 32.88L43.5529 33.1575L42.2695 33.1213H42.2697Z" fill="url(#paint47_linear_3847_34761)"/>
<path d="M42.9916 32.8915C42.9384 32.9044 42.8851 32.9044 42.8317 32.8913C42.7671 32.8754 42.7214 32.8176 42.7214 32.7513V31.9243H43.1023V32.7508C43.1023 32.8173 43.0566 32.8756 42.9916 32.8915Z" fill="url(#paint48_linear_3847_34761)"/>
<path d="M38.9948 32.1865L43.0897 32.051C43.1832 32.0479 43.2622 31.9806 43.2783 31.889C43.3006 31.7609 43.3206 31.569 43.291 31.3701C43.2574 31.1438 43.063 30.9758 42.8332 30.9702C42.0694 30.9521 40.1246 30.9527 39.0527 31.3765C38.9393 31.4214 38.8553 31.5182 38.8267 31.6362C38.7994 31.7487 38.7811 31.899 38.8169 32.0521C38.8359 32.1334 38.9111 32.1893 38.9949 32.1865H38.9948Z" fill="url(#paint49_linear_3847_34761)"/>
<path d="M38.9236 31.9738C38.9146 31.9738 38.9067 31.967 38.9057 31.9575C38.905 31.9511 38.8902 31.797 38.9303 31.6489C38.9608 31.5363 39.0498 31.4458 39.1628 31.4127C39.3909 31.3459 39.8269 31.2319 40.183 31.2219C40.193 31.2216 40.2013 31.2295 40.2015 31.2395C40.2018 31.2495 40.1939 31.2578 40.1839 31.258C39.8317 31.2677 39.3994 31.3808 39.1728 31.4473C39.0718 31.477 38.9922 31.5579 38.9648 31.6583C38.9266 31.8 38.9412 31.9524 38.9414 31.9538C38.9423 31.9638 38.9351 31.9725 38.9253 31.9736C38.9248 31.9736 38.924 31.9736 38.9235 31.9736L38.9236 31.9738Z" fill="#91B3FA"/>
<path d="M36.6815 33.0284C38.0044 33.0114 43.7274 32.9514 45.3897 33.152C45.5328 33.1691 45.6496 33.2738 45.6806 33.414C45.7788 33.8582 45.9764 34.8896 45.953 35.9122C45.9498 36.0515 45.8477 36.1688 45.7103 36.1948L41.9156 36.9127H40.5676L36.5243 36.1089C36.3818 36.0807 36.2767 35.9599 36.2695 35.8155C36.2433 35.3009 36.2021 34.0938 36.3413 33.3169C36.3709 33.1518 36.5129 33.0304 36.6813 33.0282L36.6815 33.0284Z" fill="url(#paint50_linear_3847_34761)"/>
<path d="M41.7888 37.4786H40.6079C40.4531 37.4786 40.3227 37.3635 40.3045 37.2104L40.168 36.0741C40.1462 35.8931 40.2882 35.7339 40.4714 35.7339H41.8902C42.0697 35.7339 42.2104 35.887 42.1945 36.065L42.0931 37.2014C42.0791 37.3584 41.947 37.4786 41.7888 37.4786Z" fill="url(#paint51_linear_3847_34761)"/>
<path d="M41.6967 37.3464H40.6948C40.5635 37.3464 40.4529 37.2487 40.4374 37.119L40.3216 36.155C40.3031 36.0015 40.4237 35.8663 40.579 35.8663H41.7826C41.9348 35.8663 42.0543 35.9964 42.0408 36.1472L41.9549 37.1113C41.9431 37.2444 41.831 37.3466 41.6967 37.3466V37.3464Z" fill="#7D97F4"/>
<path d="M39.8481 21.9452C39.8481 21.9452 41.0399 27.3217 39.9604 30.3444C41.2839 30.9581 41.0394 30.8423 41.0394 30.8423C41.0394 30.8423 43.6576 23.1924 42.8123 21.1507C41.1457 20.9739 40.3191 21.4216 39.8481 21.9452Z" fill="url(#paint52_linear_3847_34761)"/>
<path d="M39.9604 30.3443C39.9604 30.3443 39.2784 31.227 39.3331 31.5786C39.3876 31.9302 39.4007 32.0734 39.4007 32.0734C39.4007 32.0734 39.7434 31.839 39.7218 31.5394C39.6742 32.49 39.9209 32.4047 40.2103 32.3526C40.4995 32.3005 41.4322 32.0863 41.0935 30.6149C40.3252 30.081 40.1099 30.1392 39.9606 30.3442L39.9604 30.3443Z" fill="url(#paint53_linear_3847_34761)"/>
<path d="M37.6138 19.8738L39.5797 15.8566C39.5797 15.8566 44.9005 19.0617 42.3149 26.6903C41.6098 26.1988 41.2465 26.327 40.3704 26.6476C40.1567 18.7627 37.6138 19.8738 37.6138 19.8738Z" fill="url(#paint54_linear_3847_34761)"/>
<defs>
<linearGradient id="paint0_linear_3847_34761" x1="15.0822" y1="16.1753" x2="15.2698" y2="16.1753" gradientUnits="userSpaceOnUse">
<stop stop-color="#4F52FF"/>
<stop offset="1" stop-color="#4042E2"/>
</linearGradient>
<linearGradient id="paint1_linear_3847_34761" x1="19.6119" y1="15.4685" x2="19.792" y2="15.4685" gradientUnits="userSpaceOnUse">
<stop stop-color="#4F52FF"/>
<stop offset="1" stop-color="#4042E2"/>
</linearGradient>
<linearGradient id="paint2_linear_3847_34761" x1="22.889" y1="15.3679" x2="23.2415" y2="15.3679" gradientUnits="userSpaceOnUse">
<stop stop-color="#4F52FF"/>
<stop offset="1" stop-color="#4042E2"/>
</linearGradient>
<linearGradient id="paint3_linear_3847_34761" x1="26.34" y1="13.9078" x2="26.5202" y2="13.9078" gradientUnits="userSpaceOnUse">
<stop stop-color="#4F52FF"/>
<stop offset="1" stop-color="#4042E2"/>
</linearGradient>
<linearGradient id="paint4_linear_3847_34761" x1="9.28082" y1="13.2119" x2="10.4741" y2="13.2119" gradientUnits="userSpaceOnUse">
<stop stop-color="#4F52FF"/>
<stop offset="1" stop-color="#4042E2"/>
</linearGradient>
<linearGradient id="paint5_linear_3847_34761" x1="8.97217" y1="7.89488" x2="9.91756" y2="7.89488" gradientUnits="userSpaceOnUse">
<stop stop-color="#4F52FF"/>
<stop offset="1" stop-color="#4042E2"/>
</linearGradient>
<linearGradient id="paint6_linear_3847_34761" x1="9.5033" y1="18.1484" x2="28.7669" y2="18.1484" gradientUnits="userSpaceOnUse">
<stop stop-color="#4F52FF"/>
<stop offset="1" stop-color="#4042E2"/>
</linearGradient>
<linearGradient id="paint7_linear_3847_34761" x1="28.0939" y1="18.1484" x2="28.9406" y2="18.1484" gradientUnits="userSpaceOnUse">
<stop stop-color="#4F52FF"/>
<stop offset="1" stop-color="#4042E2"/>
</linearGradient>
<linearGradient id="paint8_linear_3847_34761" x1="10.9941" y1="12.3091" x2="26.8148" y2="12.3091" gradientUnits="userSpaceOnUse">
<stop stop-color="#4F52FF"/>
<stop offset="1" stop-color="#4042E2"/>
</linearGradient>
<linearGradient id="paint9_linear_3847_34761" x1="25.7535" y1="9.82501" x2="26.909" y2="9.82501" gradientUnits="userSpaceOnUse">
<stop stop-color="#4F52FF"/>
<stop offset="1" stop-color="#4042E2"/>
</linearGradient>
<linearGradient id="paint10_linear_3847_34761" x1="12.2229" y1="5.5773" x2="8.71302" y2="53.9642" gradientUnits="userSpaceOnUse">
<stop stop-color="#FF928E"/>
<stop offset="1" stop-color="#FE7062"/>
</linearGradient>
<linearGradient id="paint11_linear_3847_34761" x1="12.4241" y1="5.57377" x2="8.91419" y2="53.9604" gradientUnits="userSpaceOnUse">
<stop stop-color="#FF928E"/>
<stop offset="1" stop-color="#FE7062"/>
</linearGradient>
<linearGradient id="paint12_linear_3847_34761" x1="12.6264" y1="5.57033" x2="9.11645" y2="53.957" gradientUnits="userSpaceOnUse">
<stop stop-color="#FF928E"/>
<stop offset="1" stop-color="#FE7062"/>
</linearGradient>
<linearGradient id="paint13_linear_3847_34761" x1="12.8282" y1="5.56695" x2="9.31829" y2="53.9538" gradientUnits="userSpaceOnUse">
<stop stop-color="#FF928E"/>
<stop offset="1" stop-color="#FE7062"/>
</linearGradient>
<linearGradient id="paint14_linear_3847_34761" x1="13.0297" y1="5.56363" x2="9.51975" y2="53.9503" gradientUnits="userSpaceOnUse">
<stop stop-color="#FF928E"/>
<stop offset="1" stop-color="#FE7062"/>
</linearGradient>
<linearGradient id="paint15_linear_3847_34761" x1="13.2197" y1="5.55944" x2="9.70979" y2="53.9463" gradientUnits="userSpaceOnUse">
<stop stop-color="#FF928E"/>
<stop offset="1" stop-color="#FE7062"/>
</linearGradient>
<linearGradient id="paint16_linear_3847_34761" x1="0.95404" y1="38.6414" x2="9.51633" y2="28.703" gradientUnits="userSpaceOnUse">
<stop stop-color="#FF928E"/>
<stop offset="1" stop-color="#FE7062"/>
</linearGradient>
<linearGradient id="paint17_linear_3847_34761" x1="9.08657" y1="14.6359" x2="10.3317" y2="43.2718" gradientUnits="userSpaceOnUse">
<stop stop-color="#FF928E"/>
<stop offset="1" stop-color="#FE7062"/>
</linearGradient>
<linearGradient id="paint18_linear_3847_34761" x1="11.3233" y1="17.1069" x2="10.2963" y2="25.3238" gradientUnits="userSpaceOnUse">
<stop stop-color="#FF928E"/>
<stop offset="1" stop-color="#FE7062"/>
</linearGradient>
<linearGradient id="paint19_linear_3847_34761" x1="26.6277" y1="17.4316" x2="21.8525" y2="57.644" gradientUnits="userSpaceOnUse">
<stop stop-color="#FF928E"/>
<stop offset="1" stop-color="#FE7062"/>
</linearGradient>
<linearGradient id="paint20_linear_3847_34761" x1="26.9497" y1="17.4453" x2="22.1746" y2="57.6577" gradientUnits="userSpaceOnUse">
<stop stop-color="#FF928E"/>
<stop offset="1" stop-color="#FE7062"/>
</linearGradient>
<linearGradient id="paint21_linear_3847_34761" x1="27.2716" y1="17.459" x2="22.4964" y2="57.6714" gradientUnits="userSpaceOnUse">
<stop stop-color="#FF928E"/>
<stop offset="1" stop-color="#FE7062"/>
</linearGradient>
<linearGradient id="paint22_linear_3847_34761" x1="27.5935" y1="17.4725" x2="22.8181" y2="57.6849" gradientUnits="userSpaceOnUse">
<stop stop-color="#FF928E"/>
<stop offset="1" stop-color="#FE7062"/>
</linearGradient>
<linearGradient id="paint23_linear_3847_34761" x1="27.9025" y1="17.4851" x2="23.1273" y2="57.6975" gradientUnits="userSpaceOnUse">
<stop stop-color="#FF928E"/>
<stop offset="1" stop-color="#FE7062"/>
</linearGradient>
<linearGradient id="paint24_linear_3847_34761" x1="14.7899" y1="41.3462" x2="23.3522" y2="31.408" gradientUnits="userSpaceOnUse">
<stop stop-color="#FF928E"/>
<stop offset="1" stop-color="#FE7062"/>
</linearGradient>
<linearGradient id="paint25_linear_3847_34761" x1="24.6125" y1="12.3642" x2="23.1184" y2="38.2611" gradientUnits="userSpaceOnUse">
<stop stop-color="#FF928E"/>
<stop offset="1" stop-color="#FE7062"/>
</linearGradient>
<linearGradient id="paint26_linear_3847_34761" x1="31.1692" y1="15.1702" x2="27.7143" y2="22.7335" gradientUnits="userSpaceOnUse">
<stop stop-color="#FF928E"/>
<stop offset="1" stop-color="#FE7062"/>
</linearGradient>
<linearGradient id="paint27_linear_3847_34761" x1="37.5087" y1="1.81688" x2="29.5404" y2="14.3918" gradientUnits="userSpaceOnUse">
<stop stop-color="#FF928E"/>
<stop offset="1" stop-color="#FE7062"/>
</linearGradient>
<linearGradient id="paint28_linear_3847_34761" x1="14.7198" y1="11.1788" x2="29.2476" y2="29.7657" gradientUnits="userSpaceOnUse">
<stop stop-color="#FEBBBA"/>
<stop offset="1" stop-color="#FF928E"/>
</linearGradient>
<linearGradient id="paint29_linear_3847_34761" x1="12.7759" y1="12.6985" x2="27.3036" y2="31.2856" gradientUnits="userSpaceOnUse">
<stop stop-color="#FEBBBA"/>
<stop offset="1" stop-color="#FF928E"/>
</linearGradient>
<linearGradient id="paint30_linear_3847_34761" x1="36.6625" y1="49.8858" x2="31.7661" y2="49.8858" gradientUnits="userSpaceOnUse">
<stop stop-color="#4F52FF"/>
<stop offset="1" stop-color="#4042E2"/>
</linearGradient>
<linearGradient id="paint31_linear_3847_34761" x1="36.6627" y1="48.9261" x2="31.9042" y2="48.9261" gradientUnits="userSpaceOnUse">
<stop stop-color="#09005D"/>
<stop offset="1" stop-color="#1A0F91"/>
</linearGradient>
<linearGradient id="paint32_linear_3847_34761" x1="36.2103" y1="47.5864" x2="34.8311" y2="47.5864" gradientUnits="userSpaceOnUse">
<stop stop-color="#FEBBBA"/>
<stop offset="1" stop-color="#FF928E"/>
</linearGradient>
<linearGradient id="paint33_linear_3847_34761" x1="45.4021" y1="51.1" x2="43.5258" y2="51.1" gradientUnits="userSpaceOnUse">
<stop stop-color="#4F52FF"/>
<stop offset="1" stop-color="#4042E2"/>
</linearGradient>
<linearGradient id="paint34_linear_3847_34761" x1="45.3884" y1="49.2325" x2="42.6342" y2="49.2325" gradientUnits="userSpaceOnUse">
<stop stop-color="#09005D"/>
<stop offset="1" stop-color="#1A0F91"/>
</linearGradient>
<linearGradient id="paint35_linear_3847_34761" x1="43.9564" y1="46.8672" x2="42.3081" y2="46.8672" gradientUnits="userSpaceOnUse">
<stop stop-color="#FEBBBA"/>
<stop offset="1" stop-color="#FF928E"/>
</linearGradient>
<linearGradient id="paint36_linear_3847_34761" x1="30.6242" y1="29.0798" x2="44.6971" y2="52.1324" gradientUnits="userSpaceOnUse">
<stop stop-color="#09005D"/>
<stop offset="1" stop-color="#1A0F91"/>
</linearGradient>
<linearGradient id="paint37_linear_3847_34761" x1="40.1406" y1="16.7259" x2="34.2429" y2="32.4959" gradientUnits="userSpaceOnUse">
<stop stop-color="#53D8FF"/>
<stop offset="1" stop-color="#3840F7"/>
</linearGradient>
<linearGradient id="paint38_linear_3847_34761" x1="44.0632" y1="5.96983" x2="36.0948" y2="18.5447" gradientUnits="userSpaceOnUse">
<stop stop-color="#FF928E"/>
<stop offset="1" stop-color="#FE7062"/>
</linearGradient>
<linearGradient id="paint39_linear_3847_34761" x1="39.1297" y1="-1.22015" x2="28.5529" y2="23.5875" gradientUnits="userSpaceOnUse">
<stop stop-color="#E1473D"/>
<stop offset="1" stop-color="#E9605A"/>
</linearGradient>
<linearGradient id="paint40_linear_3847_34761" x1="35.836" y1="17.6366" x2="35.1219" y2="13.887" gradientUnits="userSpaceOnUse">
<stop stop-color="#FEBBBA"/>
<stop offset="1" stop-color="#FF928E"/>
</linearGradient>
<linearGradient id="paint41_linear_3847_34761" x1="33.9034" y1="10.7573" x2="37.9785" y2="13.8753" gradientUnits="userSpaceOnUse">
<stop stop-color="#FEBBBA"/>
<stop offset="1" stop-color="#FF928E"/>
</linearGradient>
<linearGradient id="paint42_linear_3847_34761" x1="36.7721" y1="8.28863" x2="32.9769" y2="13.1748" gradientUnits="userSpaceOnUse">
<stop stop-color="#09005D"/>
<stop offset="1" stop-color="#1A0F91"/>
</linearGradient>
<linearGradient id="paint43_linear_3847_34761" x1="34.4089" y1="10.0968" x2="38.484" y2="13.2148" gradientUnits="userSpaceOnUse">
<stop stop-color="#FEBBBA"/>
<stop offset="1" stop-color="#FF928E"/>
</linearGradient>
<linearGradient id="paint44_linear_3847_34761" x1="41.7558" y1="30.3061" x2="41.3408" y2="34.2487" gradientUnits="userSpaceOnUse">
<stop stop-color="#4F52FF"/>
<stop offset="1" stop-color="#4042E2"/>
</linearGradient>
<linearGradient id="paint45_linear_3847_34761" x1="39.5882" y1="28.331" x2="39.4637" y2="29.9705" gradientUnits="userSpaceOnUse">
<stop stop-color="#4F52FF"/>
<stop offset="1" stop-color="#4042E2"/>
</linearGradient>
<linearGradient id="paint46_linear_3847_34761" x1="39.1607" y1="27.4786" x2="39.1816" y2="29.0972" gradientUnits="userSpaceOnUse">
<stop stop-color="#4F52FF"/>
<stop offset="1" stop-color="#4042E2"/>
</linearGradient>
<linearGradient id="paint47_linear_3847_34761" x1="43.2554" y1="28.6095" x2="43.1309" y2="30.249" gradientUnits="userSpaceOnUse">
<stop stop-color="#4F52FF"/>
<stop offset="1" stop-color="#4042E2"/>
</linearGradient>
<linearGradient id="paint48_linear_3847_34761" x1="42.8489" y1="27.4313" x2="42.8696" y2="29.0497" gradientUnits="userSpaceOnUse">
<stop stop-color="#4F52FF"/>
<stop offset="1" stop-color="#4042E2"/>
</linearGradient>
<linearGradient id="paint49_linear_3847_34761" x1="41.1786" y1="31.4953" x2="42.6727" y2="28.3413" gradientUnits="userSpaceOnUse">
<stop stop-color="#4F52FF"/>
<stop offset="1" stop-color="#4042E2"/>
</linearGradient>
<linearGradient id="paint50_linear_3847_34761" x1="43.6771" y1="30.1023" x2="53.1396" y2="13.1696" gradientUnits="userSpaceOnUse">
<stop stop-color="#4F52FF"/>
<stop offset="1" stop-color="#4042E2"/>
</linearGradient>
<linearGradient id="paint51_linear_3847_34761" x1="41.547" y1="33.3027" x2="41.0157" y2="37.5126" gradientUnits="userSpaceOnUse">
<stop stop-color="#09005D"/>
<stop offset="1" stop-color="#1A0F91"/>
</linearGradient>
<linearGradient id="paint52_linear_3847_34761" x1="38.9873" y1="39.853" x2="41.8592" y2="19.228" gradientUnits="userSpaceOnUse">
<stop stop-color="#FEBBBA"/>
<stop offset="1" stop-color="#FF928E"/>
</linearGradient>
<linearGradient id="paint53_linear_3847_34761" x1="39.7202" y1="35.2048" x2="41.2133" y2="24.4818" gradientUnits="userSpaceOnUse">
<stop stop-color="#FEBBBA"/>
<stop offset="1" stop-color="#FF928E"/>
</linearGradient>
<linearGradient id="paint54_linear_3847_34761" x1="48.7589" y1="8.94572" x2="40.7907" y2="21.5206" gradientUnits="userSpaceOnUse">
<stop stop-color="#FF928E"/>
<stop offset="1" stop-color="#FE7062"/>
</linearGradient>
</defs>
</svg>
